<?xml version="1.0" encoding="utf-8" standalone="no"?>
<!DOCTYPE svg PUBLIC "-//W3C//DTD SVG 1.1//EN"
  "http://www.w3.org/Graphics/SVG/1.1/DTD/svg11.dtd">
<!-- Created with matplotlib (https://matplotlib.org/) -->
<svg height="456.031033pt" version="1.1" viewBox="0 0 715.282812 456.031033" width="715.282812pt" xmlns="http://www.w3.org/2000/svg" xmlns:xlink="http://www.w3.org/1999/xlink">
 <defs>
  <style type="text/css">
*{stroke-linecap:butt;stroke-linejoin:round;}
  </style>
 </defs>
 <g id="figure_1">
  <g id="patch_1">
   <path d="M 0 456.031033 
L 715.282812 456.031033 
L 715.282812 0 
L 0 0 
z
" style="fill:none;"/>
  </g>
  <g id="axes_1">
   <g id="patch_2">
    <path d="M 38.482813 398.88 
L 708.082813 398.88 
L 708.082813 7.2 
L 38.482813 7.2 
z
" style="fill:#ffffff;"/>
   </g>
   <g id="matplotlib.axis_1">
    <g id="xtick_1">
     <g id="line2d_1">
      <defs>
       <path d="M 0 0 
L 0 3.5 
" id="mf2587dc536" style="stroke:#000000;stroke-width:0.8;"/>
      </defs>
      <g>
       <use style="stroke:#000000;stroke-width:0.8;" x="67.395453" xlink:href="#mf2587dc536" y="398.88"/>
      </g>
     </g>
     <g id="text_1">
      <!-- 2018-01 -->
      <defs>
       <path d="M 19.1875 8.296875 
L 53.609375 8.296875 
L 53.609375 0 
L 7.328125 0 
L 7.328125 8.296875 
Q 12.9375 14.109375 22.625 23.890625 
Q 32.328125 33.6875 34.8125 36.53125 
Q 39.546875 41.84375 41.421875 45.53125 
Q 43.3125 49.21875 43.3125 52.78125 
Q 43.3125 58.59375 39.234375 62.25 
Q 35.15625 65.921875 28.609375 65.921875 
Q 23.96875 65.921875 18.8125 64.3125 
Q 13.671875 62.703125 7.8125 59.421875 
L 7.8125 69.390625 
Q 13.765625 71.78125 18.9375 73 
Q 24.125 74.21875 28.421875 74.21875 
Q 39.75 74.21875 46.484375 68.546875 
Q 53.21875 62.890625 53.21875 53.421875 
Q 53.21875 48.921875 51.53125 44.890625 
Q 49.859375 40.875 45.40625 35.40625 
Q 44.1875 33.984375 37.640625 27.21875 
Q 31.109375 20.453125 19.1875 8.296875 
z
" id="DejaVuSans-50"/>
       <path d="M 31.78125 66.40625 
Q 24.171875 66.40625 20.328125 58.90625 
Q 16.5 51.421875 16.5 36.375 
Q 16.5 21.390625 20.328125 13.890625 
Q 24.171875 6.390625 31.78125 6.390625 
Q 39.453125 6.390625 43.28125 13.890625 
Q 47.125 21.390625 47.125 36.375 
Q 47.125 51.421875 43.28125 58.90625 
Q 39.453125 66.40625 31.78125 66.40625 
z
M 31.78125 74.21875 
Q 44.046875 74.21875 50.515625 64.515625 
Q 56.984375 54.828125 56.984375 36.375 
Q 56.984375 17.96875 50.515625 8.265625 
Q 44.046875 -1.421875 31.78125 -1.421875 
Q 19.53125 -1.421875 13.0625 8.265625 
Q 6.59375 17.96875 6.59375 36.375 
Q 6.59375 54.828125 13.0625 64.515625 
Q 19.53125 74.21875 31.78125 74.21875 
z
" id="DejaVuSans-48"/>
       <path d="M 12.40625 8.296875 
L 28.515625 8.296875 
L 28.515625 63.921875 
L 10.984375 60.40625 
L 10.984375 69.390625 
L 28.421875 72.90625 
L 38.28125 72.90625 
L 38.28125 8.296875 
L 54.390625 8.296875 
L 54.390625 0 
L 12.40625 0 
z
" id="DejaVuSans-49"/>
       <path d="M 31.78125 34.625 
Q 24.75 34.625 20.71875 30.859375 
Q 16.703125 27.09375 16.703125 20.515625 
Q 16.703125 13.921875 20.71875 10.15625 
Q 24.75 6.390625 31.78125 6.390625 
Q 38.8125 6.390625 42.859375 10.171875 
Q 46.921875 13.96875 46.921875 20.515625 
Q 46.921875 27.09375 42.890625 30.859375 
Q 38.875 34.625 31.78125 34.625 
z
M 21.921875 38.8125 
Q 15.578125 40.375 12.03125 44.71875 
Q 8.5 49.078125 8.5 55.328125 
Q 8.5 64.0625 14.71875 69.140625 
Q 20.953125 74.21875 31.78125 74.21875 
Q 42.671875 74.21875 48.875 69.140625 
Q 55.078125 64.0625 55.078125 55.328125 
Q 55.078125 49.078125 51.53125 44.71875 
Q 48 40.375 41.703125 38.8125 
Q 48.828125 37.15625 52.796875 32.3125 
Q 56.78125 27.484375 56.78125 20.515625 
Q 56.78125 9.90625 50.3125 4.234375 
Q 43.84375 -1.421875 31.78125 -1.421875 
Q 19.734375 -1.421875 13.25 4.234375 
Q 6.78125 9.90625 6.78125 20.515625 
Q 6.78125 27.484375 10.78125 32.3125 
Q 14.796875 37.15625 21.921875 38.8125 
z
M 18.3125 54.390625 
Q 18.3125 48.734375 21.84375 45.5625 
Q 25.390625 42.390625 31.78125 42.390625 
Q 38.140625 42.390625 41.71875 45.5625 
Q 45.3125 48.734375 45.3125 54.390625 
Q 45.3125 60.0625 41.71875 63.234375 
Q 38.140625 66.40625 31.78125 66.40625 
Q 25.390625 66.40625 21.84375 63.234375 
Q 18.3125 60.0625 18.3125 54.390625 
z
" id="DejaVuSans-56"/>
       <path d="M 4.890625 31.390625 
L 31.203125 31.390625 
L 31.203125 23.390625 
L 4.890625 23.390625 
z
" id="DejaVuSans-45"/>
      </defs>
      <g transform="translate(30.170632 433.351846)rotate(-30)scale(0.1 -0.1)">
       <use xlink:href="#DejaVuSans-50"/>
       <use x="63.623047" xlink:href="#DejaVuSans-48"/>
       <use x="127.246094" xlink:href="#DejaVuSans-49"/>
       <use x="190.869141" xlink:href="#DejaVuSans-56"/>
       <use x="254.492188" xlink:href="#DejaVuSans-45"/>
       <use x="290.576172" xlink:href="#DejaVuSans-48"/>
       <use x="354.199219" xlink:href="#DejaVuSans-49"/>
      </g>
     </g>
    </g>
    <g id="xtick_2">
     <g id="line2d_2">
      <g>
       <use style="stroke:#000000;stroke-width:0.8;" x="135.962981" xlink:href="#mf2587dc536" y="398.88"/>
      </g>
     </g>
     <g id="text_2">
      <!-- 2018-04 -->
      <defs>
       <path d="M 37.796875 64.3125 
L 12.890625 25.390625 
L 37.796875 25.390625 
z
M 35.203125 72.90625 
L 47.609375 72.90625 
L 47.609375 25.390625 
L 58.015625 25.390625 
L 58.015625 17.1875 
L 47.609375 17.1875 
L 47.609375 0 
L 37.796875 0 
L 37.796875 17.1875 
L 4.890625 17.1875 
L 4.890625 26.703125 
z
" id="DejaVuSans-52"/>
      </defs>
      <g transform="translate(98.73816 433.351846)rotate(-30)scale(0.1 -0.1)">
       <use xlink:href="#DejaVuSans-50"/>
       <use x="63.623047" xlink:href="#DejaVuSans-48"/>
       <use x="127.246094" xlink:href="#DejaVuSans-49"/>
       <use x="190.869141" xlink:href="#DejaVuSans-56"/>
       <use x="254.492188" xlink:href="#DejaVuSans-45"/>
       <use x="290.576172" xlink:href="#DejaVuSans-48"/>
       <use x="354.199219" xlink:href="#DejaVuSans-52"/>
      </g>
     </g>
    </g>
    <g id="xtick_3">
     <g id="line2d_3">
      <g>
       <use style="stroke:#000000;stroke-width:0.8;" x="205.29237" xlink:href="#mf2587dc536" y="398.88"/>
      </g>
     </g>
     <g id="text_3">
      <!-- 2018-07 -->
      <defs>
       <path d="M 8.203125 72.90625 
L 55.078125 72.90625 
L 55.078125 68.703125 
L 28.609375 0 
L 18.3125 0 
L 43.21875 64.59375 
L 8.203125 64.59375 
z
" id="DejaVuSans-55"/>
      </defs>
      <g transform="translate(168.067549 433.351846)rotate(-30)scale(0.1 -0.1)">
       <use xlink:href="#DejaVuSans-50"/>
       <use x="63.623047" xlink:href="#DejaVuSans-48"/>
       <use x="127.246094" xlink:href="#DejaVuSans-49"/>
       <use x="190.869141" xlink:href="#DejaVuSans-56"/>
       <use x="254.492188" xlink:href="#DejaVuSans-45"/>
       <use x="290.576172" xlink:href="#DejaVuSans-48"/>
       <use x="354.199219" xlink:href="#DejaVuSans-55"/>
      </g>
     </g>
    </g>
    <g id="xtick_4">
     <g id="line2d_4">
      <g>
       <use style="stroke:#000000;stroke-width:0.8;" x="275.38362" xlink:href="#mf2587dc536" y="398.88"/>
      </g>
     </g>
     <g id="text_4">
      <!-- 2018-10 -->
      <g transform="translate(238.1588 433.351846)rotate(-30)scale(0.1 -0.1)">
       <use xlink:href="#DejaVuSans-50"/>
       <use x="63.623047" xlink:href="#DejaVuSans-48"/>
       <use x="127.246094" xlink:href="#DejaVuSans-49"/>
       <use x="190.869141" xlink:href="#DejaVuSans-56"/>
       <use x="254.492188" xlink:href="#DejaVuSans-45"/>
       <use x="290.576172" xlink:href="#DejaVuSans-49"/>
       <use x="354.199219" xlink:href="#DejaVuSans-48"/>
      </g>
     </g>
    </g>
    <g id="xtick_5">
     <g id="line2d_5">
      <g>
       <use style="stroke:#000000;stroke-width:0.8;" x="345.474871" xlink:href="#mf2587dc536" y="398.88"/>
      </g>
     </g>
     <g id="text_5">
      <!-- 2019-01 -->
      <defs>
       <path d="M 10.984375 1.515625 
L 10.984375 10.5 
Q 14.703125 8.734375 18.5 7.8125 
Q 22.3125 6.890625 25.984375 6.890625 
Q 35.75 6.890625 40.890625 13.453125 
Q 46.046875 20.015625 46.78125 33.40625 
Q 43.953125 29.203125 39.59375 26.953125 
Q 35.25 24.703125 29.984375 24.703125 
Q 19.046875 24.703125 12.671875 31.3125 
Q 6.296875 37.9375 6.296875 49.421875 
Q 6.296875 60.640625 12.9375 67.421875 
Q 19.578125 74.21875 30.609375 74.21875 
Q 43.265625 74.21875 49.921875 64.515625 
Q 56.59375 54.828125 56.59375 36.375 
Q 56.59375 19.140625 48.40625 8.859375 
Q 40.234375 -1.421875 26.421875 -1.421875 
Q 22.703125 -1.421875 18.890625 -0.6875 
Q 15.09375 0.046875 10.984375 1.515625 
z
M 30.609375 32.421875 
Q 37.25 32.421875 41.125 36.953125 
Q 45.015625 41.5 45.015625 49.421875 
Q 45.015625 57.28125 41.125 61.84375 
Q 37.25 66.40625 30.609375 66.40625 
Q 23.96875 66.40625 20.09375 61.84375 
Q 16.21875 57.28125 16.21875 49.421875 
Q 16.21875 41.5 20.09375 36.953125 
Q 23.96875 32.421875 30.609375 32.421875 
z
" id="DejaVuSans-57"/>
      </defs>
      <g transform="translate(308.25005 433.351846)rotate(-30)scale(0.1 -0.1)">
       <use xlink:href="#DejaVuSans-50"/>
       <use x="63.623047" xlink:href="#DejaVuSans-48"/>
       <use x="127.246094" xlink:href="#DejaVuSans-49"/>
       <use x="190.869141" xlink:href="#DejaVuSans-57"/>
       <use x="254.492188" xlink:href="#DejaVuSans-45"/>
       <use x="290.576172" xlink:href="#DejaVuSans-48"/>
       <use x="354.199219" xlink:href="#DejaVuSans-49"/>
      </g>
     </g>
    </g>
    <g id="xtick_6">
     <g id="line2d_6">
      <g>
       <use style="stroke:#000000;stroke-width:0.8;" x="414.042398" xlink:href="#mf2587dc536" y="398.88"/>
      </g>
     </g>
     <g id="text_6">
      <!-- 2019-04 -->
      <g transform="translate(376.817578 433.351846)rotate(-30)scale(0.1 -0.1)">
       <use xlink:href="#DejaVuSans-50"/>
       <use x="63.623047" xlink:href="#DejaVuSans-48"/>
       <use x="127.246094" xlink:href="#DejaVuSans-49"/>
       <use x="190.869141" xlink:href="#DejaVuSans-57"/>
       <use x="254.492188" xlink:href="#DejaVuSans-45"/>
       <use x="290.576172" xlink:href="#DejaVuSans-48"/>
       <use x="354.199219" xlink:href="#DejaVuSans-52"/>
      </g>
     </g>
    </g>
    <g id="xtick_7">
     <g id="line2d_7">
      <g>
       <use style="stroke:#000000;stroke-width:0.8;" x="483.371787" xlink:href="#mf2587dc536" y="398.88"/>
      </g>
     </g>
     <g id="text_7">
      <!-- 2019-07 -->
      <g transform="translate(446.146967 433.351846)rotate(-30)scale(0.1 -0.1)">
       <use xlink:href="#DejaVuSans-50"/>
       <use x="63.623047" xlink:href="#DejaVuSans-48"/>
       <use x="127.246094" xlink:href="#DejaVuSans-49"/>
       <use x="190.869141" xlink:href="#DejaVuSans-57"/>
       <use x="254.492188" xlink:href="#DejaVuSans-45"/>
       <use x="290.576172" xlink:href="#DejaVuSans-48"/>
       <use x="354.199219" xlink:href="#DejaVuSans-55"/>
      </g>
     </g>
    </g>
    <g id="xtick_8">
     <g id="line2d_8">
      <g>
       <use style="stroke:#000000;stroke-width:0.8;" x="553.463038" xlink:href="#mf2587dc536" y="398.88"/>
      </g>
     </g>
     <g id="text_8">
      <!-- 2019-10 -->
      <g transform="translate(516.238217 433.351846)rotate(-30)scale(0.1 -0.1)">
       <use xlink:href="#DejaVuSans-50"/>
       <use x="63.623047" xlink:href="#DejaVuSans-48"/>
       <use x="127.246094" xlink:href="#DejaVuSans-49"/>
       <use x="190.869141" xlink:href="#DejaVuSans-57"/>
       <use x="254.492188" xlink:href="#DejaVuSans-45"/>
       <use x="290.576172" xlink:href="#DejaVuSans-49"/>
       <use x="354.199219" xlink:href="#DejaVuSans-48"/>
      </g>
     </g>
    </g>
    <g id="xtick_9">
     <g id="line2d_9">
      <g>
       <use style="stroke:#000000;stroke-width:0.8;" x="623.554288" xlink:href="#mf2587dc536" y="398.88"/>
      </g>
     </g>
     <g id="text_9">
      <!-- 2020-01 -->
      <g transform="translate(586.329467 433.351846)rotate(-30)scale(0.1 -0.1)">
       <use xlink:href="#DejaVuSans-50"/>
       <use x="63.623047" xlink:href="#DejaVuSans-48"/>
       <use x="127.246094" xlink:href="#DejaVuSans-50"/>
       <use x="190.869141" xlink:href="#DejaVuSans-48"/>
       <use x="254.492188" xlink:href="#DejaVuSans-45"/>
       <use x="290.576172" xlink:href="#DejaVuSans-48"/>
       <use x="354.199219" xlink:href="#DejaVuSans-49"/>
      </g>
     </g>
    </g>
    <g id="xtick_10">
     <g id="line2d_10">
      <g>
       <use style="stroke:#000000;stroke-width:0.8;" x="692.883677" xlink:href="#mf2587dc536" y="398.88"/>
      </g>
     </g>
     <g id="text_10">
      <!-- 2020-04 -->
      <g transform="translate(655.658856 433.351846)rotate(-30)scale(0.1 -0.1)">
       <use xlink:href="#DejaVuSans-50"/>
       <use x="63.623047" xlink:href="#DejaVuSans-48"/>
       <use x="127.246094" xlink:href="#DejaVuSans-50"/>
       <use x="190.869141" xlink:href="#DejaVuSans-48"/>
       <use x="254.492188" xlink:href="#DejaVuSans-45"/>
       <use x="290.576172" xlink:href="#DejaVuSans-48"/>
       <use x="354.199219" xlink:href="#DejaVuSans-52"/>
      </g>
     </g>
    </g>
    <g id="text_11">
     <!-- Date -->
     <defs>
      <path d="M 19.671875 64.796875 
L 19.671875 8.109375 
L 31.59375 8.109375 
Q 46.6875 8.109375 53.6875 14.9375 
Q 60.6875 21.78125 60.6875 36.53125 
Q 60.6875 51.171875 53.6875 57.984375 
Q 46.6875 64.796875 31.59375 64.796875 
z
M 9.8125 72.90625 
L 30.078125 72.90625 
Q 51.265625 72.90625 61.171875 64.09375 
Q 71.09375 55.28125 71.09375 36.53125 
Q 71.09375 17.671875 61.125 8.828125 
Q 51.171875 0 30.078125 0 
L 9.8125 0 
z
" id="DejaVuSans-68"/>
      <path d="M 34.28125 27.484375 
Q 23.390625 27.484375 19.1875 25 
Q 14.984375 22.515625 14.984375 16.5 
Q 14.984375 11.71875 18.140625 8.90625 
Q 21.296875 6.109375 26.703125 6.109375 
Q 34.1875 6.109375 38.703125 11.40625 
Q 43.21875 16.703125 43.21875 25.484375 
L 43.21875 27.484375 
z
M 52.203125 31.203125 
L 52.203125 0 
L 43.21875 0 
L 43.21875 8.296875 
Q 40.140625 3.328125 35.546875 0.953125 
Q 30.953125 -1.421875 24.3125 -1.421875 
Q 15.921875 -1.421875 10.953125 3.296875 
Q 6 8.015625 6 15.921875 
Q 6 25.140625 12.171875 29.828125 
Q 18.359375 34.515625 30.609375 34.515625 
L 43.21875 34.515625 
L 43.21875 35.40625 
Q 43.21875 41.609375 39.140625 45 
Q 35.0625 48.390625 27.6875 48.390625 
Q 23 48.390625 18.546875 47.265625 
Q 14.109375 46.140625 10.015625 43.890625 
L 10.015625 52.203125 
Q 14.9375 54.109375 19.578125 55.046875 
Q 24.21875 56 28.609375 56 
Q 40.484375 56 46.34375 49.84375 
Q 52.203125 43.703125 52.203125 31.203125 
z
" id="DejaVuSans-97"/>
      <path d="M 18.3125 70.21875 
L 18.3125 54.6875 
L 36.8125 54.6875 
L 36.8125 47.703125 
L 18.3125 47.703125 
L 18.3125 18.015625 
Q 18.3125 11.328125 20.140625 9.421875 
Q 21.96875 7.515625 27.59375 7.515625 
L 36.8125 7.515625 
L 36.8125 0 
L 27.59375 0 
Q 17.1875 0 13.234375 3.875 
Q 9.28125 7.765625 9.28125 18.015625 
L 9.28125 47.703125 
L 2.6875 47.703125 
L 2.6875 54.6875 
L 9.28125 54.6875 
L 9.28125 70.21875 
z
" id="DejaVuSans-116"/>
      <path d="M 56.203125 29.59375 
L 56.203125 25.203125 
L 14.890625 25.203125 
Q 15.484375 15.921875 20.484375 11.0625 
Q 25.484375 6.203125 34.421875 6.203125 
Q 39.59375 6.203125 44.453125 7.46875 
Q 49.3125 8.734375 54.109375 11.28125 
L 54.109375 2.78125 
Q 49.265625 0.734375 44.1875 -0.34375 
Q 39.109375 -1.421875 33.890625 -1.421875 
Q 20.796875 -1.421875 13.15625 6.1875 
Q 5.515625 13.8125 5.515625 26.8125 
Q 5.515625 40.234375 12.765625 48.109375 
Q 20.015625 56 32.328125 56 
Q 43.359375 56 49.78125 48.890625 
Q 56.203125 41.796875 56.203125 29.59375 
z
M 47.21875 32.234375 
Q 47.125 39.59375 43.09375 43.984375 
Q 39.0625 48.390625 32.421875 48.390625 
Q 24.90625 48.390625 20.390625 44.140625 
Q 15.875 39.890625 15.1875 32.171875 
z
" id="DejaVuSans-101"/>
     </defs>
     <g transform="translate(361.332031 446.751346)scale(0.1 -0.1)">
      <use xlink:href="#DejaVuSans-68"/>
      <use x="77.001953" xlink:href="#DejaVuSans-97"/>
      <use x="138.28125" xlink:href="#DejaVuSans-116"/>
      <use x="177.490234" xlink:href="#DejaVuSans-101"/>
     </g>
    </g>
   </g>
   <g id="matplotlib.axis_2">
    <g id="ytick_1">
     <g id="line2d_11">
      <defs>
       <path d="M 0 0 
L -3.5 0 
" id="m9ecd01e2cb" style="stroke:#000000;stroke-width:0.8;"/>
      </defs>
      <g>
       <use style="stroke:#000000;stroke-width:0.8;" x="38.482813" xlink:href="#m9ecd01e2cb" y="383.531592"/>
      </g>
     </g>
     <g id="text_12">
      <!-- −0.3 -->
      <defs>
       <path d="M 10.59375 35.5 
L 73.1875 35.5 
L 73.1875 27.203125 
L 10.59375 27.203125 
z
" id="DejaVuSans-8722"/>
       <path d="M 10.6875 12.40625 
L 21 12.40625 
L 21 0 
L 10.6875 0 
z
" id="DejaVuSans-46"/>
       <path d="M 40.578125 39.3125 
Q 47.65625 37.796875 51.625 33 
Q 55.609375 28.21875 55.609375 21.1875 
Q 55.609375 10.40625 48.1875 4.484375 
Q 40.765625 -1.421875 27.09375 -1.421875 
Q 22.515625 -1.421875 17.65625 -0.515625 
Q 12.796875 0.390625 7.625 2.203125 
L 7.625 11.71875 
Q 11.71875 9.328125 16.59375 8.109375 
Q 21.484375 6.890625 26.8125 6.890625 
Q 36.078125 6.890625 40.9375 10.546875 
Q 45.796875 14.203125 45.796875 21.1875 
Q 45.796875 27.640625 41.28125 31.265625 
Q 36.765625 34.90625 28.71875 34.90625 
L 20.21875 34.90625 
L 20.21875 43.015625 
L 29.109375 43.015625 
Q 36.375 43.015625 40.234375 45.921875 
Q 44.09375 48.828125 44.09375 54.296875 
Q 44.09375 59.90625 40.109375 62.90625 
Q 36.140625 65.921875 28.71875 65.921875 
Q 24.65625 65.921875 20.015625 65.03125 
Q 15.375 64.15625 9.8125 62.3125 
L 9.8125 71.09375 
Q 15.4375 72.65625 20.34375 73.4375 
Q 25.25 74.21875 29.59375 74.21875 
Q 40.828125 74.21875 47.359375 69.109375 
Q 53.90625 64.015625 53.90625 55.328125 
Q 53.90625 49.265625 50.4375 45.09375 
Q 46.96875 40.921875 40.578125 39.3125 
z
" id="DejaVuSans-51"/>
      </defs>
      <g transform="translate(7.2 387.330811)scale(0.1 -0.1)">
       <use xlink:href="#DejaVuSans-8722"/>
       <use x="83.789062" xlink:href="#DejaVuSans-48"/>
       <use x="147.412109" xlink:href="#DejaVuSans-46"/>
       <use x="179.199219" xlink:href="#DejaVuSans-51"/>
      </g>
     </g>
    </g>
    <g id="ytick_2">
     <g id="line2d_12">
      <g>
       <use style="stroke:#000000;stroke-width:0.8;" x="38.482813" xlink:href="#m9ecd01e2cb" y="302.294728"/>
      </g>
     </g>
     <g id="text_13">
      <!-- −0.2 -->
      <g transform="translate(7.2 306.093947)scale(0.1 -0.1)">
       <use xlink:href="#DejaVuSans-8722"/>
       <use x="83.789062" xlink:href="#DejaVuSans-48"/>
       <use x="147.412109" xlink:href="#DejaVuSans-46"/>
       <use x="179.199219" xlink:href="#DejaVuSans-50"/>
      </g>
     </g>
    </g>
    <g id="ytick_3">
     <g id="line2d_13">
      <g>
       <use style="stroke:#000000;stroke-width:0.8;" x="38.482813" xlink:href="#m9ecd01e2cb" y="221.057865"/>
      </g>
     </g>
     <g id="text_14">
      <!-- −0.1 -->
      <g transform="translate(7.2 224.857084)scale(0.1 -0.1)">
       <use xlink:href="#DejaVuSans-8722"/>
       <use x="83.789062" xlink:href="#DejaVuSans-48"/>
       <use x="147.412109" xlink:href="#DejaVuSans-46"/>
       <use x="179.199219" xlink:href="#DejaVuSans-49"/>
      </g>
     </g>
    </g>
    <g id="ytick_4">
     <g id="line2d_14">
      <g>
       <use style="stroke:#000000;stroke-width:0.8;" x="38.482813" xlink:href="#m9ecd01e2cb" y="139.821002"/>
      </g>
     </g>
     <g id="text_15">
      <!-- 0.0 -->
      <g transform="translate(15.579688 143.62022)scale(0.1 -0.1)">
       <use xlink:href="#DejaVuSans-48"/>
       <use x="63.623047" xlink:href="#DejaVuSans-46"/>
       <use x="95.410156" xlink:href="#DejaVuSans-48"/>
      </g>
     </g>
    </g>
    <g id="ytick_5">
     <g id="line2d_15">
      <g>
       <use style="stroke:#000000;stroke-width:0.8;" x="38.482813" xlink:href="#m9ecd01e2cb" y="58.584138"/>
      </g>
     </g>
     <g id="text_16">
      <!-- 0.1 -->
      <g transform="translate(15.579688 62.383357)scale(0.1 -0.1)">
       <use xlink:href="#DejaVuSans-48"/>
       <use x="63.623047" xlink:href="#DejaVuSans-46"/>
       <use x="95.410156" xlink:href="#DejaVuSans-49"/>
      </g>
     </g>
    </g>
   </g>
   <g id="line2d_16">
    <path clip-path="url(#p6365e0ac4b)" d="M 68.919176 132.458084 
L 69.681038 138.361815 
L 70.442899 134.965285 
L 72.728483 130.167022 
L 74.252206 150.792613 
L 75.014067 118.061096 
L 75.775929 137.466403 
L 78.061513 137.473015 
L 78.823375 125.774262 
L 79.585236 107.142029 
L 80.347097 146.015742 
L 81.108959 138.037332 
L 83.394543 130.478324 
L 84.156404 149.937173 
L 84.918266 90.829499 
L 85.680127 139.821002 
L 86.441989 115.03816 
L 88.727573 143.082011 
L 89.489434 154.554139 
L 91.013157 106.006488 
L 91.775019 161.595205 
L 94.060603 177.652813 
L 94.822464 99.287847 
L 95.584326 162.172428 
L 96.346187 156.118476 
L 97.108049 151.761117 
L 101.679217 112.5547 
L 102.441079 138.983542 
L 104.726663 113.467228 
L 105.488524 124.019193 
L 106.250386 147.372319 
L 107.012247 120.163727 
L 107.774108 124.936664 
L 110.059693 124.435291 
L 110.821554 140.575961 
L 111.583416 141.332636 
L 112.345277 156.098483 
L 113.107138 121.279085 
L 115.392723 116.783023 
L 116.154584 147.900674 
L 116.916445 148.352693 
L 117.678307 138.696324 
L 118.440168 113.99003 
L 120.725753 141.9978 
L 121.487614 147.824614 
L 122.249475 129.900719 
L 123.011337 178.660811 
L 123.773198 135.24645 
L 126.058782 158.775033 
L 127.582505 105.65239 
L 128.344367 151.978721 
L 129.106228 138.69899 
L 131.391812 129.362878 
L 132.153674 161.577626 
L 132.915535 148.914786 
L 133.677397 131.773958 
L 136.724842 159.172003 
L 137.486704 147.206276 
L 138.248565 152.765522 
L 139.010427 109.127967 
L 139.772288 134.82776 
L 142.057872 168.452377 
L 142.819734 105.395234 
L 144.343456 144.292808 
L 145.105318 157.806928 
L 147.390902 162.046088 
L 148.152764 123.668258 
L 148.914625 110.076713 
L 149.676486 124.91498 
L 150.438348 133.9661 
L 152.723932 135.461341 
L 153.485793 142.711953 
L 154.247655 164.119681 
L 155.009516 106.174679 
L 155.771378 136.949139 
L 158.056962 130.520438 
L 159.580685 152.906452 
L 160.342546 145.212909 
L 161.104408 146.334463 
L 163.389992 125.959252 
L 164.151853 130.495802 
L 164.913715 73.512449 
L 165.675576 108.021314 
L 166.437438 149.600909 
L 168.723022 114.274917 
L 169.484883 122.793371 
L 170.246745 121.626957 
L 171.008606 182.530366 
L 171.770468 149.212624 
L 174.056052 158.823739 
L 174.817913 149.244629 
L 175.579775 187.162356 
L 176.341636 251.185805 
L 177.103497 151.148868 
L 179.389082 258.394022 
L 180.150943 25.003636 
L 180.912805 153.290371 
L 182.436527 260.520555 
L 184.722112 70.950721 
L 185.483973 183.382117 
L 186.245834 152.552472 
L 187.007696 168.176742 
L 187.769557 166.109684 
L 190.055142 131.297707 
L 190.817003 137.185165 
L 191.578864 155.059619 
L 192.340726 143.569468 
L 193.102587 146.814906 
L 195.388171 165.326195 
L 196.150033 88.277647 
L 196.911894 98.201684 
L 197.673756 195.448883 
L 198.435617 139.283056 
L 200.721201 108.100382 
L 201.483063 122.228235 
L 202.244924 113.991432 
L 203.006786 137.366626 
L 203.768647 110.947749 
L 206.054231 126.588684 
L 206.816093 138.426051 
L 207.577954 134.714507 
L 208.339816 128.288327 
L 209.101677 136.182207 
L 212.149123 148.424729 
L 212.910984 155.381742 
L 213.672845 114.624213 
L 214.434707 132.579808 
L 216.720291 150.138109 
L 217.482153 121.192936 
L 218.244014 150.480923 
L 219.767737 100.526997 
L 222.053321 141.084598 
L 222.815183 122.949192 
L 223.577044 127.424707 
L 224.338905 162.206099 
L 225.100767 124.7539 
L 227.386351 134.890005 
L 228.148212 146.764351 
L 228.910074 127.874381 
L 229.671935 123.58182 
L 230.433797 111.959141 
L 234.243104 162.179889 
L 235.004965 131.753655 
L 235.766827 169.775668 
L 238.052411 121.1602 
L 238.814272 140.22738 
L 239.576134 177.633921 
L 240.337995 144.085393 
L 241.099857 160.826795 
L 243.385441 144.221687 
L 244.147302 168.139115 
L 244.909164 110.93854 
L 245.671025 157.529445 
L 246.432886 123.980937 
L 248.718471 121.620447 
L 249.480332 155.451646 
L 250.242194 97.763926 
L 251.004055 160.866684 
L 251.765916 119.94409 
L 254.051501 150.787479 
L 254.813362 154.785694 
L 255.575223 135.46497 
L 256.337085 129.422835 
L 259.384531 128.270827 
L 260.146392 171.876957 
L 260.908253 120.060689 
L 261.670115 150.10969 
L 262.431976 136.347298 
L 264.71756 113.448282 
L 265.479422 104.227578 
L 266.241283 150.652581 
L 267.003145 144.293482 
L 267.765006 128.78236 
L 270.05059 145.467924 
L 270.812452 136.571519 
L 271.574313 135.370878 
L 272.336175 88.721061 
L 273.098036 153.827347 
L 275.38362 143.287566 
L 276.145482 69.415842 
L 276.907343 105.289913 
L 277.669205 131.967192 
L 278.431066 141.850186 
L 280.71665 50.311314 
L 281.478512 133.10213 
L 282.240373 163.144061 
L 283.002235 163.521551 
L 286.04968 124.402406 
L 286.811542 109.558063 
L 287.573403 148.330715 
L 288.335264 162.856003 
L 289.097126 132.866969 
L 291.38271 120.702683 
L 292.144572 149.925869 
L 292.906433 155.944296 
L 293.668294 119.575068 
L 294.430156 100.313674 
L 296.71574 174.552747 
L 297.477601 91.238823 
L 298.239463 150.84587 
L 299.001324 148.644738 
L 302.04877 114.843432 
L 302.810631 167.803818 
L 303.572493 166.412018 
L 304.334354 169.165011 
L 305.096216 136.296012 
L 307.3818 143.968965 
L 308.143661 174.778879 
L 308.905523 110.99925 
L 310.429246 117.165428 
L 312.71483 133.523522 
L 314.238553 165.754288 
L 315.000414 137.228735 
L 315.762275 165.015606 
L 318.04786 143.821296 
L 318.809721 96.941274 
L 319.571583 144.594088 
L 320.333444 146.542686 
L 321.095305 130.461137 
L 323.38089 124.505392 
L 324.142751 158.611388 
L 324.904612 132.768028 
L 325.666474 170.650237 
L 326.428335 133.874548 
L 328.71392 183.440307 
L 329.475781 145.019534 
L 330.237642 139.472239 
L 330.999504 137.729109 
L 331.761365 150.60139 
L 334.046949 146.164961 
L 334.808811 170.724514 
L 335.570672 130.589468 
L 336.332534 167.569266 
L 337.094395 137.552919 
L 340.903702 106.810623 
L 341.665564 140.195686 
L 342.427425 101.957897 
L 346.236732 90.39113 
L 346.998594 119.900106 
L 347.760455 137.514158 
L 350.046039 127.004367 
L 350.807901 144.673992 
L 351.569762 122.896599 
L 352.331624 146.835158 
L 353.093485 148.504346 
L 355.379069 144.371983 
L 356.140931 140.474841 
L 356.902792 140.148217 
L 357.664653 128.692742 
L 358.426515 132.071787 
L 360.712099 135.663101 
L 361.473961 152.549177 
L 362.235822 130.122937 
L 362.997683 136.306997 
L 366.045129 164.313029 
L 366.80699 120.143038 
L 367.568852 131.815808 
L 368.330713 141.089379 
L 369.092575 132.834266 
L 371.378159 132.57893 
L 372.14002 138.260595 
L 372.901882 158.198947 
L 373.663743 152.569027 
L 374.425605 138.525895 
L 376.711189 149.195758 
L 377.47305 111.041435 
L 378.234912 129.397912 
L 378.996773 111.75444 
L 379.758635 143.136814 
L 382.044219 142.24239 
L 382.80608 120.999273 
L 383.567942 149.908839 
L 384.329803 129.005436 
L 385.091664 147.826158 
L 387.377249 152.696661 
L 388.13911 143.472099 
L 388.900972 124.539515 
L 389.662833 140.420881 
L 390.424694 150.628574 
L 394.995863 137.691215 
L 395.757724 142.855667 
L 398.043309 106.92416 
L 398.80517 147.139624 
L 399.567031 122.096641 
L 400.328893 137.218993 
L 401.090754 138.092 
L 403.376338 125.730426 
L 404.1382 126.818478 
L 404.900061 146.219928 
L 405.661923 151.318079 
L 406.423784 184.194 
L 408.709368 129.591247 
L 409.47123 101.490485 
L 410.233091 176.424435 
L 410.994953 118.427225 
L 411.756814 139.821002 
L 414.042398 141.558128 
L 414.80426 131.407101 
L 415.566121 161.357774 
L 416.327983 112.388173 
L 417.089844 130.9753 
L 419.375428 126.554357 
L 420.13729 142.320654 
L 420.899151 150.407395 
L 421.661013 161.838067 
L 422.422874 202.779545 
L 425.47032 115.070923 
L 426.232181 138.908791 
L 426.994042 114.007482 
L 430.041488 144.530427 
L 430.80335 132.715673 
L 431.565211 142.168909 
L 432.327072 133.934249 
L 433.088934 155.334262 
L 435.374518 136.24358 
L 436.136379 147.538108 
L 437.660102 151.207956 
L 438.421964 136.173926 
L 440.707548 142.241519 
L 441.469409 152.566395 
L 442.231271 108.374465 
L 442.993132 155.848729 
L 443.754994 144.362735 
L 446.040578 163.571 
L 446.802439 136.684376 
L 447.564301 143.570415 
L 448.326162 158.968774 
L 449.088024 158.788085 
L 451.373608 112.17149 
L 452.135469 108.943441 
L 452.897331 142.899242 
L 453.659192 153.726074 
L 454.421053 131.961479 
L 456.706638 135.150426 
L 457.468499 122.483891 
L 458.230361 148.914683 
L 458.992222 150.550361 
L 459.754083 158.4605 
L 462.039668 125.831017 
L 462.801529 133.257025 
L 463.56339 150.36322 
L 464.325252 126.627052 
L 465.087113 124.98324 
L 467.372698 143.160367 
L 468.134559 124.274719 
L 468.89642 149.093186 
L 469.658282 129.836605 
L 470.420143 143.407642 
L 472.705728 138.31999 
L 473.467589 129.632594 
L 474.22945 137.749442 
L 475.753173 117.386406 
L 478.038757 140.682813 
L 478.800619 161.100703 
L 479.56248 135.096218 
L 480.324342 152.739053 
L 481.086203 134.450978 
L 483.371787 144.266596 
L 484.133649 152.933403 
L 484.89551 128.916651 
L 485.657372 133.544469 
L 486.419233 139.524358 
L 490.22854 127.481199 
L 490.990402 130.270554 
L 491.752263 136.102285 
L 494.037847 149.787099 
L 494.799709 149.910768 
L 495.56157 144.199505 
L 496.323431 144.810246 
L 497.085293 141.888102 
L 499.370877 138.340777 
L 500.132739 138.934424 
L 500.8946 144.839253 
L 502.418323 162.479112 
L 504.703907 132.362387 
L 505.465768 144.132292 
L 506.22763 144.774523 
L 506.989491 134.525608 
L 507.751353 131.465184 
L 510.036937 169.534404 
L 510.798798 129.328591 
L 511.56066 148.610048 
L 512.322521 116.021135 
L 513.084383 141.979101 
L 515.369967 159.295632 
L 516.131828 128.968103 
L 516.89369 167.225487 
L 517.655551 162.314356 
L 518.417413 150.549765 
L 520.702997 135.743886 
L 521.464858 140.159054 
L 522.22672 91.457667 
L 522.988581 147.162623 
L 523.750442 170.099566 
L 526.036027 150.527735 
L 526.797888 126.937035 
L 527.55975 131.477015 
L 528.321611 109.757755 
L 529.083472 139.821002 
L 531.369057 146.192535 
L 532.130918 130.18815 
L 532.89278 118.877087 
L 533.654641 135.799462 
L 534.416502 135.819152 
L 536.702087 127.261741 
L 537.463948 134.692805 
L 538.225809 146.715624 
L 538.987671 134.07671 
L 539.749532 145.224762 
L 542.035117 104.158998 
L 542.796978 150.532865 
L 543.558839 153.609917 
L 544.320701 137.731844 
L 545.082562 148.453752 
L 547.368146 125.378895 
L 548.130008 146.029004 
L 549.653731 129.12405 
L 550.415592 140.994168 
L 552.701176 143.051676 
L 553.463038 141.000441 
L 554.224899 163.149719 
L 554.986761 139.212904 
L 555.748622 146.808446 
L 558.034206 150.239949 
L 558.796068 144.477249 
L 559.557929 124.210561 
L 560.319791 133.081904 
L 561.081652 124.023244 
L 563.367236 138.331018 
L 564.129098 131.194515 
L 564.890959 130.107968 
L 565.65282 147.674185 
L 566.414682 141.583125 
L 568.700266 134.817294 
L 569.462128 116.418293 
L 570.223989 129.015856 
L 570.98585 157.499551 
L 571.747712 113.143614 
L 574.033296 130.100383 
L 574.795157 133.783134 
L 575.557019 132.73797 
L 576.31888 131.448843 
L 577.080742 138.751783 
L 579.366326 141.689675 
L 580.128187 158.819115 
L 580.890049 138.177146 
L 581.65191 107.282473 
L 582.413772 162.956391 
L 584.699356 128.184814 
L 585.461217 145.972994 
L 586.223079 143.068377 
L 586.98494 156.122679 
L 590.032386 145.920706 
L 590.794247 148.201678 
L 592.31797 109.618293 
L 593.079832 136.28305 
L 595.365416 146.595268 
L 596.127277 154.576394 
L 596.889139 135.924769 
L 597.651 134.281507 
L 598.412861 150.27479 
L 600.698446 142.05046 
L 601.460307 142.336086 
L 602.222169 120.759221 
L 602.98403 129.139156 
L 603.745891 131.710798 
L 606.031476 143.56837 
L 606.793337 133.636092 
L 607.555198 140.888542 
L 608.31706 124.589076 
L 609.078921 165.789527 
L 611.364506 155.266316 
L 612.126367 127.667221 
L 612.888228 121.042604 
L 613.65009 137.959 
L 614.411951 149.10977 
L 616.697535 133.377917 
L 618.98312 128.900624 
L 619.744981 138.969882 
L 622.030565 148.870984 
L 624.31615 125.823916 
L 625.078011 146.436381 
L 627.363595 130.216678 
L 628.125457 142.985019 
L 628.887318 144.850343 
L 629.64918 142.484516 
L 630.411041 143.294924 
L 632.696625 138.210771 
L 633.458487 148.659828 
L 634.220348 152.006552 
L 635.744071 130.739647 
L 638.029655 135.738758 
L 638.791517 150.110982 
L 639.553378 148.871697 
L 640.315239 129.836309 
L 641.077101 149.410524 
L 643.362685 175.032845 
L 644.124546 117.504817 
L 644.886408 138.410607 
L 645.648269 137.286745 
L 646.410131 153.575682 
L 648.695715 147.530664 
L 649.457576 126.848505 
L 650.219438 146.630932 
L 650.981299 117.215437 
L 651.743161 146.78098 
L 654.790606 130.060297 
L 655.552468 121.909221 
L 656.314329 150.875467 
L 657.076191 148.021203 
L 659.361775 141.477755 
L 660.885498 117.975816 
L 661.647359 156.57359 
L 662.409221 160.99908 
L 666.980389 246.873018 
L 667.74225 138.536595 
L 670.027835 101.671077 
L 670.789696 154.519008 
L 671.551558 113.625616 
L 672.313419 188.15825 
L 673.07528 218.841467 
L 675.360865 381.076364 
L 676.122726 63.392536 
L 676.884587 225.869147 
L 677.646449 300.224972 
L 677.646449 300.224972 
" style="fill:none;stroke:#1f77b4;stroke-linecap:square;stroke-width:1.5;"/>
   </g>
   <g id="line2d_17">
    <path clip-path="url(#p6365e0ac4b)" d="M 68.919176 129.508395 
L 69.681038 132.877477 
L 70.442899 133.395577 
L 72.728483 127.070819 
L 73.490345 139.821002 
L 74.252206 155.06415 
L 75.014067 119.717259 
L 75.775929 133.578871 
L 78.061513 135.396497 
L 78.823375 125.298606 
L 79.585236 110.42185 
L 80.347097 141.072615 
L 81.108959 145.253573 
L 83.394543 131.407091 
L 84.156404 146.899614 
L 84.918266 85.635105 
L 85.680127 139.821002 
L 86.441989 97.292713 
L 88.727573 139.821002 
L 89.489434 159.653009 
L 91.013157 108.165409 
L 91.775019 161.47925 
L 94.060603 176.403983 
L 94.822464 99.143239 
L 95.584326 163.139161 
L 96.346187 164.215187 
L 97.108049 150.200127 
L 101.679217 113.941761 
L 102.441079 140.212822 
L 104.726663 117.080916 
L 105.488524 125.328102 
L 106.250386 148.813952 
L 107.012247 115.571209 
L 107.774108 118.84951 
L 110.059693 120.811977 
L 110.821554 141.923719 
L 111.583416 138.766983 
L 112.345277 153.155723 
L 113.107138 125.193384 
L 115.392723 116.690629 
L 116.154584 145.273103 
L 116.916445 150.798882 
L 117.678307 138.777744 
L 118.440168 118.634877 
L 120.725753 143.205881 
L 121.487614 147.638706 
L 122.249475 141.880257 
L 123.011337 156.680803 
L 123.773198 131.036713 
L 126.058782 166.934769 
L 126.820644 129.032542 
L 127.582505 108.944626 
L 128.344367 144.265699 
L 129.106228 137.070792 
L 131.391812 132.968441 
L 132.153674 159.866882 
L 132.915535 149.923372 
L 133.677397 128.180455 
L 136.724842 161.382178 
L 137.486704 137.677599 
L 138.248565 142.671259 
L 139.010427 117.652471 
L 139.772288 131.467792 
L 142.057872 163.247996 
L 142.819734 107.893896 
L 143.581595 121.047788 
L 144.343456 138.486459 
L 145.105318 161.803994 
L 147.390902 168.577352 
L 148.152764 124.915153 
L 148.914625 113.334485 
L 149.676486 129.69583 
L 150.438348 137.821027 
L 152.723932 142.481282 
L 153.485793 142.489891 
L 154.247655 165.594643 
L 155.009516 106.980537 
L 155.771378 137.495039 
L 158.056962 136.176909 
L 159.580685 141.799865 
L 160.342546 148.417534 
L 161.104408 153.856169 
L 163.389992 110.917115 
L 164.151853 139.821002 
L 164.913715 58.387029 
L 165.675576 91.472901 
L 166.437438 136.722488 
L 168.723022 106.1477 
L 169.484883 119.343365 
L 170.246745 120.898174 
L 171.008606 176.291479 
L 171.770468 141.434513 
L 174.056052 167.034664 
L 174.817913 158.531421 
L 175.579775 176.123288 
L 176.341636 258.010838 
L 177.103497 145.773666 
L 179.389082 254.109893 
L 180.150943 39.249971 
L 180.912805 141.647384 
L 182.436527 260.999121 
L 184.722112 92.490083 
L 185.483973 164.216565 
L 186.245834 144.431874 
L 187.007696 154.57596 
L 187.769557 179.323021 
L 190.055142 122.219759 
L 190.817003 146.447224 
L 191.578864 150.955352 
L 192.340726 140.272519 
L 193.102587 147.953892 
L 195.388171 166.747912 
L 196.150033 109.610694 
L 196.911894 106.598166 
L 197.673756 180.482976 
L 198.435617 134.758187 
L 200.721201 124.72636 
L 201.483063 120.510977 
L 202.244924 117.888805 
L 203.006786 144.519229 
L 203.768647 117.911501 
L 206.054231 128.944847 
L 206.816093 136.931392 
L 207.577954 100.333866 
L 208.339816 164.140935 
L 209.101677 134.564284 
L 212.149123 141.026164 
L 212.910984 146.661268 
L 213.672845 116.285968 
L 214.434707 140.609623 
L 216.720291 147.715724 
L 217.482153 112.715562 
L 218.244014 155.636348 
L 219.005875 130.379387 
L 219.767737 119.210382 
L 222.053321 136.028402 
L 222.815183 125.476226 
L 223.577044 129.434604 
L 224.338905 160.331491 
L 225.100767 121.785209 
L 227.386351 141.291335 
L 228.148212 144.239999 
L 229.671935 126.201755 
L 230.433797 111.583714 
L 232.719381 137.022108 
L 233.481242 142.958971 
L 234.243104 156.271288 
L 235.004965 139.106596 
L 235.766827 161.236652 
L 238.052411 131.022746 
L 238.814272 143.092212 
L 239.576134 171.936326 
L 240.337995 143.240626 
L 241.099857 152.794472 
L 243.385441 137.882251 
L 244.147302 153.360548 
L 244.909164 115.823604 
L 245.671025 150.902299 
L 246.432886 135.172105 
L 248.718471 125.95412 
L 249.480332 147.774257 
L 250.242194 104.251283 
L 251.004055 157.775916 
L 251.765916 124.832584 
L 254.051501 151.962374 
L 254.813362 148.411635 
L 255.575223 131.893616 
L 256.337085 132.71792 
L 259.384531 129.444035 
L 260.146392 162.508764 
L 260.908253 117.987193 
L 261.670115 151.185288 
L 262.431976 134.244103 
L 264.71756 122.465935 
L 265.479422 110.536557 
L 266.241283 144.35749 
L 267.003145 145.435642 
L 267.765006 129.926931 
L 270.05059 144.010334 
L 270.812452 135.609953 
L 271.574313 136.679122 
L 272.336175 100.176319 
L 273.098036 148.773631 
L 275.38362 141.497305 
L 276.145482 85.058383 
L 276.907343 118.732792 
L 278.431066 142.856698 
L 280.71665 62.728175 
L 281.478512 124.792717 
L 282.240373 169.878407 
L 283.002235 154.859494 
L 286.04968 121.029567 
L 286.811542 110.151903 
L 287.573403 145.273137 
L 288.335264 165.893683 
L 289.097126 131.598022 
L 291.38271 117.925853 
L 292.144572 155.127969 
L 292.906433 163.222662 
L 293.668294 122.896607 
L 294.430156 109.192162 
L 296.71574 169.066259 
L 297.477601 94.876645 
L 298.239463 145.144568 
L 299.001324 154.557129 
L 302.04877 115.807538 
L 302.810631 160.759695 
L 303.572493 157.776845 
L 304.334354 166.529052 
L 305.096216 142.985326 
L 307.3818 143.864072 
L 308.143661 177.261339 
L 308.905523 124.912372 
L 310.429246 114.126383 
L 314.238553 158.659421 
L 315.000414 138.332054 
L 315.762275 158.844651 
L 318.04786 127.341724 
L 318.809721 112.242433 
L 319.571583 149.968375 
L 320.333444 134.536307 
L 321.095305 131.653573 
L 323.38089 116.71776 
L 324.142751 154.142083 
L 324.904612 134.96168 
L 325.666474 173.634214 
L 326.428335 126.479046 
L 328.71392 180.074903 
L 329.475781 145.038301 
L 330.237642 137.040981 
L 330.999504 135.5113 
L 331.761365 145.945339 
L 334.046949 148.459928 
L 334.808811 167.263676 
L 335.570672 153.053894 
L 336.332534 159.50686 
L 337.094395 139.148419 
L 340.903702 124.630692 
L 341.665564 144.447943 
L 342.427425 107.91132 
L 346.236732 99.842245 
L 346.998594 123.05535 
L 347.760455 130.56244 
L 350.046039 113.539346 
L 350.807901 144.111704 
L 351.569762 123.42986 
L 352.331624 143.767282 
L 353.093485 144.919456 
L 355.379069 142.67147 
L 356.140931 142.395445 
L 356.902792 133.220946 
L 357.664653 132.989643 
L 358.426515 129.377075 
L 360.712099 135.919342 
L 361.473961 152.024609 
L 362.235822 131.373504 
L 362.997683 131.181741 
L 366.045129 168.499301 
L 366.80699 122.098662 
L 367.568852 128.631365 
L 368.330713 136.785698 
L 369.092575 126.900035 
L 371.378159 130.620292 
L 372.14002 134.73703 
L 372.901882 154.180324 
L 373.663743 154.168147 
L 374.425605 145.607844 
L 376.711189 150.090143 
L 377.47305 110.586888 
L 378.234912 120.556476 
L 378.996773 122.857961 
L 379.758635 146.05207 
L 382.044219 149.239697 
L 382.80608 124.733086 
L 383.567942 139.821002 
L 384.329803 135.40308 
L 385.091664 144.473511 
L 387.377249 159.317852 
L 388.13911 139.554636 
L 388.900972 135.560756 
L 389.662833 161.275839 
L 390.424694 157.776875 
L 394.995863 139.264607 
L 395.757724 145.937423 
L 398.043309 93.880142 
L 398.80517 153.342803 
L 399.567031 117.981695 
L 400.328893 130.631245 
L 401.090754 131.253371 
L 403.376338 123.378432 
L 404.1382 126.978126 
L 404.900061 134.863006 
L 406.423784 178.541152 
L 408.709368 142.989187 
L 409.47123 105.894971 
L 410.233091 177.475394 
L 410.994953 126.214881 
L 411.756814 134.835556 
L 414.042398 147.123153 
L 414.80426 136.399906 
L 415.566121 156.854542 
L 416.327983 113.05441 
L 417.089844 121.68196 
L 419.375428 122.331616 
L 420.13729 147.016765 
L 420.899151 144.327173 
L 421.661013 150.394049 
L 422.422874 209.19763 
L 424.708458 140.378733 
L 425.47032 110.797838 
L 426.232181 139.012681 
L 426.994042 124.208826 
L 430.041488 136.915952 
L 430.80335 133.242086 
L 431.565211 153.917316 
L 432.327072 137.695807 
L 433.088934 146.974981 
L 435.374518 143.563307 
L 436.136379 147.609077 
L 437.660102 152.02276 
L 438.421964 138.444601 
L 440.707548 140.37062 
L 441.469409 148.621225 
L 442.231271 112.019233 
L 442.993132 162.939279 
L 443.754994 140.09771 
L 446.040578 163.071111 
L 446.802439 139.536044 
L 447.564301 145.51783 
L 448.326162 155.311074 
L 449.088024 146.254473 
L 451.373608 124.788113 
L 452.135469 118.694181 
L 452.897331 137.839598 
L 453.659192 153.939303 
L 454.421053 138.096839 
L 456.706638 128.064193 
L 457.468499 128.797218 
L 458.230361 146.23515 
L 458.992222 141.226465 
L 459.754083 157.279208 
L 462.039668 121.97937 
L 462.801529 135.034102 
L 463.56339 151.298272 
L 464.325252 127.04351 
L 465.087113 117.736648 
L 467.372698 153.42849 
L 468.134559 123.213818 
L 468.89642 151.755607 
L 469.658282 128.809556 
L 470.420143 132.21612 
L 472.705728 140.897308 
L 473.467589 127.426698 
L 474.22945 133.716928 
L 475.753173 114.796659 
L 478.038757 143.143064 
L 478.800619 164.453817 
L 479.56248 143.790227 
L 480.324342 157.371344 
L 481.086203 136.287767 
L 483.371787 142.527109 
L 484.133649 152.039157 
L 484.89551 131.551114 
L 485.657372 129.178678 
L 486.419233 143.322554 
L 488.704817 124.130944 
L 490.22854 136.901644 
L 490.990402 124.483357 
L 491.752263 134.630118 
L 494.037847 153.48945 
L 495.56157 145.130631 
L 496.323431 148.639471 
L 497.085293 140.091178 
L 499.370877 138.739937 
L 500.132739 135.772708 
L 500.8946 146.534805 
L 501.656461 154.443628 
L 502.418323 165.190253 
L 504.703907 129.858553 
L 505.465768 145.163642 
L 506.22763 137.273506 
L 506.989491 152.236528 
L 507.751353 115.177756 
L 510.036937 173.472641 
L 510.798798 126.184842 
L 511.56066 147.52523 
L 512.322521 120.52004 
L 513.084383 146.855728 
L 515.369967 161.677148 
L 516.131828 130.713121 
L 516.89369 164.807966 
L 517.655551 157.807047 
L 518.417413 143.499704 
L 520.702997 128.734809 
L 521.464858 147.416053 
L 522.22672 96.580548 
L 522.988581 147.682661 
L 523.750442 165.400467 
L 526.036027 150.446138 
L 526.797888 124.441037 
L 527.55975 134.085201 
L 528.321611 109.244793 
L 529.083472 135.487565 
L 531.369057 148.441889 
L 532.130918 135.754763 
L 532.89278 119.302296 
L 533.654641 134.747203 
L 534.416502 134.498574 
L 536.702087 123.679352 
L 537.463948 133.544784 
L 538.225809 154.172852 
L 538.987671 129.897223 
L 539.749532 144.450681 
L 542.035117 103.119219 
L 542.796978 152.39959 
L 543.558839 153.129811 
L 544.320701 133.867603 
L 545.082562 137.671917 
L 547.368146 136.33785 
L 548.130008 150.225742 
L 548.891869 138.739973 
L 549.653731 133.073771 
L 550.415592 137.947368 
L 552.701176 147.031348 
L 553.463038 144.401543 
L 554.224899 169.085782 
L 554.986761 133.636829 
L 555.748622 147.353292 
L 558.034206 152.492307 
L 558.796068 144.96978 
L 559.557929 119.382222 
L 560.319791 135.889749 
L 561.081652 127.804541 
L 563.367236 135.139586 
L 564.129098 128.868932 
L 564.890959 128.474311 
L 565.65282 147.54766 
L 566.414682 146.545942 
L 568.700266 128.971322 
L 569.462128 114.927974 
L 570.98585 155.846103 
L 571.747712 116.09068 
L 574.033296 133.672478 
L 574.795157 132.447375 
L 575.557019 129.993992 
L 576.31888 138.078239 
L 577.080742 138.827296 
L 579.366326 134.114034 
L 580.128187 150.169746 
L 580.890049 143.314998 
L 581.65191 113.753001 
L 582.413772 152.935519 
L 584.699356 134.143513 
L 585.461217 150.15655 
L 586.223079 142.818645 
L 586.98494 157.121505 
L 590.032386 140.077146 
L 590.794247 151.353068 
L 592.31797 118.244443 
L 593.079832 136.275768 
L 595.365416 144.863657 
L 596.127277 155.804546 
L 596.889139 138.268175 
L 597.651 136.20475 
L 598.412861 149.850228 
L 600.698446 140.862524 
L 601.460307 142.167385 
L 602.222169 129.885342 
L 602.98403 129.230509 
L 603.745891 134.46643 
L 606.031476 135.768028 
L 606.793337 134.779911 
L 607.555198 139.570545 
L 608.31706 129.052852 
L 609.078921 177.88145 
L 611.364506 146.044056 
L 612.126367 128.585275 
L 612.888228 118.429366 
L 613.65009 141.076576 
L 614.411951 149.126746 
L 616.697535 127.863149 
L 618.98312 132.549874 
L 619.744981 152.743366 
L 622.030565 144.113858 
L 624.31615 119.511805 
L 625.078011 159.882531 
L 627.363595 113.410793 
L 628.125457 150.88862 
L 628.887318 153.036393 
L 629.64918 135.258549 
L 630.411041 143.097725 
L 632.696625 140.074034 
L 633.458487 146.402991 
L 634.220348 157.941674 
L 634.982209 137.210603 
L 635.744071 123.427885 
L 638.029655 136.505233 
L 638.791517 164.207279 
L 639.553378 139.821002 
L 640.315239 134.321432 
L 641.077101 142.942467 
L 643.362685 174.028781 
L 644.124546 120.738496 
L 644.886408 143.549891 
L 645.648269 122.963573 
L 646.410131 156.597879 
L 648.695715 148.921676 
L 649.457576 119.789259 
L 650.219438 146.954007 
L 650.981299 117.965948 
L 651.743161 135.668322 
L 654.028745 136.722308 
L 654.790606 128.759659 
L 655.552468 126.11654 
L 656.314329 155.294664 
L 657.076191 147.708062 
L 659.361775 137.765675 
L 660.123636 133.670583 
L 660.885498 123.797472 
L 661.647359 160.273628 
L 662.409221 162.848764 
L 666.980389 245.679097 
L 667.74225 130.131933 
L 670.027835 111.395557 
L 670.789696 157.166962 
L 671.551558 118.551734 
L 672.313419 180.410643 
L 673.07528 223.148633 
L 675.360865 380.897963 
L 676.122726 70.68322 
L 676.884587 227.871837 
L 677.646449 311.028837 
L 677.646449 311.028837 
" style="fill:none;stroke:#ff7f0e;stroke-linecap:square;stroke-width:1.5;"/>
   </g>
   <g id="patch_3">
    <path d="M 38.482813 398.88 
L 38.482813 7.2 
" style="fill:none;stroke:#000000;stroke-linecap:square;stroke-linejoin:miter;stroke-width:0.8;"/>
   </g>
   <g id="patch_4">
    <path d="M 708.082813 398.88 
L 708.082813 7.2 
" style="fill:none;stroke:#000000;stroke-linecap:square;stroke-linejoin:miter;stroke-width:0.8;"/>
   </g>
   <g id="patch_5">
    <path d="M 38.482812 398.88 
L 708.082812 398.88 
" style="fill:none;stroke:#000000;stroke-linecap:square;stroke-linejoin:miter;stroke-width:0.8;"/>
   </g>
   <g id="patch_6">
    <path d="M 38.482812 7.2 
L 708.082812 7.2 
" style="fill:none;stroke:#000000;stroke-linecap:square;stroke-linejoin:miter;stroke-width:0.8;"/>
   </g>
   <g id="legend_1">
    <g id="patch_7">
     <path d="M 620.946875 44.55625 
L 701.082813 44.55625 
Q 703.082813 44.55625 703.082813 42.55625 
L 703.082813 14.2 
Q 703.082813 12.2 701.082813 12.2 
L 620.946875 12.2 
Q 618.946875 12.2 618.946875 14.2 
L 618.946875 42.55625 
Q 618.946875 44.55625 620.946875 44.55625 
z
" style="fill:#ffffff;opacity:0.8;stroke:#cccccc;stroke-linejoin:miter;"/>
    </g>
    <g id="line2d_18">
     <path d="M 622.946875 20.298438 
L 642.946875 20.298438 
" style="fill:none;stroke:#1f77b4;stroke-linecap:square;stroke-width:1.5;"/>
    </g>
    <g id="line2d_19"/>
    <g id="text_17">
     <!-- PETR4.SA -->
     <defs>
      <path d="M 19.671875 64.796875 
L 19.671875 37.40625 
L 32.078125 37.40625 
Q 38.96875 37.40625 42.71875 40.96875 
Q 46.484375 44.53125 46.484375 51.125 
Q 46.484375 57.671875 42.71875 61.234375 
Q 38.96875 64.796875 32.078125 64.796875 
z
M 9.8125 72.90625 
L 32.078125 72.90625 
Q 44.34375 72.90625 50.609375 67.359375 
Q 56.890625 61.8125 56.890625 51.125 
Q 56.890625 40.328125 50.609375 34.8125 
Q 44.34375 29.296875 32.078125 29.296875 
L 19.671875 29.296875 
L 19.671875 0 
L 9.8125 0 
z
" id="DejaVuSans-80"/>
      <path d="M 9.8125 72.90625 
L 55.90625 72.90625 
L 55.90625 64.59375 
L 19.671875 64.59375 
L 19.671875 43.015625 
L 54.390625 43.015625 
L 54.390625 34.71875 
L 19.671875 34.71875 
L 19.671875 8.296875 
L 56.78125 8.296875 
L 56.78125 0 
L 9.8125 0 
z
" id="DejaVuSans-69"/>
      <path d="M -0.296875 72.90625 
L 61.375 72.90625 
L 61.375 64.59375 
L 35.5 64.59375 
L 35.5 0 
L 25.59375 0 
L 25.59375 64.59375 
L -0.296875 64.59375 
z
" id="DejaVuSans-84"/>
      <path d="M 44.390625 34.1875 
Q 47.5625 33.109375 50.5625 29.59375 
Q 53.5625 26.078125 56.59375 19.921875 
L 66.609375 0 
L 56 0 
L 46.6875 18.703125 
Q 43.0625 26.03125 39.671875 28.421875 
Q 36.28125 30.8125 30.421875 30.8125 
L 19.671875 30.8125 
L 19.671875 0 
L 9.8125 0 
L 9.8125 72.90625 
L 32.078125 72.90625 
Q 44.578125 72.90625 50.734375 67.671875 
Q 56.890625 62.453125 56.890625 51.90625 
Q 56.890625 45.015625 53.6875 40.46875 
Q 50.484375 35.9375 44.390625 34.1875 
z
M 19.671875 64.796875 
L 19.671875 38.921875 
L 32.078125 38.921875 
Q 39.203125 38.921875 42.84375 42.21875 
Q 46.484375 45.515625 46.484375 51.90625 
Q 46.484375 58.296875 42.84375 61.546875 
Q 39.203125 64.796875 32.078125 64.796875 
z
" id="DejaVuSans-82"/>
      <path d="M 53.515625 70.515625 
L 53.515625 60.890625 
Q 47.90625 63.578125 42.921875 64.890625 
Q 37.9375 66.21875 33.296875 66.21875 
Q 25.25 66.21875 20.875 63.09375 
Q 16.5 59.96875 16.5 54.203125 
Q 16.5 49.359375 19.40625 46.890625 
Q 22.3125 44.4375 30.421875 42.921875 
L 36.375 41.703125 
Q 47.40625 39.59375 52.65625 34.296875 
Q 57.90625 29 57.90625 20.125 
Q 57.90625 9.515625 50.796875 4.046875 
Q 43.703125 -1.421875 29.984375 -1.421875 
Q 24.8125 -1.421875 18.96875 -0.25 
Q 13.140625 0.921875 6.890625 3.21875 
L 6.890625 13.375 
Q 12.890625 10.015625 18.65625 8.296875 
Q 24.421875 6.59375 29.984375 6.59375 
Q 38.421875 6.59375 43.015625 9.90625 
Q 47.609375 13.234375 47.609375 19.390625 
Q 47.609375 24.75 44.3125 27.78125 
Q 41.015625 30.8125 33.5 32.328125 
L 27.484375 33.5 
Q 16.453125 35.6875 11.515625 40.375 
Q 6.59375 45.0625 6.59375 53.421875 
Q 6.59375 63.09375 13.40625 68.65625 
Q 20.21875 74.21875 32.171875 74.21875 
Q 37.3125 74.21875 42.625 73.28125 
Q 47.953125 72.359375 53.515625 70.515625 
z
" id="DejaVuSans-83"/>
      <path d="M 34.1875 63.1875 
L 20.796875 26.90625 
L 47.609375 26.90625 
z
M 28.609375 72.90625 
L 39.796875 72.90625 
L 67.578125 0 
L 57.328125 0 
L 50.6875 18.703125 
L 17.828125 18.703125 
L 11.1875 0 
L 0.78125 0 
z
" id="DejaVuSans-65"/>
     </defs>
     <g transform="translate(650.946875 23.798438)scale(0.1 -0.1)">
      <use xlink:href="#DejaVuSans-80"/>
      <use x="60.302734" xlink:href="#DejaVuSans-69"/>
      <use x="123.486328" xlink:href="#DejaVuSans-84"/>
      <use x="184.570312" xlink:href="#DejaVuSans-82"/>
      <use x="254.052734" xlink:href="#DejaVuSans-52"/>
      <use x="317.675781" xlink:href="#DejaVuSans-46"/>
      <use x="349.462891" xlink:href="#DejaVuSans-83"/>
      <use x="412.955078" xlink:href="#DejaVuSans-65"/>
     </g>
    </g>
    <g id="line2d_20">
     <path d="M 622.946875 34.976563 
L 642.946875 34.976563 
" style="fill:none;stroke:#ff7f0e;stroke-linecap:square;stroke-width:1.5;"/>
    </g>
    <g id="line2d_21"/>
    <g id="text_18">
     <!-- PETR3.SA -->
     <g transform="translate(650.946875 38.476563)scale(0.1 -0.1)">
      <use xlink:href="#DejaVuSans-80"/>
      <use x="60.302734" xlink:href="#DejaVuSans-69"/>
      <use x="123.486328" xlink:href="#DejaVuSans-84"/>
      <use x="184.570312" xlink:href="#DejaVuSans-82"/>
      <use x="254.052734" xlink:href="#DejaVuSans-51"/>
      <use x="317.675781" xlink:href="#DejaVuSans-46"/>
      <use x="349.462891" xlink:href="#DejaVuSans-83"/>
      <use x="412.955078" xlink:href="#DejaVuSans-65"/>
     </g>
    </g>
   </g>
  </g>
 </g>
 <defs>
  <clipPath id="p6365e0ac4b">
   <rect height="391.68" width="669.6" x="38.482813" y="7.2"/>
  </clipPath>
 </defs>
</svg>
