<?xml version="1.0" encoding="utf-8" standalone="no"?>
<!DOCTYPE svg PUBLIC "-//W3C//DTD SVG 1.1//EN"
  "http://www.w3.org/Graphics/SVG/1.1/DTD/svg11.dtd">
<!-- Created with matplotlib (https://matplotlib.org/) -->
<svg height="456.031033pt" version="1.1" viewBox="0 0 710.0875 456.031033" width="710.0875pt" xmlns="http://www.w3.org/2000/svg" xmlns:xlink="http://www.w3.org/1999/xlink">
 <defs>
  <style type="text/css">
*{stroke-linecap:butt;stroke-linejoin:round;}
  </style>
 </defs>
 <g id="figure_1">
  <g id="patch_1">
   <path d="M 0 456.031033 
L 710.0875 456.031033 
L 710.0875 0 
L 0 0 
z
" style="fill:none;"/>
  </g>
  <g id="axes_1">
   <g id="patch_2">
    <path d="M 33.2875 398.88 
L 702.8875 398.88 
L 702.8875 7.2 
L 33.2875 7.2 
z
" style="fill:#ffffff;"/>
   </g>
   <g id="matplotlib.axis_1">
    <g id="xtick_1">
     <g id="line2d_1">
      <defs>
       <path d="M 0 0 
L 0 3.5 
" id="m6ceefc338f" style="stroke:#000000;stroke-width:0.8;"/>
      </defs>
      <g>
       <use style="stroke:#000000;stroke-width:0.8;" x="62.962955" xlink:href="#m6ceefc338f" y="398.88"/>
      </g>
     </g>
     <g id="text_1">
      <!-- 2018-01 -->
      <defs>
       <path d="M 19.1875 8.296875 
L 53.609375 8.296875 
L 53.609375 0 
L 7.328125 0 
L 7.328125 8.296875 
Q 12.9375 14.109375 22.625 23.890625 
Q 32.328125 33.6875 34.8125 36.53125 
Q 39.546875 41.84375 41.421875 45.53125 
Q 43.3125 49.21875 43.3125 52.78125 
Q 43.3125 58.59375 39.234375 62.25 
Q 35.15625 65.921875 28.609375 65.921875 
Q 23.96875 65.921875 18.8125 64.3125 
Q 13.671875 62.703125 7.8125 59.421875 
L 7.8125 69.390625 
Q 13.765625 71.78125 18.9375 73 
Q 24.125 74.21875 28.421875 74.21875 
Q 39.75 74.21875 46.484375 68.546875 
Q 53.21875 62.890625 53.21875 53.421875 
Q 53.21875 48.921875 51.53125 44.890625 
Q 49.859375 40.875 45.40625 35.40625 
Q 44.1875 33.984375 37.640625 27.21875 
Q 31.109375 20.453125 19.1875 8.296875 
z
" id="DejaVuSans-50"/>
       <path d="M 31.78125 66.40625 
Q 24.171875 66.40625 20.328125 58.90625 
Q 16.5 51.421875 16.5 36.375 
Q 16.5 21.390625 20.328125 13.890625 
Q 24.171875 6.390625 31.78125 6.390625 
Q 39.453125 6.390625 43.28125 13.890625 
Q 47.125 21.390625 47.125 36.375 
Q 47.125 51.421875 43.28125 58.90625 
Q 39.453125 66.40625 31.78125 66.40625 
z
M 31.78125 74.21875 
Q 44.046875 74.21875 50.515625 64.515625 
Q 56.984375 54.828125 56.984375 36.375 
Q 56.984375 17.96875 50.515625 8.265625 
Q 44.046875 -1.421875 31.78125 -1.421875 
Q 19.53125 -1.421875 13.0625 8.265625 
Q 6.59375 17.96875 6.59375 36.375 
Q 6.59375 54.828125 13.0625 64.515625 
Q 19.53125 74.21875 31.78125 74.21875 
z
" id="DejaVuSans-48"/>
       <path d="M 12.40625 8.296875 
L 28.515625 8.296875 
L 28.515625 63.921875 
L 10.984375 60.40625 
L 10.984375 69.390625 
L 28.421875 72.90625 
L 38.28125 72.90625 
L 38.28125 8.296875 
L 54.390625 8.296875 
L 54.390625 0 
L 12.40625 0 
z
" id="DejaVuSans-49"/>
       <path d="M 31.78125 34.625 
Q 24.75 34.625 20.71875 30.859375 
Q 16.703125 27.09375 16.703125 20.515625 
Q 16.703125 13.921875 20.71875 10.15625 
Q 24.75 6.390625 31.78125 6.390625 
Q 38.8125 6.390625 42.859375 10.171875 
Q 46.921875 13.96875 46.921875 20.515625 
Q 46.921875 27.09375 42.890625 30.859375 
Q 38.875 34.625 31.78125 34.625 
z
M 21.921875 38.8125 
Q 15.578125 40.375 12.03125 44.71875 
Q 8.5 49.078125 8.5 55.328125 
Q 8.5 64.0625 14.71875 69.140625 
Q 20.953125 74.21875 31.78125 74.21875 
Q 42.671875 74.21875 48.875 69.140625 
Q 55.078125 64.0625 55.078125 55.328125 
Q 55.078125 49.078125 51.53125 44.71875 
Q 48 40.375 41.703125 38.8125 
Q 48.828125 37.15625 52.796875 32.3125 
Q 56.78125 27.484375 56.78125 20.515625 
Q 56.78125 9.90625 50.3125 4.234375 
Q 43.84375 -1.421875 31.78125 -1.421875 
Q 19.734375 -1.421875 13.25 4.234375 
Q 6.78125 9.90625 6.78125 20.515625 
Q 6.78125 27.484375 10.78125 32.3125 
Q 14.796875 37.15625 21.921875 38.8125 
z
M 18.3125 54.390625 
Q 18.3125 48.734375 21.84375 45.5625 
Q 25.390625 42.390625 31.78125 42.390625 
Q 38.140625 42.390625 41.71875 45.5625 
Q 45.3125 48.734375 45.3125 54.390625 
Q 45.3125 60.0625 41.71875 63.234375 
Q 38.140625 66.40625 31.78125 66.40625 
Q 25.390625 66.40625 21.84375 63.234375 
Q 18.3125 60.0625 18.3125 54.390625 
z
" id="DejaVuSans-56"/>
       <path d="M 4.890625 31.390625 
L 31.203125 31.390625 
L 31.203125 23.390625 
L 4.890625 23.390625 
z
" id="DejaVuSans-45"/>
      </defs>
      <g transform="translate(25.738134 433.351846)rotate(-30)scale(0.1 -0.1)">
       <use xlink:href="#DejaVuSans-50"/>
       <use x="63.623047" xlink:href="#DejaVuSans-48"/>
       <use x="127.246094" xlink:href="#DejaVuSans-49"/>
       <use x="190.869141" xlink:href="#DejaVuSans-56"/>
       <use x="254.492188" xlink:href="#DejaVuSans-45"/>
       <use x="290.576172" xlink:href="#DejaVuSans-48"/>
       <use x="354.199219" xlink:href="#DejaVuSans-49"/>
      </g>
     </g>
    </g>
    <g id="xtick_2">
     <g id="line2d_2">
      <g>
       <use style="stroke:#000000;stroke-width:0.8;" x="131.444773" xlink:href="#m6ceefc338f" y="398.88"/>
      </g>
     </g>
     <g id="text_2">
      <!-- 2018-04 -->
      <defs>
       <path d="M 37.796875 64.3125 
L 12.890625 25.390625 
L 37.796875 25.390625 
z
M 35.203125 72.90625 
L 47.609375 72.90625 
L 47.609375 25.390625 
L 58.015625 25.390625 
L 58.015625 17.1875 
L 47.609375 17.1875 
L 47.609375 0 
L 37.796875 0 
L 37.796875 17.1875 
L 4.890625 17.1875 
L 4.890625 26.703125 
z
" id="DejaVuSans-52"/>
      </defs>
      <g transform="translate(94.219952 433.351846)rotate(-30)scale(0.1 -0.1)">
       <use xlink:href="#DejaVuSans-50"/>
       <use x="63.623047" xlink:href="#DejaVuSans-48"/>
       <use x="127.246094" xlink:href="#DejaVuSans-49"/>
       <use x="190.869141" xlink:href="#DejaVuSans-56"/>
       <use x="254.492188" xlink:href="#DejaVuSans-45"/>
       <use x="290.576172" xlink:href="#DejaVuSans-48"/>
       <use x="354.199219" xlink:href="#DejaVuSans-52"/>
      </g>
     </g>
    </g>
    <g id="xtick_3">
     <g id="line2d_3">
      <g>
       <use style="stroke:#000000;stroke-width:0.8;" x="200.6875" xlink:href="#m6ceefc338f" y="398.88"/>
      </g>
     </g>
     <g id="text_3">
      <!-- 2018-07 -->
      <defs>
       <path d="M 8.203125 72.90625 
L 55.078125 72.90625 
L 55.078125 68.703125 
L 28.609375 0 
L 18.3125 0 
L 43.21875 64.59375 
L 8.203125 64.59375 
z
" id="DejaVuSans-55"/>
      </defs>
      <g transform="translate(163.462679 433.351846)rotate(-30)scale(0.1 -0.1)">
       <use xlink:href="#DejaVuSans-50"/>
       <use x="63.623047" xlink:href="#DejaVuSans-48"/>
       <use x="127.246094" xlink:href="#DejaVuSans-49"/>
       <use x="190.869141" xlink:href="#DejaVuSans-56"/>
       <use x="254.492188" xlink:href="#DejaVuSans-45"/>
       <use x="290.576172" xlink:href="#DejaVuSans-48"/>
       <use x="354.199219" xlink:href="#DejaVuSans-55"/>
      </g>
     </g>
    </g>
    <g id="xtick_4">
     <g id="line2d_4">
      <g>
       <use style="stroke:#000000;stroke-width:0.8;" x="270.691136" xlink:href="#m6ceefc338f" y="398.88"/>
      </g>
     </g>
     <g id="text_4">
      <!-- 2018-10 -->
      <g transform="translate(233.466316 433.351846)rotate(-30)scale(0.1 -0.1)">
       <use xlink:href="#DejaVuSans-50"/>
       <use x="63.623047" xlink:href="#DejaVuSans-48"/>
       <use x="127.246094" xlink:href="#DejaVuSans-49"/>
       <use x="190.869141" xlink:href="#DejaVuSans-56"/>
       <use x="254.492188" xlink:href="#DejaVuSans-45"/>
       <use x="290.576172" xlink:href="#DejaVuSans-49"/>
       <use x="354.199219" xlink:href="#DejaVuSans-48"/>
      </g>
     </g>
    </g>
    <g id="xtick_5">
     <g id="line2d_5">
      <g>
       <use style="stroke:#000000;stroke-width:0.8;" x="340.694773" xlink:href="#m6ceefc338f" y="398.88"/>
      </g>
     </g>
     <g id="text_5">
      <!-- 2019-01 -->
      <defs>
       <path d="M 10.984375 1.515625 
L 10.984375 10.5 
Q 14.703125 8.734375 18.5 7.8125 
Q 22.3125 6.890625 25.984375 6.890625 
Q 35.75 6.890625 40.890625 13.453125 
Q 46.046875 20.015625 46.78125 33.40625 
Q 43.953125 29.203125 39.59375 26.953125 
Q 35.25 24.703125 29.984375 24.703125 
Q 19.046875 24.703125 12.671875 31.3125 
Q 6.296875 37.9375 6.296875 49.421875 
Q 6.296875 60.640625 12.9375 67.421875 
Q 19.578125 74.21875 30.609375 74.21875 
Q 43.265625 74.21875 49.921875 64.515625 
Q 56.59375 54.828125 56.59375 36.375 
Q 56.59375 19.140625 48.40625 8.859375 
Q 40.234375 -1.421875 26.421875 -1.421875 
Q 22.703125 -1.421875 18.890625 -0.6875 
Q 15.09375 0.046875 10.984375 1.515625 
z
M 30.609375 32.421875 
Q 37.25 32.421875 41.125 36.953125 
Q 45.015625 41.5 45.015625 49.421875 
Q 45.015625 57.28125 41.125 61.84375 
Q 37.25 66.40625 30.609375 66.40625 
Q 23.96875 66.40625 20.09375 61.84375 
Q 16.21875 57.28125 16.21875 49.421875 
Q 16.21875 41.5 20.09375 36.953125 
Q 23.96875 32.421875 30.609375 32.421875 
z
" id="DejaVuSans-57"/>
      </defs>
      <g transform="translate(303.469952 433.351846)rotate(-30)scale(0.1 -0.1)">
       <use xlink:href="#DejaVuSans-50"/>
       <use x="63.623047" xlink:href="#DejaVuSans-48"/>
       <use x="127.246094" xlink:href="#DejaVuSans-49"/>
       <use x="190.869141" xlink:href="#DejaVuSans-57"/>
       <use x="254.492188" xlink:href="#DejaVuSans-45"/>
       <use x="290.576172" xlink:href="#DejaVuSans-48"/>
       <use x="354.199219" xlink:href="#DejaVuSans-49"/>
      </g>
     </g>
    </g>
    <g id="xtick_6">
     <g id="line2d_6">
      <g>
       <use style="stroke:#000000;stroke-width:0.8;" x="409.176591" xlink:href="#m6ceefc338f" y="398.88"/>
      </g>
     </g>
     <g id="text_6">
      <!-- 2019-04 -->
      <g transform="translate(371.95177 433.351846)rotate(-30)scale(0.1 -0.1)">
       <use xlink:href="#DejaVuSans-50"/>
       <use x="63.623047" xlink:href="#DejaVuSans-48"/>
       <use x="127.246094" xlink:href="#DejaVuSans-49"/>
       <use x="190.869141" xlink:href="#DejaVuSans-57"/>
       <use x="254.492188" xlink:href="#DejaVuSans-45"/>
       <use x="290.576172" xlink:href="#DejaVuSans-48"/>
       <use x="354.199219" xlink:href="#DejaVuSans-52"/>
      </g>
     </g>
    </g>
    <g id="xtick_7">
     <g id="line2d_7">
      <g>
       <use style="stroke:#000000;stroke-width:0.8;" x="478.419318" xlink:href="#m6ceefc338f" y="398.88"/>
      </g>
     </g>
     <g id="text_7">
      <!-- 2019-07 -->
      <g transform="translate(441.194497 433.351846)rotate(-30)scale(0.1 -0.1)">
       <use xlink:href="#DejaVuSans-50"/>
       <use x="63.623047" xlink:href="#DejaVuSans-48"/>
       <use x="127.246094" xlink:href="#DejaVuSans-49"/>
       <use x="190.869141" xlink:href="#DejaVuSans-57"/>
       <use x="254.492188" xlink:href="#DejaVuSans-45"/>
       <use x="290.576172" xlink:href="#DejaVuSans-48"/>
       <use x="354.199219" xlink:href="#DejaVuSans-55"/>
      </g>
     </g>
    </g>
    <g id="xtick_8">
     <g id="line2d_8">
      <g>
       <use style="stroke:#000000;stroke-width:0.8;" x="548.422955" xlink:href="#m6ceefc338f" y="398.88"/>
      </g>
     </g>
     <g id="text_8">
      <!-- 2019-10 -->
      <g transform="translate(511.198134 433.351846)rotate(-30)scale(0.1 -0.1)">
       <use xlink:href="#DejaVuSans-50"/>
       <use x="63.623047" xlink:href="#DejaVuSans-48"/>
       <use x="127.246094" xlink:href="#DejaVuSans-49"/>
       <use x="190.869141" xlink:href="#DejaVuSans-57"/>
       <use x="254.492188" xlink:href="#DejaVuSans-45"/>
       <use x="290.576172" xlink:href="#DejaVuSans-49"/>
       <use x="354.199219" xlink:href="#DejaVuSans-48"/>
      </g>
     </g>
    </g>
    <g id="xtick_9">
     <g id="line2d_9">
      <g>
       <use style="stroke:#000000;stroke-width:0.8;" x="618.426591" xlink:href="#m6ceefc338f" y="398.88"/>
      </g>
     </g>
     <g id="text_9">
      <!-- 2020-01 -->
      <g transform="translate(581.20177 433.351846)rotate(-30)scale(0.1 -0.1)">
       <use xlink:href="#DejaVuSans-50"/>
       <use x="63.623047" xlink:href="#DejaVuSans-48"/>
       <use x="127.246094" xlink:href="#DejaVuSans-50"/>
       <use x="190.869141" xlink:href="#DejaVuSans-48"/>
       <use x="254.492188" xlink:href="#DejaVuSans-45"/>
       <use x="290.576172" xlink:href="#DejaVuSans-48"/>
       <use x="354.199219" xlink:href="#DejaVuSans-49"/>
      </g>
     </g>
    </g>
    <g id="xtick_10">
     <g id="line2d_10">
      <g>
       <use style="stroke:#000000;stroke-width:0.8;" x="687.669318" xlink:href="#m6ceefc338f" y="398.88"/>
      </g>
     </g>
     <g id="text_10">
      <!-- 2020-04 -->
      <g transform="translate(650.444497 433.351846)rotate(-30)scale(0.1 -0.1)">
       <use xlink:href="#DejaVuSans-50"/>
       <use x="63.623047" xlink:href="#DejaVuSans-48"/>
       <use x="127.246094" xlink:href="#DejaVuSans-50"/>
       <use x="190.869141" xlink:href="#DejaVuSans-48"/>
       <use x="254.492188" xlink:href="#DejaVuSans-45"/>
       <use x="290.576172" xlink:href="#DejaVuSans-48"/>
       <use x="354.199219" xlink:href="#DejaVuSans-52"/>
      </g>
     </g>
    </g>
    <g id="text_11">
     <!-- Date -->
     <defs>
      <path d="M 19.671875 64.796875 
L 19.671875 8.109375 
L 31.59375 8.109375 
Q 46.6875 8.109375 53.6875 14.9375 
Q 60.6875 21.78125 60.6875 36.53125 
Q 60.6875 51.171875 53.6875 57.984375 
Q 46.6875 64.796875 31.59375 64.796875 
z
M 9.8125 72.90625 
L 30.078125 72.90625 
Q 51.265625 72.90625 61.171875 64.09375 
Q 71.09375 55.28125 71.09375 36.53125 
Q 71.09375 17.671875 61.125 8.828125 
Q 51.171875 0 30.078125 0 
L 9.8125 0 
z
" id="DejaVuSans-68"/>
      <path d="M 34.28125 27.484375 
Q 23.390625 27.484375 19.1875 25 
Q 14.984375 22.515625 14.984375 16.5 
Q 14.984375 11.71875 18.140625 8.90625 
Q 21.296875 6.109375 26.703125 6.109375 
Q 34.1875 6.109375 38.703125 11.40625 
Q 43.21875 16.703125 43.21875 25.484375 
L 43.21875 27.484375 
z
M 52.203125 31.203125 
L 52.203125 0 
L 43.21875 0 
L 43.21875 8.296875 
Q 40.140625 3.328125 35.546875 0.953125 
Q 30.953125 -1.421875 24.3125 -1.421875 
Q 15.921875 -1.421875 10.953125 3.296875 
Q 6 8.015625 6 15.921875 
Q 6 25.140625 12.171875 29.828125 
Q 18.359375 34.515625 30.609375 34.515625 
L 43.21875 34.515625 
L 43.21875 35.40625 
Q 43.21875 41.609375 39.140625 45 
Q 35.0625 48.390625 27.6875 48.390625 
Q 23 48.390625 18.546875 47.265625 
Q 14.109375 46.140625 10.015625 43.890625 
L 10.015625 52.203125 
Q 14.9375 54.109375 19.578125 55.046875 
Q 24.21875 56 28.609375 56 
Q 40.484375 56 46.34375 49.84375 
Q 52.203125 43.703125 52.203125 31.203125 
z
" id="DejaVuSans-97"/>
      <path d="M 18.3125 70.21875 
L 18.3125 54.6875 
L 36.8125 54.6875 
L 36.8125 47.703125 
L 18.3125 47.703125 
L 18.3125 18.015625 
Q 18.3125 11.328125 20.140625 9.421875 
Q 21.96875 7.515625 27.59375 7.515625 
L 36.8125 7.515625 
L 36.8125 0 
L 27.59375 0 
Q 17.1875 0 13.234375 3.875 
Q 9.28125 7.765625 9.28125 18.015625 
L 9.28125 47.703125 
L 2.6875 47.703125 
L 2.6875 54.6875 
L 9.28125 54.6875 
L 9.28125 70.21875 
z
" id="DejaVuSans-116"/>
      <path d="M 56.203125 29.59375 
L 56.203125 25.203125 
L 14.890625 25.203125 
Q 15.484375 15.921875 20.484375 11.0625 
Q 25.484375 6.203125 34.421875 6.203125 
Q 39.59375 6.203125 44.453125 7.46875 
Q 49.3125 8.734375 54.109375 11.28125 
L 54.109375 2.78125 
Q 49.265625 0.734375 44.1875 -0.34375 
Q 39.109375 -1.421875 33.890625 -1.421875 
Q 20.796875 -1.421875 13.15625 6.1875 
Q 5.515625 13.8125 5.515625 26.8125 
Q 5.515625 40.234375 12.765625 48.109375 
Q 20.015625 56 32.328125 56 
Q 43.359375 56 49.78125 48.890625 
Q 56.203125 41.796875 56.203125 29.59375 
z
M 47.21875 32.234375 
Q 47.125 39.59375 43.09375 43.984375 
Q 39.0625 48.390625 32.421875 48.390625 
Q 24.90625 48.390625 20.390625 44.140625 
Q 15.875 39.890625 15.1875 32.171875 
z
" id="DejaVuSans-101"/>
     </defs>
     <g transform="translate(356.136719 446.751346)scale(0.1 -0.1)">
      <use xlink:href="#DejaVuSans-68"/>
      <use x="77.001953" xlink:href="#DejaVuSans-97"/>
      <use x="138.28125" xlink:href="#DejaVuSans-116"/>
      <use x="177.490234" xlink:href="#DejaVuSans-101"/>
     </g>
    </g>
   </g>
   <g id="matplotlib.axis_2">
    <g id="ytick_1">
     <g id="line2d_11">
      <defs>
       <path d="M 0 0 
L -3.5 0 
" id="m2c98b7e382" style="stroke:#000000;stroke-width:0.8;"/>
      </defs>
      <g>
       <use style="stroke:#000000;stroke-width:0.8;" x="33.2875" xlink:href="#m2c98b7e382" y="396.00867"/>
      </g>
     </g>
     <g id="text_12">
      <!-- 50 -->
      <defs>
       <path d="M 10.796875 72.90625 
L 49.515625 72.90625 
L 49.515625 64.59375 
L 19.828125 64.59375 
L 19.828125 46.734375 
Q 21.96875 47.46875 24.109375 47.828125 
Q 26.265625 48.1875 28.421875 48.1875 
Q 40.625 48.1875 47.75 41.5 
Q 54.890625 34.8125 54.890625 23.390625 
Q 54.890625 11.625 47.5625 5.09375 
Q 40.234375 -1.421875 26.90625 -1.421875 
Q 22.3125 -1.421875 17.546875 -0.640625 
Q 12.796875 0.140625 7.71875 1.703125 
L 7.71875 11.625 
Q 12.109375 9.234375 16.796875 8.0625 
Q 21.484375 6.890625 26.703125 6.890625 
Q 35.15625 6.890625 40.078125 11.328125 
Q 45.015625 15.765625 45.015625 23.390625 
Q 45.015625 31 40.078125 35.4375 
Q 35.15625 39.890625 26.703125 39.890625 
Q 22.75 39.890625 18.8125 39.015625 
Q 14.890625 38.140625 10.796875 36.28125 
z
" id="DejaVuSans-53"/>
      </defs>
      <g transform="translate(13.5625 399.807889)scale(0.1 -0.1)">
       <use xlink:href="#DejaVuSans-53"/>
       <use x="63.623047" xlink:href="#DejaVuSans-48"/>
      </g>
     </g>
    </g>
    <g id="ytick_2">
     <g id="line2d_12">
      <g>
       <use style="stroke:#000000;stroke-width:0.8;" x="33.2875" xlink:href="#m2c98b7e382" y="329.87991"/>
      </g>
     </g>
     <g id="text_13">
      <!-- 100 -->
      <g transform="translate(7.2 333.679128)scale(0.1 -0.1)">
       <use xlink:href="#DejaVuSans-49"/>
       <use x="63.623047" xlink:href="#DejaVuSans-48"/>
       <use x="127.246094" xlink:href="#DejaVuSans-48"/>
      </g>
     </g>
    </g>
    <g id="ytick_3">
     <g id="line2d_13">
      <g>
       <use style="stroke:#000000;stroke-width:0.8;" x="33.2875" xlink:href="#m2c98b7e382" y="263.751149"/>
      </g>
     </g>
     <g id="text_14">
      <!-- 150 -->
      <g transform="translate(7.2 267.550368)scale(0.1 -0.1)">
       <use xlink:href="#DejaVuSans-49"/>
       <use x="63.623047" xlink:href="#DejaVuSans-53"/>
       <use x="127.246094" xlink:href="#DejaVuSans-48"/>
      </g>
     </g>
    </g>
    <g id="ytick_4">
     <g id="line2d_14">
      <g>
       <use style="stroke:#000000;stroke-width:0.8;" x="33.2875" xlink:href="#m2c98b7e382" y="197.622389"/>
      </g>
     </g>
     <g id="text_15">
      <!-- 200 -->
      <g transform="translate(7.2 201.421607)scale(0.1 -0.1)">
       <use xlink:href="#DejaVuSans-50"/>
       <use x="63.623047" xlink:href="#DejaVuSans-48"/>
       <use x="127.246094" xlink:href="#DejaVuSans-48"/>
      </g>
     </g>
    </g>
    <g id="ytick_5">
     <g id="line2d_15">
      <g>
       <use style="stroke:#000000;stroke-width:0.8;" x="33.2875" xlink:href="#m2c98b7e382" y="131.493628"/>
      </g>
     </g>
     <g id="text_16">
      <!-- 250 -->
      <g transform="translate(7.2 135.292847)scale(0.1 -0.1)">
       <use xlink:href="#DejaVuSans-50"/>
       <use x="63.623047" xlink:href="#DejaVuSans-53"/>
       <use x="127.246094" xlink:href="#DejaVuSans-48"/>
      </g>
     </g>
    </g>
    <g id="ytick_6">
     <g id="line2d_16">
      <g>
       <use style="stroke:#000000;stroke-width:0.8;" x="33.2875" xlink:href="#m2c98b7e382" y="65.364868"/>
      </g>
     </g>
     <g id="text_17">
      <!-- 300 -->
      <defs>
       <path d="M 40.578125 39.3125 
Q 47.65625 37.796875 51.625 33 
Q 55.609375 28.21875 55.609375 21.1875 
Q 55.609375 10.40625 48.1875 4.484375 
Q 40.765625 -1.421875 27.09375 -1.421875 
Q 22.515625 -1.421875 17.65625 -0.515625 
Q 12.796875 0.390625 7.625 2.203125 
L 7.625 11.71875 
Q 11.71875 9.328125 16.59375 8.109375 
Q 21.484375 6.890625 26.8125 6.890625 
Q 36.078125 6.890625 40.9375 10.546875 
Q 45.796875 14.203125 45.796875 21.1875 
Q 45.796875 27.640625 41.28125 31.265625 
Q 36.765625 34.90625 28.71875 34.90625 
L 20.21875 34.90625 
L 20.21875 43.015625 
L 29.109375 43.015625 
Q 36.375 43.015625 40.234375 45.921875 
Q 44.09375 48.828125 44.09375 54.296875 
Q 44.09375 59.90625 40.109375 62.90625 
Q 36.140625 65.921875 28.71875 65.921875 
Q 24.65625 65.921875 20.015625 65.03125 
Q 15.375 64.15625 9.8125 62.3125 
L 9.8125 71.09375 
Q 15.4375 72.65625 20.34375 73.4375 
Q 25.25 74.21875 29.59375 74.21875 
Q 40.828125 74.21875 47.359375 69.109375 
Q 53.90625 64.015625 53.90625 55.328125 
Q 53.90625 49.265625 50.4375 45.09375 
Q 46.96875 40.921875 40.578125 39.3125 
z
" id="DejaVuSans-51"/>
      </defs>
      <g transform="translate(7.2 69.164086)scale(0.1 -0.1)">
       <use xlink:href="#DejaVuSans-51"/>
       <use x="63.623047" xlink:href="#DejaVuSans-48"/>
       <use x="127.246094" xlink:href="#DejaVuSans-48"/>
      </g>
     </g>
    </g>
   </g>
   <g id="line2d_17">
    <path clip-path="url(#pff8aa3476d)" d="M 63.723864 329.87991 
L 64.484773 331.447143 
L 65.245682 326.484223 
L 66.006591 325.787673 
L 68.289318 325.439398 
L 69.050227 328.748014 
L 69.811136 331.534214 
L 70.572045 335.016963 
L 71.332955 334.9299 
L 73.615682 333.275588 
L 74.376591 330.837664 
L 75.1375 326.048877 
L 75.898409 322.130783 
L 76.659318 323.698024 
L 78.942045 321.695445 
L 79.702955 322.304924 
L 80.463864 314.120451 
L 81.224773 314.120451 
L 81.985682 307.59029 
L 84.268409 303.9334 
L 85.029318 305.152358 
L 85.790227 304.455808 
L 86.551136 303.323921 
L 87.312045 307.242007 
L 89.594773 311.943731 
L 90.355682 307.59029 
L 91.116591 307.59029 
L 92.638409 318.038554 
L 97.964773 313.94631 
L 100.2475 313.075618 
L 101.008409 313.423901 
L 101.769318 310.115294 
L 102.530227 304.891162 
L 103.291136 296.09721 
L 105.573864 291.482557 
L 106.334773 291.395486 
L 107.095682 294.965306 
L 107.856591 295.835997 
L 108.6175 296.532547 
L 110.900227 297.57738 
L 111.661136 296.358406 
L 112.422045 300.189438 
L 113.182955 293.659277 
L 113.943864 281.730859 
L 116.226591 274.068795 
L 116.9875 273.894653 
L 117.748409 280.076547 
L 118.509318 278.422235 
L 119.270227 274.330007 
L 121.552955 279.989476 
L 122.313864 280.773097 
L 123.074773 280.163618 
L 123.835682 283.646367 
L 124.596591 277.116206 
L 126.879318 273.372245 
L 127.640227 275.810177 
L 128.401136 280.424814 
L 129.162045 273.633457 
L 132.205682 276.245515 
L 132.966591 276.332586 
L 133.7275 283.123959 
L 134.488409 279.379997 
L 135.249318 254.130045 
L 137.532045 262.662785 
L 138.292955 266.667942 
L 139.053864 272.240357 
L 139.814773 270.586045 
L 140.575682 277.551544 
L 142.858409 283.472226 
L 143.619318 270.324833 
L 144.380227 264.142955 
L 145.141136 277.46449 
L 145.902045 283.21103 
L 148.184773 278.944643 
L 148.945682 283.646367 
L 149.706591 295.40066 
L 150.4675 294.268756 
L 151.228409 292.353248 
L 153.511136 293.049798 
L 155.032955 302.801512 
L 155.793864 310.289419 
L 156.554773 303.23685 
L 159.598409 315.339409 
L 160.359318 329.792839 
L 161.120227 320.302329 
L 161.881136 324.742849 
L 164.163864 331.098868 
L 164.924773 332.404905 
L 165.685682 332.666109 
L 166.446591 338.935066 
L 167.2075 338.412649 
L 169.490227 333.798005 
L 170.251136 331.534214 
L 171.012045 338.49972 
L 171.772955 338.935066 
L 172.533864 336.845408 
L 174.816591 346.771256 
L 175.5775 341.024715 
L 176.338409 344.681606 
L 177.860227 346.422981 
L 180.142955 337.629029 
L 182.425682 357.916061 
L 183.186591 355.478137 
L 185.469318 355.565207 
L 186.230227 354.607445 
L 186.991136 353.301416 
L 187.752045 356.784166 
L 188.512955 362.443643 
L 190.795682 365.491047 
L 191.556591 359.918648 
L 192.3175 359.396232 
L 193.078409 361.572952 
L 193.839318 365.578118 
L 196.882955 370.976383 
L 197.643864 373.501378 
L 198.404773 369.40915 
L 199.165682 371.411729 
L 201.448409 374.023795 
L 202.209318 373.327245 
L 202.970227 370.715179 
L 203.731136 369.757425 
L 204.492045 365.316913 
L 207.535682 366.100534 
L 208.296591 369.235008 
L 209.0575 365.578118 
L 209.818409 364.533293 
L 212.862045 349.90573 
L 213.622955 347.03246 
L 214.383864 349.818667 
L 215.144773 344.072119 
L 217.4275 343.723844 
L 218.188409 341.111786 
L 218.949318 333.014384 
L 219.710227 334.755759 
L 220.471136 333.275588 
L 222.753864 336.323 
L 223.514773 341.895398 
L 225.036591 343.723844 
L 225.7975 336.410071 
L 228.080227 337.10662 
L 228.841136 340.328165 
L 229.602045 345.552289 
L 230.362955 348.51263 
L 231.123864 354.95572 
L 233.406591 354.085037 
L 234.1675 353.475558 
L 234.928409 352.256592 
L 235.689318 352.866071 
L 236.450227 356.261757 
L 238.732955 354.520383 
L 239.493864 365.142772 
L 240.254773 364.185018 
L 241.015682 369.583283 
L 241.776591 371.672933 
L 244.059318 368.364317 
L 244.820227 370.192762 
L 245.581136 364.446222 
L 246.342045 367.406563 
L 247.102955 364.533293 
L 249.385682 367.580704 
L 250.146591 374.023795 
L 250.9075 374.894478 
L 254.712045 374.023795 
L 255.472955 378.464306 
L 256.233864 378.377235 
L 256.994773 381.076364 
L 257.755682 380.90223 
L 260.038409 374.981548 
L 260.799318 372.369482 
L 261.560227 370.715179 
L 262.321136 365.578118 
L 263.082045 362.791918 
L 265.364773 369.147937 
L 266.125682 368.538458 
L 266.886591 367.23243 
L 267.6475 361.137606 
L 268.408409 365.926392 
L 270.691136 369.757425 
L 272.212955 355.478137 
L 272.973864 356.348828 
L 273.734773 354.172108 
L 276.0175 333.972138 
L 276.778409 333.014384 
L 277.539318 346.33591 
L 278.300227 344.24626 
L 281.343864 339.457474 
L 282.104773 323.698024 
L 282.865682 320.650612 
L 283.626591 321.260091 
L 284.3875 320.998895 
L 286.670227 317.6032 
L 287.431136 317.951484 
L 288.192045 323.349749 
L 288.952955 318.909229 
L 289.713864 303.585133 
L 291.996591 313.859239 
L 292.7575 301.84375 
L 293.518409 301.930821 
L 294.279318 294.529969 
L 297.322955 284.517059 
L 298.083864 283.559296 
L 298.844773 286.258425 
L 299.605682 290.002386 
L 300.366591 288.522216 
L 302.649318 291.482557 
L 303.410227 291.917911 
L 304.171136 286.693779 
L 305.692955 286.171371 
L 307.975682 286.78085 
L 309.4975 279.118785 
L 310.258409 269.889496 
L 311.019318 271.456737 
L 313.302045 285.823087 
L 316.345682 274.068795 
L 318.628409 276.245515 
L 319.389318 283.99465 
L 320.150227 280.598955 
L 320.911136 284.429988 
L 321.672045 289.65412 
L 323.954773 301.930821 
L 324.715682 281.034309 
L 325.476591 280.163618 
L 326.2375 270.586045 
L 326.998409 256.219695 
L 329.281136 255.871412 
L 330.042045 243.420569 
L 330.802955 248.035222 
L 331.563864 241.156794 
L 332.324773 246.729193 
L 336.129318 248.818843 
L 336.890227 249.515392 
L 337.651136 243.594711 
L 341.455682 240.547299 
L 342.216591 238.980074 
L 342.9775 244.465402 
L 345.260227 254.042975 
L 346.021136 256.742103 
L 346.782045 257.699865 
L 347.542955 259.702444 
L 348.303864 244.813685 
L 350.586591 243.072302 
L 351.3475 249.95073 
L 352.108409 254.130045 
L 352.869318 252.998142 
L 353.630227 251.343846 
L 355.912955 256.480891 
L 356.673864 263.533476 
L 357.434773 260.050727 
L 358.195682 258.135203 
L 361.239318 260.398994 
L 362.000227 261.443827 
L 362.761136 252.649875 
L 363.522045 246.903335 
L 364.282955 245.161952 
L 367.326591 221.914578 
L 368.0875 228.880077 
L 368.848409 232.624038 
L 369.609318 226.790427 
L 371.892045 219.912 
L 372.652955 213.643035 
L 373.413864 212.685289 
L 374.174773 213.991318 
L 374.935682 210.421498 
L 377.979318 218.170617 
L 378.740227 216.168038 
L 379.501136 224.439582 
L 380.262045 221.827508 
L 382.544773 227.05164 
L 383.305682 222.698199 
L 384.066591 224.439582 
L 384.8275 230.011981 
L 385.588409 232.10163 
L 390.153864 230.273193 
L 390.914773 226.616302 
L 393.1975 232.711109 
L 393.958409 230.969743 
L 394.719318 223.307678 
L 395.480227 228.793023 
L 396.241136 221.827508 
L 398.523864 210.856835 
L 399.284773 197.274105 
L 400.045682 194.923244 
L 400.806591 208.331848 
L 401.5675 224.787849 
L 403.850227 221.479241 
L 404.611136 222.262862 
L 405.372045 243.159373 
L 406.132955 239.154199 
L 406.893864 236.629212 
L 409.176591 238.805933 
L 409.9375 241.679203 
L 410.698409 240.982653 
L 411.459318 238.370579 
L 412.220227 241.156794 
L 414.502955 251.4309 
L 415.263864 255.784341 
L 416.024773 251.082634 
L 416.785682 258.396415 
L 417.546591 259.702444 
L 419.829318 264.491222 
L 420.590227 264.230026 
L 421.351136 271.282595 
L 422.112045 254.913666 
L 425.155682 260.921402 
L 425.916591 254.130045 
L 426.6775 260.747277 
L 427.438409 260.398994 
L 428.199318 261.879164 
L 430.482045 261.879164 
L 431.242955 263.794672 
L 432.764773 265.710197 
L 433.525682 255.871412 
L 435.808409 259.267107 
L 436.569318 257.525724 
L 437.330227 248.644701 
L 438.091136 245.858502 
L 438.852045 240.111961 
L 441.895682 261.443827 
L 442.656591 264.839505 
L 443.4175 279.467068 
L 444.178409 283.646367 
L 446.461136 280.598955 
L 447.982955 257.090386 
L 448.743864 256.306766 
L 449.504773 245.68436 
L 451.7875 240.111961 
L 452.548409 231.492151 
L 453.309318 231.492151 
L 454.070227 226.268019 
L 454.831136 227.225781 
L 457.113864 224.352511 
L 457.874773 217.386996 
L 458.635682 215.993897 
L 459.396591 207.461157 
L 460.1575 201.105138 
L 462.440227 193.356002 
L 463.201136 192.659452 
L 463.962045 195.097385 
L 464.722955 193.878427 
L 465.483864 198.144797 
L 467.766591 192.224115 
L 469.288409 176.377594 
L 470.810227 181.775851 
L 473.092955 184.126713 
L 473.853864 188.741366 
L 474.614773 188.306012 
L 475.375682 186.912912 
L 476.136591 178.293118 
L 478.419318 184.300854 
L 479.180227 180.556893 
L 479.941136 153.565575 
L 481.462955 110.379419 
L 483.745682 105.938924 
L 485.2675 107.506165 
L 486.028409 110.640648 
L 486.789318 121.611304 
L 489.072045 129.882847 
L 489.832955 114.384609 
L 490.593864 128.663889 
L 491.354773 121.698391 
L 492.115682 126.922506 
L 494.398409 123.439741 
L 495.159318 125.87769 
L 495.920227 123.004403 
L 496.681136 129.099227 
L 497.442045 107.941503 
L 499.724773 105.155303 
L 500.485682 104.981162 
L 501.246591 105.416499 
L 502.0075 80.863097 
L 502.768409 92.530319 
L 505.051136 107.332024 
L 505.812045 105.677728 
L 506.572955 118.215625 
L 507.333864 113.949239 
L 508.094773 108.986319 
L 510.3775 134.410429 
L 511.138409 130.405272 
L 511.899318 145.206943 
L 513.421136 157.570732 
L 515.703864 158.267265 
L 516.464773 153.913825 
L 517.225682 154.784533 
L 517.986591 171.327587 
L 518.7475 171.327587 
L 521.030227 180.121556 
L 521.791136 176.377594 
L 522.552045 180.731035 
L 523.312955 168.193138 
L 524.073864 173.06897 
L 526.356591 177.944835 
L 527.1175 187.348266 
L 527.878409 183.517234 
L 528.639318 166.016417 
L 529.400227 165.581047 
L 531.682955 177.42241 
L 532.443864 177.42241 
L 533.965682 150.86643 
L 534.726591 159.573311 
L 537.009318 183.081896 
L 537.770227 167.583625 
L 538.531136 169.237954 
L 539.292045 165.145709 
L 540.052955 172.981916 
L 543.096591 180.034468 
L 543.8575 170.456912 
L 544.618409 164.100893 
L 545.379318 183.517234 
L 547.662045 180.905176 
L 548.422955 185.258617 
L 549.183864 192.224115 
L 549.944773 177.42241 
L 550.705682 174.287928 
L 552.988409 180.121556 
L 553.749318 182.646559 
L 554.510227 173.939678 
L 555.271136 173.939678 
L 556.032045 160.443986 
L 558.314773 152.172475 
L 559.075682 150.86643 
L 559.836591 149.995755 
L 560.5975 148.689709 
L 561.358409 153.565575 
L 563.641136 155.829349 
L 564.402045 137.457825 
L 565.162955 140.244024 
L 565.923864 139.982828 
L 566.684773 144.51041 
L 568.9675 135.629388 
L 569.728409 129.012172 
L 570.489318 123.875111 
L 571.250227 143.465594 
L 572.011136 145.206943 
L 574.293864 152.085388 
L 575.054773 159.747452 
L 575.815682 157.39659 
L 576.576591 152.433671 
L 577.3375 166.364667 
L 579.620227 164.449176 
L 580.381136 176.029311 
L 581.142045 174.636211 
L 581.902955 164.449176 
L 584.946591 162.620706 
L 585.7075 164.362089 
L 587.229318 166.800038 
L 587.990227 159.573311 
L 590.272955 160.443986 
L 591.033864 172.024153 
L 591.794773 173.591395 
L 592.555682 162.272456 
L 593.316591 165.581047 
L 595.599318 169.325008 
L 596.360227 157.570732 
L 597.121136 162.185368 
L 597.882045 163.056076 
L 598.642955 148.167284 
L 600.925682 142.681973 
L 601.686591 157.39659 
L 602.4475 154.784533 
L 603.208409 151.301767 
L 603.969318 147.122468 
L 606.252045 145.816423 
L 607.012955 154.523304 
L 607.773864 156.090545 
L 608.534773 144.858693 
L 609.295682 149.647471 
L 611.578409 144.684552 
L 613.861136 143.030223 
L 614.622045 140.679395 
L 616.904773 141.724211 
L 619.1875 138.502674 
L 619.948409 149.560384 
L 622.231136 163.926751 
L 622.992045 162.185368 
L 623.752955 150.344005 
L 624.513864 143.030223 
L 625.274773 137.893162 
L 627.5575 131.275947 
L 628.318409 131.363001 
L 629.079318 140.244024 
L 629.840227 143.117311 
L 630.601136 131.885426 
L 632.883864 133.01733 
L 633.644773 142.769027 
L 634.405682 138.415587 
L 635.166591 122.133728 
L 635.9275 132.843188 
L 638.210227 154.784533 
L 638.971136 147.035414 
L 639.732045 157.919015 
L 640.492955 157.048307 
L 641.253864 163.926751 
L 643.536591 163.056076 
L 644.2975 156.003491 
L 645.058409 147.035414 
L 645.819318 150.86643 
L 646.580227 162.098314 
L 648.862955 164.710372 
L 649.623864 146.948326 
L 650.384773 146.077652 
L 651.145682 153.913825 
L 651.906591 148.689709 
L 654.189318 145.294031 
L 654.950227 149.821613 
L 655.711136 145.642314 
L 656.472045 159.137973 
L 657.232955 167.670713 
L 661.798409 232.275772 
L 662.559318 239.24127 
L 664.842045 234.800759 
L 665.602955 243.420569 
L 666.363864 246.119714 
L 667.124773 282.340338 
L 667.885682 278.857589 
L 670.168409 310.811844 
L 670.929318 302.627371 
L 671.690227 325.874744 
L 672.451136 375.329823 
L 672.451136 375.329823 
" style="fill:none;stroke:#1f77b4;stroke-linecap:square;stroke-width:1.5;"/>
   </g>
   <g id="line2d_18">
    <path clip-path="url(#pff8aa3476d)" d="M 63.723864 329.87991 
L 64.484773 328.681191 
L 65.245682 328.441475 
L 66.006591 327.642343 
L 68.289318 326.044038 
L 69.050227 326.044038 
L 69.811136 327.882076 
L 70.572045 324.285945 
L 71.332955 323.886391 
L 73.615682 323.486805 
L 74.376591 321.089384 
L 75.1375 315.415476 
L 75.898409 316.534308 
L 76.659318 316.214616 
L 78.942045 314.536425 
L 79.702955 316.374454 
L 80.463864 307.583928 
L 81.224773 307.583928 
L 81.985682 302.868981 
L 84.268409 303.508316 
L 85.029318 306.385218 
L 85.790227 304.707043 
L 86.551136 298.154067 
L 87.312045 302.549371 
L 89.594773 309.981349 
L 90.355682 302.389517 
L 91.116591 306.784804 
L 91.8775 309.901438 
L 92.638409 312.138988 
L 97.203864 307.104447 
L 97.964773 306.944626 
L 100.2475 301.910069 
L 101.008409 298.793402 
L 101.769318 300.311755 
L 102.530227 296.395982 
L 103.291136 293.359242 
L 105.573864 290.162698 
L 106.334773 290.32252 
L 107.095682 290.642228 
L 107.856591 294.078488 
L 108.6175 290.242625 
L 110.900227 285.367857 
L 112.422045 288.963988 
L 113.182955 288.724239 
L 113.943864 283.210201 
L 116.226591 283.689649 
L 116.9875 285.447751 
L 117.748409 283.290096 
L 118.509318 291.840889 
L 119.270227 290.881928 
L 121.552955 294.877628 
L 122.313864 293.039616 
L 123.074773 285.927281 
L 123.835682 288.564401 
L 124.596591 288.324669 
L 126.879318 286.08707 
L 127.640227 290.802 
L 128.401136 292.719957 
L 129.162045 291.041765 
L 132.205682 295.117344 
L 132.966591 296.63573 
L 133.7275 299.272883 
L 134.488409 293.11951 
L 135.249318 292.080638 
L 137.532045 298.074173 
L 138.292955 291.12166 
L 139.053864 287.925132 
L 139.814773 288.88411 
L 140.575682 292.719957 
L 142.858409 297.354943 
L 143.619318 294.078488 
L 144.380227 287.925132 
L 145.141136 284.728538 
L 145.902045 283.449917 
L 148.184773 282.490972 
L 148.945682 283.130274 
L 149.706591 288.48454 
L 150.4675 281.292262 
L 151.228409 280.652943 
L 153.511136 278.575182 
L 155.032955 281.531961 
L 155.793864 282.730688 
L 156.554773 284.169147 
L 158.8375 281.132407 
L 159.598409 279.054646 
L 160.359318 264.110747 
L 161.120227 256.359111 
L 161.881136 258.836426 
L 164.163864 252.443337 
L 165.685682 243.253241 
L 166.446591 254.76083 
L 167.2075 257.158267 
L 169.490227 261.953092 
L 170.251136 264.275268 
L 171.012045 275.805825 
L 171.772955 301.349379 
L 172.533864 303.591447 
L 174.816591 326.732759 
L 175.5775 307.595133 
L 176.338409 310.1575 
L 177.860227 332.738271 
L 180.142955 321.768182 
L 180.903864 329.295111 
L 181.664773 331.37702 
L 183.186591 340.024991 
L 186.230227 338.343432 
L 186.991136 340.665592 
L 187.752045 341.226092 
L 188.512955 342.267051 
L 190.795682 346.030511 
L 192.3175 332.337921 
L 193.078409 341.226092 
L 193.839318 341.146025 
L 196.122045 336.421665 
L 196.882955 333.699147 
L 197.643864 329.615403 
L 198.404773 329.215019 
L 199.165682 324.490683 
L 201.448409 322.248615 
L 202.209318 322.008407 
L 202.970227 321.127565 
L 203.731136 319.125739 
L 204.492045 318.485155 
L 207.535682 320.006564 
L 208.296591 322.729049 
L 209.0575 318.405096 
L 209.818409 317.123912 
L 212.101136 318.965589 
L 212.862045 315.682578 
L 213.622955 317.604363 
L 214.383864 314.801753 
L 215.144773 307.675175 
L 217.4275 307.915433 
L 218.188409 304.712448 
L 218.949318 302.31023 
L 219.710227 306.714324 
L 220.471136 303.831672 
L 222.753864 302.870772 
L 223.514773 304.232031 
L 224.275682 301.909888 
L 225.036591 298.706953 
L 225.7975 293.101767 
L 228.080227 293.662292 
L 228.841136 296.304719 
L 229.602045 300.868946 
L 230.362955 299.267445 
L 231.123864 305.27299 
L 233.406591 301.669679 
L 234.1675 301.749952 
L 234.928409 309.215428 
L 235.689318 310.018166 
L 236.450227 313.951585 
L 238.732955 314.754323 
L 239.493864 319.891906 
L 240.254773 314.834595 
L 241.015682 318.04558 
L 241.776591 315.235989 
L 244.059318 311.944764 
L 244.820227 314.834595 
L 245.581136 307.208591 
L 246.342045 311.222265 
L 247.102955 307.529696 
L 249.385682 309.616805 
L 250.146591 312.426397 
L 250.9075 311.623626 
L 251.668409 309.697077 
L 254.712045 307.529696 
L 255.472955 313.630496 
L 256.233864 310.018166 
L 256.994773 311.944764 
L 257.755682 311.302537 
L 260.038409 306.405836 
L 260.799318 299.582554 
L 261.560227 301.749952 
L 262.321136 302.632962 
L 263.082045 300.46558 
L 265.364773 301.589391 
L 266.125682 300.947197 
L 266.886591 300.064203 
L 267.6475 289.869407 
L 268.408409 292.839543 
L 270.691136 293.561976 
L 271.452045 278.952129 
L 272.212955 271.165531 
L 272.973864 269.319255 
L 273.734773 269.800888 
L 276.0175 248.608558 
L 276.778409 246.842521 
L 278.300227 259.124443 
L 281.343864 255.271296 
L 282.104773 247.564971 
L 282.865682 249.812657 
L 283.626591 255.833201 
L 284.3875 254.067197 
L 286.670227 249.170463 
L 287.431136 251.819511 
L 288.192045 255.993746 
L 288.952955 250.856212 
L 289.713864 240.581127 
L 291.996591 250.053474 
L 292.7575 237.370191 
L 293.518409 240.420567 
L 294.279318 242.828797 
L 297.322955 236.085804 
L 299.605682 258.642777 
L 300.366591 257.759783 
L 302.649318 258.803337 
L 303.410227 267.553218 
L 304.171136 260.64963 
L 305.692955 255.03048 
L 307.975682 253.424987 
L 309.4975 260.087725 
L 310.258409 259.442985 
L 311.019318 265.729301 
L 313.302045 266.696461 
L 314.062955 256.380386 
L 314.823864 257.589315 
L 315.584773 259.281783 
L 316.345682 256.944542 
L 318.628409 253.076035 
L 319.389318 257.911702 
L 320.150227 256.138617 
L 320.911136 263.956233 
L 321.672045 262.505567 
L 323.954773 273.224596 
L 324.715682 274.433492 
L 325.476591 274.352908 
L 326.2375 273.869353 
L 326.998409 276.36773 
L 329.281136 277.818445 
L 330.042045 284.830168 
L 330.802955 282.815297 
L 331.563864 288.940445 
L 332.324773 288.45689 
L 336.129318 281.399428 
L 336.890227 281.482789 
L 337.651136 273.062787 
L 341.455682 261.558237 
L 342.216591 256.639636 
L 342.9775 256.056094 
L 345.260227 252.804775 
L 346.021136 254.055303 
L 346.782045 249.720244 
L 347.542955 251.554297 
L 348.303864 253.805204 
L 350.586591 254.972305 
L 352.108409 255.22242 
L 352.869318 252.387987 
L 353.630227 250.38718 
L 355.912955 249.30339 
L 356.673864 252.63807 
L 357.434773 250.137064 
L 358.195682 249.22003 
L 361.239318 255.639257 
L 362.000227 250.637262 
L 362.761136 248.55311 
L 363.522045 248.886586 
L 364.282955 247.052533 
L 366.565682 245.135103 
L 367.326591 244.718282 
L 368.0875 249.636883 
L 368.848409 252.97153 
L 369.609318 252.63807 
L 371.892045 255.055698 
L 372.652955 247.719469 
L 373.413864 244.968381 
L 374.174773 237.465397 
L 374.935682 238.382432 
L 377.218409 239.049368 
L 377.979318 233.880652 
L 378.740227 236.715101 
L 379.501136 233.713914 
L 380.262045 235.96482 
L 383.305682 240.549945 
L 384.066591 236.381657 
L 384.8275 236.548363 
L 385.588409 239.549549 
L 390.153864 238.965991 
L 390.914773 239.799665 
L 393.1975 230.796104 
L 393.958409 232.880256 
L 394.719318 227.878294 
L 395.480227 227.127965 
L 396.241136 226.627783 
L 398.523864 222.542856 
L 399.284773 218.707979 
L 400.045682 220.625442 
L 400.806591 224.04345 
L 401.5675 237.04856 
L 403.850227 234.214128 
L 404.611136 223.459875 
L 405.372045 234.214128 
L 406.132955 228.211754 
L 406.893864 228.211754 
L 409.176591 228.711968 
L 409.9375 226.294324 
L 410.698409 232.54678 
L 411.459318 224.793747 
L 412.220227 222.209364 
L 414.502955 218.291142 
L 415.263864 219.041455 
L 416.024773 222.209364 
L 416.785682 228.711968 
L 417.546591 246.802434 
L 419.829318 245.96876 
L 420.590227 239.382844 
L 421.351136 239.132712 
L 422.112045 232.046599 
L 425.155682 233.38047 
L 425.916591 231.379663 
L 426.6775 232.046599 
L 427.438409 230.379267 
L 428.199318 234.804997 
L 430.482045 233.803895 
L 431.242955 235.972953 
L 432.764773 239.143096 
L 433.525682 238.141977 
L 435.808409 238.809389 
L 436.569318 242.313222 
L 437.330227 233.803895 
L 438.091136 238.30883 
L 438.852045 239.560195 
L 441.134773 246.067351 
L 441.895682 245.233085 
L 442.656591 246.234187 
L 444.178409 256.245159 
L 446.461136 249.237477 
L 447.222045 241.1453 
L 447.982955 241.982687 
L 448.743864 245.75101 
L 449.504773 243.65751 
L 451.7875 242.401397 
L 452.548409 237.711915 
L 453.309318 240.224141 
L 454.070227 243.155061 
L 454.831136 248.179531 
L 457.113864 244.494913 
L 457.874773 242.736351 
L 458.635682 245.583549 
L 460.1575 238.046869 
L 462.440227 238.968028 
L 463.201136 234.69724 
L 463.962045 237.293188 
L 464.722955 234.529746 
L 465.483864 235.534643 
L 467.766591 235.115949 
L 468.5275 232.268735 
L 469.288409 231.682564 
L 470.810227 225.318259 
L 473.092955 225.569492 
L 473.853864 231.766303 
L 474.614773 230.426451 
L 475.375682 234.111052 
L 476.136591 232.603723 
L 478.419318 233.85982 
L 479.180227 237.544437 
L 479.941136 234.529746 
L 480.702045 232.7712 
L 481.462955 232.687445 
L 483.745682 230.593945 
L 485.2675 227.076821 
L 486.028409 224.313379 
L 486.789318 223.22471 
L 489.072045 226.155679 
L 489.832955 229.086616 
L 491.354773 231.766303 
L 492.115682 232.35249 
L 495.159318 231.682564 
L 495.920227 233.106155 
L 496.681136 236.958234 
L 497.442045 243.2388 
L 499.724773 241.229022 
L 501.246591 243.741265 
L 502.0075 242.317658 
L 502.768409 240.056647 
L 505.051136 248.179531 
L 505.812045 245.416088 
L 506.572955 247.760804 
L 507.333864 241.480238 
L 508.094773 242.066425 
L 510.3775 247.342111 
L 511.138409 244.472537 
L 511.899318 251.815256 
L 512.660227 257.638783 
L 513.421136 260.339549 
L 515.703864 259.326766 
L 516.464773 259.411162 
L 517.225682 247.342111 
L 517.986591 249.283281 
L 518.7475 257.216771 
L 521.030227 259.917553 
L 521.791136 256.710396 
L 522.552045 254.600417 
L 523.312955 246.920115 
L 524.073864 246.920115 
L 526.356591 248.608098 
L 527.1175 246.076124 
L 527.878409 240.505784 
L 531.682955 234.851064 
L 532.443864 233.416286 
L 533.204773 235.357456 
L 533.965682 233.753885 
L 534.726591 235.27306 
L 537.009318 225.313988 
L 537.770227 228.436733 
L 538.531136 232.403503 
L 539.292045 231.812699 
L 540.052955 234.260277 
L 542.335682 230.209128 
L 543.096591 231.98149 
L 543.8575 231.390719 
L 544.618409 228.352337 
L 548.422955 229.955924 
L 549.183864 236.62346 
L 549.944773 236.454651 
L 550.705682 238.395822 
L 552.988409 241.265396 
L 553.749318 242.531367 
L 554.510227 238.311426 
L 555.271136 236.454651 
L 556.032045 232.065903 
L 558.314773 231.643923 
L 559.836591 226.411183 
L 560.5975 228.689953 
L 561.358409 229.196329 
L 563.641136 227.76155 
L 564.402045 221.009651 
L 565.162955 217.802461 
L 565.923864 223.119613 
L 566.684773 215.270503 
L 568.9675 212.31655 
L 569.728409 210.459775 
L 570.489318 208.265401 
L 571.250227 205.649031 
L 572.011136 205.311447 
L 574.293864 205.902218 
L 575.054773 211.894554 
L 575.815682 211.388179 
L 576.576591 201.344694 
L 577.3375 208.771792 
L 579.620227 205.142639 
L 580.381136 207.088837 
L 581.142045 208.108372 
L 581.902955 213.205935 
L 584.946591 215.075047 
L 585.7075 217.623828 
L 587.229318 208.533161 
L 587.990227 207.428688 
L 590.272955 209.55268 
L 591.033864 214.140483 
L 591.794773 212.951055 
L 592.555682 211.251867 
L 593.316591 214.480333 
L 595.599318 215.160002 
L 596.360227 215.924641 
L 597.121136 210.147394 
L 597.882045 206.833974 
L 598.642955 204.285176 
L 600.925682 205.47462 
L 601.686591 203.520537 
L 602.4475 203.860387 
L 603.208409 199.017689 
L 603.969318 207.428688 
L 606.252045 212.271386 
L 607.012955 208.533161 
L 607.773864 202.670943 
L 608.534773 202.076229 
L 609.295682 205.049815 
L 611.578409 203.010794 
L 613.861136 199.527448 
L 614.622045 199.252311 
L 616.904773 202.180915 
L 619.1875 197.701872 
L 619.948409 199.855256 
L 622.231136 196.754394 
L 622.992045 197.78801 
L 623.752955 199.424586 
L 624.513864 200.285943 
L 625.274773 201.405695 
L 627.5575 200.888888 
L 628.318409 203.731354 
L 629.079318 207.607452 
L 629.840227 207.865847 
L 630.601136 205.023381 
L 632.883864 203.731354 
L 634.405682 209.846957 
L 635.166591 206.746095 
L 635.9275 209.760836 
L 638.210227 220.700014 
L 638.971136 214.067604 
L 639.732045 213.636917 
L 640.492955 212.861697 
L 641.253864 217.082328 
L 643.536591 219.407987 
L 644.2975 215.531905 
L 645.058409 217.599152 
L 645.819318 210.794451 
L 646.580227 212.947835 
L 648.862955 211.225137 
L 649.623864 208.210397 
L 650.384773 202.611601 
L 651.145682 206.14315 
L 651.906591 208.727204 
L 654.189318 209.244012 
L 654.950227 205.884738 
L 655.711136 198.993916 
L 656.472045 204.420436 
L 657.232955 211.139 
L 661.798409 244.214979 
L 662.559318 243.87043 
L 664.842045 233.620318 
L 665.602955 237.754827 
L 666.363864 230.519456 
L 667.124773 244.3011 
L 667.885682 265.490407 
L 670.168409 323.890186 
L 670.929318 310.883745 
L 671.690227 326.904919 
L 672.451136 353.606875 
L 672.451136 353.606875 
" style="fill:none;stroke:#ff7f0e;stroke-linecap:square;stroke-width:1.5;"/>
   </g>
   <g id="line2d_19">
    <path clip-path="url(#pff8aa3476d)" d="M 63.723864 329.87991 
L 64.484773 330.08388 
L 65.245682 322.945834 
L 66.006591 324.679361 
L 68.289318 319.886672 
L 69.050227 319.070901 
L 69.811136 321.008358 
L 70.572045 309.485554 
L 71.332955 309.485554 
L 73.615682 311.01512 
L 74.376591 314.686103 
L 75.1375 309.179628 
L 75.898409 313.870342 
L 76.659318 317.745255 
L 78.942045 319.580767 
L 79.702955 322.334014 
L 80.463864 317.949205 
L 81.224773 317.949205 
L 81.985682 309.791469 
L 84.268409 313.054541 
L 85.029318 312.034851 
L 85.790227 315.297923 
L 86.551136 313.054541 
L 87.312045 313.564427 
L 89.594773 322.028079 
L 90.355682 313.564427 
L 91.116591 318.764976 
L 91.8775 321.824149 
L 92.638409 319.070901 
L 97.203864 309.179628 
L 97.964773 299.696236 
L 100.2475 291.538479 
L 101.008409 297.452864 
L 101.769318 295.923308 
L 102.530227 297.860734 
L 103.291136 292.660155 
L 105.573864 288.479337 
L 106.334773 292.35429 
L 107.095682 292.660155 
L 107.856591 287.255676 
L 108.6175 289.805024 
L 110.900227 288.071456 
L 111.661136 295.719317 
L 112.422045 291.538479 
L 113.182955 298.676515 
L 116.226591 294.591952 
L 116.9875 295.715704 
L 117.748409 298.167626 
L 118.509318 303.377875 
L 119.270227 304.297331 
L 121.552955 308.588124 
L 122.313864 301.334627 
L 123.074773 298.882735 
L 123.835682 305.216786 
L 124.596591 307.975163 
L 126.879318 305.727588 
L 127.640227 307.770837 
L 128.401136 309.405431 
L 129.162045 303.786519 
L 132.205682 302.356251 
L 132.966591 301.436795 
L 133.7275 305.318934 
L 134.488409 294.796279 
L 135.249318 297.350309 
L 137.532045 300.619498 
L 138.292955 297.24814 
L 139.053864 298.474091 
L 139.814773 294.08113 
L 140.575682 294.489793 
L 142.858409 295.000595 
L 143.619318 290.505486 
L 144.380227 284.988711 
L 145.141136 286.725515 
L 145.902045 288.97306 
L 148.184773 291.220604 
L 148.945682 290.914139 
L 149.706591 290.81193 
L 150.4675 288.257941 
L 151.228409 291.731427 
L 153.511136 292.037912 
L 155.032955 296.226536 
L 155.793864 293.672506 
L 156.554773 290.096812 
L 158.8375 295.000595 
L 159.598409 295.307091 
L 160.359318 284.784394 
L 161.120227 279.778462 
L 161.881136 280.800107 
L 164.163864 281.208781 
L 164.924773 280.493622 
L 165.685682 275.692027 
L 166.446591 278.65467 
L 170.251136 288.675674 
L 171.012045 292.57594 
L 171.772955 292.370667 
L 172.533864 299.452845 
L 174.816591 309.614226 
L 175.5775 307.356147 
L 176.338409 310.230057 
L 177.860227 303.455819 
L 180.142955 299.247571 
L 180.903864 296.373652 
L 181.664773 298.837025 
L 182.425682 309.8195 
L 183.186591 315.156792 
L 185.469318 316.388463 
L 186.230227 313.103997 
L 186.991136 313.61718 
L 188.512955 318.030712 
L 190.795682 317.414871 
L 191.556591 318.030712 
L 192.3175 310.845908 
L 193.078409 318.543906 
L 193.839318 315.772633 
L 196.122045 319.775608 
L 196.882955 323.983845 
L 197.643864 322.957438 
L 198.404773 319.159747 
L 199.165682 319.36504 
L 201.448409 319.262404 
L 202.209318 315.464713 
L 202.970227 312.488146 
L 203.731136 306.535023 
L 204.492045 302.839969 
L 207.535682 305.611262 
L 208.296591 309.306296 
L 209.0575 300.992457 
L 209.818409 302.942615 
L 212.101136 300.684536 
L 212.862045 296.271015 
L 213.622955 295.14196 
L 214.383864 298.221184 
L 215.144773 295.347264 
L 217.4275 294.83406 
L 218.188409 289.907314 
L 218.949318 291.241653 
L 219.710227 295.244607 
L 220.471136 289.291474 
L 222.753864 286.417544 
L 223.514773 290.933743 
L 224.275682 293.807652 
L 225.036591 291.344289 
L 225.7975 286.725474 
L 228.080227 289.188857 
L 228.841136 290.933743 
L 229.602045 285.59643 
L 230.362955 289.804698 
L 231.123864 297.194776 
L 233.406591 298.837025 
L 234.1675 294.83406 
L 234.928409 302.839969 
L 235.689318 302.839969 
L 236.450227 301.505661 
L 238.732955 295.757821 
L 239.493864 298.426467 
L 240.254773 294.180937 
L 241.015682 298.53 
L 241.776591 297.598056 
L 244.059318 295.319976 
L 245.581136 293.352555 
L 246.342045 297.287418 
L 247.102955 296.044825 
L 249.385682 298.012246 
L 250.146591 300.497441 
L 250.9075 300.808069 
L 251.668409 297.908714 
L 254.712045 300.704526 
L 255.472955 304.742941 
L 256.233864 303.810997 
L 257.755682 304.121635 
L 260.038409 300.290336 
L 260.799318 289.521215 
L 261.560227 288.382196 
L 262.321136 288.175131 
L 263.082045 286.104117 
L 265.364773 290.660275 
L 266.125682 281.340894 
L 266.886591 284.965077 
L 267.6475 284.343781 
L 268.408409 284.136655 
L 270.691136 289.417703 
L 271.452045 288.071558 
L 272.973864 294.2845 
L 273.734773 298.53 
L 276.0175 300.497441 
L 276.778409 296.148358 
L 277.539318 301.118717 
L 278.300227 299.151296 
L 281.343864 301.325822 
L 282.104773 294.388042 
L 282.865682 295.423519 
L 283.626591 301.740023 
L 284.3875 305.674896 
L 286.670227 298.633542 
L 287.431136 299.772572 
L 288.192045 307.124583 
L 289.713864 298.633542 
L 291.996591 300.186783 
L 292.7575 298.53 
L 293.518409 293.766736 
L 294.279318 292.109943 
L 297.322955 286.725413 
L 298.083864 286.20767 
L 299.605682 295.630624 
L 300.366591 295.216434 
L 302.649318 302.257767 
L 304.171136 305.260695 
L 305.692955 294.077384 
L 307.975682 294.905796 
L 309.4975 303.189711 
L 310.258409 301.51877 
L 311.019318 306.322706 
L 313.302045 307.575894 
L 314.062955 308.620256 
L 314.823864 304.756214 
L 315.584773 304.442909 
L 316.345682 300.474438 
L 318.628409 293.477391 
L 319.389318 297.028139 
L 320.150227 295.043893 
L 320.911136 296.923711 
L 321.672045 298.490193 
L 323.954773 302.040941 
L 324.715682 300.474438 
L 325.476591 301.309904 
L 326.2375 301.936513 
L 326.998409 304.129604 
L 329.281136 304.442909 
L 330.042045 303.189711 
L 330.802955 303.920738 
L 331.563864 310.186749 
L 332.324773 308.515808 
L 336.129318 307.680353 
L 336.890227 311.544385 
L 337.651136 307.367048 
L 341.455682 303.398577 
L 342.216591 304.442909 
L 342.9775 300.265572 
L 346.021136 299.638963 
L 346.782045 295.043893 
L 348.303864 303.189711 
L 350.586591 303.398577 
L 351.3475 306.531583 
L 352.108409 306.218268 
L 352.869318 304.96508 
L 353.630227 300.37001 
L 355.912955 300.265572 
L 356.673864 300.578867 
L 357.434773 298.69907 
L 358.195682 295.148332 
L 361.239318 298.803498 
L 362.000227 298.803498 
L 362.761136 293.477391 
L 363.522045 298.69907 
L 364.282955 297.132557 
L 366.565682 295.148332 
L 367.326591 295.879359 
L 368.0875 302.040941 
L 368.848409 303.085273 
L 369.609318 301.832065 
L 371.892045 300.787743 
L 372.652955 300.265572 
L 373.413864 298.907936 
L 374.174773 297.863604 
L 374.935682 300.474438 
L 377.218409 299.743401 
L 377.979318 299.847829 
L 378.740227 297.132557 
L 379.501136 304.442909 
L 380.262045 303.607434 
L 382.544773 302.66754 
L 383.305682 300.474438 
L 384.066591 300.996599 
L 384.8275 304.025176 
L 385.588409 305.173946 
L 390.153864 307.276594 
L 390.914773 307.486855 
L 393.1975 305.489337 
L 393.958409 307.907407 
L 394.719318 304.648274 
L 395.480227 306.961193 
L 396.241136 303.281559 
L 398.523864 298.971091 
L 399.284773 295.501698 
L 400.045682 297.919767 
L 400.806591 297.499236 
L 401.5675 305.068816 
L 403.850227 305.804739 
L 404.611136 301.914833 
L 405.372045 308.117668 
L 406.893864 302.966147 
L 409.176591 293.083658 
L 409.9375 293.083658 
L 410.698409 293.924711 
L 411.459318 291.822053 
L 412.220227 296.342771 
L 414.502955 295.501698 
L 415.263864 298.130038 
L 416.024773 298.865961 
L 416.785682 302.440496 
L 417.546591 304.332883 
L 419.829318 306.750932 
L 420.590227 303.59695 
L 421.351136 304.648274 
L 422.112045 305.173936 
L 425.155682 304.963675 
L 425.916591 307.276594 
L 426.6775 308.64332 
L 427.438409 308.853601 
L 428.199318 311.06139 
L 430.482045 310.851129 
L 431.242955 313.374319 
L 432.764773 314.951305 
L 433.525682 312.533245 
L 435.808409 314.110242 
L 436.569318 312.638376 
L 437.330227 309.694654 
L 438.091136 312.428115 
L 438.852045 313.374319 
L 441.134773 316.948823 
L 441.895682 315.476967 
L 442.656591 315.792368 
L 443.4175 317.684776 
L 444.178409 317.684776 
L 446.461136 316.522378 
L 447.222045 311.133156 
L 447.982955 311.133156 
L 448.743864 314.725971 
L 449.504773 315.782679 
L 451.7875 316.099698 
L 452.548409 312.718213 
L 454.831136 315.571339 
L 457.113864 314.83164 
L 457.874773 315.677009 
L 458.635682 317.262077 
L 459.396591 317.896116 
L 460.1575 315.25433 
L 462.440227 312.612554 
L 463.201136 308.17435 
L 463.962045 309.336728 
L 464.722955 307.328982 
L 465.483864 310.499107 
L 467.766591 311.978515 
L 468.5275 306.377943 
L 469.288409 304.053166 
L 470.810227 301.30571 
L 473.092955 302.256749 
L 473.853864 306.272263 
L 474.614773 302.679438 
L 475.375682 303.736157 
L 476.136591 301.51706 
L 478.419318 303.313467 
L 479.180227 307.434651 
L 479.941136 304.792875 
L 480.702045 300.460342 
L 481.462955 299.720643 
L 483.745682 299.931982 
L 485.2675 300.354672 
L 486.028409 304.264516 
L 486.789318 306.589283 
L 489.072045 304.370176 
L 489.832955 305.849584 
L 490.593864 307.751661 
L 491.354773 309.019719 
L 492.115682 310.604797 
L 494.398409 314.091931 
L 495.159318 313.563572 
L 495.920227 315.782679 
L 496.681136 317.156417 
L 497.442045 316.733717 
L 499.724773 315.25433 
L 500.485682 313.246573 
L 501.246591 316.839387 
L 502.0075 319.481184 
L 502.768409 318.741485 
L 505.051136 323.708027 
L 505.812045 323.813707 
L 506.572955 325.081755 
L 507.333864 320.643562 
L 508.094773 321.70028 
L 510.3775 325.504444 
L 511.138409 321.91161 
L 511.899318 327.829211 
L 512.660227 332.373074 
L 513.421136 328.14622 
L 515.703864 331.865244 
L 516.464773 331.333954 
L 517.225682 328.783771 
L 517.986591 328.14622 
L 518.7475 331.546484 
L 521.030227 334.521687 
L 521.791136 337.07188 
L 522.552045 335.584278 
L 523.312955 328.996291 
L 524.073864 325.383518 
L 527.1175 328.464991 
L 527.878409 328.464991 
L 528.639318 327.50868 
L 529.400227 330.058862 
L 531.682955 322.833325 
L 532.443864 318.47675 
L 533.204773 321.558234 
L 533.965682 317.520429 
L 534.726591 318.05171 
L 537.009318 318.689271 
L 537.770227 317.8392 
L 538.531136 319.433071 
L 539.292045 319.751852 
L 540.052955 321.345713 
L 542.335682 321.770744 
L 543.096591 324.533457 
L 543.8575 322.833325 
L 544.618409 322.620805 
L 545.379318 323.683396 
L 547.662045 322.302034 
L 548.422955 323.045845 
L 549.183864 328.252481 
L 549.944773 326.339839 
L 550.705682 323.683396 
L 552.988409 326.339839 
L 553.749318 328.783771 
L 554.510227 329.102541 
L 555.271136 324.214686 
L 556.032045 320.920693 
L 558.314773 321.345713 
L 559.075682 318.795531 
L 559.836591 320.283132 
L 560.5975 319.751852 
L 561.358409 322.302034 
L 563.641136 321.558234 
L 564.402045 321.026943 
L 565.162955 320.708163 
L 565.923864 324.002166 
L 566.684773 321.451984 
L 568.9675 321.770744 
L 569.728409 322.833325 
L 570.489318 319.964362 
L 571.250227 319.433071 
L 572.011136 314.332696 
L 574.293864 307.000898 
L 575.054773 305.407027 
L 575.815682 305.619547 
L 576.576591 299.24407 
L 577.3375 300.094131 
L 579.620227 299.775361 
L 580.381136 299.242686 
L 581.142045 298.923081 
L 581.902955 297.644631 
L 584.946591 299.562291 
L 585.7075 299.136141 
L 587.229318 286.884417 
L 587.990227 284.327537 
L 590.272955 283.155642 
L 591.033864 278.254932 
L 591.794773 276.550352 
L 592.555682 279.213757 
L 593.316591 281.024902 
L 595.599318 276.230737 
L 596.360227 280.492217 
L 597.121136 278.254932 
L 597.882045 277.828792 
L 598.642955 274.632682 
L 600.925682 279.107232 
L 601.686591 273.886927 
L 602.4475 274.632682 
L 603.208409 271.330048 
L 603.969318 265.150918 
L 606.252045 269.199308 
L 607.012955 270.158132 
L 607.773864 272.182348 
L 608.534773 267.494708 
L 609.295682 258.119488 
L 611.578409 254.816854 
L 613.861136 250.235759 
L 614.622045 250.342304 
L 616.904773 249.063864 
L 619.1875 240.967064 
L 619.948409 244.589314 
L 622.231136 245.121979 
L 622.992045 241.712819 
L 623.752955 240.860519 
L 624.513864 242.032434 
L 625.274773 239.049394 
L 627.5575 229.461085 
L 628.318409 233.935635 
L 629.079318 237.344815 
L 629.840227 235.214075 
L 630.601136 232.33758 
L 632.883864 224.88001 
L 633.644773 229.887245 
L 634.405682 227.01075 
L 635.166591 226.051905 
L 635.9275 231.27221 
L 638.210227 249.596529 
L 638.971136 246.933104 
L 639.732045 247.572354 
L 640.492955 241.180134 
L 641.253864 248.531179 
L 643.536591 243.20435 
L 644.2975 233.82909 
L 645.058409 234.148705 
L 645.819318 235.853305 
L 646.580227 246.400439 
L 648.862955 249.809619 
L 649.623864 237.451339 
L 650.384773 235.427145 
L 651.145682 236.492515 
L 651.906591 243.737014 
L 654.189318 241.606274 
L 654.950227 243.523944 
L 655.711136 244.482769 
L 656.472045 254.071078 
L 657.232955 258.652153 
L 661.798409 280.066057 
L 662.559318 281.770637 
L 665.602955 275.794012 
L 666.363864 266.508849 
L 667.124773 276.114177 
L 667.885682 289.7751 
L 670.168409 320.725608 
L 670.929318 309.092483 
L 671.690227 326.702263 
L 672.451136 349.007968 
L 672.451136 349.007968 
" style="fill:none;stroke:#2ca02c;stroke-linecap:square;stroke-width:1.5;"/>
   </g>
   <g id="line2d_20">
    <path clip-path="url(#pff8aa3476d)" d="M 63.723864 329.87991 
L 64.484773 332.760774 
L 65.245682 332.498878 
L 66.006591 331.451296 
L 68.289318 331.1894 
L 69.050227 335.641638 
L 69.811136 335.37973 
L 70.572045 334.070252 
L 71.332955 333.546461 
L 73.615682 333.939298 
L 74.376591 335.117847 
L 75.1375 334.332148 
L 75.898409 335.903521 
L 76.659318 335.117847 
L 78.942045 334.463102 
L 79.702955 337.082058 
L 80.463864 332.62982 
L 81.224773 332.62982 
L 81.985682 330.665609 
L 84.268409 328.83234 
L 85.029318 329.094223 
L 85.790227 330.534655 
L 86.551136 328.701398 
L 87.312045 331.320342 
L 89.594773 332.760774 
L 90.355682 331.975087 
L 91.116591 333.153611 
L 91.8775 336.427313 
L 92.638409 335.77258 
L 97.203864 335.641638 
L 97.964773 336.427313 
L 100.2475 335.903521 
L 101.008409 333.939298 
L 101.769318 331.320342 
L 102.530227 328.046653 
L 103.291136 327.260954 
L 105.573864 332.106029 
L 106.334773 332.760774 
L 107.095682 332.367937 
L 108.6175 331.1894 
L 110.900227 337.736803 
L 112.422045 338.915327 
L 113.182955 339.701014 
L 113.943864 334.201194 
L 116.226591 328.83234 
L 116.9875 325.951488 
L 117.748409 329.487073 
L 118.509318 333.808356 
L 119.270227 336.165417 
L 121.552955 334.201194 
L 122.313864 334.986893 
L 123.074773 336.034463 
L 123.835682 336.296371 
L 124.596591 338.653431 
L 126.879318 338.915327 
L 128.401136 345.593684 
L 129.162045 339.701014 
L 132.205682 339.046281 
L 132.966591 342.974715 
L 133.7275 342.974715 
L 134.488409 345.200834 
L 135.249318 342.974715 
L 138.292955 344.807997 
L 139.053864 341.927133 
L 139.814773 339.962922 
L 140.575682 342.71282 
L 142.858409 344.677043 
L 143.619318 344.022298 
L 144.380227 341.66525 
L 145.141136 342.974715 
L 145.902045 342.058087 
L 148.184773 341.66525 
L 148.945682 342.71282 
L 149.706591 344.677043 
L 150.4675 341.403342 
L 151.228409 344.938939 
L 153.511136 347.557895 
L 155.032955 348.126928 
L 155.793864 351.418221 
L 156.554773 353.524649 
L 158.8375 354.051266 
L 159.598409 354.972817 
L 160.359318 350.75996 
L 161.120227 344.703977 
L 161.881136 345.230581 
L 164.163864 343.25581 
L 164.924773 341.017725 
L 165.685682 338.12139 
L 166.446591 339.83286 
L 167.2075 337.726431 
L 169.490227 336.146607 
L 171.012045 337.06817 
L 171.772955 337.199827 
L 172.533864 335.620003 
L 174.816591 337.594774 
L 175.5775 341.807631 
L 176.338409 344.57232 
L 177.860227 343.25581 
L 180.142955 344.045716 
L 180.903864 348.785189 
L 181.664773 347.863613 
L 182.425682 350.891617 
L 183.186591 346.283802 
L 186.230227 347.337009 
L 186.991136 346.283802 
L 187.752045 346.415459 
L 188.512955 347.337009 
L 190.795682 344.57232 
L 191.556591 342.070945 
L 192.3175 342.202602 
L 193.078409 339.437913 
L 193.839318 339.306256 
L 196.122045 337.463129 
L 196.882955 339.306256 
L 198.404773 344.703977 
L 199.165682 339.701202 
L 201.448409 339.83286 
L 202.209318 339.701202 
L 202.970227 335.225044 
L 203.731136 336.409909 
L 204.492045 339.174598 
L 207.535682 332.592012 
L 208.296591 337.199827 
L 209.0575 336.804856 
L 209.818409 338.384692 
L 212.101136 335.093399 
L 212.862045 330.88053 
L 213.622955 332.855314 
L 214.383864 332.723656 
L 215.144773 335.488346 
L 217.4275 337.726431 
L 218.188409 336.541566 
L 218.949318 332.592012 
L 219.710227 335.620003 
L 220.471136 335.356701 
L 222.753864 342.334234 
L 223.514773 343.387455 
L 224.275682 342.597549 
L 225.7975 339.174598 
L 228.841136 344.309031 
L 229.602045 344.57232 
L 230.362955 349.180148 
L 231.123864 352.866388 
L 233.406591 347.731981 
L 234.928409 341.412684 
L 235.689318 345.230581 
L 236.450227 345.098924 
L 238.732955 346.678748 
L 239.493864 344.309031 
L 240.254773 337.858089 
L 241.015682 340.754423 
L 241.776591 337.199827 
L 244.059318 335.751648 
L 244.820227 337.06817 
L 245.581136 337.06817 
L 246.342045 340.227819 
L 247.102955 338.384692 
L 249.385682 337.199827 
L 250.146591 339.701202 
L 250.9075 339.042941 
L 251.668409 340.227819 
L 254.712045 338.12139 
L 255.472955 337.989733 
L 256.233864 340.359463 
L 256.994773 342.334234 
L 257.755682 341.939288 
L 260.038409 339.569545 
L 260.799318 333.513562 
L 261.560227 336.146607 
L 262.321136 340.227819 
L 263.082045 339.701202 
L 265.364773 341.675986 
L 266.886591 336.936513 
L 267.6475 336.278252 
L 268.408409 338.647994 
L 270.691136 339.83286 
L 271.452045 339.569545 
L 272.212955 339.964517 
L 272.973864 345.757198 
L 273.734773 348.258585 
L 276.0175 345.230581 
L 277.539318 344.703977 
L 278.300227 341.807631 
L 281.343864 340.754423 
L 282.104773 338.911296 
L 282.865682 338.384692 
L 283.626591 336.278252 
L 284.3875 334.961742 
L 286.670227 332.197052 
L 287.431136 327.984196 
L 288.192045 331.802106 
L 288.952955 330.353926 
L 289.713864 330.090624 
L 291.996591 333.513562 
L 292.7575 326.536016 
L 293.518409 327.194277 
L 294.279318 328.115841 
L 297.322955 324.692903 
L 298.083864 326.799331 
L 298.844773 323.244723 
L 299.605682 326.667674 
L 300.366591 331.012187 
L 302.649318 331.012187 
L 303.410227 332.460354 
L 304.171136 312.05432 
L 305.692955 314.424051 
L 307.975682 319.295168 
L 309.4975 313.107541 
L 310.258409 315.345626 
L 311.019318 319.163524 
L 313.302045 315.740573 
L 314.062955 311.396059 
L 314.823864 310.606141 
L 315.584773 307.446505 
L 316.345682 307.18319 
L 318.628409 304.681815 
L 319.389318 311.001113 
L 320.150227 302.707044 
L 320.911136 301.522179 
L 321.672045 303.49695 
L 323.954773 307.446505 
L 324.715682 312.712569 
L 325.476591 310.606141 
L 326.2375 304.155211 
L 326.998409 303.101991 
L 329.281136 305.471734 
L 330.042045 305.208419 
L 330.802955 310.211194 
L 331.563864 312.05432 
L 332.324773 307.314847 
L 336.129318 310.737798 
L 336.890227 313.37083 
L 337.651136 309.552933 
L 341.455682 303.628607 
L 342.216591 301.12722 
L 342.9775 296.914351 
L 345.260227 302.707044 
L 346.021136 300.205644 
L 346.782045 301.522179 
L 347.542955 302.048783 
L 348.303864 297.835927 
L 350.586591 295.071237 
L 351.3475 295.9928 
L 352.108409 289.015254 
L 352.869318 285.723948 
L 353.630227 284.012479 
L 355.912955 281.774394 
L 356.673864 283.090904 
L 357.434773 276.771619 
L 358.195682 271.637199 
L 361.239318 267.292686 
L 362.000227 268.609208 
L 362.761136 260.710099 
L 364.282955 266.371122 
L 366.565682 264.396339 
L 367.326591 264.922968 
L 368.0875 277.42988 
L 368.848409 273.480326 
L 369.609318 274.533546 
L 371.892045 273.217024 
L 372.652955 270.583979 
L 373.413864 272.822064 
L 374.174773 271.24224 
L 374.935682 267.029396 
L 377.218409 264.659653 
L 377.979318 267.424343 
L 378.740227 274.796848 
L 379.501136 278.878047 
L 380.262045 275.06015 
L 382.544773 278.219786 
L 383.305682 281.774394 
L 384.066591 280.984475 
L 384.8275 285.328989 
L 385.588409 276.245015 
L 390.153864 290.068462 
L 390.914773 289.015254 
L 393.1975 287.698732 
L 394.719318 276.245015 
L 395.480227 272.558762 
L 396.241136 266.634424 
L 398.523864 257.418793 
L 399.284773 264.791311 
L 400.045682 264.922968 
L 401.5675 274.00693 
L 403.850227 272.032159 
L 404.611136 263.079829 
L 405.372045 269.662428 
L 406.132955 258.472013 
L 406.893864 252.547675 
L 409.176591 248.466476 
L 409.9375 253.337594 
L 410.698409 256.760532 
L 411.459318 254.390814 
L 412.220227 243.595346 
L 414.502955 235.037988 
L 415.263864 239.645804 
L 416.024773 236.881114 
L 416.785682 239.777448 
L 417.546591 229.903568 
L 419.829318 226.085646 
L 420.590227 206.074571 
L 421.351136 210.682387 
L 422.112045 222.004459 
L 425.155682 212.130554 
L 425.916591 202.519988 
L 426.6775 211.735595 
L 427.438409 192.382794 
L 428.199318 207.786053 
L 430.482045 207.391094 
L 431.242955 201.861715 
L 432.764773 205.123826 
L 433.525682 191.957146 
L 435.808409 194.853832 
L 436.569318 201.832156 
L 437.330227 196.697159 
L 438.091136 188.270492 
L 438.852045 198.408816 
L 441.134773 202.227166 
L 441.895682 180.502148 
L 443.4175 163.385449 
L 444.178409 151.798781 
L 446.461136 146.005435 
L 447.222045 166.677119 
L 447.982955 163.912128 
L 448.743864 168.915456 
L 449.504773 156.407124 
L 451.7875 165.755455 
L 452.548409 164.570452 
L 453.309318 183.398809 
L 454.070227 168.915456 
L 454.831136 174.313792 
L 457.113864 182.740485 
L 457.874773 167.598783 
L 458.635682 171.548802 
L 459.396591 172.602135 
L 460.1575 177.078808 
L 462.440227 172.207126 
L 463.201136 175.103811 
L 463.962045 170.758808 
L 464.722955 178.395481 
L 465.483864 183.925488 
L 467.766591 187.217158 
L 468.5275 191.035482 
L 469.288409 182.345475 
L 470.810227 171.548802 
L 473.092955 175.235456 
L 473.853864 173.787138 
L 474.614773 182.477145 
L 475.375682 184.452142 
L 476.136591 182.740485 
L 478.419318 167.335468 
L 479.180227 157.987112 
L 479.941136 157.987112 
L 480.702045 152.983785 
L 481.462955 142.318755 
L 483.745682 139.422095 
L 485.2675 128.098742 
L 486.028409 140.870438 
L 486.789318 148.112102 
L 489.072045 138.105422 
L 489.832955 148.112102 
L 490.593864 152.852115 
L 491.354773 148.770451 
L 492.115682 147.453778 
L 494.398409 134.945422 
L 495.159318 124.807072 
L 495.920227 120.593738 
L 496.681136 127.835427 
L 497.442045 130.073764 
L 499.724773 132.180431 
L 500.485682 129.02043 
L 501.246591 134.287098 
L 502.0075 118.487071 
L 502.768409 116.380404 
L 505.051136 121.647071 
L 505.812045 109.00707 
L 506.572955 110.060404 
L 507.333864 109.27041 
L 508.094773 101.107057 
L 510.3775 80.303703 
L 511.138409 93.865393 
L 511.899318 102.028721 
L 512.660227 85.307031 
L 513.421136 78.98703 
L 515.703864 81.620377 
L 516.464773 85.043716 
L 517.225682 77.012033 
L 517.986591 79.51371 
L 518.7475 98.078727 
L 521.030227 97.025393 
L 521.791136 95.445381 
L 523.312955 74.378687 
L 524.073864 71.877036 
L 526.356591 78.197037 
L 527.1175 80.962027 
L 527.878409 68.453696 
L 528.639318 63.977023 
L 529.400227 66.347029 
L 531.682955 80.303703 
L 532.443864 80.303703 
L 533.204773 85.570371 
L 533.965682 78.98703 
L 534.726591 69.37536 
L 537.009318 70.560363 
L 537.770227 73.062039 
L 538.531136 74.247043 
L 539.292045 71.877036 
L 540.052955 55.287016 
L 542.335682 57.920337 
L 543.096591 29.21697 
L 543.8575 25.003636 
L 545.379318 34.878647 
L 547.662045 30.401973 
L 548.422955 28.295306 
L 549.183864 47.387003 
L 549.944773 42.120336 
L 550.705682 46.728679 
L 552.988409 52.91701 
L 553.749318 58.578686 
L 554.510227 74.378687 
L 555.271136 78.328706 
L 556.032045 75.037036 
L 558.314773 80.303703 
L 559.075682 78.98703 
L 559.836591 75.82703 
L 560.5975 78.460376 
L 561.358409 79.777024 
L 563.641136 69.11202 
L 564.402045 63.845353 
L 565.923864 78.98703 
L 566.684773 88.862041 
L 568.9675 83.727043 
L 569.728409 86.623704 
L 570.489318 81.225367 
L 571.250227 89.652034 
L 572.011136 89.25705 
L 574.293864 77.670357 
L 575.054773 92.54872 
L 575.815682 111.903731 
L 576.576591 104.662067 
L 577.3375 98.868721 
L 579.620227 95.97206 
L 580.381136 99.790384 
L 581.142045 107.690397 
L 581.902955 116.775414 
L 584.946591 110.060404 
L 585.7075 113.220404 
L 587.229318 124.280418 
L 587.990227 127.703757 
L 590.272955 95.577051 
L 591.033864 104.530397 
L 591.794773 98.737051 
L 592.555682 84.912047 
L 593.316591 87.150383 
L 595.599318 90.837038 
L 596.360227 93.207044 
L 597.121136 103.608734 
L 597.882045 99.3954 
L 598.642955 100.712048 
L 600.925682 112.825395 
L 602.4475 127.045408 
L 603.208409 129.678754 
L 603.969318 124.543757 
L 606.252045 126.387084 
L 607.012955 133.102094 
L 607.773864 121.383757 
L 608.534773 116.512074 
L 609.295682 119.803744 
L 611.578409 115.590411 
L 613.861136 113.352074 
L 614.622045 114.537077 
L 616.904773 122.43709 
L 619.1875 104.003718 
L 619.948409 100.448733 
L 622.231136 109.00707 
L 622.992045 102.68707 
L 623.752955 93.865393 
L 624.513864 89.38872 
L 625.274773 91.363717 
L 627.5575 83.858713 
L 628.318409 84.253698 
L 629.079318 85.438701 
L 629.840227 82.80538 
L 630.601136 70.428693 
L 632.883864 69.50703 
L 633.644773 65.95202 
L 634.405682 66.478699 
L 635.166591 69.50703 
L 635.9275 76.353709 
L 638.210227 102.68707 
L 638.971136 90.968707 
L 639.732045 101.502067 
L 640.492955 107.295388 
L 641.253864 99.00039 
L 643.536591 91.890371 
L 644.2975 100.317063 
L 645.058409 103.740403 
L 645.819318 109.402055 
L 646.580227 124.148748 
L 648.862955 126.255415 
L 649.623864 120.330424 
L 650.384773 122.305421 
L 651.145682 115.985395 
L 651.906591 122.700405 
L 654.189318 122.305421 
L 654.950227 123.753738 
L 655.711136 109.27041 
L 656.472045 122.568735 
L 657.232955 120.067084 
L 661.798409 164.702122 
L 662.559318 163.253779 
L 664.842045 153.773778 
L 665.602955 163.517119 
L 666.363864 150.087099 
L 667.124773 169.837119 
L 667.885682 185.505476 
L 670.168409 225.137186 
L 670.929318 188.797146 
L 672.451136 241.595537 
L 672.451136 241.595537 
" style="fill:none;stroke:#d62728;stroke-linecap:square;stroke-width:1.5;"/>
   </g>
   <g id="line2d_21">
    <path clip-path="url(#pff8aa3476d)" d="M 63.723864 329.87991 
L 64.484773 331.889249 
L 65.245682 333.157839 
L 66.006591 332.62865 
L 68.289318 331.571771 
L 69.050227 329.457312 
L 69.811136 330.514866 
L 70.572045 327.977107 
L 71.332955 326.973112 
L 73.615682 326.074277 
L 74.376591 324.43534 
L 75.1375 325.228339 
L 75.898409 327.131142 
L 76.659318 325.281291 
L 78.942045 326.814353 
L 79.702955 330.72582 
L 80.463864 330.514866 
L 81.224773 330.514866 
L 81.985682 329.93282 
L 84.268409 334.16178 
L 85.029318 335.272285 
L 85.790227 336.857609 
L 86.551136 337.915204 
L 87.312045 341.879582 
L 89.594773 343.201055 
L 90.355682 339.606377 
L 91.116591 341.086569 
L 91.8775 344.628336 
L 92.638409 346.267274 
L 97.203864 338.390752 
L 97.964773 341.245328 
L 100.2475 340.716855 
L 101.008409 340.822717 
L 101.769318 341.404033 
L 102.530227 340.611047 
L 103.291136 336.06461 
L 105.573864 334.42636 
L 107.095682 338.390752 
L 110.900227 341.826671 
L 111.661136 342.038328 
L 113.182955 343.465636 
L 113.943864 340.558136 
L 116.226591 341.086569 
L 116.9875 342.144176 
L 117.748409 340.293528 
L 118.509318 340.02969 
L 119.270227 339.500528 
L 121.552955 339.448333 
L 122.313864 340.399363 
L 123.074773 339.765109 
L 123.835682 339.500528 
L 124.596591 340.505198 
L 126.879318 342.264332 
L 127.640227 344.385082 
L 129.162045 342.264332 
L 132.205682 343.802011 
L 133.7275 343.748924 
L 134.488409 344.22589 
L 135.249318 346.77052 
L 137.532045 349.209732 
L 138.292955 348.148993 
L 139.053864 347.565909 
L 139.814773 346.240521 
L 140.575682 345.233557 
L 142.858409 344.70283 
L 143.619318 344.172818 
L 144.380227 344.491254 
L 145.141136 343.165867 
L 145.902045 340.673595 
L 148.184773 341.151222 
L 148.945682 341.73432 
L 149.706591 344.278936 
L 150.4675 338.627258 
L 151.228409 338.558366 
L 153.511136 339.592191 
L 155.032955 338.006961 
L 156.554773 343.589733 
L 158.8375 345.519545 
L 159.598409 345.933112 
L 160.359318 345.381734 
L 161.120227 339.798948 
L 161.881136 339.523258 
L 164.163864 338.834042 
L 164.924773 333.940513 
L 165.685682 330.632187 
L 167.2075 336.00823 
L 169.490227 338.558366 
L 170.251136 337.80019 
L 171.012045 337.938028 
L 171.772955 332.424188 
L 172.533864 333.251269 
L 175.5775 342.41803 
L 176.338409 343.727585 
L 177.860227 344.623571 
L 180.142955 346.346653 
L 180.903864 349.10358 
L 181.664773 344.968193 
L 182.425682 348.896803 
L 183.186591 348.414357 
L 185.469318 351.378034 
L 186.230227 352.618663 
L 186.991136 354.548508 
L 187.752045 357.029732 
L 188.512955 353.376812 
L 190.795682 356.891881 
L 191.556591 357.305421 
L 192.3175 355.995887 
L 193.078409 355.513427 
L 193.839318 355.720198 
L 196.882955 352.13621 
L 197.643864 353.790345 
L 198.404773 351.102351 
L 199.165682 350.137432 
L 201.448409 353.943058 
L 202.209318 351.593996 
L 202.970227 352.284906 
L 203.731136 351.732192 
L 204.492045 349.244941 
L 207.535682 344.685053 
L 208.296591 345.997726 
L 209.0575 344.339581 
L 212.101136 341.645088 
L 212.862045 336.46337 
L 214.383864 332.387069 
L 215.144773 333.285243 
L 217.4275 331.394939 
L 218.188409 330.284596 
L 218.949318 330.978564 
L 219.710227 333.268641 
L 220.471136 334.101391 
L 222.753864 333.06044 
L 223.514773 333.685016 
L 224.275682 335.072965 
L 225.036591 337.501811 
L 225.7975 336.322064 
L 228.080227 335.489327 
L 228.841136 333.546233 
L 229.602045 336.322064 
L 230.362955 336.807844 
L 231.123864 341.873765 
L 233.406591 339.791889 
L 234.1675 340.208264 
L 235.689318 339.306081 
L 236.450227 340.694017 
L 238.732955 341.110406 
L 239.493864 340.694017 
L 240.254773 338.126374 
L 241.015682 338.056969 
L 241.776591 339.444891 
L 244.059318 337.224232 
L 244.820227 333.823799 
L 245.581136 332.019502 
L 246.342045 331.394939 
L 247.102955 329.313049 
L 249.385682 331.672518 
L 250.146591 332.713456 
L 250.9075 333.268641 
L 251.668409 326.884176 
L 254.712045 326.467787 
L 255.472955 329.590615 
L 256.233864 331.672518 
L 256.994773 332.08888 
L 257.755682 328.896674 
L 260.038409 328.202706 
L 261.560227 330.353987 
L 262.321136 329.660033 
L 263.082045 327.161741 
L 265.364773 328.001119 
L 266.125682 326.471324 
L 266.886591 325.289187 
L 267.6475 323.759378 
L 268.408409 324.802435 
L 270.691136 326.610376 
L 271.452045 324.871975 
L 272.973864 329.252769 
L 273.734773 329.322322 
L 276.0175 329.670008 
L 276.778409 334.885253 
L 277.539318 334.189882 
L 278.300227 333.981262 
L 281.343864 334.885253 
L 282.104773 331.756095 
L 282.865682 332.451453 
L 283.626591 334.120342 
L 284.3875 332.799166 
L 286.670227 332.451453 
L 287.431136 328.626964 
L 288.192045 327.583894 
L 288.952955 329.948154 
L 289.713864 336.415076 
L 291.996591 340.448171 
L 292.7575 334.885253 
L 293.518409 336.971354 
L 294.279318 335.580598 
L 297.322955 332.034255 
L 298.083864 332.103794 
L 298.844773 330.991211 
L 299.605682 332.799166 
L 300.366591 332.799166 
L 302.649318 333.84221 
L 303.410227 336.06739 
L 304.171136 334.050816 
L 305.692955 333.146865 
L 309.4975 337.249486 
L 310.258409 339.613747 
L 311.019318 339.196521 
L 313.302045 338.779309 
L 314.062955 336.623682 
L 315.584773 335.511085 
L 316.345682 338.223031 
L 318.628409 337.249486 
L 319.389318 336.693195 
L 320.150227 338.014425 
L 320.911136 338.153464 
L 321.672045 339.126981 
L 323.954773 342.464772 
L 324.715682 341.143556 
L 325.476591 341.838941 
L 326.2375 341.352162 
L 326.998409 341.491241 
L 329.281136 344.48132 
L 330.042045 345.107151 
L 330.802955 343.229657 
L 331.563864 342.186599 
L 332.324773 341.560795 
L 336.129318 343.573509 
L 336.890227 342.666832 
L 337.651136 339.807343 
L 341.455682 336.738641 
L 342.216591 333.879166 
L 342.9775 332.414551 
L 345.260227 334.437118 
L 346.021136 335.483266 
L 346.782045 334.088393 
L 347.542955 333.111974 
L 348.303864 331.786843 
L 350.586591 330.322241 
L 351.3475 332.90276 
L 352.108409 330.18277 
L 353.630227 331.717114 
L 355.912955 330.880179 
L 356.673864 332.693506 
L 357.434773 331.228904 
L 358.195682 330.880179 
L 362.000227 328.160189 
L 362.761136 326.69556 
L 363.522045 330.740695 
L 364.282955 325.230958 
L 366.565682 324.742748 
L 367.326591 322.30174 
L 368.0875 327.253525 
L 369.609318 329.624804 
L 372.652955 330.531468 
L 373.413864 331.996083 
L 374.174773 330.740695 
L 377.218409 329.066839 
L 377.979318 326.904827 
L 378.740227 331.089406 
L 379.501136 330.461726 
L 380.262045 329.276093 
L 382.544773 333.39097 
L 383.305682 334.297606 
L 384.066591 332.554035 
L 384.8275 333.669926 
L 385.588409 334.227864 
L 390.153864 332.972476 
L 390.914773 331.019664 
L 393.1975 329.764289 
L 393.958409 329.555062 
L 394.719318 328.369416 
L 395.480227 328.99711 
L 396.241136 327.811477 
L 398.523864 328.99711 
L 399.284773 328.99711 
L 400.045682 331.298647 
L 400.806591 332.693506 
L 401.5675 335.064799 
L 404.611136 336.138712 
L 405.372045 340.124227 
L 406.132955 335.928958 
L 406.893864 336.278547 
L 409.176591 335.789096 
L 409.9375 334.530508 
L 410.698409 332.992236 
L 411.459318 330.614897 
L 412.220227 328.796954 
L 414.502955 331.03443 
L 415.263864 332.712552 
L 416.024773 333.971139 
L 416.785682 334.670371 
L 417.546591 334.60044 
L 419.829318 333.481688 
L 420.590227 331.03443 
L 421.351136 332.712552 
L 422.112045 331.873484 
L 425.155682 331.03443 
L 425.916591 327.538366 
L 426.6775 330.684828 
L 427.438409 328.936803 
L 428.199318 328.727022 
L 430.482045 331.03443 
L 431.242955 332.2231 
L 432.764773 330.894595 
L 433.525682 331.733662 
L 435.808409 333.761386 
L 436.569318 335.299644 
L 437.330227 332.013333 
L 438.091136 332.432853 
L 438.852045 333.271921 
L 441.134773 336.278547 
L 441.895682 336.208629 
L 443.4175 336.278547 
L 444.178409 335.369576 
L 446.461136 332.922332 
L 447.222045 330.684828 
L 447.982955 330.894595 
L 449.504773 334.950042 
L 451.7875 334.250824 
L 452.548409 330.335212 
L 453.309318 328.657105 
L 454.070227 328.866858 
L 454.831136 328.936803 
L 457.113864 328.307502 
L 458.635682 330.055541 
L 459.396591 330.055541 
L 460.1575 327.887968 
L 462.440227 327.678202 
L 463.201136 326.699285 
L 464.722955 322.294222 
L 465.483864 322.783687 
L 467.766591 320.196594 
L 468.5275 317.819255 
L 469.288409 314.113424 
L 470.810227 312.295454 
L 473.092955 311.246633 
L 473.853864 314.113424 
L 474.614773 314.253246 
L 475.375682 312.784905 
L 476.136591 312.784905 
L 478.419318 310.943098 
L 479.180227 311.083217 
L 479.941136 310.10233 
L 480.702045 306.599233 
L 481.462955 305.197989 
L 483.745682 304.287169 
L 485.2675 296.159942 
L 486.028409 296.790498 
L 486.789318 300.363688 
L 489.072045 305.197989 
L 489.832955 304.427301 
L 490.593864 304.287169 
L 491.354773 302.745806 
L 492.115682 302.465554 
L 494.398409 303.796732 
L 495.159318 303.936864 
L 495.920227 300.994257 
L 496.681136 302.465554 
L 497.442045 298.471994 
L 499.724773 296.298077 
L 500.485682 293.3442 
L 501.246591 294.610143 
L 502.0075 297.353026 
L 502.768409 295.172792 
L 505.051136 298.267342 
L 505.812045 294.047494 
L 506.572955 291.163953 
L 507.333864 290.249663 
L 508.094773 292.078242 
L 510.3775 295.102456 
L 511.138409 291.374934 
L 511.899318 299.744281 
L 512.660227 304.948728 
L 513.421136 301.783856 
L 515.703864 303.612435 
L 516.464773 303.190458 
L 517.225682 299.955276 
L 517.986591 302.276182 
L 518.7475 305.863032 
L 521.030227 310.575179 
L 521.791136 309.660876 
L 522.552045 306.777308 
L 523.312955 304.597088 
L 526.356591 301.924515 
L 527.1175 306.074013 
L 527.878409 302.97949 
L 528.639318 301.924515 
L 529.400227 301.502524 
L 531.682955 303.331131 
L 532.443864 300.869553 
L 533.204773 299.814604 
L 533.965682 300.025599 
L 534.726591 295.313451 
L 537.009318 298.689306 
L 537.770227 294.750816 
L 538.531136 293.3442 
L 539.292045 295.524433 
L 540.052955 290.530981 
L 542.335682 291.651933 
L 543.096591 293.906295 
L 543.8575 291.370156 
L 544.618409 291.370156 
L 545.379318 292.145083 
L 547.662045 291.4406 
L 548.422955 291.4406 
L 549.183864 294.258543 
L 549.944773 295.315273 
L 550.705682 295.808396 
L 552.988409 301.162492 
L 553.749318 301.444296 
L 554.510227 301.02159 
L 555.271136 300.317121 
L 556.032045 295.385718 
L 559.075682 294.610764 
L 559.836591 290.454301 
L 560.5975 291.370156 
L 561.358409 290.524758 
L 563.641136 289.961178 
L 564.402045 287.847717 
L 565.162955 280.098371 
L 565.923864 278.266714 
L 566.684773 283.12766 
L 568.9675 281.930041 
L 569.728409 282.35272 
L 570.489318 280.027927 
L 571.250227 282.493622 
L 572.011136 279.816581 
L 574.293864 278.055382 
L 575.054773 273.758003 
L 575.815682 270.728714 
L 576.576591 264.247444 
L 577.3375 263.190727 
L 579.620227 257.202593 
L 580.381136 261.359057 
L 581.142045 256.357223 
L 581.902955 256.004975 
L 584.946591 255.723185 
L 585.7075 256.427667 
L 587.229318 258.682029 
L 587.990227 257.41394 
L 590.272955 257.132149 
L 591.033864 260.443242 
L 592.555682 254.807343 
L 593.316591 247.832936 
L 595.599318 249.664607 
L 596.360227 245.789947 
L 597.882045 231.277513 
L 598.642955 231.488859 
L 600.925682 237.336105 
L 601.686591 236.913426 
L 602.4475 229.16408 
L 603.208409 224.021344 
L 603.969318 222.260118 
L 606.252045 226.205208 
L 607.012955 222.894156 
L 607.773864 223.316821 
L 608.534773 225.430309 
L 609.295682 223.387306 
L 611.578409 223.822902 
L 613.861136 216.346936 
L 614.622045 212.891055 
L 616.904773 217.686955 
L 619.1875 213.596333 
L 619.948409 216.770087 
L 622.231136 216.135347 
L 622.992045 214.231073 
L 623.752955 223.61134 
L 624.513864 227.137733 
L 625.274773 222.341832 
L 627.5575 220.084919 
L 628.318409 215.289018 
L 629.079318 213.666872 
L 629.840227 209.153072 
L 630.601136 202.593948 
L 632.883864 194.624266 
L 633.644773 197.727508 
L 634.405682 187.783041 
L 635.166591 182.493423 
L 635.9275 169.93943 
L 638.210227 173.183723 
L 638.971136 165.848808 
L 639.732045 163.168743 
L 641.253864 184.186108 
L 643.536591 175.299586 
L 644.2975 176.357477 
L 645.058409 170.362608 
L 645.819318 159.994962 
L 646.580227 172.266882 
L 648.862955 169.234151 
L 650.384773 147.86412 
L 651.145682 140.740794 
L 651.906591 140.740794 
L 654.189318 139.259698 
L 654.950227 146.87674 
L 655.711136 117.819155 
L 656.472045 127.199367 
L 657.232955 110.907391 
L 662.559318 156.779932 
L 664.842045 129.605592 
L 665.602955 123.024331 
L 666.363864 119.202933 
L 667.124773 131.657827 
L 667.885682 150.623254 
L 670.168409 180.840556 
L 670.929318 165.554991 
L 671.690227 184.732709 
L 672.451136 228.60795 
L 672.451136 228.60795 
" style="fill:none;stroke:#9467bd;stroke-linecap:square;stroke-width:1.5;"/>
   </g>
   <g id="patch_3">
    <path d="M 33.2875 398.88 
L 33.2875 7.2 
" style="fill:none;stroke:#000000;stroke-linecap:square;stroke-linejoin:miter;stroke-width:0.8;"/>
   </g>
   <g id="patch_4">
    <path d="M 702.8875 398.88 
L 702.8875 7.2 
" style="fill:none;stroke:#000000;stroke-linecap:square;stroke-linejoin:miter;stroke-width:0.8;"/>
   </g>
   <g id="patch_5">
    <path d="M 33.2875 398.88 
L 702.8875 398.88 
" style="fill:none;stroke:#000000;stroke-linecap:square;stroke-linejoin:miter;stroke-width:0.8;"/>
   </g>
   <g id="patch_6">
    <path d="M 33.2875 7.2 
L 702.8875 7.2 
" style="fill:none;stroke:#000000;stroke-linecap:square;stroke-linejoin:miter;stroke-width:0.8;"/>
   </g>
   <g id="legend_1">
    <g id="patch_7">
     <path d="M 40.2875 88.590625 
L 125.292188 88.590625 
Q 127.292188 88.590625 127.292188 86.590625 
L 127.292188 14.2 
Q 127.292188 12.2 125.292188 12.2 
L 40.2875 12.2 
Q 38.2875 12.2 38.2875 14.2 
L 38.2875 86.590625 
Q 38.2875 88.590625 40.2875 88.590625 
z
" style="fill:#ffffff;opacity:0.8;stroke:#cccccc;stroke-linejoin:miter;"/>
    </g>
    <g id="line2d_22">
     <path d="M 42.2875 20.298437 
L 62.2875 20.298437 
" style="fill:none;stroke:#1f77b4;stroke-linecap:square;stroke-width:1.5;"/>
    </g>
    <g id="line2d_23"/>
    <g id="text_18">
     <!-- GOLL4.SA -->
     <defs>
      <path d="M 59.515625 10.40625 
L 59.515625 29.984375 
L 43.40625 29.984375 
L 43.40625 38.09375 
L 69.28125 38.09375 
L 69.28125 6.78125 
Q 63.578125 2.734375 56.6875 0.65625 
Q 49.8125 -1.421875 42 -1.421875 
Q 24.90625 -1.421875 15.25 8.5625 
Q 5.609375 18.5625 5.609375 36.375 
Q 5.609375 54.25 15.25 64.234375 
Q 24.90625 74.21875 42 74.21875 
Q 49.125 74.21875 55.546875 72.453125 
Q 61.96875 70.703125 67.390625 67.28125 
L 67.390625 56.78125 
Q 61.921875 61.421875 55.765625 63.765625 
Q 49.609375 66.109375 42.828125 66.109375 
Q 29.4375 66.109375 22.71875 58.640625 
Q 16.015625 51.171875 16.015625 36.375 
Q 16.015625 21.625 22.71875 14.15625 
Q 29.4375 6.6875 42.828125 6.6875 
Q 48.046875 6.6875 52.140625 7.59375 
Q 56.25 8.5 59.515625 10.40625 
z
" id="DejaVuSans-71"/>
      <path d="M 39.40625 66.21875 
Q 28.65625 66.21875 22.328125 58.203125 
Q 16.015625 50.203125 16.015625 36.375 
Q 16.015625 22.609375 22.328125 14.59375 
Q 28.65625 6.59375 39.40625 6.59375 
Q 50.140625 6.59375 56.421875 14.59375 
Q 62.703125 22.609375 62.703125 36.375 
Q 62.703125 50.203125 56.421875 58.203125 
Q 50.140625 66.21875 39.40625 66.21875 
z
M 39.40625 74.21875 
Q 54.734375 74.21875 63.90625 63.9375 
Q 73.09375 53.65625 73.09375 36.375 
Q 73.09375 19.140625 63.90625 8.859375 
Q 54.734375 -1.421875 39.40625 -1.421875 
Q 24.03125 -1.421875 14.8125 8.828125 
Q 5.609375 19.09375 5.609375 36.375 
Q 5.609375 53.65625 14.8125 63.9375 
Q 24.03125 74.21875 39.40625 74.21875 
z
" id="DejaVuSans-79"/>
      <path d="M 9.8125 72.90625 
L 19.671875 72.90625 
L 19.671875 8.296875 
L 55.171875 8.296875 
L 55.171875 0 
L 9.8125 0 
z
" id="DejaVuSans-76"/>
      <path d="M 10.6875 12.40625 
L 21 12.40625 
L 21 0 
L 10.6875 0 
z
" id="DejaVuSans-46"/>
      <path d="M 53.515625 70.515625 
L 53.515625 60.890625 
Q 47.90625 63.578125 42.921875 64.890625 
Q 37.9375 66.21875 33.296875 66.21875 
Q 25.25 66.21875 20.875 63.09375 
Q 16.5 59.96875 16.5 54.203125 
Q 16.5 49.359375 19.40625 46.890625 
Q 22.3125 44.4375 30.421875 42.921875 
L 36.375 41.703125 
Q 47.40625 39.59375 52.65625 34.296875 
Q 57.90625 29 57.90625 20.125 
Q 57.90625 9.515625 50.796875 4.046875 
Q 43.703125 -1.421875 29.984375 -1.421875 
Q 24.8125 -1.421875 18.96875 -0.25 
Q 13.140625 0.921875 6.890625 3.21875 
L 6.890625 13.375 
Q 12.890625 10.015625 18.65625 8.296875 
Q 24.421875 6.59375 29.984375 6.59375 
Q 38.421875 6.59375 43.015625 9.90625 
Q 47.609375 13.234375 47.609375 19.390625 
Q 47.609375 24.75 44.3125 27.78125 
Q 41.015625 30.8125 33.5 32.328125 
L 27.484375 33.5 
Q 16.453125 35.6875 11.515625 40.375 
Q 6.59375 45.0625 6.59375 53.421875 
Q 6.59375 63.09375 13.40625 68.65625 
Q 20.21875 74.21875 32.171875 74.21875 
Q 37.3125 74.21875 42.625 73.28125 
Q 47.953125 72.359375 53.515625 70.515625 
z
" id="DejaVuSans-83"/>
      <path d="M 34.1875 63.1875 
L 20.796875 26.90625 
L 47.609375 26.90625 
z
M 28.609375 72.90625 
L 39.796875 72.90625 
L 67.578125 0 
L 57.328125 0 
L 50.6875 18.703125 
L 17.828125 18.703125 
L 11.1875 0 
L 0.78125 0 
z
" id="DejaVuSans-65"/>
     </defs>
     <g transform="translate(70.2875 23.798437)scale(0.1 -0.1)">
      <use xlink:href="#DejaVuSans-71"/>
      <use x="77.490234" xlink:href="#DejaVuSans-79"/>
      <use x="156.201172" xlink:href="#DejaVuSans-76"/>
      <use x="211.914062" xlink:href="#DejaVuSans-76"/>
      <use x="267.626953" xlink:href="#DejaVuSans-52"/>
      <use x="331.25" xlink:href="#DejaVuSans-46"/>
      <use x="363.037109" xlink:href="#DejaVuSans-83"/>
      <use x="426.529297" xlink:href="#DejaVuSans-65"/>
     </g>
    </g>
    <g id="line2d_24">
     <path d="M 42.2875 34.976562 
L 62.2875 34.976562 
" style="fill:none;stroke:#ff7f0e;stroke-linecap:square;stroke-width:1.5;"/>
    </g>
    <g id="line2d_25"/>
    <g id="text_19">
     <!-- PETR4.SA -->
     <defs>
      <path d="M 19.671875 64.796875 
L 19.671875 37.40625 
L 32.078125 37.40625 
Q 38.96875 37.40625 42.71875 40.96875 
Q 46.484375 44.53125 46.484375 51.125 
Q 46.484375 57.671875 42.71875 61.234375 
Q 38.96875 64.796875 32.078125 64.796875 
z
M 9.8125 72.90625 
L 32.078125 72.90625 
Q 44.34375 72.90625 50.609375 67.359375 
Q 56.890625 61.8125 56.890625 51.125 
Q 56.890625 40.328125 50.609375 34.8125 
Q 44.34375 29.296875 32.078125 29.296875 
L 19.671875 29.296875 
L 19.671875 0 
L 9.8125 0 
z
" id="DejaVuSans-80"/>
      <path d="M 9.8125 72.90625 
L 55.90625 72.90625 
L 55.90625 64.59375 
L 19.671875 64.59375 
L 19.671875 43.015625 
L 54.390625 43.015625 
L 54.390625 34.71875 
L 19.671875 34.71875 
L 19.671875 8.296875 
L 56.78125 8.296875 
L 56.78125 0 
L 9.8125 0 
z
" id="DejaVuSans-69"/>
      <path d="M -0.296875 72.90625 
L 61.375 72.90625 
L 61.375 64.59375 
L 35.5 64.59375 
L 35.5 0 
L 25.59375 0 
L 25.59375 64.59375 
L -0.296875 64.59375 
z
" id="DejaVuSans-84"/>
      <path d="M 44.390625 34.1875 
Q 47.5625 33.109375 50.5625 29.59375 
Q 53.5625 26.078125 56.59375 19.921875 
L 66.609375 0 
L 56 0 
L 46.6875 18.703125 
Q 43.0625 26.03125 39.671875 28.421875 
Q 36.28125 30.8125 30.421875 30.8125 
L 19.671875 30.8125 
L 19.671875 0 
L 9.8125 0 
L 9.8125 72.90625 
L 32.078125 72.90625 
Q 44.578125 72.90625 50.734375 67.671875 
Q 56.890625 62.453125 56.890625 51.90625 
Q 56.890625 45.015625 53.6875 40.46875 
Q 50.484375 35.9375 44.390625 34.1875 
z
M 19.671875 64.796875 
L 19.671875 38.921875 
L 32.078125 38.921875 
Q 39.203125 38.921875 42.84375 42.21875 
Q 46.484375 45.515625 46.484375 51.90625 
Q 46.484375 58.296875 42.84375 61.546875 
Q 39.203125 64.796875 32.078125 64.796875 
z
" id="DejaVuSans-82"/>
     </defs>
     <g transform="translate(70.2875 38.476562)scale(0.1 -0.1)">
      <use xlink:href="#DejaVuSans-80"/>
      <use x="60.302734" xlink:href="#DejaVuSans-69"/>
      <use x="123.486328" xlink:href="#DejaVuSans-84"/>
      <use x="184.570312" xlink:href="#DejaVuSans-82"/>
      <use x="254.052734" xlink:href="#DejaVuSans-52"/>
      <use x="317.675781" xlink:href="#DejaVuSans-46"/>
      <use x="349.462891" xlink:href="#DejaVuSans-83"/>
      <use x="412.955078" xlink:href="#DejaVuSans-65"/>
     </g>
    </g>
    <g id="line2d_26">
     <path d="M 42.2875 49.654687 
L 62.2875 49.654687 
" style="fill:none;stroke:#2ca02c;stroke-linecap:square;stroke-width:1.5;"/>
    </g>
    <g id="line2d_27"/>
    <g id="text_20">
     <!-- GGBR4.SA -->
     <defs>
      <path d="M 19.671875 34.8125 
L 19.671875 8.109375 
L 35.5 8.109375 
Q 43.453125 8.109375 47.28125 11.40625 
Q 51.125 14.703125 51.125 21.484375 
Q 51.125 28.328125 47.28125 31.5625 
Q 43.453125 34.8125 35.5 34.8125 
z
M 19.671875 64.796875 
L 19.671875 42.828125 
L 34.28125 42.828125 
Q 41.5 42.828125 45.03125 45.53125 
Q 48.578125 48.25 48.578125 53.8125 
Q 48.578125 59.328125 45.03125 62.0625 
Q 41.5 64.796875 34.28125 64.796875 
z
M 9.8125 72.90625 
L 35.015625 72.90625 
Q 46.296875 72.90625 52.390625 68.21875 
Q 58.5 63.53125 58.5 54.890625 
Q 58.5 48.1875 55.375 44.234375 
Q 52.25 40.28125 46.1875 39.3125 
Q 53.46875 37.75 57.5 32.78125 
Q 61.53125 27.828125 61.53125 20.40625 
Q 61.53125 10.640625 54.890625 5.3125 
Q 48.25 0 35.984375 0 
L 9.8125 0 
z
" id="DejaVuSans-66"/>
     </defs>
     <g transform="translate(70.2875 53.154687)scale(0.1 -0.1)">
      <use xlink:href="#DejaVuSans-71"/>
      <use x="77.490234" xlink:href="#DejaVuSans-71"/>
      <use x="154.980469" xlink:href="#DejaVuSans-66"/>
      <use x="223.583984" xlink:href="#DejaVuSans-82"/>
      <use x="293.066406" xlink:href="#DejaVuSans-52"/>
      <use x="356.689453" xlink:href="#DejaVuSans-46"/>
      <use x="388.476562" xlink:href="#DejaVuSans-83"/>
      <use x="451.96875" xlink:href="#DejaVuSans-65"/>
     </g>
    </g>
    <g id="line2d_28">
     <path d="M 42.2875 64.332812 
L 62.2875 64.332812 
" style="fill:none;stroke:#d62728;stroke-linecap:square;stroke-width:1.5;"/>
    </g>
    <g id="line2d_29"/>
    <g id="text_21">
     <!-- JBSS3.SA -->
     <defs>
      <path d="M 9.8125 72.90625 
L 19.671875 72.90625 
L 19.671875 5.078125 
Q 19.671875 -8.109375 14.671875 -14.0625 
Q 9.671875 -20.015625 -1.421875 -20.015625 
L -5.171875 -20.015625 
L -5.171875 -11.71875 
L -2.09375 -11.71875 
Q 4.4375 -11.71875 7.125 -8.046875 
Q 9.8125 -4.390625 9.8125 5.078125 
z
" id="DejaVuSans-74"/>
     </defs>
     <g transform="translate(70.2875 67.832812)scale(0.1 -0.1)">
      <use xlink:href="#DejaVuSans-74"/>
      <use x="29.492188" xlink:href="#DejaVuSans-66"/>
      <use x="98.080078" xlink:href="#DejaVuSans-83"/>
      <use x="161.556641" xlink:href="#DejaVuSans-83"/>
      <use x="225.033203" xlink:href="#DejaVuSans-51"/>
      <use x="288.65625" xlink:href="#DejaVuSans-46"/>
      <use x="320.443359" xlink:href="#DejaVuSans-83"/>
      <use x="383.935547" xlink:href="#DejaVuSans-65"/>
     </g>
    </g>
    <g id="line2d_30">
     <path d="M 42.2875 79.010937 
L 62.2875 79.010937 
" style="fill:none;stroke:#9467bd;stroke-linecap:square;stroke-width:1.5;"/>
    </g>
    <g id="line2d_31"/>
    <g id="text_22">
     <!-- WEGE3.SA -->
     <defs>
      <path d="M 3.328125 72.90625 
L 13.28125 72.90625 
L 28.609375 11.28125 
L 43.890625 72.90625 
L 54.984375 72.90625 
L 70.3125 11.28125 
L 85.59375 72.90625 
L 95.609375 72.90625 
L 77.296875 0 
L 64.890625 0 
L 49.515625 63.28125 
L 33.984375 0 
L 21.578125 0 
z
" id="DejaVuSans-87"/>
     </defs>
     <g transform="translate(70.2875 82.510937)scale(0.1 -0.1)">
      <use xlink:href="#DejaVuSans-87"/>
      <use x="98.876953" xlink:href="#DejaVuSans-69"/>
      <use x="162.060547" xlink:href="#DejaVuSans-71"/>
      <use x="239.550781" xlink:href="#DejaVuSans-69"/>
      <use x="302.734375" xlink:href="#DejaVuSans-51"/>
      <use x="366.357422" xlink:href="#DejaVuSans-46"/>
      <use x="398.144531" xlink:href="#DejaVuSans-83"/>
      <use x="461.636719" xlink:href="#DejaVuSans-65"/>
     </g>
    </g>
   </g>
  </g>
 </g>
 <defs>
  <clipPath id="pff8aa3476d">
   <rect height="391.68" width="669.6" x="33.2875" y="7.2"/>
  </clipPath>
 </defs>
</svg>
