<?xml version="1.0" encoding="utf-8" standalone="no"?>
<!DOCTYPE svg PUBLIC "-//W3C//DTD SVG 1.1//EN"
  "http://www.w3.org/Graphics/SVG/1.1/DTD/svg11.dtd">
<!-- Created with matplotlib (https://matplotlib.org/) -->
<svg height="533.99625pt" version="1.1" viewBox="0 0 902.723438 533.99625" width="902.723438pt" xmlns="http://www.w3.org/2000/svg" xmlns:xlink="http://www.w3.org/1999/xlink">
 <defs>
  <style type="text/css">
*{stroke-linecap:butt;stroke-linejoin:round;}
  </style>
 </defs>
 <g id="figure_1">
  <g id="patch_1">
   <path d="M -0 533.99625 
L 902.723438 533.99625 
L 902.723438 0 
L -0 0 
z
" style="fill:none;"/>
  </g>
  <g id="axes_1">
   <g id="patch_2">
    <path d="M 58.523438 496.44 
L 895.523438 496.44 
L 895.523438 7.2 
L 58.523438 7.2 
z
" style="fill:#ffffff;"/>
   </g>
   <g id="PathCollection_1">
    <defs>
     <path d="M 0 -5 
L -1.12257 -1.545085 
L -4.755283 -1.545085 
L -1.816356 0.59017 
L -2.938926 4.045085 
L -0 1.90983 
L 2.938926 4.045085 
L 1.816356 0.59017 
L 4.755283 -1.545085 
L 1.12257 -1.545085 
z
" id="mfc398ba526" style="stroke:#0000ff;"/>
    </defs>
    <g clip-path="url(#pc5710827c9)">
     <use style="fill:#0000ff;stroke:#0000ff;" x="829.300861" xlink:href="#mfc398ba526" y="427.190222"/>
     <use style="fill:#0000ff;stroke:#0000ff;" x="797.351668" xlink:href="#mfc398ba526" y="417.636856"/>
     <use style="fill:#0000ff;stroke:#0000ff;" x="757.614203" xlink:href="#mfc398ba526" y="405.529034"/>
     <use style="fill:#0000ff;stroke:#0000ff;" x="746.796873" xlink:href="#mfc398ba526" y="402.186663"/>
     <use style="fill:#0000ff;stroke:#0000ff;" x="691.088462" xlink:href="#mfc398ba526" y="384.628691"/>
     <use style="fill:#0000ff;stroke:#0000ff;" x="668.007767" xlink:href="#mfc398ba526" y="377.170356"/>
     <use style="fill:#0000ff;stroke:#0000ff;" x="646.094619" xlink:href="#mfc398ba526" y="369.979607"/>
     <use style="fill:#0000ff;stroke:#0000ff;" x="622.510859" xlink:href="#mfc398ba526" y="362.112721"/>
     <use style="fill:#0000ff;stroke:#0000ff;" x="604.589319" xlink:href="#mfc398ba526" y="356.039822"/>
     <use style="fill:#0000ff;stroke:#0000ff;" x="583.210051" xlink:href="#mfc398ba526" y="348.680605"/>
     <use style="fill:#0000ff;stroke:#0000ff;" x="566.615028" xlink:href="#mfc398ba526" y="342.876647"/>
     <use style="fill:#0000ff;stroke:#0000ff;" x="540.835545" xlink:href="#mfc398ba526" y="333.689353"/>
     <use style="fill:#0000ff;stroke:#0000ff;" x="539.578458" xlink:href="#mfc398ba526" y="333.235738"/>
     <use style="fill:#0000ff;stroke:#0000ff;" x="518.402015" xlink:href="#mfc398ba526" y="325.510912"/>
     <use style="fill:#0000ff;stroke:#0000ff;" x="512.410123" xlink:href="#mfc398ba526" y="323.295514"/>
     <use style="fill:#0000ff;stroke:#0000ff;" x="510.328466" xlink:href="#mfc398ba526" y="322.522676"/>
     <use style="fill:#0000ff;stroke:#0000ff;" x="503.321985" xlink:href="#mfc398ba526" y="319.909143"/>
     <use style="fill:#0000ff;stroke:#0000ff;" x="502.264152" xlink:href="#mfc398ba526" y="319.512883"/>
     <use style="fill:#0000ff;stroke:#0000ff;" x="501.016426" xlink:href="#mfc398ba526" y="319.044919"/>
     <use style="fill:#0000ff;stroke:#0000ff;" x="484.201097" xlink:href="#mfc398ba526" y="312.676374"/>
     <use style="fill:#0000ff;stroke:#0000ff;" x="483.432111" xlink:href="#mfc398ba526" y="312.382302"/>
     <use style="fill:#0000ff;stroke:#0000ff;" x="482.964483" xlink:href="#mfc398ba526" y="312.20335"/>
     <use style="fill:#0000ff;stroke:#0000ff;" x="476.339716" xlink:href="#mfc398ba526" y="309.657978"/>
     <use style="fill:#0000ff;stroke:#0000ff;" x="474.41137" xlink:href="#mfc398ba526" y="308.913437"/>
     <use style="fill:#0000ff;stroke:#0000ff;" x="473.486571" xlink:href="#mfc398ba526" y="308.555781"/>
     <use style="fill:#0000ff;stroke:#0000ff;" x="465.310175" xlink:href="#mfc398ba526" y="305.37676"/>
     <use style="fill:#0000ff;stroke:#0000ff;" x="462.983775" xlink:href="#mfc398ba526" y="304.466606"/>
     <use style="fill:#0000ff;stroke:#0000ff;" x="458.919393" xlink:href="#mfc398ba526" y="302.870374"/>
     <use style="fill:#0000ff;stroke:#0000ff;" x="458.673423" xlink:href="#mfc398ba526" y="302.77352"/>
     <use style="fill:#0000ff;stroke:#0000ff;" x="454.641719" xlink:href="#mfc398ba526" y="301.181815"/>
     <use style="fill:#0000ff;stroke:#0000ff;" x="443.324496" xlink:href="#mfc398ba526" y="296.670825"/>
     <use style="fill:#0000ff;stroke:#0000ff;" x="437.788582" xlink:href="#mfc398ba526" y="294.440369"/>
     <use style="fill:#0000ff;stroke:#0000ff;" x="432.763273" xlink:href="#mfc398ba526" y="292.401574"/>
     <use style="fill:#0000ff;stroke:#0000ff;" x="430.631837" xlink:href="#mfc398ba526" y="291.53271"/>
     <use style="fill:#0000ff;stroke:#0000ff;" x="428.956401" xlink:href="#mfc398ba526" y="290.84798"/>
     <use style="fill:#0000ff;stroke:#0000ff;" x="425.69707" xlink:href="#mfc398ba526" y="289.511462"/>
     <use style="fill:#0000ff;stroke:#0000ff;" x="420.379396" xlink:href="#mfc398ba526" y="287.318003"/>
     <use style="fill:#0000ff;stroke:#0000ff;" x="411.703205" xlink:href="#mfc398ba526" y="283.703834"/>
     <use style="fill:#0000ff;stroke:#0000ff;" x="411.659621" xlink:href="#mfc398ba526" y="283.685565"/>
     <use style="fill:#0000ff;stroke:#0000ff;" x="411.248036" xlink:href="#mfc398ba526" y="283.512986"/>
     <use style="fill:#0000ff;stroke:#0000ff;" x="410.037139" xlink:href="#mfc398ba526" y="283.004655"/>
     <use style="fill:#0000ff;stroke:#0000ff;" x="408.98755" xlink:href="#mfc398ba526" y="282.563315"/>
     <use style="fill:#0000ff;stroke:#0000ff;" x="406.624664" xlink:href="#mfc398ba526" y="281.567264"/>
     <use style="fill:#0000ff;stroke:#0000ff;" x="382.145701" xlink:href="#mfc398ba526" y="271.035062"/>
     <use style="fill:#0000ff;stroke:#0000ff;" x="371.773792" xlink:href="#mfc398ba526" y="266.446505"/>
     <use style="fill:#0000ff;stroke:#0000ff;" x="370.697929" xlink:href="#mfc398ba526" y="265.965937"/>
     <use style="fill:#0000ff;stroke:#0000ff;" x="366.811293" xlink:href="#mfc398ba526" y="264.222417"/>
     <use style="fill:#0000ff;stroke:#0000ff;" x="365.157574" xlink:href="#mfc398ba526" y="263.476988"/>
     <use style="fill:#0000ff;stroke:#0000ff;" x="363.686249" xlink:href="#mfc398ba526" y="262.811952"/>
     <use style="fill:#0000ff;stroke:#0000ff;" x="361.173472" xlink:href="#mfc398ba526" y="261.672163"/>
     <use style="fill:#0000ff;stroke:#0000ff;" x="359.015489" xlink:href="#mfc398ba526" y="260.68921"/>
     <use style="fill:#0000ff;stroke:#0000ff;" x="358.168386" xlink:href="#mfc398ba526" y="260.302311"/>
     <use style="fill:#0000ff;stroke:#0000ff;" x="355.504001" xlink:href="#mfc398ba526" y="259.081504"/>
     <use style="fill:#0000ff;stroke:#0000ff;" x="353.614557" xlink:href="#mfc398ba526" y="258.212146"/>
     <use style="fill:#0000ff;stroke:#0000ff;" x="351.16311" xlink:href="#mfc398ba526" y="257.07965"/>
     <use style="fill:#0000ff;stroke:#0000ff;" x="350.97971" xlink:href="#mfc398ba526" y="256.994716"/>
     <use style="fill:#0000ff;stroke:#0000ff;" x="343.483147" xlink:href="#mfc398ba526" y="253.497547"/>
     <use style="fill:#0000ff;stroke:#0000ff;" x="343.165537" xlink:href="#mfc398ba526" y="253.348265"/>
     <use style="fill:#0000ff;stroke:#0000ff;" x="335.257095" xlink:href="#mfc398ba526" y="249.600797"/>
     <use style="fill:#0000ff;stroke:#0000ff;" x="329.018163" xlink:href="#mfc398ba526" y="246.601839"/>
     <use style="fill:#0000ff;stroke:#0000ff;" x="328.416436" xlink:href="#mfc398ba526" y="246.310541"/>
     <use style="fill:#0000ff;stroke:#0000ff;" x="324.806236" xlink:href="#mfc398ba526" y="244.555035"/>
     <use style="fill:#0000ff;stroke:#0000ff;" x="323.783507" xlink:href="#mfc398ba526" y="244.055259"/>
     <use style="fill:#0000ff;stroke:#0000ff;" x="322.360731" xlink:href="#mfc398ba526" y="243.358159"/>
     <use style="fill:#0000ff;stroke:#0000ff;" x="321.729041" xlink:href="#mfc398ba526" y="243.047968"/>
     <use style="fill:#0000ff;stroke:#0000ff;" x="318.748827" xlink:href="#mfc398ba526" y="241.578745"/>
     <use style="fill:#0000ff;stroke:#0000ff;" x="312.972249" xlink:href="#mfc398ba526" y="238.703058"/>
     <use style="fill:#0000ff;stroke:#0000ff;" x="305.155317" xlink:href="#mfc398ba526" y="234.750491"/>
     <use style="fill:#0000ff;stroke:#0000ff;" x="299.006834" xlink:href="#mfc398ba526" y="231.589458"/>
     <use style="fill:#0000ff;stroke:#0000ff;" x="292.612965" xlink:href="#mfc398ba526" y="228.250784"/>
     <use style="fill:#0000ff;stroke:#0000ff;" x="281.096718" xlink:href="#mfc398ba526" y="222.095371"/>
     <use style="fill:#0000ff;stroke:#0000ff;" x="280.229763" xlink:href="#mfc398ba526" y="221.624169"/>
     <use style="fill:#0000ff;stroke:#0000ff;" x="274.927286" xlink:href="#mfc398ba526" y="218.717044"/>
     <use style="fill:#0000ff;stroke:#0000ff;" x="266.318452" xlink:href="#mfc398ba526" y="213.900582"/>
     <use style="fill:#0000ff;stroke:#0000ff;" x="262.147678" xlink:href="#mfc398ba526" y="211.521472"/>
     <use style="fill:#0000ff;stroke:#0000ff;" x="261.494945" xlink:href="#mfc398ba526" y="211.146314"/>
     <use style="fill:#0000ff;stroke:#0000ff;" x="249.250277" xlink:href="#mfc398ba526" y="203.958188"/>
     <use style="fill:#0000ff;stroke:#0000ff;" x="242.41212" xlink:href="#mfc398ba526" y="199.809995"/>
     <use style="fill:#0000ff;stroke:#0000ff;" x="239.351889" xlink:href="#mfc398ba526" y="197.919737"/>
     <use style="fill:#0000ff;stroke:#0000ff;" x="220.431181" xlink:href="#mfc398ba526" y="185.707303"/>
     <use style="fill:#0000ff;stroke:#0000ff;" x="209.768464" xlink:href="#mfc398ba526" y="178.361689"/>
     <use style="fill:#0000ff;stroke:#0000ff;" x="195.353484" xlink:href="#mfc398ba526" y="167.766565"/>
     <use style="fill:#0000ff;stroke:#0000ff;" x="181.073301" xlink:href="#mfc398ba526" y="156.315448"/>
     <use style="fill:#0000ff;stroke:#0000ff;" x="180.17925" xlink:href="#mfc398ba526" y="155.560065"/>
     <use style="fill:#0000ff;stroke:#0000ff;" x="171.512101" xlink:href="#mfc398ba526" y="147.955479"/>
     <use style="fill:#0000ff;stroke:#0000ff;" x="166.723968" xlink:href="#mfc398ba526" y="143.506265"/>
     <use style="fill:#0000ff;stroke:#0000ff;" x="165.674219" xlink:href="#mfc398ba526" y="142.503912"/>
     <use style="fill:#0000ff;stroke:#0000ff;" x="164.813594" xlink:href="#mfc398ba526" y="141.674437"/>
     <use style="fill:#0000ff;stroke:#0000ff;" x="158.241783" xlink:href="#mfc398ba526" y="135.089759"/>
     <use style="fill:#0000ff;stroke:#0000ff;" x="157.38466" xlink:href="#mfc398ba526" y="134.195126"/>
     <use style="fill:#0000ff;stroke:#0000ff;" x="146.776322" xlink:href="#mfc398ba526" y="122.263048"/>
     <use style="fill:#0000ff;stroke:#0000ff;" x="145.82094" xlink:href="#mfc398ba526" y="121.095473"/>
     <use style="fill:#0000ff;stroke:#0000ff;" x="144.156237" xlink:href="#mfc398ba526" y="119.01624"/>
     <use style="fill:#0000ff;stroke:#0000ff;" x="144.039486" xlink:href="#mfc398ba526" y="118.868179"/>
     <use style="fill:#0000ff;stroke:#0000ff;" x="140.618602" xlink:href="#mfc398ba526" y="114.386574"/>
     <use style="fill:#0000ff;stroke:#0000ff;" x="138.250316" xlink:href="#mfc398ba526" y="111.101535"/>
     <use style="fill:#0000ff;stroke:#0000ff;" x="137.362172" xlink:href="#mfc398ba526" y="109.82543"/>
     <use style="fill:#0000ff;stroke:#0000ff;" x="132.078218" xlink:href="#mfc398ba526" y="101.619828"/>
     <use style="fill:#0000ff;stroke:#0000ff;" x="125.596076" xlink:href="#mfc398ba526" y="89.422247"/>
     <use style="fill:#0000ff;stroke:#0000ff;" x="124.746014" xlink:href="#mfc398ba526" y="87.54771"/>
    </g>
   </g>
   <g id="matplotlib.axis_1">
    <g id="xtick_1">
     <g id="line2d_1">
      <defs>
       <path d="M 0 0 
L 0 3.5 
" id="m017652bbb2" style="stroke:#000000;stroke-width:0.8;"/>
      </defs>
      <g>
       <use style="stroke:#000000;stroke-width:0.8;" x="71.811597" xlink:href="#m017652bbb2" y="496.44"/>
      </g>
     </g>
     <g id="text_1">
      <!-- 0.54 -->
      <defs>
       <path d="M 31.78125 66.40625 
Q 24.171875 66.40625 20.328125 58.90625 
Q 16.5 51.421875 16.5 36.375 
Q 16.5 21.390625 20.328125 13.890625 
Q 24.171875 6.390625 31.78125 6.390625 
Q 39.453125 6.390625 43.28125 13.890625 
Q 47.125 21.390625 47.125 36.375 
Q 47.125 51.421875 43.28125 58.90625 
Q 39.453125 66.40625 31.78125 66.40625 
z
M 31.78125 74.21875 
Q 44.046875 74.21875 50.515625 64.515625 
Q 56.984375 54.828125 56.984375 36.375 
Q 56.984375 17.96875 50.515625 8.265625 
Q 44.046875 -1.421875 31.78125 -1.421875 
Q 19.53125 -1.421875 13.0625 8.265625 
Q 6.59375 17.96875 6.59375 36.375 
Q 6.59375 54.828125 13.0625 64.515625 
Q 19.53125 74.21875 31.78125 74.21875 
z
" id="DejaVuSans-48"/>
       <path d="M 10.6875 12.40625 
L 21 12.40625 
L 21 0 
L 10.6875 0 
z
" id="DejaVuSans-46"/>
       <path d="M 10.796875 72.90625 
L 49.515625 72.90625 
L 49.515625 64.59375 
L 19.828125 64.59375 
L 19.828125 46.734375 
Q 21.96875 47.46875 24.109375 47.828125 
Q 26.265625 48.1875 28.421875 48.1875 
Q 40.625 48.1875 47.75 41.5 
Q 54.890625 34.8125 54.890625 23.390625 
Q 54.890625 11.625 47.5625 5.09375 
Q 40.234375 -1.421875 26.90625 -1.421875 
Q 22.3125 -1.421875 17.546875 -0.640625 
Q 12.796875 0.140625 7.71875 1.703125 
L 7.71875 11.625 
Q 12.109375 9.234375 16.796875 8.0625 
Q 21.484375 6.890625 26.703125 6.890625 
Q 35.15625 6.890625 40.078125 11.328125 
Q 45.015625 15.765625 45.015625 23.390625 
Q 45.015625 31 40.078125 35.4375 
Q 35.15625 39.890625 26.703125 39.890625 
Q 22.75 39.890625 18.8125 39.015625 
Q 14.890625 38.140625 10.796875 36.28125 
z
" id="DejaVuSans-53"/>
       <path d="M 37.796875 64.3125 
L 12.890625 25.390625 
L 37.796875 25.390625 
z
M 35.203125 72.90625 
L 47.609375 72.90625 
L 47.609375 25.390625 
L 58.015625 25.390625 
L 58.015625 17.1875 
L 47.609375 17.1875 
L 47.609375 0 
L 37.796875 0 
L 37.796875 17.1875 
L 4.890625 17.1875 
L 4.890625 26.703125 
z
" id="DejaVuSans-52"/>
      </defs>
      <g transform="translate(60.678784 511.038437)scale(0.1 -0.1)">
       <use xlink:href="#DejaVuSans-48"/>
       <use x="63.623047" xlink:href="#DejaVuSans-46"/>
       <use x="95.410156" xlink:href="#DejaVuSans-53"/>
       <use x="159.033203" xlink:href="#DejaVuSans-52"/>
      </g>
     </g>
    </g>
    <g id="xtick_2">
     <g id="line2d_2">
      <g>
       <use style="stroke:#000000;stroke-width:0.8;" x="171.003392" xlink:href="#m017652bbb2" y="496.44"/>
      </g>
     </g>
     <g id="text_2">
      <!-- 0.56 -->
      <defs>
       <path d="M 33.015625 40.375 
Q 26.375 40.375 22.484375 35.828125 
Q 18.609375 31.296875 18.609375 23.390625 
Q 18.609375 15.53125 22.484375 10.953125 
Q 26.375 6.390625 33.015625 6.390625 
Q 39.65625 6.390625 43.53125 10.953125 
Q 47.40625 15.53125 47.40625 23.390625 
Q 47.40625 31.296875 43.53125 35.828125 
Q 39.65625 40.375 33.015625 40.375 
z
M 52.59375 71.296875 
L 52.59375 62.3125 
Q 48.875 64.0625 45.09375 64.984375 
Q 41.3125 65.921875 37.59375 65.921875 
Q 27.828125 65.921875 22.671875 59.328125 
Q 17.53125 52.734375 16.796875 39.40625 
Q 19.671875 43.65625 24.015625 45.921875 
Q 28.375 48.1875 33.59375 48.1875 
Q 44.578125 48.1875 50.953125 41.515625 
Q 57.328125 34.859375 57.328125 23.390625 
Q 57.328125 12.15625 50.6875 5.359375 
Q 44.046875 -1.421875 33.015625 -1.421875 
Q 20.359375 -1.421875 13.671875 8.265625 
Q 6.984375 17.96875 6.984375 36.375 
Q 6.984375 53.65625 15.1875 63.9375 
Q 23.390625 74.21875 37.203125 74.21875 
Q 40.921875 74.21875 44.703125 73.484375 
Q 48.484375 72.75 52.59375 71.296875 
z
" id="DejaVuSans-54"/>
      </defs>
      <g transform="translate(159.87058 511.038437)scale(0.1 -0.1)">
       <use xlink:href="#DejaVuSans-48"/>
       <use x="63.623047" xlink:href="#DejaVuSans-46"/>
       <use x="95.410156" xlink:href="#DejaVuSans-53"/>
       <use x="159.033203" xlink:href="#DejaVuSans-54"/>
      </g>
     </g>
    </g>
    <g id="xtick_3">
     <g id="line2d_3">
      <g>
       <use style="stroke:#000000;stroke-width:0.8;" x="270.195188" xlink:href="#m017652bbb2" y="496.44"/>
      </g>
     </g>
     <g id="text_3">
      <!-- 0.58 -->
      <defs>
       <path d="M 31.78125 34.625 
Q 24.75 34.625 20.71875 30.859375 
Q 16.703125 27.09375 16.703125 20.515625 
Q 16.703125 13.921875 20.71875 10.15625 
Q 24.75 6.390625 31.78125 6.390625 
Q 38.8125 6.390625 42.859375 10.171875 
Q 46.921875 13.96875 46.921875 20.515625 
Q 46.921875 27.09375 42.890625 30.859375 
Q 38.875 34.625 31.78125 34.625 
z
M 21.921875 38.8125 
Q 15.578125 40.375 12.03125 44.71875 
Q 8.5 49.078125 8.5 55.328125 
Q 8.5 64.0625 14.71875 69.140625 
Q 20.953125 74.21875 31.78125 74.21875 
Q 42.671875 74.21875 48.875 69.140625 
Q 55.078125 64.0625 55.078125 55.328125 
Q 55.078125 49.078125 51.53125 44.71875 
Q 48 40.375 41.703125 38.8125 
Q 48.828125 37.15625 52.796875 32.3125 
Q 56.78125 27.484375 56.78125 20.515625 
Q 56.78125 9.90625 50.3125 4.234375 
Q 43.84375 -1.421875 31.78125 -1.421875 
Q 19.734375 -1.421875 13.25 4.234375 
Q 6.78125 9.90625 6.78125 20.515625 
Q 6.78125 27.484375 10.78125 32.3125 
Q 14.796875 37.15625 21.921875 38.8125 
z
M 18.3125 54.390625 
Q 18.3125 48.734375 21.84375 45.5625 
Q 25.390625 42.390625 31.78125 42.390625 
Q 38.140625 42.390625 41.71875 45.5625 
Q 45.3125 48.734375 45.3125 54.390625 
Q 45.3125 60.0625 41.71875 63.234375 
Q 38.140625 66.40625 31.78125 66.40625 
Q 25.390625 66.40625 21.84375 63.234375 
Q 18.3125 60.0625 18.3125 54.390625 
z
" id="DejaVuSans-56"/>
      </defs>
      <g transform="translate(259.062375 511.038437)scale(0.1 -0.1)">
       <use xlink:href="#DejaVuSans-48"/>
       <use x="63.623047" xlink:href="#DejaVuSans-46"/>
       <use x="95.410156" xlink:href="#DejaVuSans-53"/>
       <use x="159.033203" xlink:href="#DejaVuSans-56"/>
      </g>
     </g>
    </g>
    <g id="xtick_4">
     <g id="line2d_4">
      <g>
       <use style="stroke:#000000;stroke-width:0.8;" x="369.386984" xlink:href="#m017652bbb2" y="496.44"/>
      </g>
     </g>
     <g id="text_4">
      <!-- 0.60 -->
      <g transform="translate(358.254171 511.038437)scale(0.1 -0.1)">
       <use xlink:href="#DejaVuSans-48"/>
       <use x="63.623047" xlink:href="#DejaVuSans-46"/>
       <use x="95.410156" xlink:href="#DejaVuSans-54"/>
       <use x="159.033203" xlink:href="#DejaVuSans-48"/>
      </g>
     </g>
    </g>
    <g id="xtick_5">
     <g id="line2d_5">
      <g>
       <use style="stroke:#000000;stroke-width:0.8;" x="468.578779" xlink:href="#m017652bbb2" y="496.44"/>
      </g>
     </g>
     <g id="text_5">
      <!-- 0.62 -->
      <defs>
       <path d="M 19.1875 8.296875 
L 53.609375 8.296875 
L 53.609375 0 
L 7.328125 0 
L 7.328125 8.296875 
Q 12.9375 14.109375 22.625 23.890625 
Q 32.328125 33.6875 34.8125 36.53125 
Q 39.546875 41.84375 41.421875 45.53125 
Q 43.3125 49.21875 43.3125 52.78125 
Q 43.3125 58.59375 39.234375 62.25 
Q 35.15625 65.921875 28.609375 65.921875 
Q 23.96875 65.921875 18.8125 64.3125 
Q 13.671875 62.703125 7.8125 59.421875 
L 7.8125 69.390625 
Q 13.765625 71.78125 18.9375 73 
Q 24.125 74.21875 28.421875 74.21875 
Q 39.75 74.21875 46.484375 68.546875 
Q 53.21875 62.890625 53.21875 53.421875 
Q 53.21875 48.921875 51.53125 44.890625 
Q 49.859375 40.875 45.40625 35.40625 
Q 44.1875 33.984375 37.640625 27.21875 
Q 31.109375 20.453125 19.1875 8.296875 
z
" id="DejaVuSans-50"/>
      </defs>
      <g transform="translate(457.445967 511.038437)scale(0.1 -0.1)">
       <use xlink:href="#DejaVuSans-48"/>
       <use x="63.623047" xlink:href="#DejaVuSans-46"/>
       <use x="95.410156" xlink:href="#DejaVuSans-54"/>
       <use x="159.033203" xlink:href="#DejaVuSans-50"/>
      </g>
     </g>
    </g>
    <g id="xtick_6">
     <g id="line2d_6">
      <g>
       <use style="stroke:#000000;stroke-width:0.8;" x="567.770575" xlink:href="#m017652bbb2" y="496.44"/>
      </g>
     </g>
     <g id="text_6">
      <!-- 0.64 -->
      <g transform="translate(556.637762 511.038437)scale(0.1 -0.1)">
       <use xlink:href="#DejaVuSans-48"/>
       <use x="63.623047" xlink:href="#DejaVuSans-46"/>
       <use x="95.410156" xlink:href="#DejaVuSans-54"/>
       <use x="159.033203" xlink:href="#DejaVuSans-52"/>
      </g>
     </g>
    </g>
    <g id="xtick_7">
     <g id="line2d_7">
      <g>
       <use style="stroke:#000000;stroke-width:0.8;" x="666.962371" xlink:href="#m017652bbb2" y="496.44"/>
      </g>
     </g>
     <g id="text_7">
      <!-- 0.66 -->
      <g transform="translate(655.829558 511.038437)scale(0.1 -0.1)">
       <use xlink:href="#DejaVuSans-48"/>
       <use x="63.623047" xlink:href="#DejaVuSans-46"/>
       <use x="95.410156" xlink:href="#DejaVuSans-54"/>
       <use x="159.033203" xlink:href="#DejaVuSans-54"/>
      </g>
     </g>
    </g>
    <g id="xtick_8">
     <g id="line2d_8">
      <g>
       <use style="stroke:#000000;stroke-width:0.8;" x="766.154166" xlink:href="#m017652bbb2" y="496.44"/>
      </g>
     </g>
     <g id="text_8">
      <!-- 0.68 -->
      <g transform="translate(755.021354 511.038437)scale(0.1 -0.1)">
       <use xlink:href="#DejaVuSans-48"/>
       <use x="63.623047" xlink:href="#DejaVuSans-46"/>
       <use x="95.410156" xlink:href="#DejaVuSans-54"/>
       <use x="159.033203" xlink:href="#DejaVuSans-56"/>
      </g>
     </g>
    </g>
    <g id="xtick_9">
     <g id="line2d_9">
      <g>
       <use style="stroke:#000000;stroke-width:0.8;" x="865.345962" xlink:href="#m017652bbb2" y="496.44"/>
      </g>
     </g>
     <g id="text_9">
      <!-- 0.70 -->
      <defs>
       <path d="M 8.203125 72.90625 
L 55.078125 72.90625 
L 55.078125 68.703125 
L 28.609375 0 
L 18.3125 0 
L 43.21875 64.59375 
L 8.203125 64.59375 
z
" id="DejaVuSans-55"/>
      </defs>
      <g transform="translate(854.213149 511.038437)scale(0.1 -0.1)">
       <use xlink:href="#DejaVuSans-48"/>
       <use x="63.623047" xlink:href="#DejaVuSans-46"/>
       <use x="95.410156" xlink:href="#DejaVuSans-55"/>
       <use x="159.033203" xlink:href="#DejaVuSans-48"/>
      </g>
     </g>
    </g>
    <g id="text_10">
     <!-- Volatility -->
     <defs>
      <path d="M 28.609375 0 
L 0.78125 72.90625 
L 11.078125 72.90625 
L 34.1875 11.53125 
L 57.328125 72.90625 
L 67.578125 72.90625 
L 39.796875 0 
z
" id="DejaVuSans-86"/>
      <path d="M 30.609375 48.390625 
Q 23.390625 48.390625 19.1875 42.75 
Q 14.984375 37.109375 14.984375 27.296875 
Q 14.984375 17.484375 19.15625 11.84375 
Q 23.34375 6.203125 30.609375 6.203125 
Q 37.796875 6.203125 41.984375 11.859375 
Q 46.1875 17.53125 46.1875 27.296875 
Q 46.1875 37.015625 41.984375 42.703125 
Q 37.796875 48.390625 30.609375 48.390625 
z
M 30.609375 56 
Q 42.328125 56 49.015625 48.375 
Q 55.71875 40.765625 55.71875 27.296875 
Q 55.71875 13.875 49.015625 6.21875 
Q 42.328125 -1.421875 30.609375 -1.421875 
Q 18.84375 -1.421875 12.171875 6.21875 
Q 5.515625 13.875 5.515625 27.296875 
Q 5.515625 40.765625 12.171875 48.375 
Q 18.84375 56 30.609375 56 
z
" id="DejaVuSans-111"/>
      <path d="M 9.421875 75.984375 
L 18.40625 75.984375 
L 18.40625 0 
L 9.421875 0 
z
" id="DejaVuSans-108"/>
      <path d="M 34.28125 27.484375 
Q 23.390625 27.484375 19.1875 25 
Q 14.984375 22.515625 14.984375 16.5 
Q 14.984375 11.71875 18.140625 8.90625 
Q 21.296875 6.109375 26.703125 6.109375 
Q 34.1875 6.109375 38.703125 11.40625 
Q 43.21875 16.703125 43.21875 25.484375 
L 43.21875 27.484375 
z
M 52.203125 31.203125 
L 52.203125 0 
L 43.21875 0 
L 43.21875 8.296875 
Q 40.140625 3.328125 35.546875 0.953125 
Q 30.953125 -1.421875 24.3125 -1.421875 
Q 15.921875 -1.421875 10.953125 3.296875 
Q 6 8.015625 6 15.921875 
Q 6 25.140625 12.171875 29.828125 
Q 18.359375 34.515625 30.609375 34.515625 
L 43.21875 34.515625 
L 43.21875 35.40625 
Q 43.21875 41.609375 39.140625 45 
Q 35.0625 48.390625 27.6875 48.390625 
Q 23 48.390625 18.546875 47.265625 
Q 14.109375 46.140625 10.015625 43.890625 
L 10.015625 52.203125 
Q 14.9375 54.109375 19.578125 55.046875 
Q 24.21875 56 28.609375 56 
Q 40.484375 56 46.34375 49.84375 
Q 52.203125 43.703125 52.203125 31.203125 
z
" id="DejaVuSans-97"/>
      <path d="M 18.3125 70.21875 
L 18.3125 54.6875 
L 36.8125 54.6875 
L 36.8125 47.703125 
L 18.3125 47.703125 
L 18.3125 18.015625 
Q 18.3125 11.328125 20.140625 9.421875 
Q 21.96875 7.515625 27.59375 7.515625 
L 36.8125 7.515625 
L 36.8125 0 
L 27.59375 0 
Q 17.1875 0 13.234375 3.875 
Q 9.28125 7.765625 9.28125 18.015625 
L 9.28125 47.703125 
L 2.6875 47.703125 
L 2.6875 54.6875 
L 9.28125 54.6875 
L 9.28125 70.21875 
z
" id="DejaVuSans-116"/>
      <path d="M 9.421875 54.6875 
L 18.40625 54.6875 
L 18.40625 0 
L 9.421875 0 
z
M 9.421875 75.984375 
L 18.40625 75.984375 
L 18.40625 64.59375 
L 9.421875 64.59375 
z
" id="DejaVuSans-105"/>
      <path d="M 32.171875 -5.078125 
Q 28.375 -14.84375 24.75 -17.8125 
Q 21.140625 -20.796875 15.09375 -20.796875 
L 7.90625 -20.796875 
L 7.90625 -13.28125 
L 13.1875 -13.28125 
Q 16.890625 -13.28125 18.9375 -11.515625 
Q 21 -9.765625 23.484375 -3.21875 
L 25.09375 0.875 
L 2.984375 54.6875 
L 12.5 54.6875 
L 29.59375 11.921875 
L 46.6875 54.6875 
L 56.203125 54.6875 
z
" id="DejaVuSans-121"/>
     </defs>
     <g transform="translate(455.049219 524.716562)scale(0.1 -0.1)">
      <use xlink:href="#DejaVuSans-86"/>
      <use x="68.298828" xlink:href="#DejaVuSans-111"/>
      <use x="129.480469" xlink:href="#DejaVuSans-108"/>
      <use x="157.263672" xlink:href="#DejaVuSans-97"/>
      <use x="218.542969" xlink:href="#DejaVuSans-116"/>
      <use x="257.751953" xlink:href="#DejaVuSans-105"/>
      <use x="285.535156" xlink:href="#DejaVuSans-108"/>
      <use x="313.318359" xlink:href="#DejaVuSans-105"/>
      <use x="341.101562" xlink:href="#DejaVuSans-116"/>
      <use x="380.310547" xlink:href="#DejaVuSans-121"/>
     </g>
    </g>
   </g>
   <g id="matplotlib.axis_2">
    <g id="ytick_1">
     <g id="line2d_10">
      <defs>
       <path d="M 0 0 
L -3.5 0 
" id="m9cee1b2064" style="stroke:#000000;stroke-width:0.8;"/>
      </defs>
      <g>
       <use style="stroke:#000000;stroke-width:0.8;" x="58.523438" xlink:href="#m9cee1b2064" y="454.351236"/>
      </g>
     </g>
     <g id="text_11">
      <!-- −0.20 -->
      <defs>
       <path d="M 10.59375 35.5 
L 73.1875 35.5 
L 73.1875 27.203125 
L 10.59375 27.203125 
z
" id="DejaVuSans-8722"/>
      </defs>
      <g transform="translate(20.878125 458.150455)scale(0.1 -0.1)">
       <use xlink:href="#DejaVuSans-8722"/>
       <use x="83.789062" xlink:href="#DejaVuSans-48"/>
       <use x="147.412109" xlink:href="#DejaVuSans-46"/>
       <use x="179.199219" xlink:href="#DejaVuSans-50"/>
       <use x="242.822266" xlink:href="#DejaVuSans-48"/>
      </g>
     </g>
    </g>
    <g id="ytick_2">
     <g id="line2d_11">
      <g>
       <use style="stroke:#000000;stroke-width:0.8;" x="58.523438" xlink:href="#m9cee1b2064" y="397.492225"/>
      </g>
     </g>
     <g id="text_12">
      <!-- −0.19 -->
      <defs>
       <path d="M 12.40625 8.296875 
L 28.515625 8.296875 
L 28.515625 63.921875 
L 10.984375 60.40625 
L 10.984375 69.390625 
L 28.421875 72.90625 
L 38.28125 72.90625 
L 38.28125 8.296875 
L 54.390625 8.296875 
L 54.390625 0 
L 12.40625 0 
z
" id="DejaVuSans-49"/>
       <path d="M 10.984375 1.515625 
L 10.984375 10.5 
Q 14.703125 8.734375 18.5 7.8125 
Q 22.3125 6.890625 25.984375 6.890625 
Q 35.75 6.890625 40.890625 13.453125 
Q 46.046875 20.015625 46.78125 33.40625 
Q 43.953125 29.203125 39.59375 26.953125 
Q 35.25 24.703125 29.984375 24.703125 
Q 19.046875 24.703125 12.671875 31.3125 
Q 6.296875 37.9375 6.296875 49.421875 
Q 6.296875 60.640625 12.9375 67.421875 
Q 19.578125 74.21875 30.609375 74.21875 
Q 43.265625 74.21875 49.921875 64.515625 
Q 56.59375 54.828125 56.59375 36.375 
Q 56.59375 19.140625 48.40625 8.859375 
Q 40.234375 -1.421875 26.421875 -1.421875 
Q 22.703125 -1.421875 18.890625 -0.6875 
Q 15.09375 0.046875 10.984375 1.515625 
z
M 30.609375 32.421875 
Q 37.25 32.421875 41.125 36.953125 
Q 45.015625 41.5 45.015625 49.421875 
Q 45.015625 57.28125 41.125 61.84375 
Q 37.25 66.40625 30.609375 66.40625 
Q 23.96875 66.40625 20.09375 61.84375 
Q 16.21875 57.28125 16.21875 49.421875 
Q 16.21875 41.5 20.09375 36.953125 
Q 23.96875 32.421875 30.609375 32.421875 
z
" id="DejaVuSans-57"/>
      </defs>
      <g transform="translate(20.878125 401.291444)scale(0.1 -0.1)">
       <use xlink:href="#DejaVuSans-8722"/>
       <use x="83.789062" xlink:href="#DejaVuSans-48"/>
       <use x="147.412109" xlink:href="#DejaVuSans-46"/>
       <use x="179.199219" xlink:href="#DejaVuSans-49"/>
       <use x="242.822266" xlink:href="#DejaVuSans-57"/>
      </g>
     </g>
    </g>
    <g id="ytick_3">
     <g id="line2d_12">
      <g>
       <use style="stroke:#000000;stroke-width:0.8;" x="58.523438" xlink:href="#m9cee1b2064" y="340.633214"/>
      </g>
     </g>
     <g id="text_13">
      <!-- −0.18 -->
      <g transform="translate(20.878125 344.432433)scale(0.1 -0.1)">
       <use xlink:href="#DejaVuSans-8722"/>
       <use x="83.789062" xlink:href="#DejaVuSans-48"/>
       <use x="147.412109" xlink:href="#DejaVuSans-46"/>
       <use x="179.199219" xlink:href="#DejaVuSans-49"/>
       <use x="242.822266" xlink:href="#DejaVuSans-56"/>
      </g>
     </g>
    </g>
    <g id="ytick_4">
     <g id="line2d_13">
      <g>
       <use style="stroke:#000000;stroke-width:0.8;" x="58.523438" xlink:href="#m9cee1b2064" y="283.774203"/>
      </g>
     </g>
     <g id="text_14">
      <!-- −0.17 -->
      <g transform="translate(20.878125 287.573422)scale(0.1 -0.1)">
       <use xlink:href="#DejaVuSans-8722"/>
       <use x="83.789062" xlink:href="#DejaVuSans-48"/>
       <use x="147.412109" xlink:href="#DejaVuSans-46"/>
       <use x="179.199219" xlink:href="#DejaVuSans-49"/>
       <use x="242.822266" xlink:href="#DejaVuSans-55"/>
      </g>
     </g>
    </g>
    <g id="ytick_5">
     <g id="line2d_14">
      <g>
       <use style="stroke:#000000;stroke-width:0.8;" x="58.523438" xlink:href="#m9cee1b2064" y="226.915192"/>
      </g>
     </g>
     <g id="text_15">
      <!-- −0.16 -->
      <g transform="translate(20.878125 230.714411)scale(0.1 -0.1)">
       <use xlink:href="#DejaVuSans-8722"/>
       <use x="83.789062" xlink:href="#DejaVuSans-48"/>
       <use x="147.412109" xlink:href="#DejaVuSans-46"/>
       <use x="179.199219" xlink:href="#DejaVuSans-49"/>
       <use x="242.822266" xlink:href="#DejaVuSans-54"/>
      </g>
     </g>
    </g>
    <g id="ytick_6">
     <g id="line2d_15">
      <g>
       <use style="stroke:#000000;stroke-width:0.8;" x="58.523438" xlink:href="#m9cee1b2064" y="170.056181"/>
      </g>
     </g>
     <g id="text_16">
      <!-- −0.15 -->
      <g transform="translate(20.878125 173.8554)scale(0.1 -0.1)">
       <use xlink:href="#DejaVuSans-8722"/>
       <use x="83.789062" xlink:href="#DejaVuSans-48"/>
       <use x="147.412109" xlink:href="#DejaVuSans-46"/>
       <use x="179.199219" xlink:href="#DejaVuSans-49"/>
       <use x="242.822266" xlink:href="#DejaVuSans-53"/>
      </g>
     </g>
    </g>
    <g id="ytick_7">
     <g id="line2d_16">
      <g>
       <use style="stroke:#000000;stroke-width:0.8;" x="58.523438" xlink:href="#m9cee1b2064" y="113.19717"/>
      </g>
     </g>
     <g id="text_17">
      <!-- −0.14 -->
      <g transform="translate(20.878125 116.996389)scale(0.1 -0.1)">
       <use xlink:href="#DejaVuSans-8722"/>
       <use x="83.789062" xlink:href="#DejaVuSans-48"/>
       <use x="147.412109" xlink:href="#DejaVuSans-46"/>
       <use x="179.199219" xlink:href="#DejaVuSans-49"/>
       <use x="242.822266" xlink:href="#DejaVuSans-52"/>
      </g>
     </g>
    </g>
    <g id="ytick_8">
     <g id="line2d_17">
      <g>
       <use style="stroke:#000000;stroke-width:0.8;" x="58.523438" xlink:href="#m9cee1b2064" y="56.338159"/>
      </g>
     </g>
     <g id="text_18">
      <!-- −0.13 -->
      <defs>
       <path d="M 40.578125 39.3125 
Q 47.65625 37.796875 51.625 33 
Q 55.609375 28.21875 55.609375 21.1875 
Q 55.609375 10.40625 48.1875 4.484375 
Q 40.765625 -1.421875 27.09375 -1.421875 
Q 22.515625 -1.421875 17.65625 -0.515625 
Q 12.796875 0.390625 7.625 2.203125 
L 7.625 11.71875 
Q 11.71875 9.328125 16.59375 8.109375 
Q 21.484375 6.890625 26.8125 6.890625 
Q 36.078125 6.890625 40.9375 10.546875 
Q 45.796875 14.203125 45.796875 21.1875 
Q 45.796875 27.640625 41.28125 31.265625 
Q 36.765625 34.90625 28.71875 34.90625 
L 20.21875 34.90625 
L 20.21875 43.015625 
L 29.109375 43.015625 
Q 36.375 43.015625 40.234375 45.921875 
Q 44.09375 48.828125 44.09375 54.296875 
Q 44.09375 59.90625 40.109375 62.90625 
Q 36.140625 65.921875 28.71875 65.921875 
Q 24.65625 65.921875 20.015625 65.03125 
Q 15.375 64.15625 9.8125 62.3125 
L 9.8125 71.09375 
Q 15.4375 72.65625 20.34375 73.4375 
Q 25.25 74.21875 29.59375 74.21875 
Q 40.828125 74.21875 47.359375 69.109375 
Q 53.90625 64.015625 53.90625 55.328125 
Q 53.90625 49.265625 50.4375 45.09375 
Q 46.96875 40.921875 40.578125 39.3125 
z
" id="DejaVuSans-51"/>
      </defs>
      <g transform="translate(20.878125 60.137378)scale(0.1 -0.1)">
       <use xlink:href="#DejaVuSans-8722"/>
       <use x="83.789062" xlink:href="#DejaVuSans-48"/>
       <use x="147.412109" xlink:href="#DejaVuSans-46"/>
       <use x="179.199219" xlink:href="#DejaVuSans-49"/>
       <use x="242.822266" xlink:href="#DejaVuSans-51"/>
      </g>
     </g>
    </g>
    <g id="text_19">
     <!-- Return -->
     <defs>
      <path d="M 44.390625 34.1875 
Q 47.5625 33.109375 50.5625 29.59375 
Q 53.5625 26.078125 56.59375 19.921875 
L 66.609375 0 
L 56 0 
L 46.6875 18.703125 
Q 43.0625 26.03125 39.671875 28.421875 
Q 36.28125 30.8125 30.421875 30.8125 
L 19.671875 30.8125 
L 19.671875 0 
L 9.8125 0 
L 9.8125 72.90625 
L 32.078125 72.90625 
Q 44.578125 72.90625 50.734375 67.671875 
Q 56.890625 62.453125 56.890625 51.90625 
Q 56.890625 45.015625 53.6875 40.46875 
Q 50.484375 35.9375 44.390625 34.1875 
z
M 19.671875 64.796875 
L 19.671875 38.921875 
L 32.078125 38.921875 
Q 39.203125 38.921875 42.84375 42.21875 
Q 46.484375 45.515625 46.484375 51.90625 
Q 46.484375 58.296875 42.84375 61.546875 
Q 39.203125 64.796875 32.078125 64.796875 
z
" id="DejaVuSans-82"/>
      <path d="M 56.203125 29.59375 
L 56.203125 25.203125 
L 14.890625 25.203125 
Q 15.484375 15.921875 20.484375 11.0625 
Q 25.484375 6.203125 34.421875 6.203125 
Q 39.59375 6.203125 44.453125 7.46875 
Q 49.3125 8.734375 54.109375 11.28125 
L 54.109375 2.78125 
Q 49.265625 0.734375 44.1875 -0.34375 
Q 39.109375 -1.421875 33.890625 -1.421875 
Q 20.796875 -1.421875 13.15625 6.1875 
Q 5.515625 13.8125 5.515625 26.8125 
Q 5.515625 40.234375 12.765625 48.109375 
Q 20.015625 56 32.328125 56 
Q 43.359375 56 49.78125 48.890625 
Q 56.203125 41.796875 56.203125 29.59375 
z
M 47.21875 32.234375 
Q 47.125 39.59375 43.09375 43.984375 
Q 39.0625 48.390625 32.421875 48.390625 
Q 24.90625 48.390625 20.390625 44.140625 
Q 15.875 39.890625 15.1875 32.171875 
z
" id="DejaVuSans-101"/>
      <path d="M 8.5 21.578125 
L 8.5 54.6875 
L 17.484375 54.6875 
L 17.484375 21.921875 
Q 17.484375 14.15625 20.5 10.265625 
Q 23.53125 6.390625 29.59375 6.390625 
Q 36.859375 6.390625 41.078125 11.03125 
Q 45.3125 15.671875 45.3125 23.6875 
L 45.3125 54.6875 
L 54.296875 54.6875 
L 54.296875 0 
L 45.3125 0 
L 45.3125 8.40625 
Q 42.046875 3.421875 37.71875 1 
Q 33.40625 -1.421875 27.6875 -1.421875 
Q 18.265625 -1.421875 13.375 4.4375 
Q 8.5 10.296875 8.5 21.578125 
z
M 31.109375 56 
z
" id="DejaVuSans-117"/>
      <path d="M 41.109375 46.296875 
Q 39.59375 47.171875 37.8125 47.578125 
Q 36.03125 48 33.890625 48 
Q 26.265625 48 22.1875 43.046875 
Q 18.109375 38.09375 18.109375 28.8125 
L 18.109375 0 
L 9.078125 0 
L 9.078125 54.6875 
L 18.109375 54.6875 
L 18.109375 46.1875 
Q 20.953125 51.171875 25.484375 53.578125 
Q 30.03125 56 36.53125 56 
Q 37.453125 56 38.578125 55.875 
Q 39.703125 55.765625 41.0625 55.515625 
z
" id="DejaVuSans-114"/>
      <path d="M 54.890625 33.015625 
L 54.890625 0 
L 45.90625 0 
L 45.90625 32.71875 
Q 45.90625 40.484375 42.875 44.328125 
Q 39.84375 48.1875 33.796875 48.1875 
Q 26.515625 48.1875 22.3125 43.546875 
Q 18.109375 38.921875 18.109375 30.90625 
L 18.109375 0 
L 9.078125 0 
L 9.078125 54.6875 
L 18.109375 54.6875 
L 18.109375 46.1875 
Q 21.34375 51.125 25.703125 53.5625 
Q 30.078125 56 35.796875 56 
Q 45.21875 56 50.046875 50.171875 
Q 54.890625 44.34375 54.890625 33.015625 
z
" id="DejaVuSans-110"/>
     </defs>
     <g transform="translate(14.798438 268.72)rotate(-90)scale(0.1 -0.1)">
      <use xlink:href="#DejaVuSans-82"/>
      <use x="69.419922" xlink:href="#DejaVuSans-101"/>
      <use x="130.943359" xlink:href="#DejaVuSans-116"/>
      <use x="170.152344" xlink:href="#DejaVuSans-117"/>
      <use x="233.53125" xlink:href="#DejaVuSans-114"/>
      <use x="274.628906" xlink:href="#DejaVuSans-110"/>
     </g>
    </g>
   </g>
   <g id="patch_3">
    <path d="M 58.523438 496.44 
L 58.523438 7.2 
" style="fill:none;stroke:#000000;stroke-linecap:square;stroke-linejoin:miter;stroke-width:0.8;"/>
   </g>
   <g id="patch_4">
    <path d="M 895.523438 496.44 
L 895.523438 7.2 
" style="fill:none;stroke:#000000;stroke-linecap:square;stroke-linejoin:miter;stroke-width:0.8;"/>
   </g>
   <g id="patch_5">
    <path d="M 58.523438 496.44 
L 895.523438 496.44 
" style="fill:none;stroke:#000000;stroke-linecap:square;stroke-linejoin:miter;stroke-width:0.8;"/>
   </g>
   <g id="patch_6">
    <path d="M 58.523438 7.2 
L 895.523438 7.2 
" style="fill:none;stroke:#000000;stroke-linecap:square;stroke-linejoin:miter;stroke-width:0.8;"/>
   </g>
  </g>
 </g>
 <defs>
  <clipPath id="pc5710827c9">
   <rect height="489.24" width="837" x="58.523438" y="7.2"/>
  </clipPath>
 </defs>
</svg>
