<?xml version="1.0" encoding="utf-8" standalone="no"?>
<!DOCTYPE svg PUBLIC "-//W3C//DTD SVG 1.1//EN"
  "http://www.w3.org/Graphics/SVG/1.1/DTD/svg11.dtd">
<!-- Created with matplotlib (https://matplotlib.org/) -->
<svg height="456.031033pt" version="1.1" viewBox="0 0 710.0875 456.031033" width="710.0875pt" xmlns="http://www.w3.org/2000/svg" xmlns:xlink="http://www.w3.org/1999/xlink">
 <defs>
  <style type="text/css">
*{stroke-linecap:butt;stroke-linejoin:round;}
  </style>
 </defs>
 <g id="figure_1">
  <g id="patch_1">
   <path d="M 0 456.031033 
L 710.0875 456.031033 
L 710.0875 0 
L 0 0 
z
" style="fill:none;"/>
  </g>
  <g id="axes_1">
   <g id="patch_2">
    <path d="M 33.2875 398.88 
L 702.8875 398.88 
L 702.8875 7.2 
L 33.2875 7.2 
z
" style="fill:#ffffff;"/>
   </g>
   <g id="matplotlib.axis_1">
    <g id="xtick_1">
     <g id="line2d_1">
      <defs>
       <path d="M 0 0 
L 0 3.5 
" id="m66ba4f5155" style="stroke:#000000;stroke-width:0.8;"/>
      </defs>
      <g>
       <use style="stroke:#000000;stroke-width:0.8;" x="62.962955" xlink:href="#m66ba4f5155" y="398.88"/>
      </g>
     </g>
     <g id="text_1">
      <!-- 2018-01 -->
      <defs>
       <path d="M 19.1875 8.296875 
L 53.609375 8.296875 
L 53.609375 0 
L 7.328125 0 
L 7.328125 8.296875 
Q 12.9375 14.109375 22.625 23.890625 
Q 32.328125 33.6875 34.8125 36.53125 
Q 39.546875 41.84375 41.421875 45.53125 
Q 43.3125 49.21875 43.3125 52.78125 
Q 43.3125 58.59375 39.234375 62.25 
Q 35.15625 65.921875 28.609375 65.921875 
Q 23.96875 65.921875 18.8125 64.3125 
Q 13.671875 62.703125 7.8125 59.421875 
L 7.8125 69.390625 
Q 13.765625 71.78125 18.9375 73 
Q 24.125 74.21875 28.421875 74.21875 
Q 39.75 74.21875 46.484375 68.546875 
Q 53.21875 62.890625 53.21875 53.421875 
Q 53.21875 48.921875 51.53125 44.890625 
Q 49.859375 40.875 45.40625 35.40625 
Q 44.1875 33.984375 37.640625 27.21875 
Q 31.109375 20.453125 19.1875 8.296875 
z
" id="DejaVuSans-50"/>
       <path d="M 31.78125 66.40625 
Q 24.171875 66.40625 20.328125 58.90625 
Q 16.5 51.421875 16.5 36.375 
Q 16.5 21.390625 20.328125 13.890625 
Q 24.171875 6.390625 31.78125 6.390625 
Q 39.453125 6.390625 43.28125 13.890625 
Q 47.125 21.390625 47.125 36.375 
Q 47.125 51.421875 43.28125 58.90625 
Q 39.453125 66.40625 31.78125 66.40625 
z
M 31.78125 74.21875 
Q 44.046875 74.21875 50.515625 64.515625 
Q 56.984375 54.828125 56.984375 36.375 
Q 56.984375 17.96875 50.515625 8.265625 
Q 44.046875 -1.421875 31.78125 -1.421875 
Q 19.53125 -1.421875 13.0625 8.265625 
Q 6.59375 17.96875 6.59375 36.375 
Q 6.59375 54.828125 13.0625 64.515625 
Q 19.53125 74.21875 31.78125 74.21875 
z
" id="DejaVuSans-48"/>
       <path d="M 12.40625 8.296875 
L 28.515625 8.296875 
L 28.515625 63.921875 
L 10.984375 60.40625 
L 10.984375 69.390625 
L 28.421875 72.90625 
L 38.28125 72.90625 
L 38.28125 8.296875 
L 54.390625 8.296875 
L 54.390625 0 
L 12.40625 0 
z
" id="DejaVuSans-49"/>
       <path d="M 31.78125 34.625 
Q 24.75 34.625 20.71875 30.859375 
Q 16.703125 27.09375 16.703125 20.515625 
Q 16.703125 13.921875 20.71875 10.15625 
Q 24.75 6.390625 31.78125 6.390625 
Q 38.8125 6.390625 42.859375 10.171875 
Q 46.921875 13.96875 46.921875 20.515625 
Q 46.921875 27.09375 42.890625 30.859375 
Q 38.875 34.625 31.78125 34.625 
z
M 21.921875 38.8125 
Q 15.578125 40.375 12.03125 44.71875 
Q 8.5 49.078125 8.5 55.328125 
Q 8.5 64.0625 14.71875 69.140625 
Q 20.953125 74.21875 31.78125 74.21875 
Q 42.671875 74.21875 48.875 69.140625 
Q 55.078125 64.0625 55.078125 55.328125 
Q 55.078125 49.078125 51.53125 44.71875 
Q 48 40.375 41.703125 38.8125 
Q 48.828125 37.15625 52.796875 32.3125 
Q 56.78125 27.484375 56.78125 20.515625 
Q 56.78125 9.90625 50.3125 4.234375 
Q 43.84375 -1.421875 31.78125 -1.421875 
Q 19.734375 -1.421875 13.25 4.234375 
Q 6.78125 9.90625 6.78125 20.515625 
Q 6.78125 27.484375 10.78125 32.3125 
Q 14.796875 37.15625 21.921875 38.8125 
z
M 18.3125 54.390625 
Q 18.3125 48.734375 21.84375 45.5625 
Q 25.390625 42.390625 31.78125 42.390625 
Q 38.140625 42.390625 41.71875 45.5625 
Q 45.3125 48.734375 45.3125 54.390625 
Q 45.3125 60.0625 41.71875 63.234375 
Q 38.140625 66.40625 31.78125 66.40625 
Q 25.390625 66.40625 21.84375 63.234375 
Q 18.3125 60.0625 18.3125 54.390625 
z
" id="DejaVuSans-56"/>
       <path d="M 4.890625 31.390625 
L 31.203125 31.390625 
L 31.203125 23.390625 
L 4.890625 23.390625 
z
" id="DejaVuSans-45"/>
      </defs>
      <g transform="translate(25.738134 433.351846)rotate(-30)scale(0.1 -0.1)">
       <use xlink:href="#DejaVuSans-50"/>
       <use x="63.623047" xlink:href="#DejaVuSans-48"/>
       <use x="127.246094" xlink:href="#DejaVuSans-49"/>
       <use x="190.869141" xlink:href="#DejaVuSans-56"/>
       <use x="254.492188" xlink:href="#DejaVuSans-45"/>
       <use x="290.576172" xlink:href="#DejaVuSans-48"/>
       <use x="354.199219" xlink:href="#DejaVuSans-49"/>
      </g>
     </g>
    </g>
    <g id="xtick_2">
     <g id="line2d_2">
      <g>
       <use style="stroke:#000000;stroke-width:0.8;" x="131.444773" xlink:href="#m66ba4f5155" y="398.88"/>
      </g>
     </g>
     <g id="text_2">
      <!-- 2018-04 -->
      <defs>
       <path d="M 37.796875 64.3125 
L 12.890625 25.390625 
L 37.796875 25.390625 
z
M 35.203125 72.90625 
L 47.609375 72.90625 
L 47.609375 25.390625 
L 58.015625 25.390625 
L 58.015625 17.1875 
L 47.609375 17.1875 
L 47.609375 0 
L 37.796875 0 
L 37.796875 17.1875 
L 4.890625 17.1875 
L 4.890625 26.703125 
z
" id="DejaVuSans-52"/>
      </defs>
      <g transform="translate(94.219952 433.351846)rotate(-30)scale(0.1 -0.1)">
       <use xlink:href="#DejaVuSans-50"/>
       <use x="63.623047" xlink:href="#DejaVuSans-48"/>
       <use x="127.246094" xlink:href="#DejaVuSans-49"/>
       <use x="190.869141" xlink:href="#DejaVuSans-56"/>
       <use x="254.492188" xlink:href="#DejaVuSans-45"/>
       <use x="290.576172" xlink:href="#DejaVuSans-48"/>
       <use x="354.199219" xlink:href="#DejaVuSans-52"/>
      </g>
     </g>
    </g>
    <g id="xtick_3">
     <g id="line2d_3">
      <g>
       <use style="stroke:#000000;stroke-width:0.8;" x="200.6875" xlink:href="#m66ba4f5155" y="398.88"/>
      </g>
     </g>
     <g id="text_3">
      <!-- 2018-07 -->
      <defs>
       <path d="M 8.203125 72.90625 
L 55.078125 72.90625 
L 55.078125 68.703125 
L 28.609375 0 
L 18.3125 0 
L 43.21875 64.59375 
L 8.203125 64.59375 
z
" id="DejaVuSans-55"/>
      </defs>
      <g transform="translate(163.462679 433.351846)rotate(-30)scale(0.1 -0.1)">
       <use xlink:href="#DejaVuSans-50"/>
       <use x="63.623047" xlink:href="#DejaVuSans-48"/>
       <use x="127.246094" xlink:href="#DejaVuSans-49"/>
       <use x="190.869141" xlink:href="#DejaVuSans-56"/>
       <use x="254.492188" xlink:href="#DejaVuSans-45"/>
       <use x="290.576172" xlink:href="#DejaVuSans-48"/>
       <use x="354.199219" xlink:href="#DejaVuSans-55"/>
      </g>
     </g>
    </g>
    <g id="xtick_4">
     <g id="line2d_4">
      <g>
       <use style="stroke:#000000;stroke-width:0.8;" x="270.691136" xlink:href="#m66ba4f5155" y="398.88"/>
      </g>
     </g>
     <g id="text_4">
      <!-- 2018-10 -->
      <g transform="translate(233.466316 433.351846)rotate(-30)scale(0.1 -0.1)">
       <use xlink:href="#DejaVuSans-50"/>
       <use x="63.623047" xlink:href="#DejaVuSans-48"/>
       <use x="127.246094" xlink:href="#DejaVuSans-49"/>
       <use x="190.869141" xlink:href="#DejaVuSans-56"/>
       <use x="254.492188" xlink:href="#DejaVuSans-45"/>
       <use x="290.576172" xlink:href="#DejaVuSans-49"/>
       <use x="354.199219" xlink:href="#DejaVuSans-48"/>
      </g>
     </g>
    </g>
    <g id="xtick_5">
     <g id="line2d_5">
      <g>
       <use style="stroke:#000000;stroke-width:0.8;" x="340.694773" xlink:href="#m66ba4f5155" y="398.88"/>
      </g>
     </g>
     <g id="text_5">
      <!-- 2019-01 -->
      <defs>
       <path d="M 10.984375 1.515625 
L 10.984375 10.5 
Q 14.703125 8.734375 18.5 7.8125 
Q 22.3125 6.890625 25.984375 6.890625 
Q 35.75 6.890625 40.890625 13.453125 
Q 46.046875 20.015625 46.78125 33.40625 
Q 43.953125 29.203125 39.59375 26.953125 
Q 35.25 24.703125 29.984375 24.703125 
Q 19.046875 24.703125 12.671875 31.3125 
Q 6.296875 37.9375 6.296875 49.421875 
Q 6.296875 60.640625 12.9375 67.421875 
Q 19.578125 74.21875 30.609375 74.21875 
Q 43.265625 74.21875 49.921875 64.515625 
Q 56.59375 54.828125 56.59375 36.375 
Q 56.59375 19.140625 48.40625 8.859375 
Q 40.234375 -1.421875 26.421875 -1.421875 
Q 22.703125 -1.421875 18.890625 -0.6875 
Q 15.09375 0.046875 10.984375 1.515625 
z
M 30.609375 32.421875 
Q 37.25 32.421875 41.125 36.953125 
Q 45.015625 41.5 45.015625 49.421875 
Q 45.015625 57.28125 41.125 61.84375 
Q 37.25 66.40625 30.609375 66.40625 
Q 23.96875 66.40625 20.09375 61.84375 
Q 16.21875 57.28125 16.21875 49.421875 
Q 16.21875 41.5 20.09375 36.953125 
Q 23.96875 32.421875 30.609375 32.421875 
z
" id="DejaVuSans-57"/>
      </defs>
      <g transform="translate(303.469952 433.351846)rotate(-30)scale(0.1 -0.1)">
       <use xlink:href="#DejaVuSans-50"/>
       <use x="63.623047" xlink:href="#DejaVuSans-48"/>
       <use x="127.246094" xlink:href="#DejaVuSans-49"/>
       <use x="190.869141" xlink:href="#DejaVuSans-57"/>
       <use x="254.492188" xlink:href="#DejaVuSans-45"/>
       <use x="290.576172" xlink:href="#DejaVuSans-48"/>
       <use x="354.199219" xlink:href="#DejaVuSans-49"/>
      </g>
     </g>
    </g>
    <g id="xtick_6">
     <g id="line2d_6">
      <g>
       <use style="stroke:#000000;stroke-width:0.8;" x="409.176591" xlink:href="#m66ba4f5155" y="398.88"/>
      </g>
     </g>
     <g id="text_6">
      <!-- 2019-04 -->
      <g transform="translate(371.95177 433.351846)rotate(-30)scale(0.1 -0.1)">
       <use xlink:href="#DejaVuSans-50"/>
       <use x="63.623047" xlink:href="#DejaVuSans-48"/>
       <use x="127.246094" xlink:href="#DejaVuSans-49"/>
       <use x="190.869141" xlink:href="#DejaVuSans-57"/>
       <use x="254.492188" xlink:href="#DejaVuSans-45"/>
       <use x="290.576172" xlink:href="#DejaVuSans-48"/>
       <use x="354.199219" xlink:href="#DejaVuSans-52"/>
      </g>
     </g>
    </g>
    <g id="xtick_7">
     <g id="line2d_7">
      <g>
       <use style="stroke:#000000;stroke-width:0.8;" x="478.419318" xlink:href="#m66ba4f5155" y="398.88"/>
      </g>
     </g>
     <g id="text_7">
      <!-- 2019-07 -->
      <g transform="translate(441.194497 433.351846)rotate(-30)scale(0.1 -0.1)">
       <use xlink:href="#DejaVuSans-50"/>
       <use x="63.623047" xlink:href="#DejaVuSans-48"/>
       <use x="127.246094" xlink:href="#DejaVuSans-49"/>
       <use x="190.869141" xlink:href="#DejaVuSans-57"/>
       <use x="254.492188" xlink:href="#DejaVuSans-45"/>
       <use x="290.576172" xlink:href="#DejaVuSans-48"/>
       <use x="354.199219" xlink:href="#DejaVuSans-55"/>
      </g>
     </g>
    </g>
    <g id="xtick_8">
     <g id="line2d_8">
      <g>
       <use style="stroke:#000000;stroke-width:0.8;" x="548.422955" xlink:href="#m66ba4f5155" y="398.88"/>
      </g>
     </g>
     <g id="text_8">
      <!-- 2019-10 -->
      <g transform="translate(511.198134 433.351846)rotate(-30)scale(0.1 -0.1)">
       <use xlink:href="#DejaVuSans-50"/>
       <use x="63.623047" xlink:href="#DejaVuSans-48"/>
       <use x="127.246094" xlink:href="#DejaVuSans-49"/>
       <use x="190.869141" xlink:href="#DejaVuSans-57"/>
       <use x="254.492188" xlink:href="#DejaVuSans-45"/>
       <use x="290.576172" xlink:href="#DejaVuSans-49"/>
       <use x="354.199219" xlink:href="#DejaVuSans-48"/>
      </g>
     </g>
    </g>
    <g id="xtick_9">
     <g id="line2d_9">
      <g>
       <use style="stroke:#000000;stroke-width:0.8;" x="618.426591" xlink:href="#m66ba4f5155" y="398.88"/>
      </g>
     </g>
     <g id="text_9">
      <!-- 2020-01 -->
      <g transform="translate(581.20177 433.351846)rotate(-30)scale(0.1 -0.1)">
       <use xlink:href="#DejaVuSans-50"/>
       <use x="63.623047" xlink:href="#DejaVuSans-48"/>
       <use x="127.246094" xlink:href="#DejaVuSans-50"/>
       <use x="190.869141" xlink:href="#DejaVuSans-48"/>
       <use x="254.492188" xlink:href="#DejaVuSans-45"/>
       <use x="290.576172" xlink:href="#DejaVuSans-48"/>
       <use x="354.199219" xlink:href="#DejaVuSans-49"/>
      </g>
     </g>
    </g>
    <g id="xtick_10">
     <g id="line2d_10">
      <g>
       <use style="stroke:#000000;stroke-width:0.8;" x="687.669318" xlink:href="#m66ba4f5155" y="398.88"/>
      </g>
     </g>
     <g id="text_10">
      <!-- 2020-04 -->
      <g transform="translate(650.444497 433.351846)rotate(-30)scale(0.1 -0.1)">
       <use xlink:href="#DejaVuSans-50"/>
       <use x="63.623047" xlink:href="#DejaVuSans-48"/>
       <use x="127.246094" xlink:href="#DejaVuSans-50"/>
       <use x="190.869141" xlink:href="#DejaVuSans-48"/>
       <use x="254.492188" xlink:href="#DejaVuSans-45"/>
       <use x="290.576172" xlink:href="#DejaVuSans-48"/>
       <use x="354.199219" xlink:href="#DejaVuSans-52"/>
      </g>
     </g>
    </g>
    <g id="text_11">
     <!-- Date -->
     <defs>
      <path d="M 19.671875 64.796875 
L 19.671875 8.109375 
L 31.59375 8.109375 
Q 46.6875 8.109375 53.6875 14.9375 
Q 60.6875 21.78125 60.6875 36.53125 
Q 60.6875 51.171875 53.6875 57.984375 
Q 46.6875 64.796875 31.59375 64.796875 
z
M 9.8125 72.90625 
L 30.078125 72.90625 
Q 51.265625 72.90625 61.171875 64.09375 
Q 71.09375 55.28125 71.09375 36.53125 
Q 71.09375 17.671875 61.125 8.828125 
Q 51.171875 0 30.078125 0 
L 9.8125 0 
z
" id="DejaVuSans-68"/>
      <path d="M 34.28125 27.484375 
Q 23.390625 27.484375 19.1875 25 
Q 14.984375 22.515625 14.984375 16.5 
Q 14.984375 11.71875 18.140625 8.90625 
Q 21.296875 6.109375 26.703125 6.109375 
Q 34.1875 6.109375 38.703125 11.40625 
Q 43.21875 16.703125 43.21875 25.484375 
L 43.21875 27.484375 
z
M 52.203125 31.203125 
L 52.203125 0 
L 43.21875 0 
L 43.21875 8.296875 
Q 40.140625 3.328125 35.546875 0.953125 
Q 30.953125 -1.421875 24.3125 -1.421875 
Q 15.921875 -1.421875 10.953125 3.296875 
Q 6 8.015625 6 15.921875 
Q 6 25.140625 12.171875 29.828125 
Q 18.359375 34.515625 30.609375 34.515625 
L 43.21875 34.515625 
L 43.21875 35.40625 
Q 43.21875 41.609375 39.140625 45 
Q 35.0625 48.390625 27.6875 48.390625 
Q 23 48.390625 18.546875 47.265625 
Q 14.109375 46.140625 10.015625 43.890625 
L 10.015625 52.203125 
Q 14.9375 54.109375 19.578125 55.046875 
Q 24.21875 56 28.609375 56 
Q 40.484375 56 46.34375 49.84375 
Q 52.203125 43.703125 52.203125 31.203125 
z
" id="DejaVuSans-97"/>
      <path d="M 18.3125 70.21875 
L 18.3125 54.6875 
L 36.8125 54.6875 
L 36.8125 47.703125 
L 18.3125 47.703125 
L 18.3125 18.015625 
Q 18.3125 11.328125 20.140625 9.421875 
Q 21.96875 7.515625 27.59375 7.515625 
L 36.8125 7.515625 
L 36.8125 0 
L 27.59375 0 
Q 17.1875 0 13.234375 3.875 
Q 9.28125 7.765625 9.28125 18.015625 
L 9.28125 47.703125 
L 2.6875 47.703125 
L 2.6875 54.6875 
L 9.28125 54.6875 
L 9.28125 70.21875 
z
" id="DejaVuSans-116"/>
      <path d="M 56.203125 29.59375 
L 56.203125 25.203125 
L 14.890625 25.203125 
Q 15.484375 15.921875 20.484375 11.0625 
Q 25.484375 6.203125 34.421875 6.203125 
Q 39.59375 6.203125 44.453125 7.46875 
Q 49.3125 8.734375 54.109375 11.28125 
L 54.109375 2.78125 
Q 49.265625 0.734375 44.1875 -0.34375 
Q 39.109375 -1.421875 33.890625 -1.421875 
Q 20.796875 -1.421875 13.15625 6.1875 
Q 5.515625 13.8125 5.515625 26.8125 
Q 5.515625 40.234375 12.765625 48.109375 
Q 20.015625 56 32.328125 56 
Q 43.359375 56 49.78125 48.890625 
Q 56.203125 41.796875 56.203125 29.59375 
z
M 47.21875 32.234375 
Q 47.125 39.59375 43.09375 43.984375 
Q 39.0625 48.390625 32.421875 48.390625 
Q 24.90625 48.390625 20.390625 44.140625 
Q 15.875 39.890625 15.1875 32.171875 
z
" id="DejaVuSans-101"/>
     </defs>
     <g transform="translate(356.136719 446.751346)scale(0.1 -0.1)">
      <use xlink:href="#DejaVuSans-68"/>
      <use x="77.001953" xlink:href="#DejaVuSans-97"/>
      <use x="138.28125" xlink:href="#DejaVuSans-116"/>
      <use x="177.490234" xlink:href="#DejaVuSans-101"/>
     </g>
    </g>
   </g>
   <g id="matplotlib.axis_2">
    <g id="ytick_1">
     <g id="line2d_11">
      <defs>
       <path d="M 0 0 
L -3.5 0 
" id="mc9a5cbb19f" style="stroke:#000000;stroke-width:0.8;"/>
      </defs>
      <g>
       <use style="stroke:#000000;stroke-width:0.8;" x="33.2875" xlink:href="#mc9a5cbb19f" y="337.042996"/>
      </g>
     </g>
     <g id="text_12">
      <!-- 100 -->
      <g transform="translate(7.2 340.842215)scale(0.1 -0.1)">
       <use xlink:href="#DejaVuSans-49"/>
       <use x="63.623047" xlink:href="#DejaVuSans-48"/>
       <use x="127.246094" xlink:href="#DejaVuSans-48"/>
      </g>
     </g>
    </g>
    <g id="ytick_2">
     <g id="line2d_12">
      <g>
       <use style="stroke:#000000;stroke-width:0.8;" x="33.2875" xlink:href="#mc9a5cbb19f" y="260.985242"/>
      </g>
     </g>
     <g id="text_13">
      <!-- 120 -->
      <g transform="translate(7.2 264.78446)scale(0.1 -0.1)">
       <use xlink:href="#DejaVuSans-49"/>
       <use x="63.623047" xlink:href="#DejaVuSans-50"/>
       <use x="127.246094" xlink:href="#DejaVuSans-48"/>
      </g>
     </g>
    </g>
    <g id="ytick_3">
     <g id="line2d_13">
      <g>
       <use style="stroke:#000000;stroke-width:0.8;" x="33.2875" xlink:href="#mc9a5cbb19f" y="184.927487"/>
      </g>
     </g>
     <g id="text_14">
      <!-- 140 -->
      <g transform="translate(7.2 188.726706)scale(0.1 -0.1)">
       <use xlink:href="#DejaVuSans-49"/>
       <use x="63.623047" xlink:href="#DejaVuSans-52"/>
       <use x="127.246094" xlink:href="#DejaVuSans-48"/>
      </g>
     </g>
    </g>
    <g id="ytick_4">
     <g id="line2d_14">
      <g>
       <use style="stroke:#000000;stroke-width:0.8;" x="33.2875" xlink:href="#mc9a5cbb19f" y="108.869733"/>
      </g>
     </g>
     <g id="text_15">
      <!-- 160 -->
      <defs>
       <path d="M 33.015625 40.375 
Q 26.375 40.375 22.484375 35.828125 
Q 18.609375 31.296875 18.609375 23.390625 
Q 18.609375 15.53125 22.484375 10.953125 
Q 26.375 6.390625 33.015625 6.390625 
Q 39.65625 6.390625 43.53125 10.953125 
Q 47.40625 15.53125 47.40625 23.390625 
Q 47.40625 31.296875 43.53125 35.828125 
Q 39.65625 40.375 33.015625 40.375 
z
M 52.59375 71.296875 
L 52.59375 62.3125 
Q 48.875 64.0625 45.09375 64.984375 
Q 41.3125 65.921875 37.59375 65.921875 
Q 27.828125 65.921875 22.671875 59.328125 
Q 17.53125 52.734375 16.796875 39.40625 
Q 19.671875 43.65625 24.015625 45.921875 
Q 28.375 48.1875 33.59375 48.1875 
Q 44.578125 48.1875 50.953125 41.515625 
Q 57.328125 34.859375 57.328125 23.390625 
Q 57.328125 12.15625 50.6875 5.359375 
Q 44.046875 -1.421875 33.015625 -1.421875 
Q 20.359375 -1.421875 13.671875 8.265625 
Q 6.984375 17.96875 6.984375 36.375 
Q 6.984375 53.65625 15.1875 63.9375 
Q 23.390625 74.21875 37.203125 74.21875 
Q 40.921875 74.21875 44.703125 73.484375 
Q 48.484375 72.75 52.59375 71.296875 
z
" id="DejaVuSans-54"/>
      </defs>
      <g transform="translate(7.2 112.668952)scale(0.1 -0.1)">
       <use xlink:href="#DejaVuSans-49"/>
       <use x="63.623047" xlink:href="#DejaVuSans-54"/>
       <use x="127.246094" xlink:href="#DejaVuSans-48"/>
      </g>
     </g>
    </g>
    <g id="ytick_5">
     <g id="line2d_15">
      <g>
       <use style="stroke:#000000;stroke-width:0.8;" x="33.2875" xlink:href="#mc9a5cbb19f" y="32.811979"/>
      </g>
     </g>
     <g id="text_16">
      <!-- 180 -->
      <g transform="translate(7.2 36.611198)scale(0.1 -0.1)">
       <use xlink:href="#DejaVuSans-49"/>
       <use x="63.623047" xlink:href="#DejaVuSans-56"/>
       <use x="127.246094" xlink:href="#DejaVuSans-48"/>
      </g>
     </g>
    </g>
   </g>
   <g id="line2d_16">
    <path clip-path="url(#p2c2cace4b9)" d="M 63.723864 337.042996 
L 64.484773 334.078192 
L 65.245682 329.828074 
L 66.006591 327.159684 
L 68.289318 329.334452 
L 69.050227 334.868351 
L 69.811136 333.385795 
L 70.572045 324.985069 
L 71.332955 329.927308 
L 73.615682 328.741473 
L 74.376591 326.073174 
L 75.1375 321.625938 
L 75.898409 320.537772 
L 76.659318 318.957517 
L 78.942045 313.125671 
L 79.702955 314.904578 
L 80.463864 294.349391 
L 81.224773 294.349391 
L 81.985682 276.757504 
L 84.268409 279.525189 
L 85.029318 283.379508 
L 85.790227 279.12939 
L 86.551136 275.94072 
L 87.312045 278.31371 
L 89.594773 287.706559 
L 90.355682 279.796848 
L 91.116591 288.003217 
L 91.8775 288.695921 
L 92.638409 286.916002 
L 97.203864 265.45903 
L 97.964773 286.357317 
L 100.2475 285.859799 
L 101.008409 278.71 
L 101.769318 272.751927 
L 102.530227 269.574638 
L 103.291136 270.170531 
L 105.573864 271.461889 
L 106.334773 275.432987 
L 107.095682 284.370403 
L 107.856591 281.16615 
L 108.6175 274.212366 
L 110.900227 267.257078 
L 111.661136 266.561122 
L 112.422045 268.647515 
L 113.182955 272.920241 
L 113.943864 266.760786 
L 116.226591 264.376262 
L 116.9875 266.064862 
L 117.748409 272.622202 
L 118.509318 271.330109 
L 119.270227 274.212366 
L 121.552955 279.973873 
L 122.313864 281.16615 
L 123.835682 282.656436 
L 124.596591 277.291403 
L 126.879318 275.106481 
L 127.640227 282.856222 
L 128.401136 277.887541 
L 129.162045 268.945554 
L 132.205682 269.616601 
L 132.966591 268.027144 
L 133.7275 270.90937 
L 134.488409 270.611116 
L 135.249318 268.721902 
L 137.532045 276.973425 
L 138.292955 272.598675 
L 139.053864 267.032598 
L 139.814773 268.027144 
L 140.575682 279.45749 
L 142.858409 287.310973 
L 143.619318 276.475447 
L 144.380227 268.027144 
L 145.141136 274.487827 
L 145.902045 272.698583 
L 148.184773 281.346673 
L 148.945682 282.837694 
L 149.706591 276.078727 
L 150.4675 270.90937 
L 151.228409 271.207531 
L 153.511136 278.961014 
L 155.032955 294.25209 
L 155.793864 299.821081 
L 156.554773 304.296568 
L 158.8375 301.711215 
L 159.598409 301.114463 
L 160.359318 300.816148 
L 161.120227 292.163549 
L 161.881136 298.329292 
L 164.163864 304.89329 
L 164.924773 307.480023 
L 165.685682 306.086733 
L 166.446591 321.701583 
L 167.2075 320.806516 
L 169.490227 323.391808 
L 170.251136 317.524502 
L 171.012045 320.906394 
L 171.772955 320.60811 
L 172.533864 325.580257 
L 174.816591 338.808221 
L 175.5775 341.393575 
L 176.338409 337.316433 
L 177.860227 332.712969 
L 180.142955 327.140727 
L 180.903864 337.589502 
L 181.664773 345.650134 
L 183.186591 353.213708 
L 185.469318 361.472685 
L 186.230227 360.677098 
L 186.991136 367.940608 
L 187.752045 377.892448 
L 188.512955 372.518643 
L 190.795682 381.076364 
L 191.556591 364.159634 
L 192.3175 361.572809 
L 193.078409 370.528998 
L 193.839318 368.537759 
L 196.122045 368.439231 
L 196.882955 370.030345 
L 197.643864 375.205561 
L 198.404773 366.648024 
L 199.165682 360.080069 
L 201.448409 361.050934 
L 202.209318 350.694092 
L 202.970227 347.906958 
L 203.731136 349.998044 
L 204.492045 350.794154 
L 207.535682 342.927142 
L 208.296591 343.823313 
L 209.0575 340.936302 
L 209.818409 333.269414 
L 212.101136 331.276918 
L 212.862045 320.125346 
L 213.622955 322.016431 
L 214.383864 325.99983 
L 215.144773 312.55711 
L 217.4275 321.220199 
L 218.188409 316.739374 
L 218.949318 309.171107 
L 219.710227 314.24939 
L 220.471136 312.955977 
L 222.753864 306.981401 
L 223.514773 319.029082 
L 224.275682 315.617159 
L 225.036591 317.60938 
L 225.7975 308.842792 
L 228.080227 313.823835 
L 228.841136 313.326194 
L 229.602045 321.793915 
L 230.362955 322.790669 
L 231.123864 334.148714 
L 233.406591 331.358482 
L 234.1675 322.790669 
L 234.928409 327.771743 
L 235.689318 327.374194 
L 236.450227 332.355268 
L 238.732955 337.483796 
L 239.493864 344.291384 
L 240.254773 339.786049 
L 241.015682 348.696104 
L 241.776591 347.795055 
L 244.059318 336.88321 
L 244.820227 337.483796 
L 245.581136 338.384998 
L 246.342045 346.393912 
L 247.102955 342.890332 
L 249.385682 344.066812 
L 250.146591 349.976909 
L 250.9075 345.670196 
L 251.668409 340.260561 
L 254.712045 334.649668 
L 256.233864 351.279709 
L 256.994773 350.277402 
L 257.755682 349.676386 
L 260.038409 341.362041 
L 260.799318 340.260561 
L 261.560227 338.757884 
L 262.321136 341.963087 
L 263.082045 338.757884 
L 265.364773 345.670196 
L 266.125682 346.771675 
L 266.886591 338.056069 
L 267.6475 333.247635 
L 268.408409 339.659484 
L 270.691136 339.433931 
L 271.452045 329.008192 
L 272.212955 310.464581 
L 272.973864 313.772362 
L 273.734773 309.461631 
L 276.0175 286.207439 
L 276.778409 290.316728 
L 277.539318 303.348157 
L 278.300227 308.258832 
L 281.343864 308.159598 
L 282.104773 294.225985 
L 282.865682 291.319618 
L 283.626591 298.23601 
L 284.3875 301.943854 
L 286.670227 298.135242 
L 287.431136 298.436042 
L 288.192045 309.362489 
L 288.952955 299.438839 
L 289.713864 298.436042 
L 291.996591 301.844682 
L 292.7575 288.712332 
L 293.518409 292.42171 
L 294.279318 280.461944 
L 297.322955 269.731234 
L 298.083864 274.54522 
L 298.844773 268.226899 
L 299.605682 279.860284 
L 300.366591 270.733172 
L 302.649318 270.032125 
L 303.410227 278.555858 
L 304.171136 279.058346 
L 305.692955 266.020045 
L 307.975682 263.011162 
L 309.4975 265.719123 
L 310.258409 261.506858 
L 311.019318 267.373949 
L 313.302045 273.692301 
L 314.062955 262.860762 
L 314.823864 254.135525 
L 315.584773 252.480668 
L 316.345682 253.082328 
L 318.628409 257.070849 
L 319.389318 259.629485 
L 320.150227 260.984125 
L 320.911136 258.726565 
L 321.672045 260.984125 
L 323.954773 271.820909 
L 324.715682 268.509693 
L 325.476591 266.402502 
L 326.2375 257.371925 
L 326.998409 259.17804 
L 329.281136 267.907511 
L 330.042045 266.995205 
L 330.802955 270.458171 
L 331.563864 268.65135 
L 332.324773 276.179617 
L 336.129318 280.696516 
L 336.890227 273.318924 
L 337.651136 264.7247 
L 341.455682 235.716179 
L 342.216591 231.34606 
L 342.9775 239.483503 
L 345.260227 233.305121 
L 346.021136 232.099562 
L 346.782045 227.578736 
L 347.542955 227.578736 
L 348.303864 233.154353 
L 350.586591 227.578736 
L 351.3475 234.209268 
L 352.869318 236.469619 
L 353.630227 230.592681 
L 355.912955 233.757179 
L 356.673864 235.264121 
L 357.434773 231.195354 
L 358.195682 232.099562 
L 361.239318 228.93488 
L 362.000227 230.592681 
L 362.761136 231.34606 
L 363.522045 222.003119 
L 364.282955 224.339882 
L 366.565682 213.334263 
L 367.326591 228.711903 
L 368.0875 246.954254 
L 368.848409 242.280606 
L 369.609318 228.25963 
L 371.892045 235.194795 
L 372.652955 227.355146 
L 373.413864 237.908493 
L 374.174773 224.490711 
L 374.935682 225.696762 
L 377.218409 232.782633 
L 377.979318 222.832266 
L 378.740227 227.20444 
L 379.501136 214.2389 
L 380.262045 224.581233 
L 382.544773 229.979088 
L 383.305682 230.750228 
L 384.066591 232.292477 
L 385.588409 242.859505 
L 390.153864 236.378913 
L 390.914773 230.052678 
L 393.1975 222.028978 
L 393.958409 221.103298 
L 394.719318 215.856977 
L 395.480227 226.657995 
L 396.241136 233.292882 
L 398.523864 222.954812 
L 399.284773 228.201041 
L 400.045682 235.298845 
L 401.5675 256.746492 
L 404.611136 260.912591 
L 405.372045 272.947971 
L 406.132955 260.449705 
L 406.893864 256.746492 
L 409.176591 259.602491 
L 409.9375 263.461901 
L 410.698409 269.482613 
L 412.220227 256.514957 
L 414.502955 258.830523 
L 415.263864 260.991824 
L 416.024773 264.697001 
L 416.785682 270.563294 
L 417.546591 275.194611 
L 419.829318 273.033309 
L 420.590227 276.120874 
L 421.351136 278.436533 
L 422.112045 272.415821 
L 425.155682 275.503324 
L 425.916591 267.321342 
L 426.6775 267.321342 
L 427.438409 264.542582 
L 428.199318 264.851327 
L 430.482045 264.233838 
L 431.242955 264.233838 
L 432.764773 262.303121 
L 433.525682 264.928842 
L 435.808409 274.350679 
L 436.569318 276.976554 
L 437.330227 273.578435 
L 438.091136 277.130942 
L 438.852045 281.764651 
L 441.134773 288.715154 
L 441.895682 290.414183 
L 442.656591 289.950867 
L 443.4175 293.503281 
L 444.178409 294.121138 
L 446.461136 284.235924 
L 447.222045 269.099205 
L 447.982955 266.782381 
L 449.504773 274.041782 
L 451.7875 276.976554 
L 452.548409 265.39225 
L 453.309318 257.206065 
L 454.070227 251.645602 
L 454.831136 252.263427 
L 457.113864 250.022708 
L 457.874773 251.104463 
L 458.635682 258.212973 
L 459.396591 253.731504 
L 460.1575 250.795382 
L 462.440227 259.140218 
L 463.201136 254.195157 
L 463.962045 255.894953 
L 464.722955 261.767228 
L 465.483864 265.012432 
L 467.766591 262.694473 
L 469.288409 248.940953 
L 470.810227 238.58727 
L 473.092955 239.205372 
L 473.853864 244.459515 
L 474.614773 235.187525 
L 475.375682 238.278158 
L 476.136591 236.26925 
L 478.419318 236.34652 
L 479.180227 241.139402 
L 479.941136 234.645866 
L 481.462955 225.678571 
L 483.745682 224.750958 
L 485.2675 229.234575 
L 486.028409 229.54381 
L 486.789318 232.172108 
L 489.072045 237.274256 
L 489.832955 235.57354 
L 490.593864 238.047236 
L 491.354773 226.760879 
L 492.115682 236.34652 
L 494.398409 229.54381 
L 495.159318 229.234575 
L 495.920227 227.533951 
L 496.681136 242.067107 
L 497.442045 236.501153 
L 499.724773 236.191949 
L 500.485682 247.78751 
L 501.246591 255.05415 
L 502.0075 253.429907 
L 502.768409 253.893928 
L 505.051136 258.379845 
L 505.812045 243.994082 
L 506.572955 225.431883 
L 507.333864 225.277127 
L 508.094773 225.277127 
L 510.3775 243.065948 
L 511.138409 238.580092 
L 511.899318 247.087752 
L 512.660227 250.336146 
L 513.421136 252.264532 
L 515.703864 254.155003 
L 516.464773 257.93607 
L 517.225682 251.791952 
L 517.986591 258.251163 
L 518.7475 262.347262 
L 521.030227 264.237765 
L 522.552045 256.675724 
L 523.312955 253.052267 
L 524.073864 246.2779 
L 526.356591 255.183568 
L 527.1175 261.961248 
L 527.878409 262.118948 
L 529.400227 233.746934 
L 531.682955 225.708173 
L 532.443864 230.436821 
L 533.204773 231.855419 
L 533.965682 232.9588 
L 534.726591 228.703038 
L 537.009318 239.578933 
L 537.770227 234.535037 
L 538.531136 232.80113 
L 539.292045 247.617663 
L 540.052955 242.25855 
L 542.335682 243.677117 
L 543.096591 248.563374 
L 543.8575 246.199065 
L 544.618409 235.795965 
L 545.379318 236.111212 
L 547.662045 242.573705 
L 548.422955 250.064549 
L 549.183864 260.630473 
L 549.944773 263.311379 
L 550.705682 259.36887 
L 552.988409 271.354066 
L 553.749318 274.508134 
L 554.510227 267.884689 
L 555.271136 263.94218 
L 556.032045 256.057132 
L 558.314773 251.641522 
L 559.075682 249.118285 
L 559.836591 245.806639 
L 560.5975 248.014444 
L 561.358409 249.591417 
L 563.641136 243.125672 
L 565.162955 229.090371 
L 565.923864 225.778633 
L 566.684773 224.359299 
L 568.9675 215.212648 
L 569.728409 222.624596 
L 570.489318 219.628289 
L 571.250227 225.778633 
L 572.011136 225.226391 
L 574.293864 223.017543 
L 575.054773 216.70643 
L 575.815682 216.70643 
L 576.576591 214.182029 
L 577.3375 222.544166 
L 579.620227 219.073132 
L 580.381136 229.486386 
L 581.142045 231.537472 
L 581.902955 229.959702 
L 584.946591 231.221918 
L 585.7075 239.268501 
L 587.229318 232.010819 
L 587.990227 232.484104 
L 590.272955 237.059623 
L 591.033864 244.317428 
L 591.794773 240.846302 
L 592.555682 246.210691 
L 593.316591 244.632921 
L 595.599318 238.713344 
L 596.360227 237.450484 
L 597.121136 224.032764 
L 597.882045 222.927757 
L 598.642955 228.452729 
L 600.925682 223.401287 
L 602.4475 229.873413 
L 603.208409 228.768406 
L 603.969318 218.059752 
L 606.252045 226.752351 
L 607.012955 220.272434 
L 607.773864 218.533926 
L 608.534773 217.111494 
L 609.295682 221.220722 
L 611.578409 214.740805 
L 613.861136 207.15447 
L 614.622045 209.051046 
L 616.904773 211.105691 
L 619.1875 201.855542 
L 619.948409 206.124801 
L 622.231136 211.34287 
L 622.992045 221.146427 
L 625.274773 236.642289 
L 627.5575 229.843075 
L 628.318409 232.2149 
L 629.079318 239.172243 
L 629.840227 238.381625 
L 630.601136 230.791793 
L 632.883864 239.330342 
L 633.644773 250.873266 
L 634.405682 243.283434 
L 635.166591 233.163617 
L 635.9275 239.172243 
L 638.210227 245.022739 
L 639.732045 253.245059 
L 640.492955 246.920205 
L 641.253864 251.821952 
L 643.536591 249.369851 
L 644.2975 246.205783 
L 645.058409 245.573018 
L 645.819318 247.629595 
L 646.580227 246.364005 
L 648.862955 241.934346 
L 649.623864 222.00088 
L 650.384773 219.469638 
L 651.145682 228.328956 
L 651.906591 234.657031 
L 654.189318 237.188274 
L 654.950227 237.662878 
L 655.711136 232.916806 
L 656.472045 233.39141 
L 657.232955 245.07412 
L 661.798409 264.523779 
L 662.559318 257.451159 
L 664.842045 257.370759 
L 665.602955 262.034714 
L 666.363864 257.370759 
L 667.124773 265.090377 
L 667.885682 279.725528 
L 670.168409 299.185402 
L 670.929318 288.892578 
L 671.690227 310.443201 
L 672.451136 351.453698 
L 672.451136 351.453698 
" style="fill:none;stroke:#1f77b4;stroke-linecap:square;stroke-width:1.5;"/>
   </g>
   <g id="line2d_17">
    <path clip-path="url(#p2c2cace4b9)" d="M 63.723864 337.042996 
L 64.484773 332.560195 
L 65.245682 325.32033 
L 66.006591 324.633823 
L 68.289318 324.975132 
L 69.050227 331.183544 
L 69.811136 331.183544 
L 70.572045 324.975132 
L 71.332955 323.943595 
L 73.615682 319.115638 
L 74.376591 313.942652 
L 75.1375 307.738002 
L 75.898409 305.671124 
L 76.659318 304.290711 
L 78.942045 293.948459 
L 79.702955 299.462923 
L 80.463864 272.224849 
L 81.224773 272.224849 
L 81.985682 253.607306 
L 84.268409 265.675128 
L 85.790227 260.502099 
L 86.551136 261.882554 
L 87.312045 269.122546 
L 89.594773 282.915978 
L 90.355682 266.020242 
L 91.116591 275.330873 
L 91.8775 279.464714 
L 92.638409 280.155068 
L 97.203864 266.020242 
L 97.964773 255.332833 
L 100.2475 256.368174 
L 101.008409 237.746911 
L 102.530227 221.545123 
L 103.291136 222.046833 
L 105.573864 221.319359 
L 106.334773 227.85868 
L 107.095682 240.577622 
L 107.856591 232.337253 
L 108.6175 228.334982 
L 110.900227 215.235793 
L 111.661136 217.420964 
L 112.422045 218.877815 
L 113.182955 222.151556 
L 113.943864 217.785187 
L 116.226591 213.054511 
L 116.9875 216.328336 
L 117.748409 221.423193 
L 118.509318 223.604306 
L 119.270227 228.334982 
L 121.552955 233.429628 
L 122.313864 233.429628 
L 123.074773 232.70135 
L 123.835682 234.522382 
L 124.596591 233.065531 
L 126.879318 225.061072 
L 127.640227 230.15593 
L 128.401136 224.33271 
L 129.162045 215.600016 
L 132.205682 218.51355 
L 132.966591 221.058928 
L 133.7275 220.694789 
L 134.488409 222.151556 
L 135.249318 226.153785 
L 137.532045 235.975175 
L 138.292955 233.793936 
L 139.053864 234.158117 
L 139.814773 226.51805 
L 140.575682 237.06776 
L 142.858409 245.800581 
L 144.380227 227.606535 
L 145.141136 235.246855 
L 145.902045 239.249042 
L 148.184773 237.431941 
L 148.945682 238.524527 
L 149.706591 235.610951 
L 150.4675 219.966427 
L 151.228409 219.237895 
L 153.511136 222.151556 
L 155.793864 264.354792 
L 156.554773 271.630804 
L 158.8375 270.906289 
L 160.359318 268.721244 
L 161.120227 253.804997 
L 161.881136 261.081009 
L 164.163864 267.628574 
L 164.924773 273.815975 
L 165.685682 269.449607 
L 166.446591 289.096403 
L 167.2075 295.279787 
L 169.490227 297.829181 
L 170.251136 279.635178 
L 171.012045 289.824681 
L 171.772955 282.913061 
L 174.816591 306.926141 
L 175.5775 309.835869 
L 176.338409 308.743199 
L 177.860227 302.550049 
L 180.142955 289.325084 
L 180.903864 310.565162 
L 181.664773 316.175724 
L 182.425682 340.62177 
L 183.186591 339.820268 
L 185.469318 348.636925 
L 186.230227 349.037677 
L 186.991136 351.843021 
L 187.752045 363.865605 
L 188.512955 360.258843 
L 190.795682 372.281427 
L 191.556591 357.052789 
L 192.3175 349.438428 
L 193.078409 360.258843 
L 193.839318 357.453583 
L 196.122045 359.056589 
L 196.882955 353.045191 
L 197.643864 363.865605 
L 198.404773 355.04899 
L 199.165682 349.438428 
L 201.448409 345.430914 
L 202.209318 333.007452 
L 202.970227 329.400689 
L 204.492045 327.797641 
L 207.535682 326.996181 
L 208.296591 325.793842 
L 209.0575 320.18328 
L 209.818409 311.366707 
L 212.101136 308.962198 
L 212.862045 300.947001 
L 213.622955 301.347837 
L 214.383864 295.336482 
L 215.144773 281.710849 
L 217.4275 292.531137 
L 218.188409 291.729677 
L 218.949318 278.104002 
L 219.710227 285.718363 
L 220.471136 286.92066 
L 222.753864 282.512225 
L 223.514773 299.744705 
L 224.275682 290.52738 
L 225.036591 288.122787 
L 225.7975 275.298742 
L 228.080227 281.710849 
L 228.841136 282.512225 
L 230.362955 300.145541 
L 231.123864 316.175724 
L 233.406591 318.179481 
L 234.1675 308.56132 
L 234.928409 309.362907 
L 235.689318 313.370421 
L 236.450227 318.580274 
L 238.732955 319.448026 
L 239.493864 328.453708 
L 240.254773 319.857402 
L 241.015682 330.500377 
L 241.776591 328.863 
L 244.059318 317.810691 
L 244.820227 324.360201 
L 245.581136 313.307935 
L 246.342045 331.319045 
L 247.102955 324.769577 
L 249.385682 329.074389 
L 250.146591 333.584332 
L 250.9075 333.584332 
L 251.668409 319.644745 
L 254.712045 320.054671 
L 255.472955 336.454235 
L 256.994773 331.534323 
L 257.755682 322.514648 
L 260.038409 316.36479 
L 260.799318 311.034995 
L 261.560227 311.445005 
L 262.321136 317.18481 
L 263.082045 312.674994 
L 265.364773 324.154562 
L 266.886591 317.18481 
L 267.6475 305.295148 
L 268.408409 303.245223 
L 270.691136 307.755082 
L 271.452045 290.945635 
L 272.212955 277.006174 
L 272.973864 280.28596 
L 273.734773 285.615882 
L 276.0175 259.376664 
L 276.778409 263.066545 
L 277.539318 274.136229 
L 278.300227 276.596122 
L 281.343864 273.726261 
L 282.104773 255.276815 
L 282.865682 259.376664 
L 283.626591 273.316166 
L 284.3875 274.136229 
L 286.670227 267.166436 
L 287.431136 267.986414 
L 288.192045 278.646088 
L 288.952955 273.726261 
L 289.713864 264.706501 
L 291.996591 270.856359 
L 292.7575 253.636816 
L 293.518409 256.506803 
L 294.279318 249.94702 
L 297.322955 245.847129 
L 298.844773 241.74728 
L 299.605682 254.046911 
L 300.366591 243.797162 
L 302.649318 248.307021 
L 303.410227 251.586934 
L 304.171136 243.797162 
L 305.692955 225.757726 
L 307.975682 222.477856 
L 309.4975 231.497531 
L 310.258409 231.907584 
L 311.019318 231.087648 
L 313.302045 240.107366 
L 314.062955 221.657962 
L 314.823864 210.178267 
L 315.584773 205.25844 
L 316.345682 211.408213 
L 318.628409 215.10414 
L 319.389318 222.495782 
L 320.150227 222.495782 
L 320.911136 209.765636 
L 321.672045 219.621228 
L 323.954773 234.81541 
L 324.715682 233.172832 
L 325.476591 228.244972 
L 326.2375 220.442559 
L 326.998409 217.15732 
L 329.281136 230.708881 
L 330.042045 228.321368 
L 331.563864 229.143249 
L 332.324773 234.485389 
L 336.129318 240.649325 
L 336.890227 232.430645 
L 337.651136 220.924569 
L 342.216591 192.981132 
L 342.9775 194.624809 
L 345.260227 195.035791 
L 346.782045 181.064031 
L 347.542955 184.762367 
L 348.303864 191.337371 
L 350.586591 183.529673 
L 351.3475 186.817027 
L 352.108409 186.406213 
L 352.869318 185.584332 
L 353.630227 185.995188 
L 355.912955 188.049848 
L 356.673864 190.51549 
L 357.434773 183.529673 
L 358.195682 174.900095 
L 361.239318 162.983036 
L 362.000227 172.023554 
L 362.761136 165.859491 
L 363.522045 162.572011 
L 364.282955 160.928249 
L 366.565682 150.244054 
L 367.326591 167.914193 
L 368.0875 191.337371 
L 368.848409 190.51549 
L 369.609318 173.667316 
L 371.892045 177.36561 
L 372.652955 168.325176 
L 373.413864 180.242235 
L 374.174773 166.681457 
L 374.935682 173.667316 
L 377.218409 184.762367 
L 377.979318 173.667316 
L 378.740227 174.900095 
L 379.501136 160.106495 
L 380.262045 174.780617 
L 382.544773 178.565835 
L 383.305682 178.145213 
L 384.066591 185.715732 
L 384.8275 197.071426 
L 385.588409 200.862774 
L 390.153864 199.599047 
L 390.914773 190.331201 
L 393.1975 175.586982 
L 393.958409 173.902 
L 394.719318 170.531866 
L 395.480227 179.378287 
L 398.523864 174.323171 
L 400.806591 200.020261 
L 401.5675 214.76448 
L 403.850227 213.500711 
L 404.611136 210.551834 
L 405.372045 235.827625 
L 406.132955 209.709322 
L 406.893864 212.658241 
L 409.176591 212.658241 
L 410.698409 222.34726 
L 411.459318 220.240894 
L 412.220227 208.866809 
L 414.502955 209.288023 
L 415.263864 216.870845 
L 416.024773 219.398382 
L 416.785682 225.717393 
L 417.546591 230.772552 
L 419.829318 231.615022 
L 420.590227 227.402333 
L 421.351136 234.142643 
L 422.112045 229.087442 
L 425.155682 230.772552 
L 425.916591 218.134529 
L 426.6775 218.134529 
L 427.438409 210.130578 
L 428.199318 210.97309 
L 430.482045 220.240894 
L 431.242955 215.607077 
L 432.764773 213.921968 
L 433.525682 221.504705 
L 435.808409 235.406454 
L 436.569318 235.406454 
L 437.330227 231.193723 
L 438.091136 233.300088 
L 438.852045 234.985155 
L 441.134773 243.410405 
L 441.895682 242.567893 
L 442.656591 243.410405 
L 443.4175 250.571886 
L 444.178409 250.571886 
L 446.461136 235.406454 
L 447.222045 220.662235 
L 447.982955 223.611028 
L 448.743864 225.296053 
L 449.504773 230.772552 
L 451.7875 229.508741 
L 453.309318 205.075377 
L 454.070227 197.913938 
L 454.831136 195.386359 
L 457.113864 193.276654 
L 457.874773 192.010814 
L 458.635682 204.669214 
L 459.396591 198.761947 
L 460.1575 194.120477 
L 462.440227 202.137492 
L 463.201136 200.871694 
L 463.962045 203.40329 
L 464.722955 210.154422 
L 465.483864 211.84228 
L 467.766591 212.264128 
L 468.5275 202.559424 
L 469.288409 194.964427 
L 470.810227 185.681571 
L 473.092955 183.571908 
L 473.853864 186.525521 
L 474.614773 169.647795 
L 475.375682 171.335525 
L 476.136591 173.44523 
L 478.419318 172.179433 
L 479.180227 178.0867 
L 480.702045 162.474729 
L 481.462955 157.411369 
L 483.745682 156.989394 
L 485.2675 154.457757 
L 486.028409 160.364982 
L 486.789318 168.803845 
L 489.072045 170.913635 
L 489.832955 173.44523 
L 490.593864 171.757458 
L 491.354773 159.943007 
L 492.115682 166.694098 
L 495.159318 155.301664 
L 495.920227 156.145529 
L 496.681136 173.023382 
L 497.442045 168.381913 
L 499.724773 169.22582 
L 500.485682 178.0867 
L 501.246591 191.166949 
L 502.0075 187.791361 
L 502.768409 191.588881 
L 505.051136 200.027787 
L 505.812045 183.150018 
L 506.572955 169.22582 
L 507.333864 163.74057 
L 508.094773 166.272207 
L 510.3775 185.681571 
L 511.138409 172.179433 
L 511.899318 179.352498 
L 513.421136 175.05369 
L 515.703864 184.590127 
L 516.464773 192.826226 
L 517.225682 186.324025 
L 517.986591 194.993598 
L 518.7475 202.362706 
L 521.030227 204.530036 
L 522.552045 188.491482 
L 523.312955 185.890551 
L 524.073864 184.590127 
L 526.356591 190.234469 
L 527.1175 198.484055 
L 527.878409 190.234469 
L 528.639318 171.13052 
L 529.400227 155.065796 
L 531.682955 148.118875 
L 532.443864 153.763301 
L 533.204773 155.499989 
L 533.965682 148.118875 
L 534.726591 145.947951 
L 537.009318 147.684724 
L 537.770227 145.079607 
L 538.531136 144.211221 
L 539.292045 149.421412 
L 540.052955 142.474491 
L 543.096591 150.289714 
L 543.8575 146.816295 
L 544.618409 134.659225 
L 545.379318 135.961762 
L 547.662045 145.079607 
L 548.422955 155.065796 
L 549.183864 168.091295 
L 549.944773 174.603981 
L 550.705682 174.169788 
L 552.988409 188.497823 
L 553.749318 190.234469 
L 554.510227 181.985053 
L 555.271136 177.643248 
L 556.032045 165.920371 
L 558.314773 156.802484 
L 559.075682 155.93414 
L 559.836591 145.5138 
L 560.5975 146.382144 
L 561.358409 149.855647 
L 563.641136 141.606147 
L 564.402045 128.58069 
L 565.162955 124.238886 
L 565.923864 124.673079 
L 566.684773 118.594459 
L 568.9675 113.38431 
L 569.728409 119.028695 
L 570.489318 111.647622 
L 571.250227 122.06792 
L 572.011136 119.896996 
L 574.293864 113.818504 
L 575.054773 106.437389 
L 575.815682 111.213387 
L 576.576591 112.081773 
L 577.3375 119.896996 
L 579.620227 114.252654 
L 580.381136 121.199618 
L 581.142045 131.185765 
L 581.902955 125.54138 
L 584.946591 126.84396 
L 585.7075 134.659225 
L 587.229318 130.751614 
L 587.990227 122.06792 
L 590.272955 136.395956 
L 591.033864 150.289714 
L 591.794773 143.342877 
L 592.555682 142.040298 
L 593.316591 141.171953 
L 595.599318 136.388768 
L 596.360227 137.69325 
L 597.121136 123.77848 
L 597.882045 126.387444 
L 598.642955 132.040368 
L 600.925682 122.473914 
L 601.686591 123.343611 
L 602.4475 125.082962 
L 603.208409 125.952617 
L 603.969318 121.343532 
L 606.252045 126.998908 
L 607.012955 115.688155 
L 607.773864 109.59774 
L 608.534773 109.162786 
L 609.295682 114.818078 
L 611.578409 110.467818 
L 613.861136 100.027142 
L 614.622045 102.637332 
L 616.904773 104.377445 
L 619.1875 93.066692 
L 619.948409 102.202294 
L 622.231136 103.50741 
L 623.752955 120.908493 
L 624.513864 132.654285 
L 625.274773 136.569506 
L 627.5575 128.739021 
L 628.318409 122.213567 
L 629.079318 131.784207 
L 629.840227 130.479133 
L 630.601136 125.693792 
L 632.883864 133.959316 
L 633.644773 147.445178 
L 634.405682 139.179654 
L 635.166591 127.868943 
L 635.9275 136.569506 
L 638.210227 149.18529 
L 638.971136 147.010224 
L 639.732045 153.100554 
L 640.492955 148.315255 
L 641.253864 157.885896 
L 643.536591 158.320892 
L 644.2975 157.015818 
L 645.058409 153.970632 
L 645.819318 159.625966 
L 646.580227 160.931082 
L 648.862955 149.620329 
L 649.623864 139.614692 
L 650.384773 135.699471 
L 651.145682 144.399991 
L 651.906591 151.795438 
L 654.189318 151.795438 
L 654.950227 143.529956 
L 655.711136 137.004502 
L 656.472045 140.919766 
L 657.232955 150.390927 
L 661.798409 191.993142 
L 662.559318 185.797074 
L 664.842045 171.610965 
L 665.602955 179.590649 
L 666.363864 176.487457 
L 667.124773 192.890108 
L 667.885682 204.859591 
L 670.168409 237.221609 
L 670.929318 227.025342 
L 671.690227 259.830685 
L 672.451136 306.378728 
L 672.451136 306.378728 
" style="fill:none;stroke:#ff7f0e;stroke-linecap:square;stroke-width:1.5;"/>
   </g>
   <g id="line2d_18">
    <path clip-path="url(#p2c2cace4b9)" d="M 63.723864 337.042996 
L 64.484773 338.433617 
L 65.245682 329.741991 
L 66.006591 329.741991 
L 68.289318 325.570727 
L 69.050227 331.48124 
L 69.811136 331.133767 
L 70.572045 325.918586 
L 71.332955 324.530788 
L 73.615682 318.271819 
L 74.376591 316.532184 
L 75.898409 303.326356 
L 76.659318 307.49762 
L 78.942045 294.635928 
L 79.702955 297.763274 
L 80.463864 278.990643 
L 81.224773 278.990643 
L 81.985682 255.354539 
L 84.268409 261.60953 
L 85.029318 264.741026 
L 85.790227 260.221775 
L 86.551136 261.261672 
L 87.312045 263.697194 
L 89.594773 268.912203 
L 90.355682 264.741026 
L 91.116591 265.433064 
L 91.8775 273.431453 
L 92.638409 278.642742 
L 97.203864 258.830085 
L 97.964773 248.055801 
L 100.2475 252.226979 
L 101.008409 217.117152 
L 101.769318 206.338932 
L 102.530227 201.127815 
L 103.291136 194.5366 
L 105.573864 192.688956 
L 106.334773 206.379997 
L 107.095682 224.507132 
L 107.856591 213.525253 
L 108.6175 215.375336 
L 110.900227 212.78368 
L 111.661136 205.004605 
L 112.422045 200.558845 
L 113.182955 202.408885 
L 113.943864 205.746264 
L 116.226591 184.630037 
L 116.9875 180.555106 
L 117.748409 191.667453 
L 118.509318 191.296538 
L 119.270227 198.333954 
L 121.552955 209.821194 
L 122.313864 209.821194 
L 123.074773 213.154509 
L 123.835682 220.562584 
L 124.596591 207.596304 
L 126.879318 197.22553 
L 127.640227 207.596304 
L 128.401136 200.558845 
L 129.162045 198.704827 
L 132.205682 208.708706 
L 132.966591 210.18796 
L 133.7275 208.33792 
L 134.488409 210.929533 
L 135.249318 212.412808 
L 137.532045 204.633818 
L 138.292955 208.33792 
L 139.053864 214.262848 
L 139.814773 203.521373 
L 140.575682 215.746037 
L 142.858409 217.97097 
L 143.619318 215.004464 
L 144.380227 209.821194 
L 145.141136 222.783453 
L 145.902045 217.600184 
L 148.184773 222.045901 
L 148.945682 214.633635 
L 149.706591 217.97097 
L 150.4675 207.225389 
L 151.228409 203.521373 
L 153.511136 200.558845 
L 156.554773 247.974654 
L 158.8375 242.787235 
L 159.598409 241.678854 
L 160.359318 242.049726 
L 161.120227 232.045803 
L 161.881136 239.45392 
L 164.163864 243.528851 
L 164.924773 253.532859 
L 165.685682 246.124614 
L 166.446591 264.645078 
L 167.2075 264.645078 
L 169.490227 265.757523 
L 170.251136 259.457745 
L 171.012045 260.199361 
L 171.772955 261.311806 
L 172.533864 260.570147 
L 174.816591 287.244665 
L 176.338409 280.573972 
L 177.860227 269.335862 
L 180.142955 261.175648 
L 180.903864 275.04802 
L 181.664773 278.720167 
L 182.425682 301.160668 
L 183.186591 300.752752 
L 186.230227 312.993029 
L 186.991136 322.785294 
L 187.752045 325.641351 
L 188.512955 331.761597 
L 190.795682 337.065625 
L 191.556591 317.481138 
L 192.3175 309.320925 
L 193.078409 321.561287 
L 193.839318 328.905497 
L 196.122045 322.785294 
L 196.882955 324.417388 
L 197.643864 326.457398 
L 198.404773 316.665091 
L 199.165682 313.401074 
L 201.448409 309.320925 
L 202.209318 295.040551 
L 202.970227 290.14444 
L 204.492045 286.880338 
L 207.535682 295.040551 
L 208.296591 290.14444 
L 209.0575 290.960444 
L 209.818409 282.800231 
L 212.101136 285.656246 
L 212.862045 282.800231 
L 213.622955 273.415968 
L 214.383864 274.639932 
L 215.144773 266.071759 
L 217.4275 264.439665 
L 218.188409 268.519857 
L 218.949318 250.159334 
L 219.710227 248.119367 
L 220.471136 263.623747 
L 222.753864 260.359644 
L 223.514773 276.680071 
L 224.275682 270.967913 
L 225.036591 268.519857 
L 225.7975 255.055445 
L 228.080227 260.359644 
L 229.602045 268.519857 
L 230.362955 274.232015 
L 231.123864 293.000583 
L 233.406591 286.880338 
L 234.1675 281.576139 
L 234.928409 282.800231 
L 235.689318 286.064376 
L 236.450227 288.104387 
L 238.732955 288.154264 
L 239.493864 298.561141 
L 240.254773 292.317101 
L 241.015682 301.475033 
L 241.776591 296.479766 
L 244.059318 293.565917 
L 244.820227 296.063508 
L 245.581136 286.489189 
L 246.342045 299.809873 
L 247.102955 300.642517 
L 249.385682 296.265071 
L 250.146591 300.017167 
L 250.9075 298.349654 
L 251.668409 294.180658 
L 254.712045 284.175024 
L 255.472955 301.267823 
L 256.233864 300.017167 
L 256.994773 302.101623 
L 257.755682 291.679218 
L 260.038409 285.84258 
L 260.799318 281.256813 
L 261.560227 279.172229 
L 262.321136 286.259523 
L 263.082045 280.422971 
L 265.364773 288.761006 
L 266.125682 288.343978 
L 266.886591 282.924368 
L 267.6475 275.003275 
L 268.408409 279.589214 
L 270.691136 282.090569 
L 271.452045 268.749781 
L 272.212955 253.324623 
L 272.973864 257.07672 
L 273.734773 257.07672 
L 276.0175 246.237372 
L 276.778409 244.569774 
L 277.539318 252.907681 
L 278.300227 255.409164 
L 281.343864 255.825978 
L 282.104773 243.319075 
L 282.865682 245.403616 
L 283.626591 250.823268 
L 284.3875 252.490824 
L 286.670227 245.403616 
L 287.431136 244.986631 
L 288.192045 246.237372 
L 288.952955 245.82043 
L 289.713864 238.733222 
L 291.996591 247.071129 
L 292.7575 229.56143 
L 293.518409 227.060032 
L 294.279318 221.223438 
L 297.322955 213.302473 
L 298.083864 211.634875 
L 298.844773 207.465921 
L 299.605682 221.223438 
L 300.366591 213.719373 
L 302.649318 214.970072 
L 303.410227 216.637585 
L 304.171136 212.885574 
L 305.692955 196.209674 
L 307.975682 195.375789 
L 309.4975 198.294087 
L 310.258409 197.043431 
L 311.019318 202.046183 
L 313.302045 205.798323 
L 314.062955 190.789893 
L 314.823864 180.367531 
L 315.584773 173.280195 
L 316.345682 183.702728 
L 318.628409 184.955352 
L 319.389318 184.537853 
L 320.150227 201.239847 
L 320.911136 182.032563 
L 321.672045 187.878226 
L 323.954773 199.569639 
L 324.715682 197.481847 
L 325.476591 185.790563 
L 326.2375 178.692105 
L 326.998409 177.857065 
L 329.281136 194.141474 
L 330.042045 177.090211 
L 330.802955 181.686245 
L 331.563864 178.343733 
L 332.324773 184.610916 
L 336.129318 174.583338 
L 336.890227 178.343733 
L 337.651136 161.630875 
L 341.455682 144.082335 
L 342.216591 132.383479 
L 342.9775 129.458766 
L 345.260227 137.397268 
L 346.021136 134.890438 
L 346.782045 123.609252 
L 347.542955 119.848814 
L 348.303864 119.013176 
L 350.586591 121.102251 
L 352.108409 126.533966 
L 352.869318 125.698242 
L 353.630227 110.656747 
L 355.912955 116.9241 
L 356.673864 118.177494 
L 357.434773 114.417142 
L 358.195682 109.821108 
L 361.239318 94.779655 
L 362.000227 89.765781 
L 362.761136 78.902435 
L 363.522045 69.71041 
L 364.282955 67.621292 
L 366.565682 53.833234 
L 367.326591 57.593586 
L 368.0875 75.14204 
L 368.848409 86.005385 
L 369.609318 65.532174 
L 371.892045 58.429225 
L 372.652955 52.161913 
L 373.413864 30.017511 
L 374.174773 29.18183 
L 374.935682 45.894602 
L 377.218409 48.401604 
L 377.979318 38.37394 
L 378.740227 25.003636 
L 379.501136 33.777863 
L 380.262045 49.490051 
L 382.544773 60.989825 
L 383.305682 69.508292 
L 384.066591 65.675005 
L 384.8275 78.452555 
L 385.588409 78.878994 
L 390.153864 78.878994 
L 390.914773 76.746543 
L 393.1975 71.628765 
L 393.958409 66.937382 
L 394.719318 68.216827 
L 395.480227 77.173068 
L 396.241136 69.922796 
L 398.523864 66.084376 
L 399.284773 67.790345 
L 400.045682 66.084376 
L 400.806591 65.657895 
L 401.5675 89.541247 
L 403.850227 87.835235 
L 404.611136 88.261802 
L 405.372045 105.321278 
L 406.132955 90.394253 
L 406.893864 92.100179 
L 409.176591 107.88021 
L 409.9375 115.130525 
L 410.698409 128.778149 
L 411.459318 124.513291 
L 412.220227 124.513291 
L 414.502955 122.38084 
L 415.263864 134.748934 
L 416.785682 141.999291 
L 417.546591 150.102526 
L 419.829318 135.175501 
L 420.590227 141.146285 
L 421.351136 150.102526 
L 422.112045 139.866798 
L 425.155682 143.70526 
L 425.916591 132.190001 
L 426.6775 130.910557 
L 427.438409 127.925186 
L 428.199318 120.248389 
L 430.482045 130.910557 
L 431.242955 128.778149 
L 432.764773 131.337081 
L 433.525682 137.307908 
L 435.808409 145.837711 
L 436.569318 156.926359 
L 437.330227 145.411144 
L 438.091136 146.264192 
L 438.852045 151.382014 
L 441.134773 163.323711 
L 441.895682 162.897144 
L 442.656591 163.323711 
L 443.4175 177.824298 
L 444.178409 167.162131 
L 446.461136 154.367427 
L 447.222045 142.852254 
L 447.982955 139.440273 
L 448.743864 152.661458 
L 449.504773 149.676045 
L 451.7875 143.70526 
L 453.309318 123.23376 
L 454.070227 115.55705 
L 454.831136 111.71863 
L 457.113864 115.98952 
L 457.874773 115.135273 
L 458.635682 125.385546 
L 459.396591 121.114571 
L 460.1575 112.999914 
L 462.440227 121.541694 
L 463.962045 130.083431 
L 464.722955 147.167033 
L 465.483864 146.312872 
L 467.766591 142.041982 
L 468.5275 130.510597 
L 469.288409 125.385546 
L 470.810227 116.4166 
L 473.092955 120.68749 
L 473.853864 129.22927 
L 474.614773 116.843681 
L 475.375682 149.302478 
L 476.136591 155.281775 
L 478.419318 151.437965 
L 479.180227 150.583762 
L 479.941136 162.115147 
L 480.702045 151.437965 
L 481.462955 143.323223 
L 483.745682 142.896186 
L 485.2675 140.333618 
L 486.028409 141.187864 
L 486.789318 149.302478 
L 489.072045 152.292169 
L 489.832955 151.010842 
L 490.593864 151.437965 
L 491.354773 140.760655 
L 492.115682 147.167033 
L 494.398409 140.333618 
L 495.159318 136.489851 
L 495.920227 134.781444 
L 496.681136 151.437965 
L 497.442045 155.281775 
L 499.724773 159.552622 
L 500.485682 155.281775 
L 501.246591 176.209143 
L 502.0075 187.740572 
L 502.768409 196.282351 
L 505.051136 204.824131 
L 505.812045 185.605041 
L 506.572955 169.802809 
L 507.333864 159.552622 
L 508.094773 161.260944 
L 510.3775 172.36542 
L 511.138409 181.334194 
L 511.899318 179.198749 
L 513.421136 173.115035 
L 515.703864 182.331656 
L 516.464773 188.475942 
L 517.225682 180.576024 
L 517.986591 187.598254 
L 518.7475 192.864852 
L 521.030227 192.864852 
L 521.791136 188.037056 
L 522.552045 181.014953 
L 524.073864 170.481714 
L 526.356591 173.558841 
L 527.1175 181.471507 
L 527.878409 175.317168 
L 528.639318 161.689906 
L 529.400227 150.260628 
L 531.682955 143.666718 
L 532.443864 149.820971 
L 533.965682 139.270793 
L 534.726591 137.072894 
L 537.009318 144.10629 
L 537.770227 137.072894 
L 538.531136 136.193624 
L 539.292045 140.149978 
L 540.052955 145.864617 
L 542.335682 139.710407 
L 543.096591 142.787533 
L 543.8575 142.347919 
L 544.618409 129.599842 
L 545.379318 130.478985 
L 547.662045 133.995725 
L 548.422955 143.666718 
L 549.183864 161.250335 
L 549.944773 159.491965 
L 550.705682 164.767033 
L 552.988409 178.394337 
L 553.749318 176.196311 
L 554.510227 171.360899 
L 555.271136 161.250335 
L 556.032045 146.304231 
L 558.314773 136.193624 
L 559.075682 141.468734 
L 559.836591 119.928806 
L 560.5975 118.610093 
L 561.358409 132.237355 
L 563.641136 124.764346 
L 564.402045 112.895411 
L 565.162955 110.69747 
L 565.923864 114.214167 
L 566.684773 106.301544 
L 568.9675 104.103603 
L 569.728409 108.059957 
L 570.489318 102.345233 
L 571.250227 110.69747 
L 572.011136 110.69747 
L 574.293864 104.103603 
L 575.054773 101.026476 
L 575.815682 103.664032 
L 576.576591 99.70772 
L 577.3375 112.895411 
L 579.620227 109.378671 
L 580.381136 115.972495 
L 581.142045 120.36842 
L 581.902955 115.093352 
L 584.946591 115.972495 
L 585.7075 127.401858 
L 587.990227 115.532966 
L 590.272955 124.764346 
L 591.033864 141.468734 
L 591.794773 131.358213 
L 593.316591 133.116583 
L 595.599318 122.990747 
L 596.360227 127.393303 
L 597.121136 115.506445 
L 597.882045 114.185678 
L 598.642955 120.789426 
L 600.925682 109.783165 
L 601.686591 109.783165 
L 602.4475 114.185678 
L 603.208409 105.820865 
L 603.969318 107.320566 
L 606.252045 113.046327 
L 607.773864 94.547764 
L 608.534773 100.713951 
L 609.295682 101.154378 
L 611.578409 98.511732 
L 613.861136 94.988233 
L 614.622045 96.309513 
L 616.904773 98.511732 
L 619.1875 91.464691 
L 619.948409 90.143369 
L 622.231136 96.309513 
L 622.992045 102.475744 
L 624.513864 119.212471 
L 625.274773 121.855117 
L 627.5575 113.927223 
L 628.318409 111.724961 
L 629.079318 120.533794 
L 629.840227 120.974264 
L 630.601136 114.808076 
L 632.883864 120.533794 
L 633.644773 131.544804 
L 634.405682 122.736056 
L 635.166591 112.16543 
L 635.9275 117.891191 
L 638.210227 131.544804 
L 638.971136 129.342627 
L 639.732045 130.66395 
L 640.492955 123.176483 
L 641.253864 139.472784 
L 643.536591 135.508815 
L 645.058409 133.747065 
L 645.819318 138.151503 
L 646.580227 139.913253 
L 648.862955 133.306639 
L 649.623864 124.938232 
L 650.384773 120.533794 
L 651.145682 120.974264 
L 651.906591 127.140451 
L 654.189318 128.021305 
L 654.950227 120.533794 
L 655.711136 105.558816 
L 656.472045 114.808076 
L 657.232955 128.422462 
L 661.798409 155.292811 
L 662.559318 146.783884 
L 664.842045 133.776068 
L 665.602955 144.989667 
L 666.363864 137.81297 
L 667.124773 140.952764 
L 667.885682 152.166363 
L 670.168409 174.593561 
L 670.929318 158.894548 
L 671.690227 192.535345 
L 672.451136 233.352838 
L 672.451136 233.352838 
" style="fill:none;stroke:#2ca02c;stroke-linecap:square;stroke-width:1.5;"/>
   </g>
   <g id="patch_3">
    <path d="M 33.2875 398.88 
L 33.2875 7.2 
" style="fill:none;stroke:#000000;stroke-linecap:square;stroke-linejoin:miter;stroke-width:0.8;"/>
   </g>
   <g id="patch_4">
    <path d="M 702.8875 398.88 
L 702.8875 7.2 
" style="fill:none;stroke:#000000;stroke-linecap:square;stroke-linejoin:miter;stroke-width:0.8;"/>
   </g>
   <g id="patch_5">
    <path d="M 33.2875 398.88 
L 702.8875 398.88 
" style="fill:none;stroke:#000000;stroke-linecap:square;stroke-linejoin:miter;stroke-width:0.8;"/>
   </g>
   <g id="patch_6">
    <path d="M 33.2875 7.2 
L 702.8875 7.2 
" style="fill:none;stroke:#000000;stroke-linecap:square;stroke-linejoin:miter;stroke-width:0.8;"/>
   </g>
   <g id="legend_1">
    <g id="patch_7">
     <path d="M 617.91875 59.234375 
L 695.8875 59.234375 
Q 697.8875 59.234375 697.8875 57.234375 
L 697.8875 14.2 
Q 697.8875 12.2 695.8875 12.2 
L 617.91875 12.2 
Q 615.91875 12.2 615.91875 14.2 
L 615.91875 57.234375 
Q 615.91875 59.234375 617.91875 59.234375 
z
" style="fill:#ffffff;opacity:0.8;stroke:#cccccc;stroke-linejoin:miter;"/>
    </g>
    <g id="line2d_19">
     <path d="M 619.91875 20.298437 
L 639.91875 20.298437 
" style="fill:none;stroke:#1f77b4;stroke-linecap:square;stroke-width:1.5;"/>
    </g>
    <g id="line2d_20"/>
    <g id="text_17">
     <!-- ITUB3.SA -->
     <defs>
      <path d="M 9.8125 72.90625 
L 19.671875 72.90625 
L 19.671875 0 
L 9.8125 0 
z
" id="DejaVuSans-73"/>
      <path d="M -0.296875 72.90625 
L 61.375 72.90625 
L 61.375 64.59375 
L 35.5 64.59375 
L 35.5 0 
L 25.59375 0 
L 25.59375 64.59375 
L -0.296875 64.59375 
z
" id="DejaVuSans-84"/>
      <path d="M 8.6875 72.90625 
L 18.609375 72.90625 
L 18.609375 28.609375 
Q 18.609375 16.890625 22.84375 11.734375 
Q 27.09375 6.59375 36.625 6.59375 
Q 46.09375 6.59375 50.34375 11.734375 
Q 54.59375 16.890625 54.59375 28.609375 
L 54.59375 72.90625 
L 64.5 72.90625 
L 64.5 27.390625 
Q 64.5 13.140625 57.4375 5.859375 
Q 50.390625 -1.421875 36.625 -1.421875 
Q 22.796875 -1.421875 15.734375 5.859375 
Q 8.6875 13.140625 8.6875 27.390625 
z
" id="DejaVuSans-85"/>
      <path d="M 19.671875 34.8125 
L 19.671875 8.109375 
L 35.5 8.109375 
Q 43.453125 8.109375 47.28125 11.40625 
Q 51.125 14.703125 51.125 21.484375 
Q 51.125 28.328125 47.28125 31.5625 
Q 43.453125 34.8125 35.5 34.8125 
z
M 19.671875 64.796875 
L 19.671875 42.828125 
L 34.28125 42.828125 
Q 41.5 42.828125 45.03125 45.53125 
Q 48.578125 48.25 48.578125 53.8125 
Q 48.578125 59.328125 45.03125 62.0625 
Q 41.5 64.796875 34.28125 64.796875 
z
M 9.8125 72.90625 
L 35.015625 72.90625 
Q 46.296875 72.90625 52.390625 68.21875 
Q 58.5 63.53125 58.5 54.890625 
Q 58.5 48.1875 55.375 44.234375 
Q 52.25 40.28125 46.1875 39.3125 
Q 53.46875 37.75 57.5 32.78125 
Q 61.53125 27.828125 61.53125 20.40625 
Q 61.53125 10.640625 54.890625 5.3125 
Q 48.25 0 35.984375 0 
L 9.8125 0 
z
" id="DejaVuSans-66"/>
      <path d="M 40.578125 39.3125 
Q 47.65625 37.796875 51.625 33 
Q 55.609375 28.21875 55.609375 21.1875 
Q 55.609375 10.40625 48.1875 4.484375 
Q 40.765625 -1.421875 27.09375 -1.421875 
Q 22.515625 -1.421875 17.65625 -0.515625 
Q 12.796875 0.390625 7.625 2.203125 
L 7.625 11.71875 
Q 11.71875 9.328125 16.59375 8.109375 
Q 21.484375 6.890625 26.8125 6.890625 
Q 36.078125 6.890625 40.9375 10.546875 
Q 45.796875 14.203125 45.796875 21.1875 
Q 45.796875 27.640625 41.28125 31.265625 
Q 36.765625 34.90625 28.71875 34.90625 
L 20.21875 34.90625 
L 20.21875 43.015625 
L 29.109375 43.015625 
Q 36.375 43.015625 40.234375 45.921875 
Q 44.09375 48.828125 44.09375 54.296875 
Q 44.09375 59.90625 40.109375 62.90625 
Q 36.140625 65.921875 28.71875 65.921875 
Q 24.65625 65.921875 20.015625 65.03125 
Q 15.375 64.15625 9.8125 62.3125 
L 9.8125 71.09375 
Q 15.4375 72.65625 20.34375 73.4375 
Q 25.25 74.21875 29.59375 74.21875 
Q 40.828125 74.21875 47.359375 69.109375 
Q 53.90625 64.015625 53.90625 55.328125 
Q 53.90625 49.265625 50.4375 45.09375 
Q 46.96875 40.921875 40.578125 39.3125 
z
" id="DejaVuSans-51"/>
      <path d="M 10.6875 12.40625 
L 21 12.40625 
L 21 0 
L 10.6875 0 
z
" id="DejaVuSans-46"/>
      <path d="M 53.515625 70.515625 
L 53.515625 60.890625 
Q 47.90625 63.578125 42.921875 64.890625 
Q 37.9375 66.21875 33.296875 66.21875 
Q 25.25 66.21875 20.875 63.09375 
Q 16.5 59.96875 16.5 54.203125 
Q 16.5 49.359375 19.40625 46.890625 
Q 22.3125 44.4375 30.421875 42.921875 
L 36.375 41.703125 
Q 47.40625 39.59375 52.65625 34.296875 
Q 57.90625 29 57.90625 20.125 
Q 57.90625 9.515625 50.796875 4.046875 
Q 43.703125 -1.421875 29.984375 -1.421875 
Q 24.8125 -1.421875 18.96875 -0.25 
Q 13.140625 0.921875 6.890625 3.21875 
L 6.890625 13.375 
Q 12.890625 10.015625 18.65625 8.296875 
Q 24.421875 6.59375 29.984375 6.59375 
Q 38.421875 6.59375 43.015625 9.90625 
Q 47.609375 13.234375 47.609375 19.390625 
Q 47.609375 24.75 44.3125 27.78125 
Q 41.015625 30.8125 33.5 32.328125 
L 27.484375 33.5 
Q 16.453125 35.6875 11.515625 40.375 
Q 6.59375 45.0625 6.59375 53.421875 
Q 6.59375 63.09375 13.40625 68.65625 
Q 20.21875 74.21875 32.171875 74.21875 
Q 37.3125 74.21875 42.625 73.28125 
Q 47.953125 72.359375 53.515625 70.515625 
z
" id="DejaVuSans-83"/>
      <path d="M 34.1875 63.1875 
L 20.796875 26.90625 
L 47.609375 26.90625 
z
M 28.609375 72.90625 
L 39.796875 72.90625 
L 67.578125 0 
L 57.328125 0 
L 50.6875 18.703125 
L 17.828125 18.703125 
L 11.1875 0 
L 0.78125 0 
z
" id="DejaVuSans-65"/>
     </defs>
     <g transform="translate(647.91875 23.798437)scale(0.1 -0.1)">
      <use xlink:href="#DejaVuSans-73"/>
      <use x="29.492188" xlink:href="#DejaVuSans-84"/>
      <use x="90.576172" xlink:href="#DejaVuSans-85"/>
      <use x="163.769531" xlink:href="#DejaVuSans-66"/>
      <use x="232.373047" xlink:href="#DejaVuSans-51"/>
      <use x="295.996094" xlink:href="#DejaVuSans-46"/>
      <use x="327.783203" xlink:href="#DejaVuSans-83"/>
      <use x="391.275391" xlink:href="#DejaVuSans-65"/>
     </g>
    </g>
    <g id="line2d_21">
     <path d="M 619.91875 34.976562 
L 639.91875 34.976562 
" style="fill:none;stroke:#ff7f0e;stroke-linecap:square;stroke-width:1.5;"/>
    </g>
    <g id="line2d_22"/>
    <g id="text_18">
     <!-- ITSA4.SA -->
     <g transform="translate(647.91875 38.476562)scale(0.1 -0.1)">
      <use xlink:href="#DejaVuSans-73"/>
      <use x="29.492188" xlink:href="#DejaVuSans-84"/>
      <use x="90.576172" xlink:href="#DejaVuSans-83"/>
      <use x="154.068359" xlink:href="#DejaVuSans-65"/>
      <use x="222.476562" xlink:href="#DejaVuSans-52"/>
      <use x="286.099609" xlink:href="#DejaVuSans-46"/>
      <use x="317.886719" xlink:href="#DejaVuSans-83"/>
      <use x="381.378906" xlink:href="#DejaVuSans-65"/>
     </g>
    </g>
    <g id="line2d_23">
     <path d="M 619.91875 49.654687 
L 639.91875 49.654687 
" style="fill:none;stroke:#2ca02c;stroke-linecap:square;stroke-width:1.5;"/>
    </g>
    <g id="line2d_24"/>
    <g id="text_19">
     <!-- ITSA3.SA -->
     <g transform="translate(647.91875 53.154687)scale(0.1 -0.1)">
      <use xlink:href="#DejaVuSans-73"/>
      <use x="29.492188" xlink:href="#DejaVuSans-84"/>
      <use x="90.576172" xlink:href="#DejaVuSans-83"/>
      <use x="154.068359" xlink:href="#DejaVuSans-65"/>
      <use x="222.476562" xlink:href="#DejaVuSans-51"/>
      <use x="286.099609" xlink:href="#DejaVuSans-46"/>
      <use x="317.886719" xlink:href="#DejaVuSans-83"/>
      <use x="381.378906" xlink:href="#DejaVuSans-65"/>
     </g>
    </g>
   </g>
  </g>
 </g>
 <defs>
  <clipPath id="p2c2cace4b9">
   <rect height="391.68" width="669.6" x="33.2875" y="7.2"/>
  </clipPath>
 </defs>
</svg>
