<?xml version="1.0" encoding="utf-8" standalone="no"?>
<!DOCTYPE svg PUBLIC "-//W3C//DTD SVG 1.1//EN"
  "http://www.w3.org/Graphics/SVG/1.1/DTD/svg11.dtd">
<!-- Created with matplotlib (https://matplotlib.org/) -->
<svg height="456.031033pt" version="1.1" viewBox="0 0 728.007812 456.031033" width="728.007812pt" xmlns="http://www.w3.org/2000/svg" xmlns:xlink="http://www.w3.org/1999/xlink">
 <defs>
  <style type="text/css">
*{stroke-linecap:butt;stroke-linejoin:round;}
  </style>
 </defs>
 <g id="figure_1">
  <g id="patch_1">
   <path d="M -0 456.031033 
L 728.007812 456.031033 
L 728.007812 0 
L -0 0 
z
" style="fill:none;"/>
  </g>
  <g id="axes_1">
   <g id="patch_2">
    <path d="M 51.207813 398.88 
L 720.807813 398.88 
L 720.807813 7.2 
L 51.207813 7.2 
z
" style="fill:#ffffff;"/>
   </g>
   <g id="matplotlib.axis_1">
    <g id="xtick_1">
     <g id="line2d_1">
      <defs>
       <path d="M 0 0 
L 0 3.5 
" id="m589e35148b" style="stroke:#000000;stroke-width:0.8;"/>
      </defs>
      <g>
       <use style="stroke:#000000;stroke-width:0.8;" x="80.120453" xlink:href="#m589e35148b" y="398.88"/>
      </g>
     </g>
     <g id="text_1">
      <!-- 2018-01 -->
      <defs>
       <path d="M 19.1875 8.296875 
L 53.609375 8.296875 
L 53.609375 0 
L 7.328125 0 
L 7.328125 8.296875 
Q 12.9375 14.109375 22.625 23.890625 
Q 32.328125 33.6875 34.8125 36.53125 
Q 39.546875 41.84375 41.421875 45.53125 
Q 43.3125 49.21875 43.3125 52.78125 
Q 43.3125 58.59375 39.234375 62.25 
Q 35.15625 65.921875 28.609375 65.921875 
Q 23.96875 65.921875 18.8125 64.3125 
Q 13.671875 62.703125 7.8125 59.421875 
L 7.8125 69.390625 
Q 13.765625 71.78125 18.9375 73 
Q 24.125 74.21875 28.421875 74.21875 
Q 39.75 74.21875 46.484375 68.546875 
Q 53.21875 62.890625 53.21875 53.421875 
Q 53.21875 48.921875 51.53125 44.890625 
Q 49.859375 40.875 45.40625 35.40625 
Q 44.1875 33.984375 37.640625 27.21875 
Q 31.109375 20.453125 19.1875 8.296875 
z
" id="DejaVuSans-50"/>
       <path d="M 31.78125 66.40625 
Q 24.171875 66.40625 20.328125 58.90625 
Q 16.5 51.421875 16.5 36.375 
Q 16.5 21.390625 20.328125 13.890625 
Q 24.171875 6.390625 31.78125 6.390625 
Q 39.453125 6.390625 43.28125 13.890625 
Q 47.125 21.390625 47.125 36.375 
Q 47.125 51.421875 43.28125 58.90625 
Q 39.453125 66.40625 31.78125 66.40625 
z
M 31.78125 74.21875 
Q 44.046875 74.21875 50.515625 64.515625 
Q 56.984375 54.828125 56.984375 36.375 
Q 56.984375 17.96875 50.515625 8.265625 
Q 44.046875 -1.421875 31.78125 -1.421875 
Q 19.53125 -1.421875 13.0625 8.265625 
Q 6.59375 17.96875 6.59375 36.375 
Q 6.59375 54.828125 13.0625 64.515625 
Q 19.53125 74.21875 31.78125 74.21875 
z
" id="DejaVuSans-48"/>
       <path d="M 12.40625 8.296875 
L 28.515625 8.296875 
L 28.515625 63.921875 
L 10.984375 60.40625 
L 10.984375 69.390625 
L 28.421875 72.90625 
L 38.28125 72.90625 
L 38.28125 8.296875 
L 54.390625 8.296875 
L 54.390625 0 
L 12.40625 0 
z
" id="DejaVuSans-49"/>
       <path d="M 31.78125 34.625 
Q 24.75 34.625 20.71875 30.859375 
Q 16.703125 27.09375 16.703125 20.515625 
Q 16.703125 13.921875 20.71875 10.15625 
Q 24.75 6.390625 31.78125 6.390625 
Q 38.8125 6.390625 42.859375 10.171875 
Q 46.921875 13.96875 46.921875 20.515625 
Q 46.921875 27.09375 42.890625 30.859375 
Q 38.875 34.625 31.78125 34.625 
z
M 21.921875 38.8125 
Q 15.578125 40.375 12.03125 44.71875 
Q 8.5 49.078125 8.5 55.328125 
Q 8.5 64.0625 14.71875 69.140625 
Q 20.953125 74.21875 31.78125 74.21875 
Q 42.671875 74.21875 48.875 69.140625 
Q 55.078125 64.0625 55.078125 55.328125 
Q 55.078125 49.078125 51.53125 44.71875 
Q 48 40.375 41.703125 38.8125 
Q 48.828125 37.15625 52.796875 32.3125 
Q 56.78125 27.484375 56.78125 20.515625 
Q 56.78125 9.90625 50.3125 4.234375 
Q 43.84375 -1.421875 31.78125 -1.421875 
Q 19.734375 -1.421875 13.25 4.234375 
Q 6.78125 9.90625 6.78125 20.515625 
Q 6.78125 27.484375 10.78125 32.3125 
Q 14.796875 37.15625 21.921875 38.8125 
z
M 18.3125 54.390625 
Q 18.3125 48.734375 21.84375 45.5625 
Q 25.390625 42.390625 31.78125 42.390625 
Q 38.140625 42.390625 41.71875 45.5625 
Q 45.3125 48.734375 45.3125 54.390625 
Q 45.3125 60.0625 41.71875 63.234375 
Q 38.140625 66.40625 31.78125 66.40625 
Q 25.390625 66.40625 21.84375 63.234375 
Q 18.3125 60.0625 18.3125 54.390625 
z
" id="DejaVuSans-56"/>
       <path d="M 4.890625 31.390625 
L 31.203125 31.390625 
L 31.203125 23.390625 
L 4.890625 23.390625 
z
" id="DejaVuSans-45"/>
      </defs>
      <g transform="translate(42.895632 433.351846)rotate(-30)scale(0.1 -0.1)">
       <use xlink:href="#DejaVuSans-50"/>
       <use x="63.623047" xlink:href="#DejaVuSans-48"/>
       <use x="127.246094" xlink:href="#DejaVuSans-49"/>
       <use x="190.869141" xlink:href="#DejaVuSans-56"/>
       <use x="254.492188" xlink:href="#DejaVuSans-45"/>
       <use x="290.576172" xlink:href="#DejaVuSans-48"/>
       <use x="354.199219" xlink:href="#DejaVuSans-49"/>
      </g>
     </g>
    </g>
    <g id="xtick_2">
     <g id="line2d_2">
      <g>
       <use style="stroke:#000000;stroke-width:0.8;" x="148.687981" xlink:href="#m589e35148b" y="398.88"/>
      </g>
     </g>
     <g id="text_2">
      <!-- 2018-04 -->
      <defs>
       <path d="M 37.796875 64.3125 
L 12.890625 25.390625 
L 37.796875 25.390625 
z
M 35.203125 72.90625 
L 47.609375 72.90625 
L 47.609375 25.390625 
L 58.015625 25.390625 
L 58.015625 17.1875 
L 47.609375 17.1875 
L 47.609375 0 
L 37.796875 0 
L 37.796875 17.1875 
L 4.890625 17.1875 
L 4.890625 26.703125 
z
" id="DejaVuSans-52"/>
      </defs>
      <g transform="translate(111.46316 433.351846)rotate(-30)scale(0.1 -0.1)">
       <use xlink:href="#DejaVuSans-50"/>
       <use x="63.623047" xlink:href="#DejaVuSans-48"/>
       <use x="127.246094" xlink:href="#DejaVuSans-49"/>
       <use x="190.869141" xlink:href="#DejaVuSans-56"/>
       <use x="254.492188" xlink:href="#DejaVuSans-45"/>
       <use x="290.576172" xlink:href="#DejaVuSans-48"/>
       <use x="354.199219" xlink:href="#DejaVuSans-52"/>
      </g>
     </g>
    </g>
    <g id="xtick_3">
     <g id="line2d_3">
      <g>
       <use style="stroke:#000000;stroke-width:0.8;" x="218.01737" xlink:href="#m589e35148b" y="398.88"/>
      </g>
     </g>
     <g id="text_3">
      <!-- 2018-07 -->
      <defs>
       <path d="M 8.203125 72.90625 
L 55.078125 72.90625 
L 55.078125 68.703125 
L 28.609375 0 
L 18.3125 0 
L 43.21875 64.59375 
L 8.203125 64.59375 
z
" id="DejaVuSans-55"/>
      </defs>
      <g transform="translate(180.792549 433.351846)rotate(-30)scale(0.1 -0.1)">
       <use xlink:href="#DejaVuSans-50"/>
       <use x="63.623047" xlink:href="#DejaVuSans-48"/>
       <use x="127.246094" xlink:href="#DejaVuSans-49"/>
       <use x="190.869141" xlink:href="#DejaVuSans-56"/>
       <use x="254.492188" xlink:href="#DejaVuSans-45"/>
       <use x="290.576172" xlink:href="#DejaVuSans-48"/>
       <use x="354.199219" xlink:href="#DejaVuSans-55"/>
      </g>
     </g>
    </g>
    <g id="xtick_4">
     <g id="line2d_4">
      <g>
       <use style="stroke:#000000;stroke-width:0.8;" x="288.10862" xlink:href="#m589e35148b" y="398.88"/>
      </g>
     </g>
     <g id="text_4">
      <!-- 2018-10 -->
      <g transform="translate(250.8838 433.351846)rotate(-30)scale(0.1 -0.1)">
       <use xlink:href="#DejaVuSans-50"/>
       <use x="63.623047" xlink:href="#DejaVuSans-48"/>
       <use x="127.246094" xlink:href="#DejaVuSans-49"/>
       <use x="190.869141" xlink:href="#DejaVuSans-56"/>
       <use x="254.492188" xlink:href="#DejaVuSans-45"/>
       <use x="290.576172" xlink:href="#DejaVuSans-49"/>
       <use x="354.199219" xlink:href="#DejaVuSans-48"/>
      </g>
     </g>
    </g>
    <g id="xtick_5">
     <g id="line2d_5">
      <g>
       <use style="stroke:#000000;stroke-width:0.8;" x="358.199871" xlink:href="#m589e35148b" y="398.88"/>
      </g>
     </g>
     <g id="text_5">
      <!-- 2019-01 -->
      <defs>
       <path d="M 10.984375 1.515625 
L 10.984375 10.5 
Q 14.703125 8.734375 18.5 7.8125 
Q 22.3125 6.890625 25.984375 6.890625 
Q 35.75 6.890625 40.890625 13.453125 
Q 46.046875 20.015625 46.78125 33.40625 
Q 43.953125 29.203125 39.59375 26.953125 
Q 35.25 24.703125 29.984375 24.703125 
Q 19.046875 24.703125 12.671875 31.3125 
Q 6.296875 37.9375 6.296875 49.421875 
Q 6.296875 60.640625 12.9375 67.421875 
Q 19.578125 74.21875 30.609375 74.21875 
Q 43.265625 74.21875 49.921875 64.515625 
Q 56.59375 54.828125 56.59375 36.375 
Q 56.59375 19.140625 48.40625 8.859375 
Q 40.234375 -1.421875 26.421875 -1.421875 
Q 22.703125 -1.421875 18.890625 -0.6875 
Q 15.09375 0.046875 10.984375 1.515625 
z
M 30.609375 32.421875 
Q 37.25 32.421875 41.125 36.953125 
Q 45.015625 41.5 45.015625 49.421875 
Q 45.015625 57.28125 41.125 61.84375 
Q 37.25 66.40625 30.609375 66.40625 
Q 23.96875 66.40625 20.09375 61.84375 
Q 16.21875 57.28125 16.21875 49.421875 
Q 16.21875 41.5 20.09375 36.953125 
Q 23.96875 32.421875 30.609375 32.421875 
z
" id="DejaVuSans-57"/>
      </defs>
      <g transform="translate(320.97505 433.351846)rotate(-30)scale(0.1 -0.1)">
       <use xlink:href="#DejaVuSans-50"/>
       <use x="63.623047" xlink:href="#DejaVuSans-48"/>
       <use x="127.246094" xlink:href="#DejaVuSans-49"/>
       <use x="190.869141" xlink:href="#DejaVuSans-57"/>
       <use x="254.492188" xlink:href="#DejaVuSans-45"/>
       <use x="290.576172" xlink:href="#DejaVuSans-48"/>
       <use x="354.199219" xlink:href="#DejaVuSans-49"/>
      </g>
     </g>
    </g>
    <g id="xtick_6">
     <g id="line2d_6">
      <g>
       <use style="stroke:#000000;stroke-width:0.8;" x="426.767398" xlink:href="#m589e35148b" y="398.88"/>
      </g>
     </g>
     <g id="text_6">
      <!-- 2019-04 -->
      <g transform="translate(389.542578 433.351846)rotate(-30)scale(0.1 -0.1)">
       <use xlink:href="#DejaVuSans-50"/>
       <use x="63.623047" xlink:href="#DejaVuSans-48"/>
       <use x="127.246094" xlink:href="#DejaVuSans-49"/>
       <use x="190.869141" xlink:href="#DejaVuSans-57"/>
       <use x="254.492188" xlink:href="#DejaVuSans-45"/>
       <use x="290.576172" xlink:href="#DejaVuSans-48"/>
       <use x="354.199219" xlink:href="#DejaVuSans-52"/>
      </g>
     </g>
    </g>
    <g id="xtick_7">
     <g id="line2d_7">
      <g>
       <use style="stroke:#000000;stroke-width:0.8;" x="496.096787" xlink:href="#m589e35148b" y="398.88"/>
      </g>
     </g>
     <g id="text_7">
      <!-- 2019-07 -->
      <g transform="translate(458.871967 433.351846)rotate(-30)scale(0.1 -0.1)">
       <use xlink:href="#DejaVuSans-50"/>
       <use x="63.623047" xlink:href="#DejaVuSans-48"/>
       <use x="127.246094" xlink:href="#DejaVuSans-49"/>
       <use x="190.869141" xlink:href="#DejaVuSans-57"/>
       <use x="254.492188" xlink:href="#DejaVuSans-45"/>
       <use x="290.576172" xlink:href="#DejaVuSans-48"/>
       <use x="354.199219" xlink:href="#DejaVuSans-55"/>
      </g>
     </g>
    </g>
    <g id="xtick_8">
     <g id="line2d_8">
      <g>
       <use style="stroke:#000000;stroke-width:0.8;" x="566.188038" xlink:href="#m589e35148b" y="398.88"/>
      </g>
     </g>
     <g id="text_8">
      <!-- 2019-10 -->
      <g transform="translate(528.963217 433.351846)rotate(-30)scale(0.1 -0.1)">
       <use xlink:href="#DejaVuSans-50"/>
       <use x="63.623047" xlink:href="#DejaVuSans-48"/>
       <use x="127.246094" xlink:href="#DejaVuSans-49"/>
       <use x="190.869141" xlink:href="#DejaVuSans-57"/>
       <use x="254.492188" xlink:href="#DejaVuSans-45"/>
       <use x="290.576172" xlink:href="#DejaVuSans-49"/>
       <use x="354.199219" xlink:href="#DejaVuSans-48"/>
      </g>
     </g>
    </g>
    <g id="xtick_9">
     <g id="line2d_9">
      <g>
       <use style="stroke:#000000;stroke-width:0.8;" x="636.279288" xlink:href="#m589e35148b" y="398.88"/>
      </g>
     </g>
     <g id="text_9">
      <!-- 2020-01 -->
      <g transform="translate(599.054467 433.351846)rotate(-30)scale(0.1 -0.1)">
       <use xlink:href="#DejaVuSans-50"/>
       <use x="63.623047" xlink:href="#DejaVuSans-48"/>
       <use x="127.246094" xlink:href="#DejaVuSans-50"/>
       <use x="190.869141" xlink:href="#DejaVuSans-48"/>
       <use x="254.492188" xlink:href="#DejaVuSans-45"/>
       <use x="290.576172" xlink:href="#DejaVuSans-48"/>
       <use x="354.199219" xlink:href="#DejaVuSans-49"/>
      </g>
     </g>
    </g>
    <g id="xtick_10">
     <g id="line2d_10">
      <g>
       <use style="stroke:#000000;stroke-width:0.8;" x="705.608677" xlink:href="#m589e35148b" y="398.88"/>
      </g>
     </g>
     <g id="text_10">
      <!-- 2020-04 -->
      <g transform="translate(668.383856 433.351846)rotate(-30)scale(0.1 -0.1)">
       <use xlink:href="#DejaVuSans-50"/>
       <use x="63.623047" xlink:href="#DejaVuSans-48"/>
       <use x="127.246094" xlink:href="#DejaVuSans-50"/>
       <use x="190.869141" xlink:href="#DejaVuSans-48"/>
       <use x="254.492188" xlink:href="#DejaVuSans-45"/>
       <use x="290.576172" xlink:href="#DejaVuSans-48"/>
       <use x="354.199219" xlink:href="#DejaVuSans-52"/>
      </g>
     </g>
    </g>
    <g id="text_11">
     <!-- Date -->
     <defs>
      <path d="M 19.671875 64.796875 
L 19.671875 8.109375 
L 31.59375 8.109375 
Q 46.6875 8.109375 53.6875 14.9375 
Q 60.6875 21.78125 60.6875 36.53125 
Q 60.6875 51.171875 53.6875 57.984375 
Q 46.6875 64.796875 31.59375 64.796875 
z
M 9.8125 72.90625 
L 30.078125 72.90625 
Q 51.265625 72.90625 61.171875 64.09375 
Q 71.09375 55.28125 71.09375 36.53125 
Q 71.09375 17.671875 61.125 8.828125 
Q 51.171875 0 30.078125 0 
L 9.8125 0 
z
" id="DejaVuSans-68"/>
      <path d="M 34.28125 27.484375 
Q 23.390625 27.484375 19.1875 25 
Q 14.984375 22.515625 14.984375 16.5 
Q 14.984375 11.71875 18.140625 8.90625 
Q 21.296875 6.109375 26.703125 6.109375 
Q 34.1875 6.109375 38.703125 11.40625 
Q 43.21875 16.703125 43.21875 25.484375 
L 43.21875 27.484375 
z
M 52.203125 31.203125 
L 52.203125 0 
L 43.21875 0 
L 43.21875 8.296875 
Q 40.140625 3.328125 35.546875 0.953125 
Q 30.953125 -1.421875 24.3125 -1.421875 
Q 15.921875 -1.421875 10.953125 3.296875 
Q 6 8.015625 6 15.921875 
Q 6 25.140625 12.171875 29.828125 
Q 18.359375 34.515625 30.609375 34.515625 
L 43.21875 34.515625 
L 43.21875 35.40625 
Q 43.21875 41.609375 39.140625 45 
Q 35.0625 48.390625 27.6875 48.390625 
Q 23 48.390625 18.546875 47.265625 
Q 14.109375 46.140625 10.015625 43.890625 
L 10.015625 52.203125 
Q 14.9375 54.109375 19.578125 55.046875 
Q 24.21875 56 28.609375 56 
Q 40.484375 56 46.34375 49.84375 
Q 52.203125 43.703125 52.203125 31.203125 
z
" id="DejaVuSans-97"/>
      <path d="M 18.3125 70.21875 
L 18.3125 54.6875 
L 36.8125 54.6875 
L 36.8125 47.703125 
L 18.3125 47.703125 
L 18.3125 18.015625 
Q 18.3125 11.328125 20.140625 9.421875 
Q 21.96875 7.515625 27.59375 7.515625 
L 36.8125 7.515625 
L 36.8125 0 
L 27.59375 0 
Q 17.1875 0 13.234375 3.875 
Q 9.28125 7.765625 9.28125 18.015625 
L 9.28125 47.703125 
L 2.6875 47.703125 
L 2.6875 54.6875 
L 9.28125 54.6875 
L 9.28125 70.21875 
z
" id="DejaVuSans-116"/>
      <path d="M 56.203125 29.59375 
L 56.203125 25.203125 
L 14.890625 25.203125 
Q 15.484375 15.921875 20.484375 11.0625 
Q 25.484375 6.203125 34.421875 6.203125 
Q 39.59375 6.203125 44.453125 7.46875 
Q 49.3125 8.734375 54.109375 11.28125 
L 54.109375 2.78125 
Q 49.265625 0.734375 44.1875 -0.34375 
Q 39.109375 -1.421875 33.890625 -1.421875 
Q 20.796875 -1.421875 13.15625 6.1875 
Q 5.515625 13.8125 5.515625 26.8125 
Q 5.515625 40.234375 12.765625 48.109375 
Q 20.015625 56 32.328125 56 
Q 43.359375 56 49.78125 48.890625 
Q 56.203125 41.796875 56.203125 29.59375 
z
M 47.21875 32.234375 
Q 47.125 39.59375 43.09375 43.984375 
Q 39.0625 48.390625 32.421875 48.390625 
Q 24.90625 48.390625 20.390625 44.140625 
Q 15.875 39.890625 15.1875 32.171875 
z
" id="DejaVuSans-101"/>
     </defs>
     <g transform="translate(374.057031 446.751346)scale(0.1 -0.1)">
      <use xlink:href="#DejaVuSans-68"/>
      <use x="77.001953" xlink:href="#DejaVuSans-97"/>
      <use x="138.28125" xlink:href="#DejaVuSans-116"/>
      <use x="177.490234" xlink:href="#DejaVuSans-101"/>
     </g>
    </g>
   </g>
   <g id="matplotlib.axis_2">
    <g id="ytick_1">
     <g id="line2d_11">
      <defs>
       <path d="M 0 0 
L -3.5 0 
" id="m97a8bb4a76" style="stroke:#000000;stroke-width:0.8;"/>
      </defs>
      <g>
       <use style="stroke:#000000;stroke-width:0.8;" x="51.207813" xlink:href="#m97a8bb4a76" y="377.572304"/>
      </g>
     </g>
     <g id="text_12">
      <!-- −0.100 -->
      <defs>
       <path d="M 10.59375 35.5 
L 73.1875 35.5 
L 73.1875 27.203125 
L 10.59375 27.203125 
z
" id="DejaVuSans-8722"/>
       <path d="M 10.6875 12.40625 
L 21 12.40625 
L 21 0 
L 10.6875 0 
z
" id="DejaVuSans-46"/>
      </defs>
      <g transform="translate(7.2 381.371523)scale(0.1 -0.1)">
       <use xlink:href="#DejaVuSans-8722"/>
       <use x="83.789062" xlink:href="#DejaVuSans-48"/>
       <use x="147.412109" xlink:href="#DejaVuSans-46"/>
       <use x="179.199219" xlink:href="#DejaVuSans-49"/>
       <use x="242.822266" xlink:href="#DejaVuSans-48"/>
       <use x="306.445312" xlink:href="#DejaVuSans-48"/>
      </g>
     </g>
    </g>
    <g id="ytick_2">
     <g id="line2d_12">
      <g>
       <use style="stroke:#000000;stroke-width:0.8;" x="51.207813" xlink:href="#m97a8bb4a76" y="327.345411"/>
      </g>
     </g>
     <g id="text_13">
      <!-- −0.075 -->
      <defs>
       <path d="M 10.796875 72.90625 
L 49.515625 72.90625 
L 49.515625 64.59375 
L 19.828125 64.59375 
L 19.828125 46.734375 
Q 21.96875 47.46875 24.109375 47.828125 
Q 26.265625 48.1875 28.421875 48.1875 
Q 40.625 48.1875 47.75 41.5 
Q 54.890625 34.8125 54.890625 23.390625 
Q 54.890625 11.625 47.5625 5.09375 
Q 40.234375 -1.421875 26.90625 -1.421875 
Q 22.3125 -1.421875 17.546875 -0.640625 
Q 12.796875 0.140625 7.71875 1.703125 
L 7.71875 11.625 
Q 12.109375 9.234375 16.796875 8.0625 
Q 21.484375 6.890625 26.703125 6.890625 
Q 35.15625 6.890625 40.078125 11.328125 
Q 45.015625 15.765625 45.015625 23.390625 
Q 45.015625 31 40.078125 35.4375 
Q 35.15625 39.890625 26.703125 39.890625 
Q 22.75 39.890625 18.8125 39.015625 
Q 14.890625 38.140625 10.796875 36.28125 
z
" id="DejaVuSans-53"/>
      </defs>
      <g transform="translate(7.2 331.14463)scale(0.1 -0.1)">
       <use xlink:href="#DejaVuSans-8722"/>
       <use x="83.789062" xlink:href="#DejaVuSans-48"/>
       <use x="147.412109" xlink:href="#DejaVuSans-46"/>
       <use x="179.199219" xlink:href="#DejaVuSans-48"/>
       <use x="242.822266" xlink:href="#DejaVuSans-55"/>
       <use x="306.445312" xlink:href="#DejaVuSans-53"/>
      </g>
     </g>
    </g>
    <g id="ytick_3">
     <g id="line2d_13">
      <g>
       <use style="stroke:#000000;stroke-width:0.8;" x="51.207813" xlink:href="#m97a8bb4a76" y="277.118518"/>
      </g>
     </g>
     <g id="text_14">
      <!-- −0.050 -->
      <g transform="translate(7.2 280.917736)scale(0.1 -0.1)">
       <use xlink:href="#DejaVuSans-8722"/>
       <use x="83.789062" xlink:href="#DejaVuSans-48"/>
       <use x="147.412109" xlink:href="#DejaVuSans-46"/>
       <use x="179.199219" xlink:href="#DejaVuSans-48"/>
       <use x="242.822266" xlink:href="#DejaVuSans-53"/>
       <use x="306.445312" xlink:href="#DejaVuSans-48"/>
      </g>
     </g>
    </g>
    <g id="ytick_4">
     <g id="line2d_14">
      <g>
       <use style="stroke:#000000;stroke-width:0.8;" x="51.207813" xlink:href="#m97a8bb4a76" y="226.891624"/>
      </g>
     </g>
     <g id="text_15">
      <!-- −0.025 -->
      <g transform="translate(7.2 230.690843)scale(0.1 -0.1)">
       <use xlink:href="#DejaVuSans-8722"/>
       <use x="83.789062" xlink:href="#DejaVuSans-48"/>
       <use x="147.412109" xlink:href="#DejaVuSans-46"/>
       <use x="179.199219" xlink:href="#DejaVuSans-48"/>
       <use x="242.822266" xlink:href="#DejaVuSans-50"/>
       <use x="306.445312" xlink:href="#DejaVuSans-53"/>
      </g>
     </g>
    </g>
    <g id="ytick_5">
     <g id="line2d_15">
      <g>
       <use style="stroke:#000000;stroke-width:0.8;" x="51.207813" xlink:href="#m97a8bb4a76" y="176.664731"/>
      </g>
     </g>
     <g id="text_16">
      <!-- 0.000 -->
      <g transform="translate(15.579688 180.46395)scale(0.1 -0.1)">
       <use xlink:href="#DejaVuSans-48"/>
       <use x="63.623047" xlink:href="#DejaVuSans-46"/>
       <use x="95.410156" xlink:href="#DejaVuSans-48"/>
       <use x="159.033203" xlink:href="#DejaVuSans-48"/>
       <use x="222.65625" xlink:href="#DejaVuSans-48"/>
      </g>
     </g>
    </g>
    <g id="ytick_6">
     <g id="line2d_16">
      <g>
       <use style="stroke:#000000;stroke-width:0.8;" x="51.207813" xlink:href="#m97a8bb4a76" y="126.437837"/>
      </g>
     </g>
     <g id="text_17">
      <!-- 0.025 -->
      <g transform="translate(15.579688 130.237056)scale(0.1 -0.1)">
       <use xlink:href="#DejaVuSans-48"/>
       <use x="63.623047" xlink:href="#DejaVuSans-46"/>
       <use x="95.410156" xlink:href="#DejaVuSans-48"/>
       <use x="159.033203" xlink:href="#DejaVuSans-50"/>
       <use x="222.65625" xlink:href="#DejaVuSans-53"/>
      </g>
     </g>
    </g>
    <g id="ytick_7">
     <g id="line2d_17">
      <g>
       <use style="stroke:#000000;stroke-width:0.8;" x="51.207813" xlink:href="#m97a8bb4a76" y="76.210944"/>
      </g>
     </g>
     <g id="text_18">
      <!-- 0.050 -->
      <g transform="translate(15.579688 80.010163)scale(0.1 -0.1)">
       <use xlink:href="#DejaVuSans-48"/>
       <use x="63.623047" xlink:href="#DejaVuSans-46"/>
       <use x="95.410156" xlink:href="#DejaVuSans-48"/>
       <use x="159.033203" xlink:href="#DejaVuSans-53"/>
       <use x="222.65625" xlink:href="#DejaVuSans-48"/>
      </g>
     </g>
    </g>
    <g id="ytick_8">
     <g id="line2d_18">
      <g>
       <use style="stroke:#000000;stroke-width:0.8;" x="51.207813" xlink:href="#m97a8bb4a76" y="25.984051"/>
      </g>
     </g>
     <g id="text_19">
      <!-- 0.075 -->
      <g transform="translate(15.579688 29.783269)scale(0.1 -0.1)">
       <use xlink:href="#DejaVuSans-48"/>
       <use x="63.623047" xlink:href="#DejaVuSans-46"/>
       <use x="95.410156" xlink:href="#DejaVuSans-48"/>
       <use x="159.033203" xlink:href="#DejaVuSans-55"/>
       <use x="222.65625" xlink:href="#DejaVuSans-53"/>
      </g>
     </g>
    </g>
   </g>
   <g id="line2d_19">
    <path clip-path="url(#p82918bb66d)" d="M 81.644176 161.001595 
L 82.406038 154.384941 
L 85.453483 187.863055 
L 86.215345 205.319625 
L 87.739067 132.706214 
L 88.500929 201.972277 
L 90.786513 170.515 
L 91.548375 162.869188 
L 92.310236 153.828597 
L 93.072097 171.139899 
L 93.833959 168.66347 
L 96.119543 147.253645 
L 96.881404 185.506651 
L 97.643266 74.045104 
L 98.405127 176.664731 
L 99.166989 93.107034 
L 101.452573 189.285736 
L 102.214434 194.352032 
L 102.976296 156.987891 
L 103.738157 162.045277 
L 104.500019 187.465848 
L 106.785603 219.64917 
L 107.547464 139.676192 
L 108.309326 214.346792 
L 109.071187 179.90629 
L 109.833049 168.322004 
L 114.404217 76.508823 
L 115.166079 269.580808 
L 118.213524 143.372912 
L 118.975386 149.374201 
L 119.737247 162.306421 
L 120.499108 179.33849 
L 122.784693 182.466744 
L 123.546554 194.558374 
L 124.308416 217.298351 
L 125.070277 161.795999 
L 125.832138 144.634052 
L 128.117723 145.129889 
L 128.879584 173.558076 
L 129.641445 185.963743 
L 130.403307 195.796736 
L 131.165168 148.819343 
L 133.450753 166.032246 
L 134.212614 184.154482 
L 134.974475 205.858527 
L 135.736337 170.827406 
L 136.498198 189.648253 
L 138.783782 202.787047 
L 139.545644 182.141653 
L 140.307505 180.330515 
L 141.069367 179.869379 
L 141.831228 151.86747 
L 144.116812 166.689118 
L 144.878674 211.872614 
L 145.640535 153.688856 
L 146.402397 135.783252 
L 149.449842 179.671479 
L 150.211704 169.532203 
L 150.973565 189.55267 
L 151.735427 175.322474 
L 152.497288 168.168204 
L 154.782872 213.618743 
L 155.544734 156.705519 
L 156.306595 151.520053 
L 157.068456 181.102043 
L 157.830318 227.775781 
L 160.115902 212.698461 
L 160.877764 126.040683 
L 161.639625 138.164021 
L 162.401486 205.553824 
L 163.163348 168.547364 
L 165.448932 215.741138 
L 166.210793 183.53555 
L 166.972655 145.41165 
L 167.734516 153.128056 
L 168.496378 178.006574 
L 170.781962 211.581764 
L 172.305685 246.744516 
L 173.067546 203.110163 
L 173.829408 198.20093 
L 176.114992 164.089119 
L 176.876853 173.78008 
L 177.638715 175.224769 
L 178.400576 134.928657 
L 179.162438 205.800129 
L 181.448022 208.138453 
L 182.971745 169.834879 
L 183.733606 252.948732 
L 184.495468 172.119433 
L 186.781052 189.763637 
L 187.542913 146.74174 
L 188.304775 193.659112 
L 189.066636 175.153033 
L 189.828497 201.844525 
L 192.114082 244.503608 
L 192.875943 190.386917 
L 193.637805 154.875814 
L 195.161527 152.327009 
L 197.447112 147.557839 
L 198.208973 230.464996 
L 198.970834 219.310552 
L 199.732696 196.029329 
L 200.494557 198.393461 
L 202.780142 222.234869 
L 203.542003 172.173077 
L 204.303864 217.580901 
L 205.065726 233.889992 
L 205.827587 144.858212 
L 208.113171 226.526841 
L 208.875033 75.589803 
L 209.636894 161.949162 
L 210.398756 227.242976 
L 211.160617 165.129211 
L 213.446201 176.097202 
L 214.208063 185.827061 
L 214.969924 206.602415 
L 215.731786 126.412105 
L 216.493647 139.03676 
L 218.779231 182.124582 
L 219.541093 118.262259 
L 220.302954 161.391989 
L 221.064816 188.036872 
L 221.826677 181.018928 
L 224.874123 133.543858 
L 225.635984 181.473634 
L 226.397845 161.135698 
L 227.159707 135.741396 
L 229.445291 166.241743 
L 230.207153 118.630616 
L 230.969014 186.229867 
L 231.730875 196.909201 
L 232.492737 107.650575 
L 234.778321 219.663479 
L 235.540183 153.938011 
L 236.302044 138.707889 
L 237.063905 201.661394 
L 237.825767 170.217998 
L 240.111351 146.981014 
L 240.873212 235.650188 
L 241.635074 159.454676 
L 242.396935 186.628328 
L 243.158797 132.602305 
L 245.444381 201.163047 
L 246.206242 174.186964 
L 246.968104 218.773783 
L 247.729965 181.727598 
L 248.491827 234.501982 
L 250.777411 162.035203 
L 251.539272 132.067381 
L 252.301134 202.029272 
L 253.062995 174.614456 
L 253.824857 202.327404 
L 256.110441 203.428967 
L 256.872302 212.671134 
L 257.634164 152.400447 
L 258.396025 224.078789 
L 259.157886 171.753989 
L 261.443471 117.33984 
L 262.205332 179.836313 
L 262.967194 181.431329 
L 263.729055 219.125879 
L 264.490916 157.688622 
L 266.776501 182.977164 
L 267.538362 208.475468 
L 268.300223 153.111174 
L 269.062085 147.422092 
L 272.109531 146.769291 
L 272.871392 219.793471 
L 273.633253 221.812663 
L 274.395115 171.163573 
L 275.156976 173.375064 
L 277.44256 131.230472 
L 278.204422 170.778738 
L 278.966283 168.658302 
L 279.728145 193.674612 
L 280.490006 159.509605 
L 282.77559 213.348082 
L 283.537452 182.618951 
L 284.299313 129.411095 
L 285.061175 151.19379 
L 285.823036 210.203972 
L 288.10862 175.46487 
L 288.870482 121.236791 
L 289.632343 80.725364 
L 290.394205 192.998273 
L 291.156066 155.20423 
L 293.44165 62.11986 
L 294.203512 195.814364 
L 294.965373 237.97669 
L 295.727235 200.49639 
L 298.77468 176.177365 
L 299.536542 108.249316 
L 300.298403 162.864134 
L 301.060264 209.282475 
L 301.822126 194.439525 
L 304.10771 158.2439 
L 304.869572 178.106367 
L 305.631433 229.069324 
L 306.393294 127.794963 
L 307.155156 171.843648 
L 309.44074 193.012992 
L 310.202601 113.163632 
L 310.964463 194.051769 
L 311.726324 120.116112 
L 314.77377 127.316372 
L 315.535631 198.272532 
L 316.297493 147.996323 
L 317.059354 228.706807 
L 317.821216 134.748724 
L 320.1068 173.510988 
L 320.868661 214.949639 
L 321.630523 178.965532 
L 323.154246 116.896257 
L 325.43983 163.270275 
L 326.963553 188.639753 
L 327.725414 157.925752 
L 328.487275 202.524288 
L 330.77286 204.876368 
L 331.534721 127.612779 
L 332.296583 138.093155 
L 333.058444 169.486925 
L 333.820305 179.265092 
L 336.10589 193.925369 
L 337.629612 182.610899 
L 338.391474 166.725798 
L 339.153335 186.554738 
L 341.43892 224.373798 
L 342.200781 161.732469 
L 342.962642 167.232249 
L 343.724504 136.429789 
L 344.486365 184.553729 
L 346.771949 214.944825 
L 347.533811 172.586419 
L 348.295672 192.113978 
L 349.057534 168.541539 
L 349.819395 210.374378 
L 353.628702 197.235393 
L 354.390564 142.718458 
L 355.152425 137.77746 
L 358.961732 47.89892 
L 359.723594 158.434632 
L 360.485455 210.305099 
L 362.771039 150.688208 
L 363.532901 171.660749 
L 364.294762 157.946517 
L 365.056624 176.664731 
L 365.818485 199.53715 
L 368.104069 153.528921 
L 368.865931 203.864644 
L 369.627792 181.051361 
L 370.389653 181.688792 
L 371.151515 152.110473 
L 373.437099 189.726587 
L 374.198961 182.925523 
L 374.960822 159.707647 
L 375.722683 180.401588 
L 378.770129 163.561549 
L 379.53199 183.484285 
L 380.293852 179.774395 
L 381.055713 138.040806 
L 381.817575 186.142748 
L 384.103159 131.813844 
L 384.86502 237.964328 
L 385.626882 251.672457 
L 386.388743 156.702651 
L 387.150605 117.367535 
L 389.436189 205.153927 
L 390.19805 143.996734 
L 390.959912 219.937149 
L 391.721773 120.436048 
L 392.483635 181.581217 
L 394.769219 205.621279 
L 395.53108 135.407734 
L 396.292942 194.428204 
L 397.054803 123.517825 
L 397.816664 217.966312 
L 400.102249 198.67323 
L 400.86411 179.843698 
L 401.625972 183.032614 
L 402.387833 198.384655 
L 403.149694 198.955354 
L 407.720863 149.223717 
L 408.482724 150.238262 
L 410.768309 143.582622 
L 411.53017 172.909932 
L 412.292031 155.424 
L 413.053893 219.937218 
L 413.815754 203.831439 
L 416.101338 133.755028 
L 416.8632 197.984637 
L 417.625061 205.818545 
L 418.386923 218.466818 
L 419.148784 225.265996 
L 421.434368 190.126285 
L 422.19623 181.407504 
L 422.958091 229.642327 
L 423.719953 120.1596 
L 424.481814 160.380364 
L 426.767398 189.122616 
L 427.52926 193.604541 
L 428.291121 203.315687 
L 429.052983 146.192812 
L 429.814844 149.376915 
L 432.100428 186.76017 
L 432.86229 186.135193 
L 433.624151 192.977086 
L 434.386013 202.703005 
L 435.147874 197.491326 
L 437.433458 166.843754 
L 438.19532 190.626408 
L 438.957181 187.209196 
L 439.719042 149.104473 
L 442.766488 190.606754 
L 443.52835 139.459741 
L 444.290211 176.664731 
L 445.052072 164.258934 
L 445.813934 178.034663 
L 448.099518 173.922997 
L 448.861379 176.664731 
L 450.385102 168.103762 
L 451.146964 188.258009 
L 453.432548 218.506157 
L 454.956271 161.16116 
L 455.718132 192.748564 
L 456.479994 197.812972 
L 458.765578 208.724282 
L 459.527439 184.628672 
L 460.289301 174.484365 
L 461.051162 193.364283 
L 461.813024 179.593558 
L 464.098608 129.737404 
L 464.860469 106.447447 
L 465.622331 166.280222 
L 466.384192 193.883383 
L 467.146053 191.947953 
L 469.431638 189.965686 
L 470.193499 123.812525 
L 470.955361 140.273432 
L 471.717222 152.38573 
L 472.479083 179.330172 
L 474.764668 166.984918 
L 475.526529 181.31546 
L 476.28839 207.296859 
L 477.050252 157.054096 
L 477.812113 163.94064 
L 480.097698 212.600638 
L 480.859559 154.981655 
L 481.62142 184.038405 
L 482.383282 202.232361 
L 483.145143 190.976337 
L 485.430728 166.369007 
L 486.192589 147.300077 
L 486.95445 145.704087 
L 488.478173 132.254523 
L 490.763757 179.258627 
L 491.525619 198.742513 
L 492.28748 137.271155 
L 493.049342 189.543272 
L 493.811203 168.239686 
L 496.096787 176.987438 
L 496.858649 196.684603 
L 497.62051 149.268225 
L 498.382372 156.715267 
L 499.144233 159.460602 
L 501.429817 172.874163 
L 502.95354 194.951933 
L 503.715402 177.937585 
L 504.477263 187.49003 
L 506.762847 197.793036 
L 507.524709 169.54711 
L 508.28657 186.980783 
L 509.048431 129.354322 
L 509.810293 215.921605 
L 512.095877 148.249804 
L 512.857739 175.39107 
L 513.6196 169.664727 
L 514.381461 236.277516 
L 515.143323 153.135896 
L 517.428907 175.372769 
L 518.190768 225.083841 
L 518.95263 207.75707 
L 519.714491 169.60571 
L 520.476353 178.674324 
L 522.761937 196.111885 
L 523.523798 113.690624 
L 524.28566 97.877713 
L 525.047521 176.03266 
L 525.809383 176.664731 
L 528.094967 249.297087 
L 528.856828 157.661835 
L 529.61869 212.367023 
L 530.380551 190.543206 
L 531.142413 184.960898 
L 533.427997 184.831509 
L 534.189858 193.065485 
L 534.95172 149.794655 
L 535.713581 204.539994 
L 536.475442 194.590499 
L 538.761027 185.012625 
L 539.522888 159.200562 
L 540.28475 160.736324 
L 541.046611 160.861614 
L 541.808472 147.350028 
L 544.094057 214.647991 
L 544.855918 206.129027 
L 545.61778 177.360498 
L 546.379641 112.663501 
L 547.141502 117.336418 
L 549.427087 143.267324 
L 550.188948 195.988891 
L 550.950809 182.518294 
L 551.712671 181.230918 
L 552.474532 159.012737 
L 554.760117 221.382724 
L 555.521978 155.453828 
L 556.283839 169.449377 
L 557.045701 238.100549 
L 557.807562 153.742568 
L 560.093146 182.663824 
L 560.855008 197.390507 
L 562.378731 132.302247 
L 563.140592 177.980014 
L 565.426176 203.645372 
L 566.188038 208.364396 
L 566.949899 222.094284 
L 568.473622 159.218821 
L 570.759206 229.24359 
L 571.521068 190.873428 
L 572.282929 146.614384 
L 573.044791 159.041302 
L 573.806652 141.72423 
L 576.092236 157.432599 
L 576.854098 165.779012 
L 577.615959 162.454658 
L 578.37782 186.071753 
L 579.139682 183.415511 
L 581.425266 148.892546 
L 582.187128 147.267082 
L 582.948989 147.032413 
L 583.71085 163.037184 
L 584.472712 170.86363 
L 586.758296 139.388177 
L 587.520157 206.321366 
L 588.282019 164.496306 
L 589.04388 201.491778 
L 589.805742 174.407605 
L 592.091326 167.64686 
L 592.853187 151.014038 
L 593.615049 176.664731 
L 594.37691 166.533972 
L 595.138772 210.054725 
L 597.424356 162.570665 
L 598.186217 218.652996 
L 598.948079 185.111644 
L 599.70994 170.139623 
L 602.757386 181.867918 
L 603.519247 209.920989 
L 605.04297 146.164095 
L 605.804832 178.623982 
L 608.090416 195.624426 
L 608.852277 207.025601 
L 609.614139 161.921512 
L 610.376 199.283392 
L 611.137861 169.936396 
L 613.423446 151.505209 
L 614.185307 171.363676 
L 614.947169 120.48997 
L 615.70903 172.164332 
L 616.470891 199.116183 
L 618.756476 155.905548 
L 619.518337 189.506467 
L 620.280198 190.235283 
L 621.04206 172.110409 
L 621.803921 132.628481 
L 624.089506 211.64384 
L 624.851367 150.127449 
L 625.613228 169.637816 
L 626.37509 170.935408 
L 627.136951 193.168959 
L 629.422535 150.42334 
L 631.70812 146.338835 
L 632.469981 184.133438 
L 634.755565 184.786102 
L 637.04115 139.953368 
L 637.803011 193.304228 
L 640.088595 197.172071 
L 640.850457 215.590661 
L 641.612318 197.152392 
L 642.37418 195.422856 
L 643.136041 200.823259 
L 645.421625 148.246937 
L 646.183487 186.439675 
L 646.945348 205.478055 
L 648.469071 144.82729 
L 650.754655 211.923071 
L 651.516517 225.180501 
L 652.278378 143.974691 
L 653.040239 133.775691 
L 653.802101 201.597772 
L 656.087685 201.246672 
L 656.849546 194.152502 
L 657.611408 194.306059 
L 658.373269 149.28383 
L 659.135131 197.599553 
L 661.420715 166.081804 
L 662.182576 163.080606 
L 663.706299 185.423061 
L 664.468161 171.25137 
L 666.753745 157.768489 
L 667.515606 92.423966 
L 668.277468 166.397941 
L 669.039329 212.415675 
L 669.801191 202.663729 
L 672.086775 187.200724 
L 672.848636 178.650628 
L 673.610498 156.78598 
L 674.372359 178.633117 
L 675.134221 225.165436 
L 679.705389 259.407357 
L 680.46725 145.284036 
L 682.752835 176.313491 
L 683.514696 197.036542 
L 684.276558 156.084236 
L 685.038419 210.383452 
L 685.80028 241.681174 
L 688.085865 266.006145 
L 688.847726 127.210606 
L 689.609587 277.721857 
L 690.371449 379.160452 
L 690.371449 379.160452 
" style="fill:none;stroke:#1f77b4;stroke-linecap:square;stroke-width:1.5;"/>
   </g>
   <g id="line2d_20">
    <path clip-path="url(#p82918bb66d)" d="M 81.644176 152.981972 
L 82.406038 138.861949 
L 83.167899 173.146352 
L 85.453483 178.410895 
L 86.215345 208.455122 
L 87.739067 144.36322 
L 88.500929 171.382713 
L 90.786513 152.007833 
L 91.548375 150.566035 
L 92.310236 145.76253 
L 93.072097 166.526603 
L 93.833959 169.92774 
L 96.119543 126.358911 
L 96.881404 202.832453 
L 97.643266 45.706527 
L 98.405127 176.664731 
L 99.166989 92.630868 
L 101.452573 228.948295 
L 102.214434 164.400285 
L 102.976296 165.983523 
L 103.738157 182.735788 
L 104.500019 208.601751 
L 106.785603 238.493114 
L 107.547464 98.525733 
L 108.309326 218.112297 
L 109.071187 195.454733 
L 109.833049 179.8323 
L 114.404217 111.70716 
L 117.451663 181.167077 
L 118.213524 95.505331 
L 118.975386 142.013667 
L 119.737247 144.006564 
L 120.499108 178.697813 
L 122.784693 173.713801 
L 124.308416 228.870498 
L 125.070277 141.939233 
L 125.832138 160.085437 
L 128.117723 122.845844 
L 128.879584 185.408426 
L 129.641445 182.519624 
L 130.403307 189.859916 
L 131.165168 158.949232 
L 133.450753 157.638905 
L 134.212614 189.707877 
L 134.974475 197.095636 
L 135.736337 185.501077 
L 136.498198 195.914797 
L 138.783782 197.596421 
L 139.545644 176.664731 
L 140.307505 173.641051 
L 141.069367 184.213972 
L 141.831228 170.602453 
L 144.116812 143.456627 
L 144.878674 197.458075 
L 145.640535 152.650222 
L 146.402397 141.077151 
L 149.449842 188.331342 
L 150.211704 186.916677 
L 150.973565 175.190577 
L 151.735427 182.557877 
L 152.497288 192.902823 
L 154.782872 216.837371 
L 155.544734 167.560721 
L 156.306595 178.177885 
L 157.068456 144.896708 
L 157.830318 219.848459 
L 160.115902 213.196509 
L 160.877764 139.456379 
L 161.639625 137.085837 
L 162.401486 208.008799 
L 163.163348 193.343736 
L 165.448932 169.02862 
L 166.210793 181.238784 
L 166.972655 164.439364 
L 167.734516 111.417322 
L 168.496378 173.721875 
L 170.781962 188.417061 
L 172.305685 296.225047 
L 173.067546 231.603397 
L 173.829408 208.935817 
L 176.114992 173.398852 
L 176.876853 171.748082 
L 177.638715 171.759895 
L 178.400576 109.863199 
L 179.162438 208.201332 
L 181.448022 205.496583 
L 182.209883 204.30731 
L 182.971745 156.885583 
L 183.733606 264.794835 
L 184.495468 205.674214 
L 186.781052 188.800503 
L 187.542913 89.53027 
L 188.304775 223.435676 
L 189.066636 144.183476 
L 189.828497 205.26111 
L 192.114082 260.313344 
L 192.875943 190.908845 
L 193.637805 171.277543 
L 195.161527 146.212318 
L 197.447112 112.607045 
L 198.208973 276.36627 
L 198.970834 204.376061 
L 199.732696 299.095791 
L 200.494557 172.390143 
L 202.780142 223.586038 
L 203.542003 178.848488 
L 204.303864 191.968124 
L 205.065726 242.752354 
L 205.827587 156.164157 
L 208.113171 244.309968 
L 208.875033 87.995098 
L 209.636894 134.203668 
L 210.398756 235.755316 
L 211.160617 160.880898 
L 213.446201 185.613758 
L 214.208063 142.955017 
L 214.969924 236.340365 
L 215.731786 126.551736 
L 216.493647 145.550793 
L 218.779231 154.779585 
L 219.541093 109.550937 
L 220.302954 157.810188 
L 221.064816 172.513788 
L 224.874123 172.531088 
L 225.635984 170.476236 
L 226.397845 147.875581 
L 227.159707 132.063873 
L 229.445291 164.765087 
L 230.207153 137.231973 
L 230.969014 178.598783 
L 231.730875 147.631713 
L 232.492737 111.794511 
L 234.778321 226.567701 
L 236.302044 112.34406 
L 237.063905 211.49365 
L 237.825767 182.261185 
L 240.111351 156.087012 
L 240.873212 256.287087 
L 241.635074 132.318761 
L 242.396935 165.345706 
L 243.158797 116.636915 
L 245.444381 205.808274 
L 246.206242 180.360662 
L 246.968104 219.253796 
L 247.729965 216.392233 
L 248.491827 253.862513 
L 250.777411 186.699977 
L 251.539272 128.253101 
L 252.301134 180.604472 
L 253.062995 196.400059 
L 253.824857 202.575598 
L 256.110441 181.036827 
L 256.872302 222.138056 
L 257.634164 132.253305 
L 258.396025 230.460759 
L 259.157886 168.160728 
L 261.443471 119.504602 
L 262.205332 209.600318 
L 262.967194 120.159778 
L 263.729055 266.227972 
L 264.490916 142.576796 
L 266.776501 198.696126 
L 267.538362 200.001874 
L 268.300223 176.664731 
L 269.062085 103.685255 
L 272.109531 178.735635 
L 272.871392 259.599203 
L 273.633253 163.688697 
L 274.395115 163.772189 
L 275.156976 129.693938 
L 278.204422 149.959385 
L 279.728145 205.075865 
L 280.490006 154.021641 
L 282.77559 233.659506 
L 283.537452 159.904875 
L 284.299313 157.966201 
L 285.061175 116.96858 
L 285.823036 166.669373 
L 288.10862 198.545781 
L 288.870482 94.2102 
L 289.632343 110.983815 
L 290.394205 191.629426 
L 291.156066 201.16609 
L 293.44165 54.55531 
L 294.203512 192.852453 
L 294.965373 225.622551 
L 295.727235 187.815813 
L 298.77468 163.582588 
L 299.536542 93.107754 
L 300.298403 194.491413 
L 301.060264 237.818142 
L 301.822126 180.37534 
L 304.10771 145.06955 
L 304.869572 180.324271 
L 305.631433 224.325385 
L 306.393294 154.133097 
L 307.155156 135.814513 
L 309.44074 203.962212 
L 310.202601 99.179243 
L 310.964463 189.099677 
L 311.726324 148.065799 
L 314.77377 159.041153 
L 315.535631 167.929476 
L 316.297493 167.967651 
L 317.059354 228.623721 
L 317.821216 132.215789 
L 320.1068 195.798809 
L 320.868661 190.714295 
L 321.630523 143.062122 
L 323.154246 100.128417 
L 325.43983 163.259816 
L 326.963553 213.284047 
L 327.725414 178.360426 
L 328.487275 173.271176 
L 330.77286 213.93263 
L 331.534721 98.994247 
L 333.058444 157.174961 
L 333.820305 200.792838 
L 336.10589 191.341644 
L 336.867751 206.233729 
L 337.629612 176.664731 
L 338.391474 124.979268 
L 339.153335 215.675671 
L 341.43892 237.998094 
L 342.200781 169.825454 
L 342.962642 156.215984 
L 343.724504 144.613899 
L 344.486365 163.381497 
L 346.771949 231.097966 
L 347.533811 166.807624 
L 348.295672 178.35306 
L 349.057534 178.354479 
L 349.819395 198.649607 
L 353.628702 202.312256 
L 354.390564 142.02542 
L 355.152425 128.991963 
L 358.961732 81.865496 
L 359.723594 159.19469 
L 360.485455 182.962561 
L 362.771039 178.244383 
L 363.532901 149.792439 
L 364.294762 150.147605 
L 365.056624 190.520194 
L 365.818485 201.468409 
L 368.104069 146.842634 
L 368.865931 189.037374 
L 369.627792 175.108967 
L 370.389653 173.554651 
L 371.151515 178.217047 
L 373.437099 184.433755 
L 374.198961 186.023943 
L 374.960822 150.023498 
L 375.722683 144.185509 
L 378.770129 132.525948 
L 379.53199 209.429461 
L 380.293852 153.954511 
L 381.055713 164.688068 
L 381.817575 170.711809 
L 384.103159 138.08597 
L 384.86502 239.266419 
L 385.626882 262.317138 
L 386.388743 173.525495 
L 387.150605 112.412241 
L 389.436189 190.33153 
L 390.19805 143.027591 
L 390.959912 220.274907 
L 391.721773 125.938309 
L 392.483635 202.152994 
L 394.769219 217.665753 
L 395.53108 134.809531 
L 396.292942 181.220383 
L 397.054803 121.871726 
L 397.816664 229.572278 
L 400.102249 190.681452 
L 400.86411 175.096218 
L 401.625972 204.873421 
L 402.387833 219.580008 
L 403.149694 191.305678 
L 407.720863 171.748808 
L 408.482724 140.700603 
L 410.768309 120.455585 
L 411.53017 170.415927 
L 412.292031 164.205248 
L 413.053893 209.168633 
L 413.815754 171.945138 
L 416.101338 162.538347 
L 416.8632 207.837598 
L 417.625061 211.494919 
L 418.386923 207.276105 
L 419.148784 233.926654 
L 421.434368 171.612658 
L 422.19623 164.905792 
L 422.958091 276.867947 
L 423.719953 67.686125 
L 424.481814 188.33601 
L 426.767398 176.664731 
L 427.52926 195.111687 
L 428.291121 196.975679 
L 429.052983 168.115277 
L 429.814844 130.694468 
L 432.100428 178.329055 
L 432.86229 206.65125 
L 433.624151 186.811403 
L 434.386013 202.160856 
L 435.147874 197.323597 
L 437.433458 180.143415 
L 438.19532 159.23974 
L 438.957181 204.305023 
L 439.719042 155.645465 
L 442.766488 183.598783 
L 443.52835 124.480447 
L 444.290211 176.664731 
L 445.052072 144.451924 
L 445.813934 180.002008 
L 448.099518 213.436532 
L 448.861379 157.936384 
L 450.385102 169.916983 
L 451.146964 206.926942 
L 453.432548 232.994181 
L 454.194409 176.664731 
L 454.956271 159.102477 
L 455.718132 185.369763 
L 456.479994 183.658957 
L 458.765578 211.757679 
L 459.527439 173.093102 
L 460.289301 180.230021 
L 461.051162 207.02411 
L 461.813024 176.664731 
L 464.098608 111.388121 
L 464.860469 115.198252 
L 465.622331 188.59288 
L 466.384192 183.521526 
L 467.146053 199.026321 
L 469.431638 171.446267 
L 470.193499 126.350913 
L 470.955361 127.580151 
L 472.479083 166.888213 
L 474.764668 168.544039 
L 475.526529 171.811866 
L 476.28839 225.07644 
L 477.050252 153.514711 
L 477.812113 158.682457 
L 480.097698 207.449217 
L 480.859559 171.728567 
L 482.383282 203.056608 
L 483.145143 183.35082 
L 485.430728 178.341372 
L 486.192589 138.061023 
L 486.95445 147.022645 
L 488.478173 140.961965 
L 490.763757 168.692435 
L 491.525619 187.782149 
L 492.28748 112.783361 
L 493.049342 182.855852 
L 493.811203 184.42771 
L 496.096787 171.98897 
L 496.858649 198.435064 
L 497.62051 146.795583 
L 498.382372 148.782585 
L 499.144233 158.330866 
L 501.429817 175.150624 
L 502.95354 167.587687 
L 503.715402 197.74949 
L 504.477263 207.105173 
L 506.762847 184.392191 
L 507.524709 185.972927 
L 508.28657 170.430226 
L 509.048431 133.158052 
L 509.810293 200.998648 
L 512.095877 145.874402 
L 512.857739 166.050895 
L 513.6196 179.681276 
L 514.381461 237.088317 
L 515.143323 159.53278 
L 517.428907 179.753308 
L 518.190768 209.144181 
L 518.95263 225.398064 
L 519.714491 163.775593 
L 520.476353 191.072518 
L 522.761937 208.913194 
L 523.523798 111.115815 
L 524.28566 124.295348 
L 525.809383 185.852471 
L 528.094967 247.428193 
L 528.856828 125.640919 
L 529.61869 203.099969 
L 530.380551 168.785752 
L 531.142413 168.521808 
L 533.427997 211.996097 
L 534.189858 207.724714 
L 534.95172 151.75858 
L 535.713581 209.466191 
L 536.475442 205.00862 
L 538.761027 185.120248 
L 539.522888 144.39717 
L 540.28475 146.578989 
L 541.046611 166.783737 
L 541.808472 171.748573 
L 544.094057 197.950678 
L 544.855918 208.10872 
L 545.61778 144.720788 
L 546.379641 103.84842 
L 547.141502 117.574337 
L 549.427087 151.842152 
L 550.188948 196.587119 
L 550.950809 182.855882 
L 551.712671 150.270321 
L 552.474532 169.002308 
L 554.760117 182.771498 
L 555.521978 167.476802 
L 556.283839 173.615981 
L 557.045701 194.92907 
L 557.807562 152.088861 
L 560.093146 197.908677 
L 560.855008 182.799169 
L 561.616869 164.358129 
L 562.378731 133.853491 
L 563.140592 181.155926 
L 565.426176 208.173823 
L 566.188038 211.724467 
L 566.949899 223.207141 
L 568.473622 175.05743 
L 570.759206 229.662014 
L 571.521068 183.262365 
L 572.282929 145.221386 
L 573.044791 160.37059 
L 573.806652 133.02447 
L 576.092236 143.443572 
L 576.854098 173.552371 
L 577.615959 139.373423 
L 578.37782 179.715647 
L 579.139682 188.887404 
L 581.425266 147.458441 
L 582.187128 131.210564 
L 582.948989 161.848597 
L 583.71085 178.135541 
L 584.472712 156.058592 
L 586.758296 159.181966 
L 587.520157 195.441191 
L 588.282019 151.879411 
L 589.04388 211.229226 
L 589.805742 169.337644 
L 592.853187 152.093244 
L 593.615049 192.371769 
L 594.37691 179.543135 
L 595.138772 202.606697 
L 597.424356 157.683729 
L 598.186217 199.807592 
L 598.948079 210.319894 
L 599.70994 157.318023 
L 602.757386 181.086872 
L 603.519247 203.25539 
L 605.04297 163.191147 
L 605.804832 146.922506 
L 608.090416 225.023302 
L 608.852277 224.714122 
L 609.614139 152.051528 
L 610.376 172.105443 
L 611.137861 173.632235 
L 613.423446 159.985711 
L 614.185307 181.176022 
L 614.947169 128.43497 
L 615.70903 185.495625 
L 616.470891 195.883382 
L 618.756476 143.826845 
L 619.518337 179.602049 
L 620.280198 182.547826 
L 621.04206 179.614846 
L 621.803921 161.006416 
L 624.089506 195.728999 
L 624.851367 138.170924 
L 626.37509 175.226839 
L 627.136951 195.34689 
L 629.422535 162.158832 
L 631.70812 142.09997 
L 632.469981 185.159839 
L 634.755565 182.352139 
L 637.04115 139.591562 
L 637.803011 206.065888 
L 640.088595 180.927373 
L 640.850457 203.718038 
L 641.612318 206.974113 
L 642.37418 216.230901 
L 643.136041 190.118262 
L 645.421625 149.576128 
L 646.183487 154.391043 
L 646.945348 208.974516 
L 647.707209 172.186884 
L 648.469071 160.282231 
L 650.754655 204.732679 
L 651.516517 223.108675 
L 652.278378 147.525488 
L 653.040239 137.360068 
L 653.802101 206.319001 
L 656.087685 220.307488 
L 656.849546 168.973275 
L 657.611408 198.119181 
L 658.373269 159.625567 
L 659.135131 210.456617 
L 661.420715 178.226885 
L 662.944438 165.745873 
L 663.706299 196.832957 
L 666.753745 135.823374 
L 667.515606 141.255753 
L 668.277468 163.04911 
L 669.039329 206.718091 
L 669.801191 202.598032 
L 672.086775 176.664731 
L 672.848636 147.301491 
L 673.610498 153.816893 
L 674.372359 190.219258 
L 679.705389 324.091049 
L 680.46725 152.968836 
L 682.752835 123.044585 
L 683.514696 206.042004 
L 684.276558 165.070775 
L 685.038419 237.595698 
L 685.80028 222.518446 
L 688.085865 303.535512 
L 688.847726 133.997287 
L 689.609587 311.087646 
L 690.371449 381.076364 
L 690.371449 381.076364 
" style="fill:none;stroke:#ff7f0e;stroke-linecap:square;stroke-width:1.5;"/>
   </g>
   <g id="line2d_21">
    <path clip-path="url(#p82918bb66d)" d="M 81.644176 184.011417 
L 82.406038 130.578113 
L 83.167899 176.664731 
L 85.453483 155.042943 
L 86.215345 206.975727 
L 86.977206 174.85548 
L 87.739067 149.534365 
L 88.500929 169.541337 
L 90.786513 144.651714 
L 91.548375 167.906506 
L 92.310236 141.823344 
L 93.072097 145.84416 
L 93.833959 196.90694 
L 96.119543 113.614562 
L 96.881404 191.529024 
L 97.643266 86.773237 
L 98.405127 176.664731 
L 99.166989 68.331926 
L 101.452573 203.866833 
L 102.214434 190.470095 
L 102.976296 156.603526 
L 103.738157 181.235251 
L 104.500019 187.393669 
L 106.785603 199.761183 
L 107.547464 157.976402 
L 108.309326 179.736726 
L 109.071187 212.224406 
L 109.833049 200.25082 
L 114.404217 85.928184 
L 115.166079 129.453664 
L 117.451663 194.522479 
L 118.213524 25.003636 
L 118.975386 133.374792 
L 119.737247 156.176129 
L 120.499108 151.011596 
L 122.784693 169.564324 
L 123.546554 229.09343 
L 124.308416 247.941098 
L 125.070277 131.895406 
L 125.832138 184.042477 
L 128.117723 166.291652 
L 128.879584 145.68899 
L 129.641445 159.230815 
L 130.403307 183.857195 
L 131.165168 189.686188 
L 133.450753 93.738028 
L 134.212614 161.296197 
L 134.974475 218.256604 
L 135.736337 175.247103 
L 136.498198 203.542593 
L 138.783782 221.132616 
L 139.545644 176.664731 
L 140.307505 189.860282 
L 141.069367 206.18487 
L 141.831228 124.225411 
L 144.116812 135.789274 
L 144.878674 216.725143 
L 145.640535 148.927229 
L 146.402397 169.4568 
L 149.449842 215.418121 
L 150.211704 182.507825 
L 150.973565 169.335703 
L 151.735427 186.894221 
L 152.497288 182.549403 
L 154.782872 145.712083 
L 155.544734 191.179749 
L 156.306595 200.051319 
L 157.068456 133.767156 
L 157.830318 224.465001 
L 160.115902 185.576586 
L 160.877764 164.729601 
L 161.639625 155.934062 
L 162.401486 227.978262 
L 163.163348 155.607979 
L 165.448932 194.537891 
L 166.210793 146.59764 
L 166.972655 190.002677 
L 167.734516 133.432088 
L 168.496378 162.076306 
L 170.781962 165.080801 
L 172.305685 265.951638 
L 173.067546 226.401533 
L 173.829408 227.664432 
L 176.114992 154.460066 
L 176.876853 171.972184 
L 177.638715 178.231231 
L 178.400576 134.376917 
L 179.162438 207.334212 
L 181.448022 193.796399 
L 182.209883 219.084922 
L 182.971745 144.573826 
L 183.733606 255.630033 
L 184.495468 176.664731 
L 186.781052 181.601891 
L 187.542913 148.63671 
L 188.304775 179.918819 
L 189.066636 181.553876 
L 189.828497 173.397224 
L 192.114082 293.993167 
L 192.875943 161.074758 
L 193.637805 161.213638 
L 195.161527 124.969686 
L 197.447112 140.06956 
L 198.208973 237.763648 
L 198.970834 193.345475 
L 199.732696 279.45423 
L 200.494557 174.695504 
L 202.780142 221.922705 
L 203.542003 190.756564 
L 204.303864 225.320473 
L 205.065726 191.208102 
L 205.827587 208.056964 
L 208.113171 204.302224 
L 208.875033 73.193208 
L 209.636894 135.663203 
L 210.398756 236.937188 
L 213.446201 145.008914 
L 214.208063 184.97554 
L 214.969924 187.095848 
L 215.731786 126.332735 
L 216.493647 160.297866 
L 218.779231 156.37083 
L 219.541093 106.34711 
L 220.302954 153.37119 
L 221.064816 168.989141 
L 221.826677 169.018354 
L 224.874123 214.751459 
L 225.635984 153.37119 
L 226.397845 180.502425 
L 227.159707 138.213536 
L 229.445291 189.869641 
L 230.969014 133.276179 
L 231.730875 182.20415 
L 232.492737 137.77965 
L 234.778321 169.398409 
L 235.540183 194.764881 
L 236.302044 94.475109 
L 237.825767 243.051453 
L 240.111351 162.210878 
L 240.873212 248.417409 
L 241.635074 150.621128 
L 242.396935 165.646077 
L 243.158797 116.392214 
L 245.444381 199.71704 
L 246.206242 194.602524 
L 246.968104 194.764881 
L 247.729965 202.234814 
L 248.491827 261.764021 
L 250.777411 147.687278 
L 251.539272 151.908078 
L 252.301134 182.308475 
L 253.062995 191.75665 
L 253.824857 186.168199 
L 256.110441 176.898191 
L 256.872302 225.381647 
L 257.634164 146.708592 
L 258.396025 219.954953 
L 259.157886 152.531734 
L 261.443471 162.754514 
L 262.205332 188.505819 
L 262.967194 131.003729 
L 263.729055 238.780832 
L 264.490916 180.671336 
L 266.776501 155.558785 
L 267.538362 194.567468 
L 268.300223 168.636831 
L 269.062085 156.673832 
L 272.109531 129.159063 
L 272.871392 255.944872 
L 273.633253 170.625604 
L 274.395115 186.699914 
L 275.156976 126.236308 
L 277.44256 149.115861 
L 278.204422 155.312737 
L 278.966283 167.060679 
L 279.728145 209.16182 
L 280.490006 149.46262 
L 282.77559 215.006244 
L 283.537452 174.709766 
L 284.299313 151.283108 
L 285.061175 140.030743 
L 285.823036 197.494269 
L 288.10862 188.145021 
L 288.870482 115.083581 
L 289.632343 107.579678 
L 290.394205 192.910701 
L 293.44165 129.349508 
L 294.965373 212.097965 
L 295.727235 187.486024 
L 298.77468 178.477613 
L 299.536542 122.218359 
L 300.298403 185.499938 
L 301.060264 199.737082 
L 301.822126 183.846263 
L 304.10771 146.033312 
L 304.869572 174.889556 
L 305.631433 181.984643 
L 306.393294 174.886597 
L 307.155156 146.466649 
L 309.44074 211.665854 
L 310.202601 101.858745 
L 310.964463 166.361731 
L 311.726324 152.747054 
L 314.77377 144.587427 
L 315.535631 170.017634 
L 316.297493 160.101957 
L 317.059354 230.874858 
L 317.821216 146.275733 
L 320.1068 181.654181 
L 320.868661 183.333551 
L 321.630523 161.609484 
L 323.154246 110.249035 
L 325.43983 173.449865 
L 326.963553 187.897633 
L 327.725414 171.823728 
L 328.487275 195.98269 
L 330.77286 191.294157 
L 331.534721 117.718299 
L 332.296583 136.897115 
L 333.058444 150.147144 
L 333.820305 215.153102 
L 336.10589 181.380771 
L 336.867751 175.08918 
L 337.629612 239.645122 
L 338.391474 101.893385 
L 339.153335 198.604574 
L 341.43892 221.029214 
L 342.200781 168.563458 
L 342.962642 131.481162 
L 343.724504 149.834562 
L 344.486365 173.55011 
L 346.771949 237.310042 
L 347.533811 111.187065 
L 348.295672 193.756678 
L 349.057534 164.127784 
L 349.819395 200.02563 
L 353.628702 138.847244 
L 354.390564 190.584474 
L 355.152425 114.367618 
L 358.961732 113.219907 
L 359.723594 135.66358 
L 360.485455 166.619447 
L 362.771039 203.794831 
L 363.532901 167.980281 
L 364.294762 137.751358 
L 365.056624 163.939923 
L 365.818485 173.854841 
L 368.865931 186.520237 
L 369.627792 185.153765 
L 370.389653 173.822755 
L 371.151515 125.586652 
L 373.437099 197.419811 
L 374.960822 164.055569 
L 375.722683 161.349494 
L 378.770129 126.921706 
L 379.53199 160.484152 
L 380.293852 141.88706 
L 381.055713 147.738312 
L 381.817575 170.183789 
L 384.103159 134.028425 
L 384.86502 188.05109 
L 385.626882 230.104375 
L 386.388743 210.650455 
L 387.150605 111.512644 
L 389.436189 154.77094 
L 390.19805 157.55492 
L 390.959912 109.779887 
L 391.721773 174.221966 
L 392.483635 225.458205 
L 394.769219 184.166186 
L 395.53108 146.547483 
L 396.292942 137.101224 
L 397.054803 202.126771 
L 397.816664 222.845398 
L 400.102249 211.259629 
L 400.86411 202.739926 
L 401.625972 164.776673 
L 402.387833 216.058269 
L 403.149694 178.005748 
L 407.720863 176.664731 
L 408.482724 169.95436 
L 410.768309 160.613775 
L 411.53017 162.067705 
L 412.292031 180.61695 
L 413.053893 204.385194 
L 413.815754 153.910458 
L 416.101338 164.753132 
L 416.8632 181.927586 
L 417.625061 171.388053 
L 418.386923 175.34905 
L 419.148784 250.29583 
L 421.434368 171.205096 
L 422.19623 178.026145 
L 422.958091 231.147986 
L 423.719953 127.663079 
L 424.481814 182.13152 
L 426.767398 227.371187 
L 427.52926 200.565616 
L 428.291121 222.196204 
L 429.052983 162.106289 
L 429.814844 176.664731 
L 432.100428 169.437806 
L 432.86229 218.430254 
L 433.624151 189.901777 
L 434.386013 188.509064 
L 435.147874 204.961435 
L 437.433458 123.794528 
L 438.19532 197.270467 
L 438.957181 207.893853 
L 439.719042 140.410687 
L 442.766488 190.019241 
L 443.52835 136.333563 
L 444.290211 172.271776 
L 445.052072 166.436867 
L 445.813934 150.497284 
L 448.099518 212.540962 
L 448.861379 169.359114 
L 450.385102 185.399854 
L 451.146964 197.135641 
L 453.432548 206.210099 
L 454.194409 215.64665 
L 454.956271 135.382222 
L 455.718132 179.661369 
L 456.479994 194.669764 
L 458.765578 219.056789 
L 459.527439 175.117812 
L 460.289301 178.21046 
L 461.051162 229.250207 
L 461.813024 136.95981 
L 464.098608 129.941818 
L 464.860469 135.570023 
L 465.622331 164.732316 
L 466.384192 222.629003 
L 467.146053 166.042741 
L 469.431638 155.532629 
L 470.193499 140.815004 
L 470.955361 141.443341 
L 471.717222 150.70421 
L 472.479083 163.849843 
L 474.764668 190.833085 
L 475.526529 173.810706 
L 476.28839 210.862163 
L 477.050252 162.168966 
L 477.812113 149.320737 
L 480.097698 205.061517 
L 480.859559 191.066396 
L 481.62142 191.170813 
L 482.383282 235.110619 
L 483.145143 173.654945 
L 485.430728 161.638011 
L 486.192589 136.393849 
L 486.95445 159.118304 
L 488.478173 146.223974 
L 491.525619 205.427401 
L 492.28748 134.353082 
L 493.049342 285.263357 
L 493.811203 197.813043 
L 496.096787 162.924842 
L 496.858649 173.632077 
L 497.62051 217.542557 
L 498.382372 138.028879 
L 499.144233 147.855206 
L 501.429817 175.170065 
L 502.95354 167.702205 
L 503.715402 179.63917 
L 504.477263 204.961261 
L 506.762847 187.239038 
L 507.524709 172.108798 
L 508.28657 178.17999 
L 509.048431 138.757398 
L 509.810293 198.987905 
L 512.095877 152.58599 
L 512.857739 163.280947 
L 513.6196 170.755516 
L 514.381461 234.109062 
L 515.143323 190.311292 
L 517.428907 191.931087 
L 518.190768 161.281482 
L 518.95263 251.470654 
L 519.714491 219.478525 
L 520.476353 209.069126 
L 522.761937 209.600345 
L 523.523798 101.324181 
L 524.28566 116.957591 
L 525.047521 139.053201 
L 525.809383 182.817969 
L 528.094967 216.78504 
L 528.856828 209.729061 
L 529.61869 168.660458 
L 530.380551 165.503281 
L 531.142413 165.176949 
L 533.427997 210.689577 
L 534.189858 199.738251 
L 534.95172 146.653651 
L 535.713581 202.948927 
L 536.475442 196.638914 
L 538.761027 176.664731 
L 539.522888 158.170886 
L 540.28475 150.010515 
L 541.046611 156.93541 
L 541.808472 157.127746 
L 544.094057 187.969804 
L 544.855918 205.899627 
L 545.61778 153.590558 
L 546.379641 126.152804 
L 547.141502 135.339038 
L 549.427087 153.303175 
L 550.188948 198.218005 
L 550.950809 157.990177 
L 551.712671 158.16201 
L 554.760117 201.017006 
L 555.521978 152.013657 
L 556.283839 173.620363 
L 557.045701 190.3424 
L 557.807562 196.556458 
L 560.093146 155.028712 
L 560.855008 187.367555 
L 561.616869 175.127482 
L 562.378731 132.121128 
L 563.140592 179.66995 
L 565.426176 188.704203 
L 566.188038 209.972733 
L 566.949899 238.245643 
L 567.711761 170.311886 
L 568.473622 195.663036 
L 570.759206 226.212387 
L 571.521068 168.470825 
L 572.282929 158.712281 
L 573.806652 122.665707 
L 576.092236 141.092058 
L 576.854098 194.901525 
L 577.615959 101.516051 
L 578.37782 172.229876 
L 579.139682 222.392492 
L 581.425266 151.004186 
L 582.187128 136.423591 
L 582.948989 169.359031 
L 583.71085 188.311471 
L 584.472712 150.306589 
L 586.758296 169.43787 
L 587.520157 189.626653 
L 588.282019 157.820408 
L 589.04388 203.950331 
L 589.805742 176.664731 
L 592.091326 154.826899 
L 592.853187 166.583361 
L 593.615049 185.262821 
L 594.37691 163.712234 
L 595.138772 219.563109 
L 597.424356 164.975497 
L 598.186217 198.45505 
L 598.948079 191.351038 
L 599.70994 158.911529 
L 602.757386 179.597562 
L 603.519247 214.848988 
L 605.04297 149.717507 
L 605.804832 163.369373 
L 608.090416 207.483237 
L 608.852277 233.300281 
L 609.614139 141.391059 
L 610.376 179.678968 
L 611.137861 179.683791 
L 613.423446 141.84268 
L 614.185307 191.546874 
L 614.947169 136.183224 
L 615.70903 172.25561 
L 616.470891 198.661774 
L 618.756476 139.597098 
L 619.518337 176.664731 
L 620.280198 191.223208 
L 621.04206 148.801591 
L 621.803921 181.591891 
L 624.089506 195.52256 
L 624.851367 147.377887 
L 625.613228 144.912028 
L 626.37509 196.5566 
L 627.136951 178.099737 
L 629.422535 168.048259 
L 631.70812 165.225255 
L 632.469981 180.930143 
L 634.755565 183.789153 
L 637.04115 153.785641 
L 637.803011 172.423195 
L 640.088595 196.416773 
L 640.850457 196.613169 
L 641.612318 202.5697 
L 642.37418 205.823914 
L 643.136041 185.541347 
L 645.421625 149.916847 
L 646.183487 169.332153 
L 646.945348 205.887674 
L 647.707209 178.147538 
L 648.469071 155.89139 
L 650.754655 195.756762 
L 651.516517 213.732471 
L 652.278378 146.453336 
L 653.040239 140.94771 
L 653.802101 195.673533 
L 656.087685 222.425966 
L 656.849546 169.111919 
L 657.611408 181.179504 
L 658.373269 151.023492 
L 659.135131 231.769017 
L 661.420715 162.882972 
L 662.182576 173.623082 
L 662.944438 173.627532 
L 663.706299 191.827653 
L 664.468161 182.775934 
L 666.753745 153.677611 
L 667.515606 147.876992 
L 668.277468 161.72728 
L 669.039329 178.147538 
L 669.801191 197.438072 
L 672.086775 179.663252 
L 673.610498 126.252587 
L 674.372359 207.039503 
L 675.134221 222.061009 
L 679.705389 268.333456 
L 680.46725 146.248548 
L 682.752835 130.860184 
L 683.514696 215.271105 
L 684.276558 151.472583 
L 685.038419 187.549769 
L 685.80028 215.751806 
L 688.085865 256.389956 
L 688.847726 118.551067 
L 689.609587 297.693391 
L 690.371449 332.926153 
L 690.371449 332.926153 
" style="fill:none;stroke:#2ca02c;stroke-linecap:square;stroke-width:1.5;"/>
   </g>
   <g id="patch_3">
    <path d="M 51.207813 398.88 
L 51.207813 7.2 
" style="fill:none;stroke:#000000;stroke-linecap:square;stroke-linejoin:miter;stroke-width:0.8;"/>
   </g>
   <g id="patch_4">
    <path d="M 720.807813 398.88 
L 720.807813 7.2 
" style="fill:none;stroke:#000000;stroke-linecap:square;stroke-linejoin:miter;stroke-width:0.8;"/>
   </g>
   <g id="patch_5">
    <path d="M 51.207812 398.88 
L 720.807812 398.88 
" style="fill:none;stroke:#000000;stroke-linecap:square;stroke-linejoin:miter;stroke-width:0.8;"/>
   </g>
   <g id="patch_6">
    <path d="M 51.207812 7.2 
L 720.807812 7.2 
" style="fill:none;stroke:#000000;stroke-linecap:square;stroke-linejoin:miter;stroke-width:0.8;"/>
   </g>
   <g id="legend_1">
    <g id="patch_7">
     <path d="M 635.839063 59.234375 
L 713.807813 59.234375 
Q 715.807813 59.234375 715.807813 57.234375 
L 715.807813 14.2 
Q 715.807813 12.2 713.807813 12.2 
L 635.839063 12.2 
Q 633.839063 12.2 633.839063 14.2 
L 633.839063 57.234375 
Q 633.839063 59.234375 635.839063 59.234375 
z
" style="fill:#ffffff;opacity:0.8;stroke:#cccccc;stroke-linejoin:miter;"/>
    </g>
    <g id="line2d_22">
     <path d="M 637.839063 20.298437 
L 657.839063 20.298437 
" style="fill:none;stroke:#1f77b4;stroke-linecap:square;stroke-width:1.5;"/>
    </g>
    <g id="line2d_23"/>
    <g id="text_20">
     <!-- ITUB3.SA -->
     <defs>
      <path d="M 9.8125 72.90625 
L 19.671875 72.90625 
L 19.671875 0 
L 9.8125 0 
z
" id="DejaVuSans-73"/>
      <path d="M -0.296875 72.90625 
L 61.375 72.90625 
L 61.375 64.59375 
L 35.5 64.59375 
L 35.5 0 
L 25.59375 0 
L 25.59375 64.59375 
L -0.296875 64.59375 
z
" id="DejaVuSans-84"/>
      <path d="M 8.6875 72.90625 
L 18.609375 72.90625 
L 18.609375 28.609375 
Q 18.609375 16.890625 22.84375 11.734375 
Q 27.09375 6.59375 36.625 6.59375 
Q 46.09375 6.59375 50.34375 11.734375 
Q 54.59375 16.890625 54.59375 28.609375 
L 54.59375 72.90625 
L 64.5 72.90625 
L 64.5 27.390625 
Q 64.5 13.140625 57.4375 5.859375 
Q 50.390625 -1.421875 36.625 -1.421875 
Q 22.796875 -1.421875 15.734375 5.859375 
Q 8.6875 13.140625 8.6875 27.390625 
z
" id="DejaVuSans-85"/>
      <path d="M 19.671875 34.8125 
L 19.671875 8.109375 
L 35.5 8.109375 
Q 43.453125 8.109375 47.28125 11.40625 
Q 51.125 14.703125 51.125 21.484375 
Q 51.125 28.328125 47.28125 31.5625 
Q 43.453125 34.8125 35.5 34.8125 
z
M 19.671875 64.796875 
L 19.671875 42.828125 
L 34.28125 42.828125 
Q 41.5 42.828125 45.03125 45.53125 
Q 48.578125 48.25 48.578125 53.8125 
Q 48.578125 59.328125 45.03125 62.0625 
Q 41.5 64.796875 34.28125 64.796875 
z
M 9.8125 72.90625 
L 35.015625 72.90625 
Q 46.296875 72.90625 52.390625 68.21875 
Q 58.5 63.53125 58.5 54.890625 
Q 58.5 48.1875 55.375 44.234375 
Q 52.25 40.28125 46.1875 39.3125 
Q 53.46875 37.75 57.5 32.78125 
Q 61.53125 27.828125 61.53125 20.40625 
Q 61.53125 10.640625 54.890625 5.3125 
Q 48.25 0 35.984375 0 
L 9.8125 0 
z
" id="DejaVuSans-66"/>
      <path d="M 40.578125 39.3125 
Q 47.65625 37.796875 51.625 33 
Q 55.609375 28.21875 55.609375 21.1875 
Q 55.609375 10.40625 48.1875 4.484375 
Q 40.765625 -1.421875 27.09375 -1.421875 
Q 22.515625 -1.421875 17.65625 -0.515625 
Q 12.796875 0.390625 7.625 2.203125 
L 7.625 11.71875 
Q 11.71875 9.328125 16.59375 8.109375 
Q 21.484375 6.890625 26.8125 6.890625 
Q 36.078125 6.890625 40.9375 10.546875 
Q 45.796875 14.203125 45.796875 21.1875 
Q 45.796875 27.640625 41.28125 31.265625 
Q 36.765625 34.90625 28.71875 34.90625 
L 20.21875 34.90625 
L 20.21875 43.015625 
L 29.109375 43.015625 
Q 36.375 43.015625 40.234375 45.921875 
Q 44.09375 48.828125 44.09375 54.296875 
Q 44.09375 59.90625 40.109375 62.90625 
Q 36.140625 65.921875 28.71875 65.921875 
Q 24.65625 65.921875 20.015625 65.03125 
Q 15.375 64.15625 9.8125 62.3125 
L 9.8125 71.09375 
Q 15.4375 72.65625 20.34375 73.4375 
Q 25.25 74.21875 29.59375 74.21875 
Q 40.828125 74.21875 47.359375 69.109375 
Q 53.90625 64.015625 53.90625 55.328125 
Q 53.90625 49.265625 50.4375 45.09375 
Q 46.96875 40.921875 40.578125 39.3125 
z
" id="DejaVuSans-51"/>
      <path d="M 53.515625 70.515625 
L 53.515625 60.890625 
Q 47.90625 63.578125 42.921875 64.890625 
Q 37.9375 66.21875 33.296875 66.21875 
Q 25.25 66.21875 20.875 63.09375 
Q 16.5 59.96875 16.5 54.203125 
Q 16.5 49.359375 19.40625 46.890625 
Q 22.3125 44.4375 30.421875 42.921875 
L 36.375 41.703125 
Q 47.40625 39.59375 52.65625 34.296875 
Q 57.90625 29 57.90625 20.125 
Q 57.90625 9.515625 50.796875 4.046875 
Q 43.703125 -1.421875 29.984375 -1.421875 
Q 24.8125 -1.421875 18.96875 -0.25 
Q 13.140625 0.921875 6.890625 3.21875 
L 6.890625 13.375 
Q 12.890625 10.015625 18.65625 8.296875 
Q 24.421875 6.59375 29.984375 6.59375 
Q 38.421875 6.59375 43.015625 9.90625 
Q 47.609375 13.234375 47.609375 19.390625 
Q 47.609375 24.75 44.3125 27.78125 
Q 41.015625 30.8125 33.5 32.328125 
L 27.484375 33.5 
Q 16.453125 35.6875 11.515625 40.375 
Q 6.59375 45.0625 6.59375 53.421875 
Q 6.59375 63.09375 13.40625 68.65625 
Q 20.21875 74.21875 32.171875 74.21875 
Q 37.3125 74.21875 42.625 73.28125 
Q 47.953125 72.359375 53.515625 70.515625 
z
" id="DejaVuSans-83"/>
      <path d="M 34.1875 63.1875 
L 20.796875 26.90625 
L 47.609375 26.90625 
z
M 28.609375 72.90625 
L 39.796875 72.90625 
L 67.578125 0 
L 57.328125 0 
L 50.6875 18.703125 
L 17.828125 18.703125 
L 11.1875 0 
L 0.78125 0 
z
" id="DejaVuSans-65"/>
     </defs>
     <g transform="translate(665.839063 23.798437)scale(0.1 -0.1)">
      <use xlink:href="#DejaVuSans-73"/>
      <use x="29.492188" xlink:href="#DejaVuSans-84"/>
      <use x="90.576172" xlink:href="#DejaVuSans-85"/>
      <use x="163.769531" xlink:href="#DejaVuSans-66"/>
      <use x="232.373047" xlink:href="#DejaVuSans-51"/>
      <use x="295.996094" xlink:href="#DejaVuSans-46"/>
      <use x="327.783203" xlink:href="#DejaVuSans-83"/>
      <use x="391.275391" xlink:href="#DejaVuSans-65"/>
     </g>
    </g>
    <g id="line2d_24">
     <path d="M 637.839063 34.976562 
L 657.839063 34.976562 
" style="fill:none;stroke:#ff7f0e;stroke-linecap:square;stroke-width:1.5;"/>
    </g>
    <g id="line2d_25"/>
    <g id="text_21">
     <!-- ITSA4.SA -->
     <g transform="translate(665.839063 38.476562)scale(0.1 -0.1)">
      <use xlink:href="#DejaVuSans-73"/>
      <use x="29.492188" xlink:href="#DejaVuSans-84"/>
      <use x="90.576172" xlink:href="#DejaVuSans-83"/>
      <use x="154.068359" xlink:href="#DejaVuSans-65"/>
      <use x="222.476562" xlink:href="#DejaVuSans-52"/>
      <use x="286.099609" xlink:href="#DejaVuSans-46"/>
      <use x="317.886719" xlink:href="#DejaVuSans-83"/>
      <use x="381.378906" xlink:href="#DejaVuSans-65"/>
     </g>
    </g>
    <g id="line2d_26">
     <path d="M 637.839063 49.654687 
L 657.839063 49.654687 
" style="fill:none;stroke:#2ca02c;stroke-linecap:square;stroke-width:1.5;"/>
    </g>
    <g id="line2d_27"/>
    <g id="text_22">
     <!-- ITSA3.SA -->
     <g transform="translate(665.839063 53.154687)scale(0.1 -0.1)">
      <use xlink:href="#DejaVuSans-73"/>
      <use x="29.492188" xlink:href="#DejaVuSans-84"/>
      <use x="90.576172" xlink:href="#DejaVuSans-83"/>
      <use x="154.068359" xlink:href="#DejaVuSans-65"/>
      <use x="222.476562" xlink:href="#DejaVuSans-51"/>
      <use x="286.099609" xlink:href="#DejaVuSans-46"/>
      <use x="317.886719" xlink:href="#DejaVuSans-83"/>
      <use x="381.378906" xlink:href="#DejaVuSans-65"/>
     </g>
    </g>
   </g>
  </g>
 </g>
 <defs>
  <clipPath id="p82918bb66d">
   <rect height="391.68" width="669.6" x="51.207813" y="7.2"/>
  </clipPath>
 </defs>
</svg>
