<?xml version="1.0" encoding="utf-8" standalone="no"?>
<!DOCTYPE svg PUBLIC "-//W3C//DTD SVG 1.1//EN"
  "http://www.w3.org/Graphics/SVG/1.1/DTD/svg11.dtd">
<!-- Created with matplotlib (https://matplotlib.org/) -->
<svg height="533.99625pt" version="1.1" viewBox="0 0 902.723438 533.99625" width="902.723438pt" xmlns="http://www.w3.org/2000/svg" xmlns:xlink="http://www.w3.org/1999/xlink">
 <defs>
  <style type="text/css">
*{stroke-linecap:butt;stroke-linejoin:round;}
  </style>
 </defs>
 <g id="figure_1">
  <g id="patch_1">
   <path d="M -0 533.99625 
L 902.723438 533.99625 
L 902.723438 0 
L -0 0 
z
" style="fill:none;"/>
  </g>
  <g id="axes_1">
   <g id="patch_2">
    <path d="M 58.523438 496.44 
L 895.523438 496.44 
L 895.523438 7.2 
L 58.523438 7.2 
z
" style="fill:#ffffff;"/>
   </g>
   <g id="PathCollection_1">
    <defs>
     <path d="M 0 -5 
L -1.12257 -1.545085 
L -4.755283 -1.545085 
L -1.816356 0.59017 
L -2.938926 4.045085 
L -0 1.90983 
L 2.938926 4.045085 
L 1.816356 0.59017 
L 4.755283 -1.545085 
L 1.12257 -1.545085 
z
" id="m2622551a65" style="stroke:#0000ff;"/>
    </defs>
    <g clip-path="url(#p6a50db22c2)">
     <use style="fill:#0000ff;stroke:#0000ff;" x="774.018164" xlink:href="#m2622551a65" y="391.410485"/>
     <use style="fill:#0000ff;stroke:#0000ff;" x="758.298901" xlink:href="#m2622551a65" y="389.592523"/>
     <use style="fill:#0000ff;stroke:#0000ff;" x="706.587091" xlink:href="#m2622551a65" y="383.45481"/>
     <use style="fill:#0000ff;stroke:#0000ff;" x="664.994968" xlink:href="#m2622551a65" y="378.323913"/>
     <use style="fill:#0000ff;stroke:#0000ff;" x="610.380294" xlink:href="#m2622551a65" y="371.279844"/>
     <use style="fill:#0000ff;stroke:#0000ff;" x="610.083998" xlink:href="#m2622551a65" y="371.240572"/>
     <use style="fill:#0000ff;stroke:#0000ff;" x="600.009127" xlink:href="#m2622551a65" y="369.897919"/>
     <use style="fill:#0000ff;stroke:#0000ff;" x="592.278319" xlink:href="#m2622551a65" y="368.857803"/>
     <use style="fill:#0000ff;stroke:#0000ff;" x="590.974048" xlink:href="#m2622551a65" y="368.68146"/>
     <use style="fill:#0000ff;stroke:#0000ff;" x="550.90062" xlink:href="#m2622551a65" y="363.133913"/>
     <use style="fill:#0000ff;stroke:#0000ff;" x="546.68318" xlink:href="#m2622551a65" y="362.534579"/>
     <use style="fill:#0000ff;stroke:#0000ff;" x="508.545576" xlink:href="#m2622551a65" y="356.964547"/>
     <use style="fill:#0000ff;stroke:#0000ff;" x="475.514733" xlink:href="#m2622551a65" y="351.894754"/>
     <use style="fill:#0000ff;stroke:#0000ff;" x="451.941953" xlink:href="#m2622551a65" y="348.114043"/>
     <use style="fill:#0000ff;stroke:#0000ff;" x="447.872587" xlink:href="#m2622551a65" y="347.446142"/>
     <use style="fill:#0000ff;stroke:#0000ff;" x="417.726333" xlink:href="#m2622551a65" y="342.342181"/>
     <use style="fill:#0000ff;stroke:#0000ff;" x="374.847801" xlink:href="#m2622551a65" y="334.523014"/>
     <use style="fill:#0000ff;stroke:#0000ff;" x="360.850278" xlink:href="#m2622551a65" y="331.796508"/>
     <use style="fill:#0000ff;stroke:#0000ff;" x="357.671504" xlink:href="#m2622551a65" y="331.16345"/>
     <use style="fill:#0000ff;stroke:#0000ff;" x="313.665266" xlink:href="#m2622551a65" y="321.76358"/>
     <use style="fill:#0000ff;stroke:#0000ff;" x="307.066203" xlink:href="#m2622551a65" y="320.231781"/>
     <use style="fill:#0000ff;stroke:#0000ff;" x="307.005657" xlink:href="#m2622551a65" y="320.217551"/>
     <use style="fill:#0000ff;stroke:#0000ff;" x="293.802826" xlink:href="#m2622551a65" y="317.031664"/>
     <use style="fill:#0000ff;stroke:#0000ff;" x="292.868651" xlink:href="#m2622551a65" y="316.799613"/>
     <use style="fill:#0000ff;stroke:#0000ff;" x="282.526921" xlink:href="#m2622551a65" y="314.165444"/>
     <use style="fill:#0000ff;stroke:#0000ff;" x="274.813233" xlink:href="#m2622551a65" y="312.115277"/>
     <use style="fill:#0000ff;stroke:#0000ff;" x="269.390304" xlink:href="#m2622551a65" y="310.624797"/>
     <use style="fill:#0000ff;stroke:#0000ff;" x="261.985924" xlink:href="#m2622551a65" y="308.516372"/>
     <use style="fill:#0000ff;stroke:#0000ff;" x="228.418939" xlink:href="#m2622551a65" y="297.497232"/>
     <use style="fill:#0000ff;stroke:#0000ff;" x="225.448284" xlink:href="#m2622551a65" y="296.359874"/>
     <use style="fill:#0000ff;stroke:#0000ff;" x="216.550162" xlink:href="#m2622551a65" y="292.712602"/>
     <use style="fill:#0000ff;stroke:#0000ff;" x="206.934952" xlink:href="#m2622551a65" y="288.23205"/>
     <use style="fill:#0000ff;stroke:#0000ff;" x="206.612345" xlink:href="#m2622551a65" y="288.068926"/>
     <use style="fill:#0000ff;stroke:#0000ff;" x="206.608359" xlink:href="#m2622551a65" y="288.066904"/>
     <use style="fill:#0000ff;stroke:#0000ff;" x="205.658246" xlink:href="#m2622551a65" y="287.580651"/>
     <use style="fill:#0000ff;stroke:#0000ff;" x="204.91862" xlink:href="#m2622551a65" y="287.195891"/>
     <use style="fill:#0000ff;stroke:#0000ff;" x="204.277507" xlink:href="#m2622551a65" y="286.857758"/>
     <use style="fill:#0000ff;stroke:#0000ff;" x="203.642449" xlink:href="#m2622551a65" y="286.518411"/>
     <use style="fill:#0000ff;stroke:#0000ff;" x="202.634865" xlink:href="#m2622551a65" y="285.970558"/>
     <use style="fill:#0000ff;stroke:#0000ff;" x="201.028407" xlink:href="#m2622551a65" y="285.071333"/>
     <use style="fill:#0000ff;stroke:#0000ff;" x="198.743667" xlink:href="#m2622551a65" y="283.731267"/>
     <use style="fill:#0000ff;stroke:#0000ff;" x="194.991517" xlink:href="#m2622551a65" y="281.339635"/>
     <use style="fill:#0000ff;stroke:#0000ff;" x="192.898899" xlink:href="#m2622551a65" y="279.874235"/>
     <use style="fill:#0000ff;stroke:#0000ff;" x="189.980982" xlink:href="#m2622551a65" y="277.615468"/>
     <use style="fill:#0000ff;stroke:#0000ff;" x="189.369065" xlink:href="#m2622551a65" y="277.101386"/>
     <use style="fill:#0000ff;stroke:#0000ff;" x="185.986014" xlink:href="#m2622551a65" y="273.891077"/>
     <use style="fill:#0000ff;stroke:#0000ff;" x="183.734004" xlink:href="#m2622551a65" y="271.201559"/>
     <use style="fill:#0000ff;stroke:#0000ff;" x="183.703814" xlink:href="#m2622551a65" y="271.160598"/>
     <use style="fill:#0000ff;stroke:#0000ff;" x="182.578694" xlink:href="#m2622551a65" y="269.491826"/>
     <use style="fill:#0000ff;stroke:#0000ff;" x="182.150297" xlink:href="#m2622551a65" y="268.760786"/>
     <use style="fill:#0000ff;stroke:#0000ff;" x="181.875531" xlink:href="#m2622551a65" y="268.252371"/>
     <use style="fill:#0000ff;stroke:#0000ff;" x="181.030183" xlink:href="#m2622551a65" y="266.386762"/>
     <use style="fill:#0000ff;stroke:#0000ff;" x="180.790158" xlink:href="#m2622551a65" y="265.719954"/>
     <use style="fill:#0000ff;stroke:#0000ff;" x="180.028711" xlink:href="#m2622551a65" y="261.440553"/>
     <use style="fill:#0000ff;stroke:#0000ff;" x="180.097291" xlink:href="#m2622551a65" y="259.770332"/>
     <use style="fill:#0000ff;stroke:#0000ff;" x="180.829003" xlink:href="#m2622551a65" y="256.49204"/>
     <use style="fill:#0000ff;stroke:#0000ff;" x="181.201834" xlink:href="#m2622551a65" y="255.510766"/>
     <use style="fill:#0000ff;stroke:#0000ff;" x="181.311044" xlink:href="#m2622551a65" y="255.254098"/>
     <use style="fill:#0000ff;stroke:#0000ff;" x="182.238415" xlink:href="#m2622551a65" y="253.409583"/>
     <use style="fill:#0000ff;stroke:#0000ff;" x="182.393738" xlink:href="#m2622551a65" y="253.141988"/>
     <use style="fill:#0000ff;stroke:#0000ff;" x="182.510714" xlink:href="#m2622551a65" y="252.946205"/>
     <use style="fill:#0000ff;stroke:#0000ff;" x="183.93962" xlink:href="#m2622551a65" y="250.850156"/>
     <use style="fill:#0000ff;stroke:#0000ff;" x="186.0517" xlink:href="#m2622551a65" y="248.365309"/>
     <use style="fill:#0000ff;stroke:#0000ff;" x="188.030359" xlink:href="#m2622551a65" y="246.41178"/>
     <use style="fill:#0000ff;stroke:#0000ff;" x="192.330455" xlink:href="#m2622551a65" y="242.870363"/>
     <use style="fill:#0000ff;stroke:#0000ff;" x="194.749808" xlink:href="#m2622551a65" y="241.150538"/>
     <use style="fill:#0000ff;stroke:#0000ff;" x="208.703801" xlink:href="#m2622551a65" y="233.216669"/>
     <use style="fill:#0000ff;stroke:#0000ff;" x="209.198676" xlink:href="#m2622551a65" y="232.975973"/>
     <use style="fill:#0000ff;stroke:#0000ff;" x="210.15685" xlink:href="#m2622551a65" y="232.515629"/>
     <use style="fill:#0000ff;stroke:#0000ff;" x="220.295516" xlink:href="#m2622551a65" y="228.030289"/>
     <use style="fill:#0000ff;stroke:#0000ff;" x="220.495402" xlink:href="#m2622551a65" y="227.947875"/>
     <use style="fill:#0000ff;stroke:#0000ff;" x="222.000119" xlink:href="#m2622551a65" y="227.333823"/>
     <use style="fill:#0000ff;stroke:#0000ff;" x="225.400098" xlink:href="#m2622551a65" y="225.985239"/>
     <use style="fill:#0000ff;stroke:#0000ff;" x="233.610967" xlink:href="#m2622551a65" y="222.921134"/>
     <use style="fill:#0000ff;stroke:#0000ff;" x="233.704645" xlink:href="#m2622551a65" y="222.887567"/>
     <use style="fill:#0000ff;stroke:#0000ff;" x="243.3326" xlink:href="#m2622551a65" y="219.57926"/>
     <use style="fill:#0000ff;stroke:#0000ff;" x="249.572705" xlink:href="#m2622551a65" y="217.566289"/>
     <use style="fill:#0000ff;stroke:#0000ff;" x="253.337079" xlink:href="#m2622551a65" y="216.394718"/>
     <use style="fill:#0000ff;stroke:#0000ff;" x="294.243643" xlink:href="#m2622551a65" y="205.185523"/>
     <use style="fill:#0000ff;stroke:#0000ff;" x="297.398851" xlink:href="#m2622551a65" y="204.409959"/>
     <use style="fill:#0000ff;stroke:#0000ff;" x="306.762817" xlink:href="#m2622551a65" y="202.165923"/>
     <use style="fill:#0000ff;stroke:#0000ff;" x="307.183008" xlink:href="#m2622551a65" y="202.067142"/>
     <use style="fill:#0000ff;stroke:#0000ff;" x="315.927511" xlink:href="#m2622551a65" y="200.046117"/>
     <use style="fill:#0000ff;stroke:#0000ff;" x="342.410464" xlink:href="#m2622551a65" y="194.280633"/>
     <use style="fill:#0000ff;stroke:#0000ff;" x="347.670051" xlink:href="#m2622551a65" y="193.190895"/>
     <use style="fill:#0000ff;stroke:#0000ff;" x="353.148434" xlink:href="#m2622551a65" y="192.073099"/>
     <use style="fill:#0000ff;stroke:#0000ff;" x="357.417956" xlink:href="#m2622551a65" y="191.213643"/>
     <use style="fill:#0000ff;stroke:#0000ff;" x="395.347902" xlink:href="#m2622551a65" y="183.97313"/>
     <use style="fill:#0000ff;stroke:#0000ff;" x="395.743634" xlink:href="#m2622551a65" y="183.900934"/>
     <use style="fill:#0000ff;stroke:#0000ff;" x="449.736704" xlink:href="#m2622551a65" y="174.573685"/>
     <use style="fill:#0000ff;stroke:#0000ff;" x="487.905404" xlink:href="#m2622551a65" y="168.500533"/>
     <use style="fill:#0000ff;stroke:#0000ff;" x="488.061852" xlink:href="#m2622551a65" y="168.476383"/>
     <use style="fill:#0000ff;stroke:#0000ff;" x="494.902178" xlink:href="#m2622551a65" y="167.425965"/>
     <use style="fill:#0000ff;stroke:#0000ff;" x="542.184568" xlink:href="#m2622551a65" y="160.434552"/>
     <use style="fill:#0000ff;stroke:#0000ff;" x="547.474681" xlink:href="#m2622551a65" y="159.67907"/>
     <use style="fill:#0000ff;stroke:#0000ff;" x="554.24673" xlink:href="#m2622551a65" y="158.719148"/>
     <use style="fill:#0000ff;stroke:#0000ff;" x="602.525926" xlink:href="#m2622551a65" y="152.091696"/>
     <use style="fill:#0000ff;stroke:#0000ff;" x="605.840978" xlink:href="#m2622551a65" y="151.649509"/>
     <use style="fill:#0000ff;stroke:#0000ff;" x="642.655534" xlink:href="#m2622551a65" y="146.838671"/>
     <use style="fill:#0000ff;stroke:#0000ff;" x="766.576506" xlink:href="#m2622551a65" y="131.773897"/>
    </g>
   </g>
   <g id="matplotlib.axis_1">
    <g id="xtick_1">
     <g id="line2d_1">
      <defs>
       <path d="M 0 0 
L 0 3.5 
" id="m70687386ce" style="stroke:#000000;stroke-width:0.8;"/>
      </defs>
      <g>
       <use style="stroke:#000000;stroke-width:0.8;" x="118.845813" xlink:href="#m70687386ce" y="496.44"/>
      </g>
     </g>
     <g id="text_1">
      <!-- 0.39 -->
      <defs>
       <path d="M 31.78125 66.40625 
Q 24.171875 66.40625 20.328125 58.90625 
Q 16.5 51.421875 16.5 36.375 
Q 16.5 21.390625 20.328125 13.890625 
Q 24.171875 6.390625 31.78125 6.390625 
Q 39.453125 6.390625 43.28125 13.890625 
Q 47.125 21.390625 47.125 36.375 
Q 47.125 51.421875 43.28125 58.90625 
Q 39.453125 66.40625 31.78125 66.40625 
z
M 31.78125 74.21875 
Q 44.046875 74.21875 50.515625 64.515625 
Q 56.984375 54.828125 56.984375 36.375 
Q 56.984375 17.96875 50.515625 8.265625 
Q 44.046875 -1.421875 31.78125 -1.421875 
Q 19.53125 -1.421875 13.0625 8.265625 
Q 6.59375 17.96875 6.59375 36.375 
Q 6.59375 54.828125 13.0625 64.515625 
Q 19.53125 74.21875 31.78125 74.21875 
z
" id="DejaVuSans-48"/>
       <path d="M 10.6875 12.40625 
L 21 12.40625 
L 21 0 
L 10.6875 0 
z
" id="DejaVuSans-46"/>
       <path d="M 40.578125 39.3125 
Q 47.65625 37.796875 51.625 33 
Q 55.609375 28.21875 55.609375 21.1875 
Q 55.609375 10.40625 48.1875 4.484375 
Q 40.765625 -1.421875 27.09375 -1.421875 
Q 22.515625 -1.421875 17.65625 -0.515625 
Q 12.796875 0.390625 7.625 2.203125 
L 7.625 11.71875 
Q 11.71875 9.328125 16.59375 8.109375 
Q 21.484375 6.890625 26.8125 6.890625 
Q 36.078125 6.890625 40.9375 10.546875 
Q 45.796875 14.203125 45.796875 21.1875 
Q 45.796875 27.640625 41.28125 31.265625 
Q 36.765625 34.90625 28.71875 34.90625 
L 20.21875 34.90625 
L 20.21875 43.015625 
L 29.109375 43.015625 
Q 36.375 43.015625 40.234375 45.921875 
Q 44.09375 48.828125 44.09375 54.296875 
Q 44.09375 59.90625 40.109375 62.90625 
Q 36.140625 65.921875 28.71875 65.921875 
Q 24.65625 65.921875 20.015625 65.03125 
Q 15.375 64.15625 9.8125 62.3125 
L 9.8125 71.09375 
Q 15.4375 72.65625 20.34375 73.4375 
Q 25.25 74.21875 29.59375 74.21875 
Q 40.828125 74.21875 47.359375 69.109375 
Q 53.90625 64.015625 53.90625 55.328125 
Q 53.90625 49.265625 50.4375 45.09375 
Q 46.96875 40.921875 40.578125 39.3125 
z
" id="DejaVuSans-51"/>
       <path d="M 10.984375 1.515625 
L 10.984375 10.5 
Q 14.703125 8.734375 18.5 7.8125 
Q 22.3125 6.890625 25.984375 6.890625 
Q 35.75 6.890625 40.890625 13.453125 
Q 46.046875 20.015625 46.78125 33.40625 
Q 43.953125 29.203125 39.59375 26.953125 
Q 35.25 24.703125 29.984375 24.703125 
Q 19.046875 24.703125 12.671875 31.3125 
Q 6.296875 37.9375 6.296875 49.421875 
Q 6.296875 60.640625 12.9375 67.421875 
Q 19.578125 74.21875 30.609375 74.21875 
Q 43.265625 74.21875 49.921875 64.515625 
Q 56.59375 54.828125 56.59375 36.375 
Q 56.59375 19.140625 48.40625 8.859375 
Q 40.234375 -1.421875 26.421875 -1.421875 
Q 22.703125 -1.421875 18.890625 -0.6875 
Q 15.09375 0.046875 10.984375 1.515625 
z
M 30.609375 32.421875 
Q 37.25 32.421875 41.125 36.953125 
Q 45.015625 41.5 45.015625 49.421875 
Q 45.015625 57.28125 41.125 61.84375 
Q 37.25 66.40625 30.609375 66.40625 
Q 23.96875 66.40625 20.09375 61.84375 
Q 16.21875 57.28125 16.21875 49.421875 
Q 16.21875 41.5 20.09375 36.953125 
Q 23.96875 32.421875 30.609375 32.421875 
z
" id="DejaVuSans-57"/>
      </defs>
      <g transform="translate(107.713 511.038437)scale(0.1 -0.1)">
       <use xlink:href="#DejaVuSans-48"/>
       <use x="63.623047" xlink:href="#DejaVuSans-46"/>
       <use x="95.410156" xlink:href="#DejaVuSans-51"/>
       <use x="159.033203" xlink:href="#DejaVuSans-57"/>
      </g>
     </g>
    </g>
    <g id="xtick_2">
     <g id="line2d_2">
      <g>
       <use style="stroke:#000000;stroke-width:0.8;" x="265.747426" xlink:href="#m70687386ce" y="496.44"/>
      </g>
     </g>
     <g id="text_2">
      <!-- 0.40 -->
      <defs>
       <path d="M 37.796875 64.3125 
L 12.890625 25.390625 
L 37.796875 25.390625 
z
M 35.203125 72.90625 
L 47.609375 72.90625 
L 47.609375 25.390625 
L 58.015625 25.390625 
L 58.015625 17.1875 
L 47.609375 17.1875 
L 47.609375 0 
L 37.796875 0 
L 37.796875 17.1875 
L 4.890625 17.1875 
L 4.890625 26.703125 
z
" id="DejaVuSans-52"/>
      </defs>
      <g transform="translate(254.614613 511.038437)scale(0.1 -0.1)">
       <use xlink:href="#DejaVuSans-48"/>
       <use x="63.623047" xlink:href="#DejaVuSans-46"/>
       <use x="95.410156" xlink:href="#DejaVuSans-52"/>
       <use x="159.033203" xlink:href="#DejaVuSans-48"/>
      </g>
     </g>
    </g>
    <g id="xtick_3">
     <g id="line2d_3">
      <g>
       <use style="stroke:#000000;stroke-width:0.8;" x="412.649039" xlink:href="#m70687386ce" y="496.44"/>
      </g>
     </g>
     <g id="text_3">
      <!-- 0.41 -->
      <defs>
       <path d="M 12.40625 8.296875 
L 28.515625 8.296875 
L 28.515625 63.921875 
L 10.984375 60.40625 
L 10.984375 69.390625 
L 28.421875 72.90625 
L 38.28125 72.90625 
L 38.28125 8.296875 
L 54.390625 8.296875 
L 54.390625 0 
L 12.40625 0 
z
" id="DejaVuSans-49"/>
      </defs>
      <g transform="translate(401.516227 511.038437)scale(0.1 -0.1)">
       <use xlink:href="#DejaVuSans-48"/>
       <use x="63.623047" xlink:href="#DejaVuSans-46"/>
       <use x="95.410156" xlink:href="#DejaVuSans-52"/>
       <use x="159.033203" xlink:href="#DejaVuSans-49"/>
      </g>
     </g>
    </g>
    <g id="xtick_4">
     <g id="line2d_4">
      <g>
       <use style="stroke:#000000;stroke-width:0.8;" x="559.550652" xlink:href="#m70687386ce" y="496.44"/>
      </g>
     </g>
     <g id="text_4">
      <!-- 0.42 -->
      <defs>
       <path d="M 19.1875 8.296875 
L 53.609375 8.296875 
L 53.609375 0 
L 7.328125 0 
L 7.328125 8.296875 
Q 12.9375 14.109375 22.625 23.890625 
Q 32.328125 33.6875 34.8125 36.53125 
Q 39.546875 41.84375 41.421875 45.53125 
Q 43.3125 49.21875 43.3125 52.78125 
Q 43.3125 58.59375 39.234375 62.25 
Q 35.15625 65.921875 28.609375 65.921875 
Q 23.96875 65.921875 18.8125 64.3125 
Q 13.671875 62.703125 7.8125 59.421875 
L 7.8125 69.390625 
Q 13.765625 71.78125 18.9375 73 
Q 24.125 74.21875 28.421875 74.21875 
Q 39.75 74.21875 46.484375 68.546875 
Q 53.21875 62.890625 53.21875 53.421875 
Q 53.21875 48.921875 51.53125 44.890625 
Q 49.859375 40.875 45.40625 35.40625 
Q 44.1875 33.984375 37.640625 27.21875 
Q 31.109375 20.453125 19.1875 8.296875 
z
" id="DejaVuSans-50"/>
      </defs>
      <g transform="translate(548.41784 511.038437)scale(0.1 -0.1)">
       <use xlink:href="#DejaVuSans-48"/>
       <use x="63.623047" xlink:href="#DejaVuSans-46"/>
       <use x="95.410156" xlink:href="#DejaVuSans-52"/>
       <use x="159.033203" xlink:href="#DejaVuSans-50"/>
      </g>
     </g>
    </g>
    <g id="xtick_5">
     <g id="line2d_5">
      <g>
       <use style="stroke:#000000;stroke-width:0.8;" x="706.452265" xlink:href="#m70687386ce" y="496.44"/>
      </g>
     </g>
     <g id="text_5">
      <!-- 0.43 -->
      <g transform="translate(695.319453 511.038437)scale(0.1 -0.1)">
       <use xlink:href="#DejaVuSans-48"/>
       <use x="63.623047" xlink:href="#DejaVuSans-46"/>
       <use x="95.410156" xlink:href="#DejaVuSans-52"/>
       <use x="159.033203" xlink:href="#DejaVuSans-51"/>
      </g>
     </g>
    </g>
    <g id="xtick_6">
     <g id="line2d_6">
      <g>
       <use style="stroke:#000000;stroke-width:0.8;" x="853.353878" xlink:href="#m70687386ce" y="496.44"/>
      </g>
     </g>
     <g id="text_6">
      <!-- 0.44 -->
      <g transform="translate(842.221066 511.038437)scale(0.1 -0.1)">
       <use xlink:href="#DejaVuSans-48"/>
       <use x="63.623047" xlink:href="#DejaVuSans-46"/>
       <use x="95.410156" xlink:href="#DejaVuSans-52"/>
       <use x="159.033203" xlink:href="#DejaVuSans-52"/>
      </g>
     </g>
    </g>
    <g id="text_7">
     <!-- Volatility -->
     <defs>
      <path d="M 28.609375 0 
L 0.78125 72.90625 
L 11.078125 72.90625 
L 34.1875 11.53125 
L 57.328125 72.90625 
L 67.578125 72.90625 
L 39.796875 0 
z
" id="DejaVuSans-86"/>
      <path d="M 30.609375 48.390625 
Q 23.390625 48.390625 19.1875 42.75 
Q 14.984375 37.109375 14.984375 27.296875 
Q 14.984375 17.484375 19.15625 11.84375 
Q 23.34375 6.203125 30.609375 6.203125 
Q 37.796875 6.203125 41.984375 11.859375 
Q 46.1875 17.53125 46.1875 27.296875 
Q 46.1875 37.015625 41.984375 42.703125 
Q 37.796875 48.390625 30.609375 48.390625 
z
M 30.609375 56 
Q 42.328125 56 49.015625 48.375 
Q 55.71875 40.765625 55.71875 27.296875 
Q 55.71875 13.875 49.015625 6.21875 
Q 42.328125 -1.421875 30.609375 -1.421875 
Q 18.84375 -1.421875 12.171875 6.21875 
Q 5.515625 13.875 5.515625 27.296875 
Q 5.515625 40.765625 12.171875 48.375 
Q 18.84375 56 30.609375 56 
z
" id="DejaVuSans-111"/>
      <path d="M 9.421875 75.984375 
L 18.40625 75.984375 
L 18.40625 0 
L 9.421875 0 
z
" id="DejaVuSans-108"/>
      <path d="M 34.28125 27.484375 
Q 23.390625 27.484375 19.1875 25 
Q 14.984375 22.515625 14.984375 16.5 
Q 14.984375 11.71875 18.140625 8.90625 
Q 21.296875 6.109375 26.703125 6.109375 
Q 34.1875 6.109375 38.703125 11.40625 
Q 43.21875 16.703125 43.21875 25.484375 
L 43.21875 27.484375 
z
M 52.203125 31.203125 
L 52.203125 0 
L 43.21875 0 
L 43.21875 8.296875 
Q 40.140625 3.328125 35.546875 0.953125 
Q 30.953125 -1.421875 24.3125 -1.421875 
Q 15.921875 -1.421875 10.953125 3.296875 
Q 6 8.015625 6 15.921875 
Q 6 25.140625 12.171875 29.828125 
Q 18.359375 34.515625 30.609375 34.515625 
L 43.21875 34.515625 
L 43.21875 35.40625 
Q 43.21875 41.609375 39.140625 45 
Q 35.0625 48.390625 27.6875 48.390625 
Q 23 48.390625 18.546875 47.265625 
Q 14.109375 46.140625 10.015625 43.890625 
L 10.015625 52.203125 
Q 14.9375 54.109375 19.578125 55.046875 
Q 24.21875 56 28.609375 56 
Q 40.484375 56 46.34375 49.84375 
Q 52.203125 43.703125 52.203125 31.203125 
z
" id="DejaVuSans-97"/>
      <path d="M 18.3125 70.21875 
L 18.3125 54.6875 
L 36.8125 54.6875 
L 36.8125 47.703125 
L 18.3125 47.703125 
L 18.3125 18.015625 
Q 18.3125 11.328125 20.140625 9.421875 
Q 21.96875 7.515625 27.59375 7.515625 
L 36.8125 7.515625 
L 36.8125 0 
L 27.59375 0 
Q 17.1875 0 13.234375 3.875 
Q 9.28125 7.765625 9.28125 18.015625 
L 9.28125 47.703125 
L 2.6875 47.703125 
L 2.6875 54.6875 
L 9.28125 54.6875 
L 9.28125 70.21875 
z
" id="DejaVuSans-116"/>
      <path d="M 9.421875 54.6875 
L 18.40625 54.6875 
L 18.40625 0 
L 9.421875 0 
z
M 9.421875 75.984375 
L 18.40625 75.984375 
L 18.40625 64.59375 
L 9.421875 64.59375 
z
" id="DejaVuSans-105"/>
      <path d="M 32.171875 -5.078125 
Q 28.375 -14.84375 24.75 -17.8125 
Q 21.140625 -20.796875 15.09375 -20.796875 
L 7.90625 -20.796875 
L 7.90625 -13.28125 
L 13.1875 -13.28125 
Q 16.890625 -13.28125 18.9375 -11.515625 
Q 21 -9.765625 23.484375 -3.21875 
L 25.09375 0.875 
L 2.984375 54.6875 
L 12.5 54.6875 
L 29.59375 11.921875 
L 46.6875 54.6875 
L 56.203125 54.6875 
z
" id="DejaVuSans-121"/>
     </defs>
     <g transform="translate(455.049219 524.716562)scale(0.1 -0.1)">
      <use xlink:href="#DejaVuSans-86"/>
      <use x="68.298828" xlink:href="#DejaVuSans-111"/>
      <use x="129.480469" xlink:href="#DejaVuSans-108"/>
      <use x="157.263672" xlink:href="#DejaVuSans-97"/>
      <use x="218.542969" xlink:href="#DejaVuSans-116"/>
      <use x="257.751953" xlink:href="#DejaVuSans-105"/>
      <use x="285.535156" xlink:href="#DejaVuSans-108"/>
      <use x="313.318359" xlink:href="#DejaVuSans-105"/>
      <use x="341.101562" xlink:href="#DejaVuSans-116"/>
      <use x="380.310547" xlink:href="#DejaVuSans-121"/>
     </g>
    </g>
   </g>
   <g id="matplotlib.axis_2">
    <g id="ytick_1">
     <g id="line2d_7">
      <defs>
       <path d="M 0 0 
L -3.5 0 
" id="m3e42fc0274" style="stroke:#000000;stroke-width:0.8;"/>
      </defs>
      <g>
       <use style="stroke:#000000;stroke-width:0.8;" x="58.523438" xlink:href="#m3e42fc0274" y="469.059586"/>
      </g>
     </g>
     <g id="text_8">
      <!-- −0.08 -->
      <defs>
       <path d="M 10.59375 35.5 
L 73.1875 35.5 
L 73.1875 27.203125 
L 10.59375 27.203125 
z
" id="DejaVuSans-8722"/>
       <path d="M 31.78125 34.625 
Q 24.75 34.625 20.71875 30.859375 
Q 16.703125 27.09375 16.703125 20.515625 
Q 16.703125 13.921875 20.71875 10.15625 
Q 24.75 6.390625 31.78125 6.390625 
Q 38.8125 6.390625 42.859375 10.171875 
Q 46.921875 13.96875 46.921875 20.515625 
Q 46.921875 27.09375 42.890625 30.859375 
Q 38.875 34.625 31.78125 34.625 
z
M 21.921875 38.8125 
Q 15.578125 40.375 12.03125 44.71875 
Q 8.5 49.078125 8.5 55.328125 
Q 8.5 64.0625 14.71875 69.140625 
Q 20.953125 74.21875 31.78125 74.21875 
Q 42.671875 74.21875 48.875 69.140625 
Q 55.078125 64.0625 55.078125 55.328125 
Q 55.078125 49.078125 51.53125 44.71875 
Q 48 40.375 41.703125 38.8125 
Q 48.828125 37.15625 52.796875 32.3125 
Q 56.78125 27.484375 56.78125 20.515625 
Q 56.78125 9.90625 50.3125 4.234375 
Q 43.84375 -1.421875 31.78125 -1.421875 
Q 19.734375 -1.421875 13.25 4.234375 
Q 6.78125 9.90625 6.78125 20.515625 
Q 6.78125 27.484375 10.78125 32.3125 
Q 14.796875 37.15625 21.921875 38.8125 
z
M 18.3125 54.390625 
Q 18.3125 48.734375 21.84375 45.5625 
Q 25.390625 42.390625 31.78125 42.390625 
Q 38.140625 42.390625 41.71875 45.5625 
Q 45.3125 48.734375 45.3125 54.390625 
Q 45.3125 60.0625 41.71875 63.234375 
Q 38.140625 66.40625 31.78125 66.40625 
Q 25.390625 66.40625 21.84375 63.234375 
Q 18.3125 60.0625 18.3125 54.390625 
z
" id="DejaVuSans-56"/>
      </defs>
      <g transform="translate(20.878125 472.858805)scale(0.1 -0.1)">
       <use xlink:href="#DejaVuSans-8722"/>
       <use x="83.789062" xlink:href="#DejaVuSans-48"/>
       <use x="147.412109" xlink:href="#DejaVuSans-46"/>
       <use x="179.199219" xlink:href="#DejaVuSans-48"/>
       <use x="242.822266" xlink:href="#DejaVuSans-56"/>
      </g>
     </g>
    </g>
    <g id="ytick_2">
     <g id="line2d_8">
      <g>
       <use style="stroke:#000000;stroke-width:0.8;" x="58.523438" xlink:href="#m3e42fc0274" y="368.926135"/>
      </g>
     </g>
     <g id="text_9">
      <!-- −0.07 -->
      <defs>
       <path d="M 8.203125 72.90625 
L 55.078125 72.90625 
L 55.078125 68.703125 
L 28.609375 0 
L 18.3125 0 
L 43.21875 64.59375 
L 8.203125 64.59375 
z
" id="DejaVuSans-55"/>
      </defs>
      <g transform="translate(20.878125 372.725354)scale(0.1 -0.1)">
       <use xlink:href="#DejaVuSans-8722"/>
       <use x="83.789062" xlink:href="#DejaVuSans-48"/>
       <use x="147.412109" xlink:href="#DejaVuSans-46"/>
       <use x="179.199219" xlink:href="#DejaVuSans-48"/>
       <use x="242.822266" xlink:href="#DejaVuSans-55"/>
      </g>
     </g>
    </g>
    <g id="ytick_3">
     <g id="line2d_9">
      <g>
       <use style="stroke:#000000;stroke-width:0.8;" x="58.523438" xlink:href="#m3e42fc0274" y="268.792684"/>
      </g>
     </g>
     <g id="text_10">
      <!-- −0.06 -->
      <defs>
       <path d="M 33.015625 40.375 
Q 26.375 40.375 22.484375 35.828125 
Q 18.609375 31.296875 18.609375 23.390625 
Q 18.609375 15.53125 22.484375 10.953125 
Q 26.375 6.390625 33.015625 6.390625 
Q 39.65625 6.390625 43.53125 10.953125 
Q 47.40625 15.53125 47.40625 23.390625 
Q 47.40625 31.296875 43.53125 35.828125 
Q 39.65625 40.375 33.015625 40.375 
z
M 52.59375 71.296875 
L 52.59375 62.3125 
Q 48.875 64.0625 45.09375 64.984375 
Q 41.3125 65.921875 37.59375 65.921875 
Q 27.828125 65.921875 22.671875 59.328125 
Q 17.53125 52.734375 16.796875 39.40625 
Q 19.671875 43.65625 24.015625 45.921875 
Q 28.375 48.1875 33.59375 48.1875 
Q 44.578125 48.1875 50.953125 41.515625 
Q 57.328125 34.859375 57.328125 23.390625 
Q 57.328125 12.15625 50.6875 5.359375 
Q 44.046875 -1.421875 33.015625 -1.421875 
Q 20.359375 -1.421875 13.671875 8.265625 
Q 6.984375 17.96875 6.984375 36.375 
Q 6.984375 53.65625 15.1875 63.9375 
Q 23.390625 74.21875 37.203125 74.21875 
Q 40.921875 74.21875 44.703125 73.484375 
Q 48.484375 72.75 52.59375 71.296875 
z
" id="DejaVuSans-54"/>
      </defs>
      <g transform="translate(20.878125 272.591903)scale(0.1 -0.1)">
       <use xlink:href="#DejaVuSans-8722"/>
       <use x="83.789062" xlink:href="#DejaVuSans-48"/>
       <use x="147.412109" xlink:href="#DejaVuSans-46"/>
       <use x="179.199219" xlink:href="#DejaVuSans-48"/>
       <use x="242.822266" xlink:href="#DejaVuSans-54"/>
      </g>
     </g>
    </g>
    <g id="ytick_4">
     <g id="line2d_10">
      <g>
       <use style="stroke:#000000;stroke-width:0.8;" x="58.523438" xlink:href="#m3e42fc0274" y="168.659233"/>
      </g>
     </g>
     <g id="text_11">
      <!-- −0.05 -->
      <defs>
       <path d="M 10.796875 72.90625 
L 49.515625 72.90625 
L 49.515625 64.59375 
L 19.828125 64.59375 
L 19.828125 46.734375 
Q 21.96875 47.46875 24.109375 47.828125 
Q 26.265625 48.1875 28.421875 48.1875 
Q 40.625 48.1875 47.75 41.5 
Q 54.890625 34.8125 54.890625 23.390625 
Q 54.890625 11.625 47.5625 5.09375 
Q 40.234375 -1.421875 26.90625 -1.421875 
Q 22.3125 -1.421875 17.546875 -0.640625 
Q 12.796875 0.140625 7.71875 1.703125 
L 7.71875 11.625 
Q 12.109375 9.234375 16.796875 8.0625 
Q 21.484375 6.890625 26.703125 6.890625 
Q 35.15625 6.890625 40.078125 11.328125 
Q 45.015625 15.765625 45.015625 23.390625 
Q 45.015625 31 40.078125 35.4375 
Q 35.15625 39.890625 26.703125 39.890625 
Q 22.75 39.890625 18.8125 39.015625 
Q 14.890625 38.140625 10.796875 36.28125 
z
" id="DejaVuSans-53"/>
      </defs>
      <g transform="translate(20.878125 172.458452)scale(0.1 -0.1)">
       <use xlink:href="#DejaVuSans-8722"/>
       <use x="83.789062" xlink:href="#DejaVuSans-48"/>
       <use x="147.412109" xlink:href="#DejaVuSans-46"/>
       <use x="179.199219" xlink:href="#DejaVuSans-48"/>
       <use x="242.822266" xlink:href="#DejaVuSans-53"/>
      </g>
     </g>
    </g>
    <g id="ytick_5">
     <g id="line2d_11">
      <g>
       <use style="stroke:#000000;stroke-width:0.8;" x="58.523438" xlink:href="#m3e42fc0274" y="68.525782"/>
      </g>
     </g>
     <g id="text_12">
      <!-- −0.04 -->
      <g transform="translate(20.878125 72.325001)scale(0.1 -0.1)">
       <use xlink:href="#DejaVuSans-8722"/>
       <use x="83.789062" xlink:href="#DejaVuSans-48"/>
       <use x="147.412109" xlink:href="#DejaVuSans-46"/>
       <use x="179.199219" xlink:href="#DejaVuSans-48"/>
       <use x="242.822266" xlink:href="#DejaVuSans-52"/>
      </g>
     </g>
    </g>
    <g id="text_13">
     <!-- Return -->
     <defs>
      <path d="M 44.390625 34.1875 
Q 47.5625 33.109375 50.5625 29.59375 
Q 53.5625 26.078125 56.59375 19.921875 
L 66.609375 0 
L 56 0 
L 46.6875 18.703125 
Q 43.0625 26.03125 39.671875 28.421875 
Q 36.28125 30.8125 30.421875 30.8125 
L 19.671875 30.8125 
L 19.671875 0 
L 9.8125 0 
L 9.8125 72.90625 
L 32.078125 72.90625 
Q 44.578125 72.90625 50.734375 67.671875 
Q 56.890625 62.453125 56.890625 51.90625 
Q 56.890625 45.015625 53.6875 40.46875 
Q 50.484375 35.9375 44.390625 34.1875 
z
M 19.671875 64.796875 
L 19.671875 38.921875 
L 32.078125 38.921875 
Q 39.203125 38.921875 42.84375 42.21875 
Q 46.484375 45.515625 46.484375 51.90625 
Q 46.484375 58.296875 42.84375 61.546875 
Q 39.203125 64.796875 32.078125 64.796875 
z
" id="DejaVuSans-82"/>
      <path d="M 56.203125 29.59375 
L 56.203125 25.203125 
L 14.890625 25.203125 
Q 15.484375 15.921875 20.484375 11.0625 
Q 25.484375 6.203125 34.421875 6.203125 
Q 39.59375 6.203125 44.453125 7.46875 
Q 49.3125 8.734375 54.109375 11.28125 
L 54.109375 2.78125 
Q 49.265625 0.734375 44.1875 -0.34375 
Q 39.109375 -1.421875 33.890625 -1.421875 
Q 20.796875 -1.421875 13.15625 6.1875 
Q 5.515625 13.8125 5.515625 26.8125 
Q 5.515625 40.234375 12.765625 48.109375 
Q 20.015625 56 32.328125 56 
Q 43.359375 56 49.78125 48.890625 
Q 56.203125 41.796875 56.203125 29.59375 
z
M 47.21875 32.234375 
Q 47.125 39.59375 43.09375 43.984375 
Q 39.0625 48.390625 32.421875 48.390625 
Q 24.90625 48.390625 20.390625 44.140625 
Q 15.875 39.890625 15.1875 32.171875 
z
" id="DejaVuSans-101"/>
      <path d="M 8.5 21.578125 
L 8.5 54.6875 
L 17.484375 54.6875 
L 17.484375 21.921875 
Q 17.484375 14.15625 20.5 10.265625 
Q 23.53125 6.390625 29.59375 6.390625 
Q 36.859375 6.390625 41.078125 11.03125 
Q 45.3125 15.671875 45.3125 23.6875 
L 45.3125 54.6875 
L 54.296875 54.6875 
L 54.296875 0 
L 45.3125 0 
L 45.3125 8.40625 
Q 42.046875 3.421875 37.71875 1 
Q 33.40625 -1.421875 27.6875 -1.421875 
Q 18.265625 -1.421875 13.375 4.4375 
Q 8.5 10.296875 8.5 21.578125 
z
M 31.109375 56 
z
" id="DejaVuSans-117"/>
      <path d="M 41.109375 46.296875 
Q 39.59375 47.171875 37.8125 47.578125 
Q 36.03125 48 33.890625 48 
Q 26.265625 48 22.1875 43.046875 
Q 18.109375 38.09375 18.109375 28.8125 
L 18.109375 0 
L 9.078125 0 
L 9.078125 54.6875 
L 18.109375 54.6875 
L 18.109375 46.1875 
Q 20.953125 51.171875 25.484375 53.578125 
Q 30.03125 56 36.53125 56 
Q 37.453125 56 38.578125 55.875 
Q 39.703125 55.765625 41.0625 55.515625 
z
" id="DejaVuSans-114"/>
      <path d="M 54.890625 33.015625 
L 54.890625 0 
L 45.90625 0 
L 45.90625 32.71875 
Q 45.90625 40.484375 42.875 44.328125 
Q 39.84375 48.1875 33.796875 48.1875 
Q 26.515625 48.1875 22.3125 43.546875 
Q 18.109375 38.921875 18.109375 30.90625 
L 18.109375 0 
L 9.078125 0 
L 9.078125 54.6875 
L 18.109375 54.6875 
L 18.109375 46.1875 
Q 21.34375 51.125 25.703125 53.5625 
Q 30.078125 56 35.796875 56 
Q 45.21875 56 50.046875 50.171875 
Q 54.890625 44.34375 54.890625 33.015625 
z
" id="DejaVuSans-110"/>
     </defs>
     <g transform="translate(14.798438 268.72)rotate(-90)scale(0.1 -0.1)">
      <use xlink:href="#DejaVuSans-82"/>
      <use x="69.419922" xlink:href="#DejaVuSans-101"/>
      <use x="130.943359" xlink:href="#DejaVuSans-116"/>
      <use x="170.152344" xlink:href="#DejaVuSans-117"/>
      <use x="233.53125" xlink:href="#DejaVuSans-114"/>
      <use x="274.628906" xlink:href="#DejaVuSans-110"/>
     </g>
    </g>
   </g>
   <g id="patch_3">
    <path d="M 58.523438 496.44 
L 58.523438 7.2 
" style="fill:none;stroke:#000000;stroke-linecap:square;stroke-linejoin:miter;stroke-width:0.8;"/>
   </g>
   <g id="patch_4">
    <path d="M 895.523438 496.44 
L 895.523438 7.2 
" style="fill:none;stroke:#000000;stroke-linecap:square;stroke-linejoin:miter;stroke-width:0.8;"/>
   </g>
   <g id="patch_5">
    <path d="M 58.523438 496.44 
L 895.523438 496.44 
" style="fill:none;stroke:#000000;stroke-linecap:square;stroke-linejoin:miter;stroke-width:0.8;"/>
   </g>
   <g id="patch_6">
    <path d="M 58.523438 7.2 
L 895.523438 7.2 
" style="fill:none;stroke:#000000;stroke-linecap:square;stroke-linejoin:miter;stroke-width:0.8;"/>
   </g>
  </g>
 </g>
 <defs>
  <clipPath id="p6a50db22c2">
   <rect height="489.24" width="837" x="58.523438" y="7.2"/>
  </clipPath>
 </defs>
</svg>
