<?xml version="1.0" encoding="utf-8" standalone="no"?>
<!DOCTYPE svg PUBLIC "-//W3C//DTD SVG 1.1//EN"
  "http://www.w3.org/Graphics/SVG/1.1/DTD/svg11.dtd">
<!-- Created with matplotlib (https://matplotlib.org/) -->
<svg height="456.031033pt" version="1.1" viewBox="0 0 710.0875 456.031033" width="710.0875pt" xmlns="http://www.w3.org/2000/svg" xmlns:xlink="http://www.w3.org/1999/xlink">
 <defs>
  <style type="text/css">
*{stroke-linecap:butt;stroke-linejoin:round;}
  </style>
 </defs>
 <g id="figure_1">
  <g id="patch_1">
   <path d="M 0 456.031033 
L 710.0875 456.031033 
L 710.0875 0 
L 0 0 
z
" style="fill:none;"/>
  </g>
  <g id="axes_1">
   <g id="patch_2">
    <path d="M 33.2875 398.88 
L 702.8875 398.88 
L 702.8875 7.2 
L 33.2875 7.2 
z
" style="fill:#ffffff;"/>
   </g>
   <g id="matplotlib.axis_1">
    <g id="xtick_1">
     <g id="line2d_1">
      <defs>
       <path d="M 0 0 
L 0 3.5 
" id="m5db1fed217" style="stroke:#000000;stroke-width:0.8;"/>
      </defs>
      <g>
       <use style="stroke:#000000;stroke-width:0.8;" x="62.962955" xlink:href="#m5db1fed217" y="398.88"/>
      </g>
     </g>
     <g id="text_1">
      <!-- 2018-01 -->
      <defs>
       <path d="M 19.1875 8.296875 
L 53.609375 8.296875 
L 53.609375 0 
L 7.328125 0 
L 7.328125 8.296875 
Q 12.9375 14.109375 22.625 23.890625 
Q 32.328125 33.6875 34.8125 36.53125 
Q 39.546875 41.84375 41.421875 45.53125 
Q 43.3125 49.21875 43.3125 52.78125 
Q 43.3125 58.59375 39.234375 62.25 
Q 35.15625 65.921875 28.609375 65.921875 
Q 23.96875 65.921875 18.8125 64.3125 
Q 13.671875 62.703125 7.8125 59.421875 
L 7.8125 69.390625 
Q 13.765625 71.78125 18.9375 73 
Q 24.125 74.21875 28.421875 74.21875 
Q 39.75 74.21875 46.484375 68.546875 
Q 53.21875 62.890625 53.21875 53.421875 
Q 53.21875 48.921875 51.53125 44.890625 
Q 49.859375 40.875 45.40625 35.40625 
Q 44.1875 33.984375 37.640625 27.21875 
Q 31.109375 20.453125 19.1875 8.296875 
z
" id="DejaVuSans-50"/>
       <path d="M 31.78125 66.40625 
Q 24.171875 66.40625 20.328125 58.90625 
Q 16.5 51.421875 16.5 36.375 
Q 16.5 21.390625 20.328125 13.890625 
Q 24.171875 6.390625 31.78125 6.390625 
Q 39.453125 6.390625 43.28125 13.890625 
Q 47.125 21.390625 47.125 36.375 
Q 47.125 51.421875 43.28125 58.90625 
Q 39.453125 66.40625 31.78125 66.40625 
z
M 31.78125 74.21875 
Q 44.046875 74.21875 50.515625 64.515625 
Q 56.984375 54.828125 56.984375 36.375 
Q 56.984375 17.96875 50.515625 8.265625 
Q 44.046875 -1.421875 31.78125 -1.421875 
Q 19.53125 -1.421875 13.0625 8.265625 
Q 6.59375 17.96875 6.59375 36.375 
Q 6.59375 54.828125 13.0625 64.515625 
Q 19.53125 74.21875 31.78125 74.21875 
z
" id="DejaVuSans-48"/>
       <path d="M 12.40625 8.296875 
L 28.515625 8.296875 
L 28.515625 63.921875 
L 10.984375 60.40625 
L 10.984375 69.390625 
L 28.421875 72.90625 
L 38.28125 72.90625 
L 38.28125 8.296875 
L 54.390625 8.296875 
L 54.390625 0 
L 12.40625 0 
z
" id="DejaVuSans-49"/>
       <path d="M 31.78125 34.625 
Q 24.75 34.625 20.71875 30.859375 
Q 16.703125 27.09375 16.703125 20.515625 
Q 16.703125 13.921875 20.71875 10.15625 
Q 24.75 6.390625 31.78125 6.390625 
Q 38.8125 6.390625 42.859375 10.171875 
Q 46.921875 13.96875 46.921875 20.515625 
Q 46.921875 27.09375 42.890625 30.859375 
Q 38.875 34.625 31.78125 34.625 
z
M 21.921875 38.8125 
Q 15.578125 40.375 12.03125 44.71875 
Q 8.5 49.078125 8.5 55.328125 
Q 8.5 64.0625 14.71875 69.140625 
Q 20.953125 74.21875 31.78125 74.21875 
Q 42.671875 74.21875 48.875 69.140625 
Q 55.078125 64.0625 55.078125 55.328125 
Q 55.078125 49.078125 51.53125 44.71875 
Q 48 40.375 41.703125 38.8125 
Q 48.828125 37.15625 52.796875 32.3125 
Q 56.78125 27.484375 56.78125 20.515625 
Q 56.78125 9.90625 50.3125 4.234375 
Q 43.84375 -1.421875 31.78125 -1.421875 
Q 19.734375 -1.421875 13.25 4.234375 
Q 6.78125 9.90625 6.78125 20.515625 
Q 6.78125 27.484375 10.78125 32.3125 
Q 14.796875 37.15625 21.921875 38.8125 
z
M 18.3125 54.390625 
Q 18.3125 48.734375 21.84375 45.5625 
Q 25.390625 42.390625 31.78125 42.390625 
Q 38.140625 42.390625 41.71875 45.5625 
Q 45.3125 48.734375 45.3125 54.390625 
Q 45.3125 60.0625 41.71875 63.234375 
Q 38.140625 66.40625 31.78125 66.40625 
Q 25.390625 66.40625 21.84375 63.234375 
Q 18.3125 60.0625 18.3125 54.390625 
z
" id="DejaVuSans-56"/>
       <path d="M 4.890625 31.390625 
L 31.203125 31.390625 
L 31.203125 23.390625 
L 4.890625 23.390625 
z
" id="DejaVuSans-45"/>
      </defs>
      <g transform="translate(25.738134 433.351846)rotate(-30)scale(0.1 -0.1)">
       <use xlink:href="#DejaVuSans-50"/>
       <use x="63.623047" xlink:href="#DejaVuSans-48"/>
       <use x="127.246094" xlink:href="#DejaVuSans-49"/>
       <use x="190.869141" xlink:href="#DejaVuSans-56"/>
       <use x="254.492188" xlink:href="#DejaVuSans-45"/>
       <use x="290.576172" xlink:href="#DejaVuSans-48"/>
       <use x="354.199219" xlink:href="#DejaVuSans-49"/>
      </g>
     </g>
    </g>
    <g id="xtick_2">
     <g id="line2d_2">
      <g>
       <use style="stroke:#000000;stroke-width:0.8;" x="131.444773" xlink:href="#m5db1fed217" y="398.88"/>
      </g>
     </g>
     <g id="text_2">
      <!-- 2018-04 -->
      <defs>
       <path d="M 37.796875 64.3125 
L 12.890625 25.390625 
L 37.796875 25.390625 
z
M 35.203125 72.90625 
L 47.609375 72.90625 
L 47.609375 25.390625 
L 58.015625 25.390625 
L 58.015625 17.1875 
L 47.609375 17.1875 
L 47.609375 0 
L 37.796875 0 
L 37.796875 17.1875 
L 4.890625 17.1875 
L 4.890625 26.703125 
z
" id="DejaVuSans-52"/>
      </defs>
      <g transform="translate(94.219952 433.351846)rotate(-30)scale(0.1 -0.1)">
       <use xlink:href="#DejaVuSans-50"/>
       <use x="63.623047" xlink:href="#DejaVuSans-48"/>
       <use x="127.246094" xlink:href="#DejaVuSans-49"/>
       <use x="190.869141" xlink:href="#DejaVuSans-56"/>
       <use x="254.492188" xlink:href="#DejaVuSans-45"/>
       <use x="290.576172" xlink:href="#DejaVuSans-48"/>
       <use x="354.199219" xlink:href="#DejaVuSans-52"/>
      </g>
     </g>
    </g>
    <g id="xtick_3">
     <g id="line2d_3">
      <g>
       <use style="stroke:#000000;stroke-width:0.8;" x="200.6875" xlink:href="#m5db1fed217" y="398.88"/>
      </g>
     </g>
     <g id="text_3">
      <!-- 2018-07 -->
      <defs>
       <path d="M 8.203125 72.90625 
L 55.078125 72.90625 
L 55.078125 68.703125 
L 28.609375 0 
L 18.3125 0 
L 43.21875 64.59375 
L 8.203125 64.59375 
z
" id="DejaVuSans-55"/>
      </defs>
      <g transform="translate(163.462679 433.351846)rotate(-30)scale(0.1 -0.1)">
       <use xlink:href="#DejaVuSans-50"/>
       <use x="63.623047" xlink:href="#DejaVuSans-48"/>
       <use x="127.246094" xlink:href="#DejaVuSans-49"/>
       <use x="190.869141" xlink:href="#DejaVuSans-56"/>
       <use x="254.492188" xlink:href="#DejaVuSans-45"/>
       <use x="290.576172" xlink:href="#DejaVuSans-48"/>
       <use x="354.199219" xlink:href="#DejaVuSans-55"/>
      </g>
     </g>
    </g>
    <g id="xtick_4">
     <g id="line2d_4">
      <g>
       <use style="stroke:#000000;stroke-width:0.8;" x="270.691136" xlink:href="#m5db1fed217" y="398.88"/>
      </g>
     </g>
     <g id="text_4">
      <!-- 2018-10 -->
      <g transform="translate(233.466316 433.351846)rotate(-30)scale(0.1 -0.1)">
       <use xlink:href="#DejaVuSans-50"/>
       <use x="63.623047" xlink:href="#DejaVuSans-48"/>
       <use x="127.246094" xlink:href="#DejaVuSans-49"/>
       <use x="190.869141" xlink:href="#DejaVuSans-56"/>
       <use x="254.492188" xlink:href="#DejaVuSans-45"/>
       <use x="290.576172" xlink:href="#DejaVuSans-49"/>
       <use x="354.199219" xlink:href="#DejaVuSans-48"/>
      </g>
     </g>
    </g>
    <g id="xtick_5">
     <g id="line2d_5">
      <g>
       <use style="stroke:#000000;stroke-width:0.8;" x="340.694773" xlink:href="#m5db1fed217" y="398.88"/>
      </g>
     </g>
     <g id="text_5">
      <!-- 2019-01 -->
      <defs>
       <path d="M 10.984375 1.515625 
L 10.984375 10.5 
Q 14.703125 8.734375 18.5 7.8125 
Q 22.3125 6.890625 25.984375 6.890625 
Q 35.75 6.890625 40.890625 13.453125 
Q 46.046875 20.015625 46.78125 33.40625 
Q 43.953125 29.203125 39.59375 26.953125 
Q 35.25 24.703125 29.984375 24.703125 
Q 19.046875 24.703125 12.671875 31.3125 
Q 6.296875 37.9375 6.296875 49.421875 
Q 6.296875 60.640625 12.9375 67.421875 
Q 19.578125 74.21875 30.609375 74.21875 
Q 43.265625 74.21875 49.921875 64.515625 
Q 56.59375 54.828125 56.59375 36.375 
Q 56.59375 19.140625 48.40625 8.859375 
Q 40.234375 -1.421875 26.421875 -1.421875 
Q 22.703125 -1.421875 18.890625 -0.6875 
Q 15.09375 0.046875 10.984375 1.515625 
z
M 30.609375 32.421875 
Q 37.25 32.421875 41.125 36.953125 
Q 45.015625 41.5 45.015625 49.421875 
Q 45.015625 57.28125 41.125 61.84375 
Q 37.25 66.40625 30.609375 66.40625 
Q 23.96875 66.40625 20.09375 61.84375 
Q 16.21875 57.28125 16.21875 49.421875 
Q 16.21875 41.5 20.09375 36.953125 
Q 23.96875 32.421875 30.609375 32.421875 
z
" id="DejaVuSans-57"/>
      </defs>
      <g transform="translate(303.469952 433.351846)rotate(-30)scale(0.1 -0.1)">
       <use xlink:href="#DejaVuSans-50"/>
       <use x="63.623047" xlink:href="#DejaVuSans-48"/>
       <use x="127.246094" xlink:href="#DejaVuSans-49"/>
       <use x="190.869141" xlink:href="#DejaVuSans-57"/>
       <use x="254.492188" xlink:href="#DejaVuSans-45"/>
       <use x="290.576172" xlink:href="#DejaVuSans-48"/>
       <use x="354.199219" xlink:href="#DejaVuSans-49"/>
      </g>
     </g>
    </g>
    <g id="xtick_6">
     <g id="line2d_6">
      <g>
       <use style="stroke:#000000;stroke-width:0.8;" x="409.176591" xlink:href="#m5db1fed217" y="398.88"/>
      </g>
     </g>
     <g id="text_6">
      <!-- 2019-04 -->
      <g transform="translate(371.95177 433.351846)rotate(-30)scale(0.1 -0.1)">
       <use xlink:href="#DejaVuSans-50"/>
       <use x="63.623047" xlink:href="#DejaVuSans-48"/>
       <use x="127.246094" xlink:href="#DejaVuSans-49"/>
       <use x="190.869141" xlink:href="#DejaVuSans-57"/>
       <use x="254.492188" xlink:href="#DejaVuSans-45"/>
       <use x="290.576172" xlink:href="#DejaVuSans-48"/>
       <use x="354.199219" xlink:href="#DejaVuSans-52"/>
      </g>
     </g>
    </g>
    <g id="xtick_7">
     <g id="line2d_7">
      <g>
       <use style="stroke:#000000;stroke-width:0.8;" x="478.419318" xlink:href="#m5db1fed217" y="398.88"/>
      </g>
     </g>
     <g id="text_7">
      <!-- 2019-07 -->
      <g transform="translate(441.194497 433.351846)rotate(-30)scale(0.1 -0.1)">
       <use xlink:href="#DejaVuSans-50"/>
       <use x="63.623047" xlink:href="#DejaVuSans-48"/>
       <use x="127.246094" xlink:href="#DejaVuSans-49"/>
       <use x="190.869141" xlink:href="#DejaVuSans-57"/>
       <use x="254.492188" xlink:href="#DejaVuSans-45"/>
       <use x="290.576172" xlink:href="#DejaVuSans-48"/>
       <use x="354.199219" xlink:href="#DejaVuSans-55"/>
      </g>
     </g>
    </g>
    <g id="xtick_8">
     <g id="line2d_8">
      <g>
       <use style="stroke:#000000;stroke-width:0.8;" x="548.422955" xlink:href="#m5db1fed217" y="398.88"/>
      </g>
     </g>
     <g id="text_8">
      <!-- 2019-10 -->
      <g transform="translate(511.198134 433.351846)rotate(-30)scale(0.1 -0.1)">
       <use xlink:href="#DejaVuSans-50"/>
       <use x="63.623047" xlink:href="#DejaVuSans-48"/>
       <use x="127.246094" xlink:href="#DejaVuSans-49"/>
       <use x="190.869141" xlink:href="#DejaVuSans-57"/>
       <use x="254.492188" xlink:href="#DejaVuSans-45"/>
       <use x="290.576172" xlink:href="#DejaVuSans-49"/>
       <use x="354.199219" xlink:href="#DejaVuSans-48"/>
      </g>
     </g>
    </g>
    <g id="xtick_9">
     <g id="line2d_9">
      <g>
       <use style="stroke:#000000;stroke-width:0.8;" x="618.426591" xlink:href="#m5db1fed217" y="398.88"/>
      </g>
     </g>
     <g id="text_9">
      <!-- 2020-01 -->
      <g transform="translate(581.20177 433.351846)rotate(-30)scale(0.1 -0.1)">
       <use xlink:href="#DejaVuSans-50"/>
       <use x="63.623047" xlink:href="#DejaVuSans-48"/>
       <use x="127.246094" xlink:href="#DejaVuSans-50"/>
       <use x="190.869141" xlink:href="#DejaVuSans-48"/>
       <use x="254.492188" xlink:href="#DejaVuSans-45"/>
       <use x="290.576172" xlink:href="#DejaVuSans-48"/>
       <use x="354.199219" xlink:href="#DejaVuSans-49"/>
      </g>
     </g>
    </g>
    <g id="xtick_10">
     <g id="line2d_10">
      <g>
       <use style="stroke:#000000;stroke-width:0.8;" x="687.669318" xlink:href="#m5db1fed217" y="398.88"/>
      </g>
     </g>
     <g id="text_10">
      <!-- 2020-04 -->
      <g transform="translate(650.444497 433.351846)rotate(-30)scale(0.1 -0.1)">
       <use xlink:href="#DejaVuSans-50"/>
       <use x="63.623047" xlink:href="#DejaVuSans-48"/>
       <use x="127.246094" xlink:href="#DejaVuSans-50"/>
       <use x="190.869141" xlink:href="#DejaVuSans-48"/>
       <use x="254.492188" xlink:href="#DejaVuSans-45"/>
       <use x="290.576172" xlink:href="#DejaVuSans-48"/>
       <use x="354.199219" xlink:href="#DejaVuSans-52"/>
      </g>
     </g>
    </g>
    <g id="text_11">
     <!-- Date -->
     <defs>
      <path d="M 19.671875 64.796875 
L 19.671875 8.109375 
L 31.59375 8.109375 
Q 46.6875 8.109375 53.6875 14.9375 
Q 60.6875 21.78125 60.6875 36.53125 
Q 60.6875 51.171875 53.6875 57.984375 
Q 46.6875 64.796875 31.59375 64.796875 
z
M 9.8125 72.90625 
L 30.078125 72.90625 
Q 51.265625 72.90625 61.171875 64.09375 
Q 71.09375 55.28125 71.09375 36.53125 
Q 71.09375 17.671875 61.125 8.828125 
Q 51.171875 0 30.078125 0 
L 9.8125 0 
z
" id="DejaVuSans-68"/>
      <path d="M 34.28125 27.484375 
Q 23.390625 27.484375 19.1875 25 
Q 14.984375 22.515625 14.984375 16.5 
Q 14.984375 11.71875 18.140625 8.90625 
Q 21.296875 6.109375 26.703125 6.109375 
Q 34.1875 6.109375 38.703125 11.40625 
Q 43.21875 16.703125 43.21875 25.484375 
L 43.21875 27.484375 
z
M 52.203125 31.203125 
L 52.203125 0 
L 43.21875 0 
L 43.21875 8.296875 
Q 40.140625 3.328125 35.546875 0.953125 
Q 30.953125 -1.421875 24.3125 -1.421875 
Q 15.921875 -1.421875 10.953125 3.296875 
Q 6 8.015625 6 15.921875 
Q 6 25.140625 12.171875 29.828125 
Q 18.359375 34.515625 30.609375 34.515625 
L 43.21875 34.515625 
L 43.21875 35.40625 
Q 43.21875 41.609375 39.140625 45 
Q 35.0625 48.390625 27.6875 48.390625 
Q 23 48.390625 18.546875 47.265625 
Q 14.109375 46.140625 10.015625 43.890625 
L 10.015625 52.203125 
Q 14.9375 54.109375 19.578125 55.046875 
Q 24.21875 56 28.609375 56 
Q 40.484375 56 46.34375 49.84375 
Q 52.203125 43.703125 52.203125 31.203125 
z
" id="DejaVuSans-97"/>
      <path d="M 18.3125 70.21875 
L 18.3125 54.6875 
L 36.8125 54.6875 
L 36.8125 47.703125 
L 18.3125 47.703125 
L 18.3125 18.015625 
Q 18.3125 11.328125 20.140625 9.421875 
Q 21.96875 7.515625 27.59375 7.515625 
L 36.8125 7.515625 
L 36.8125 0 
L 27.59375 0 
Q 17.1875 0 13.234375 3.875 
Q 9.28125 7.765625 9.28125 18.015625 
L 9.28125 47.703125 
L 2.6875 47.703125 
L 2.6875 54.6875 
L 9.28125 54.6875 
L 9.28125 70.21875 
z
" id="DejaVuSans-116"/>
      <path d="M 56.203125 29.59375 
L 56.203125 25.203125 
L 14.890625 25.203125 
Q 15.484375 15.921875 20.484375 11.0625 
Q 25.484375 6.203125 34.421875 6.203125 
Q 39.59375 6.203125 44.453125 7.46875 
Q 49.3125 8.734375 54.109375 11.28125 
L 54.109375 2.78125 
Q 49.265625 0.734375 44.1875 -0.34375 
Q 39.109375 -1.421875 33.890625 -1.421875 
Q 20.796875 -1.421875 13.15625 6.1875 
Q 5.515625 13.8125 5.515625 26.8125 
Q 5.515625 40.234375 12.765625 48.109375 
Q 20.015625 56 32.328125 56 
Q 43.359375 56 49.78125 48.890625 
Q 56.203125 41.796875 56.203125 29.59375 
z
M 47.21875 32.234375 
Q 47.125 39.59375 43.09375 43.984375 
Q 39.0625 48.390625 32.421875 48.390625 
Q 24.90625 48.390625 20.390625 44.140625 
Q 15.875 39.890625 15.1875 32.171875 
z
" id="DejaVuSans-101"/>
     </defs>
     <g transform="translate(356.136719 446.751346)scale(0.1 -0.1)">
      <use xlink:href="#DejaVuSans-68"/>
      <use x="77.001953" xlink:href="#DejaVuSans-97"/>
      <use x="138.28125" xlink:href="#DejaVuSans-116"/>
      <use x="177.490234" xlink:href="#DejaVuSans-101"/>
     </g>
    </g>
   </g>
   <g id="matplotlib.axis_2">
    <g id="ytick_1">
     <g id="line2d_11">
      <defs>
       <path d="M 0 0 
L -3.5 0 
" id="mc47eaff6ec" style="stroke:#000000;stroke-width:0.8;"/>
      </defs>
      <g>
       <use style="stroke:#000000;stroke-width:0.8;" x="33.2875" xlink:href="#mc47eaff6ec" y="319.48211"/>
      </g>
     </g>
     <g id="text_12">
      <!-- 100 -->
      <g transform="translate(7.2 323.281329)scale(0.1 -0.1)">
       <use xlink:href="#DejaVuSans-49"/>
       <use x="63.623047" xlink:href="#DejaVuSans-48"/>
       <use x="127.246094" xlink:href="#DejaVuSans-48"/>
      </g>
     </g>
    </g>
    <g id="ytick_2">
     <g id="line2d_12">
      <g>
       <use style="stroke:#000000;stroke-width:0.8;" x="33.2875" xlink:href="#mc47eaff6ec" y="239.385806"/>
      </g>
     </g>
     <g id="text_13">
      <!-- 200 -->
      <g transform="translate(7.2 243.185025)scale(0.1 -0.1)">
       <use xlink:href="#DejaVuSans-50"/>
       <use x="63.623047" xlink:href="#DejaVuSans-48"/>
       <use x="127.246094" xlink:href="#DejaVuSans-48"/>
      </g>
     </g>
    </g>
    <g id="ytick_3">
     <g id="line2d_13">
      <g>
       <use style="stroke:#000000;stroke-width:0.8;" x="33.2875" xlink:href="#mc47eaff6ec" y="159.289502"/>
      </g>
     </g>
     <g id="text_14">
      <!-- 300 -->
      <defs>
       <path d="M 40.578125 39.3125 
Q 47.65625 37.796875 51.625 33 
Q 55.609375 28.21875 55.609375 21.1875 
Q 55.609375 10.40625 48.1875 4.484375 
Q 40.765625 -1.421875 27.09375 -1.421875 
Q 22.515625 -1.421875 17.65625 -0.515625 
Q 12.796875 0.390625 7.625 2.203125 
L 7.625 11.71875 
Q 11.71875 9.328125 16.59375 8.109375 
Q 21.484375 6.890625 26.8125 6.890625 
Q 36.078125 6.890625 40.9375 10.546875 
Q 45.796875 14.203125 45.796875 21.1875 
Q 45.796875 27.640625 41.28125 31.265625 
Q 36.765625 34.90625 28.71875 34.90625 
L 20.21875 34.90625 
L 20.21875 43.015625 
L 29.109375 43.015625 
Q 36.375 43.015625 40.234375 45.921875 
Q 44.09375 48.828125 44.09375 54.296875 
Q 44.09375 59.90625 40.109375 62.90625 
Q 36.140625 65.921875 28.71875 65.921875 
Q 24.65625 65.921875 20.015625 65.03125 
Q 15.375 64.15625 9.8125 62.3125 
L 9.8125 71.09375 
Q 15.4375 72.65625 20.34375 73.4375 
Q 25.25 74.21875 29.59375 74.21875 
Q 40.828125 74.21875 47.359375 69.109375 
Q 53.90625 64.015625 53.90625 55.328125 
Q 53.90625 49.265625 50.4375 45.09375 
Q 46.96875 40.921875 40.578125 39.3125 
z
" id="DejaVuSans-51"/>
      </defs>
      <g transform="translate(7.2 163.088721)scale(0.1 -0.1)">
       <use xlink:href="#DejaVuSans-51"/>
       <use x="63.623047" xlink:href="#DejaVuSans-48"/>
       <use x="127.246094" xlink:href="#DejaVuSans-48"/>
      </g>
     </g>
    </g>
    <g id="ytick_4">
     <g id="line2d_14">
      <g>
       <use style="stroke:#000000;stroke-width:0.8;" x="33.2875" xlink:href="#mc47eaff6ec" y="79.193198"/>
      </g>
     </g>
     <g id="text_15">
      <!-- 400 -->
      <g transform="translate(7.2 82.992417)scale(0.1 -0.1)">
       <use xlink:href="#DejaVuSans-52"/>
       <use x="63.623047" xlink:href="#DejaVuSans-48"/>
       <use x="127.246094" xlink:href="#DejaVuSans-48"/>
      </g>
     </g>
    </g>
   </g>
   <g id="line2d_15">
    <path clip-path="url(#p1a0975ed67)" d="M 63.723864 319.48211 
L 64.484773 318.351646 
L 65.245682 318.285159 
L 66.006591 317.354207 
L 68.289318 316.456467 
L 69.050227 317.952682 
L 69.811136 319.116375 
L 70.572045 319.182876 
L 71.332955 319.448867 
L 73.615682 320.612567 
L 74.376591 318.185407 
L 75.1375 314.794036 
L 75.898409 311.967898 
L 76.659318 310.970422 
L 78.942045 308.543269 
L 79.702955 308.94224 
L 80.463864 309.806721 
L 81.224773 309.806721 
L 81.985682 311.236412 
L 84.268409 313.164849 
L 85.029318 311.868131 
L 85.790227 310.205708 
L 86.551136 309.906474 
L 87.312045 312.40012 
L 89.594773 315.558765 
L 90.355682 316.057489 
L 91.116591 315.126514 
L 91.8775 318.717396 
L 92.638409 319.315864 
L 97.203864 316.955206 
L 97.964773 318.584401 
L 100.2475 318.850384 
L 101.769318 317.553666 
L 102.530227 319.71485 
L 103.291136 317.620182 
L 106.334773 319.149625 
L 107.856591 319.116375 
L 108.6175 320.147087 
L 110.900227 319.615098 
L 111.661136 321.044789 
L 112.422045 320.113844 
L 113.182955 320.280075 
L 113.943864 323.17273 
L 116.226591 323.604951 
L 116.9875 322.108767 
L 117.748409 323.272482 
L 118.509318 325.436931 
L 119.270227 324.591337 
L 121.552955 323.306033 
L 122.313864 321.851625 
L 123.074773 324.151636 
L 123.835682 325.470747 
L 124.596591 327.500162 
L 126.879318 328.5487 
L 127.640227 329.225189 
L 128.401136 329.292819 
L 129.162045 329.597252 
L 132.205682 330.409009 
L 132.966591 330.273719 
L 133.7275 331.761943 
L 134.488409 331.660475 
L 135.249318 331.186959 
L 137.532045 330.409009 
L 138.292955 332.675198 
L 139.053864 332.945786 
L 139.814773 333.62226 
L 140.575682 336.192852 
L 142.858409 335.820811 
L 143.619318 335.211974 
L 144.380227 335.211974 
L 145.141136 335.989916 
L 145.902045 335.482555 
L 148.184773 336.328135 
L 148.945682 334.298734 
L 149.706591 334.636975 
L 150.4675 333.960494 
L 151.228409 335.482555 
L 153.511136 334.636975 
L 155.032955 334.704605 
L 155.793864 338.729632 
L 156.554773 340.691406 
L 158.8375 339.642872 
L 159.598409 338.188441 
L 160.359318 339.20316 
L 161.120227 338.357561 
L 161.881136 338.425206 
L 164.163864 338.188441 
L 164.924773 339.609053 
L 165.685682 340.319343 
L 166.446591 342.078185 
L 167.2075 342.247279 
L 169.490227 343.059062 
L 171.012045 342.720818 
L 171.772955 340.961991 
L 172.533864 341.570812 
L 174.816591 342.450233 
L 175.5775 343.769363 
L 176.338409 342.247279 
L 177.860227 341.097281 
L 180.142955 342.247279 
L 180.903864 343.938468 
L 181.664773 344.784067 
L 182.425682 345.460533 
L 183.186591 344.039947 
L 185.469318 346.137019 
L 186.230227 347.456137 
L 186.991136 350.263498 
L 187.752045 347.726726 
L 188.512955 348.16643 
L 190.795682 348.673796 
L 191.556591 345.629665 
L 192.3175 344.445822 
L 193.078409 345.866423 
L 193.839318 347.726726 
L 196.122045 347.489964 
L 198.404773 344.107596 
L 199.165682 343.701714 
L 201.448409 344.399528 
L 202.209318 344.97856 
L 204.492045 345.216992 
L 207.535682 342.321794 
L 208.296591 343.41175 
L 209.0575 343.718302 
L 209.818409 342.015254 
L 212.101136 339.290365 
L 212.862045 339.290365 
L 213.622955 341.674654 
L 214.383864 341.810881 
L 215.144773 341.265908 
L 217.4275 341.538397 
L 218.188409 341.947138 
L 218.949318 343.139266 
L 219.710227 345.046683 
L 220.471136 345.080742 
L 222.753864 345.421361 
L 223.514773 350.700814 
L 224.275682 349.985532 
L 225.036591 350.360211 
L 225.7975 350.496453 
L 228.080227 352.471993 
L 228.841136 354.345346 
L 229.602045 351.892953 
L 230.362955 350.189905 
L 231.123864 351.484223 
L 233.406591 350.700814 
L 234.1675 348.214361 
L 234.928409 349.134016 
L 235.689318 348.554969 
L 236.450227 349.610873 
L 239.493864 350.496453 
L 240.254773 349.270251 
L 241.015682 348.86152 
L 241.776591 348.589032 
L 244.059318 347.635322 
L 244.820227 347.635322 
L 245.581136 347.430957 
L 246.342045 347.669389 
L 247.102955 348.146238 
L 249.385682 348.929651 
L 250.146591 349.031826 
L 250.9075 349.474616 
L 251.668409 351.484223 
L 254.712045 350.189905 
L 255.472955 350.700814 
L 256.233864 350.189905 
L 256.994773 351.211742 
L 257.755682 351.552338 
L 260.038409 349.359499 
L 260.799318 350.527386 
L 261.560227 352.119944 
L 262.321136 354.703448 
L 263.082045 354.03103 
L 265.364773 354.809615 
L 266.125682 355.198909 
L 266.886591 355.021952 
L 267.6475 354.986561 
L 268.408409 356.031039 
L 270.691136 356.386537 
L 271.452045 354.075853 
L 272.212955 355.924398 
L 273.734773 355.853299 
L 276.0175 354.075853 
L 276.778409 355.746658 
L 277.539318 355.497809 
L 278.300227 355.391171 
L 281.343864 355.853299 
L 282.104773 355.035677 
L 282.865682 354.431347 
L 284.3875 354.644629 
L 286.670227 353.898113 
L 287.431136 354.680186 
L 288.952955 356.919764 
L 289.713864 356.386537 
L 291.996591 355.568907 
L 292.7575 354.680186 
L 293.518409 352.653905 
L 294.279318 353.68482 
L 297.322955 352.191766 
L 298.083864 353.755919 
L 298.844773 356.173241 
L 299.605682 360.332459 
L 300.366591 361.896605 
L 302.649318 362.145455 
L 303.410227 362.714235 
L 304.171136 364.633868 
L 305.692955 364.918267 
L 307.975682 366.660157 
L 309.4975 366.26912 
L 310.258409 366.624611 
L 311.019318 366.695706 
L 314.062955 369.006387 
L 314.823864 367.157842 
L 315.584773 367.904373 
L 316.345682 365.73589 
L 318.628409 365.238205 
L 319.389318 365.700337 
L 320.150227 366.624611 
L 320.911136 365.344846 
L 321.672045 365.878084 
L 323.954773 367.300039 
L 324.715682 367.051197 
L 325.476591 366.340219 
L 326.2375 366.660157 
L 326.998409 366.020278 
L 329.281136 365.009968 
L 330.042045 365.375775 
L 330.802955 364.680746 
L 331.563864 366.260234 
L 332.324773 366.076151 
L 336.129318 366.886095 
L 336.890227 367.548773 
L 337.651136 366.849285 
L 341.455682 364.124919 
L 342.216591 364.97168 
L 342.9775 362.210516 
L 345.260227 362.541849 
L 346.021136 363.793582 
L 346.782045 362.284139 
L 347.542955 358.749833 
L 348.303864 360.148828 
L 350.586591 359.44934 
L 351.3475 360.921962 
L 352.108409 361.879167 
L 352.869318 360.995592 
L 353.630227 361.216481 
L 355.912955 360.369724 
L 356.673864 361.29012 
L 357.434773 361.989615 
L 358.195682 360.25928 
L 361.239318 359.486138 
L 362.000227 357.534918 
L 362.761136 356.909042 
L 363.522045 355.620503 
L 364.282955 355.289166 
L 366.565682 356.43045 
L 367.326591 358.418488 
L 368.0875 361.474191 
L 368.848409 360.185649 
L 369.609318 360.553807 
L 371.892045 358.860285 
L 372.652955 358.82346 
L 373.413864 359.154805 
L 374.174773 357.976703 
L 374.935682 359.22844 
L 377.218409 360.332911 
L 377.979318 359.74386 
L 378.740227 358.71302 
L 379.501136 359.44934 
L 380.262045 357.792624 
L 382.544773 358.503346 
L 383.305682 356.769899 
L 384.8275 358.616394 
L 385.588409 358.88018 
L 390.153864 359.370069 
L 390.914773 358.729445 
L 393.1975 357.674305 
L 396.241136 359.897634 
L 398.523864 358.88018 
L 399.284773 357.674305 
L 400.045682 358.917862 
L 401.5675 362.083284 
L 403.850227 363.402207 
L 404.611136 363.402207 
L 405.372045 364.381978 
L 406.132955 363.515258 
L 406.893864 363.612016 
L 409.176591 363.157213 
L 409.9375 364.938482 
L 410.698409 366.075462 
L 411.459318 364.142598 
L 412.220227 364.332091 
L 414.502955 364.673187 
L 415.263864 364.104704 
L 416.024773 362.740326 
L 416.785682 364.028903 
L 417.546591 364.521595 
L 419.829318 365.393277 
L 420.590227 365.355376 
L 421.351136 365.848069 
L 422.112045 368.311519 
L 425.155682 369.183199 
L 425.916591 367.932522 
L 426.6775 369.334797 
L 427.438409 369.524298 
L 428.199318 370.39598 
L 430.482045 369.562193 
L 431.242955 370.47178 
L 433.525682 371.608753 
L 435.808409 370.81287 
L 436.569318 371.153965 
L 437.330227 369.941186 
L 438.852045 371.002365 
L 441.134773 371.684551 
L 442.656591 371.495058 
L 443.4175 372.480438 
L 444.178409 373.655316 
L 446.461136 373.238424 
L 447.222045 372.707834 
L 448.743864 371.153965 
L 449.504773 370.850771 
L 451.7875 372.101447 
L 452.548409 372.821529 
L 453.309318 373.95851 
L 454.070227 373.95851 
L 454.831136 374.185904 
L 457.113864 374.072209 
L 457.874773 374.564901 
L 458.635682 374.337503 
L 459.396591 373.427922 
L 460.1575 374.185904 
L 462.440227 374.678598 
L 463.201136 374.564901 
L 463.962045 375.025422 
L 464.722955 374.027961 
L 465.483864 374.258143 
L 467.766591 374.181415 
L 469.288409 373.299041 
L 470.810227 371.649387 
L 473.092955 371.765915 
L 473.853864 372.619299 
L 474.614773 372.65809 
L 475.375682 372.852039 
L 476.136591 373.323157 
L 478.419318 373.479441 
L 479.180227 373.987353 
L 479.941136 372.737103 
L 480.702045 372.229186 
L 481.462955 372.737103 
L 483.745682 372.190117 
L 486.028409 370.431952 
L 486.789318 371.33057 
L 489.072045 372.072906 
L 489.832955 372.190117 
L 490.593864 372.424539 
L 491.354773 373.401299 
L 492.115682 373.479441 
L 494.398409 372.229186 
L 495.159318 373.205944 
L 495.920227 369.806829 
L 497.442045 370.744516 
L 499.724773 371.05708 
L 500.485682 370.705447 
L 501.246591 371.291499 
L 502.0075 366.954692 
L 502.768409 368.361226 
L 505.051136 369.142635 
L 505.812045 368.595649 
L 506.572955 368.673788 
L 507.333864 369.611476 
L 508.094773 369.455196 
L 510.3775 370.197533 
L 511.138409 369.767756 
L 512.660227 370.666374 
L 513.421136 370.939867 
L 515.703864 371.213358 
L 517.225682 368.51751 
L 518.7475 371.291499 
L 521.030227 371.05708 
L 521.791136 371.369643 
L 522.552045 371.213358 
L 524.073864 369.298915 
L 526.356591 369.924038 
L 527.1175 369.494267 
L 527.878409 368.673788 
L 528.639318 369.298915 
L 529.400227 369.298915 
L 531.682955 370.314742 
L 532.443864 370.197533 
L 533.204773 369.494267 
L 533.965682 369.455196 
L 534.726591 369.715559 
L 537.770227 367.448486 
L 538.531136 364.556012 
L 539.292045 366.354034 
L 540.052955 366.783991 
L 542.335682 365.924077 
L 543.096591 366.041335 
L 543.8575 366.752023 
L 544.618409 367.026558 
L 545.379318 368.477665 
L 547.662045 368.203131 
L 548.422955 368.752198 
L 549.183864 370.124865 
L 549.944773 368.909073 
L 550.705682 369.340486 
L 552.988409 369.615019 
L 553.749318 370.164086 
L 554.510227 369.575797 
L 555.271136 370.281745 
L 556.032045 369.183607 
L 558.314773 369.065949 
L 559.075682 369.850332 
L 559.836591 369.575797 
L 560.5975 369.771895 
L 561.358409 369.575797 
L 563.641136 369.379705 
L 564.402045 368.634542 
L 565.162955 368.869855 
L 565.923864 369.615019 
L 566.684773 368.634542 
L 568.9675 368.948292 
L 569.728409 368.438444 
L 570.489318 369.575797 
L 571.250227 369.928769 
L 572.011136 370.556276 
L 574.293864 370.085647 
L 575.054773 370.556276 
L 575.815682 370.652634 
L 576.576591 369.591499 
L 577.3375 369.159187 
L 579.620227 368.058745 
L 580.381136 368.333857 
L 581.142045 368.098047 
L 581.902955 368.569666 
L 584.946591 369.512894 
L 587.229318 369.552198 
L 587.990227 369.98451 
L 590.272955 368.844772 
L 591.033864 369.788007 
L 591.794773 370.259621 
L 592.555682 369.159187 
L 593.316591 368.923377 
L 595.599318 369.041282 
L 596.360227 368.805474 
L 597.121136 369.394991 
L 597.882045 367.822939 
L 598.642955 367.862243 
L 600.925682 367.587129 
L 601.686591 367.744334 
L 603.208409 366.565299 
L 603.969318 365.07185 
L 606.252045 366.840406 
L 607.012955 365.032546 
L 607.773864 365.229051 
L 608.534773 366.015078 
L 609.295682 366.290185 
L 611.578409 366.054379 
L 613.861136 365.386257 
L 614.622045 366.015078 
L 616.904773 366.683201 
L 619.1875 365.812263 
L 619.948409 366.245666 
L 622.231136 367.073074 
L 622.992045 368.018683 
L 623.752955 368.727892 
L 624.513864 370.619113 
L 625.274773 370.422109 
L 627.5575 370.303908 
L 628.318409 370.067507 
L 629.079318 370.934316 
L 629.840227 370.816113 
L 630.601136 371.091916 
L 632.883864 371.801124 
L 633.644773 372.392129 
L 634.405682 371.367721 
L 635.166591 371.525321 
L 635.9275 371.998126 
L 638.210227 371.998126 
L 638.971136 371.013116 
L 639.732045 372.155727 
L 640.492955 371.643521 
L 641.253864 371.687263 
L 643.536591 371.332214 
L 644.2975 372.121214 
L 645.058409 371.805614 
L 645.819318 370.503764 
L 646.580227 370.543213 
L 648.862955 371.016615 
L 649.623864 371.450563 
L 650.384773 370.701013 
L 651.145682 371.174415 
L 651.906591 370.819364 
L 654.189318 371.016615 
L 654.950227 370.385413 
L 655.711136 370.188165 
L 656.472045 371.174415 
L 657.232955 371.766163 
L 661.798409 373.975365 
L 662.559318 372.555164 
L 664.842045 371.647814 
L 665.602955 371.174415 
L 666.363864 370.503764 
L 667.124773 372.436813 
L 667.885682 373.699214 
L 670.168409 375.829514 
L 670.929318 374.567113 
L 671.690227 376.145114 
L 672.451136 381.076364 
L 672.451136 381.076364 
" style="fill:none;stroke:#1f77b4;stroke-linecap:square;stroke-width:1.5;"/>
   </g>
   <g id="line2d_16">
    <path clip-path="url(#p1a0975ed67)" d="M 63.723864 319.48211 
L 64.484773 318.118621 
L 65.245682 317.594198 
L 66.006591 316.405509 
L 68.289318 316.020937 
L 69.050227 317.209626 
L 69.811136 317.943806 
L 70.572045 316.615274 
L 71.332955 317.034811 
L 73.615682 316.790089 
L 74.376591 316.230709 
L 75.1375 315.531471 
L 75.898409 314.552562 
L 76.659318 312.594742 
L 78.942045 313.049215 
L 79.702955 313.643574 
L 80.463864 309.133562 
L 81.224773 309.133562 
L 81.985682 307.455429 
L 84.268409 307.315579 
L 85.029318 307.979845 
L 85.790227 308.399368 
L 86.551136 307.735116 
L 87.312045 308.679054 
L 89.594773 312.489842 
L 90.355682 312.210156 
L 91.116591 313.328923 
L 91.8775 314.06311 
L 92.638409 315.706272 
L 97.203864 311.790619 
L 97.964773 310.28728 
L 100.2475 310.427123 
L 101.008409 309.203484 
L 101.769318 306.371627 
L 102.530227 307.595266 
L 103.291136 305.147974 
L 105.573864 304.448757 
L 106.334773 306.931007 
L 107.095682 310.007593 
L 107.856591 310.112486 
L 108.6175 309.098619 
L 110.900227 307.979845 
L 111.661136 307.80503 
L 112.422045 308.154646 
L 113.182955 308.36441 
L 113.943864 305.182931 
L 116.226591 305.287824 
L 116.9875 305.497596 
L 118.509318 308.679054 
L 119.270227 309.553099 
L 121.552955 310.217365 
L 122.313864 308.469296 
L 123.074773 307.909923 
L 123.835682 308.74899 
L 124.596591 310.671859 
L 126.879318 309.86775 
L 127.640227 310.112486 
L 129.162045 306.266734 
L 132.966591 307.105807 
L 133.7275 308.084724 
L 134.488409 305.987047 
L 135.249318 305.847211 
L 137.532045 307.979845 
L 138.292955 307.700159 
L 139.053864 306.756199 
L 139.814773 305.567517 
L 140.575682 307.210693 
L 142.858409 310.846667 
L 143.619318 309.832786 
L 144.380227 307.80503 
L 145.141136 308.469296 
L 145.902045 309.727907 
L 148.184773 309.588056 
L 148.945682 310.78856 
L 149.706591 311.630839 
L 150.4675 309.49004 
L 151.228409 308.928516 
L 153.511136 310.78856 
L 155.032955 313.210092 
L 155.793864 314.78936 
L 156.554773 315.210489 
L 158.8375 315.421074 
L 159.598409 315.736921 
L 160.359318 315.140298 
L 161.120227 312.964422 
L 161.881136 316.754665 
L 164.163864 317.842606 
L 164.924773 319.562262 
L 165.685682 318.579603 
L 166.446591 321.983794 
L 167.2075 321.387179 
L 169.490227 321.84342 
L 170.251136 317.632035 
L 171.012045 322.018886 
L 171.772955 323.773633 
L 172.533864 325.809128 
L 174.816591 327.52877 
L 175.5775 326.826886 
L 176.338409 323.177018 
L 177.860227 321.492468 
L 180.142955 319.492057 
L 181.664773 324.440425 
L 182.425682 329.388807 
L 183.186591 326.440835 
L 185.469318 327.914821 
L 186.230227 325.879326 
L 186.991136 327.037444 
L 187.752045 328.862382 
L 188.512955 330.125782 
L 190.795682 332.161298 
L 191.556591 329.63447 
L 192.3175 330.160873 
L 193.078409 330.897877 
L 193.839318 329.494089 
L 196.122045 326.967253 
L 196.882955 327.14274 
L 197.643864 328.686895 
L 198.404773 326.766742 
L 199.165682 327.015115 
L 201.448409 326.34093 
L 202.970227 324.566776 
L 203.731136 325.028055 
L 204.492045 322.402291 
L 207.535682 320.202325 
L 208.296591 320.166858 
L 209.818409 315.05726 
L 212.101136 316.192716 
L 212.862045 314.631454 
L 213.622955 317.186257 
L 214.383864 317.612048 
L 215.144773 317.079808 
L 217.4275 318.002372 
L 218.188409 317.115281 
L 218.949318 315.199183 
L 219.710227 316.015305 
L 220.471136 315.660469 
L 223.514773 315.163709 
L 224.275682 315.589507 
L 225.036591 314.063726 
L 225.7975 311.047651 
L 228.080227 311.86376 
L 228.841136 314.418562 
L 229.602045 316.441089 
L 230.362955 317.044313 
L 231.123864 318.747512 
L 233.406591 318.321714 
L 234.1675 316.79594 
L 234.928409 317.2927 
L 235.689318 317.186257 
L 236.450227 319.563627 
L 238.732955 319.421697 
L 239.493864 320.805548 
L 240.254773 319.989426 
L 241.015682 324.602264 
L 241.776591 324.637738 
L 244.059318 322.402291 
L 244.820227 322.579709 
L 245.581136 320.628123 
L 246.342045 322.686159 
L 247.102955 322.366803 
L 249.385682 323.928079 
L 250.146591 325.382892 
L 250.9075 322.153918 
L 251.668409 322.082949 
L 254.712045 321.941005 
L 255.472955 324.850637 
L 256.233864 324.353877 
L 256.994773 324.353877 
L 257.755682 322.828096 
L 260.038409 321.089416 
L 260.799318 320.805548 
L 261.560227 320.308781 
L 262.321136 319.137836 
L 263.082045 317.612048 
L 265.364773 318.126481 
L 266.125682 319.199162 
L 266.886591 318.770088 
L 267.6475 316.016876 
L 268.408409 315.909613 
L 270.691136 317.518624 
L 271.452045 314.121818 
L 272.212955 312.798847 
L 272.973864 312.083734 
L 273.734773 312.870368 
L 276.0175 311.261343 
L 276.778409 309.831109 
L 277.539318 310.903797 
L 278.300227 314.407865 
L 281.343864 313.370941 
L 282.104773 310.188669 
L 282.865682 309.115995 
L 283.626591 312.798847 
L 284.3875 313.585488 
L 286.670227 311.618903 
L 287.431136 310.188669 
L 288.192045 311.726173 
L 288.952955 311.976464 
L 289.713864 308.829941 
L 291.996591 309.831109 
L 292.7575 305.182846 
L 293.518409 304.682259 
L 294.279318 301.46423 
L 297.322955 302.143594 
L 298.083864 303.538071 
L 298.844773 306.791864 
L 299.605682 308.222112 
L 300.366591 307.721504 
L 302.649318 307.006397 
L 303.410227 307.506984 
L 304.171136 306.61308 
L 305.692955 302.000567 
L 307.975682 305.683433 
L 309.4975 304.288956 
L 310.258409 304.503482 
L 311.019318 305.182846 
L 313.302045 305.218603 
L 314.062955 299.247376 
L 314.823864 298.746782 
L 315.584773 297.137771 
L 316.345682 298.746782 
L 318.628409 298.925565 
L 319.389318 299.819463 
L 320.150227 298.711032 
L 320.911136 297.352311 
L 321.672045 297.674101 
L 323.954773 301.21394 
L 324.715682 300.9279 
L 325.476591 298.925565 
L 326.2375 300.534569 
L 326.998409 301.786034 
L 330.042045 304.288956 
L 330.802955 306.040986 
L 331.563864 306.255527 
L 332.324773 303.967152 
L 336.129318 305.707898 
L 336.890227 305.311511 
L 337.651136 302.969253 
L 341.455682 299.43784 
L 342.216591 295.077641 
L 342.9775 298.861289 
L 345.260227 299.401808 
L 346.021136 299.113546 
L 346.782045 298.645079 
L 347.542955 297.708181 
L 348.303864 295.546094 
L 350.586591 293.239869 
L 351.3475 294.28488 
L 352.108409 292.014688 
L 352.869318 291.474169 
L 353.630227 290.032785 
L 355.912955 289.67243 
L 356.673864 292.302963 
L 358.195682 285.528434 
L 361.239318 283.438426 
L 362.000227 285.888789 
L 362.761136 286.177064 
L 363.522045 286.177064 
L 364.282955 284.483423 
L 366.565682 283.294267 
L 367.326591 280.735821 
L 368.0875 283.546517 
L 368.848409 287.870698 
L 369.609318 286.681535 
L 371.892045 288.663452 
L 372.652955 287.438271 
L 373.413864 287.726546 
L 374.174773 282.969966 
L 374.935682 283.114104 
L 377.218409 284.375318 
L 377.979318 281.38443 
L 378.740227 282.28531 
L 379.501136 283.006006 
L 380.262045 279.979086 
L 382.544773 279.04218 
L 383.305682 277.600803 
L 384.8275 281.42047 
L 385.588409 284.69964 
L 390.153864 287.546376 
L 390.914773 285.672564 
L 393.1975 281.024096 
L 393.958409 280.483557 
L 394.719318 279.654785 
L 395.480227 280.015125 
L 396.241136 277.528737 
L 398.523864 275.763017 
L 399.284773 274.609901 
L 400.806591 278.9701 
L 401.5675 282.28531 
L 403.850227 282.53756 
L 404.611136 279.582705 
L 405.372045 286.241036 
L 406.132955 283.341464 
L 406.893864 283.16024 
L 409.176591 281.492974 
L 409.9375 281.203022 
L 410.698409 285.189947 
L 411.459318 280.913062 
L 412.220227 280.33313 
L 414.502955 279.970709 
L 415.263864 283.522682 
L 416.024773 283.08775 
L 417.546591 288.379485 
L 419.829318 286.675975 
L 420.590227 285.588641 
L 421.351136 286.857199 
L 422.112045 283.776403 
L 425.155682 283.776403 
L 425.916591 280.550627 
L 426.6775 278.158478 
L 427.438409 273.555381 
L 428.199318 275.911293 
L 430.482045 274.896422 
L 431.242955 274.715218 
L 432.764773 276.708653 
L 433.525682 276.092511 
L 435.808409 277.433551 
L 436.569318 277.578545 
L 437.330227 275.077653 
L 438.091136 276.708653 
L 438.852045 278.883362 
L 441.134773 282.362845 
L 441.895682 281.420498 
L 442.656591 281.78294 
L 443.4175 283.957628 
L 444.178409 284.682519 
L 446.461136 281.021804 
L 447.222045 275.186395 
L 447.982955 276.418722 
L 448.743864 275.113905 
L 449.504773 275.621334 
L 451.7875 273.772836 
L 452.548409 270.039632 
L 453.309318 268.698592 
L 454.070227 266.560135 
L 454.831136 267.031326 
L 457.113864 267.285047 
L 457.874773 267.828728 
L 458.635682 269.387238 
L 459.396591 264.38544 
L 460.1575 265.14659 
L 462.440227 264.566672 
L 463.201136 261.775835 
L 463.962045 263.153128 
L 464.722955 262.718189 
L 465.483864 270.003408 
L 467.766591 270.909524 
L 468.5275 261.449624 
L 469.288409 264.059272 
L 470.810227 255.505487 
L 473.092955 255.68669 
L 473.853864 263.080638 
L 474.614773 265.155392 
L 475.375682 262.641779 
L 476.136591 263.115376 
L 478.419318 260.601749 
L 479.180227 262.787509 
L 479.941136 259.691035 
L 480.702045 254.80954 
L 481.462955 252.022028 
L 483.745682 252.387279 
L 485.2675 245.812991 
L 486.028409 249.246233 
L 486.789318 254.578698 
L 489.072045 254.432615 
L 489.832955 249.830608 
L 490.593864 248.771419 
L 491.354773 249.721032 
L 492.115682 252.095084 
L 494.398409 248.55228 
L 495.159318 250.7437 
L 495.920227 244.242454 
L 496.681136 246.54345 
L 497.442045 245.66688 
L 499.724773 243.913752 
L 500.485682 242.051034 
L 501.246591 245.484276 
L 502.0075 243.073703 
L 502.768409 242.087555 
L 505.051136 248.113974 
L 505.812045 243.256321 
L 506.572955 240.91879 
L 507.333864 234.015772 
L 508.094773 233.394876 
L 510.3775 237.996882 
L 511.138409 232.080012 
L 511.899318 239.969163 
L 512.660227 241.247505 
L 513.421136 237.047256 
L 515.703864 233.394876 
L 516.464773 232.445263 
L 517.225682 232.22611 
L 517.986591 233.504438 
L 518.7475 239.49435 
L 521.030227 245.082518 
L 522.552045 240.224837 
L 523.312955 237.814264 
L 524.073864 235.951532 
L 526.356591 239.092592 
L 527.1175 239.786545 
L 527.878409 236.572457 
L 529.400227 231.933915 
L 531.682955 239.530885 
L 532.443864 239.23869 
L 533.204773 236.937693 
L 533.965682 237.120312 
L 534.726591 242.525833 
L 537.009318 242.270174 
L 537.770227 238.435175 
L 538.531136 235.513268 
L 539.292045 236.755061 
L 540.052955 234.052307 
L 542.335682 235.732393 
L 543.096591 237.777729 
L 543.8575 237.676175 
L 544.618409 234.880315 
L 545.379318 236.315028 
L 547.662045 239.074098 
L 548.422955 238.559071 
L 549.183864 241.023852 
L 549.944773 239.184467 
L 550.705682 235.689646 
L 552.988409 241.391721 
L 553.749318 240.288087 
L 554.510227 238.080834 
L 555.271136 237.492227 
L 556.032045 233.850261 
L 558.314773 233.445603 
L 559.075682 235.836791 
L 559.836591 233.298444 
L 560.5975 229.803623 
L 561.358409 228.736793 
L 563.641136 227.081342 
L 565.162955 222.115004 
L 565.923864 220.717095 
L 566.684773 221.489622 
L 568.9675 220.238844 
L 569.728409 223.365783 
L 570.489318 221.158543 
L 571.250227 221.599991 
L 572.011136 218.583407 
L 575.054773 218.215539 
L 575.815682 219.687027 
L 576.576591 217.847642 
L 577.3375 220.422778 
L 579.620227 215.27252 
L 580.381136 218.583407 
L 581.142045 217.369419 
L 581.902955 216.376154 
L 584.946591 219.172 
L 585.7075 223.218652 
L 587.229318 219.760606 
L 587.990227 217.516563 
L 590.272955 223.844034 
L 591.033864 228.516055 
L 591.794773 225.021233 
L 592.555682 222.446097 
L 593.316591 224.027969 
L 595.599318 224.469431 
L 596.360227 222.593256 
L 597.121136 217.921221 
L 598.642955 218.95129 
L 600.925682 224.285482 
L 601.686591 227.449211 
L 602.4475 229.619688 
L 603.208409 227.817093 
L 603.969318 228.883923 
L 606.252045 229.546109 
L 607.012955 223.770455 
L 607.773864 220.937805 
L 608.534773 220.937805 
L 609.295682 218.95129 
L 611.578409 227.154921 
L 613.861136 227.964238 
L 614.622045 236.940424 
L 616.904773 241.502076 
L 619.1875 232.25165 
L 619.948409 237.073744 
L 622.231136 238.63166 
L 622.992045 233.438627 
L 623.752955 233.883754 
L 624.513864 233.957927 
L 625.274773 235.256193 
L 627.5575 235.07073 
L 628.318409 233.957927 
L 629.079318 238.409097 
L 629.840227 236.554444 
L 630.601136 231.398512 
L 632.883864 230.805024 
L 633.644773 233.772465 
L 634.405682 223.386413 
L 635.166591 218.935244 
L 635.9275 217.859542 
L 638.210227 222.830012 
L 638.971136 217.525704 
L 639.732045 219.306183 
L 640.492955 218.564319 
L 641.253864 220.789897 
L 643.536591 213.779312 
L 644.2975 214.261525 
L 645.819318 218.972345 
L 646.580227 220.418972 
L 648.862955 219.194894 
L 649.623864 218.19338 
L 650.384773 214.558263 
L 651.145682 215.671051 
L 651.906591 213.371286 
L 654.189318 207.844429 
L 654.950227 209.921631 
L 655.711136 202.50302 
L 656.472045 205.54465 
L 657.232955 206.509077 
L 661.798409 228.801995 
L 662.559318 221.53176 
L 664.842045 214.11315 
L 665.602955 215.559777 
L 666.363864 214.892101 
L 667.124773 224.83304 
L 667.885682 227.169906 
L 670.168409 247.867822 
L 670.929318 228.950371 
L 672.451136 262.742144 
L 672.451136 262.742144 
" style="fill:none;stroke:#ff7f0e;stroke-linecap:square;stroke-width:1.5;"/>
   </g>
   <g id="line2d_17">
    <path clip-path="url(#p1a0975ed67)" d="M 63.723864 319.48211 
L 64.484773 319.48211 
L 65.245682 318.79353 
L 66.006591 317.747847 
L 68.289318 316.417031 
L 69.811136 316.559594 
L 71.332955 311.688959 
L 73.615682 310.477187 
L 74.376591 309.859169 
L 75.1375 310.477187 
L 76.659318 310.477187 
L 78.942045 308.932531 
L 79.702955 308.814202 
L 81.224773 308.814202 
L 81.985682 309.051568 
L 84.268409 311.070948 
L 85.029318 311.070948 
L 86.551136 309.645337 
L 87.312045 309.313168 
L 89.594773 307.150501 
L 90.355682 307.578189 
L 91.116591 307.863306 
L 91.8775 307.19826 
L 92.638409 310.00174 
L 97.203864 308.552602 
L 97.964773 307.625948 
L 100.2475 308.36228 
L 101.769318 307.150501 
L 102.530227 306.913135 
L 103.291136 307.079215 
L 105.573864 307.126975 
L 106.334773 306.675769 
L 107.095682 307.625948 
L 107.856591 308.101396 
L 108.6175 307.150501 
L 110.900227 308.101396 
L 113.182955 303.349082 
L 113.943864 299.191261 
L 116.226591 297.005084 
L 116.9875 295.983619 
L 117.748409 297.88397 
L 118.509318 300.877772 
L 119.270227 303.230045 
L 121.552955 300.022411 
L 122.313864 298.596784 
L 123.074773 297.979498 
L 123.835682 285.901373 
L 124.596591 286.706643 
L 126.879318 285.767705 
L 127.640227 286.895072 
L 128.401136 287.324287 
L 129.162045 287.217184 
L 132.966591 288.0756 
L 133.7275 287.378237 
L 134.488409 284.398756 
L 135.249318 285.52613 
L 137.532045 284.5598 
L 138.292955 284.398756 
L 139.053864 283.243997 
L 139.814773 285.767705 
L 140.575682 285.767705 
L 142.858409 285.230598 
L 145.141136 272.883443 
L 145.902045 272.748964 
L 148.184773 275.674503 
L 148.945682 275.084235 
L 149.706591 272.910016 
L 150.4675 270.065007 
L 151.228409 271.192373 
L 153.511136 272.614484 
L 155.032955 272.104754 
L 155.793864 270.226075 
L 156.554773 264.561818 
L 158.8375 266.602369 
L 159.598409 268.990786 
L 160.359318 269.662372 
L 161.120227 272.265807 
L 161.881136 270.198683 
L 164.163864 270.735797 
L 164.924773 264.29367 
L 165.685682 262.334453 
L 166.446591 264.159183 
L 167.2075 268.696058 
L 169.490227 270.198683 
L 170.251136 267.782897 
L 171.012045 270.09158 
L 171.772955 269.420797 
L 172.533864 271.00396 
L 175.5775 271.809214 
L 176.338409 270.145537 
L 177.860227 268.051848 
L 180.142955 262.817634 
L 180.903864 264.964453 
L 181.664773 262.307069 
L 182.425682 261.770774 
L 183.186591 261.662875 
L 185.469318 264.696305 
L 186.230227 268.104986 
L 186.991136 266.789994 
L 187.752045 265.904178 
L 188.512955 264.803392 
L 190.795682 266.119212 
L 191.556591 268.373945 
L 192.3175 269.930527 
L 193.078409 272.292387 
L 193.839318 273.393181 
L 196.122045 272.400286 
L 196.882955 271.138432 
L 197.643864 271.675546 
L 198.404773 272.936589 
L 199.165682 269.796056 
L 201.448409 270.037622 
L 202.209318 271.272911 
L 202.970227 272.910016 
L 203.731136 270.33317 
L 204.492045 270.601302 
L 208.296591 265.98474 
L 209.0575 261.340754 
L 209.818409 258.656797 
L 212.101136 259.596539 
L 212.862045 258.630224 
L 213.622955 258.119691 
L 214.383864 255.516264 
L 215.144773 254.173888 
L 217.4275 253.637577 
L 218.188409 253.690739 
L 218.949318 251.543872 
L 220.471136 259.971805 
L 222.753864 258.602856 
L 223.514773 256.241004 
L 224.275682 256.375491 
L 225.036591 252.268628 
L 225.7975 250.684661 
L 228.080227 248.967034 
L 228.841136 246.738874 
L 229.602045 241.987769 
L 230.362955 243.624913 
L 231.123864 244.430151 
L 233.406591 245.101761 
L 234.1675 241.102001 
L 234.928409 240.270158 
L 235.689318 239.867523 
L 236.450227 241.075428 
L 238.732955 238.927782 
L 239.493864 240.403818 
L 240.254773 241.209088 
L 241.015682 246.416753 
L 241.776591 246.577797 
L 244.059318 244.538066 
L 244.820227 243.330177 
L 245.581136 241.317002 
L 246.342045 241.182515 
L 247.102955 240.028583 
L 249.385682 239.867523 
L 250.146591 239.088826 
L 251.668409 223.60113 
L 254.712045 225.131139 
L 255.472955 228.271688 
L 256.233864 230.069845 
L 256.994773 231.251177 
L 257.755682 230.47248 
L 260.038409 230.47248 
L 260.799318 234.015664 
L 262.321136 230.660114 
L 263.082045 229.66721 
L 265.364773 227.788539 
L 266.125682 225.479817 
L 266.886591 223.76219 
L 267.6475 224.298501 
L 268.408409 221.211925 
L 270.691136 222.41983 
L 271.452045 219.064263 
L 272.212955 225.238242 
L 272.973864 227.788539 
L 273.734773 227.949584 
L 276.0175 234.364326 
L 276.778409 236.914607 
L 277.539318 234.15012 
L 278.300227 229.882228 
L 281.343864 229.66721 
L 282.104773 220.889804 
L 282.865682 214.313206 
L 283.626591 213.346876 
L 284.3875 214.367147 
L 286.670227 215.14586 
L 287.431136 206.717132 
L 288.192045 213.105301 
L 288.952955 212.085841 
L 289.713864 214.099 
L 291.996591 216.970558 
L 292.7575 208.140006 
L 293.518409 205.080035 
L 294.279318 213.293714 
L 297.322955 215.709539 
L 298.083864 216.514809 
L 298.844773 223.788763 
L 299.605682 214.263036 
L 300.366591 212.801177 
L 302.649318 208.747411 
L 303.410227 203.783596 
L 304.171136 202.818969 
L 305.692955 199.096107 
L 307.975682 198.571603 
L 309.4975 196.310585 
L 313.302045 193.745967 
L 314.062955 188.643989 
L 314.823864 189.995801 
L 315.584773 191.098576 
L 316.345682 193.166853 
L 318.628409 196.393327 
L 319.389318 193.745967 
L 320.150227 194.407807 
L 320.911136 192.89137 
L 321.672045 190.2713 
L 323.954773 192.201398 
L 324.715682 191.650385 
L 325.476591 190.960444 
L 326.2375 189.995801 
L 326.998409 187.816681 
L 329.281136 189.471297 
L 330.042045 180.564558 
L 330.802955 179.212762 
L 331.563864 177.282664 
L 332.324773 176.758987 
L 336.129318 177.034486 
L 336.890227 175.37987 
L 337.651136 169.423327 
L 341.455682 169.864262 
L 342.9775 175.104371 
L 345.260227 172.842557 
L 346.021136 170.69157 
L 346.782045 171.2988 
L 348.303864 180.481848 
L 350.586591 181.446476 
L 351.3475 178.964568 
L 352.108409 170.69157 
L 352.869318 169.03697 
L 353.630227 161.839441 
L 355.912955 162.281235 
L 356.673864 160.792072 
L 357.434773 161.012149 
L 358.195682 157.096547 
L 361.239318 156.407386 
L 362.000227 161.288459 
L 363.522045 164.459512 
L 364.282955 160.184841 
L 366.565682 158.282048 
L 368.0875 162.418555 
L 368.848409 162.970364 
L 369.609318 153.566442 
L 371.892045 153.4837 
L 372.652955 143.390634 
L 373.413864 149.568098 
L 374.174773 145.872542 
L 374.935682 148.217113 
L 377.218409 146.699849 
L 377.979318 145.597027 
L 378.740227 143.80428 
L 379.501136 137.985884 
L 380.262045 142.012345 
L 382.544773 141.736034 
L 383.305682 141.04689 
L 384.066591 151.38815 
L 384.8275 154.145556 
L 385.588409 151.195377 
L 390.153864 161.040265 
L 390.914773 148.354449 
L 393.1975 148.630775 
L 394.719318 153.511833 
L 395.480227 154.145556 
L 396.241136 156.65558 
L 398.523864 151.967264 
L 399.284773 148.630775 
L 400.045682 148.630775 
L 400.806591 149.706245 
L 401.5675 153.202107 
L 403.850227 149.664031 
L 404.611136 149.332284 
L 405.372045 152.760043 
L 406.132955 153.533839 
L 406.893864 147.313619 
L 409.9375 144.687868 
L 410.698409 141.0934 
L 411.459318 145.157269 
L 412.220227 136.725963 
L 414.502955 132.606545 
L 415.263864 136.394232 
L 416.024773 141.314846 
L 417.546591 135.564871 
L 419.829318 136.172786 
L 420.590227 136.974778 
L 421.351136 136.946582 
L 422.112045 142.807701 
L 425.155682 137.887071 
L 425.916591 129.095837 
L 426.6775 130.588693 
L 427.438409 128.652977 
L 428.199318 137.887071 
L 430.482045 137.223592 
L 431.242955 139.987857 
L 432.764773 132.799779 
L 433.525682 122.847422 
L 435.808409 127.271219 
L 436.569318 124.506143 
L 438.091136 124.506143 
L 438.852045 120.138738 
L 441.134773 129.067641 
L 441.895682 127.298587 
L 442.656591 131.418053 
L 443.4175 132.053352 
L 444.178409 124.506143 
L 446.461136 111.485174 
L 447.222045 112.342699 
L 447.982955 114.222054 
L 448.743864 115.383146 
L 449.504773 123.400615 
L 451.7875 125.169638 
L 452.548409 117.346262 
L 453.309318 115.07961 
L 454.070227 111.236344 
L 454.831136 117.926824 
L 457.113864 123.400615 
L 457.874773 119.50258 
L 458.635682 130.920456 
L 459.396591 137.361278 
L 460.1575 127.160122 
L 462.440227 127.077157 
L 463.201136 131.69422 
L 463.962045 132.025983 
L 464.722955 134.182317 
L 465.483864 140.817217 
L 467.766591 133.076774 
L 468.5275 128.017646 
L 469.288409 127.796216 
L 470.810227 124.561707 
L 473.092955 120.221639 
L 473.853864 126.386326 
L 474.614773 123.124417 
L 475.375682 124.783137 
L 476.136591 127.271219 
L 478.419318 119.668477 
L 479.180227 131.418053 
L 479.941136 133.518807 
L 480.702045 134.072 
L 481.462955 132.164481 
L 483.745682 136.946582 
L 485.2675 119.115284 
L 486.028409 133.712057 
L 486.789318 139.628741 
L 489.072045 143.029131 
L 489.832955 143.222366 
L 492.115682 154.64021 
L 494.398409 144.549355 
L 495.159318 136.283087 
L 495.920227 135.564871 
L 496.681136 135.564871 
L 497.442045 136.283087 
L 499.724773 137.721221 
L 500.485682 140.623967 
L 501.246591 136.946582 
L 502.0075 145.710463 
L 502.768409 146.622756 
L 505.051136 146.26364 
L 505.812045 131.418053 
L 506.572955 125.944229 
L 507.333864 131.832749 
L 508.094773 123.953777 
L 510.3775 128.017646 
L 511.138409 121.548628 
L 511.899318 121.658962 
L 512.660227 124.28554 
L 513.421136 117.926824 
L 515.703864 121.465696 
L 516.464773 121.354567 
L 517.225682 117.263297 
L 517.986591 120.912534 
L 518.7475 121.741863 
L 521.030227 127.271219 
L 521.791136 122.571223 
L 522.552045 124.506143 
L 524.073864 99.625265 
L 526.356591 110.130784 
L 527.1175 114.636718 
L 527.878409 113.448258 
L 529.400227 119.751378 
L 531.682955 113.28236 
L 532.443864 112.618898 
L 533.204773 107.504206 
L 533.965682 109.301424 
L 534.726591 114.83078 
L 537.009318 103.7721 
L 537.770227 87.931254 
L 538.531136 91.331629 
L 539.292045 89.562575 
L 540.052955 92.133621 
L 542.335682 90.281666 
L 543.096591 94.372904 
L 543.8575 94.732035 
L 544.618409 92.548285 
L 545.379318 88.733246 
L 547.662045 87.240391 
L 548.422955 90.640766 
L 549.183864 95.699893 
L 549.944773 104.325261 
L 550.705682 98.105042 
L 552.988409 107.642703 
L 553.749318 105.320487 
L 554.510227 101.422484 
L 555.271136 102.41771 
L 556.032045 98.022109 
L 558.314773 93.875275 
L 559.075682 92.880049 
L 559.836591 94.372904 
L 560.5975 88.816147 
L 561.358409 90.557833 
L 563.641136 79.029687 
L 564.402045 74.468189 
L 565.162955 74.882853 
L 565.923864 76.95627 
L 566.684773 78.614991 
L 568.9675 79.11262 
L 569.728409 86.079267 
L 570.489318 89.811405 
L 571.250227 86.1622 
L 572.011136 81.517801 
L 574.293864 79.11262 
L 575.054773 78.614991 
L 575.815682 84.337613 
L 576.576591 98.105042 
L 577.3375 108.472095 
L 579.620227 97.275681 
L 580.381136 96.280455 
L 581.142045 96.778084 
L 581.902955 88.982045 
L 584.946591 97.441547 
L 585.7075 92.577277 
L 587.229318 86.487312 
L 587.990227 85.653051 
L 590.272955 86.654164 
L 591.033864 91.576195 
L 591.794773 90.741934 
L 592.555682 85.903345 
L 593.316591 89.824262 
L 596.360227 89.073443 
L 597.121136 91.743015 
L 597.882045 89.240295 
L 598.642955 90.324819 
L 600.925682 92.410424 
L 601.686591 92.160162 
L 602.4475 93.077802 
L 603.208409 86.40387 
L 603.969318 93.578359 
L 606.252045 93.077802 
L 607.012955 89.073443 
L 607.773864 80.814462 
L 608.534773 80.480758 
L 609.295682 74.641056 
L 611.578409 73.222859 
L 613.861136 66.131781 
L 614.622045 69.885878 
L 616.904773 74.641056 
L 619.1875 66.79919 
L 619.948409 69.385321 
L 622.231136 72.47204 
L 622.992045 70.302992 
L 623.752955 69.051648 
L 624.513864 56.28772 
L 625.274773 56.1209 
L 627.5575 53.201033 
L 628.318409 55.536901 
L 629.079318 47.444773 
L 629.840227 50.865165 
L 630.601136 39.102351 
L 632.883864 33.763205 
L 633.644773 40.770841 
L 634.405682 25.003636 
L 635.9275 42.35589 
L 638.210227 50.030904 
L 638.971136 29.925667 
L 639.732045 32.511829 
L 640.492955 31.093633 
L 641.253864 25.587603 
L 643.536591 59.45785 
L 644.2975 55.119786 
L 645.058409 45.025463 
L 645.819318 43.774087 
L 646.580227 69.802467 
L 648.862955 124.195065 
L 649.623864 110.513466 
L 651.145682 125.946966 
L 651.906591 110.513466 
L 654.189318 94.245768 
L 654.950227 96.748488 
L 655.711136 93.661801 
L 656.472045 112.682513 
L 657.232955 128.282834 
L 661.798409 114.851529 
L 662.559318 122.19287 
L 664.842045 146.385892 
L 665.602955 165.990587 
L 666.363864 240.655274 
L 667.124773 266.349926 
L 667.885682 263.012953 
L 670.168409 284.78668 
L 670.929318 285.287229 
L 671.690227 293.713077 
L 672.451136 323.245252 
L 672.451136 323.245252 
" style="fill:none;stroke:#2ca02c;stroke-linecap:square;stroke-width:1.5;"/>
   </g>
   <g id="patch_3">
    <path d="M 33.2875 398.88 
L 33.2875 7.2 
" style="fill:none;stroke:#000000;stroke-linecap:square;stroke-linejoin:miter;stroke-width:0.8;"/>
   </g>
   <g id="patch_4">
    <path d="M 702.8875 398.88 
L 702.8875 7.2 
" style="fill:none;stroke:#000000;stroke-linecap:square;stroke-linejoin:miter;stroke-width:0.8;"/>
   </g>
   <g id="patch_5">
    <path d="M 33.2875 398.88 
L 702.8875 398.88 
" style="fill:none;stroke:#000000;stroke-linecap:square;stroke-linejoin:miter;stroke-width:0.8;"/>
   </g>
   <g id="patch_6">
    <path d="M 33.2875 7.2 
L 702.8875 7.2 
" style="fill:none;stroke:#000000;stroke-linecap:square;stroke-linejoin:miter;stroke-width:0.8;"/>
   </g>
   <g id="legend_1">
    <g id="patch_7">
     <path d="M 40.2875 59.234375 
L 121.432813 59.234375 
Q 123.432813 59.234375 123.432813 57.234375 
L 123.432813 14.2 
Q 123.432813 12.2 121.432813 12.2 
L 40.2875 12.2 
Q 38.2875 12.2 38.2875 14.2 
L 38.2875 57.234375 
Q 38.2875 59.234375 40.2875 59.234375 
z
" style="fill:#ffffff;opacity:0.8;stroke:#cccccc;stroke-linejoin:miter;"/>
    </g>
    <g id="line2d_18">
     <path d="M 42.2875 20.298437 
L 62.2875 20.298437 
" style="fill:none;stroke:#1f77b4;stroke-linecap:square;stroke-width:1.5;"/>
    </g>
    <g id="line2d_19"/>
    <g id="text_16">
     <!-- CIEL3.SA -->
     <defs>
      <path d="M 64.40625 67.28125 
L 64.40625 56.890625 
Q 59.421875 61.53125 53.78125 63.8125 
Q 48.140625 66.109375 41.796875 66.109375 
Q 29.296875 66.109375 22.65625 58.46875 
Q 16.015625 50.828125 16.015625 36.375 
Q 16.015625 21.96875 22.65625 14.328125 
Q 29.296875 6.6875 41.796875 6.6875 
Q 48.140625 6.6875 53.78125 8.984375 
Q 59.421875 11.28125 64.40625 15.921875 
L 64.40625 5.609375 
Q 59.234375 2.09375 53.4375 0.328125 
Q 47.65625 -1.421875 41.21875 -1.421875 
Q 24.65625 -1.421875 15.125 8.703125 
Q 5.609375 18.84375 5.609375 36.375 
Q 5.609375 53.953125 15.125 64.078125 
Q 24.65625 74.21875 41.21875 74.21875 
Q 47.75 74.21875 53.53125 72.484375 
Q 59.328125 70.75 64.40625 67.28125 
z
" id="DejaVuSans-67"/>
      <path d="M 9.8125 72.90625 
L 19.671875 72.90625 
L 19.671875 0 
L 9.8125 0 
z
" id="DejaVuSans-73"/>
      <path d="M 9.8125 72.90625 
L 55.90625 72.90625 
L 55.90625 64.59375 
L 19.671875 64.59375 
L 19.671875 43.015625 
L 54.390625 43.015625 
L 54.390625 34.71875 
L 19.671875 34.71875 
L 19.671875 8.296875 
L 56.78125 8.296875 
L 56.78125 0 
L 9.8125 0 
z
" id="DejaVuSans-69"/>
      <path d="M 9.8125 72.90625 
L 19.671875 72.90625 
L 19.671875 8.296875 
L 55.171875 8.296875 
L 55.171875 0 
L 9.8125 0 
z
" id="DejaVuSans-76"/>
      <path d="M 10.6875 12.40625 
L 21 12.40625 
L 21 0 
L 10.6875 0 
z
" id="DejaVuSans-46"/>
      <path d="M 53.515625 70.515625 
L 53.515625 60.890625 
Q 47.90625 63.578125 42.921875 64.890625 
Q 37.9375 66.21875 33.296875 66.21875 
Q 25.25 66.21875 20.875 63.09375 
Q 16.5 59.96875 16.5 54.203125 
Q 16.5 49.359375 19.40625 46.890625 
Q 22.3125 44.4375 30.421875 42.921875 
L 36.375 41.703125 
Q 47.40625 39.59375 52.65625 34.296875 
Q 57.90625 29 57.90625 20.125 
Q 57.90625 9.515625 50.796875 4.046875 
Q 43.703125 -1.421875 29.984375 -1.421875 
Q 24.8125 -1.421875 18.96875 -0.25 
Q 13.140625 0.921875 6.890625 3.21875 
L 6.890625 13.375 
Q 12.890625 10.015625 18.65625 8.296875 
Q 24.421875 6.59375 29.984375 6.59375 
Q 38.421875 6.59375 43.015625 9.90625 
Q 47.609375 13.234375 47.609375 19.390625 
Q 47.609375 24.75 44.3125 27.78125 
Q 41.015625 30.8125 33.5 32.328125 
L 27.484375 33.5 
Q 16.453125 35.6875 11.515625 40.375 
Q 6.59375 45.0625 6.59375 53.421875 
Q 6.59375 63.09375 13.40625 68.65625 
Q 20.21875 74.21875 32.171875 74.21875 
Q 37.3125 74.21875 42.625 73.28125 
Q 47.953125 72.359375 53.515625 70.515625 
z
" id="DejaVuSans-83"/>
      <path d="M 34.1875 63.1875 
L 20.796875 26.90625 
L 47.609375 26.90625 
z
M 28.609375 72.90625 
L 39.796875 72.90625 
L 67.578125 0 
L 57.328125 0 
L 50.6875 18.703125 
L 17.828125 18.703125 
L 11.1875 0 
L 0.78125 0 
z
" id="DejaVuSans-65"/>
     </defs>
     <g transform="translate(70.2875 23.798437)scale(0.1 -0.1)">
      <use xlink:href="#DejaVuSans-67"/>
      <use x="69.824219" xlink:href="#DejaVuSans-73"/>
      <use x="99.316406" xlink:href="#DejaVuSans-69"/>
      <use x="162.5" xlink:href="#DejaVuSans-76"/>
      <use x="218.212891" xlink:href="#DejaVuSans-51"/>
      <use x="281.835938" xlink:href="#DejaVuSans-46"/>
      <use x="313.623047" xlink:href="#DejaVuSans-83"/>
      <use x="377.115234" xlink:href="#DejaVuSans-65"/>
     </g>
    </g>
    <g id="line2d_20">
     <path d="M 42.2875 34.976562 
L 62.2875 34.976562 
" style="fill:none;stroke:#ff7f0e;stroke-linecap:square;stroke-width:1.5;"/>
    </g>
    <g id="line2d_21"/>
    <g id="text_17">
     <!-- B3SA3.SA -->
     <defs>
      <path d="M 19.671875 34.8125 
L 19.671875 8.109375 
L 35.5 8.109375 
Q 43.453125 8.109375 47.28125 11.40625 
Q 51.125 14.703125 51.125 21.484375 
Q 51.125 28.328125 47.28125 31.5625 
Q 43.453125 34.8125 35.5 34.8125 
z
M 19.671875 64.796875 
L 19.671875 42.828125 
L 34.28125 42.828125 
Q 41.5 42.828125 45.03125 45.53125 
Q 48.578125 48.25 48.578125 53.8125 
Q 48.578125 59.328125 45.03125 62.0625 
Q 41.5 64.796875 34.28125 64.796875 
z
M 9.8125 72.90625 
L 35.015625 72.90625 
Q 46.296875 72.90625 52.390625 68.21875 
Q 58.5 63.53125 58.5 54.890625 
Q 58.5 48.1875 55.375 44.234375 
Q 52.25 40.28125 46.1875 39.3125 
Q 53.46875 37.75 57.5 32.78125 
Q 61.53125 27.828125 61.53125 20.40625 
Q 61.53125 10.640625 54.890625 5.3125 
Q 48.25 0 35.984375 0 
L 9.8125 0 
z
" id="DejaVuSans-66"/>
     </defs>
     <g transform="translate(70.2875 38.476562)scale(0.1 -0.1)">
      <use xlink:href="#DejaVuSans-66"/>
      <use x="68.603516" xlink:href="#DejaVuSans-51"/>
      <use x="132.226562" xlink:href="#DejaVuSans-83"/>
      <use x="195.71875" xlink:href="#DejaVuSans-65"/>
      <use x="264.126953" xlink:href="#DejaVuSans-51"/>
      <use x="327.75" xlink:href="#DejaVuSans-46"/>
      <use x="359.537109" xlink:href="#DejaVuSans-83"/>
      <use x="423.029297" xlink:href="#DejaVuSans-65"/>
     </g>
    </g>
    <g id="line2d_22">
     <path d="M 42.2875 49.654687 
L 62.2875 49.654687 
" style="fill:none;stroke:#2ca02c;stroke-linecap:square;stroke-width:1.5;"/>
    </g>
    <g id="line2d_23"/>
    <g id="text_18">
     <!-- IRBR3.SA -->
     <defs>
      <path d="M 44.390625 34.1875 
Q 47.5625 33.109375 50.5625 29.59375 
Q 53.5625 26.078125 56.59375 19.921875 
L 66.609375 0 
L 56 0 
L 46.6875 18.703125 
Q 43.0625 26.03125 39.671875 28.421875 
Q 36.28125 30.8125 30.421875 30.8125 
L 19.671875 30.8125 
L 19.671875 0 
L 9.8125 0 
L 9.8125 72.90625 
L 32.078125 72.90625 
Q 44.578125 72.90625 50.734375 67.671875 
Q 56.890625 62.453125 56.890625 51.90625 
Q 56.890625 45.015625 53.6875 40.46875 
Q 50.484375 35.9375 44.390625 34.1875 
z
M 19.671875 64.796875 
L 19.671875 38.921875 
L 32.078125 38.921875 
Q 39.203125 38.921875 42.84375 42.21875 
Q 46.484375 45.515625 46.484375 51.90625 
Q 46.484375 58.296875 42.84375 61.546875 
Q 39.203125 64.796875 32.078125 64.796875 
z
" id="DejaVuSans-82"/>
     </defs>
     <g transform="translate(70.2875 53.154687)scale(0.1 -0.1)">
      <use xlink:href="#DejaVuSans-73"/>
      <use x="29.492188" xlink:href="#DejaVuSans-82"/>
      <use x="98.974609" xlink:href="#DejaVuSans-66"/>
      <use x="167.578125" xlink:href="#DejaVuSans-82"/>
      <use x="237.060547" xlink:href="#DejaVuSans-51"/>
      <use x="300.683594" xlink:href="#DejaVuSans-46"/>
      <use x="332.470703" xlink:href="#DejaVuSans-83"/>
      <use x="395.962891" xlink:href="#DejaVuSans-65"/>
     </g>
    </g>
   </g>
  </g>
 </g>
 <defs>
  <clipPath id="p1a0975ed67">
   <rect height="391.68" width="669.6" x="33.2875" y="7.2"/>
  </clipPath>
 </defs>
</svg>
