<?xml version="1.0" encoding="utf-8" standalone="no"?>
<!DOCTYPE svg PUBLIC "-//W3C//DTD SVG 1.1//EN"
  "http://www.w3.org/Graphics/SVG/1.1/DTD/svg11.dtd">
<!-- Created with matplotlib (https://matplotlib.org/) -->
<svg height="456.031033pt" version="1.1" viewBox="0 0 771.082813 456.031033" width="771.082813pt" xmlns="http://www.w3.org/2000/svg" xmlns:xlink="http://www.w3.org/1999/xlink">
 <defs>
  <style type="text/css">
*{stroke-linecap:butt;stroke-linejoin:round;}
  </style>
 </defs>
 <g id="figure_1">
  <g id="patch_1">
   <path d="M 0 456.031033 
L 771.082813 456.031033 
L 771.082813 0 
L 0 0 
z
" style="fill:none;"/>
  </g>
  <g id="axes_1">
   <g id="patch_2">
    <path d="M 38.482813 398.88 
L 763.882812 398.88 
L 763.882812 7.2 
L 38.482813 7.2 
z
" style="fill:#ffffff;"/>
   </g>
   <g id="matplotlib.axis_1">
    <g id="xtick_1">
     <g id="line2d_1">
      <defs>
       <path d="M 0 0 
L 0 3.5 
" id="m93518c3db9" style="stroke:#000000;stroke-width:0.8;"/>
      </defs>
      <g>
       <use style="stroke:#000000;stroke-width:0.8;" x="69.80484" xlink:href="#m93518c3db9" y="398.88"/>
      </g>
     </g>
     <g id="text_1">
      <!-- 2018-01 -->
      <defs>
       <path d="M 19.1875 8.296875 
L 53.609375 8.296875 
L 53.609375 0 
L 7.328125 0 
L 7.328125 8.296875 
Q 12.9375 14.109375 22.625 23.890625 
Q 32.328125 33.6875 34.8125 36.53125 
Q 39.546875 41.84375 41.421875 45.53125 
Q 43.3125 49.21875 43.3125 52.78125 
Q 43.3125 58.59375 39.234375 62.25 
Q 35.15625 65.921875 28.609375 65.921875 
Q 23.96875 65.921875 18.8125 64.3125 
Q 13.671875 62.703125 7.8125 59.421875 
L 7.8125 69.390625 
Q 13.765625 71.78125 18.9375 73 
Q 24.125 74.21875 28.421875 74.21875 
Q 39.75 74.21875 46.484375 68.546875 
Q 53.21875 62.890625 53.21875 53.421875 
Q 53.21875 48.921875 51.53125 44.890625 
Q 49.859375 40.875 45.40625 35.40625 
Q 44.1875 33.984375 37.640625 27.21875 
Q 31.109375 20.453125 19.1875 8.296875 
z
" id="DejaVuSans-50"/>
       <path d="M 31.78125 66.40625 
Q 24.171875 66.40625 20.328125 58.90625 
Q 16.5 51.421875 16.5 36.375 
Q 16.5 21.390625 20.328125 13.890625 
Q 24.171875 6.390625 31.78125 6.390625 
Q 39.453125 6.390625 43.28125 13.890625 
Q 47.125 21.390625 47.125 36.375 
Q 47.125 51.421875 43.28125 58.90625 
Q 39.453125 66.40625 31.78125 66.40625 
z
M 31.78125 74.21875 
Q 44.046875 74.21875 50.515625 64.515625 
Q 56.984375 54.828125 56.984375 36.375 
Q 56.984375 17.96875 50.515625 8.265625 
Q 44.046875 -1.421875 31.78125 -1.421875 
Q 19.53125 -1.421875 13.0625 8.265625 
Q 6.59375 17.96875 6.59375 36.375 
Q 6.59375 54.828125 13.0625 64.515625 
Q 19.53125 74.21875 31.78125 74.21875 
z
" id="DejaVuSans-48"/>
       <path d="M 12.40625 8.296875 
L 28.515625 8.296875 
L 28.515625 63.921875 
L 10.984375 60.40625 
L 10.984375 69.390625 
L 28.421875 72.90625 
L 38.28125 72.90625 
L 38.28125 8.296875 
L 54.390625 8.296875 
L 54.390625 0 
L 12.40625 0 
z
" id="DejaVuSans-49"/>
       <path d="M 31.78125 34.625 
Q 24.75 34.625 20.71875 30.859375 
Q 16.703125 27.09375 16.703125 20.515625 
Q 16.703125 13.921875 20.71875 10.15625 
Q 24.75 6.390625 31.78125 6.390625 
Q 38.8125 6.390625 42.859375 10.171875 
Q 46.921875 13.96875 46.921875 20.515625 
Q 46.921875 27.09375 42.890625 30.859375 
Q 38.875 34.625 31.78125 34.625 
z
M 21.921875 38.8125 
Q 15.578125 40.375 12.03125 44.71875 
Q 8.5 49.078125 8.5 55.328125 
Q 8.5 64.0625 14.71875 69.140625 
Q 20.953125 74.21875 31.78125 74.21875 
Q 42.671875 74.21875 48.875 69.140625 
Q 55.078125 64.0625 55.078125 55.328125 
Q 55.078125 49.078125 51.53125 44.71875 
Q 48 40.375 41.703125 38.8125 
Q 48.828125 37.15625 52.796875 32.3125 
Q 56.78125 27.484375 56.78125 20.515625 
Q 56.78125 9.90625 50.3125 4.234375 
Q 43.84375 -1.421875 31.78125 -1.421875 
Q 19.734375 -1.421875 13.25 4.234375 
Q 6.78125 9.90625 6.78125 20.515625 
Q 6.78125 27.484375 10.78125 32.3125 
Q 14.796875 37.15625 21.921875 38.8125 
z
M 18.3125 54.390625 
Q 18.3125 48.734375 21.84375 45.5625 
Q 25.390625 42.390625 31.78125 42.390625 
Q 38.140625 42.390625 41.71875 45.5625 
Q 45.3125 48.734375 45.3125 54.390625 
Q 45.3125 60.0625 41.71875 63.234375 
Q 38.140625 66.40625 31.78125 66.40625 
Q 25.390625 66.40625 21.84375 63.234375 
Q 18.3125 60.0625 18.3125 54.390625 
z
" id="DejaVuSans-56"/>
       <path d="M 4.890625 31.390625 
L 31.203125 31.390625 
L 31.203125 23.390625 
L 4.890625 23.390625 
z
" id="DejaVuSans-45"/>
      </defs>
      <g transform="translate(32.580019 433.351846)rotate(-30)scale(0.1 -0.1)">
       <use xlink:href="#DejaVuSans-50"/>
       <use x="63.623047" xlink:href="#DejaVuSans-48"/>
       <use x="127.246094" xlink:href="#DejaVuSans-49"/>
       <use x="190.869141" xlink:href="#DejaVuSans-56"/>
       <use x="254.492188" xlink:href="#DejaVuSans-45"/>
       <use x="290.576172" xlink:href="#DejaVuSans-48"/>
       <use x="354.199219" xlink:href="#DejaVuSans-49"/>
      </g>
     </g>
    </g>
    <g id="xtick_2">
     <g id="line2d_2">
      <g>
       <use style="stroke:#000000;stroke-width:0.8;" x="144.086328" xlink:href="#m93518c3db9" y="398.88"/>
      </g>
     </g>
     <g id="text_2">
      <!-- 2018-04 -->
      <defs>
       <path d="M 37.796875 64.3125 
L 12.890625 25.390625 
L 37.796875 25.390625 
z
M 35.203125 72.90625 
L 47.609375 72.90625 
L 47.609375 25.390625 
L 58.015625 25.390625 
L 58.015625 17.1875 
L 47.609375 17.1875 
L 47.609375 0 
L 37.796875 0 
L 37.796875 17.1875 
L 4.890625 17.1875 
L 4.890625 26.703125 
z
" id="DejaVuSans-52"/>
      </defs>
      <g transform="translate(106.861507 433.351846)rotate(-30)scale(0.1 -0.1)">
       <use xlink:href="#DejaVuSans-50"/>
       <use x="63.623047" xlink:href="#DejaVuSans-48"/>
       <use x="127.246094" xlink:href="#DejaVuSans-49"/>
       <use x="190.869141" xlink:href="#DejaVuSans-56"/>
       <use x="254.492188" xlink:href="#DejaVuSans-45"/>
       <use x="290.576172" xlink:href="#DejaVuSans-48"/>
       <use x="354.199219" xlink:href="#DejaVuSans-52"/>
      </g>
     </g>
    </g>
    <g id="xtick_3">
     <g id="line2d_3">
      <g>
       <use style="stroke:#000000;stroke-width:0.8;" x="219.193166" xlink:href="#m93518c3db9" y="398.88"/>
      </g>
     </g>
     <g id="text_3">
      <!-- 2018-07 -->
      <defs>
       <path d="M 8.203125 72.90625 
L 55.078125 72.90625 
L 55.078125 68.703125 
L 28.609375 0 
L 18.3125 0 
L 43.21875 64.59375 
L 8.203125 64.59375 
z
" id="DejaVuSans-55"/>
      </defs>
      <g transform="translate(181.968346 433.351846)rotate(-30)scale(0.1 -0.1)">
       <use xlink:href="#DejaVuSans-50"/>
       <use x="63.623047" xlink:href="#DejaVuSans-48"/>
       <use x="127.246094" xlink:href="#DejaVuSans-49"/>
       <use x="190.869141" xlink:href="#DejaVuSans-56"/>
       <use x="254.492188" xlink:href="#DejaVuSans-45"/>
       <use x="290.576172" xlink:href="#DejaVuSans-48"/>
       <use x="354.199219" xlink:href="#DejaVuSans-55"/>
      </g>
     </g>
    </g>
    <g id="xtick_4">
     <g id="line2d_4">
      <g>
       <use style="stroke:#000000;stroke-width:0.8;" x="295.125354" xlink:href="#m93518c3db9" y="398.88"/>
      </g>
     </g>
     <g id="text_4">
      <!-- 2018-10 -->
      <g transform="translate(257.900533 433.351846)rotate(-30)scale(0.1 -0.1)">
       <use xlink:href="#DejaVuSans-50"/>
       <use x="63.623047" xlink:href="#DejaVuSans-48"/>
       <use x="127.246094" xlink:href="#DejaVuSans-49"/>
       <use x="190.869141" xlink:href="#DejaVuSans-56"/>
       <use x="254.492188" xlink:href="#DejaVuSans-45"/>
       <use x="290.576172" xlink:href="#DejaVuSans-49"/>
       <use x="354.199219" xlink:href="#DejaVuSans-48"/>
      </g>
     </g>
    </g>
    <g id="xtick_5">
     <g id="line2d_5">
      <g>
       <use style="stroke:#000000;stroke-width:0.8;" x="371.057542" xlink:href="#m93518c3db9" y="398.88"/>
      </g>
     </g>
     <g id="text_5">
      <!-- 2019-01 -->
      <defs>
       <path d="M 10.984375 1.515625 
L 10.984375 10.5 
Q 14.703125 8.734375 18.5 7.8125 
Q 22.3125 6.890625 25.984375 6.890625 
Q 35.75 6.890625 40.890625 13.453125 
Q 46.046875 20.015625 46.78125 33.40625 
Q 43.953125 29.203125 39.59375 26.953125 
Q 35.25 24.703125 29.984375 24.703125 
Q 19.046875 24.703125 12.671875 31.3125 
Q 6.296875 37.9375 6.296875 49.421875 
Q 6.296875 60.640625 12.9375 67.421875 
Q 19.578125 74.21875 30.609375 74.21875 
Q 43.265625 74.21875 49.921875 64.515625 
Q 56.59375 54.828125 56.59375 36.375 
Q 56.59375 19.140625 48.40625 8.859375 
Q 40.234375 -1.421875 26.421875 -1.421875 
Q 22.703125 -1.421875 18.890625 -0.6875 
Q 15.09375 0.046875 10.984375 1.515625 
z
M 30.609375 32.421875 
Q 37.25 32.421875 41.125 36.953125 
Q 45.015625 41.5 45.015625 49.421875 
Q 45.015625 57.28125 41.125 61.84375 
Q 37.25 66.40625 30.609375 66.40625 
Q 23.96875 66.40625 20.09375 61.84375 
Q 16.21875 57.28125 16.21875 49.421875 
Q 16.21875 41.5 20.09375 36.953125 
Q 23.96875 32.421875 30.609375 32.421875 
z
" id="DejaVuSans-57"/>
      </defs>
      <g transform="translate(333.832721 433.351846)rotate(-30)scale(0.1 -0.1)">
       <use xlink:href="#DejaVuSans-50"/>
       <use x="63.623047" xlink:href="#DejaVuSans-48"/>
       <use x="127.246094" xlink:href="#DejaVuSans-49"/>
       <use x="190.869141" xlink:href="#DejaVuSans-57"/>
       <use x="254.492188" xlink:href="#DejaVuSans-45"/>
       <use x="290.576172" xlink:href="#DejaVuSans-48"/>
       <use x="354.199219" xlink:href="#DejaVuSans-49"/>
      </g>
     </g>
    </g>
    <g id="xtick_6">
     <g id="line2d_6">
      <g>
       <use style="stroke:#000000;stroke-width:0.8;" x="445.33903" xlink:href="#m93518c3db9" y="398.88"/>
      </g>
     </g>
     <g id="text_6">
      <!-- 2019-04 -->
      <g transform="translate(408.11421 433.351846)rotate(-30)scale(0.1 -0.1)">
       <use xlink:href="#DejaVuSans-50"/>
       <use x="63.623047" xlink:href="#DejaVuSans-48"/>
       <use x="127.246094" xlink:href="#DejaVuSans-49"/>
       <use x="190.869141" xlink:href="#DejaVuSans-57"/>
       <use x="254.492188" xlink:href="#DejaVuSans-45"/>
       <use x="290.576172" xlink:href="#DejaVuSans-48"/>
       <use x="354.199219" xlink:href="#DejaVuSans-52"/>
      </g>
     </g>
    </g>
    <g id="xtick_7">
     <g id="line2d_7">
      <g>
       <use style="stroke:#000000;stroke-width:0.8;" x="520.445869" xlink:href="#m93518c3db9" y="398.88"/>
      </g>
     </g>
     <g id="text_7">
      <!-- 2019-07 -->
      <g transform="translate(483.221048 433.351846)rotate(-30)scale(0.1 -0.1)">
       <use xlink:href="#DejaVuSans-50"/>
       <use x="63.623047" xlink:href="#DejaVuSans-48"/>
       <use x="127.246094" xlink:href="#DejaVuSans-49"/>
       <use x="190.869141" xlink:href="#DejaVuSans-57"/>
       <use x="254.492188" xlink:href="#DejaVuSans-45"/>
       <use x="290.576172" xlink:href="#DejaVuSans-48"/>
       <use x="354.199219" xlink:href="#DejaVuSans-55"/>
      </g>
     </g>
    </g>
    <g id="xtick_8">
     <g id="line2d_8">
      <g>
       <use style="stroke:#000000;stroke-width:0.8;" x="596.378057" xlink:href="#m93518c3db9" y="398.88"/>
      </g>
     </g>
     <g id="text_8">
      <!-- 2019-10 -->
      <g transform="translate(559.153236 433.351846)rotate(-30)scale(0.1 -0.1)">
       <use xlink:href="#DejaVuSans-50"/>
       <use x="63.623047" xlink:href="#DejaVuSans-48"/>
       <use x="127.246094" xlink:href="#DejaVuSans-49"/>
       <use x="190.869141" xlink:href="#DejaVuSans-57"/>
       <use x="254.492188" xlink:href="#DejaVuSans-45"/>
       <use x="290.576172" xlink:href="#DejaVuSans-49"/>
       <use x="354.199219" xlink:href="#DejaVuSans-48"/>
      </g>
     </g>
    </g>
    <g id="xtick_9">
     <g id="line2d_9">
      <g>
       <use style="stroke:#000000;stroke-width:0.8;" x="672.310245" xlink:href="#m93518c3db9" y="398.88"/>
      </g>
     </g>
     <g id="text_9">
      <!-- 2020-01 -->
      <g transform="translate(635.085424 433.351846)rotate(-30)scale(0.1 -0.1)">
       <use xlink:href="#DejaVuSans-50"/>
       <use x="63.623047" xlink:href="#DejaVuSans-48"/>
       <use x="127.246094" xlink:href="#DejaVuSans-50"/>
       <use x="190.869141" xlink:href="#DejaVuSans-48"/>
       <use x="254.492188" xlink:href="#DejaVuSans-45"/>
       <use x="290.576172" xlink:href="#DejaVuSans-48"/>
       <use x="354.199219" xlink:href="#DejaVuSans-49"/>
      </g>
     </g>
    </g>
    <g id="xtick_10">
     <g id="line2d_10">
      <g>
       <use style="stroke:#000000;stroke-width:0.8;" x="747.417083" xlink:href="#m93518c3db9" y="398.88"/>
      </g>
     </g>
     <g id="text_10">
      <!-- 2020-04 -->
      <g transform="translate(710.192262 433.351846)rotate(-30)scale(0.1 -0.1)">
       <use xlink:href="#DejaVuSans-50"/>
       <use x="63.623047" xlink:href="#DejaVuSans-48"/>
       <use x="127.246094" xlink:href="#DejaVuSans-50"/>
       <use x="190.869141" xlink:href="#DejaVuSans-48"/>
       <use x="254.492188" xlink:href="#DejaVuSans-45"/>
       <use x="290.576172" xlink:href="#DejaVuSans-48"/>
       <use x="354.199219" xlink:href="#DejaVuSans-52"/>
      </g>
     </g>
    </g>
    <g id="text_11">
     <!-- Date -->
     <defs>
      <path d="M 19.671875 64.796875 
L 19.671875 8.109375 
L 31.59375 8.109375 
Q 46.6875 8.109375 53.6875 14.9375 
Q 60.6875 21.78125 60.6875 36.53125 
Q 60.6875 51.171875 53.6875 57.984375 
Q 46.6875 64.796875 31.59375 64.796875 
z
M 9.8125 72.90625 
L 30.078125 72.90625 
Q 51.265625 72.90625 61.171875 64.09375 
Q 71.09375 55.28125 71.09375 36.53125 
Q 71.09375 17.671875 61.125 8.828125 
Q 51.171875 0 30.078125 0 
L 9.8125 0 
z
" id="DejaVuSans-68"/>
      <path d="M 34.28125 27.484375 
Q 23.390625 27.484375 19.1875 25 
Q 14.984375 22.515625 14.984375 16.5 
Q 14.984375 11.71875 18.140625 8.90625 
Q 21.296875 6.109375 26.703125 6.109375 
Q 34.1875 6.109375 38.703125 11.40625 
Q 43.21875 16.703125 43.21875 25.484375 
L 43.21875 27.484375 
z
M 52.203125 31.203125 
L 52.203125 0 
L 43.21875 0 
L 43.21875 8.296875 
Q 40.140625 3.328125 35.546875 0.953125 
Q 30.953125 -1.421875 24.3125 -1.421875 
Q 15.921875 -1.421875 10.953125 3.296875 
Q 6 8.015625 6 15.921875 
Q 6 25.140625 12.171875 29.828125 
Q 18.359375 34.515625 30.609375 34.515625 
L 43.21875 34.515625 
L 43.21875 35.40625 
Q 43.21875 41.609375 39.140625 45 
Q 35.0625 48.390625 27.6875 48.390625 
Q 23 48.390625 18.546875 47.265625 
Q 14.109375 46.140625 10.015625 43.890625 
L 10.015625 52.203125 
Q 14.9375 54.109375 19.578125 55.046875 
Q 24.21875 56 28.609375 56 
Q 40.484375 56 46.34375 49.84375 
Q 52.203125 43.703125 52.203125 31.203125 
z
" id="DejaVuSans-97"/>
      <path d="M 18.3125 70.21875 
L 18.3125 54.6875 
L 36.8125 54.6875 
L 36.8125 47.703125 
L 18.3125 47.703125 
L 18.3125 18.015625 
Q 18.3125 11.328125 20.140625 9.421875 
Q 21.96875 7.515625 27.59375 7.515625 
L 36.8125 7.515625 
L 36.8125 0 
L 27.59375 0 
Q 17.1875 0 13.234375 3.875 
Q 9.28125 7.765625 9.28125 18.015625 
L 9.28125 47.703125 
L 2.6875 47.703125 
L 2.6875 54.6875 
L 9.28125 54.6875 
L 9.28125 70.21875 
z
" id="DejaVuSans-116"/>
      <path d="M 56.203125 29.59375 
L 56.203125 25.203125 
L 14.890625 25.203125 
Q 15.484375 15.921875 20.484375 11.0625 
Q 25.484375 6.203125 34.421875 6.203125 
Q 39.59375 6.203125 44.453125 7.46875 
Q 49.3125 8.734375 54.109375 11.28125 
L 54.109375 2.78125 
Q 49.265625 0.734375 44.1875 -0.34375 
Q 39.109375 -1.421875 33.890625 -1.421875 
Q 20.796875 -1.421875 13.15625 6.1875 
Q 5.515625 13.8125 5.515625 26.8125 
Q 5.515625 40.234375 12.765625 48.109375 
Q 20.015625 56 32.328125 56 
Q 43.359375 56 49.78125 48.890625 
Q 56.203125 41.796875 56.203125 29.59375 
z
M 47.21875 32.234375 
Q 47.125 39.59375 43.09375 43.984375 
Q 39.0625 48.390625 32.421875 48.390625 
Q 24.90625 48.390625 20.390625 44.140625 
Q 15.875 39.890625 15.1875 32.171875 
z
" id="DejaVuSans-101"/>
     </defs>
     <g transform="translate(389.232031 446.751346)scale(0.1 -0.1)">
      <use xlink:href="#DejaVuSans-68"/>
      <use x="77.001953" xlink:href="#DejaVuSans-97"/>
      <use x="138.28125" xlink:href="#DejaVuSans-116"/>
      <use x="177.490234" xlink:href="#DejaVuSans-101"/>
     </g>
    </g>
   </g>
   <g id="matplotlib.axis_2">
    <g id="ytick_1">
     <g id="line2d_11">
      <defs>
       <path d="M 0 0 
L -3.5 0 
" id="mc83d06f407" style="stroke:#000000;stroke-width:0.8;"/>
      </defs>
      <g>
       <use style="stroke:#000000;stroke-width:0.8;" x="38.482813" xlink:href="#mc83d06f407" y="340.331846"/>
      </g>
     </g>
     <g id="text_12">
      <!-- −0.3 -->
      <defs>
       <path d="M 10.59375 35.5 
L 73.1875 35.5 
L 73.1875 27.203125 
L 10.59375 27.203125 
z
" id="DejaVuSans-8722"/>
       <path d="M 10.6875 12.40625 
L 21 12.40625 
L 21 0 
L 10.6875 0 
z
" id="DejaVuSans-46"/>
       <path d="M 40.578125 39.3125 
Q 47.65625 37.796875 51.625 33 
Q 55.609375 28.21875 55.609375 21.1875 
Q 55.609375 10.40625 48.1875 4.484375 
Q 40.765625 -1.421875 27.09375 -1.421875 
Q 22.515625 -1.421875 17.65625 -0.515625 
Q 12.796875 0.390625 7.625 2.203125 
L 7.625 11.71875 
Q 11.71875 9.328125 16.59375 8.109375 
Q 21.484375 6.890625 26.8125 6.890625 
Q 36.078125 6.890625 40.9375 10.546875 
Q 45.796875 14.203125 45.796875 21.1875 
Q 45.796875 27.640625 41.28125 31.265625 
Q 36.765625 34.90625 28.71875 34.90625 
L 20.21875 34.90625 
L 20.21875 43.015625 
L 29.109375 43.015625 
Q 36.375 43.015625 40.234375 45.921875 
Q 44.09375 48.828125 44.09375 54.296875 
Q 44.09375 59.90625 40.109375 62.90625 
Q 36.140625 65.921875 28.71875 65.921875 
Q 24.65625 65.921875 20.015625 65.03125 
Q 15.375 64.15625 9.8125 62.3125 
L 9.8125 71.09375 
Q 15.4375 72.65625 20.34375 73.4375 
Q 25.25 74.21875 29.59375 74.21875 
Q 40.828125 74.21875 47.359375 69.109375 
Q 53.90625 64.015625 53.90625 55.328125 
Q 53.90625 49.265625 50.4375 45.09375 
Q 46.96875 40.921875 40.578125 39.3125 
z
" id="DejaVuSans-51"/>
      </defs>
      <g transform="translate(7.2 344.131065)scale(0.1 -0.1)">
       <use xlink:href="#DejaVuSans-8722"/>
       <use x="83.789062" xlink:href="#DejaVuSans-48"/>
       <use x="147.412109" xlink:href="#DejaVuSans-46"/>
       <use x="179.199219" xlink:href="#DejaVuSans-51"/>
      </g>
     </g>
    </g>
    <g id="ytick_2">
     <g id="line2d_12">
      <g>
       <use style="stroke:#000000;stroke-width:0.8;" x="38.482813" xlink:href="#mc83d06f407" y="275.595599"/>
      </g>
     </g>
     <g id="text_13">
      <!-- −0.2 -->
      <g transform="translate(7.2 279.394817)scale(0.1 -0.1)">
       <use xlink:href="#DejaVuSans-8722"/>
       <use x="83.789062" xlink:href="#DejaVuSans-48"/>
       <use x="147.412109" xlink:href="#DejaVuSans-46"/>
       <use x="179.199219" xlink:href="#DejaVuSans-50"/>
      </g>
     </g>
    </g>
    <g id="ytick_3">
     <g id="line2d_13">
      <g>
       <use style="stroke:#000000;stroke-width:0.8;" x="38.482813" xlink:href="#mc83d06f407" y="210.859351"/>
      </g>
     </g>
     <g id="text_14">
      <!-- −0.1 -->
      <g transform="translate(7.2 214.65857)scale(0.1 -0.1)">
       <use xlink:href="#DejaVuSans-8722"/>
       <use x="83.789062" xlink:href="#DejaVuSans-48"/>
       <use x="147.412109" xlink:href="#DejaVuSans-46"/>
       <use x="179.199219" xlink:href="#DejaVuSans-49"/>
      </g>
     </g>
    </g>
    <g id="ytick_4">
     <g id="line2d_14">
      <g>
       <use style="stroke:#000000;stroke-width:0.8;" x="38.482813" xlink:href="#mc83d06f407" y="146.123104"/>
      </g>
     </g>
     <g id="text_15">
      <!-- 0.0 -->
      <g transform="translate(15.579688 149.922323)scale(0.1 -0.1)">
       <use xlink:href="#DejaVuSans-48"/>
       <use x="63.623047" xlink:href="#DejaVuSans-46"/>
       <use x="95.410156" xlink:href="#DejaVuSans-48"/>
      </g>
     </g>
    </g>
    <g id="ytick_5">
     <g id="line2d_15">
      <g>
       <use style="stroke:#000000;stroke-width:0.8;" x="38.482813" xlink:href="#mc83d06f407" y="81.386857"/>
      </g>
     </g>
     <g id="text_16">
      <!-- 0.1 -->
      <g transform="translate(15.579688 85.186076)scale(0.1 -0.1)">
       <use xlink:href="#DejaVuSans-48"/>
       <use x="63.623047" xlink:href="#DejaVuSans-46"/>
       <use x="95.410156" xlink:href="#DejaVuSans-49"/>
      </g>
     </g>
    </g>
    <g id="ytick_6">
     <g id="line2d_16">
      <g>
       <use style="stroke:#000000;stroke-width:0.8;" x="38.482813" xlink:href="#mc83d06f407" y="16.65061"/>
      </g>
     </g>
     <g id="text_17">
      <!-- 0.2 -->
      <g transform="translate(15.579688 20.449829)scale(0.1 -0.1)">
       <use xlink:href="#DejaVuSans-48"/>
       <use x="63.623047" xlink:href="#DejaVuSans-46"/>
       <use x="95.410156" xlink:href="#DejaVuSans-50"/>
      </g>
     </g>
    </g>
   </g>
   <g id="line2d_17">
    <path clip-path="url(#pe514c37f4a)" d="M 71.45554 153.794258 
L 72.28089 121.539733 
L 73.10624 142.799038 
L 75.582289 144.469562 
L 76.407639 161.791755 
L 77.232989 159.645023 
L 78.058339 163.386087 
L 78.883689 145.679737 
L 81.359738 137.704267 
L 82.185088 133.875718 
L 83.010438 122.512396 
L 83.835788 127.485037 
L 84.661138 153.369711 
L 87.137187 136.75876 
L 87.962537 148.932477 
L 88.787887 108.232625 
L 89.613237 146.123104 
L 90.438587 117.562995 
L 92.914636 130.805229 
L 93.739986 151.111016 
L 94.565336 143.250728 
L 95.390686 141.476137 
L 96.216036 162.094177 
L 98.692085 165.773262 
L 99.517435 127.358975 
L 100.342785 146.123104 
L 101.168135 168.005793 
L 101.993485 168.771369 
L 106.945584 130.476821 
L 107.770934 143.449643 
L 110.246984 142.31955 
L 111.072333 147.635668 
L 111.897683 131.720458 
L 112.723033 123.876956 
L 113.548383 109.919546 
L 116.024433 128.13136 
L 116.849783 145.79281 
L 117.675132 159.657959 
L 118.500482 149.494796 
L 119.325832 148.834567 
L 121.801882 150.207438 
L 122.627232 141.327782 
L 123.452582 161.083179 
L 124.277931 120.019779 
L 125.103281 100.289209 
L 127.579331 118.628911 
L 128.404681 145.523681 
L 129.230031 167.382493 
L 130.05538 140.240789 
L 130.88073 131.703203 
L 133.35678 165.631002 
L 134.18213 148.908129 
L 135.00748 143.947628 
L 135.83283 158.512805 
L 136.658179 122.439111 
L 139.134229 133.023525 
L 139.959579 154.483894 
L 140.784929 162.155876 
L 141.610279 121.928475 
L 144.911678 155.093462 
L 145.737028 146.426325 
L 146.562378 169.784921 
L 147.387728 132.583899 
L 148.213078 56.68285 
L 150.689127 172.678774 
L 151.514477 159.12119 
L 152.339827 164.578018 
L 153.165177 140.483525 
L 153.990527 169.663535 
L 156.466576 166.887569 
L 157.291926 98.485801 
L 158.117276 125.25943 
L 158.942626 189.679174 
L 159.767976 166.267336 
L 162.244025 130.687157 
L 163.069375 162.737948 
L 163.894725 188.754303 
L 164.720075 141.72844 
L 165.545425 138.736211 
L 168.021474 148.778948 
L 169.672174 183.458146 
L 170.497524 176.545558 
L 171.322874 116.056405 
L 173.798924 181.949748 
L 174.624273 160.392083 
L 175.449623 209.861075 
L 176.274973 99.700353 
L 177.100323 166.390483 
L 179.576373 176.070779 
L 180.401723 152.575246 
L 181.227072 147.426507 
L 182.052422 177.468172 
L 182.877772 143.378085 
L 185.353822 121.978 
L 186.179172 134.704217 
L 187.004521 180.649111 
L 187.829871 148.402558 
L 188.655221 135.143071 
L 191.131271 197.408262 
L 191.956621 113.877132 
L 192.781971 165.669638 
L 194.43267 155.72076 
L 196.90872 96.925493 
L 197.73407 180.981104 
L 198.55942 181.050992 
L 199.384769 188.10051 
L 200.210119 130.980137 
L 202.686169 146.651575 
L 203.511519 140.305272 
L 204.336869 138.260422 
L 205.162219 166.838684 
L 205.987568 180.898804 
L 208.463618 165.911445 
L 209.288968 108.797737 
L 210.114318 142.814585 
L 210.939668 159.838411 
L 211.765018 171.905507 
L 214.241067 174.142428 
L 215.066417 154.665079 
L 215.891767 164.053867 
L 216.717117 116.235097 
L 217.542467 160.103675 
L 220.018516 164.761191 
L 220.843866 141.005619 
L 221.669216 127.083019 
L 222.494566 139.341233 
L 223.319916 115.00576 
L 226.621315 151.362558 
L 227.446665 167.251869 
L 228.272015 120.641166 
L 229.097365 139.118287 
L 231.573414 71.049836 
L 232.398764 126.459011 
L 233.224114 129.549826 
L 234.049464 161.793029 
L 234.874814 113.002192 
L 237.350863 144.213482 
L 238.176213 131.843086 
L 239.001563 102.810348 
L 239.826913 154.853541 
L 240.652263 138.600775 
L 243.128313 161.432368 
L 243.953662 174.795187 
L 244.779012 151.279532 
L 245.604362 150.848351 
L 246.429712 106.138991 
L 249.731112 162.803052 
L 250.556461 173.887015 
L 251.381811 162.560993 
L 252.207161 182.831769 
L 254.683211 140.8643 
L 255.508561 142.471599 
L 256.33391 138.861007 
L 257.15926 149.713847 
L 257.98461 166.240362 
L 260.46066 135.475705 
L 261.28601 210.021308 
L 262.11136 139.730856 
L 262.936709 181.799963 
L 263.762059 160.738988 
L 266.238109 122.446703 
L 267.063459 158.745773 
L 267.888809 105.662961 
L 268.714159 165.740157 
L 269.539508 126.488034 
L 272.015558 166.335157 
L 272.840908 190.234347 
L 273.666258 152.51993 
L 274.491608 144.830996 
L 277.793007 140.964842 
L 278.618357 178.747117 
L 279.443707 145.449455 
L 280.269057 166.984021 
L 281.094407 144.732457 
L 283.570456 98.941252 
L 284.395806 126.72162 
L 285.221156 134.193076 
L 286.046506 109.747489 
L 286.871856 127.443592 
L 289.347905 187.54066 
L 290.173255 141.88011 
L 290.998605 137.090162 
L 291.823955 104.549321 
L 292.649305 176.817024 
L 295.125354 171.900464 
L 295.950704 92.430449 
L 296.776054 103.303641 
L 297.601404 151.407716 
L 298.426754 132.802888 
L 300.902803 25.003636 
L 301.728153 141.285492 
L 302.553503 212.910995 
L 303.378853 134.441387 
L 306.680252 119.826983 
L 307.505602 62.963011 
L 308.330952 131.872971 
L 309.156302 148.91173 
L 309.981652 144.922852 
L 312.457702 130.548014 
L 313.283051 147.683049 
L 314.108401 170.360101 
L 315.759101 76.861292 
L 318.235151 188.071853 
L 319.060501 93.665111 
L 319.88585 146.474749 
L 320.7112 116.217759 
L 324.0126 107.449515 
L 324.83795 142.632405 
L 325.663299 155.907698 
L 326.488649 159.903602 
L 327.313999 140.556505 
L 329.790049 157.161386 
L 330.615399 147.774577 
L 331.440749 126.255189 
L 333.091448 144.195491 
L 335.567498 148.36532 
L 337.218198 117.837122 
L 338.043548 113.477821 
L 338.868897 151.400525 
L 341.344947 194.896979 
L 342.170297 134.934111 
L 342.995647 136.69552 
L 343.820997 132.184654 
L 344.646346 138.542748 
L 347.122396 153.615725 
L 347.947746 173.109213 
L 348.773096 133.783309 
L 349.598446 159.784487 
L 350.423796 165.15386 
L 352.899845 192.199884 
L 353.725195 61.684533 
L 354.550545 143.010773 
L 355.375895 112.051383 
L 356.201245 97.57093 
L 358.677294 145.028174 
L 359.502644 107.046341 
L 360.327994 159.781645 
L 361.153344 125.325393 
L 361.978694 162.447438 
L 366.105443 152.40309 
L 366.930793 148.236939 
L 367.756143 128.096623 
L 371.882892 137.096128 
L 372.708242 141.54455 
L 373.533592 162.035622 
L 376.009641 174.607063 
L 376.834991 154.519842 
L 377.660341 149.141767 
L 378.485691 152.464377 
L 379.311041 98.510664 
L 381.787091 140.935885 
L 382.61244 166.449643 
L 383.43779 158.873819 
L 384.26314 142.600383 
L 385.08849 141.002456 
L 388.38989 168.323124 
L 389.215239 134.770857 
L 390.040589 139.986933 
L 393.341989 153.306817 
L 394.167339 149.47589 
L 394.992688 117.757106 
L 395.818038 128.365035 
L 396.643388 140.885524 
L 399.119438 92.609206 
L 399.944788 131.486651 
L 400.770138 164.894017 
L 401.595487 156.513774 
L 402.420837 129.668897 
L 404.896887 127.202805 
L 405.722237 129.368907 
L 406.547587 143.628044 
L 407.372937 149.512428 
L 408.198286 136.810174 
L 410.674336 160.678115 
L 411.499686 151.620869 
L 412.325036 140.80929 
L 413.150386 167.892833 
L 413.975735 139.009204 
L 416.451785 160.19621 
L 417.277135 134.13491 
L 418.102485 150.831213 
L 418.927835 161.299353 
L 419.753185 151.950818 
L 424.705284 140.977551 
L 425.530634 135.913104 
L 428.006683 162.875526 
L 428.832033 141.209565 
L 429.657383 124.666242 
L 430.482733 160.991462 
L 431.308083 126.798823 
L 433.784132 116.569595 
L 434.609482 111.130551 
L 435.434832 140.377274 
L 436.260182 178.607261 
L 437.085532 188.096164 
L 439.561581 137.098996 
L 440.386931 148.231017 
L 441.212281 202.51765 
L 442.037631 134.282652 
L 445.33903 152.371777 
L 446.16438 154.451742 
L 446.98973 144.077727 
L 447.81508 138.477061 
L 448.64043 154.183689 
L 451.11648 176.221083 
L 451.941829 159.498361 
L 452.767179 131.373101 
L 453.592529 168.556461 
L 454.417879 150.272853 
L 456.893929 161.437034 
L 457.719279 145.267594 
L 458.544628 169.19232 
L 459.369978 90.601165 
L 462.671378 164.891139 
L 463.496728 124.273605 
L 464.322077 166.717313 
L 465.147427 145.003558 
L 465.972777 150.872853 
L 468.448827 146.123104 
L 469.274177 152.315248 
L 470.924876 152.375103 
L 471.750226 113.697559 
L 474.226276 156.780436 
L 475.051626 140.566323 
L 475.876976 118.024806 
L 476.702326 137.674663 
L 477.527675 128.922656 
L 480.003725 191.565434 
L 480.829075 164.143313 
L 481.654425 157.076292 
L 482.479775 194.118213 
L 483.305124 160.934053 
L 485.781174 135.070562 
L 486.606524 101.102729 
L 487.431874 109.835969 
L 488.257224 143.649103 
L 489.082574 112.714347 
L 491.558623 129.457313 
L 492.383973 120.990214 
L 493.209323 146.123104 
L 494.034673 131.460298 
L 494.860023 148.751759 
L 497.336072 138.205033 
L 498.161422 127.159694 
L 498.986772 142.438369 
L 499.812122 123.681827 
L 500.637472 129.966718 
L 503.113521 126.905177 
L 503.938871 144.445458 
L 504.764221 151.979709 
L 505.589571 143.168088 
L 506.414921 156.418705 
L 508.89097 131.604414 
L 509.71632 126.284561 
L 510.54167 128.495416 
L 512.19237 158.352356 
L 514.66842 151.551308 
L 515.493769 156.868565 
L 516.319119 145.092249 
L 517.144469 142.829689 
L 517.969819 125.848272 
L 520.445869 159.824921 
L 521.271218 137.39963 
L 522.096568 84.069218 
L 522.921918 98.813032 
L 523.747268 105.779931 
L 526.223318 137.950981 
L 527.874017 148.971441 
L 528.699367 151.844953 
L 529.524717 166.328099 
L 532.000767 161.847851 
L 532.826117 115.926448 
L 533.651466 172.704829 
L 534.476816 132.601185 
L 535.302166 156.05703 
L 537.778216 139.397235 
L 538.603566 150.782826 
L 539.428916 140.591493 
L 540.254265 157.757359 
L 541.079615 104.996542 
L 543.555665 141.030779 
L 544.381015 145.80731 
L 545.206365 146.912174 
L 546.031715 101.5646 
L 546.857064 165.932782 
L 549.333114 172.048114 
L 550.158464 143.104749 
L 550.983814 168.893038 
L 551.809164 138.092504 
L 552.634513 136.895887 
L 555.110563 192.728125 
L 555.935913 138.211676 
L 556.761263 175.007993 
L 557.586613 158.394579 
L 558.411963 159.356773 
L 560.888012 147.603599 
L 561.713362 136.848571 
L 562.538712 147.951854 
L 563.364062 180.966935 
L 564.189412 146.123104 
L 566.665461 165.699076 
L 567.490811 137.528906 
L 568.316161 155.985421 
L 569.141511 117.280249 
L 569.966861 156.861298 
L 572.44291 157.042498 
L 573.26826 167.543185 
L 574.91896 105.460683 
L 575.74431 145.171322 
L 578.220359 171.971998 
L 579.045709 146.123104 
L 579.871059 113.853945 
L 580.696409 119.346131 
L 581.521759 164.231145 
L 583.997809 196.421785 
L 584.823158 110.169691 
L 585.648508 149.758943 
L 586.473858 137.07848 
L 587.299208 163.203937 
L 589.775258 158.40364 
L 590.600607 149.699698 
L 591.425957 124.14478 
L 592.251307 132.016408 
L 593.076657 188.297163 
L 595.552707 140.054096 
L 596.378057 156.144195 
L 597.203406 162.408937 
L 598.028756 110.622566 
L 598.854106 138.996166 
L 601.330156 159.242709 
L 602.155506 151.919205 
L 602.980856 125.956048 
L 603.806205 146.123104 
L 604.631555 115.808486 
L 607.107605 128.374407 
L 607.932955 143.395425 
L 608.758305 144.312328 
L 609.583654 143.414447 
L 610.409004 156.193212 
L 612.885054 150.872347 
L 613.710404 107.296066 
L 614.535754 151.678368 
L 615.361104 145.597811 
L 616.186453 155.221179 
L 618.662503 128.0225 
L 619.487853 133.003254 
L 620.313203 136.140251 
L 621.138553 183.615141 
L 621.963902 149.66055 
L 624.439952 160.17302 
L 625.265302 162.120848 
L 626.090652 141.090332 
L 626.916002 135.58035 
L 627.741352 175.242558 
L 630.217401 141.930638 
L 631.042751 171.305638 
L 631.868101 142.971008 
L 632.693451 123.1851 
L 635.99485 142.146854 
L 636.8202 149.886854 
L 638.4709 151.423197 
L 639.29625 130.282536 
L 641.772299 147.985989 
L 642.597649 170.971394 
L 643.422999 149.620266 
L 644.248349 120.728695 
L 645.073699 153.265844 
L 647.549748 154.295918 
L 648.375098 120.136238 
L 649.200448 155.931604 
L 650.025798 148.002283 
L 650.851148 113.89627 
L 653.327198 134.813161 
L 654.152547 175.94163 
L 654.977897 140.574297 
L 655.803247 138.787524 
L 656.628597 137.419079 
L 659.104647 143.439153 
L 659.929996 163.942054 
L 660.755346 149.421305 
L 661.580696 122.365048 
L 662.406046 155.89393 
L 664.882096 135.841789 
L 667.358145 142.749532 
L 668.183495 141.354054 
L 670.659545 148.227189 
L 673.135594 139.614315 
L 673.960944 168.2417 
L 676.436994 175.876559 
L 677.262344 142.342871 
L 678.087694 120.566839 
L 678.913043 130.937833 
L 679.738393 135.701714 
L 682.214443 132.911655 
L 683.039793 146.293434 
L 683.865143 163.504257 
L 684.690493 151.901595 
L 685.515842 123.331123 
L 687.991892 148.341871 
L 688.817242 165.304197 
L 689.642592 137.298643 
L 690.467942 113.563472 
L 691.293292 166.513772 
L 693.769341 189.257788 
L 694.594691 129.801512 
L 695.420041 168.482958 
L 696.245391 144.270278 
L 697.070741 160.718336 
L 699.54679 144.233024 
L 700.37214 130.857762 
L 701.19749 127.158868 
L 702.02284 153.993748 
L 702.84819 169.482494 
L 705.324239 151.758863 
L 706.149589 107.463267 
L 706.974939 144.334837 
L 707.800289 162.173373 
L 708.625639 135.150887 
L 711.101688 139.110022 
L 711.927038 155.373689 
L 712.752388 137.46033 
L 713.577738 173.727269 
L 714.403088 164.353419 
L 719.355187 288.152366 
L 720.180537 165.74013 
L 722.656587 133.226424 
L 723.481936 170.668822 
L 724.307286 154.112087 
L 725.132636 254.669168 
L 725.957986 133.583407 
L 728.434036 258.988682 
L 729.259385 111.110383 
L 730.910085 381.076364 
L 730.910085 381.076364 
" style="fill:none;stroke:#1f77b4;stroke-linecap:square;stroke-width:1.5;"/>
   </g>
   <g id="line2d_18">
    <path clip-path="url(#pe514c37f4a)" d="M 71.45554 148.269061 
L 72.28089 142.056154 
L 73.10624 146.836291 
L 75.582289 153.025152 
L 76.407639 148.769342 
L 77.232989 154.577428 
L 78.058339 143.675646 
L 78.883689 149.78051 
L 81.359738 131.900749 
L 82.185088 142.044095 
L 83.010438 122.279182 
L 83.835788 129.565315 
L 84.661138 151.728945 
L 87.137187 137.527815 
L 87.962537 149.025055 
L 88.787887 131.996405 
L 89.613237 146.123104 
L 90.438587 134.931409 
L 93.739986 142.061084 
L 94.565336 133.800485 
L 95.390686 128.401418 
L 96.216036 160.328527 
L 98.692085 155.460079 
L 99.517435 132.439027 
L 100.342785 152.30808 
L 101.168135 164.857058 
L 101.993485 164.557942 
L 106.945584 136.856155 
L 107.770934 153.736582 
L 110.246984 146.343226 
L 111.072333 124.103972 
L 111.897683 127.809547 
L 112.723033 120.651039 
L 113.548383 137.953867 
L 116.024433 129.201231 
L 116.849783 147.848896 
L 117.675132 146.892116 
L 118.500482 151.897955 
L 119.325832 154.474921 
L 122.627232 135.977571 
L 123.452582 151.88596 
L 124.277931 115.111759 
L 125.103281 118.378998 
L 127.579331 134.240045 
L 128.404681 145.948904 
L 129.230031 149.257194 
L 130.05538 149.27244 
L 130.88073 153.331646 
L 133.35678 146.656476 
L 134.18213 140.78478 
L 135.00748 131.827453 
L 135.83283 145.08709 
L 136.658179 152.674328 
L 139.134229 131.841707 
L 139.959579 145.782355 
L 140.784929 151.402788 
L 141.610279 137.537395 
L 144.911678 160.358302 
L 145.737028 135.033394 
L 146.562378 168.269702 
L 147.387728 138.185404 
L 148.213078 119.287672 
L 150.689127 146.123104 
L 151.514477 168.042031 
L 152.339827 163.095146 
L 153.165177 131.895372 
L 153.990527 155.69431 
L 156.466576 159.547302 
L 157.291926 130.430581 
L 158.942626 153.29464 
L 159.767976 142.585591 
L 162.244025 143.308487 
L 163.069375 165.565008 
L 163.894725 175.195672 
L 164.720075 144.043437 
L 165.545425 126.146244 
L 168.021474 128.023981 
L 170.497524 177.661736 
L 171.322874 151.872312 
L 173.798924 155.404278 
L 174.624273 144.357567 
L 175.449623 187.011217 
L 176.274973 125.240444 
L 177.100323 175.254426 
L 179.576373 170.272084 
L 180.401723 179.569442 
L 181.227072 160.044887 
L 182.052422 187.857789 
L 182.877772 130.661465 
L 185.353822 115.178435 
L 186.179172 116.590144 
L 187.004521 168.944614 
L 187.829871 151.744191 
L 188.655221 130.765974 
L 191.131271 170.355907 
L 191.956621 144.204995 
L 192.781971 159.749264 
L 194.43267 146.367305 
L 196.90872 133.908718 
L 197.73407 184.485334 
L 198.55942 171.10007 
L 199.384769 170.246763 
L 200.210119 154.659132 
L 202.686169 115.429237 
L 203.511519 159.17691 
L 204.336869 145.307425 
L 205.162219 145.851553 
L 205.987568 173.809058 
L 208.463618 155.196945 
L 209.288968 129.155359 
L 210.114318 138.836767 
L 210.939668 179.378046 
L 211.765018 145.830966 
L 214.241067 154.883061 
L 215.066417 142.275067 
L 215.891767 163.778456 
L 216.717117 143.098034 
L 217.542467 151.241786 
L 220.018516 164.940042 
L 220.843866 145.497921 
L 221.669216 137.691451 
L 222.494566 163.694362 
L 223.319916 134.399001 
L 226.621315 149.546615 
L 227.446665 139.552513 
L 228.272015 120.414453 
L 229.097365 142.548137 
L 231.573414 118.27317 
L 232.398764 120.842184 
L 233.224114 139.83539 
L 234.049464 150.184339 
L 234.874814 134.679826 
L 237.350863 133.807714 
L 238.176213 143.233077 
L 239.001563 119.705478 
L 239.826913 153.410981 
L 240.652263 150.698063 
L 243.128313 170.952775 
L 243.953662 151.180638 
L 244.779012 152.561846 
L 245.604362 149.916756 
L 246.429712 123.772071 
L 248.905762 152.183058 
L 249.731112 143.729402 
L 250.556461 173.946736 
L 251.381811 128.402281 
L 252.207161 170.918005 
L 254.683211 138.836767 
L 255.508561 125.061648 
L 256.33391 141.023686 
L 257.15926 131.210563 
L 257.98461 158.617471 
L 260.46066 142.141745 
L 261.28601 168.018459 
L 262.11136 180.525283 
L 262.936709 157.657446 
L 263.762059 147.591024 
L 266.238109 131.410321 
L 267.063459 141.807365 
L 267.888809 146.123104 
L 268.714159 155.840691 
L 269.539508 126.101568 
L 272.015558 136.553394 
L 272.840908 175.246073 
L 273.666258 143.509309 
L 274.491608 136.866758 
L 277.793007 137.567675 
L 278.618357 174.269299 
L 279.443707 149.065672 
L 280.269057 143.758312 
L 281.094407 127.862627 
L 283.570456 120.629644 
L 284.395806 145.020716 
L 286.046506 129.56586 
L 286.871856 123.891518 
L 289.347905 187.318866 
L 290.173255 144.483535 
L 290.998605 145.032785 
L 291.823955 125.986574 
L 292.649305 158.790651 
L 295.125354 176.539698 
L 295.950704 121.268024 
L 296.776054 127.08301 
L 297.601404 138.196237 
L 298.426754 141.163458 
L 300.902803 67.113248 
L 301.728153 136.657394 
L 302.553503 189.811539 
L 303.378853 150.515318 
L 306.680252 135.558927 
L 307.505602 122.916705 
L 308.330952 142.389222 
L 309.156302 135.913791 
L 309.981652 153.88963 
L 312.457702 134.56306 
L 313.283051 141.807342 
L 314.108401 168.461504 
L 315.759101 114.9865 
L 318.235151 156.543006 
L 319.060501 95.875348 
L 319.88585 153.859649 
L 320.7112 123.902441 
L 324.0126 127.504275 
L 324.83795 164.02252 
L 325.663299 150.213839 
L 326.488649 166.706966 
L 327.313999 116.571925 
L 329.790049 124.774797 
L 330.615399 146.910428 
L 333.091448 114.298343 
L 335.567498 157.405719 
L 337.218198 136.334538 
L 338.043548 132.029882 
L 338.868897 140.134015 
L 341.344947 198.091914 
L 342.170297 132.241293 
L 342.995647 133.681159 
L 343.820997 149.31582 
L 344.646346 137.8187 
L 347.122396 176.311041 
L 347.947746 165.278145 
L 348.773096 123.966906 
L 349.598446 158.976868 
L 350.423796 170.563151 
L 352.899845 156.241364 
L 353.725195 103.958572 
L 354.550545 130.761242 
L 355.375895 141.313576 
L 356.201245 156.626093 
L 358.677294 175.239821 
L 359.502644 122.748957 
L 360.327994 158.481863 
L 361.153344 123.524392 
L 361.978694 117.136725 
L 366.105443 148.157683 
L 366.930793 145.752008 
L 367.756143 125.910409 
L 371.882892 140.188915 
L 372.708242 145.410398 
L 373.533592 148.259008 
L 376.009641 163.088479 
L 376.834991 156.759619 
L 377.660341 138.105649 
L 378.485691 132.126109 
L 379.311041 122.867794 
L 381.787091 141.424498 
L 382.61244 154.243231 
L 383.43779 146.123104 
L 384.26314 145.248303 
L 385.08849 158.179224 
L 387.56454 149.327874 
L 388.38989 158.290232 
L 389.215239 137.005323 
L 390.040589 145.044142 
L 393.341989 164.075474 
L 394.167339 150.923892 
L 394.992688 124.73035 
L 395.818038 125.234638 
L 396.643388 144.553104 
L 399.119438 131.50524 
L 399.944788 136.76325 
L 400.770138 167.763378 
L 401.595487 165.561316 
L 402.420837 131.450992 
L 404.896887 142.623834 
L 405.722237 127.676797 
L 406.547587 143.754238 
L 407.372937 142.751476 
L 408.198286 147.800184 
L 410.674336 139.733535 
L 411.499686 149.786184 
L 412.325036 154.663036 
L 413.150386 157.322557 
L 413.975735 139.04339 
L 416.451785 140.998876 
L 417.277135 141.039119 
L 418.102485 156.211844 
L 418.927835 150.393305 
L 419.753185 161.59793 
L 424.705284 152.288434 
L 425.530634 134.385216 
L 428.006683 104.3747 
L 428.832033 133.651764 
L 429.657383 141.454223 
L 430.482733 133.655402 
L 431.308083 142.672994 
L 433.784132 134.891736 
L 434.609482 148.423089 
L 435.434832 159.972099 
L 436.260182 149.582372 
L 437.085532 169.836015 
L 439.561581 153.179278 
L 440.386931 133.680207 
L 441.212281 179.980663 
L 442.862981 128.396661 
L 445.33903 134.78964 
L 446.16438 148.45054 
L 446.98973 143.453571 
L 447.81508 148.947807 
L 448.64043 168.486234 
L 451.11648 170.323596 
L 451.941829 151.510296 
L 452.767179 140.690706 
L 453.592529 168.928948 
L 454.417879 165.294541 
L 456.893929 166.263255 
L 457.719279 136.620545 
L 458.544628 174.998817 
L 459.369978 106.709548 
L 462.671378 139.38579 
L 463.496728 142.503387 
L 464.322077 159.195368 
L 465.147427 150.570329 
L 465.972777 139.114055 
L 468.448827 145.160069 
L 469.274177 139.584086 
L 470.924876 134.69909 
L 471.750226 118.432391 
L 474.226276 165.500948 
L 475.876976 114.562325 
L 476.702326 128.626821 
L 477.527675 144.589875 
L 480.003725 171.446579 
L 480.829075 171.769925 
L 481.654425 155.700025 
L 482.479775 170.985745 
L 483.305124 158.564894 
L 485.781174 131.257156 
L 486.606524 110.664424 
L 487.431874 138.040284 
L 488.257224 152.836205 
L 489.082574 143.556399 
L 491.558623 127.861822 
L 492.383973 114.154601 
L 493.209323 147.815529 
L 494.034673 126.608941 
L 494.860023 147.770312 
L 497.336072 138.031109 
L 498.161422 141.066837 
L 498.986772 136.089003 
L 499.812122 113.13344 
L 500.637472 131.413748 
L 503.113521 139.599087 
L 503.938871 151.407649 
L 504.764221 147.899173 
L 505.589571 136.773286 
L 506.414921 152.852735 
L 508.89097 131.487629 
L 509.71632 139.328527 
L 510.54167 143.977129 
L 512.19237 162.378507 
L 514.66842 156.215269 
L 515.493769 160.535369 
L 516.319119 149.314314 
L 517.144469 144.901349 
L 517.969819 133.623999 
L 520.445869 164.068021 
L 522.096568 120.936849 
L 522.921918 106.599634 
L 523.747268 122.58264 
L 526.223318 142.381913 
L 527.874017 129.384378 
L 528.699367 152.857026 
L 529.524717 151.095783 
L 532.000767 142.562539 
L 532.826117 137.729434 
L 533.651466 150.784122 
L 534.476816 143.384475 
L 535.302166 148.071006 
L 537.778216 143.518014 
L 538.603566 157.40982 
L 539.428916 140.577652 
L 540.254265 127.271718 
L 541.079615 133.402285 
L 543.555665 133.27318 
L 544.381015 145.022146 
L 545.206365 161.14396 
L 546.031715 116.74297 
L 546.857064 152.461619 
L 549.333114 169.674501 
L 550.158464 129.578705 
L 550.983814 144.289937 
L 551.809164 128.695985 
L 552.634513 135.205143 
L 555.110563 159.777609 
L 555.935913 155.064575 
L 556.761263 177.312533 
L 557.586613 151.330452 
L 558.411963 147.275452 
L 560.888012 154.33217 
L 561.713362 148.071837 
L 562.538712 130.877273 
L 563.364062 170.438979 
L 564.189412 167.816486 
L 566.665461 163.915297 
L 567.490811 146.404573 
L 568.316161 138.238722 
L 569.141511 118.164414 
L 569.966861 165.457318 
L 572.44291 145.573315 
L 573.26826 162.32777 
L 574.09361 129.924935 
L 574.91896 117.128513 
L 575.74431 144.413325 
L 578.220359 158.716162 
L 579.045709 149.333801 
L 580.696409 111.258069 
L 581.521759 154.95359 
L 583.997809 200.847553 
L 584.823158 126.151273 
L 586.473858 145.070508 
L 587.299208 153.348122 
L 589.775258 154.093892 
L 590.600607 157.555881 
L 591.425957 129.418725 
L 592.251307 127.836797 
L 593.076657 149.368354 
L 595.552707 144.948926 
L 596.378057 156.150652 
L 597.203406 159.747595 
L 598.028756 119.369245 
L 598.854106 132.368742 
L 601.330156 150.697214 
L 602.155506 151.113635 
L 602.980856 155.150081 
L 603.806205 143.769055 
L 604.631555 136.741024 
L 607.107605 136.104415 
L 607.932955 145.743657 
L 608.758305 144.985383 
L 609.583654 146.627882 
L 610.409004 149.532892 
L 612.885054 141.552631 
L 613.710404 125.447806 
L 614.535754 156.385126 
L 615.361104 136.813002 
L 616.186453 150.528603 
L 618.662503 138.483895 
L 619.487853 141.98271 
L 620.313203 144.429079 
L 621.138553 159.639981 
L 621.963902 133.427321 
L 624.439952 146.727542 
L 625.265302 147.696147 
L 626.090652 166.015817 
L 626.916002 136.612243 
L 627.741352 165.486056 
L 630.217401 152.098334 
L 631.042751 171.016756 
L 631.868101 151.19414 
L 632.693451 119.626068 
L 635.99485 135.785939 
L 636.8202 151.337613 
L 638.4709 124.198184 
L 639.29625 115.491234 
L 641.772299 155.951339 
L 642.597649 175.461209 
L 643.422999 151.286888 
L 644.248349 123.778393 
L 645.073699 141.827827 
L 647.549748 148.073724 
L 648.375098 139.275279 
L 649.200448 147.212127 
L 650.025798 146.123104 
L 650.851148 130.487489 
L 653.327198 146.004776 
L 654.152547 159.257316 
L 654.977897 133.562328 
L 655.803247 141.028557 
L 656.628597 125.081168 
L 659.104647 141.455174 
L 659.929996 150.644598 
L 660.755346 137.699518 
L 661.580696 144.999423 
L 662.406046 154.087526 
L 664.882096 139.30878 
L 667.358145 152.079724 
L 668.183495 137.842496 
L 670.659545 140.747089 
L 673.135594 140.347044 
L 673.960944 168.582629 
L 676.436994 166.196341 
L 677.262344 124.701295 
L 678.087694 144.9838 
L 678.913043 142.028746 
L 679.738393 143.636712 
L 682.214443 137.116331 
L 683.039793 136.240562 
L 683.865143 144.920025 
L 684.690493 144.594768 
L 685.515842 125.321249 
L 687.991892 141.691262 
L 688.817242 164.149075 
L 689.642592 150.974288 
L 690.467942 128.744221 
L 691.293292 164.528525 
L 693.769341 167.680074 
L 694.594691 90.599492 
L 695.420041 172.469864 
L 696.245391 147.853151 
L 697.070741 151.001912 
L 699.54679 136.619102 
L 701.19749 141.118809 
L 702.02284 169.367725 
L 702.84819 176.589786 
L 706.149589 128.805412 
L 706.974939 131.475894 
L 707.800289 153.284672 
L 708.625639 143.489747 
L 711.101688 152.024122 
L 711.927038 153.622366 
L 712.752388 145.453634 
L 713.577738 164.848468 
L 714.403088 154.731647 
L 719.355187 268.499624 
L 720.180537 156.02077 
L 722.656587 135.19777 
L 723.481936 163.170249 
L 724.307286 135.088517 
L 725.132636 240.153407 
L 725.957986 138.84556 
L 728.434036 256.248394 
L 729.259385 63.841478 
L 730.084735 252.227571 
L 730.910085 359.057223 
L 730.910085 359.057223 
" style="fill:none;stroke:#ff7f0e;stroke-linecap:square;stroke-width:1.5;"/>
   </g>
   <g id="patch_3">
    <path d="M 38.482813 398.88 
L 38.482813 7.2 
" style="fill:none;stroke:#000000;stroke-linecap:square;stroke-linejoin:miter;stroke-width:0.8;"/>
   </g>
   <g id="patch_4">
    <path d="M 763.882812 398.88 
L 763.882812 7.2 
" style="fill:none;stroke:#000000;stroke-linecap:square;stroke-linejoin:miter;stroke-width:0.8;"/>
   </g>
   <g id="patch_5">
    <path d="M 38.482812 398.88 
L 763.882812 398.88 
" style="fill:none;stroke:#000000;stroke-linecap:square;stroke-linejoin:miter;stroke-width:0.8;"/>
   </g>
   <g id="patch_6">
    <path d="M 38.482812 7.2 
L 763.882812 7.2 
" style="fill:none;stroke:#000000;stroke-linecap:square;stroke-linejoin:miter;stroke-width:0.8;"/>
   </g>
   <g id="legend_1">
    <g id="patch_7">
     <path d="M 675.3875 44.55625 
L 756.882812 44.55625 
Q 758.882812 44.55625 758.882812 42.55625 
L 758.882812 14.2 
Q 758.882812 12.2 756.882812 12.2 
L 675.3875 12.2 
Q 673.3875 12.2 673.3875 14.2 
L 673.3875 42.55625 
Q 673.3875 44.55625 675.3875 44.55625 
z
" style="fill:#ffffff;opacity:0.8;stroke:#cccccc;stroke-linejoin:miter;"/>
    </g>
    <g id="line2d_19">
     <path d="M 677.3875 20.298437 
L 697.3875 20.298437 
" style="fill:none;stroke:#1f77b4;stroke-linecap:square;stroke-width:1.5;"/>
    </g>
    <g id="line2d_20"/>
    <g id="text_18">
     <!-- GOLL4.SA -->
     <defs>
      <path d="M 59.515625 10.40625 
L 59.515625 29.984375 
L 43.40625 29.984375 
L 43.40625 38.09375 
L 69.28125 38.09375 
L 69.28125 6.78125 
Q 63.578125 2.734375 56.6875 0.65625 
Q 49.8125 -1.421875 42 -1.421875 
Q 24.90625 -1.421875 15.25 8.5625 
Q 5.609375 18.5625 5.609375 36.375 
Q 5.609375 54.25 15.25 64.234375 
Q 24.90625 74.21875 42 74.21875 
Q 49.125 74.21875 55.546875 72.453125 
Q 61.96875 70.703125 67.390625 67.28125 
L 67.390625 56.78125 
Q 61.921875 61.421875 55.765625 63.765625 
Q 49.609375 66.109375 42.828125 66.109375 
Q 29.4375 66.109375 22.71875 58.640625 
Q 16.015625 51.171875 16.015625 36.375 
Q 16.015625 21.625 22.71875 14.15625 
Q 29.4375 6.6875 42.828125 6.6875 
Q 48.046875 6.6875 52.140625 7.59375 
Q 56.25 8.5 59.515625 10.40625 
z
" id="DejaVuSans-71"/>
      <path d="M 39.40625 66.21875 
Q 28.65625 66.21875 22.328125 58.203125 
Q 16.015625 50.203125 16.015625 36.375 
Q 16.015625 22.609375 22.328125 14.59375 
Q 28.65625 6.59375 39.40625 6.59375 
Q 50.140625 6.59375 56.421875 14.59375 
Q 62.703125 22.609375 62.703125 36.375 
Q 62.703125 50.203125 56.421875 58.203125 
Q 50.140625 66.21875 39.40625 66.21875 
z
M 39.40625 74.21875 
Q 54.734375 74.21875 63.90625 63.9375 
Q 73.09375 53.65625 73.09375 36.375 
Q 73.09375 19.140625 63.90625 8.859375 
Q 54.734375 -1.421875 39.40625 -1.421875 
Q 24.03125 -1.421875 14.8125 8.828125 
Q 5.609375 19.09375 5.609375 36.375 
Q 5.609375 53.65625 14.8125 63.9375 
Q 24.03125 74.21875 39.40625 74.21875 
z
" id="DejaVuSans-79"/>
      <path d="M 9.8125 72.90625 
L 19.671875 72.90625 
L 19.671875 8.296875 
L 55.171875 8.296875 
L 55.171875 0 
L 9.8125 0 
z
" id="DejaVuSans-76"/>
      <path d="M 53.515625 70.515625 
L 53.515625 60.890625 
Q 47.90625 63.578125 42.921875 64.890625 
Q 37.9375 66.21875 33.296875 66.21875 
Q 25.25 66.21875 20.875 63.09375 
Q 16.5 59.96875 16.5 54.203125 
Q 16.5 49.359375 19.40625 46.890625 
Q 22.3125 44.4375 30.421875 42.921875 
L 36.375 41.703125 
Q 47.40625 39.59375 52.65625 34.296875 
Q 57.90625 29 57.90625 20.125 
Q 57.90625 9.515625 50.796875 4.046875 
Q 43.703125 -1.421875 29.984375 -1.421875 
Q 24.8125 -1.421875 18.96875 -0.25 
Q 13.140625 0.921875 6.890625 3.21875 
L 6.890625 13.375 
Q 12.890625 10.015625 18.65625 8.296875 
Q 24.421875 6.59375 29.984375 6.59375 
Q 38.421875 6.59375 43.015625 9.90625 
Q 47.609375 13.234375 47.609375 19.390625 
Q 47.609375 24.75 44.3125 27.78125 
Q 41.015625 30.8125 33.5 32.328125 
L 27.484375 33.5 
Q 16.453125 35.6875 11.515625 40.375 
Q 6.59375 45.0625 6.59375 53.421875 
Q 6.59375 63.09375 13.40625 68.65625 
Q 20.21875 74.21875 32.171875 74.21875 
Q 37.3125 74.21875 42.625 73.28125 
Q 47.953125 72.359375 53.515625 70.515625 
z
" id="DejaVuSans-83"/>
      <path d="M 34.1875 63.1875 
L 20.796875 26.90625 
L 47.609375 26.90625 
z
M 28.609375 72.90625 
L 39.796875 72.90625 
L 67.578125 0 
L 57.328125 0 
L 50.6875 18.703125 
L 17.828125 18.703125 
L 11.1875 0 
L 0.78125 0 
z
" id="DejaVuSans-65"/>
     </defs>
     <g transform="translate(705.3875 23.798437)scale(0.1 -0.1)">
      <use xlink:href="#DejaVuSans-71"/>
      <use x="77.490234" xlink:href="#DejaVuSans-79"/>
      <use x="156.201172" xlink:href="#DejaVuSans-76"/>
      <use x="211.914062" xlink:href="#DejaVuSans-76"/>
      <use x="267.626953" xlink:href="#DejaVuSans-52"/>
      <use x="331.25" xlink:href="#DejaVuSans-46"/>
      <use x="363.037109" xlink:href="#DejaVuSans-83"/>
      <use x="426.529297" xlink:href="#DejaVuSans-65"/>
     </g>
    </g>
    <g id="line2d_21">
     <path d="M 677.3875 34.976562 
L 697.3875 34.976562 
" style="fill:none;stroke:#ff7f0e;stroke-linecap:square;stroke-width:1.5;"/>
    </g>
    <g id="line2d_22"/>
    <g id="text_19">
     <!-- AZUL4.SA -->
     <defs>
      <path d="M 5.609375 72.90625 
L 62.890625 72.90625 
L 62.890625 65.375 
L 16.796875 8.296875 
L 64.015625 8.296875 
L 64.015625 0 
L 4.5 0 
L 4.5 7.515625 
L 50.59375 64.59375 
L 5.609375 64.59375 
z
" id="DejaVuSans-90"/>
      <path d="M 8.6875 72.90625 
L 18.609375 72.90625 
L 18.609375 28.609375 
Q 18.609375 16.890625 22.84375 11.734375 
Q 27.09375 6.59375 36.625 6.59375 
Q 46.09375 6.59375 50.34375 11.734375 
Q 54.59375 16.890625 54.59375 28.609375 
L 54.59375 72.90625 
L 64.5 72.90625 
L 64.5 27.390625 
Q 64.5 13.140625 57.4375 5.859375 
Q 50.390625 -1.421875 36.625 -1.421875 
Q 22.796875 -1.421875 15.734375 5.859375 
Q 8.6875 13.140625 8.6875 27.390625 
z
" id="DejaVuSans-85"/>
     </defs>
     <g transform="translate(705.3875 38.476562)scale(0.1 -0.1)">
      <use xlink:href="#DejaVuSans-65"/>
      <use x="68.408203" xlink:href="#DejaVuSans-90"/>
      <use x="136.914062" xlink:href="#DejaVuSans-85"/>
      <use x="210.107422" xlink:href="#DejaVuSans-76"/>
      <use x="265.820312" xlink:href="#DejaVuSans-52"/>
      <use x="329.443359" xlink:href="#DejaVuSans-46"/>
      <use x="361.230469" xlink:href="#DejaVuSans-83"/>
      <use x="424.722656" xlink:href="#DejaVuSans-65"/>
     </g>
    </g>
   </g>
  </g>
 </g>
 <defs>
  <clipPath id="pe514c37f4a">
   <rect height="391.68" width="725.4" x="38.482813" y="7.2"/>
  </clipPath>
 </defs>
</svg>
