<?xml version="1.0" encoding="utf-8" standalone="no"?>
<!DOCTYPE svg PUBLIC "-//W3C//DTD SVG 1.1//EN"
  "http://www.w3.org/Graphics/SVG/1.1/DTD/svg11.dtd">
<!-- Created with matplotlib (https://matplotlib.org/) -->
<svg height="456.031033pt" version="1.1" viewBox="0 0 703.725 456.031033" width="703.725pt" xmlns="http://www.w3.org/2000/svg" xmlns:xlink="http://www.w3.org/1999/xlink">
 <defs>
  <style type="text/css">
*{stroke-linecap:butt;stroke-linejoin:round;}
  </style>
 </defs>
 <g id="figure_1">
  <g id="patch_1">
   <path d="M 0 456.031033 
L 703.725 456.031033 
L 703.725 0 
L 0 0 
z
" style="fill:none;"/>
  </g>
  <g id="axes_1">
   <g id="patch_2">
    <path d="M 26.925 398.88 
L 696.525 398.88 
L 696.525 7.2 
L 26.925 7.2 
z
" style="fill:#ffffff;"/>
   </g>
   <g id="matplotlib.axis_1">
    <g id="xtick_1">
     <g id="line2d_1">
      <defs>
       <path d="M 0 0 
L 0 3.5 
" id="m66fcfbd36c" style="stroke:#000000;stroke-width:0.8;"/>
      </defs>
      <g>
       <use style="stroke:#000000;stroke-width:0.8;" x="56.600455" xlink:href="#m66fcfbd36c" y="398.88"/>
      </g>
     </g>
     <g id="text_1">
      <!-- 2018-01 -->
      <defs>
       <path d="M 19.1875 8.296875 
L 53.609375 8.296875 
L 53.609375 0 
L 7.328125 0 
L 7.328125 8.296875 
Q 12.9375 14.109375 22.625 23.890625 
Q 32.328125 33.6875 34.8125 36.53125 
Q 39.546875 41.84375 41.421875 45.53125 
Q 43.3125 49.21875 43.3125 52.78125 
Q 43.3125 58.59375 39.234375 62.25 
Q 35.15625 65.921875 28.609375 65.921875 
Q 23.96875 65.921875 18.8125 64.3125 
Q 13.671875 62.703125 7.8125 59.421875 
L 7.8125 69.390625 
Q 13.765625 71.78125 18.9375 73 
Q 24.125 74.21875 28.421875 74.21875 
Q 39.75 74.21875 46.484375 68.546875 
Q 53.21875 62.890625 53.21875 53.421875 
Q 53.21875 48.921875 51.53125 44.890625 
Q 49.859375 40.875 45.40625 35.40625 
Q 44.1875 33.984375 37.640625 27.21875 
Q 31.109375 20.453125 19.1875 8.296875 
z
" id="DejaVuSans-50"/>
       <path d="M 31.78125 66.40625 
Q 24.171875 66.40625 20.328125 58.90625 
Q 16.5 51.421875 16.5 36.375 
Q 16.5 21.390625 20.328125 13.890625 
Q 24.171875 6.390625 31.78125 6.390625 
Q 39.453125 6.390625 43.28125 13.890625 
Q 47.125 21.390625 47.125 36.375 
Q 47.125 51.421875 43.28125 58.90625 
Q 39.453125 66.40625 31.78125 66.40625 
z
M 31.78125 74.21875 
Q 44.046875 74.21875 50.515625 64.515625 
Q 56.984375 54.828125 56.984375 36.375 
Q 56.984375 17.96875 50.515625 8.265625 
Q 44.046875 -1.421875 31.78125 -1.421875 
Q 19.53125 -1.421875 13.0625 8.265625 
Q 6.59375 17.96875 6.59375 36.375 
Q 6.59375 54.828125 13.0625 64.515625 
Q 19.53125 74.21875 31.78125 74.21875 
z
" id="DejaVuSans-48"/>
       <path d="M 12.40625 8.296875 
L 28.515625 8.296875 
L 28.515625 63.921875 
L 10.984375 60.40625 
L 10.984375 69.390625 
L 28.421875 72.90625 
L 38.28125 72.90625 
L 38.28125 8.296875 
L 54.390625 8.296875 
L 54.390625 0 
L 12.40625 0 
z
" id="DejaVuSans-49"/>
       <path d="M 31.78125 34.625 
Q 24.75 34.625 20.71875 30.859375 
Q 16.703125 27.09375 16.703125 20.515625 
Q 16.703125 13.921875 20.71875 10.15625 
Q 24.75 6.390625 31.78125 6.390625 
Q 38.8125 6.390625 42.859375 10.171875 
Q 46.921875 13.96875 46.921875 20.515625 
Q 46.921875 27.09375 42.890625 30.859375 
Q 38.875 34.625 31.78125 34.625 
z
M 21.921875 38.8125 
Q 15.578125 40.375 12.03125 44.71875 
Q 8.5 49.078125 8.5 55.328125 
Q 8.5 64.0625 14.71875 69.140625 
Q 20.953125 74.21875 31.78125 74.21875 
Q 42.671875 74.21875 48.875 69.140625 
Q 55.078125 64.0625 55.078125 55.328125 
Q 55.078125 49.078125 51.53125 44.71875 
Q 48 40.375 41.703125 38.8125 
Q 48.828125 37.15625 52.796875 32.3125 
Q 56.78125 27.484375 56.78125 20.515625 
Q 56.78125 9.90625 50.3125 4.234375 
Q 43.84375 -1.421875 31.78125 -1.421875 
Q 19.734375 -1.421875 13.25 4.234375 
Q 6.78125 9.90625 6.78125 20.515625 
Q 6.78125 27.484375 10.78125 32.3125 
Q 14.796875 37.15625 21.921875 38.8125 
z
M 18.3125 54.390625 
Q 18.3125 48.734375 21.84375 45.5625 
Q 25.390625 42.390625 31.78125 42.390625 
Q 38.140625 42.390625 41.71875 45.5625 
Q 45.3125 48.734375 45.3125 54.390625 
Q 45.3125 60.0625 41.71875 63.234375 
Q 38.140625 66.40625 31.78125 66.40625 
Q 25.390625 66.40625 21.84375 63.234375 
Q 18.3125 60.0625 18.3125 54.390625 
z
" id="DejaVuSans-56"/>
       <path d="M 4.890625 31.390625 
L 31.203125 31.390625 
L 31.203125 23.390625 
L 4.890625 23.390625 
z
" id="DejaVuSans-45"/>
      </defs>
      <g transform="translate(19.375634 433.351846)rotate(-30)scale(0.1 -0.1)">
       <use xlink:href="#DejaVuSans-50"/>
       <use x="63.623047" xlink:href="#DejaVuSans-48"/>
       <use x="127.246094" xlink:href="#DejaVuSans-49"/>
       <use x="190.869141" xlink:href="#DejaVuSans-56"/>
       <use x="254.492188" xlink:href="#DejaVuSans-45"/>
       <use x="290.576172" xlink:href="#DejaVuSans-48"/>
       <use x="354.199219" xlink:href="#DejaVuSans-49"/>
      </g>
     </g>
    </g>
    <g id="xtick_2">
     <g id="line2d_2">
      <g>
       <use style="stroke:#000000;stroke-width:0.8;" x="125.082273" xlink:href="#m66fcfbd36c" y="398.88"/>
      </g>
     </g>
     <g id="text_2">
      <!-- 2018-04 -->
      <defs>
       <path d="M 37.796875 64.3125 
L 12.890625 25.390625 
L 37.796875 25.390625 
z
M 35.203125 72.90625 
L 47.609375 72.90625 
L 47.609375 25.390625 
L 58.015625 25.390625 
L 58.015625 17.1875 
L 47.609375 17.1875 
L 47.609375 0 
L 37.796875 0 
L 37.796875 17.1875 
L 4.890625 17.1875 
L 4.890625 26.703125 
z
" id="DejaVuSans-52"/>
      </defs>
      <g transform="translate(87.857452 433.351846)rotate(-30)scale(0.1 -0.1)">
       <use xlink:href="#DejaVuSans-50"/>
       <use x="63.623047" xlink:href="#DejaVuSans-48"/>
       <use x="127.246094" xlink:href="#DejaVuSans-49"/>
       <use x="190.869141" xlink:href="#DejaVuSans-56"/>
       <use x="254.492188" xlink:href="#DejaVuSans-45"/>
       <use x="290.576172" xlink:href="#DejaVuSans-48"/>
       <use x="354.199219" xlink:href="#DejaVuSans-52"/>
      </g>
     </g>
    </g>
    <g id="xtick_3">
     <g id="line2d_3">
      <g>
       <use style="stroke:#000000;stroke-width:0.8;" x="194.325" xlink:href="#m66fcfbd36c" y="398.88"/>
      </g>
     </g>
     <g id="text_3">
      <!-- 2018-07 -->
      <defs>
       <path d="M 8.203125 72.90625 
L 55.078125 72.90625 
L 55.078125 68.703125 
L 28.609375 0 
L 18.3125 0 
L 43.21875 64.59375 
L 8.203125 64.59375 
z
" id="DejaVuSans-55"/>
      </defs>
      <g transform="translate(157.100179 433.351846)rotate(-30)scale(0.1 -0.1)">
       <use xlink:href="#DejaVuSans-50"/>
       <use x="63.623047" xlink:href="#DejaVuSans-48"/>
       <use x="127.246094" xlink:href="#DejaVuSans-49"/>
       <use x="190.869141" xlink:href="#DejaVuSans-56"/>
       <use x="254.492188" xlink:href="#DejaVuSans-45"/>
       <use x="290.576172" xlink:href="#DejaVuSans-48"/>
       <use x="354.199219" xlink:href="#DejaVuSans-55"/>
      </g>
     </g>
    </g>
    <g id="xtick_4">
     <g id="line2d_4">
      <g>
       <use style="stroke:#000000;stroke-width:0.8;" x="264.328636" xlink:href="#m66fcfbd36c" y="398.88"/>
      </g>
     </g>
     <g id="text_4">
      <!-- 2018-10 -->
      <g transform="translate(227.103816 433.351846)rotate(-30)scale(0.1 -0.1)">
       <use xlink:href="#DejaVuSans-50"/>
       <use x="63.623047" xlink:href="#DejaVuSans-48"/>
       <use x="127.246094" xlink:href="#DejaVuSans-49"/>
       <use x="190.869141" xlink:href="#DejaVuSans-56"/>
       <use x="254.492188" xlink:href="#DejaVuSans-45"/>
       <use x="290.576172" xlink:href="#DejaVuSans-49"/>
       <use x="354.199219" xlink:href="#DejaVuSans-48"/>
      </g>
     </g>
    </g>
    <g id="xtick_5">
     <g id="line2d_5">
      <g>
       <use style="stroke:#000000;stroke-width:0.8;" x="334.332273" xlink:href="#m66fcfbd36c" y="398.88"/>
      </g>
     </g>
     <g id="text_5">
      <!-- 2019-01 -->
      <defs>
       <path d="M 10.984375 1.515625 
L 10.984375 10.5 
Q 14.703125 8.734375 18.5 7.8125 
Q 22.3125 6.890625 25.984375 6.890625 
Q 35.75 6.890625 40.890625 13.453125 
Q 46.046875 20.015625 46.78125 33.40625 
Q 43.953125 29.203125 39.59375 26.953125 
Q 35.25 24.703125 29.984375 24.703125 
Q 19.046875 24.703125 12.671875 31.3125 
Q 6.296875 37.9375 6.296875 49.421875 
Q 6.296875 60.640625 12.9375 67.421875 
Q 19.578125 74.21875 30.609375 74.21875 
Q 43.265625 74.21875 49.921875 64.515625 
Q 56.59375 54.828125 56.59375 36.375 
Q 56.59375 19.140625 48.40625 8.859375 
Q 40.234375 -1.421875 26.421875 -1.421875 
Q 22.703125 -1.421875 18.890625 -0.6875 
Q 15.09375 0.046875 10.984375 1.515625 
z
M 30.609375 32.421875 
Q 37.25 32.421875 41.125 36.953125 
Q 45.015625 41.5 45.015625 49.421875 
Q 45.015625 57.28125 41.125 61.84375 
Q 37.25 66.40625 30.609375 66.40625 
Q 23.96875 66.40625 20.09375 61.84375 
Q 16.21875 57.28125 16.21875 49.421875 
Q 16.21875 41.5 20.09375 36.953125 
Q 23.96875 32.421875 30.609375 32.421875 
z
" id="DejaVuSans-57"/>
      </defs>
      <g transform="translate(297.107452 433.351846)rotate(-30)scale(0.1 -0.1)">
       <use xlink:href="#DejaVuSans-50"/>
       <use x="63.623047" xlink:href="#DejaVuSans-48"/>
       <use x="127.246094" xlink:href="#DejaVuSans-49"/>
       <use x="190.869141" xlink:href="#DejaVuSans-57"/>
       <use x="254.492188" xlink:href="#DejaVuSans-45"/>
       <use x="290.576172" xlink:href="#DejaVuSans-48"/>
       <use x="354.199219" xlink:href="#DejaVuSans-49"/>
      </g>
     </g>
    </g>
    <g id="xtick_6">
     <g id="line2d_6">
      <g>
       <use style="stroke:#000000;stroke-width:0.8;" x="402.814091" xlink:href="#m66fcfbd36c" y="398.88"/>
      </g>
     </g>
     <g id="text_6">
      <!-- 2019-04 -->
      <g transform="translate(365.58927 433.351846)rotate(-30)scale(0.1 -0.1)">
       <use xlink:href="#DejaVuSans-50"/>
       <use x="63.623047" xlink:href="#DejaVuSans-48"/>
       <use x="127.246094" xlink:href="#DejaVuSans-49"/>
       <use x="190.869141" xlink:href="#DejaVuSans-57"/>
       <use x="254.492188" xlink:href="#DejaVuSans-45"/>
       <use x="290.576172" xlink:href="#DejaVuSans-48"/>
       <use x="354.199219" xlink:href="#DejaVuSans-52"/>
      </g>
     </g>
    </g>
    <g id="xtick_7">
     <g id="line2d_7">
      <g>
       <use style="stroke:#000000;stroke-width:0.8;" x="472.056818" xlink:href="#m66fcfbd36c" y="398.88"/>
      </g>
     </g>
     <g id="text_7">
      <!-- 2019-07 -->
      <g transform="translate(434.831997 433.351846)rotate(-30)scale(0.1 -0.1)">
       <use xlink:href="#DejaVuSans-50"/>
       <use x="63.623047" xlink:href="#DejaVuSans-48"/>
       <use x="127.246094" xlink:href="#DejaVuSans-49"/>
       <use x="190.869141" xlink:href="#DejaVuSans-57"/>
       <use x="254.492188" xlink:href="#DejaVuSans-45"/>
       <use x="290.576172" xlink:href="#DejaVuSans-48"/>
       <use x="354.199219" xlink:href="#DejaVuSans-55"/>
      </g>
     </g>
    </g>
    <g id="xtick_8">
     <g id="line2d_8">
      <g>
       <use style="stroke:#000000;stroke-width:0.8;" x="542.060455" xlink:href="#m66fcfbd36c" y="398.88"/>
      </g>
     </g>
     <g id="text_8">
      <!-- 2019-10 -->
      <g transform="translate(504.835634 433.351846)rotate(-30)scale(0.1 -0.1)">
       <use xlink:href="#DejaVuSans-50"/>
       <use x="63.623047" xlink:href="#DejaVuSans-48"/>
       <use x="127.246094" xlink:href="#DejaVuSans-49"/>
       <use x="190.869141" xlink:href="#DejaVuSans-57"/>
       <use x="254.492188" xlink:href="#DejaVuSans-45"/>
       <use x="290.576172" xlink:href="#DejaVuSans-49"/>
       <use x="354.199219" xlink:href="#DejaVuSans-48"/>
      </g>
     </g>
    </g>
    <g id="xtick_9">
     <g id="line2d_9">
      <g>
       <use style="stroke:#000000;stroke-width:0.8;" x="612.064091" xlink:href="#m66fcfbd36c" y="398.88"/>
      </g>
     </g>
     <g id="text_9">
      <!-- 2020-01 -->
      <g transform="translate(574.83927 433.351846)rotate(-30)scale(0.1 -0.1)">
       <use xlink:href="#DejaVuSans-50"/>
       <use x="63.623047" xlink:href="#DejaVuSans-48"/>
       <use x="127.246094" xlink:href="#DejaVuSans-50"/>
       <use x="190.869141" xlink:href="#DejaVuSans-48"/>
       <use x="254.492188" xlink:href="#DejaVuSans-45"/>
       <use x="290.576172" xlink:href="#DejaVuSans-48"/>
       <use x="354.199219" xlink:href="#DejaVuSans-49"/>
      </g>
     </g>
    </g>
    <g id="xtick_10">
     <g id="line2d_10">
      <g>
       <use style="stroke:#000000;stroke-width:0.8;" x="681.306818" xlink:href="#m66fcfbd36c" y="398.88"/>
      </g>
     </g>
     <g id="text_10">
      <!-- 2020-04 -->
      <g transform="translate(644.081997 433.351846)rotate(-30)scale(0.1 -0.1)">
       <use xlink:href="#DejaVuSans-50"/>
       <use x="63.623047" xlink:href="#DejaVuSans-48"/>
       <use x="127.246094" xlink:href="#DejaVuSans-50"/>
       <use x="190.869141" xlink:href="#DejaVuSans-48"/>
       <use x="254.492188" xlink:href="#DejaVuSans-45"/>
       <use x="290.576172" xlink:href="#DejaVuSans-48"/>
       <use x="354.199219" xlink:href="#DejaVuSans-52"/>
      </g>
     </g>
    </g>
    <g id="text_11">
     <!-- Date -->
     <defs>
      <path d="M 19.671875 64.796875 
L 19.671875 8.109375 
L 31.59375 8.109375 
Q 46.6875 8.109375 53.6875 14.9375 
Q 60.6875 21.78125 60.6875 36.53125 
Q 60.6875 51.171875 53.6875 57.984375 
Q 46.6875 64.796875 31.59375 64.796875 
z
M 9.8125 72.90625 
L 30.078125 72.90625 
Q 51.265625 72.90625 61.171875 64.09375 
Q 71.09375 55.28125 71.09375 36.53125 
Q 71.09375 17.671875 61.125 8.828125 
Q 51.171875 0 30.078125 0 
L 9.8125 0 
z
" id="DejaVuSans-68"/>
      <path d="M 34.28125 27.484375 
Q 23.390625 27.484375 19.1875 25 
Q 14.984375 22.515625 14.984375 16.5 
Q 14.984375 11.71875 18.140625 8.90625 
Q 21.296875 6.109375 26.703125 6.109375 
Q 34.1875 6.109375 38.703125 11.40625 
Q 43.21875 16.703125 43.21875 25.484375 
L 43.21875 27.484375 
z
M 52.203125 31.203125 
L 52.203125 0 
L 43.21875 0 
L 43.21875 8.296875 
Q 40.140625 3.328125 35.546875 0.953125 
Q 30.953125 -1.421875 24.3125 -1.421875 
Q 15.921875 -1.421875 10.953125 3.296875 
Q 6 8.015625 6 15.921875 
Q 6 25.140625 12.171875 29.828125 
Q 18.359375 34.515625 30.609375 34.515625 
L 43.21875 34.515625 
L 43.21875 35.40625 
Q 43.21875 41.609375 39.140625 45 
Q 35.0625 48.390625 27.6875 48.390625 
Q 23 48.390625 18.546875 47.265625 
Q 14.109375 46.140625 10.015625 43.890625 
L 10.015625 52.203125 
Q 14.9375 54.109375 19.578125 55.046875 
Q 24.21875 56 28.609375 56 
Q 40.484375 56 46.34375 49.84375 
Q 52.203125 43.703125 52.203125 31.203125 
z
" id="DejaVuSans-97"/>
      <path d="M 18.3125 70.21875 
L 18.3125 54.6875 
L 36.8125 54.6875 
L 36.8125 47.703125 
L 18.3125 47.703125 
L 18.3125 18.015625 
Q 18.3125 11.328125 20.140625 9.421875 
Q 21.96875 7.515625 27.59375 7.515625 
L 36.8125 7.515625 
L 36.8125 0 
L 27.59375 0 
Q 17.1875 0 13.234375 3.875 
Q 9.28125 7.765625 9.28125 18.015625 
L 9.28125 47.703125 
L 2.6875 47.703125 
L 2.6875 54.6875 
L 9.28125 54.6875 
L 9.28125 70.21875 
z
" id="DejaVuSans-116"/>
      <path d="M 56.203125 29.59375 
L 56.203125 25.203125 
L 14.890625 25.203125 
Q 15.484375 15.921875 20.484375 11.0625 
Q 25.484375 6.203125 34.421875 6.203125 
Q 39.59375 6.203125 44.453125 7.46875 
Q 49.3125 8.734375 54.109375 11.28125 
L 54.109375 2.78125 
Q 49.265625 0.734375 44.1875 -0.34375 
Q 39.109375 -1.421875 33.890625 -1.421875 
Q 20.796875 -1.421875 13.15625 6.1875 
Q 5.515625 13.8125 5.515625 26.8125 
Q 5.515625 40.234375 12.765625 48.109375 
Q 20.015625 56 32.328125 56 
Q 43.359375 56 49.78125 48.890625 
Q 56.203125 41.796875 56.203125 29.59375 
z
M 47.21875 32.234375 
Q 47.125 39.59375 43.09375 43.984375 
Q 39.0625 48.390625 32.421875 48.390625 
Q 24.90625 48.390625 20.390625 44.140625 
Q 15.875 39.890625 15.1875 32.171875 
z
" id="DejaVuSans-101"/>
     </defs>
     <g transform="translate(349.774219 446.751346)scale(0.1 -0.1)">
      <use xlink:href="#DejaVuSans-68"/>
      <use x="77.001953" xlink:href="#DejaVuSans-97"/>
      <use x="138.28125" xlink:href="#DejaVuSans-116"/>
      <use x="177.490234" xlink:href="#DejaVuSans-101"/>
     </g>
    </g>
   </g>
   <g id="matplotlib.axis_2">
    <g id="ytick_1">
     <g id="line2d_11">
      <defs>
       <path d="M 0 0 
L -3.5 0 
" id="m26cc3ea747" style="stroke:#000000;stroke-width:0.8;"/>
      </defs>
      <g>
       <use style="stroke:#000000;stroke-width:0.8;" x="26.925" xlink:href="#m26cc3ea747" y="339.686994"/>
      </g>
     </g>
     <g id="text_12">
      <!-- 15 -->
      <defs>
       <path d="M 10.796875 72.90625 
L 49.515625 72.90625 
L 49.515625 64.59375 
L 19.828125 64.59375 
L 19.828125 46.734375 
Q 21.96875 47.46875 24.109375 47.828125 
Q 26.265625 48.1875 28.421875 48.1875 
Q 40.625 48.1875 47.75 41.5 
Q 54.890625 34.8125 54.890625 23.390625 
Q 54.890625 11.625 47.5625 5.09375 
Q 40.234375 -1.421875 26.90625 -1.421875 
Q 22.3125 -1.421875 17.546875 -0.640625 
Q 12.796875 0.140625 7.71875 1.703125 
L 7.71875 11.625 
Q 12.109375 9.234375 16.796875 8.0625 
Q 21.484375 6.890625 26.703125 6.890625 
Q 35.15625 6.890625 40.078125 11.328125 
Q 45.015625 15.765625 45.015625 23.390625 
Q 45.015625 31 40.078125 35.4375 
Q 35.15625 39.890625 26.703125 39.890625 
Q 22.75 39.890625 18.8125 39.015625 
Q 14.890625 38.140625 10.796875 36.28125 
z
" id="DejaVuSans-53"/>
      </defs>
      <g transform="translate(7.2 343.486213)scale(0.1 -0.1)">
       <use xlink:href="#DejaVuSans-49"/>
       <use x="63.623047" xlink:href="#DejaVuSans-53"/>
      </g>
     </g>
    </g>
    <g id="ytick_2">
     <g id="line2d_12">
      <g>
       <use style="stroke:#000000;stroke-width:0.8;" x="26.925" xlink:href="#m26cc3ea747" y="253.459128"/>
      </g>
     </g>
     <g id="text_13">
      <!-- 20 -->
      <g transform="translate(7.2 257.258347)scale(0.1 -0.1)">
       <use xlink:href="#DejaVuSans-50"/>
       <use x="63.623047" xlink:href="#DejaVuSans-48"/>
      </g>
     </g>
    </g>
    <g id="ytick_3">
     <g id="line2d_13">
      <g>
       <use style="stroke:#000000;stroke-width:0.8;" x="26.925" xlink:href="#m26cc3ea747" y="167.231262"/>
      </g>
     </g>
     <g id="text_14">
      <!-- 25 -->
      <g transform="translate(7.2 171.030481)scale(0.1 -0.1)">
       <use xlink:href="#DejaVuSans-50"/>
       <use x="63.623047" xlink:href="#DejaVuSans-53"/>
      </g>
     </g>
    </g>
    <g id="ytick_4">
     <g id="line2d_14">
      <g>
       <use style="stroke:#000000;stroke-width:0.8;" x="26.925" xlink:href="#m26cc3ea747" y="81.003396"/>
      </g>
     </g>
     <g id="text_15">
      <!-- 30 -->
      <defs>
       <path d="M 40.578125 39.3125 
Q 47.65625 37.796875 51.625 33 
Q 55.609375 28.21875 55.609375 21.1875 
Q 55.609375 10.40625 48.1875 4.484375 
Q 40.765625 -1.421875 27.09375 -1.421875 
Q 22.515625 -1.421875 17.65625 -0.515625 
Q 12.796875 0.390625 7.625 2.203125 
L 7.625 11.71875 
Q 11.71875 9.328125 16.59375 8.109375 
Q 21.484375 6.890625 26.8125 6.890625 
Q 36.078125 6.890625 40.9375 10.546875 
Q 45.796875 14.203125 45.796875 21.1875 
Q 45.796875 27.640625 41.28125 31.265625 
Q 36.765625 34.90625 28.71875 34.90625 
L 20.21875 34.90625 
L 20.21875 43.015625 
L 29.109375 43.015625 
Q 36.375 43.015625 40.234375 45.921875 
Q 44.09375 48.828125 44.09375 54.296875 
Q 44.09375 59.90625 40.109375 62.90625 
Q 36.140625 65.921875 28.71875 65.921875 
Q 24.65625 65.921875 20.015625 65.03125 
Q 15.375 64.15625 9.8125 62.3125 
L 9.8125 71.09375 
Q 15.4375 72.65625 20.34375 73.4375 
Q 25.25 74.21875 29.59375 74.21875 
Q 40.828125 74.21875 47.359375 69.109375 
Q 53.90625 64.015625 53.90625 55.328125 
Q 53.90625 49.265625 50.4375 45.09375 
Q 46.96875 40.921875 40.578125 39.3125 
z
" id="DejaVuSans-51"/>
      </defs>
      <g transform="translate(7.2 84.802615)scale(0.1 -0.1)">
       <use xlink:href="#DejaVuSans-51"/>
       <use x="63.623047" xlink:href="#DejaVuSans-48"/>
      </g>
     </g>
    </g>
   </g>
   <g id="line2d_15">
    <path clip-path="url(#p1db5a7bc5b)" d="M 57.361364 333.571468 
L 58.122273 331.171457 
L 58.883182 330.69151 
L 59.644091 329.09153 
L 61.926818 325.891487 
L 62.687727 325.891487 
L 63.448636 329.571509 
L 64.209545 322.371523 
L 64.970455 321.571557 
L 67.253182 320.771526 
L 68.014091 315.971535 
L 68.775 304.611531 
L 69.535909 306.851599 
L 70.296818 306.211528 
L 72.579545 302.851541 
L 73.340455 306.531547 
L 74.101364 288.931614 
L 74.862273 288.931614 
L 75.623182 279.491593 
L 77.905909 280.771637 
L 78.666818 286.531619 
L 79.427727 283.171665 
L 80.188636 270.051638 
L 80.949545 278.851686 
L 83.232273 293.731605 
L 83.993182 278.531634 
L 84.754091 287.33165 
L 85.515 293.571612 
L 86.275909 298.051518 
L 90.841364 287.971623 
L 91.602273 287.651636 
L 93.885 277.571709 
L 94.645909 271.331681 
L 95.406818 274.371649 
L 96.167727 266.53169 
L 96.928636 260.451689 
L 99.211364 254.051734 
L 99.972273 254.371721 
L 100.733182 255.011825 
L 101.494091 261.891726 
L 102.255 254.21176 
L 104.537727 244.451753 
L 106.059545 251.651739 
L 106.820455 251.171727 
L 107.581364 240.131807 
L 109.864091 241.091733 
L 110.625 244.611713 
L 111.385909 240.291768 
L 112.146818 257.411721 
L 112.907727 255.491738 
L 115.190455 263.491723 
L 115.951364 259.81175 
L 116.712273 245.571804 
L 117.473182 250.851708 
L 118.234091 250.371728 
L 120.516818 245.891724 
L 121.277727 255.331712 
L 122.038636 259.171744 
L 122.799545 255.811757 
L 125.843182 263.971669 
L 126.604091 267.011703 
L 127.365 272.291673 
L 128.125909 259.97171 
L 128.886818 257.891734 
L 131.169545 269.891677 
L 131.930455 255.971718 
L 132.691364 249.571796 
L 133.452273 251.491812 
L 134.213182 259.171744 
L 136.495909 268.451674 
L 137.256818 261.891726 
L 138.017727 249.571796 
L 138.778636 243.171742 
L 139.539545 240.611754 
L 141.822273 238.691804 
L 142.583182 239.971781 
L 143.344091 250.691813 
L 144.105 236.291808 
L 144.865909 235.011798 
L 147.148636 230.851812 
L 148.670455 236.771722 
L 149.431364 239.17175 
L 150.192273 242.051758 
L 152.475 235.971756 
L 153.235909 231.811771 
L 153.996818 201.891875 
L 154.757727 186.371951 
L 155.518636 191.331902 
L 157.801364 178.531993 
L 159.323182 160.132061 
L 160.084091 183.171957 
L 160.845 187.971981 
L 163.127727 197.57193 
L 163.888636 202.221269 
L 164.649545 225.30715 
L 165.410455 276.449125 
L 166.171364 280.938077 
L 168.454091 327.270407 
L 169.215 288.954047 
L 169.975909 294.084287 
L 171.497727 339.29433 
L 173.780455 317.330589 
L 174.541364 332.400614 
L 175.302273 336.568905 
L 176.824091 353.883423 
L 179.867727 350.516693 
L 180.628636 355.165999 
L 181.389545 356.288204 
L 182.150455 358.372358 
L 184.433182 365.907362 
L 185.955 338.49277 
L 186.715909 356.288204 
L 187.476818 356.127898 
L 189.759545 346.669029 
L 190.520455 341.218146 
L 191.281364 333.041886 
L 192.042273 332.240259 
L 192.803182 322.78144 
L 195.085909 318.292488 
L 195.846818 317.811555 
L 196.607727 316.047979 
L 197.368636 312.040027 
L 198.129545 310.757484 
L 201.173182 313.80357 
L 201.934091 319.254387 
L 202.695 310.597194 
L 203.455909 308.032075 
L 205.738636 311.719383 
L 206.499545 305.146311 
L 207.260455 308.994007 
L 208.021364 303.382768 
L 208.782273 289.114304 
L 211.065 289.595336 
L 211.825909 283.182487 
L 212.586818 278.372891 
L 213.347727 287.190538 
L 214.108636 281.419043 
L 216.391364 279.495178 
L 217.152273 282.22062 
L 217.913182 277.571347 
L 218.674091 271.158597 
L 219.435 259.936185 
L 221.717727 261.058439 
L 222.478636 266.348968 
L 223.239545 275.487226 
L 224.000455 272.280785 
L 224.761364 284.304774 
L 227.044091 277.090413 
L 227.805 277.25113 
L 228.565909 292.198118 
L 229.326818 293.805319 
L 230.087727 301.680605 
L 232.370455 303.287805 
L 233.131364 313.574007 
L 233.892273 303.448522 
L 234.653182 309.87739 
L 235.414091 304.252172 
L 237.696818 297.662653 
L 238.457727 303.448522 
L 239.218636 288.180133 
L 239.979545 296.216103 
L 240.740455 288.823033 
L 243.023182 293.001735 
L 243.784091 298.626953 
L 244.545 297.019687 
L 245.305909 293.162452 
L 248.349545 288.823033 
L 249.110455 301.037738 
L 249.871364 293.805319 
L 250.632273 297.662653 
L 251.393182 296.37682 
L 253.675909 286.5729 
L 254.436818 272.911679 
L 255.197727 277.25113 
L 255.958636 279.019048 
L 256.719545 274.679629 
L 259.002273 276.929664 
L 259.763182 275.643897 
L 260.524091 273.876012 
L 261.285 253.464523 
L 262.045909 259.411175 
L 264.328636 260.857593 
L 265.089545 231.606517 
L 265.850455 216.016596 
L 266.611364 212.320077 
L 267.372273 213.284378 
L 269.655 170.854198 
L 270.415909 167.318331 
L 271.937727 191.908555 
L 274.981364 184.193986 
L 275.742273 168.764782 
L 276.503182 173.264983 
L 277.264091 185.319003 
L 278.025 181.783201 
L 280.307727 171.979216 
L 281.068636 177.283001 
L 281.829545 185.640437 
L 282.590455 175.354334 
L 283.351364 154.782094 
L 285.634091 173.747133 
L 286.395 148.353325 
L 287.155909 154.460628 
L 287.916818 159.282262 
L 290.960455 145.781791 
L 293.243182 190.944189 
L 294.004091 189.176304 
L 296.286818 191.265655 
L 297.047727 208.78421 
L 297.808636 194.962206 
L 299.330455 183.711836 
L 301.613182 180.497402 
L 303.135 193.837189 
L 303.895909 192.546324 
L 304.656818 205.132459 
L 306.939545 207.068856 
L 307.700455 186.414548 
L 308.461364 188.835003 
L 309.222273 192.223574 
L 309.983182 187.544072 
L 312.265909 179.798747 
L 313.026818 189.480469 
L 313.787727 185.93049 
L 314.548636 201.582513 
L 315.309545 198.678066 
L 317.592273 220.139149 
L 318.353182 222.559538 
L 319.114091 222.398196 
L 319.875 221.430047 
L 320.635909 226.432167 
L 322.918636 229.336713 
L 323.679545 243.37522 
L 324.440455 239.341151 
L 325.201364 251.604603 
L 325.962273 250.636454 
L 329.766818 236.506371 
L 330.527727 236.673272 
L 331.288636 219.815182 
L 335.093182 196.781371 
L 335.854091 186.933605 
L 336.615 185.765267 
L 338.897727 179.255646 
L 339.658636 181.759387 
L 340.419545 173.079958 
L 341.180455 176.752004 
L 341.941364 181.258652 
L 344.224091 183.59536 
L 344.985 183.929195 
L 345.745909 184.096128 
L 346.506818 178.421175 
L 347.267727 174.415262 
L 349.550455 172.245356 
L 350.311364 178.921877 
L 351.072273 173.914494 
L 351.833182 172.078455 
L 354.876818 184.930698 
L 355.637727 174.915964 
L 356.398636 170.743183 
L 357.159545 171.410852 
L 357.920455 167.738806 
L 360.203182 163.899827 
L 360.964091 163.06529 
L 361.725 172.913057 
L 362.485909 179.589513 
L 363.246818 178.921877 
L 365.529545 183.762327 
L 366.290455 169.074111 
L 367.051364 163.566025 
L 367.812273 148.543942 
L 368.573182 150.379981 
L 370.855909 151.715286 
L 371.616818 141.366751 
L 372.377727 147.041737 
L 373.138636 141.032917 
L 373.899545 145.539565 
L 376.182273 152.716723 
L 376.943182 154.719663 
L 377.704091 146.374134 
L 378.465 146.707903 
L 379.225909 152.716723 
L 383.791364 151.548352 
L 384.552273 153.217491 
L 386.835 135.19103 
L 387.595909 139.363811 
L 388.356818 129.349143 
L 389.117727 127.846873 
L 389.878636 126.845435 
L 392.161364 118.666807 
L 392.922273 110.988816 
L 393.683182 114.827861 
L 394.444091 121.671217 
L 395.205 147.709373 
L 397.487727 142.03442 
L 398.248636 120.502814 
L 399.009545 142.03442 
L 399.770455 130.016779 
L 400.531364 130.016779 
L 402.814091 131.018282 
L 403.575 126.1778 
L 404.335909 138.696142 
L 405.096818 123.173422 
L 405.857727 117.999106 
L 408.140455 110.154246 
L 408.901364 111.656484 
L 409.662273 117.999106 
L 410.423182 131.018282 
L 411.184091 167.238071 
L 413.466818 165.568933 
L 414.227727 152.382954 
L 414.988636 151.882153 
L 415.749545 137.694705 
L 418.793182 140.365314 
L 419.554091 136.359401 
L 420.315 137.694705 
L 421.075909 134.356461 
L 421.836818 143.217428 
L 424.119545 141.213073 
L 424.880455 145.555847 
L 426.402273 151.902942 
L 427.163182 149.898555 
L 429.445909 151.234813 
L 430.206818 158.250004 
L 430.967727 141.213073 
L 431.728636 150.232619 
L 432.489545 152.738038 
L 434.772273 165.766325 
L 435.533182 164.096003 
L 436.294091 166.100357 
L 437.815909 186.143803 
L 440.098636 172.113388 
L 440.859545 155.911651 
L 441.620455 157.588224 
L 442.381364 165.132964 
L 443.142273 160.941467 
L 445.425 158.426543 
L 446.185909 149.037506 
L 446.946818 154.067355 
L 447.707727 159.935491 
L 448.468636 169.995222 
L 450.751364 162.618073 
L 451.512273 159.097172 
L 452.273182 164.797683 
L 453.795 149.708135 
L 456.077727 151.552431 
L 456.838636 143.001681 
L 457.599545 148.199154 
L 458.360455 142.666333 
L 459.121364 144.678286 
L 461.404091 143.84 
L 462.165 138.139456 
L 462.925909 136.965855 
L 464.447727 124.223575 
L 466.730455 124.726579 
L 467.491364 137.133512 
L 468.252273 134.45093 
L 469.013182 141.828047 
L 469.774091 138.810151 
L 472.056818 141.325042 
L 472.817727 148.702192 
L 473.578636 142.666333 
L 474.339545 139.145465 
L 475.100455 138.977775 
L 477.383182 134.786278 
L 478.905 127.744476 
L 479.665909 122.211655 
L 480.426818 120.031979 
L 482.709545 125.900213 
L 483.470455 131.768381 
L 484.992273 137.133512 
L 485.753182 138.307146 
L 488.035909 137.46886 
L 488.796818 136.965855 
L 489.557727 139.816094 
L 490.318636 147.528525 
L 491.079545 160.103148 
L 493.362273 156.079275 
L 494.884091 161.109157 
L 495.645 158.258885 
L 496.405909 153.732008 
L 498.688636 169.995222 
L 499.449545 164.462401 
L 500.210455 169.15687 
L 500.971364 156.582247 
L 501.732273 157.755881 
L 504.015 168.318584 
L 504.775909 162.573272 
L 505.536818 177.274481 
L 506.297727 188.934045 
L 507.058636 194.341378 
L 509.341364 192.313636 
L 510.102273 192.482609 
L 510.863182 168.318584 
L 511.624091 172.205094 
L 512.385 188.089114 
L 514.667727 193.49648 
L 515.428636 187.075276 
L 516.189545 182.850787 
L 516.950455 167.473686 
L 517.711364 167.473686 
L 519.994091 170.853277 
L 520.755 165.78389 
L 521.515909 154.631246 
L 525.320455 143.309661 
L 526.081364 140.437021 
L 526.842273 144.323532 
L 527.603182 141.112946 
L 528.364091 144.154559 
L 530.646818 124.215022 
L 531.407727 130.46722 
L 532.168636 138.40928 
L 532.929545 137.226403 
L 533.690455 142.126817 
L 535.973182 134.015817 
L 536.734091 137.564349 
L 537.495 136.381538 
L 538.255909 130.298247 
L 539.016818 130.974205 
L 542.060455 133.508866 
L 542.821364 146.858258 
L 543.582273 146.520279 
L 544.343182 150.406789 
L 546.625909 156.152101 
L 547.386818 158.686762 
L 548.147727 150.237816 
L 548.908636 146.520279 
L 549.669545 137.733355 
L 551.952273 136.88849 
L 553.474091 126.41177 
L 554.235 130.974205 
L 554.995909 131.988043 
L 557.278636 129.115403 
L 558.039545 115.597104 
L 558.800455 109.175834 
L 559.561364 119.82156 
L 560.322273 104.10648 
L 562.605 98.192228 
L 563.365909 94.474691 
L 564.126818 90.081229 
L 564.887727 84.842869 
L 565.648636 84.166977 
L 567.931364 85.349788 
L 568.692273 97.347331 
L 569.453182 96.333493 
L 570.214091 76.224951 
L 570.975 91.0951 
L 573.257727 83.828998 
L 574.018636 87.725574 
L 574.779545 89.766835 
L 575.540455 99.972908 
L 578.584091 103.715148 
L 579.345 108.818185 
L 580.866818 90.617324 
L 581.627727 88.406005 
L 583.910455 92.658552 
L 584.671364 101.844012 
L 585.432273 99.462601 
L 586.193182 96.060577 
L 586.954091 102.524443 
L 589.236818 103.88524 
L 589.997727 105.416161 
L 590.758636 93.849258 
L 591.519545 87.2153 
L 592.280455 82.11223 
L 594.563182 84.493673 
L 595.324091 80.581309 
L 596.085 81.26174 
L 596.845909 71.565941 
L 597.606818 88.406005 
L 599.889545 98.101805 
L 600.650455 90.617324 
L 601.411364 78.880297 
L 602.172273 77.689591 
L 602.933182 83.643151 
L 605.215909 79.560728 
L 607.498636 72.586555 
L 608.259545 72.03569 
L 610.542273 77.899188 
L 612.825 68.931482 
L 613.585909 73.242875 
L 615.868636 67.034491 
L 616.629545 69.103941 
L 617.390455 72.38061 
L 618.151364 74.105173 
L 618.912273 76.347083 
L 621.195 75.312358 
L 621.955909 81.003396 
L 622.716818 88.763917 
L 623.477727 89.281263 
L 624.238636 83.590226 
L 626.521364 81.003396 
L 628.043182 93.247737 
L 628.804091 87.039353 
L 629.565 93.075311 
L 631.847727 114.977164 
L 632.608636 101.698097 
L 633.369545 100.835799 
L 634.130455 99.283695 
L 634.891364 107.734021 
L 637.174091 112.390334 
L 637.935 104.629846 
L 638.695909 108.76878 
L 639.456818 95.144761 
L 640.217727 99.456154 
L 642.500455 96.007059 
L 643.261364 89.971102 
L 644.022273 78.761486 
L 644.783182 85.832168 
L 645.544091 91.005827 
L 647.826818 92.040552 
L 648.587727 85.314789 
L 649.348636 71.518344 
L 650.109545 82.383041 
L 650.870455 95.8346 
L 655.435909 162.057603 
L 656.196818 161.367765 
L 658.479545 140.845523 
L 659.240455 149.123424 
L 660.001364 134.637139 
L 660.762273 162.23003 
L 661.523182 204.654157 
L 663.805909 321.579156 
L 664.566818 295.538336 
L 665.327727 327.615097 
L 666.088636 381.076364 
L 666.088636 381.076364 
" style="fill:none;stroke:#1f77b4;stroke-linecap:square;stroke-width:1.5;"/>
   </g>
   <g id="line2d_16">
    <path clip-path="url(#p1db5a7bc5b)" d="M 57.361364 307.31977 
L 58.122273 303.625028 
L 59.644091 298.754546 
L 61.926818 294.052052 
L 62.687727 294.052052 
L 63.448636 299.762233 
L 64.209545 292.372552 
L 64.970455 290.021304 
L 67.253182 288.341903 
L 68.014091 282.799641 
L 68.775 271.379311 
L 69.535909 271.883105 
L 70.296818 274.066432 
L 72.579545 270.70753 
L 73.340455 273.562638 
L 74.101364 251.897584 
L 74.862273 251.897584 
L 75.623182 233.759385 
L 77.905909 233.759385 
L 78.666818 242.660482 
L 79.427727 240.645141 
L 80.188636 226.705642 
L 80.949545 236.614459 
L 83.232273 252.905238 
L 83.993182 235.606739 
L 85.515 256.600046 
L 86.275909 260.966634 
L 90.841364 250.218117 
L 91.602273 250.386037 
L 93.885 240.645141 
L 94.645909 234.263211 
L 95.406818 238.293893 
L 96.928636 217.9724 
L 99.211364 209.07127 
L 99.972273 210.078924 
L 100.733182 209.57513 
L 101.494091 215.957059 
L 102.255 209.07127 
L 104.537727 197.986846 
L 105.298636 200.673967 
L 106.059545 206.048209 
L 106.820455 205.544382 
L 107.581364 195.299692 
L 109.864091 196.979159 
L 110.625 200.841887 
L 111.385909 201.849574 
L 112.146818 210.078924 
L 112.907727 205.880256 
L 115.190455 218.980087 
L 115.951364 213.941685 
L 116.712273 199.330374 
L 117.473182 201.513635 
L 118.234091 200.170107 
L 120.516818 196.811173 
L 121.277727 206.71999 
L 122.038636 211.590438 
L 122.799545 206.048209 
L 125.843182 216.460886 
L 126.604091 215.453232 
L 127.365 216.796727 
L 128.125909 206.38405 
L 128.886818 202.353434 
L 131.169545 213.773732 
L 131.930455 198.658593 
L 132.691364 189.421557 
L 133.452273 188.749744 
L 134.213182 199.834233 
L 136.495909 213.941685 
L 137.256818 206.887943 
L 138.017727 194.124019 
L 138.778636 189.085584 
L 139.539545 188.077963 
L 141.822273 189.421557 
L 142.583182 190.765084 
L 143.344091 203.696995 
L 144.105 187.74209 
L 144.865909 186.566384 
L 147.148636 184.719128 
L 148.670455 185.726749 
L 149.431364 190.09337 
L 150.192273 197.147112 
L 152.475 182.871674 
L 153.235909 182.871674 
L 153.996818 141.220968 
L 154.757727 114.013718 
L 155.518636 112.166298 
L 157.801364 92.012758 
L 159.323182 67.156723 
L 160.084091 91.005038 
L 160.845 92.012758 
L 163.127727 108.975317 
L 163.888636 120.247035 
L 164.649545 141.612925 
L 165.410455 208.065655 
L 166.171364 210.925631 
L 168.454091 265.433711 
L 169.215 224.21621 
L 169.975909 225.057391 
L 171.497727 280.743184 
L 173.780455 262.237303 
L 174.541364 272.331441 
L 175.302273 274.181986 
L 176.063182 280.070186 
L 176.824091 295.547777 
L 179.106818 288.986645 
L 179.867727 291.510187 
L 180.628636 295.716026 
L 181.389545 295.884242 
L 182.150455 298.912533 
L 184.433182 308.838421 
L 185.955 285.790203 
L 186.715909 301.435977 
L 189.759545 294.033697 
L 190.520455 286.799601 
L 191.281364 278.387858 
L 192.042273 280.238436 
L 192.803182 271.658443 
L 195.085909 267.284355 
L 195.846818 266.106676 
L 196.607727 249.956187 
L 197.368636 260.386692 
L 198.129545 258.199648 
L 201.173182 258.704297 
L 201.934091 261.564339 
L 202.695 251.806765 
L 203.455909 252.143198 
L 205.738636 255.507889 
L 206.499545 244.067954 
L 207.260455 250.965584 
L 208.021364 246.927929 
L 208.782273 238.011471 
L 211.065 236.329109 
L 211.825909 229.936194 
L 212.586818 225.22564 
L 213.347727 234.646715 
L 214.108636 226.571503 
L 216.391364 227.244435 
L 217.152273 229.263229 
L 217.913182 227.076185 
L 218.674091 220.851486 
L 219.435 207.729222 
L 221.717727 206.383326 
L 222.478636 207.897472 
L 223.239545 215.804467 
L 224.000455 215.468034 
L 224.761364 225.562106 
L 227.044091 221.524451 
L 227.805 223.041918 
L 228.565909 237.879766 
L 229.326818 239.397234 
L 230.087727 245.130013 
L 232.370455 244.28699 
L 233.131364 250.188414 
L 233.892273 239.9031 
L 234.653182 244.792857 
L 237.696818 236.699455 
L 238.457727 240.24029 
L 239.218636 224.559485 
L 239.979545 232.821431 
L 240.740455 226.076952 
L 243.023182 231.64112 
L 243.784091 235.51921 
L 245.305909 228.774764 
L 248.349545 224.053651 
L 249.110455 234.507543 
L 249.871364 224.728096 
L 250.632273 229.955009 
L 253.675909 219.50115 
L 254.436818 205.84358 
L 255.197727 208.035558 
L 255.958636 210.733337 
L 256.719545 206.012191 
L 259.002273 208.035558 
L 259.763182 206.012191 
L 260.524091 204.494724 
L 261.285 185.273051 
L 262.045909 189.825553 
L 264.328636 190.668575 
L 265.089545 163.184956 
L 265.850455 151.888008 
L 266.611364 147.166929 
L 267.372273 148.853008 
L 269.655 106.194318 
L 270.415909 97.089381 
L 271.176818 115.636642 
L 271.937727 124.572967 
L 274.981364 113.613242 
L 275.742273 95.90907 
L 276.503182 99.281293 
L 277.264091 115.299387 
L 278.025 110.40963 
L 280.307727 97.257992 
L 281.068636 106.700152 
L 281.829545 120.863555 
L 282.590455 110.915463 
L 283.351364 92.53688 
L 285.634091 110.746885 
L 286.395 83.769067 
L 287.155909 87.141323 
L 287.916818 96.414871 
L 290.960455 81.577154 
L 291.721364 94.897436 
L 292.482273 106.02574 
L 293.243182 122.212444 
L 294.004091 124.067167 
L 296.286818 126.427723 
L 297.047727 148.178563 
L 297.808636 139.916616 
L 299.330455 125.416056 
L 301.613182 125.753246 
L 303.135 136.713004 
L 303.895909 135.866856 
L 304.656818 146.697541 
L 306.939545 139.759123 
L 307.700455 124.190023 
L 308.461364 130.113058 
L 309.222273 127.066906 
L 312.265909 108.79016 
L 313.026818 117.420874 
L 313.787727 114.543991 
L 314.548636 134.682302 
L 315.309545 127.066906 
L 317.592273 150.420605 
L 318.353182 153.297487 
L 319.114091 151.774395 
L 319.875 149.405155 
L 320.635909 152.789845 
L 322.918636 157.528259 
L 323.679545 172.420381 
L 324.440455 179.358799 
L 325.201364 189.512573 
L 325.962273 189.174067 
L 329.766818 181.522588 
L 330.527727 183.896795 
L 331.288636 167.616344 
L 335.093182 146.417816 
L 335.854091 137.090422 
L 338.897727 116.739851 
L 339.658636 119.283689 
L 340.419545 109.617164 
L 341.180455 111.991404 
L 341.941364 115.043937 
L 344.224091 116.739851 
L 344.985 118.266167 
L 346.506818 110.29549 
L 347.267727 104.020727 
L 349.550455 101.646455 
L 350.311364 109.10837 
L 351.833182 98.763487 
L 354.876818 116.400655 
L 355.637727 105.886173 
L 356.398636 99.10265 
L 357.159545 97.237204 
L 357.920455 89.266527 
L 360.203182 83.500525 
L 360.964091 80.278362 
L 362.485909 98.424324 
L 363.246818 101.985651 
L 365.529545 108.260446 
L 366.290455 90.623212 
L 367.812273 67.728803 
L 368.573182 71.798957 
L 370.855909 77.904089 
L 371.616818 68.237597 
L 372.377727 68.237597 
L 373.138636 65.354563 
L 373.899545 68.407195 
L 376.182273 81.126318 
L 376.943182 80.956721 
L 377.704091 78.243285 
L 378.465 91.979963 
L 379.225909 103.172771 
L 383.791364 102.833607 
L 384.552273 106.564565 
L 386.835 78.752079 
L 387.595909 87.401081 
L 388.356818 73.664436 
L 389.878636 62.132399 
L 392.161364 51.278788 
L 392.922273 42.62972 
L 393.683182 39.237958 
L 394.444091 50.430798 
L 395.205 76.547404 
L 397.487727 78.582481 
L 398.248636 56.875159 
L 399.009545 81.97421 
L 399.770455 73.32524 
L 400.531364 70.103076 
L 402.814091 74.851523 
L 403.575 72.646848 
L 404.335909 83.670091 
L 405.096818 66.711314 
L 405.857727 54.840115 
L 408.140455 43.138513 
L 408.901364 48.056624 
L 409.662273 51.10919 
L 410.423182 58.231844 
L 411.184091 104.359923 
L 413.466818 104.699086 
L 414.227727 87.061885 
L 414.988636 86.553124 
L 415.749545 76.716969 
L 418.793182 74.851523 
L 419.554091 70.611837 
L 420.315 79.769568 
L 421.075909 78.412883 
L 421.836818 82.991797 
L 424.119545 85.365971 
L 424.880455 90.284082 
L 426.402273 97.91553 
L 427.163182 97.067606 
L 429.445909 97.406769 
L 430.206818 102.833607 
L 430.967727 85.874798 
L 431.728636 100.459335 
L 432.489545 100.628933 
L 434.772273 114.874372 
L 435.533182 114.704774 
L 436.294091 118.096536 
L 437.055 127.254299 
L 437.815909 130.985257 
L 440.098636 122.336287 
L 440.859545 109.956327 
L 441.620455 108.765063 
L 442.381364 117.274005 
L 443.142273 116.252931 
L 445.425 109.2756 
L 446.185909 102.638616 
L 446.946818 106.552724 
L 447.707727 107.403608 
L 448.468636 117.954733 
L 450.751364 107.403608 
L 451.512273 104.510575 
L 452.273182 111.487906 
L 453.034091 103.82988 
L 453.795 90.385722 
L 456.077727 98.894665 
L 456.838636 88.683921 
L 457.599545 96.171789 
L 458.360455 89.364615 
L 459.121364 84.599623 
L 461.404091 85.280317 
L 462.165 77.452102 
L 462.925909 73.537961 
L 464.447727 57.370927 
L 466.730455 59.583266 
L 467.491364 75.92049 
L 468.252273 78.473176 
L 469.013182 89.704995 
L 469.774091 87.492656 
L 472.056818 89.194458 
L 472.817727 96.852549 
L 473.578636 91.747111 
L 474.339545 85.11016 
L 475.100455 87.322466 
L 477.383182 77.452102 
L 478.905 75.58011 
L 479.665909 65.709745 
L 480.426818 62.306142 
L 482.709545 71.325655 
L 483.470455 77.622259 
L 484.231364 81.025862 
L 484.992273 86.641772 
L 485.753182 86.811962 
L 488.035909 86.131202 
L 488.796818 83.578548 
L 489.557727 87.833036 
L 490.318636 97.022706 
L 491.079545 112.67917 
L 493.362273 106.722914 
L 494.123182 109.956294 
L 494.884091 108.424683 
L 495.645 115.912584 
L 496.405909 101.277194 
L 498.688636 121.86884 
L 499.449545 113.870435 
L 500.210455 118.46527 
L 500.971364 107.063261 
L 504.015 124.421527 
L 504.775909 119.107841 
L 505.536818 133.849081 
L 506.297727 144.133704 
L 507.058636 146.190655 
L 509.341364 140.019868 
L 510.102273 144.305111 
L 510.863182 120.136284 
L 511.624091 124.764374 
L 512.385 139.677054 
L 514.667727 145.676401 
L 515.428636 137.105882 
L 516.189545 133.849081 
L 516.950455 116.365262 
L 517.711364 113.79409 
L 519.994091 118.936434 
L 520.755 116.536669 
L 521.515909 104.366568 
L 523.037727 98.024374 
L 525.320455 88.082565 
L 526.081364 84.140169 
L 526.842273 93.224909 
L 527.603182 87.054122 
L 528.364091 89.968109 
L 530.646818 66.999131 
L 532.168636 83.797322 
L 532.929545 80.0263 
L 533.690455 78.655043 
L 535.973182 76.426685 
L 536.734091 83.111694 
L 537.495 82.426032 
L 538.255909 78.140789 
L 539.016818 76.940939 
L 541.299545 81.568997 
L 542.060455 84.482983 
L 542.821364 102.995278 
L 543.582273 99.224223 
L 544.343182 103.852314 
L 546.625909 111.565797 
L 547.386818 114.651158 
L 548.147727 102.481024 
L 548.908636 100.081292 
L 549.669545 92.710655 
L 551.952273 89.796702 
L 553.474091 75.741057 
L 554.995909 84.997204 
L 557.278636 78.140789 
L 558.039545 62.199633 
L 558.800455 59.628494 
L 559.561364 70.255931 
L 560.322273 54.82903 
L 562.605 50.715161 
L 563.365909 45.744256 
L 564.126818 39.059281 
L 564.887727 37.859399 
L 565.648636 37.17377 
L 567.931364 33.231308 
L 568.692273 40.430604 
L 569.453182 42.830303 
L 570.214091 25.003636 
L 570.975 34.259817 
L 573.257727 30.317355 
L 574.018636 37.544544 
L 574.779545 39.613994 
L 575.540455 51.513482 
L 578.584091 51.685909 
L 579.345 59.44643 
L 580.866818 45.132572 
L 581.627727 42.718203 
L 583.910455 46.16733 
L 584.671364 57.03206 
L 585.432273 55.997302 
L 586.193182 53.582932 
L 586.954091 60.308695 
L 589.236818 60.998534 
L 589.997727 62.550638 
L 591.519545 48.926619 
L 592.280455 45.305065 
L 594.563182 42.545776 
L 595.324091 39.096648 
L 596.085 38.924221 
L 596.845909 31.508619 
L 597.606818 58.066785 
L 599.889545 62.205719 
L 600.650455 54.790117 
L 601.411364 40.476325 
L 602.172273 41.338591 
L 602.933182 47.719435 
L 605.215909 39.613994 
L 607.498636 34.612828 
L 608.259545 43.580534 
L 610.542273 46.51225 
L 612.825 32.715804 
L 613.585909 46.684709 
L 615.868636 28.74933 
L 616.629545 36.509786 
L 617.390455 45.649984 
L 618.151364 42.545776 
L 618.912273 44.787719 
L 621.195 44.960145 
L 621.955909 49.443998 
L 622.716818 61.68834 
L 623.477727 59.963809 
L 624.238636 49.099079 
L 626.521364 46.857169 
L 627.282273 63.412904 
L 628.043182 63.412904 
L 628.804091 59.791349 
L 629.565 61.860799 
L 631.847727 84.452524 
L 632.608636 72.38061 
L 633.369545 74.794979 
L 634.130455 63.930283 
L 634.891364 74.967439 
L 637.174091 80.830936 
L 637.935 68.069216 
L 638.695909 72.725529 
L 639.456818 58.584164 
L 640.217727 55.824875 
L 642.500455 53.755392 
L 643.261364 46.339823 
L 644.022273 37.027198 
L 644.783182 47.719435 
L 645.544091 53.065553 
L 647.826818 51.685909 
L 648.587727 47.546975 
L 649.348636 36.682278 
L 650.870455 66.344652 
L 655.435909 135.671865 
L 658.479545 113.769979 
L 659.240455 124.117329 
L 660.001364 111.700528 
L 660.762273 136.016784 
L 661.523182 183.44211 
L 663.805909 306.575493 
L 664.566818 281.741858 
L 665.327727 316.060545 
L 666.088636 375.557785 
L 666.088636 375.557785 
" style="fill:none;stroke:#ff7f0e;stroke-linecap:square;stroke-width:1.5;"/>
   </g>
   <g id="patch_3">
    <path d="M 26.925 398.88 
L 26.925 7.2 
" style="fill:none;stroke:#000000;stroke-linecap:square;stroke-linejoin:miter;stroke-width:0.8;"/>
   </g>
   <g id="patch_4">
    <path d="M 696.525 398.88 
L 696.525 7.2 
" style="fill:none;stroke:#000000;stroke-linecap:square;stroke-linejoin:miter;stroke-width:0.8;"/>
   </g>
   <g id="patch_5">
    <path d="M 26.925 398.88 
L 696.525 398.88 
" style="fill:none;stroke:#000000;stroke-linecap:square;stroke-linejoin:miter;stroke-width:0.8;"/>
   </g>
   <g id="patch_6">
    <path d="M 26.925 7.2 
L 696.525 7.2 
" style="fill:none;stroke:#000000;stroke-linecap:square;stroke-linejoin:miter;stroke-width:0.8;"/>
   </g>
   <g id="legend_1">
    <g id="patch_7">
     <path d="M 33.925 44.55625 
L 114.060938 44.55625 
Q 116.060938 44.55625 116.060938 42.55625 
L 116.060938 14.2 
Q 116.060938 12.2 114.060938 12.2 
L 33.925 12.2 
Q 31.925 12.2 31.925 14.2 
L 31.925 42.55625 
Q 31.925 44.55625 33.925 44.55625 
z
" style="fill:#ffffff;opacity:0.8;stroke:#cccccc;stroke-linejoin:miter;"/>
    </g>
    <g id="line2d_17">
     <path d="M 35.925 20.298437 
L 55.925 20.298437 
" style="fill:none;stroke:#1f77b4;stroke-linecap:square;stroke-width:1.5;"/>
    </g>
    <g id="line2d_18"/>
    <g id="text_16">
     <!-- PETR4.SA -->
     <defs>
      <path d="M 19.671875 64.796875 
L 19.671875 37.40625 
L 32.078125 37.40625 
Q 38.96875 37.40625 42.71875 40.96875 
Q 46.484375 44.53125 46.484375 51.125 
Q 46.484375 57.671875 42.71875 61.234375 
Q 38.96875 64.796875 32.078125 64.796875 
z
M 9.8125 72.90625 
L 32.078125 72.90625 
Q 44.34375 72.90625 50.609375 67.359375 
Q 56.890625 61.8125 56.890625 51.125 
Q 56.890625 40.328125 50.609375 34.8125 
Q 44.34375 29.296875 32.078125 29.296875 
L 19.671875 29.296875 
L 19.671875 0 
L 9.8125 0 
z
" id="DejaVuSans-80"/>
      <path d="M 9.8125 72.90625 
L 55.90625 72.90625 
L 55.90625 64.59375 
L 19.671875 64.59375 
L 19.671875 43.015625 
L 54.390625 43.015625 
L 54.390625 34.71875 
L 19.671875 34.71875 
L 19.671875 8.296875 
L 56.78125 8.296875 
L 56.78125 0 
L 9.8125 0 
z
" id="DejaVuSans-69"/>
      <path d="M -0.296875 72.90625 
L 61.375 72.90625 
L 61.375 64.59375 
L 35.5 64.59375 
L 35.5 0 
L 25.59375 0 
L 25.59375 64.59375 
L -0.296875 64.59375 
z
" id="DejaVuSans-84"/>
      <path d="M 44.390625 34.1875 
Q 47.5625 33.109375 50.5625 29.59375 
Q 53.5625 26.078125 56.59375 19.921875 
L 66.609375 0 
L 56 0 
L 46.6875 18.703125 
Q 43.0625 26.03125 39.671875 28.421875 
Q 36.28125 30.8125 30.421875 30.8125 
L 19.671875 30.8125 
L 19.671875 0 
L 9.8125 0 
L 9.8125 72.90625 
L 32.078125 72.90625 
Q 44.578125 72.90625 50.734375 67.671875 
Q 56.890625 62.453125 56.890625 51.90625 
Q 56.890625 45.015625 53.6875 40.46875 
Q 50.484375 35.9375 44.390625 34.1875 
z
M 19.671875 64.796875 
L 19.671875 38.921875 
L 32.078125 38.921875 
Q 39.203125 38.921875 42.84375 42.21875 
Q 46.484375 45.515625 46.484375 51.90625 
Q 46.484375 58.296875 42.84375 61.546875 
Q 39.203125 64.796875 32.078125 64.796875 
z
" id="DejaVuSans-82"/>
      <path d="M 10.6875 12.40625 
L 21 12.40625 
L 21 0 
L 10.6875 0 
z
" id="DejaVuSans-46"/>
      <path d="M 53.515625 70.515625 
L 53.515625 60.890625 
Q 47.90625 63.578125 42.921875 64.890625 
Q 37.9375 66.21875 33.296875 66.21875 
Q 25.25 66.21875 20.875 63.09375 
Q 16.5 59.96875 16.5 54.203125 
Q 16.5 49.359375 19.40625 46.890625 
Q 22.3125 44.4375 30.421875 42.921875 
L 36.375 41.703125 
Q 47.40625 39.59375 52.65625 34.296875 
Q 57.90625 29 57.90625 20.125 
Q 57.90625 9.515625 50.796875 4.046875 
Q 43.703125 -1.421875 29.984375 -1.421875 
Q 24.8125 -1.421875 18.96875 -0.25 
Q 13.140625 0.921875 6.890625 3.21875 
L 6.890625 13.375 
Q 12.890625 10.015625 18.65625 8.296875 
Q 24.421875 6.59375 29.984375 6.59375 
Q 38.421875 6.59375 43.015625 9.90625 
Q 47.609375 13.234375 47.609375 19.390625 
Q 47.609375 24.75 44.3125 27.78125 
Q 41.015625 30.8125 33.5 32.328125 
L 27.484375 33.5 
Q 16.453125 35.6875 11.515625 40.375 
Q 6.59375 45.0625 6.59375 53.421875 
Q 6.59375 63.09375 13.40625 68.65625 
Q 20.21875 74.21875 32.171875 74.21875 
Q 37.3125 74.21875 42.625 73.28125 
Q 47.953125 72.359375 53.515625 70.515625 
z
" id="DejaVuSans-83"/>
      <path d="M 34.1875 63.1875 
L 20.796875 26.90625 
L 47.609375 26.90625 
z
M 28.609375 72.90625 
L 39.796875 72.90625 
L 67.578125 0 
L 57.328125 0 
L 50.6875 18.703125 
L 17.828125 18.703125 
L 11.1875 0 
L 0.78125 0 
z
" id="DejaVuSans-65"/>
     </defs>
     <g transform="translate(63.925 23.798437)scale(0.1 -0.1)">
      <use xlink:href="#DejaVuSans-80"/>
      <use x="60.302734" xlink:href="#DejaVuSans-69"/>
      <use x="123.486328" xlink:href="#DejaVuSans-84"/>
      <use x="184.570312" xlink:href="#DejaVuSans-82"/>
      <use x="254.052734" xlink:href="#DejaVuSans-52"/>
      <use x="317.675781" xlink:href="#DejaVuSans-46"/>
      <use x="349.462891" xlink:href="#DejaVuSans-83"/>
      <use x="412.955078" xlink:href="#DejaVuSans-65"/>
     </g>
    </g>
    <g id="line2d_19">
     <path d="M 35.925 34.976562 
L 55.925 34.976562 
" style="fill:none;stroke:#ff7f0e;stroke-linecap:square;stroke-width:1.5;"/>
    </g>
    <g id="line2d_20"/>
    <g id="text_17">
     <!-- PETR3.SA -->
     <g transform="translate(63.925 38.476562)scale(0.1 -0.1)">
      <use xlink:href="#DejaVuSans-80"/>
      <use x="60.302734" xlink:href="#DejaVuSans-69"/>
      <use x="123.486328" xlink:href="#DejaVuSans-84"/>
      <use x="184.570312" xlink:href="#DejaVuSans-82"/>
      <use x="254.052734" xlink:href="#DejaVuSans-51"/>
      <use x="317.675781" xlink:href="#DejaVuSans-46"/>
      <use x="349.462891" xlink:href="#DejaVuSans-83"/>
      <use x="412.955078" xlink:href="#DejaVuSans-65"/>
     </g>
    </g>
   </g>
  </g>
 </g>
 <defs>
  <clipPath id="p1db5a7bc5b">
   <rect height="391.68" width="669.6" x="26.925" y="7.2"/>
  </clipPath>
 </defs>
</svg>
