<?xml version="1.0" encoding="utf-8" standalone="no"?>
<!DOCTYPE svg PUBLIC "-//W3C//DTD SVG 1.1//EN"
  "http://www.w3.org/Graphics/SVG/1.1/DTD/svg11.dtd">
<!-- Created with matplotlib (https://matplotlib.org/) -->
<svg height="456.031033pt" version="1.1" viewBox="0 0 703.725 456.031033" width="703.725pt" xmlns="http://www.w3.org/2000/svg" xmlns:xlink="http://www.w3.org/1999/xlink">
 <defs>
  <style type="text/css">
*{stroke-linecap:butt;stroke-linejoin:round;}
  </style>
 </defs>
 <g id="figure_1">
  <g id="patch_1">
   <path d="M 0 456.031033 
L 703.725 456.031033 
L 703.725 0 
L 0 0 
z
" style="fill:none;"/>
  </g>
  <g id="axes_1">
   <g id="patch_2">
    <path d="M 26.925 398.88 
L 696.525 398.88 
L 696.525 7.2 
L 26.925 7.2 
z
" style="fill:#ffffff;"/>
   </g>
   <g id="matplotlib.axis_1">
    <g id="xtick_1">
     <g id="line2d_1">
      <defs>
       <path d="M 0 0 
L 0 3.5 
" id="mda19380c81" style="stroke:#000000;stroke-width:0.8;"/>
      </defs>
      <g>
       <use style="stroke:#000000;stroke-width:0.8;" x="56.600455" xlink:href="#mda19380c81" y="398.88"/>
      </g>
     </g>
     <g id="text_1">
      <!-- 2018-01 -->
      <defs>
       <path d="M 19.1875 8.296875 
L 53.609375 8.296875 
L 53.609375 0 
L 7.328125 0 
L 7.328125 8.296875 
Q 12.9375 14.109375 22.625 23.890625 
Q 32.328125 33.6875 34.8125 36.53125 
Q 39.546875 41.84375 41.421875 45.53125 
Q 43.3125 49.21875 43.3125 52.78125 
Q 43.3125 58.59375 39.234375 62.25 
Q 35.15625 65.921875 28.609375 65.921875 
Q 23.96875 65.921875 18.8125 64.3125 
Q 13.671875 62.703125 7.8125 59.421875 
L 7.8125 69.390625 
Q 13.765625 71.78125 18.9375 73 
Q 24.125 74.21875 28.421875 74.21875 
Q 39.75 74.21875 46.484375 68.546875 
Q 53.21875 62.890625 53.21875 53.421875 
Q 53.21875 48.921875 51.53125 44.890625 
Q 49.859375 40.875 45.40625 35.40625 
Q 44.1875 33.984375 37.640625 27.21875 
Q 31.109375 20.453125 19.1875 8.296875 
z
" id="DejaVuSans-50"/>
       <path d="M 31.78125 66.40625 
Q 24.171875 66.40625 20.328125 58.90625 
Q 16.5 51.421875 16.5 36.375 
Q 16.5 21.390625 20.328125 13.890625 
Q 24.171875 6.390625 31.78125 6.390625 
Q 39.453125 6.390625 43.28125 13.890625 
Q 47.125 21.390625 47.125 36.375 
Q 47.125 51.421875 43.28125 58.90625 
Q 39.453125 66.40625 31.78125 66.40625 
z
M 31.78125 74.21875 
Q 44.046875 74.21875 50.515625 64.515625 
Q 56.984375 54.828125 56.984375 36.375 
Q 56.984375 17.96875 50.515625 8.265625 
Q 44.046875 -1.421875 31.78125 -1.421875 
Q 19.53125 -1.421875 13.0625 8.265625 
Q 6.59375 17.96875 6.59375 36.375 
Q 6.59375 54.828125 13.0625 64.515625 
Q 19.53125 74.21875 31.78125 74.21875 
z
" id="DejaVuSans-48"/>
       <path d="M 12.40625 8.296875 
L 28.515625 8.296875 
L 28.515625 63.921875 
L 10.984375 60.40625 
L 10.984375 69.390625 
L 28.421875 72.90625 
L 38.28125 72.90625 
L 38.28125 8.296875 
L 54.390625 8.296875 
L 54.390625 0 
L 12.40625 0 
z
" id="DejaVuSans-49"/>
       <path d="M 31.78125 34.625 
Q 24.75 34.625 20.71875 30.859375 
Q 16.703125 27.09375 16.703125 20.515625 
Q 16.703125 13.921875 20.71875 10.15625 
Q 24.75 6.390625 31.78125 6.390625 
Q 38.8125 6.390625 42.859375 10.171875 
Q 46.921875 13.96875 46.921875 20.515625 
Q 46.921875 27.09375 42.890625 30.859375 
Q 38.875 34.625 31.78125 34.625 
z
M 21.921875 38.8125 
Q 15.578125 40.375 12.03125 44.71875 
Q 8.5 49.078125 8.5 55.328125 
Q 8.5 64.0625 14.71875 69.140625 
Q 20.953125 74.21875 31.78125 74.21875 
Q 42.671875 74.21875 48.875 69.140625 
Q 55.078125 64.0625 55.078125 55.328125 
Q 55.078125 49.078125 51.53125 44.71875 
Q 48 40.375 41.703125 38.8125 
Q 48.828125 37.15625 52.796875 32.3125 
Q 56.78125 27.484375 56.78125 20.515625 
Q 56.78125 9.90625 50.3125 4.234375 
Q 43.84375 -1.421875 31.78125 -1.421875 
Q 19.734375 -1.421875 13.25 4.234375 
Q 6.78125 9.90625 6.78125 20.515625 
Q 6.78125 27.484375 10.78125 32.3125 
Q 14.796875 37.15625 21.921875 38.8125 
z
M 18.3125 54.390625 
Q 18.3125 48.734375 21.84375 45.5625 
Q 25.390625 42.390625 31.78125 42.390625 
Q 38.140625 42.390625 41.71875 45.5625 
Q 45.3125 48.734375 45.3125 54.390625 
Q 45.3125 60.0625 41.71875 63.234375 
Q 38.140625 66.40625 31.78125 66.40625 
Q 25.390625 66.40625 21.84375 63.234375 
Q 18.3125 60.0625 18.3125 54.390625 
z
" id="DejaVuSans-56"/>
       <path d="M 4.890625 31.390625 
L 31.203125 31.390625 
L 31.203125 23.390625 
L 4.890625 23.390625 
z
" id="DejaVuSans-45"/>
      </defs>
      <g transform="translate(19.375634 433.351846)rotate(-30)scale(0.1 -0.1)">
       <use xlink:href="#DejaVuSans-50"/>
       <use x="63.623047" xlink:href="#DejaVuSans-48"/>
       <use x="127.246094" xlink:href="#DejaVuSans-49"/>
       <use x="190.869141" xlink:href="#DejaVuSans-56"/>
       <use x="254.492188" xlink:href="#DejaVuSans-45"/>
       <use x="290.576172" xlink:href="#DejaVuSans-48"/>
       <use x="354.199219" xlink:href="#DejaVuSans-49"/>
      </g>
     </g>
    </g>
    <g id="xtick_2">
     <g id="line2d_2">
      <g>
       <use style="stroke:#000000;stroke-width:0.8;" x="125.082273" xlink:href="#mda19380c81" y="398.88"/>
      </g>
     </g>
     <g id="text_2">
      <!-- 2018-04 -->
      <defs>
       <path d="M 37.796875 64.3125 
L 12.890625 25.390625 
L 37.796875 25.390625 
z
M 35.203125 72.90625 
L 47.609375 72.90625 
L 47.609375 25.390625 
L 58.015625 25.390625 
L 58.015625 17.1875 
L 47.609375 17.1875 
L 47.609375 0 
L 37.796875 0 
L 37.796875 17.1875 
L 4.890625 17.1875 
L 4.890625 26.703125 
z
" id="DejaVuSans-52"/>
      </defs>
      <g transform="translate(87.857452 433.351846)rotate(-30)scale(0.1 -0.1)">
       <use xlink:href="#DejaVuSans-50"/>
       <use x="63.623047" xlink:href="#DejaVuSans-48"/>
       <use x="127.246094" xlink:href="#DejaVuSans-49"/>
       <use x="190.869141" xlink:href="#DejaVuSans-56"/>
       <use x="254.492188" xlink:href="#DejaVuSans-45"/>
       <use x="290.576172" xlink:href="#DejaVuSans-48"/>
       <use x="354.199219" xlink:href="#DejaVuSans-52"/>
      </g>
     </g>
    </g>
    <g id="xtick_3">
     <g id="line2d_3">
      <g>
       <use style="stroke:#000000;stroke-width:0.8;" x="194.325" xlink:href="#mda19380c81" y="398.88"/>
      </g>
     </g>
     <g id="text_3">
      <!-- 2018-07 -->
      <defs>
       <path d="M 8.203125 72.90625 
L 55.078125 72.90625 
L 55.078125 68.703125 
L 28.609375 0 
L 18.3125 0 
L 43.21875 64.59375 
L 8.203125 64.59375 
z
" id="DejaVuSans-55"/>
      </defs>
      <g transform="translate(157.100179 433.351846)rotate(-30)scale(0.1 -0.1)">
       <use xlink:href="#DejaVuSans-50"/>
       <use x="63.623047" xlink:href="#DejaVuSans-48"/>
       <use x="127.246094" xlink:href="#DejaVuSans-49"/>
       <use x="190.869141" xlink:href="#DejaVuSans-56"/>
       <use x="254.492188" xlink:href="#DejaVuSans-45"/>
       <use x="290.576172" xlink:href="#DejaVuSans-48"/>
       <use x="354.199219" xlink:href="#DejaVuSans-55"/>
      </g>
     </g>
    </g>
    <g id="xtick_4">
     <g id="line2d_4">
      <g>
       <use style="stroke:#000000;stroke-width:0.8;" x="264.328636" xlink:href="#mda19380c81" y="398.88"/>
      </g>
     </g>
     <g id="text_4">
      <!-- 2018-10 -->
      <g transform="translate(227.103816 433.351846)rotate(-30)scale(0.1 -0.1)">
       <use xlink:href="#DejaVuSans-50"/>
       <use x="63.623047" xlink:href="#DejaVuSans-48"/>
       <use x="127.246094" xlink:href="#DejaVuSans-49"/>
       <use x="190.869141" xlink:href="#DejaVuSans-56"/>
       <use x="254.492188" xlink:href="#DejaVuSans-45"/>
       <use x="290.576172" xlink:href="#DejaVuSans-49"/>
       <use x="354.199219" xlink:href="#DejaVuSans-48"/>
      </g>
     </g>
    </g>
    <g id="xtick_5">
     <g id="line2d_5">
      <g>
       <use style="stroke:#000000;stroke-width:0.8;" x="334.332273" xlink:href="#mda19380c81" y="398.88"/>
      </g>
     </g>
     <g id="text_5">
      <!-- 2019-01 -->
      <defs>
       <path d="M 10.984375 1.515625 
L 10.984375 10.5 
Q 14.703125 8.734375 18.5 7.8125 
Q 22.3125 6.890625 25.984375 6.890625 
Q 35.75 6.890625 40.890625 13.453125 
Q 46.046875 20.015625 46.78125 33.40625 
Q 43.953125 29.203125 39.59375 26.953125 
Q 35.25 24.703125 29.984375 24.703125 
Q 19.046875 24.703125 12.671875 31.3125 
Q 6.296875 37.9375 6.296875 49.421875 
Q 6.296875 60.640625 12.9375 67.421875 
Q 19.578125 74.21875 30.609375 74.21875 
Q 43.265625 74.21875 49.921875 64.515625 
Q 56.59375 54.828125 56.59375 36.375 
Q 56.59375 19.140625 48.40625 8.859375 
Q 40.234375 -1.421875 26.421875 -1.421875 
Q 22.703125 -1.421875 18.890625 -0.6875 
Q 15.09375 0.046875 10.984375 1.515625 
z
M 30.609375 32.421875 
Q 37.25 32.421875 41.125 36.953125 
Q 45.015625 41.5 45.015625 49.421875 
Q 45.015625 57.28125 41.125 61.84375 
Q 37.25 66.40625 30.609375 66.40625 
Q 23.96875 66.40625 20.09375 61.84375 
Q 16.21875 57.28125 16.21875 49.421875 
Q 16.21875 41.5 20.09375 36.953125 
Q 23.96875 32.421875 30.609375 32.421875 
z
" id="DejaVuSans-57"/>
      </defs>
      <g transform="translate(297.107452 433.351846)rotate(-30)scale(0.1 -0.1)">
       <use xlink:href="#DejaVuSans-50"/>
       <use x="63.623047" xlink:href="#DejaVuSans-48"/>
       <use x="127.246094" xlink:href="#DejaVuSans-49"/>
       <use x="190.869141" xlink:href="#DejaVuSans-57"/>
       <use x="254.492188" xlink:href="#DejaVuSans-45"/>
       <use x="290.576172" xlink:href="#DejaVuSans-48"/>
       <use x="354.199219" xlink:href="#DejaVuSans-49"/>
      </g>
     </g>
    </g>
    <g id="xtick_6">
     <g id="line2d_6">
      <g>
       <use style="stroke:#000000;stroke-width:0.8;" x="402.814091" xlink:href="#mda19380c81" y="398.88"/>
      </g>
     </g>
     <g id="text_6">
      <!-- 2019-04 -->
      <g transform="translate(365.58927 433.351846)rotate(-30)scale(0.1 -0.1)">
       <use xlink:href="#DejaVuSans-50"/>
       <use x="63.623047" xlink:href="#DejaVuSans-48"/>
       <use x="127.246094" xlink:href="#DejaVuSans-49"/>
       <use x="190.869141" xlink:href="#DejaVuSans-57"/>
       <use x="254.492188" xlink:href="#DejaVuSans-45"/>
       <use x="290.576172" xlink:href="#DejaVuSans-48"/>
       <use x="354.199219" xlink:href="#DejaVuSans-52"/>
      </g>
     </g>
    </g>
    <g id="xtick_7">
     <g id="line2d_7">
      <g>
       <use style="stroke:#000000;stroke-width:0.8;" x="472.056818" xlink:href="#mda19380c81" y="398.88"/>
      </g>
     </g>
     <g id="text_7">
      <!-- 2019-07 -->
      <g transform="translate(434.831997 433.351846)rotate(-30)scale(0.1 -0.1)">
       <use xlink:href="#DejaVuSans-50"/>
       <use x="63.623047" xlink:href="#DejaVuSans-48"/>
       <use x="127.246094" xlink:href="#DejaVuSans-49"/>
       <use x="190.869141" xlink:href="#DejaVuSans-57"/>
       <use x="254.492188" xlink:href="#DejaVuSans-45"/>
       <use x="290.576172" xlink:href="#DejaVuSans-48"/>
       <use x="354.199219" xlink:href="#DejaVuSans-55"/>
      </g>
     </g>
    </g>
    <g id="xtick_8">
     <g id="line2d_8">
      <g>
       <use style="stroke:#000000;stroke-width:0.8;" x="542.060455" xlink:href="#mda19380c81" y="398.88"/>
      </g>
     </g>
     <g id="text_8">
      <!-- 2019-10 -->
      <g transform="translate(504.835634 433.351846)rotate(-30)scale(0.1 -0.1)">
       <use xlink:href="#DejaVuSans-50"/>
       <use x="63.623047" xlink:href="#DejaVuSans-48"/>
       <use x="127.246094" xlink:href="#DejaVuSans-49"/>
       <use x="190.869141" xlink:href="#DejaVuSans-57"/>
       <use x="254.492188" xlink:href="#DejaVuSans-45"/>
       <use x="290.576172" xlink:href="#DejaVuSans-49"/>
       <use x="354.199219" xlink:href="#DejaVuSans-48"/>
      </g>
     </g>
    </g>
    <g id="xtick_9">
     <g id="line2d_9">
      <g>
       <use style="stroke:#000000;stroke-width:0.8;" x="612.064091" xlink:href="#mda19380c81" y="398.88"/>
      </g>
     </g>
     <g id="text_9">
      <!-- 2020-01 -->
      <g transform="translate(574.83927 433.351846)rotate(-30)scale(0.1 -0.1)">
       <use xlink:href="#DejaVuSans-50"/>
       <use x="63.623047" xlink:href="#DejaVuSans-48"/>
       <use x="127.246094" xlink:href="#DejaVuSans-50"/>
       <use x="190.869141" xlink:href="#DejaVuSans-48"/>
       <use x="254.492188" xlink:href="#DejaVuSans-45"/>
       <use x="290.576172" xlink:href="#DejaVuSans-48"/>
       <use x="354.199219" xlink:href="#DejaVuSans-49"/>
      </g>
     </g>
    </g>
    <g id="xtick_10">
     <g id="line2d_10">
      <g>
       <use style="stroke:#000000;stroke-width:0.8;" x="681.306818" xlink:href="#mda19380c81" y="398.88"/>
      </g>
     </g>
     <g id="text_10">
      <!-- 2020-04 -->
      <g transform="translate(644.081997 433.351846)rotate(-30)scale(0.1 -0.1)">
       <use xlink:href="#DejaVuSans-50"/>
       <use x="63.623047" xlink:href="#DejaVuSans-48"/>
       <use x="127.246094" xlink:href="#DejaVuSans-50"/>
       <use x="190.869141" xlink:href="#DejaVuSans-48"/>
       <use x="254.492188" xlink:href="#DejaVuSans-45"/>
       <use x="290.576172" xlink:href="#DejaVuSans-48"/>
       <use x="354.199219" xlink:href="#DejaVuSans-52"/>
      </g>
     </g>
    </g>
    <g id="text_11">
     <!-- Date -->
     <defs>
      <path d="M 19.671875 64.796875 
L 19.671875 8.109375 
L 31.59375 8.109375 
Q 46.6875 8.109375 53.6875 14.9375 
Q 60.6875 21.78125 60.6875 36.53125 
Q 60.6875 51.171875 53.6875 57.984375 
Q 46.6875 64.796875 31.59375 64.796875 
z
M 9.8125 72.90625 
L 30.078125 72.90625 
Q 51.265625 72.90625 61.171875 64.09375 
Q 71.09375 55.28125 71.09375 36.53125 
Q 71.09375 17.671875 61.125 8.828125 
Q 51.171875 0 30.078125 0 
L 9.8125 0 
z
" id="DejaVuSans-68"/>
      <path d="M 34.28125 27.484375 
Q 23.390625 27.484375 19.1875 25 
Q 14.984375 22.515625 14.984375 16.5 
Q 14.984375 11.71875 18.140625 8.90625 
Q 21.296875 6.109375 26.703125 6.109375 
Q 34.1875 6.109375 38.703125 11.40625 
Q 43.21875 16.703125 43.21875 25.484375 
L 43.21875 27.484375 
z
M 52.203125 31.203125 
L 52.203125 0 
L 43.21875 0 
L 43.21875 8.296875 
Q 40.140625 3.328125 35.546875 0.953125 
Q 30.953125 -1.421875 24.3125 -1.421875 
Q 15.921875 -1.421875 10.953125 3.296875 
Q 6 8.015625 6 15.921875 
Q 6 25.140625 12.171875 29.828125 
Q 18.359375 34.515625 30.609375 34.515625 
L 43.21875 34.515625 
L 43.21875 35.40625 
Q 43.21875 41.609375 39.140625 45 
Q 35.0625 48.390625 27.6875 48.390625 
Q 23 48.390625 18.546875 47.265625 
Q 14.109375 46.140625 10.015625 43.890625 
L 10.015625 52.203125 
Q 14.9375 54.109375 19.578125 55.046875 
Q 24.21875 56 28.609375 56 
Q 40.484375 56 46.34375 49.84375 
Q 52.203125 43.703125 52.203125 31.203125 
z
" id="DejaVuSans-97"/>
      <path d="M 18.3125 70.21875 
L 18.3125 54.6875 
L 36.8125 54.6875 
L 36.8125 47.703125 
L 18.3125 47.703125 
L 18.3125 18.015625 
Q 18.3125 11.328125 20.140625 9.421875 
Q 21.96875 7.515625 27.59375 7.515625 
L 36.8125 7.515625 
L 36.8125 0 
L 27.59375 0 
Q 17.1875 0 13.234375 3.875 
Q 9.28125 7.765625 9.28125 18.015625 
L 9.28125 47.703125 
L 2.6875 47.703125 
L 2.6875 54.6875 
L 9.28125 54.6875 
L 9.28125 70.21875 
z
" id="DejaVuSans-116"/>
      <path d="M 56.203125 29.59375 
L 56.203125 25.203125 
L 14.890625 25.203125 
Q 15.484375 15.921875 20.484375 11.0625 
Q 25.484375 6.203125 34.421875 6.203125 
Q 39.59375 6.203125 44.453125 7.46875 
Q 49.3125 8.734375 54.109375 11.28125 
L 54.109375 2.78125 
Q 49.265625 0.734375 44.1875 -0.34375 
Q 39.109375 -1.421875 33.890625 -1.421875 
Q 20.796875 -1.421875 13.15625 6.1875 
Q 5.515625 13.8125 5.515625 26.8125 
Q 5.515625 40.234375 12.765625 48.109375 
Q 20.015625 56 32.328125 56 
Q 43.359375 56 49.78125 48.890625 
Q 56.203125 41.796875 56.203125 29.59375 
z
M 47.21875 32.234375 
Q 47.125 39.59375 43.09375 43.984375 
Q 39.0625 48.390625 32.421875 48.390625 
Q 24.90625 48.390625 20.390625 44.140625 
Q 15.875 39.890625 15.1875 32.171875 
z
" id="DejaVuSans-101"/>
     </defs>
     <g transform="translate(349.774219 446.751346)scale(0.1 -0.1)">
      <use xlink:href="#DejaVuSans-68"/>
      <use x="77.001953" xlink:href="#DejaVuSans-97"/>
      <use x="138.28125" xlink:href="#DejaVuSans-116"/>
      <use x="177.490234" xlink:href="#DejaVuSans-101"/>
     </g>
    </g>
   </g>
   <g id="matplotlib.axis_2">
    <g id="ytick_1">
     <g id="line2d_11">
      <defs>
       <path d="M 0 0 
L -3.5 0 
" id="mf4b310dac9" style="stroke:#000000;stroke-width:0.8;"/>
      </defs>
      <g>
       <use style="stroke:#000000;stroke-width:0.8;" x="26.925" xlink:href="#mf4b310dac9" y="342.04362"/>
      </g>
     </g>
     <g id="text_12">
      <!-- 10 -->
      <g transform="translate(7.2 345.842838)scale(0.1 -0.1)">
       <use xlink:href="#DejaVuSans-49"/>
       <use x="63.623047" xlink:href="#DejaVuSans-48"/>
      </g>
     </g>
    </g>
    <g id="ytick_2">
     <g id="line2d_12">
      <g>
       <use style="stroke:#000000;stroke-width:0.8;" x="26.925" xlink:href="#mf4b310dac9" y="268.535626"/>
      </g>
     </g>
     <g id="text_13">
      <!-- 20 -->
      <g transform="translate(7.2 272.334845)scale(0.1 -0.1)">
       <use xlink:href="#DejaVuSans-50"/>
       <use x="63.623047" xlink:href="#DejaVuSans-48"/>
      </g>
     </g>
    </g>
    <g id="ytick_3">
     <g id="line2d_13">
      <g>
       <use style="stroke:#000000;stroke-width:0.8;" x="26.925" xlink:href="#mf4b310dac9" y="195.027633"/>
      </g>
     </g>
     <g id="text_14">
      <!-- 30 -->
      <defs>
       <path d="M 40.578125 39.3125 
Q 47.65625 37.796875 51.625 33 
Q 55.609375 28.21875 55.609375 21.1875 
Q 55.609375 10.40625 48.1875 4.484375 
Q 40.765625 -1.421875 27.09375 -1.421875 
Q 22.515625 -1.421875 17.65625 -0.515625 
Q 12.796875 0.390625 7.625 2.203125 
L 7.625 11.71875 
Q 11.71875 9.328125 16.59375 8.109375 
Q 21.484375 6.890625 26.8125 6.890625 
Q 36.078125 6.890625 40.9375 10.546875 
Q 45.796875 14.203125 45.796875 21.1875 
Q 45.796875 27.640625 41.28125 31.265625 
Q 36.765625 34.90625 28.71875 34.90625 
L 20.21875 34.90625 
L 20.21875 43.015625 
L 29.109375 43.015625 
Q 36.375 43.015625 40.234375 45.921875 
Q 44.09375 48.828125 44.09375 54.296875 
Q 44.09375 59.90625 40.109375 62.90625 
Q 36.140625 65.921875 28.71875 65.921875 
Q 24.65625 65.921875 20.015625 65.03125 
Q 15.375 64.15625 9.8125 62.3125 
L 9.8125 71.09375 
Q 15.4375 72.65625 20.34375 73.4375 
Q 25.25 74.21875 29.59375 74.21875 
Q 40.828125 74.21875 47.359375 69.109375 
Q 53.90625 64.015625 53.90625 55.328125 
Q 53.90625 49.265625 50.4375 45.09375 
Q 46.96875 40.921875 40.578125 39.3125 
z
" id="DejaVuSans-51"/>
      </defs>
      <g transform="translate(7.2 198.826852)scale(0.1 -0.1)">
       <use xlink:href="#DejaVuSans-51"/>
       <use x="63.623047" xlink:href="#DejaVuSans-48"/>
      </g>
     </g>
    </g>
    <g id="ytick_4">
     <g id="line2d_14">
      <g>
       <use style="stroke:#000000;stroke-width:0.8;" x="26.925" xlink:href="#mf4b310dac9" y="121.519639"/>
      </g>
     </g>
     <g id="text_15">
      <!-- 40 -->
      <g transform="translate(7.2 125.318858)scale(0.1 -0.1)">
       <use xlink:href="#DejaVuSans-52"/>
       <use x="63.623047" xlink:href="#DejaVuSans-48"/>
      </g>
     </g>
    </g>
    <g id="ytick_5">
     <g id="line2d_15">
      <g>
       <use style="stroke:#000000;stroke-width:0.8;" x="26.925" xlink:href="#mf4b310dac9" y="48.011646"/>
      </g>
     </g>
     <g id="text_16">
      <!-- 50 -->
      <defs>
       <path d="M 10.796875 72.90625 
L 49.515625 72.90625 
L 49.515625 64.59375 
L 19.828125 64.59375 
L 19.828125 46.734375 
Q 21.96875 47.46875 24.109375 47.828125 
Q 26.265625 48.1875 28.421875 48.1875 
Q 40.625 48.1875 47.75 41.5 
Q 54.890625 34.8125 54.890625 23.390625 
Q 54.890625 11.625 47.5625 5.09375 
Q 40.234375 -1.421875 26.90625 -1.421875 
Q 22.3125 -1.421875 17.546875 -0.640625 
Q 12.796875 0.140625 7.71875 1.703125 
L 7.71875 11.625 
Q 12.109375 9.234375 16.796875 8.0625 
Q 21.484375 6.890625 26.703125 6.890625 
Q 35.15625 6.890625 40.078125 11.328125 
Q 45.015625 15.765625 45.015625 23.390625 
Q 45.015625 31 40.078125 35.4375 
Q 35.15625 39.890625 26.703125 39.890625 
Q 22.75 39.890625 18.8125 39.015625 
Q 14.890625 38.140625 10.796875 36.28125 
z
" id="DejaVuSans-53"/>
      </defs>
      <g transform="translate(7.2 51.810865)scale(0.1 -0.1)">
       <use xlink:href="#DejaVuSans-53"/>
       <use x="63.623047" xlink:href="#DejaVuSans-48"/>
      </g>
     </g>
    </g>
   </g>
   <g id="line2d_16">
    <path clip-path="url(#pfd89b49ab7)" d="M 57.361364 266.306529 
L 58.122273 264.200112 
L 58.883182 264.076226 
L 59.644091 262.341563 
L 61.926818 260.668787 
L 62.687727 263.456715 
L 63.448636 265.625047 
L 64.209545 265.74896 
L 64.970455 266.244586 
L 67.253182 268.412933 
L 68.014091 263.890356 
L 68.775 257.571146 
L 69.535909 252.305144 
L 70.296818 250.446526 
L 72.579545 245.923963 
L 73.340455 246.667374 
L 74.101364 248.278179 
L 74.862273 248.278179 
L 75.623182 250.942152 
L 77.905909 254.535447 
L 78.666818 252.119246 
L 79.427727 249.021618 
L 80.188636 248.46405 
L 80.949545 253.110512 
L 83.232273 258.996081 
L 83.993182 259.925362 
L 84.754091 258.190657 
L 85.515 264.881622 
L 86.275909 265.996759 
L 90.841364 261.598096 
L 91.602273 264.633809 
L 93.885 265.129421 
L 95.406818 262.71322 
L 96.167727 266.740198 
L 96.928636 262.837161 
L 99.211364 265.129421 
L 99.972273 265.687004 
L 101.494091 265.625047 
L 102.255 267.545594 
L 104.537727 266.554328 
L 105.298636 269.2183 
L 106.059545 267.483651 
L 106.820455 267.793393 
L 107.581364 273.183336 
L 109.864091 273.988704 
L 110.625 271.200832 
L 111.385909 273.369206 
L 112.146818 277.40227 
L 112.907727 275.826656 
L 115.190455 273.431724 
L 115.951364 270.721694 
L 116.712273 275.007352 
L 117.473182 277.465278 
L 118.234091 281.246729 
L 120.516818 283.200491 
L 121.277727 284.461007 
L 122.038636 284.587024 
L 122.799545 285.154281 
L 125.843182 286.666845 
L 126.604091 286.414755 
L 127.365 289.187793 
L 128.125909 288.998726 
L 128.886818 288.116414 
L 131.169545 286.666845 
L 131.930455 290.88948 
L 132.691364 291.393672 
L 133.452273 292.654161 
L 134.213182 297.443997 
L 136.495909 296.750765 
L 137.256818 295.616308 
L 138.017727 295.616308 
L 138.778636 297.065863 
L 139.539545 296.120486 
L 141.822273 297.696072 
L 142.583182 293.914649 
L 143.344091 294.5449 
L 144.105 293.284398 
L 144.865909 296.120486 
L 147.148636 294.5449 
L 148.670455 294.670917 
L 149.431364 302.170832 
L 150.192273 305.826245 
L 152.475 303.87249 
L 153.235909 301.162418 
L 153.996818 303.053165 
L 154.757727 301.477544 
L 155.518636 301.603589 
L 157.801364 301.162418 
L 158.562273 303.809475 
L 159.323182 305.132971 
L 160.084091 308.410258 
L 160.845 308.725334 
L 163.127727 310.237947 
L 164.649545 309.607689 
L 165.410455 306.33043 
L 166.171364 307.46486 
L 168.454091 309.103503 
L 169.215 311.561465 
L 169.975909 308.725334 
L 171.497727 306.58252 
L 173.780455 308.725334 
L 174.541364 311.876562 
L 175.302273 313.452183 
L 176.063182 314.712658 
L 176.824091 312.06565 
L 179.106818 315.973167 
L 179.867727 318.431107 
L 180.628636 323.662121 
L 181.389545 318.9353 
L 182.150455 319.754611 
L 184.433182 320.699995 
L 185.194091 315.027804 
L 185.955 312.821925 
L 186.715909 315.46896 
L 187.476818 318.9353 
L 189.759545 318.494137 
L 192.042273 312.191702 
L 192.803182 311.435413 
L 195.085909 312.735664 
L 195.846818 313.814586 
L 196.607727 314.004985 
L 197.368636 314.004985 
L 198.129545 314.258862 
L 201.173182 308.86418 
L 201.934091 310.895118 
L 202.695 311.466321 
L 203.455909 308.292997 
L 205.738636 303.215656 
L 206.499545 303.215656 
L 207.260455 307.658351 
L 208.021364 307.912185 
L 208.782273 306.896727 
L 211.065 307.40446 
L 211.825909 308.166076 
L 212.586818 310.387392 
L 213.347727 313.941521 
L 214.108636 314.004985 
L 216.391364 314.639667 
L 217.152273 324.47698 
L 217.913182 323.144181 
L 218.674091 323.842327 
L 219.435 324.096189 
L 221.717727 327.777253 
L 222.478636 331.267911 
L 223.239545 326.698317 
L 224.000455 323.524993 
L 224.761364 325.936721 
L 227.044091 324.47698 
L 227.805 319.843922 
L 228.565909 321.557533 
L 229.326818 320.478582 
L 230.087727 322.44607 
L 233.131364 324.096189 
L 233.892273 321.811382 
L 234.653182 321.049786 
L 235.414091 320.542053 
L 237.696818 318.764985 
L 238.457727 318.764985 
L 239.218636 318.384188 
L 239.979545 318.828463 
L 240.740455 319.716987 
L 243.023182 321.176735 
L 243.784091 321.36712 
L 244.545 322.19218 
L 245.305909 325.936721 
L 248.349545 323.524993 
L 249.110455 324.47698 
L 249.871364 323.524993 
L 250.632273 325.429003 
L 251.393182 326.063642 
L 253.675909 321.977679 
L 254.436818 324.153828 
L 255.197727 327.121275 
L 255.958636 331.93517 
L 256.719545 330.682239 
L 259.002273 332.132993 
L 259.763182 332.858373 
L 260.524091 332.528645 
L 261.285 332.4627 
L 262.045909 334.408897 
L 264.328636 335.071305 
L 265.089545 330.765759 
L 265.850455 334.210191 
L 266.611364 334.077711 
L 267.372273 334.077711 
L 269.655 330.765759 
L 270.415909 333.879005 
L 271.176818 333.415318 
L 271.937727 333.216619 
L 274.981364 334.077711 
L 275.742273 332.554219 
L 276.503182 331.428159 
L 277.264091 331.693119 
L 278.025 331.825571 
L 280.307727 330.434573 
L 281.068636 331.891825 
L 282.590455 336.064877 
L 283.351364 335.071305 
L 285.634091 333.547798 
L 286.395 331.891825 
L 287.155909 328.116214 
L 287.916818 330.03714 
L 290.960455 327.255101 
L 291.721364 330.16962 
L 292.482273 334.673864 
L 293.243182 342.423821 
L 294.004091 345.338327 
L 296.286818 345.802014 
L 297.047727 346.861833 
L 297.808636 350.438725 
L 299.330455 350.968652 
L 301.613182 354.21435 
L 303.135 353.485724 
L 303.895909 354.148117 
L 304.656818 354.28059 
L 307.700455 358.586129 
L 308.461364 355.141696 
L 309.222273 356.532723 
L 309.983182 352.492144 
L 312.265909 351.564798 
L 313.026818 352.425897 
L 313.787727 354.148117 
L 314.548636 351.763504 
L 315.309545 352.757098 
L 317.592273 355.406657 
L 318.353182 354.942983 
L 319.114091 353.618204 
L 319.875 354.21435 
L 320.635909 353.022051 
L 322.918636 351.13952 
L 323.679545 351.821136 
L 324.440455 350.526073 
L 325.201364 353.469166 
L 325.962273 353.12616 
L 329.766818 354.635345 
L 330.527727 355.870126 
L 331.288636 354.566756 
L 335.093182 349.490389 
L 335.854091 351.068177 
L 336.615 345.923242 
L 338.897727 346.540623 
L 339.658636 348.873002 
L 340.419545 346.060426 
L 341.180455 339.474882 
L 341.941364 342.081657 
L 344.224091 340.778287 
L 344.985 343.522253 
L 345.745909 345.305834 
L 346.506818 343.659451 
L 347.267727 344.071038 
L 349.550455 342.493258 
L 350.311364 344.20825 
L 351.072273 345.511634 
L 351.833182 342.287465 
L 354.876818 340.846855 
L 355.637727 337.211105 
L 356.398636 336.044898 
L 357.159545 333.643937 
L 357.920455 333.02655 
L 360.203182 335.153128 
L 360.964091 338.857481 
L 361.725 344.551235 
L 362.485909 342.150267 
L 363.246818 342.836264 
L 365.529545 339.680689 
L 366.290455 339.612073 
L 367.051364 340.229474 
L 367.812273 338.034293 
L 368.573182 340.366679 
L 370.855909 342.424663 
L 371.616818 341.327072 
L 372.377727 339.406286 
L 373.138636 340.778287 
L 373.899545 337.691294 
L 376.182273 339.015597 
L 376.943182 335.78563 
L 378.465 339.226242 
L 379.225909 339.71776 
L 383.791364 340.630581 
L 384.552273 339.436893 
L 386.835 337.470828 
L 387.595909 338.524079 
L 388.356818 339.787975 
L 389.117727 340.490144 
L 389.878636 341.613603 
L 392.161364 339.71776 
L 392.922273 337.470828 
L 393.683182 339.787975 
L 395.205 345.686169 
L 397.487727 348.143745 
L 398.248636 348.143745 
L 399.009545 349.969373 
L 399.770455 348.354397 
L 400.531364 348.534687 
L 402.814091 347.687243 
L 403.575 351.006318 
L 404.335909 353.124877 
L 405.096818 349.523331 
L 405.857727 349.876417 
L 408.140455 350.511989 
L 408.901364 349.452723 
L 409.662273 346.910449 
L 410.423182 349.31148 
L 411.184091 350.229524 
L 413.466818 351.853747 
L 414.227727 351.783126 
L 414.988636 352.70117 
L 415.749545 357.291367 
L 418.793182 358.915587 
L 419.554091 356.585174 
L 420.315 359.198062 
L 421.075909 359.551162 
L 421.836818 361.175385 
L 424.119545 359.621773 
L 424.880455 361.316625 
L 427.163182 363.43517 
L 429.445909 361.952186 
L 430.206818 362.587755 
L 430.967727 360.32796 
L 432.489545 362.305276 
L 434.772273 363.576406 
L 436.294091 363.22332 
L 437.055 365.0594 
L 437.815909 367.248574 
L 440.098636 366.47177 
L 440.859545 365.483111 
L 442.381364 362.587755 
L 443.142273 362.022808 
L 445.425 364.353217 
L 446.185909 365.694962 
L 446.946818 367.813521 
L 447.707727 367.813521 
L 448.468636 368.237229 
L 450.751364 368.025378 
L 451.512273 368.943422 
L 452.273182 368.519707 
L 453.034091 366.824866 
L 453.795 368.237229 
L 456.077727 369.155276 
L 456.838636 368.943422 
L 457.599545 369.801521 
L 458.360455 367.94293 
L 459.121364 368.371833 
L 461.404091 368.228865 
L 462.165 367.299567 
L 462.925909 366.584719 
L 464.447727 363.510884 
L 466.730455 363.728014 
L 467.491364 365.318142 
L 468.252273 365.390422 
L 469.013182 365.751811 
L 469.774091 366.629655 
L 472.056818 366.920861 
L 472.817727 367.867265 
L 473.578636 365.537648 
L 474.339545 364.591237 
L 475.100455 365.537648 
L 477.383182 364.518439 
L 479.665909 361.242414 
L 480.426818 362.916827 
L 482.709545 364.300037 
L 483.470455 364.518439 
L 484.231364 364.955242 
L 484.992273 366.775258 
L 485.753182 366.920861 
L 488.035909 364.591237 
L 488.796818 366.41125 
L 489.557727 360.077609 
L 491.079545 361.82482 
L 493.362273 362.407226 
L 494.123182 361.752022 
L 494.884091 362.844026 
L 495.645 354.763163 
L 496.405909 357.383987 
L 498.688636 358.840002 
L 499.449545 357.820793 
L 500.210455 357.96639 
L 500.971364 359.713604 
L 501.732273 359.422405 
L 504.015 360.805615 
L 504.775909 360.004804 
L 506.297727 361.679217 
L 507.058636 362.188821 
L 509.341364 362.698422 
L 510.863182 357.675193 
L 512.385 362.844026 
L 514.667727 362.407226 
L 515.428636 362.989632 
L 516.189545 362.698422 
L 517.711364 359.131202 
L 519.994091 360.296007 
L 520.755 359.495206 
L 521.515909 357.96639 
L 522.276818 359.131202 
L 523.037727 359.131202 
L 525.320455 361.024013 
L 526.081364 360.805615 
L 526.842273 359.495206 
L 527.603182 359.422405 
L 528.364091 359.907543 
L 530.646818 356.557245 
L 531.407727 355.683261 
L 532.168636 350.293654 
L 532.929545 353.643946 
L 533.690455 354.445093 
L 535.973182 352.842798 
L 536.734091 353.061287 
L 537.495 354.385527 
L 538.255909 354.897073 
L 539.016818 357.600951 
L 541.299545 357.089405 
L 542.060455 358.112494 
L 542.821364 360.670212 
L 543.582273 358.404801 
L 544.343182 359.208662 
L 546.625909 359.720204 
L 547.386818 360.743294 
L 548.147727 359.647122 
L 548.908636 360.962529 
L 549.669545 358.916347 
L 551.952273 358.697112 
L 552.713182 360.158669 
L 553.474091 359.647122 
L 554.235 360.012515 
L 554.995909 359.647122 
L 557.278636 359.28174 
L 558.039545 357.893262 
L 558.800455 358.331726 
L 559.561364 359.720204 
L 560.322273 357.893262 
L 562.605 358.47788 
L 563.365909 357.527869 
L 564.126818 359.647122 
L 564.887727 360.304822 
L 565.648636 361.474069 
L 567.931364 360.597136 
L 568.692273 361.474069 
L 569.453182 361.653615 
L 570.214091 359.67638 
L 570.975 358.870844 
L 573.257727 356.820368 
L 574.018636 357.332991 
L 574.779545 356.893601 
L 575.540455 357.772377 
L 578.584091 359.529914 
L 580.866818 359.603151 
L 581.627727 360.408686 
L 583.910455 358.284989 
L 584.671364 360.042537 
L 585.432273 360.921305 
L 586.193182 358.870844 
L 586.954091 358.431454 
L 589.236818 358.651149 
L 589.997727 358.211763 
L 590.758636 359.310223 
L 591.519545 356.380986 
L 592.280455 356.454222 
L 594.563182 355.941596 
L 595.324091 356.23452 
L 596.845909 354.0376 
L 597.606818 351.254825 
L 599.889545 354.550212 
L 600.650455 351.181589 
L 601.411364 351.547742 
L 602.172273 353.012362 
L 602.933182 353.524974 
L 605.215909 353.085592 
L 607.498636 351.840666 
L 608.259545 353.012362 
L 610.542273 354.257288 
L 612.825 352.634453 
L 613.585909 353.442022 
L 615.868636 354.983748 
L 616.629545 356.745719 
L 617.390455 358.067204 
L 618.151364 361.591154 
L 618.912273 361.224072 
L 621.195 361.003827 
L 621.955909 360.563336 
L 622.716818 362.178478 
L 623.477727 361.958229 
L 624.238636 362.472138 
L 626.521364 363.793619 
L 627.282273 364.894852 
L 628.043182 362.98605 
L 628.804091 363.27971 
L 629.565 364.160698 
L 631.847727 364.160698 
L 632.608636 362.325308 
L 633.369545 364.454358 
L 634.130455 363.499955 
L 634.891364 363.58146 
L 637.174091 362.919891 
L 637.935 364.390049 
L 638.695909 363.801986 
L 639.456818 361.376223 
L 640.217727 361.449729 
L 642.500455 362.331827 
L 643.261364 363.140413 
L 644.022273 361.743761 
L 644.783182 362.625859 
L 645.544091 361.964286 
L 647.826818 362.331827 
L 648.587727 361.155697 
L 649.348636 360.788159 
L 650.109545 362.625859 
L 650.870455 363.728476 
L 655.435909 367.844927 
L 656.196818 365.198638 
L 658.479545 363.507954 
L 659.240455 362.625859 
L 660.001364 361.376223 
L 660.762273 364.978113 
L 661.523182 367.33037 
L 663.805909 371.299801 
L 664.566818 368.947544 
L 665.327727 371.887864 
L 666.088636 381.076364 
L 666.088636 381.076364 
" style="fill:none;stroke:#1f77b4;stroke-linecap:square;stroke-width:1.5;"/>
   </g>
   <g id="line2d_17">
    <path clip-path="url(#pfd89b49ab7)" d="M 57.361364 256.823276 
L 58.122273 254.121224 
L 58.883182 253.081966 
L 59.644091 250.726319 
L 61.926818 249.964205 
L 62.687727 252.319852 
L 63.448636 253.774791 
L 64.209545 251.142014 
L 64.970455 251.973418 
L 67.253182 251.488448 
L 68.014091 250.379914 
L 68.775 248.994222 
L 69.535909 247.054299 
L 70.296818 243.174452 
L 72.579545 244.075089 
L 73.340455 245.25294 
L 74.101364 236.315366 
L 74.862273 236.315366 
L 75.623182 232.989779 
L 77.905909 232.712635 
L 78.666818 234.029023 
L 79.427727 234.860399 
L 80.188636 233.544039 
L 80.949545 235.414659 
L 83.232273 242.966569 
L 83.993182 242.412309 
L 84.754091 244.629391 
L 85.515 246.084344 
L 86.275909 249.340628 
L 90.841364 241.580905 
L 91.602273 238.601709 
L 93.885 238.878839 
L 94.645909 236.453931 
L 95.406818 230.841987 
L 96.167727 233.266895 
L 96.928636 228.417051 
L 99.211364 227.031401 
L 99.972273 231.950521 
L 100.733182 238.04745 
L 101.494091 238.255318 
L 102.255 236.246119 
L 104.537727 234.029023 
L 105.298636 233.68259 
L 106.059545 234.375429 
L 106.820455 234.791124 
L 107.581364 228.486327 
L 109.864091 228.694195 
L 110.625 229.109904 
L 112.146818 235.414659 
L 112.907727 237.14677 
L 115.190455 238.463159 
L 115.951364 234.998978 
L 116.712273 233.890459 
L 117.473182 235.553252 
L 118.234091 239.363838 
L 120.516818 237.77032 
L 121.277727 238.255318 
L 122.038636 234.721862 
L 122.799545 230.634119 
L 126.604091 232.296926 
L 127.365 234.236864 
L 128.125909 230.079859 
L 128.886818 229.802743 
L 131.169545 234.029023 
L 131.930455 233.474764 
L 132.691364 231.604102 
L 133.452273 229.248469 
L 134.213182 232.504781 
L 136.495909 239.710257 
L 137.256818 237.70103 
L 138.017727 233.68259 
L 138.778636 234.998978 
L 139.539545 237.49319 
L 141.822273 237.216046 
L 142.583182 239.595107 
L 143.344091 241.264266 
L 144.105 237.021805 
L 144.865909 235.909023 
L 147.148636 239.595107 
L 148.670455 244.393902 
L 149.431364 247.523566 
L 150.192273 248.358125 
L 152.475 248.775446 
L 153.235909 249.401365 
L 153.996818 248.219027 
L 154.757727 243.907053 
L 155.518636 251.418247 
L 157.801364 253.574241 
L 158.562273 256.982115 
L 159.323182 255.03476 
L 160.084091 261.78091 
L 160.845 260.598586 
L 163.127727 261.502729 
L 163.888636 253.156948 
L 164.649545 261.850452 
L 165.410455 265.327868 
L 166.171364 269.361646 
L 168.454091 272.769492 
L 169.215 271.378557 
L 169.975909 264.145544 
L 171.497727 260.80724 
L 173.780455 256.842989 
L 175.302273 266.649261 
L 176.063182 276.455561 
L 176.824091 270.613512 
L 179.106818 273.534537 
L 179.867727 269.500758 
L 180.628636 271.795822 
L 181.389545 275.412335 
L 182.150455 277.916039 
L 184.433182 281.949859 
L 185.194091 276.942396 
L 185.955 277.98558 
L 186.715909 279.446114 
L 187.476818 276.664201 
L 189.759545 271.656724 
L 190.520455 272.004489 
L 191.281364 275.06457 
L 192.042273 271.259368 
L 192.803182 271.751573 
L 195.085909 270.415528 
L 196.607727 266.899654 
L 197.368636 267.813779 
L 198.129545 262.610253 
L 201.173182 258.250539 
L 201.934091 258.180254 
L 203.455909 248.054468 
L 205.738636 250.304624 
L 206.499545 247.210642 
L 207.260455 252.273542 
L 208.021364 253.11734 
L 208.782273 252.062589 
L 211.065 253.890853 
L 211.825909 252.132888 
L 212.586818 248.33572 
L 213.347727 249.953045 
L 214.108636 249.249859 
L 217.152273 248.265421 
L 217.913182 249.109233 
L 218.674091 246.085564 
L 219.435 240.108553 
L 221.717727 241.72585 
L 222.478636 246.78875 
L 223.239545 250.796829 
L 224.000455 251.992248 
L 224.761364 255.36751 
L 227.044091 254.523698 
L 227.805 251.500043 
L 228.565909 252.484481 
L 229.326818 252.273542 
L 230.087727 256.984821 
L 232.370455 256.703555 
L 233.131364 259.445958 
L 233.892273 257.828633 
L 234.653182 266.969981 
L 235.414091 267.04028 
L 237.696818 262.610253 
L 238.457727 262.961846 
L 239.218636 259.094351 
L 239.979545 263.172799 
L 240.740455 262.539926 
L 243.023182 265.633936 
L 243.784091 268.516965 
L 244.545 262.118048 
L 245.305909 261.977408 
L 248.349545 261.696114 
L 249.110455 267.462186 
L 249.871364 266.477748 
L 250.632273 266.477748 
L 251.393182 263.454079 
L 253.675909 260.008504 
L 254.436818 259.445958 
L 255.197727 258.461506 
L 255.958636 256.141023 
L 256.719545 253.11734 
L 259.002273 254.136801 
L 259.763182 256.262553 
L 260.524091 255.412249 
L 261.285 249.956157 
L 262.045909 249.743592 
L 264.328636 252.932199 
L 265.089545 246.200686 
L 265.850455 243.57893 
L 266.611364 242.161776 
L 267.372273 243.720664 
L 269.655 240.532029 
L 270.415909 237.697707 
L 271.176818 239.823473 
L 271.937727 246.767551 
L 274.981364 244.712659 
L 275.742273 238.406291 
L 276.503182 236.280553 
L 277.264091 243.57893 
L 278.025 245.137831 
L 280.307727 241.240613 
L 281.068636 238.406291 
L 281.829545 241.453192 
L 282.590455 241.949197 
L 283.351364 235.713675 
L 285.634091 237.697707 
L 286.395 228.486158 
L 287.155909 227.494135 
L 287.916818 221.116908 
L 290.960455 222.463216 
L 291.721364 225.226678 
L 292.482273 231.674779 
L 293.243182 234.509129 
L 294.004091 233.517064 
L 296.286818 232.099924 
L 297.047727 233.091947 
L 297.808636 231.32048 
L 299.330455 222.179777 
L 301.613182 229.478181 
L 303.135 226.71472 
L 303.895909 227.13985 
L 304.656818 228.486158 
L 306.939545 228.557018 
L 307.700455 216.723727 
L 308.461364 215.73169 
L 309.222273 212.543083 
L 309.983182 215.73169 
L 312.265909 216.085989 
L 313.026818 217.857442 
L 313.787727 215.660844 
L 314.548636 212.968242 
L 315.309545 213.605938 
L 317.592273 220.620903 
L 318.353182 220.054053 
L 319.114091 216.085989 
L 319.875 219.274581 
L 320.635909 221.754632 
L 322.918636 225.651851 
L 323.679545 226.71472 
L 324.440455 230.186751 
L 325.201364 230.61191 
L 325.962273 226.076995 
L 329.766818 229.526665 
L 330.527727 228.741136 
L 331.288636 224.099441 
L 335.093182 217.101174 
L 335.854091 208.460485 
L 336.615 215.958612 
L 338.897727 217.029767 
L 339.658636 216.458514 
L 340.419545 215.530145 
L 341.180455 213.673475 
L 341.941364 209.388827 
L 344.224091 204.818538 
L 344.985 206.889456 
L 345.745909 202.390574 
L 346.506818 201.319419 
L 347.267727 198.463001 
L 349.550455 197.748879 
L 350.311364 202.961855 
L 351.833182 189.536644 
L 354.876818 185.394837 
L 355.637727 190.250766 
L 356.398636 190.822047 
L 357.159545 190.822047 
L 357.920455 187.465726 
L 360.203182 185.109154 
L 360.964091 180.039034 
L 361.725 185.609043 
L 362.485909 194.178353 
L 363.246818 191.821767 
L 365.529545 195.749368 
L 366.290455 193.321404 
L 367.051364 193.892684 
L 367.812273 184.466481 
L 368.573182 184.752121 
L 370.855909 187.251492 
L 371.616818 181.324395 
L 372.377727 183.109686 
L 373.138636 184.537902 
L 373.899545 178.539397 
L 376.182273 176.682714 
L 376.943182 173.826309 
L 378.465 181.395815 
L 379.225909 187.894208 
L 383.791364 193.535637 
L 384.552273 189.82227 
L 386.835 180.610315 
L 387.595909 179.539118 
L 388.356818 177.896724 
L 389.117727 178.610818 
L 389.878636 173.683496 
L 392.161364 170.184335 
L 392.922273 167.899184 
L 394.444091 176.539872 
L 395.205 183.109686 
L 397.487727 183.609574 
L 398.248636 177.753883 
L 399.009545 190.94882 
L 399.770455 185.202685 
L 400.531364 184.843549 
L 402.814091 181.539498 
L 403.575 180.964894 
L 404.335909 188.865859 
L 405.096818 180.390276 
L 405.857727 179.241013 
L 408.140455 178.522797 
L 408.901364 185.561807 
L 409.662273 184.699895 
L 411.184091 195.186626 
L 413.466818 191.810747 
L 414.227727 189.655959 
L 414.988636 192.169883 
L 415.749545 186.064612 
L 418.793182 186.064612 
L 419.554091 179.672032 
L 420.315 174.931464 
L 421.075909 165.809422 
L 421.836818 170.478177 
L 424.119545 168.466987 
L 424.880455 168.107893 
L 426.402273 172.05832 
L 427.163182 170.837299 
L 429.445909 173.494864 
L 430.206818 173.782201 
L 430.967727 168.826137 
L 431.728636 172.05832 
L 432.489545 176.36798 
L 434.772273 183.263337 
L 435.533182 181.395871 
L 436.294091 182.114129 
L 437.055 186.423748 
L 437.815909 187.860278 
L 440.098636 180.605772 
L 440.859545 169.041633 
L 441.620455 171.483758 
L 442.381364 168.897979 
L 443.142273 169.90356 
L 445.425 166.240358 
L 446.185909 158.842197 
L 446.946818 156.184632 
L 447.707727 151.946813 
L 448.468636 152.880581 
L 450.751364 153.383385 
L 451.512273 154.460807 
L 452.273182 157.549335 
L 453.034091 147.63718 
L 453.795 149.145566 
L 456.077727 147.99633 
L 456.838636 142.465677 
L 457.599545 145.195083 
L 458.360455 144.333156 
L 459.121364 158.770412 
L 461.404091 160.566078 
L 462.165 141.819218 
L 462.925909 146.990805 
L 464.447727 130.039611 
L 466.730455 130.398705 
L 467.491364 145.051428 
L 468.252273 149.163007 
L 469.013182 144.181735 
L 469.774091 145.120269 
L 472.056818 140.138969 
L 472.817727 144.47053 
L 473.578636 138.334189 
L 474.339545 128.660439 
L 475.100455 123.136376 
L 477.383182 123.8602 
L 478.905 110.831812 
L 479.665909 117.63553 
L 480.426818 128.202977 
L 482.709545 127.913481 
L 483.470455 118.793598 
L 484.231364 116.694584 
L 484.992273 118.576448 
L 485.753182 123.281152 
L 488.035909 116.260312 
L 488.796818 120.603089 
L 489.557727 107.719449 
L 490.318636 112.279377 
L 491.079545 110.54226 
L 493.362273 107.068055 
L 494.123182 103.376672 
L 494.884091 110.18039 
L 495.645 105.403313 
L 496.405909 103.449046 
L 498.688636 115.391711 
L 499.449545 105.765211 
L 500.210455 101.132881 
L 500.971364 87.453043 
L 501.732273 86.222601 
L 504.015 95.342484 
L 504.775909 83.616912 
L 505.536818 99.250989 
L 506.297727 101.784303 
L 507.058636 93.460591 
L 509.341364 86.222601 
L 510.102273 84.340736 
L 510.863182 83.906436 
L 511.624091 86.439723 
L 512.385 98.310042 
L 514.667727 109.38422 
L 516.189545 99.757663 
L 516.950455 94.980586 
L 517.711364 91.289174 
L 519.994091 97.513872 
L 520.755 98.889091 
L 521.515909 92.519673 
L 523.037727 83.327388 
L 525.320455 98.382444 
L 526.081364 97.803396 
L 526.842273 93.243469 
L 527.603182 93.605367 
L 528.364091 104.31759 
L 530.646818 103.810944 
L 531.407727 96.211056 
L 532.168636 90.420658 
L 532.929545 92.881543 
L 533.690455 87.525445 
L 535.973182 90.854902 
L 536.734091 94.908183 
L 537.495 94.706933 
L 538.255909 89.166325 
L 539.016818 92.009522 
L 541.299545 97.477223 
L 542.060455 96.456584 
L 542.821364 101.341086 
L 543.582273 97.695943 
L 544.343182 90.77019 
L 546.625909 102.070098 
L 547.386818 99.883006 
L 548.147727 95.508851 
L 548.908636 94.342399 
L 549.669545 87.125047 
L 551.952273 86.323128 
L 552.713182 91.061789 
L 553.474091 86.031501 
L 554.235 79.105748 
L 554.995909 76.991592 
L 557.278636 73.710954 
L 558.800455 63.86907 
L 559.561364 61.098808 
L 560.322273 62.629738 
L 562.605 60.151048 
L 563.365909 66.347761 
L 564.126818 61.973633 
L 564.887727 62.848459 
L 565.648636 56.870438 
L 568.692273 56.141427 
L 569.453182 59.057502 
L 570.214091 55.412359 
L 570.975 60.515554 
L 573.257727 50.309192 
L 574.018636 56.870438 
L 574.779545 54.464654 
L 575.540455 52.496283 
L 578.584091 58.036863 
L 579.345 66.05619 
L 580.866818 59.203316 
L 581.627727 54.756254 
L 583.910455 67.295521 
L 584.671364 76.554151 
L 585.432273 69.628398 
L 586.193182 64.525203 
L 586.954091 67.660027 
L 589.236818 68.53488 
L 589.997727 64.81683 
L 590.758636 55.558172 
L 592.280455 57.599478 
L 594.563182 68.170346 
L 595.324091 74.439966 
L 596.085 78.741242 
L 596.845909 75.169006 
L 597.606818 77.283163 
L 599.889545 78.595429 
L 600.650455 67.149707 
L 601.411364 61.536193 
L 602.172273 61.536193 
L 602.933182 57.599478 
L 605.215909 73.856768 
L 607.498636 75.460605 
L 608.259545 93.248881 
L 610.542273 102.28879 
L 612.825 83.95705 
L 613.585909 93.513084 
L 615.868636 96.600434 
L 616.629545 86.309304 
L 617.390455 87.19142 
L 618.151364 87.338411 
L 618.912273 89.911208 
L 621.195 89.543674 
L 621.955909 87.338411 
L 622.716818 96.159376 
L 623.477727 92.483977 
L 624.238636 82.26637 
L 626.521364 81.090243 
L 627.282273 86.970877 
L 628.043182 66.388644 
L 628.804091 57.56768 
L 629.565 55.435941 
L 631.847727 65.286013 
L 632.608636 54.774368 
L 633.369545 58.302776 
L 634.130455 56.832611 
L 634.891364 61.243079 
L 637.174091 47.350073 
L 637.935 48.305685 
L 639.456818 57.641203 
L 640.217727 60.508011 
L 642.500455 58.082233 
L 643.261364 56.097514 
L 644.022273 48.893734 
L 644.783182 51.098968 
L 645.544091 46.541481 
L 647.826818 35.588805 
L 648.587727 39.705235 
L 649.348636 25.003636 
L 650.109545 31.03129 
L 650.870455 32.942513 
L 655.435909 77.120805 
L 656.196818 62.713245 
L 658.479545 48.011646 
L 659.240455 50.878453 
L 660.001364 49.555307 
L 660.762273 69.255452 
L 661.523182 73.886463 
L 663.805909 114.903909 
L 664.566818 77.414843 
L 666.088636 144.38063 
L 666.088636 144.38063 
" style="fill:none;stroke:#ff7f0e;stroke-linecap:square;stroke-width:1.5;"/>
   </g>
   <g id="line2d_18">
    <path clip-path="url(#pfd89b49ab7)" d="M 57.361364 344.975966 
L 58.122273 344.975966 
L 58.883182 344.369234 
L 59.644091 343.447846 
L 61.926818 342.275218 
L 63.448636 342.400835 
L 64.970455 338.109148 
L 67.253182 337.041414 
L 68.014091 336.496857 
L 68.775 337.041414 
L 70.296818 337.041414 
L 72.579545 335.680364 
L 74.101364 335.5761 
L 74.862273 335.5761 
L 75.623182 335.785251 
L 77.905909 337.564598 
L 78.666818 337.564598 
L 80.188636 336.308442 
L 80.949545 336.015756 
L 83.232273 334.110155 
L 83.993182 334.487006 
L 84.754091 334.738233 
L 85.515 334.152237 
L 86.275909 336.622481 
L 90.841364 335.345595 
L 91.602273 334.529088 
L 93.885 335.177896 
L 95.406818 334.110155 
L 96.167727 333.901003 
L 96.928636 334.047343 
L 99.211364 334.089425 
L 99.972273 333.691852 
L 100.733182 334.529088 
L 101.494091 334.948022 
L 102.255 334.110155 
L 104.537727 334.948022 
L 106.820455 330.760592 
L 107.581364 327.096991 
L 109.864091 325.170674 
L 110.625 324.270626 
L 111.385909 325.945092 
L 112.146818 328.583035 
L 112.907727 330.655705 
L 115.190455 327.829347 
L 115.951364 326.573177 
L 116.712273 326.029264 
L 117.473182 315.386807 
L 118.234091 316.096358 
L 120.516818 315.269028 
L 121.277727 316.26239 
L 122.038636 316.640587 
L 122.799545 316.546214 
L 126.604091 317.302594 
L 127.365 316.688123 
L 128.125909 314.062799 
L 128.886818 315.056168 
L 131.169545 314.204701 
L 131.930455 314.062799 
L 132.691364 313.0453 
L 133.452273 315.269028 
L 134.213182 315.269028 
L 136.495909 314.795764 
L 138.778636 303.916255 
L 139.539545 303.797761 
L 141.822273 306.375556 
L 142.583182 305.85545 
L 143.344091 303.93967 
L 144.105 301.432833 
L 144.865909 302.426195 
L 147.148636 303.679266 
L 148.670455 303.230125 
L 149.431364 301.574755 
L 150.192273 296.583781 
L 152.475 298.381781 
L 153.235909 300.486299 
L 153.996818 301.078057 
L 154.757727 303.372034 
L 155.518636 301.550619 
L 157.801364 302.023889 
L 158.562273 296.347507 
L 159.323182 294.621172 
L 160.084091 296.229005 
L 160.845 300.226604 
L 163.127727 301.550619 
L 163.888636 299.421986 
L 164.649545 301.456247 
L 165.410455 300.865197 
L 166.171364 302.260177 
L 169.215 302.969715 
L 169.975909 301.50379 
L 171.497727 299.658968 
L 173.780455 295.04692 
L 174.541364 296.938556 
L 175.302273 294.597043 
L 176.063182 294.124494 
L 176.824091 294.029421 
L 179.106818 296.702282 
L 179.867727 299.70579 
L 180.628636 298.547105 
L 181.389545 297.766581 
L 182.150455 296.796641 
L 184.433182 297.956055 
L 185.194091 299.942779 
L 185.955 301.314338 
L 186.715909 303.395455 
L 187.476818 304.365403 
L 189.759545 303.490529 
L 190.520455 302.378665 
L 191.281364 302.851935 
L 192.042273 303.963084 
L 192.803182 301.19585 
L 195.085909 301.408703 
L 195.846818 302.49716 
L 196.607727 303.93967 
L 197.368636 301.669121 
L 198.129545 301.905381 
L 201.934091 297.837567 
L 202.695 293.745589 
L 203.455909 291.380661 
L 205.738636 292.2087 
L 206.499545 291.357247 
L 207.260455 290.907398 
L 208.021364 288.613428 
L 208.782273 287.430613 
L 211.065 286.958051 
L 211.825909 287.004894 
L 212.586818 285.113215 
L 214.108636 292.539361 
L 216.391364 291.333132 
L 217.152273 289.252021 
L 217.913182 289.370523 
L 218.674091 285.751822 
L 219.435 284.356134 
L 221.717727 282.842673 
L 222.478636 280.879363 
L 223.239545 276.692999 
L 224.000455 278.135544 
L 224.761364 278.845067 
L 227.044091 279.436846 
L 227.805 275.912518 
L 228.565909 275.179552 
L 229.326818 274.824776 
L 230.087727 275.889103 
L 232.370455 273.996738 
L 233.131364 275.297325 
L 233.892273 276.006876 
L 234.653182 280.595531 
L 235.414091 280.737433 
L 237.696818 278.940155 
L 238.457727 277.875842 
L 239.218636 276.101963 
L 239.979545 275.983462 
L 240.740455 274.966692 
L 243.023182 274.824776 
L 243.784091 274.138639 
L 245.305909 260.49189 
L 248.349545 261.840035 
L 249.110455 264.607282 
L 249.871364 266.191701 
L 250.632273 267.232614 
L 251.393182 266.546477 
L 253.675909 266.546477 
L 254.436818 269.6685 
L 255.958636 266.711807 
L 256.719545 265.836925 
L 259.002273 264.181562 
L 259.763182 262.147267 
L 260.524091 260.633806 
L 261.285 261.106368 
L 262.045909 258.386678 
L 264.328636 259.451005 
L 265.089545 256.494298 
L 265.850455 261.934407 
L 266.611364 264.181562 
L 267.372273 264.323464 
L 269.655 269.975718 
L 270.415909 272.222859 
L 271.176818 269.786973 
L 271.937727 266.026385 
L 274.981364 265.836925 
L 275.742273 258.102846 
L 276.503182 252.307976 
L 277.264091 251.456509 
L 278.025 252.355506 
L 280.307727 253.041657 
L 281.068636 245.61481 
L 281.829545 251.243649 
L 282.590455 250.345367 
L 283.351364 252.119232 
L 285.634091 254.649462 
L 286.395 246.868555 
L 287.155909 244.172307 
L 287.916818 251.409666 
L 290.960455 253.538334 
L 291.721364 254.247886 
L 292.482273 260.65722 
L 293.243182 252.263769 
L 294.004091 250.975675 
L 296.286818 247.403761 
L 297.047727 243.02997 
L 297.808636 242.180003 
L 299.330455 238.89966 
L 301.613182 238.437501 
L 303.135 236.445239 
L 306.939545 234.185465 
L 307.700455 229.689934 
L 308.461364 230.881062 
L 309.222273 231.852756 
L 309.983182 233.675187 
L 312.265909 236.518146 
L 313.026818 234.185465 
L 313.787727 234.768635 
L 314.548636 233.43245 
L 315.309545 231.123814 
L 317.592273 232.824491 
L 319.114091 231.731043 
L 319.875 230.881062 
L 320.635909 228.960964 
L 322.918636 230.418903 
L 323.679545 222.570866 
L 324.440455 221.379751 
L 325.201364 219.679074 
L 325.962273 219.217644 
L 329.766818 219.460396 
L 330.527727 218.002456 
L 331.288636 212.753938 
L 335.093182 213.142461 
L 336.615 217.759704 
L 338.897727 215.766741 
L 339.658636 213.871431 
L 340.419545 214.406483 
L 341.941364 222.497987 
L 344.224091 223.347954 
L 344.985 221.161059 
L 345.745909 213.871431 
L 346.506818 212.413505 
L 347.267727 206.071512 
L 349.550455 206.460792 
L 350.311364 205.148638 
L 351.072273 205.342556 
L 351.833182 201.892382 
L 354.876818 201.285139 
L 355.637727 205.586023 
L 357.159545 208.380147 
L 357.920455 204.613586 
L 360.203182 202.936968 
L 361.725 206.581789 
L 362.485909 207.068007 
L 363.246818 198.781884 
L 365.529545 198.708977 
L 366.290455 189.815624 
L 367.051364 195.258803 
L 367.812273 192.00252 
L 368.573182 194.068404 
L 370.855909 192.73149 
L 371.616818 191.759754 
L 372.377727 190.180102 
L 373.138636 185.053311 
L 373.899545 188.601165 
L 376.182273 188.357699 
L 376.943182 187.750469 
L 377.704091 196.862515 
L 378.465 199.292161 
L 379.225909 196.692656 
L 383.791364 205.36733 
L 384.552273 194.189415 
L 386.835 194.432896 
L 388.356818 198.733766 
L 389.117727 199.292161 
L 389.878636 201.503831 
L 392.161364 197.372792 
L 392.922273 194.432896 
L 393.683182 194.432896 
L 394.444091 195.38053 
L 395.205 198.460856 
L 397.487727 195.343333 
L 398.248636 195.051019 
L 399.009545 198.071337 
L 399.770455 198.753156 
L 400.531364 193.272304 
L 403.575 190.958663 
L 404.335909 187.791451 
L 405.096818 191.372269 
L 405.857727 183.94315 
L 408.140455 180.313388 
L 408.901364 183.65085 
L 409.662273 187.986575 
L 411.184091 182.920072 
L 413.466818 183.455727 
L 414.227727 184.16239 
L 414.988636 184.137545 
L 415.749545 189.301982 
L 418.793182 184.966243 
L 419.554091 177.21998 
L 420.315 178.535387 
L 421.075909 176.829761 
L 421.836818 184.966243 
L 424.119545 184.381629 
L 424.880455 186.817319 
L 426.402273 180.483653 
L 427.163182 171.714284 
L 429.445909 175.612246 
L 430.206818 173.175841 
L 431.728636 173.175841 
L 432.489545 169.327568 
L 434.772273 177.195136 
L 435.533182 175.636361 
L 436.294091 179.266166 
L 437.055 179.82595 
L 437.815909 173.175841 
L 440.098636 161.702611 
L 440.859545 162.458206 
L 441.620455 164.114171 
L 442.381364 165.13725 
L 443.142273 172.201722 
L 445.425 173.760469 
L 446.185909 166.86702 
L 446.946818 164.869794 
L 447.707727 161.483358 
L 448.468636 167.378573 
L 450.751364 172.201722 
L 451.512273 168.767027 
L 452.273182 178.827715 
L 453.034091 184.502948 
L 453.795 175.514354 
L 456.077727 175.441251 
L 456.838636 179.509506 
L 457.599545 179.801834 
L 458.360455 181.701855 
L 459.121364 187.548097 
L 461.404091 180.727723 
L 462.165 176.269949 
L 462.925909 176.074839 
L 464.447727 173.2248 
L 466.730455 169.400615 
L 467.491364 174.832535 
L 468.252273 171.958353 
L 469.013182 173.41991 
L 469.774091 175.612246 
L 472.056818 168.913205 
L 472.817727 179.266166 
L 473.578636 181.117213 
L 474.339545 181.604651 
L 475.100455 179.923869 
L 477.383182 184.137545 
L 478.905 168.425767 
L 479.665909 181.287493 
L 480.426818 186.500889 
L 482.709545 189.497092 
L 483.470455 189.667357 
L 485.753182 199.728018 
L 488.035909 190.836614 
L 488.796818 183.552917 
L 489.557727 182.920072 
L 490.318636 182.920072 
L 491.079545 183.552917 
L 493.362273 184.820107 
L 494.123182 187.377818 
L 494.884091 184.137545 
L 495.645 191.859707 
L 496.405909 192.66356 
L 498.688636 192.347131 
L 499.449545 179.266166 
L 500.210455 174.442989 
L 500.971364 179.631569 
L 501.732273 172.689132 
L 504.015 176.269949 
L 504.775909 170.569872 
L 505.536818 170.66709 
L 506.297727 172.98146 
L 507.058636 167.378573 
L 509.341364 170.496796 
L 510.102273 170.398877 
L 510.863182 166.793917 
L 511.624091 170.009387 
L 512.385 170.740137 
L 514.667727 175.612246 
L 515.428636 171.470915 
L 516.189545 173.175841 
L 517.711364 151.252432 
L 519.994091 160.509211 
L 520.755 164.479546 
L 521.515909 163.432353 
L 523.037727 168.986252 
L 525.320455 163.286174 
L 526.081364 162.701574 
L 526.842273 158.194841 
L 527.603182 159.778432 
L 528.364091 164.650541 
L 530.646818 154.906352 
L 531.407727 140.94843 
L 532.168636 143.944619 
L 532.929545 142.385844 
L 533.690455 144.651282 
L 535.973182 143.01946 
L 536.734091 146.624393 
L 537.495 146.940836 
L 538.255909 145.016658 
L 539.016818 141.655094 
L 541.299545 140.339687 
L 542.060455 143.335876 
L 542.821364 147.793649 
L 543.582273 155.393762 
L 544.343182 149.91291 
L 546.625909 158.316876 
L 547.386818 156.27069 
L 548.147727 152.836023 
L 548.908636 153.712952 
L 549.669545 149.839834 
L 551.952273 146.185914 
L 552.713182 145.308986 
L 553.474091 146.624393 
L 554.235 141.728141 
L 554.995909 143.262801 
L 557.278636 133.104949 
L 558.039545 129.085654 
L 558.800455 129.451029 
L 559.561364 131.277989 
L 560.322273 132.739546 
L 562.605 133.178025 
L 563.365909 139.31658 
L 564.126818 142.605097 
L 564.887727 139.389655 
L 565.648636 135.297313 
L 567.931364 133.178025 
L 568.692273 132.739546 
L 569.453182 137.781948 
L 570.214091 149.91291 
L 570.975 159.047682 
L 573.257727 149.182131 
L 574.018636 148.305203 
L 574.779545 148.743681 
L 575.540455 141.874319 
L 578.584091 149.328281 
L 579.345 145.042203 
L 580.866818 139.676123 
L 581.627727 138.941026 
L 583.910455 139.823142 
L 584.671364 144.160115 
L 585.432273 143.425018 
L 586.193182 139.161569 
L 586.954091 142.616426 
L 589.997727 141.954853 
L 590.758636 144.307106 
L 591.519545 142.101872 
L 592.280455 143.057484 
L 594.563182 144.895184 
L 595.324091 144.674669 
L 596.085 145.483233 
L 596.845909 139.602599 
L 597.606818 145.924291 
L 599.889545 145.483233 
L 600.650455 141.954853 
L 601.411364 134.677577 
L 602.172273 134.383538 
L 602.933182 129.237973 
L 605.215909 127.988351 
L 607.498636 121.740155 
L 608.259545 125.04802 
L 610.542273 129.237973 
L 612.825 122.328232 
L 613.585909 124.606962 
L 615.868636 127.326778 
L 616.629545 125.415554 
L 617.390455 124.312951 
L 618.151364 113.066209 
L 618.912273 112.919218 
L 621.195 110.346421 
L 621.955909 112.404636 
L 622.716818 105.27438 
L 623.477727 108.288206 
L 624.238636 97.92358 
L 626.521364 93.219073 
L 627.282273 99.393746 
L 628.043182 85.500712 
L 629.565 100.790388 
L 631.847727 107.55311 
L 632.608636 89.837684 
L 633.369545 92.116442 
L 634.130455 90.86682 
L 634.891364 86.015265 
L 637.174091 115.859521 
L 637.935 112.037102 
L 638.695909 103.142641 
L 639.456818 102.04001 
L 640.217727 124.974524 
L 642.500455 172.901739 
L 643.261364 160.846405 
L 644.783182 174.4454 
L 645.544091 160.846405 
L 647.826818 146.512368 
L 648.587727 148.717603 
L 649.348636 145.997815 
L 650.109545 162.757628 
L 650.870455 176.503615 
L 655.435909 164.668824 
L 656.196818 171.137535 
L 658.479545 192.45485 
L 659.240455 209.729232 
L 660.001364 275.518891 
L 660.762273 298.159346 
L 661.523182 295.219022 
L 663.805909 314.404612 
L 664.566818 314.845663 
L 665.327727 322.269972 
L 666.088636 348.291802 
L 666.088636 348.291802 
" style="fill:none;stroke:#2ca02c;stroke-linecap:square;stroke-width:1.5;"/>
   </g>
   <g id="patch_3">
    <path d="M 26.925 398.88 
L 26.925 7.2 
" style="fill:none;stroke:#000000;stroke-linecap:square;stroke-linejoin:miter;stroke-width:0.8;"/>
   </g>
   <g id="patch_4">
    <path d="M 696.525 398.88 
L 696.525 7.2 
" style="fill:none;stroke:#000000;stroke-linecap:square;stroke-linejoin:miter;stroke-width:0.8;"/>
   </g>
   <g id="patch_5">
    <path d="M 26.925 398.88 
L 696.525 398.88 
" style="fill:none;stroke:#000000;stroke-linecap:square;stroke-linejoin:miter;stroke-width:0.8;"/>
   </g>
   <g id="patch_6">
    <path d="M 26.925 7.2 
L 696.525 7.2 
" style="fill:none;stroke:#000000;stroke-linecap:square;stroke-linejoin:miter;stroke-width:0.8;"/>
   </g>
   <g id="legend_1">
    <g id="patch_7">
     <path d="M 33.925 59.234375 
L 115.070313 59.234375 
Q 117.070313 59.234375 117.070313 57.234375 
L 117.070313 14.2 
Q 117.070313 12.2 115.070313 12.2 
L 33.925 12.2 
Q 31.925 12.2 31.925 14.2 
L 31.925 57.234375 
Q 31.925 59.234375 33.925 59.234375 
z
" style="fill:#ffffff;opacity:0.8;stroke:#cccccc;stroke-linejoin:miter;"/>
    </g>
    <g id="line2d_19">
     <path d="M 35.925 20.298437 
L 55.925 20.298437 
" style="fill:none;stroke:#1f77b4;stroke-linecap:square;stroke-width:1.5;"/>
    </g>
    <g id="line2d_20"/>
    <g id="text_17">
     <!-- CIEL3.SA -->
     <defs>
      <path d="M 64.40625 67.28125 
L 64.40625 56.890625 
Q 59.421875 61.53125 53.78125 63.8125 
Q 48.140625 66.109375 41.796875 66.109375 
Q 29.296875 66.109375 22.65625 58.46875 
Q 16.015625 50.828125 16.015625 36.375 
Q 16.015625 21.96875 22.65625 14.328125 
Q 29.296875 6.6875 41.796875 6.6875 
Q 48.140625 6.6875 53.78125 8.984375 
Q 59.421875 11.28125 64.40625 15.921875 
L 64.40625 5.609375 
Q 59.234375 2.09375 53.4375 0.328125 
Q 47.65625 -1.421875 41.21875 -1.421875 
Q 24.65625 -1.421875 15.125 8.703125 
Q 5.609375 18.84375 5.609375 36.375 
Q 5.609375 53.953125 15.125 64.078125 
Q 24.65625 74.21875 41.21875 74.21875 
Q 47.75 74.21875 53.53125 72.484375 
Q 59.328125 70.75 64.40625 67.28125 
z
" id="DejaVuSans-67"/>
      <path d="M 9.8125 72.90625 
L 19.671875 72.90625 
L 19.671875 0 
L 9.8125 0 
z
" id="DejaVuSans-73"/>
      <path d="M 9.8125 72.90625 
L 55.90625 72.90625 
L 55.90625 64.59375 
L 19.671875 64.59375 
L 19.671875 43.015625 
L 54.390625 43.015625 
L 54.390625 34.71875 
L 19.671875 34.71875 
L 19.671875 8.296875 
L 56.78125 8.296875 
L 56.78125 0 
L 9.8125 0 
z
" id="DejaVuSans-69"/>
      <path d="M 9.8125 72.90625 
L 19.671875 72.90625 
L 19.671875 8.296875 
L 55.171875 8.296875 
L 55.171875 0 
L 9.8125 0 
z
" id="DejaVuSans-76"/>
      <path d="M 10.6875 12.40625 
L 21 12.40625 
L 21 0 
L 10.6875 0 
z
" id="DejaVuSans-46"/>
      <path d="M 53.515625 70.515625 
L 53.515625 60.890625 
Q 47.90625 63.578125 42.921875 64.890625 
Q 37.9375 66.21875 33.296875 66.21875 
Q 25.25 66.21875 20.875 63.09375 
Q 16.5 59.96875 16.5 54.203125 
Q 16.5 49.359375 19.40625 46.890625 
Q 22.3125 44.4375 30.421875 42.921875 
L 36.375 41.703125 
Q 47.40625 39.59375 52.65625 34.296875 
Q 57.90625 29 57.90625 20.125 
Q 57.90625 9.515625 50.796875 4.046875 
Q 43.703125 -1.421875 29.984375 -1.421875 
Q 24.8125 -1.421875 18.96875 -0.25 
Q 13.140625 0.921875 6.890625 3.21875 
L 6.890625 13.375 
Q 12.890625 10.015625 18.65625 8.296875 
Q 24.421875 6.59375 29.984375 6.59375 
Q 38.421875 6.59375 43.015625 9.90625 
Q 47.609375 13.234375 47.609375 19.390625 
Q 47.609375 24.75 44.3125 27.78125 
Q 41.015625 30.8125 33.5 32.328125 
L 27.484375 33.5 
Q 16.453125 35.6875 11.515625 40.375 
Q 6.59375 45.0625 6.59375 53.421875 
Q 6.59375 63.09375 13.40625 68.65625 
Q 20.21875 74.21875 32.171875 74.21875 
Q 37.3125 74.21875 42.625 73.28125 
Q 47.953125 72.359375 53.515625 70.515625 
z
" id="DejaVuSans-83"/>
      <path d="M 34.1875 63.1875 
L 20.796875 26.90625 
L 47.609375 26.90625 
z
M 28.609375 72.90625 
L 39.796875 72.90625 
L 67.578125 0 
L 57.328125 0 
L 50.6875 18.703125 
L 17.828125 18.703125 
L 11.1875 0 
L 0.78125 0 
z
" id="DejaVuSans-65"/>
     </defs>
     <g transform="translate(63.925 23.798437)scale(0.1 -0.1)">
      <use xlink:href="#DejaVuSans-67"/>
      <use x="69.824219" xlink:href="#DejaVuSans-73"/>
      <use x="99.316406" xlink:href="#DejaVuSans-69"/>
      <use x="162.5" xlink:href="#DejaVuSans-76"/>
      <use x="218.212891" xlink:href="#DejaVuSans-51"/>
      <use x="281.835938" xlink:href="#DejaVuSans-46"/>
      <use x="313.623047" xlink:href="#DejaVuSans-83"/>
      <use x="377.115234" xlink:href="#DejaVuSans-65"/>
     </g>
    </g>
    <g id="line2d_21">
     <path d="M 35.925 34.976562 
L 55.925 34.976562 
" style="fill:none;stroke:#ff7f0e;stroke-linecap:square;stroke-width:1.5;"/>
    </g>
    <g id="line2d_22"/>
    <g id="text_18">
     <!-- B3SA3.SA -->
     <defs>
      <path d="M 19.671875 34.8125 
L 19.671875 8.109375 
L 35.5 8.109375 
Q 43.453125 8.109375 47.28125 11.40625 
Q 51.125 14.703125 51.125 21.484375 
Q 51.125 28.328125 47.28125 31.5625 
Q 43.453125 34.8125 35.5 34.8125 
z
M 19.671875 64.796875 
L 19.671875 42.828125 
L 34.28125 42.828125 
Q 41.5 42.828125 45.03125 45.53125 
Q 48.578125 48.25 48.578125 53.8125 
Q 48.578125 59.328125 45.03125 62.0625 
Q 41.5 64.796875 34.28125 64.796875 
z
M 9.8125 72.90625 
L 35.015625 72.90625 
Q 46.296875 72.90625 52.390625 68.21875 
Q 58.5 63.53125 58.5 54.890625 
Q 58.5 48.1875 55.375 44.234375 
Q 52.25 40.28125 46.1875 39.3125 
Q 53.46875 37.75 57.5 32.78125 
Q 61.53125 27.828125 61.53125 20.40625 
Q 61.53125 10.640625 54.890625 5.3125 
Q 48.25 0 35.984375 0 
L 9.8125 0 
z
" id="DejaVuSans-66"/>
     </defs>
     <g transform="translate(63.925 38.476562)scale(0.1 -0.1)">
      <use xlink:href="#DejaVuSans-66"/>
      <use x="68.603516" xlink:href="#DejaVuSans-51"/>
      <use x="132.226562" xlink:href="#DejaVuSans-83"/>
      <use x="195.71875" xlink:href="#DejaVuSans-65"/>
      <use x="264.126953" xlink:href="#DejaVuSans-51"/>
      <use x="327.75" xlink:href="#DejaVuSans-46"/>
      <use x="359.537109" xlink:href="#DejaVuSans-83"/>
      <use x="423.029297" xlink:href="#DejaVuSans-65"/>
     </g>
    </g>
    <g id="line2d_23">
     <path d="M 35.925 49.654687 
L 55.925 49.654687 
" style="fill:none;stroke:#2ca02c;stroke-linecap:square;stroke-width:1.5;"/>
    </g>
    <g id="line2d_24"/>
    <g id="text_19">
     <!-- IRBR3.SA -->
     <defs>
      <path d="M 44.390625 34.1875 
Q 47.5625 33.109375 50.5625 29.59375 
Q 53.5625 26.078125 56.59375 19.921875 
L 66.609375 0 
L 56 0 
L 46.6875 18.703125 
Q 43.0625 26.03125 39.671875 28.421875 
Q 36.28125 30.8125 30.421875 30.8125 
L 19.671875 30.8125 
L 19.671875 0 
L 9.8125 0 
L 9.8125 72.90625 
L 32.078125 72.90625 
Q 44.578125 72.90625 50.734375 67.671875 
Q 56.890625 62.453125 56.890625 51.90625 
Q 56.890625 45.015625 53.6875 40.46875 
Q 50.484375 35.9375 44.390625 34.1875 
z
M 19.671875 64.796875 
L 19.671875 38.921875 
L 32.078125 38.921875 
Q 39.203125 38.921875 42.84375 42.21875 
Q 46.484375 45.515625 46.484375 51.90625 
Q 46.484375 58.296875 42.84375 61.546875 
Q 39.203125 64.796875 32.078125 64.796875 
z
" id="DejaVuSans-82"/>
     </defs>
     <g transform="translate(63.925 53.154687)scale(0.1 -0.1)">
      <use xlink:href="#DejaVuSans-73"/>
      <use x="29.492188" xlink:href="#DejaVuSans-82"/>
      <use x="98.974609" xlink:href="#DejaVuSans-66"/>
      <use x="167.578125" xlink:href="#DejaVuSans-82"/>
      <use x="237.060547" xlink:href="#DejaVuSans-51"/>
      <use x="300.683594" xlink:href="#DejaVuSans-46"/>
      <use x="332.470703" xlink:href="#DejaVuSans-83"/>
      <use x="395.962891" xlink:href="#DejaVuSans-65"/>
     </g>
    </g>
   </g>
  </g>
 </g>
 <defs>
  <clipPath id="pfd89b49ab7">
   <rect height="391.68" width="669.6" x="26.925" y="7.2"/>
  </clipPath>
 </defs>
</svg>
