<?xml version="1.0" encoding="utf-8" standalone="no"?>
<!DOCTYPE svg PUBLIC "-//W3C//DTD SVG 1.1//EN"
  "http://www.w3.org/Graphics/SVG/1.1/DTD/svg11.dtd">
<!-- Created with matplotlib (https://matplotlib.org/) -->
<svg height="533.99625pt" version="1.1" viewBox="0 0 908.033807 533.99625" width="908.033807pt" xmlns="http://www.w3.org/2000/svg" xmlns:xlink="http://www.w3.org/1999/xlink">
 <defs>
  <style type="text/css">
*{stroke-linecap:butt;stroke-linejoin:round;}
  </style>
 </defs>
 <g id="figure_1">
  <g id="patch_1">
   <path d="M -0 533.99625 
L 908.033807 533.99625 
L 908.033807 0 
L -0 0 
z
" style="fill:none;"/>
  </g>
  <g id="axes_1">
   <g id="patch_2">
    <path d="M 58.523438 496.44 
L 895.523438 496.44 
L 895.523438 7.2 
L 58.523438 7.2 
z
" style="fill:#ffffff;"/>
   </g>
   <g id="PathCollection_1">
    <defs>
     <path d="M 0 -5 
L -1.12257 -1.545085 
L -4.755283 -1.545085 
L -1.816356 0.59017 
L -2.938926 4.045085 
L -0 1.90983 
L 2.938926 4.045085 
L 1.816356 0.59017 
L 4.755283 -1.545085 
L 1.12257 -1.545085 
z
" id="m80ad5d0342" style="stroke:#0000ff;"/>
    </defs>
    <g clip-path="url(#p37eeb72a27)">
     <use style="fill:#0000ff;stroke:#0000ff;" x="328.892039" xlink:href="#m80ad5d0342" y="461.119175"/>
     <use style="fill:#0000ff;stroke:#0000ff;" x="731.119805" xlink:href="#m80ad5d0342" y="453.163202"/>
     <use style="fill:#0000ff;stroke:#0000ff;" x="299.970701" xlink:href="#m80ad5d0342" y="436.597133"/>
     <use style="fill:#0000ff;stroke:#0000ff;" x="302.222537" xlink:href="#m80ad5d0342" y="407.859496"/>
     <use style="fill:#0000ff;stroke:#0000ff;" x="722.609886" xlink:href="#m80ad5d0342" y="396.449132"/>
     <use style="fill:#0000ff;stroke:#0000ff;" x="323.893557" xlink:href="#m80ad5d0342" y="395.390953"/>
     <use style="fill:#0000ff;stroke:#0000ff;" x="415.446113" xlink:href="#m80ad5d0342" y="394.63099"/>
     <use style="fill:#0000ff;stroke:#0000ff;" x="265.829118" xlink:href="#m80ad5d0342" y="387.44189"/>
     <use style="fill:#0000ff;stroke:#0000ff;" x="398.870085" xlink:href="#m80ad5d0342" y="376.536964"/>
     <use style="fill:#0000ff;stroke:#0000ff;" x="392.673794" xlink:href="#m80ad5d0342" y="374.16764"/>
     <use style="fill:#0000ff;stroke:#0000ff;" x="412.251963" xlink:href="#m80ad5d0342" y="373.383139"/>
     <use style="fill:#0000ff;stroke:#0000ff;" x="282.051479" xlink:href="#m80ad5d0342" y="357.073663"/>
     <use style="fill:#0000ff;stroke:#0000ff;" x="318.92274" xlink:href="#m80ad5d0342" y="346.611453"/>
     <use style="fill:#0000ff;stroke:#0000ff;" x="491.464617" xlink:href="#m80ad5d0342" y="342.512759"/>
     <use style="fill:#0000ff;stroke:#0000ff;" x="671.769035" xlink:href="#m80ad5d0342" y="340.161874"/>
     <use style="fill:#0000ff;stroke:#0000ff;" x="353.705607" xlink:href="#m80ad5d0342" y="338.745884"/>
     <use style="fill:#0000ff;stroke:#0000ff;" x="515.004504" xlink:href="#m80ad5d0342" y="336.578633"/>
     <use style="fill:#0000ff;stroke:#0000ff;" x="385.661106" xlink:href="#m80ad5d0342" y="334.652822"/>
     <use style="fill:#0000ff;stroke:#0000ff;" x="787.390671" xlink:href="#m80ad5d0342" y="330.454645"/>
     <use style="fill:#0000ff;stroke:#0000ff;" x="201.456589" xlink:href="#m80ad5d0342" y="325.762319"/>
     <use style="fill:#0000ff;stroke:#0000ff;" x="300.863074" xlink:href="#m80ad5d0342" y="322.382789"/>
     <use style="fill:#0000ff;stroke:#0000ff;" x="372.873175" xlink:href="#m80ad5d0342" y="320.357298"/>
     <use style="fill:#0000ff;stroke:#0000ff;" x="496.875404" xlink:href="#m80ad5d0342" y="316.899319"/>
     <use style="fill:#0000ff;stroke:#0000ff;" x="450.786229" xlink:href="#m80ad5d0342" y="316.842287"/>
     <use style="fill:#0000ff;stroke:#0000ff;" x="289.995722" xlink:href="#m80ad5d0342" y="315.384582"/>
     <use style="fill:#0000ff;stroke:#0000ff;" x="603.969542" xlink:href="#m80ad5d0342" y="300.009521"/>
     <use style="fill:#0000ff;stroke:#0000ff;" x="656.175146" xlink:href="#m80ad5d0342" y="298.669528"/>
     <use style="fill:#0000ff;stroke:#0000ff;" x="236.185156" xlink:href="#m80ad5d0342" y="295.817589"/>
     <use style="fill:#0000ff;stroke:#0000ff;" x="180.435115" xlink:href="#m80ad5d0342" y="295.782146"/>
     <use style="fill:#0000ff;stroke:#0000ff;" x="597.384496" xlink:href="#m80ad5d0342" y="295.083339"/>
     <use style="fill:#0000ff;stroke:#0000ff;" x="642.30531" xlink:href="#m80ad5d0342" y="294.993543"/>
     <use style="fill:#0000ff;stroke:#0000ff;" x="315.163527" xlink:href="#m80ad5d0342" y="292.841685"/>
     <use style="fill:#0000ff;stroke:#0000ff;" x="386.928259" xlink:href="#m80ad5d0342" y="291.167195"/>
     <use style="fill:#0000ff;stroke:#0000ff;" x="491.471825" xlink:href="#m80ad5d0342" y="290.705476"/>
     <use style="fill:#0000ff;stroke:#0000ff;" x="405.612171" xlink:href="#m80ad5d0342" y="289.009659"/>
     <use style="fill:#0000ff;stroke:#0000ff;" x="355.490708" xlink:href="#m80ad5d0342" y="288.824862"/>
     <use style="fill:#0000ff;stroke:#0000ff;" x="448.519875" xlink:href="#m80ad5d0342" y="288.423558"/>
     <use style="fill:#0000ff;stroke:#0000ff;" x="338.314186" xlink:href="#m80ad5d0342" y="288.131955"/>
     <use style="fill:#0000ff;stroke:#0000ff;" x="523.355184" xlink:href="#m80ad5d0342" y="287.440689"/>
     <use style="fill:#0000ff;stroke:#0000ff;" x="347.651829" xlink:href="#m80ad5d0342" y="286.111596"/>
     <use style="fill:#0000ff;stroke:#0000ff;" x="146.571339" xlink:href="#m80ad5d0342" y="285.349708"/>
     <use style="fill:#0000ff;stroke:#0000ff;" x="257.764243" xlink:href="#m80ad5d0342" y="283.578489"/>
     <use style="fill:#0000ff;stroke:#0000ff;" x="429.034935" xlink:href="#m80ad5d0342" y="276.91"/>
     <use style="fill:#0000ff;stroke:#0000ff;" x="458.693003" xlink:href="#m80ad5d0342" y="266.335283"/>
     <use style="fill:#0000ff;stroke:#0000ff;" x="449.038893" xlink:href="#m80ad5d0342" y="265.323278"/>
     <use style="fill:#0000ff;stroke:#0000ff;" x="409.792872" xlink:href="#m80ad5d0342" y="264.247441"/>
     <use style="fill:#0000ff;stroke:#0000ff;" x="431.477417" xlink:href="#m80ad5d0342" y="262.657763"/>
     <use style="fill:#0000ff;stroke:#0000ff;" x="311.339081" xlink:href="#m80ad5d0342" y="258.075215"/>
     <use style="fill:#0000ff;stroke:#0000ff;" x="416.447705" xlink:href="#m80ad5d0342" y="255.607674"/>
     <use style="fill:#0000ff;stroke:#0000ff;" x="290.152787" xlink:href="#m80ad5d0342" y="254.328755"/>
     <use style="fill:#0000ff;stroke:#0000ff;" x="252.414317" xlink:href="#m80ad5d0342" y="242.679489"/>
     <use style="fill:#0000ff;stroke:#0000ff;" x="173.998778" xlink:href="#m80ad5d0342" y="240.890789"/>
     <use style="fill:#0000ff;stroke:#0000ff;" x="507.440206" xlink:href="#m80ad5d0342" y="238.38983"/>
     <use style="fill:#0000ff;stroke:#0000ff;" x="619.346607" xlink:href="#m80ad5d0342" y="238.196009"/>
     <use style="fill:#0000ff;stroke:#0000ff;" x="396.960736" xlink:href="#m80ad5d0342" y="231.202871"/>
     <use style="fill:#0000ff;stroke:#0000ff;" x="349.938249" xlink:href="#m80ad5d0342" y="229.099472"/>
     <use style="fill:#0000ff;stroke:#0000ff;" x="371.567726" xlink:href="#m80ad5d0342" y="224.475575"/>
     <use style="fill:#0000ff;stroke:#0000ff;" x="416.60885" xlink:href="#m80ad5d0342" y="221.774512"/>
     <use style="fill:#0000ff;stroke:#0000ff;" x="370.917052" xlink:href="#m80ad5d0342" y="219.044849"/>
     <use style="fill:#0000ff;stroke:#0000ff;" x="237.746976" xlink:href="#m80ad5d0342" y="216.707271"/>
     <use style="fill:#0000ff;stroke:#0000ff;" x="345.008532" xlink:href="#m80ad5d0342" y="201.963928"/>
     <use style="fill:#0000ff;stroke:#0000ff;" x="357.677263" xlink:href="#m80ad5d0342" y="199.15148"/>
     <use style="fill:#0000ff;stroke:#0000ff;" x="414.265475" xlink:href="#m80ad5d0342" y="198.012019"/>
     <use style="fill:#0000ff;stroke:#0000ff;" x="396.944041" xlink:href="#m80ad5d0342" y="196.804897"/>
     <use style="fill:#0000ff;stroke:#0000ff;" x="516.097997" xlink:href="#m80ad5d0342" y="195.345006"/>
     <use style="fill:#0000ff;stroke:#0000ff;" x="359.420845" xlink:href="#m80ad5d0342" y="191.098951"/>
     <use style="fill:#0000ff;stroke:#0000ff;" x="292.921737" xlink:href="#m80ad5d0342" y="189.7666"/>
     <use style="fill:#0000ff;stroke:#0000ff;" x="398.840027" xlink:href="#m80ad5d0342" y="185.557777"/>
     <use style="fill:#0000ff;stroke:#0000ff;" x="682.361841" xlink:href="#m80ad5d0342" y="182.212199"/>
     <use style="fill:#0000ff;stroke:#0000ff;" x="743.525324" xlink:href="#m80ad5d0342" y="179.125734"/>
     <use style="fill:#0000ff;stroke:#0000ff;" x="698.311232" xlink:href="#m80ad5d0342" y="178.042427"/>
     <use style="fill:#0000ff;stroke:#0000ff;" x="379.615539" xlink:href="#m80ad5d0342" y="177.052236"/>
     <use style="fill:#0000ff;stroke:#0000ff;" x="478.744188" xlink:href="#m80ad5d0342" y="174.814468"/>
     <use style="fill:#0000ff;stroke:#0000ff;" x="326.082564" xlink:href="#m80ad5d0342" y="173.543551"/>
     <use style="fill:#0000ff;stroke:#0000ff;" x="325.906976" xlink:href="#m80ad5d0342" y="172.020802"/>
     <use style="fill:#0000ff;stroke:#0000ff;" x="403.916115" xlink:href="#m80ad5d0342" y="169.626369"/>
     <use style="fill:#0000ff;stroke:#0000ff;" x="480.687029" xlink:href="#m80ad5d0342" y="164.849021"/>
     <use style="fill:#0000ff;stroke:#0000ff;" x="239.668824" xlink:href="#m80ad5d0342" y="164.774561"/>
     <use style="fill:#0000ff;stroke:#0000ff;" x="600.362702" xlink:href="#m80ad5d0342" y="161.703298"/>
     <use style="fill:#0000ff;stroke:#0000ff;" x="588.868769" xlink:href="#m80ad5d0342" y="154.281782"/>
     <use style="fill:#0000ff;stroke:#0000ff;" x="526.750345" xlink:href="#m80ad5d0342" y="153.577846"/>
     <use style="fill:#0000ff;stroke:#0000ff;" x="519.393579" xlink:href="#m80ad5d0342" y="144.963776"/>
     <use style="fill:#0000ff;stroke:#0000ff;" x="334.959019" xlink:href="#m80ad5d0342" y="140.813858"/>
     <use style="fill:#0000ff;stroke:#0000ff;" x="339.275596" xlink:href="#m80ad5d0342" y="129.333411"/>
     <use style="fill:#0000ff;stroke:#0000ff;" x="393.772276" xlink:href="#m80ad5d0342" y="128.380408"/>
     <use style="fill:#0000ff;stroke:#0000ff;" x="511.41517" xlink:href="#m80ad5d0342" y="127.563513"/>
     <use style="fill:#0000ff;stroke:#0000ff;" x="362.397729" xlink:href="#m80ad5d0342" y="125.767257"/>
     <use style="fill:#0000ff;stroke:#0000ff;" x="635.170688" xlink:href="#m80ad5d0342" y="124.336867"/>
     <use style="fill:#0000ff;stroke:#0000ff;" x="459.346857" xlink:href="#m80ad5d0342" y="123.861453"/>
     <use style="fill:#0000ff;stroke:#0000ff;" x="399.148091" xlink:href="#m80ad5d0342" y="123.609747"/>
     <use style="fill:#0000ff;stroke:#0000ff;" x="775.111308" xlink:href="#m80ad5d0342" y="121.469555"/>
     <use style="fill:#0000ff;stroke:#0000ff;" x="572.326726" xlink:href="#m80ad5d0342" y="120.389037"/>
     <use style="fill:#0000ff;stroke:#0000ff;" x="590.939475" xlink:href="#m80ad5d0342" y="114.250586"/>
     <use style="fill:#0000ff;stroke:#0000ff;" x="704.618428" xlink:href="#m80ad5d0342" y="112.058588"/>
     <use style="fill:#0000ff;stroke:#0000ff;" x="668.61431" xlink:href="#m80ad5d0342" y="101.356721"/>
     <use style="fill:#0000ff;stroke:#0000ff;" x="742.944634" xlink:href="#m80ad5d0342" y="83.665578"/>
     <use style="fill:#0000ff;stroke:#0000ff;" x="514.524859" xlink:href="#m80ad5d0342" y="79.75211"/>
     <use style="fill:#0000ff;stroke:#0000ff;" x="749.172759" xlink:href="#m80ad5d0342" y="68.609991"/>
     <use style="fill:#0000ff;stroke:#0000ff;" x="698.355929" xlink:href="#m80ad5d0342" y="63.886031"/>
     <use style="fill:#0000ff;stroke:#0000ff;" x="807.475536" xlink:href="#m80ad5d0342" y="45.609218"/>
    </g>
   </g>
   <g id="matplotlib.axis_1">
    <g id="xtick_1">
     <g id="line2d_1">
      <defs>
       <path d="M 0 0 
L 0 3.5 
" id="m86e457a051" style="stroke:#000000;stroke-width:0.8;"/>
      </defs>
      <g>
       <use style="stroke:#000000;stroke-width:0.8;" x="185.607433" xlink:href="#m86e457a051" y="496.44"/>
      </g>
     </g>
     <g id="text_1">
      <!-- 0.26 -->
      <defs>
       <path d="M 31.78125 66.40625 
Q 24.171875 66.40625 20.328125 58.90625 
Q 16.5 51.421875 16.5 36.375 
Q 16.5 21.390625 20.328125 13.890625 
Q 24.171875 6.390625 31.78125 6.390625 
Q 39.453125 6.390625 43.28125 13.890625 
Q 47.125 21.390625 47.125 36.375 
Q 47.125 51.421875 43.28125 58.90625 
Q 39.453125 66.40625 31.78125 66.40625 
z
M 31.78125 74.21875 
Q 44.046875 74.21875 50.515625 64.515625 
Q 56.984375 54.828125 56.984375 36.375 
Q 56.984375 17.96875 50.515625 8.265625 
Q 44.046875 -1.421875 31.78125 -1.421875 
Q 19.53125 -1.421875 13.0625 8.265625 
Q 6.59375 17.96875 6.59375 36.375 
Q 6.59375 54.828125 13.0625 64.515625 
Q 19.53125 74.21875 31.78125 74.21875 
z
" id="DejaVuSans-48"/>
       <path d="M 10.6875 12.40625 
L 21 12.40625 
L 21 0 
L 10.6875 0 
z
" id="DejaVuSans-46"/>
       <path d="M 19.1875 8.296875 
L 53.609375 8.296875 
L 53.609375 0 
L 7.328125 0 
L 7.328125 8.296875 
Q 12.9375 14.109375 22.625 23.890625 
Q 32.328125 33.6875 34.8125 36.53125 
Q 39.546875 41.84375 41.421875 45.53125 
Q 43.3125 49.21875 43.3125 52.78125 
Q 43.3125 58.59375 39.234375 62.25 
Q 35.15625 65.921875 28.609375 65.921875 
Q 23.96875 65.921875 18.8125 64.3125 
Q 13.671875 62.703125 7.8125 59.421875 
L 7.8125 69.390625 
Q 13.765625 71.78125 18.9375 73 
Q 24.125 74.21875 28.421875 74.21875 
Q 39.75 74.21875 46.484375 68.546875 
Q 53.21875 62.890625 53.21875 53.421875 
Q 53.21875 48.921875 51.53125 44.890625 
Q 49.859375 40.875 45.40625 35.40625 
Q 44.1875 33.984375 37.640625 27.21875 
Q 31.109375 20.453125 19.1875 8.296875 
z
" id="DejaVuSans-50"/>
       <path d="M 33.015625 40.375 
Q 26.375 40.375 22.484375 35.828125 
Q 18.609375 31.296875 18.609375 23.390625 
Q 18.609375 15.53125 22.484375 10.953125 
Q 26.375 6.390625 33.015625 6.390625 
Q 39.65625 6.390625 43.53125 10.953125 
Q 47.40625 15.53125 47.40625 23.390625 
Q 47.40625 31.296875 43.53125 35.828125 
Q 39.65625 40.375 33.015625 40.375 
z
M 52.59375 71.296875 
L 52.59375 62.3125 
Q 48.875 64.0625 45.09375 64.984375 
Q 41.3125 65.921875 37.59375 65.921875 
Q 27.828125 65.921875 22.671875 59.328125 
Q 17.53125 52.734375 16.796875 39.40625 
Q 19.671875 43.65625 24.015625 45.921875 
Q 28.375 48.1875 33.59375 48.1875 
Q 44.578125 48.1875 50.953125 41.515625 
Q 57.328125 34.859375 57.328125 23.390625 
Q 57.328125 12.15625 50.6875 5.359375 
Q 44.046875 -1.421875 33.015625 -1.421875 
Q 20.359375 -1.421875 13.671875 8.265625 
Q 6.984375 17.96875 6.984375 36.375 
Q 6.984375 53.65625 15.1875 63.9375 
Q 23.390625 74.21875 37.203125 74.21875 
Q 40.921875 74.21875 44.703125 73.484375 
Q 48.484375 72.75 52.59375 71.296875 
z
" id="DejaVuSans-54"/>
      </defs>
      <g transform="translate(174.474621 511.038437)scale(0.1 -0.1)">
       <use xlink:href="#DejaVuSans-48"/>
       <use x="63.623047" xlink:href="#DejaVuSans-46"/>
       <use x="95.410156" xlink:href="#DejaVuSans-50"/>
       <use x="159.033203" xlink:href="#DejaVuSans-54"/>
      </g>
     </g>
    </g>
    <g id="xtick_2">
     <g id="line2d_2">
      <g>
       <use style="stroke:#000000;stroke-width:0.8;" x="361.630823" xlink:href="#m86e457a051" y="496.44"/>
      </g>
     </g>
     <g id="text_2">
      <!-- 0.28 -->
      <defs>
       <path d="M 31.78125 34.625 
Q 24.75 34.625 20.71875 30.859375 
Q 16.703125 27.09375 16.703125 20.515625 
Q 16.703125 13.921875 20.71875 10.15625 
Q 24.75 6.390625 31.78125 6.390625 
Q 38.8125 6.390625 42.859375 10.171875 
Q 46.921875 13.96875 46.921875 20.515625 
Q 46.921875 27.09375 42.890625 30.859375 
Q 38.875 34.625 31.78125 34.625 
z
M 21.921875 38.8125 
Q 15.578125 40.375 12.03125 44.71875 
Q 8.5 49.078125 8.5 55.328125 
Q 8.5 64.0625 14.71875 69.140625 
Q 20.953125 74.21875 31.78125 74.21875 
Q 42.671875 74.21875 48.875 69.140625 
Q 55.078125 64.0625 55.078125 55.328125 
Q 55.078125 49.078125 51.53125 44.71875 
Q 48 40.375 41.703125 38.8125 
Q 48.828125 37.15625 52.796875 32.3125 
Q 56.78125 27.484375 56.78125 20.515625 
Q 56.78125 9.90625 50.3125 4.234375 
Q 43.84375 -1.421875 31.78125 -1.421875 
Q 19.734375 -1.421875 13.25 4.234375 
Q 6.78125 9.90625 6.78125 20.515625 
Q 6.78125 27.484375 10.78125 32.3125 
Q 14.796875 37.15625 21.921875 38.8125 
z
M 18.3125 54.390625 
Q 18.3125 48.734375 21.84375 45.5625 
Q 25.390625 42.390625 31.78125 42.390625 
Q 38.140625 42.390625 41.71875 45.5625 
Q 45.3125 48.734375 45.3125 54.390625 
Q 45.3125 60.0625 41.71875 63.234375 
Q 38.140625 66.40625 31.78125 66.40625 
Q 25.390625 66.40625 21.84375 63.234375 
Q 18.3125 60.0625 18.3125 54.390625 
z
" id="DejaVuSans-56"/>
      </defs>
      <g transform="translate(350.498011 511.038437)scale(0.1 -0.1)">
       <use xlink:href="#DejaVuSans-48"/>
       <use x="63.623047" xlink:href="#DejaVuSans-46"/>
       <use x="95.410156" xlink:href="#DejaVuSans-50"/>
       <use x="159.033203" xlink:href="#DejaVuSans-56"/>
      </g>
     </g>
    </g>
    <g id="xtick_3">
     <g id="line2d_3">
      <g>
       <use style="stroke:#000000;stroke-width:0.8;" x="537.654214" xlink:href="#m86e457a051" y="496.44"/>
      </g>
     </g>
     <g id="text_3">
      <!-- 0.30 -->
      <defs>
       <path d="M 40.578125 39.3125 
Q 47.65625 37.796875 51.625 33 
Q 55.609375 28.21875 55.609375 21.1875 
Q 55.609375 10.40625 48.1875 4.484375 
Q 40.765625 -1.421875 27.09375 -1.421875 
Q 22.515625 -1.421875 17.65625 -0.515625 
Q 12.796875 0.390625 7.625 2.203125 
L 7.625 11.71875 
Q 11.71875 9.328125 16.59375 8.109375 
Q 21.484375 6.890625 26.8125 6.890625 
Q 36.078125 6.890625 40.9375 10.546875 
Q 45.796875 14.203125 45.796875 21.1875 
Q 45.796875 27.640625 41.28125 31.265625 
Q 36.765625 34.90625 28.71875 34.90625 
L 20.21875 34.90625 
L 20.21875 43.015625 
L 29.109375 43.015625 
Q 36.375 43.015625 40.234375 45.921875 
Q 44.09375 48.828125 44.09375 54.296875 
Q 44.09375 59.90625 40.109375 62.90625 
Q 36.140625 65.921875 28.71875 65.921875 
Q 24.65625 65.921875 20.015625 65.03125 
Q 15.375 64.15625 9.8125 62.3125 
L 9.8125 71.09375 
Q 15.4375 72.65625 20.34375 73.4375 
Q 25.25 74.21875 29.59375 74.21875 
Q 40.828125 74.21875 47.359375 69.109375 
Q 53.90625 64.015625 53.90625 55.328125 
Q 53.90625 49.265625 50.4375 45.09375 
Q 46.96875 40.921875 40.578125 39.3125 
z
" id="DejaVuSans-51"/>
      </defs>
      <g transform="translate(526.521401 511.038437)scale(0.1 -0.1)">
       <use xlink:href="#DejaVuSans-48"/>
       <use x="63.623047" xlink:href="#DejaVuSans-46"/>
       <use x="95.410156" xlink:href="#DejaVuSans-51"/>
       <use x="159.033203" xlink:href="#DejaVuSans-48"/>
      </g>
     </g>
    </g>
    <g id="xtick_4">
     <g id="line2d_4">
      <g>
       <use style="stroke:#000000;stroke-width:0.8;" x="713.677604" xlink:href="#m86e457a051" y="496.44"/>
      </g>
     </g>
     <g id="text_4">
      <!-- 0.32 -->
      <g transform="translate(702.544792 511.038437)scale(0.1 -0.1)">
       <use xlink:href="#DejaVuSans-48"/>
       <use x="63.623047" xlink:href="#DejaVuSans-46"/>
       <use x="95.410156" xlink:href="#DejaVuSans-51"/>
       <use x="159.033203" xlink:href="#DejaVuSans-50"/>
      </g>
     </g>
    </g>
    <g id="xtick_5">
     <g id="line2d_5">
      <g>
       <use style="stroke:#000000;stroke-width:0.8;" x="889.700994" xlink:href="#m86e457a051" y="496.44"/>
      </g>
     </g>
     <g id="text_5">
      <!-- 0.34 -->
      <defs>
       <path d="M 37.796875 64.3125 
L 12.890625 25.390625 
L 37.796875 25.390625 
z
M 35.203125 72.90625 
L 47.609375 72.90625 
L 47.609375 25.390625 
L 58.015625 25.390625 
L 58.015625 17.1875 
L 47.609375 17.1875 
L 47.609375 0 
L 37.796875 0 
L 37.796875 17.1875 
L 4.890625 17.1875 
L 4.890625 26.703125 
z
" id="DejaVuSans-52"/>
      </defs>
      <g transform="translate(878.568182 511.038437)scale(0.1 -0.1)">
       <use xlink:href="#DejaVuSans-48"/>
       <use x="63.623047" xlink:href="#DejaVuSans-46"/>
       <use x="95.410156" xlink:href="#DejaVuSans-51"/>
       <use x="159.033203" xlink:href="#DejaVuSans-52"/>
      </g>
     </g>
    </g>
    <g id="text_6">
     <!-- Volatility -->
     <defs>
      <path d="M 28.609375 0 
L 0.78125 72.90625 
L 11.078125 72.90625 
L 34.1875 11.53125 
L 57.328125 72.90625 
L 67.578125 72.90625 
L 39.796875 0 
z
" id="DejaVuSans-86"/>
      <path d="M 30.609375 48.390625 
Q 23.390625 48.390625 19.1875 42.75 
Q 14.984375 37.109375 14.984375 27.296875 
Q 14.984375 17.484375 19.15625 11.84375 
Q 23.34375 6.203125 30.609375 6.203125 
Q 37.796875 6.203125 41.984375 11.859375 
Q 46.1875 17.53125 46.1875 27.296875 
Q 46.1875 37.015625 41.984375 42.703125 
Q 37.796875 48.390625 30.609375 48.390625 
z
M 30.609375 56 
Q 42.328125 56 49.015625 48.375 
Q 55.71875 40.765625 55.71875 27.296875 
Q 55.71875 13.875 49.015625 6.21875 
Q 42.328125 -1.421875 30.609375 -1.421875 
Q 18.84375 -1.421875 12.171875 6.21875 
Q 5.515625 13.875 5.515625 27.296875 
Q 5.515625 40.765625 12.171875 48.375 
Q 18.84375 56 30.609375 56 
z
" id="DejaVuSans-111"/>
      <path d="M 9.421875 75.984375 
L 18.40625 75.984375 
L 18.40625 0 
L 9.421875 0 
z
" id="DejaVuSans-108"/>
      <path d="M 34.28125 27.484375 
Q 23.390625 27.484375 19.1875 25 
Q 14.984375 22.515625 14.984375 16.5 
Q 14.984375 11.71875 18.140625 8.90625 
Q 21.296875 6.109375 26.703125 6.109375 
Q 34.1875 6.109375 38.703125 11.40625 
Q 43.21875 16.703125 43.21875 25.484375 
L 43.21875 27.484375 
z
M 52.203125 31.203125 
L 52.203125 0 
L 43.21875 0 
L 43.21875 8.296875 
Q 40.140625 3.328125 35.546875 0.953125 
Q 30.953125 -1.421875 24.3125 -1.421875 
Q 15.921875 -1.421875 10.953125 3.296875 
Q 6 8.015625 6 15.921875 
Q 6 25.140625 12.171875 29.828125 
Q 18.359375 34.515625 30.609375 34.515625 
L 43.21875 34.515625 
L 43.21875 35.40625 
Q 43.21875 41.609375 39.140625 45 
Q 35.0625 48.390625 27.6875 48.390625 
Q 23 48.390625 18.546875 47.265625 
Q 14.109375 46.140625 10.015625 43.890625 
L 10.015625 52.203125 
Q 14.9375 54.109375 19.578125 55.046875 
Q 24.21875 56 28.609375 56 
Q 40.484375 56 46.34375 49.84375 
Q 52.203125 43.703125 52.203125 31.203125 
z
" id="DejaVuSans-97"/>
      <path d="M 18.3125 70.21875 
L 18.3125 54.6875 
L 36.8125 54.6875 
L 36.8125 47.703125 
L 18.3125 47.703125 
L 18.3125 18.015625 
Q 18.3125 11.328125 20.140625 9.421875 
Q 21.96875 7.515625 27.59375 7.515625 
L 36.8125 7.515625 
L 36.8125 0 
L 27.59375 0 
Q 17.1875 0 13.234375 3.875 
Q 9.28125 7.765625 9.28125 18.015625 
L 9.28125 47.703125 
L 2.6875 47.703125 
L 2.6875 54.6875 
L 9.28125 54.6875 
L 9.28125 70.21875 
z
" id="DejaVuSans-116"/>
      <path d="M 9.421875 54.6875 
L 18.40625 54.6875 
L 18.40625 0 
L 9.421875 0 
z
M 9.421875 75.984375 
L 18.40625 75.984375 
L 18.40625 64.59375 
L 9.421875 64.59375 
z
" id="DejaVuSans-105"/>
      <path d="M 32.171875 -5.078125 
Q 28.375 -14.84375 24.75 -17.8125 
Q 21.140625 -20.796875 15.09375 -20.796875 
L 7.90625 -20.796875 
L 7.90625 -13.28125 
L 13.1875 -13.28125 
Q 16.890625 -13.28125 18.9375 -11.515625 
Q 21 -9.765625 23.484375 -3.21875 
L 25.09375 0.875 
L 2.984375 54.6875 
L 12.5 54.6875 
L 29.59375 11.921875 
L 46.6875 54.6875 
L 56.203125 54.6875 
z
" id="DejaVuSans-121"/>
     </defs>
     <g transform="translate(455.049219 524.716562)scale(0.1 -0.1)">
      <use xlink:href="#DejaVuSans-86"/>
      <use x="68.298828" xlink:href="#DejaVuSans-111"/>
      <use x="129.480469" xlink:href="#DejaVuSans-108"/>
      <use x="157.263672" xlink:href="#DejaVuSans-97"/>
      <use x="218.542969" xlink:href="#DejaVuSans-116"/>
      <use x="257.751953" xlink:href="#DejaVuSans-105"/>
      <use x="285.535156" xlink:href="#DejaVuSans-108"/>
      <use x="313.318359" xlink:href="#DejaVuSans-105"/>
      <use x="341.101562" xlink:href="#DejaVuSans-116"/>
      <use x="380.310547" xlink:href="#DejaVuSans-121"/>
     </g>
    </g>
   </g>
   <g id="matplotlib.axis_2">
    <g id="ytick_1">
     <g id="line2d_6">
      <defs>
       <path d="M 0 0 
L -3.5 0 
" id="m9464f1fe8c" style="stroke:#000000;stroke-width:0.8;"/>
      </defs>
      <g>
       <use style="stroke:#000000;stroke-width:0.8;" x="58.523438" xlink:href="#m9464f1fe8c" y="418.106219"/>
      </g>
     </g>
     <g id="text_7">
      <!-- −0.05 -->
      <defs>
       <path d="M 10.59375 35.5 
L 73.1875 35.5 
L 73.1875 27.203125 
L 10.59375 27.203125 
z
" id="DejaVuSans-8722"/>
       <path d="M 10.796875 72.90625 
L 49.515625 72.90625 
L 49.515625 64.59375 
L 19.828125 64.59375 
L 19.828125 46.734375 
Q 21.96875 47.46875 24.109375 47.828125 
Q 26.265625 48.1875 28.421875 48.1875 
Q 40.625 48.1875 47.75 41.5 
Q 54.890625 34.8125 54.890625 23.390625 
Q 54.890625 11.625 47.5625 5.09375 
Q 40.234375 -1.421875 26.90625 -1.421875 
Q 22.3125 -1.421875 17.546875 -0.640625 
Q 12.796875 0.140625 7.71875 1.703125 
L 7.71875 11.625 
Q 12.109375 9.234375 16.796875 8.0625 
Q 21.484375 6.890625 26.703125 6.890625 
Q 35.15625 6.890625 40.078125 11.328125 
Q 45.015625 15.765625 45.015625 23.390625 
Q 45.015625 31 40.078125 35.4375 
Q 35.15625 39.890625 26.703125 39.890625 
Q 22.75 39.890625 18.8125 39.015625 
Q 14.890625 38.140625 10.796875 36.28125 
z
" id="DejaVuSans-53"/>
      </defs>
      <g transform="translate(20.878125 421.905438)scale(0.1 -0.1)">
       <use xlink:href="#DejaVuSans-8722"/>
       <use x="83.789062" xlink:href="#DejaVuSans-48"/>
       <use x="147.412109" xlink:href="#DejaVuSans-46"/>
       <use x="179.199219" xlink:href="#DejaVuSans-48"/>
       <use x="242.822266" xlink:href="#DejaVuSans-53"/>
      </g>
     </g>
    </g>
    <g id="ytick_2">
     <g id="line2d_7">
      <g>
       <use style="stroke:#000000;stroke-width:0.8;" x="58.523438" xlink:href="#m9464f1fe8c" y="338.991043"/>
      </g>
     </g>
     <g id="text_8">
      <!-- 0.00 -->
      <g transform="translate(29.257813 342.790262)scale(0.1 -0.1)">
       <use xlink:href="#DejaVuSans-48"/>
       <use x="63.623047" xlink:href="#DejaVuSans-46"/>
       <use x="95.410156" xlink:href="#DejaVuSans-48"/>
       <use x="159.033203" xlink:href="#DejaVuSans-48"/>
      </g>
     </g>
    </g>
    <g id="ytick_3">
     <g id="line2d_8">
      <g>
       <use style="stroke:#000000;stroke-width:0.8;" x="58.523438" xlink:href="#m9464f1fe8c" y="259.875867"/>
      </g>
     </g>
     <g id="text_9">
      <!-- 0.05 -->
      <g transform="translate(29.257813 263.675085)scale(0.1 -0.1)">
       <use xlink:href="#DejaVuSans-48"/>
       <use x="63.623047" xlink:href="#DejaVuSans-46"/>
       <use x="95.410156" xlink:href="#DejaVuSans-48"/>
       <use x="159.033203" xlink:href="#DejaVuSans-53"/>
      </g>
     </g>
    </g>
    <g id="ytick_4">
     <g id="line2d_9">
      <g>
       <use style="stroke:#000000;stroke-width:0.8;" x="58.523438" xlink:href="#m9464f1fe8c" y="180.76069"/>
      </g>
     </g>
     <g id="text_10">
      <!-- 0.10 -->
      <defs>
       <path d="M 12.40625 8.296875 
L 28.515625 8.296875 
L 28.515625 63.921875 
L 10.984375 60.40625 
L 10.984375 69.390625 
L 28.421875 72.90625 
L 38.28125 72.90625 
L 38.28125 8.296875 
L 54.390625 8.296875 
L 54.390625 0 
L 12.40625 0 
z
" id="DejaVuSans-49"/>
      </defs>
      <g transform="translate(29.257813 184.559909)scale(0.1 -0.1)">
       <use xlink:href="#DejaVuSans-48"/>
       <use x="63.623047" xlink:href="#DejaVuSans-46"/>
       <use x="95.410156" xlink:href="#DejaVuSans-49"/>
       <use x="159.033203" xlink:href="#DejaVuSans-48"/>
      </g>
     </g>
    </g>
    <g id="ytick_5">
     <g id="line2d_10">
      <g>
       <use style="stroke:#000000;stroke-width:0.8;" x="58.523438" xlink:href="#m9464f1fe8c" y="101.645514"/>
      </g>
     </g>
     <g id="text_11">
      <!-- 0.15 -->
      <g transform="translate(29.257813 105.444733)scale(0.1 -0.1)">
       <use xlink:href="#DejaVuSans-48"/>
       <use x="63.623047" xlink:href="#DejaVuSans-46"/>
       <use x="95.410156" xlink:href="#DejaVuSans-49"/>
       <use x="159.033203" xlink:href="#DejaVuSans-53"/>
      </g>
     </g>
    </g>
    <g id="ytick_6">
     <g id="line2d_11">
      <g>
       <use style="stroke:#000000;stroke-width:0.8;" x="58.523438" xlink:href="#m9464f1fe8c" y="22.530338"/>
      </g>
     </g>
     <g id="text_12">
      <!-- 0.20 -->
      <g transform="translate(29.257813 26.329556)scale(0.1 -0.1)">
       <use xlink:href="#DejaVuSans-48"/>
       <use x="63.623047" xlink:href="#DejaVuSans-46"/>
       <use x="95.410156" xlink:href="#DejaVuSans-50"/>
       <use x="159.033203" xlink:href="#DejaVuSans-48"/>
      </g>
     </g>
    </g>
    <g id="text_13">
     <!-- Return -->
     <defs>
      <path d="M 44.390625 34.1875 
Q 47.5625 33.109375 50.5625 29.59375 
Q 53.5625 26.078125 56.59375 19.921875 
L 66.609375 0 
L 56 0 
L 46.6875 18.703125 
Q 43.0625 26.03125 39.671875 28.421875 
Q 36.28125 30.8125 30.421875 30.8125 
L 19.671875 30.8125 
L 19.671875 0 
L 9.8125 0 
L 9.8125 72.90625 
L 32.078125 72.90625 
Q 44.578125 72.90625 50.734375 67.671875 
Q 56.890625 62.453125 56.890625 51.90625 
Q 56.890625 45.015625 53.6875 40.46875 
Q 50.484375 35.9375 44.390625 34.1875 
z
M 19.671875 64.796875 
L 19.671875 38.921875 
L 32.078125 38.921875 
Q 39.203125 38.921875 42.84375 42.21875 
Q 46.484375 45.515625 46.484375 51.90625 
Q 46.484375 58.296875 42.84375 61.546875 
Q 39.203125 64.796875 32.078125 64.796875 
z
" id="DejaVuSans-82"/>
      <path d="M 56.203125 29.59375 
L 56.203125 25.203125 
L 14.890625 25.203125 
Q 15.484375 15.921875 20.484375 11.0625 
Q 25.484375 6.203125 34.421875 6.203125 
Q 39.59375 6.203125 44.453125 7.46875 
Q 49.3125 8.734375 54.109375 11.28125 
L 54.109375 2.78125 
Q 49.265625 0.734375 44.1875 -0.34375 
Q 39.109375 -1.421875 33.890625 -1.421875 
Q 20.796875 -1.421875 13.15625 6.1875 
Q 5.515625 13.8125 5.515625 26.8125 
Q 5.515625 40.234375 12.765625 48.109375 
Q 20.015625 56 32.328125 56 
Q 43.359375 56 49.78125 48.890625 
Q 56.203125 41.796875 56.203125 29.59375 
z
M 47.21875 32.234375 
Q 47.125 39.59375 43.09375 43.984375 
Q 39.0625 48.390625 32.421875 48.390625 
Q 24.90625 48.390625 20.390625 44.140625 
Q 15.875 39.890625 15.1875 32.171875 
z
" id="DejaVuSans-101"/>
      <path d="M 8.5 21.578125 
L 8.5 54.6875 
L 17.484375 54.6875 
L 17.484375 21.921875 
Q 17.484375 14.15625 20.5 10.265625 
Q 23.53125 6.390625 29.59375 6.390625 
Q 36.859375 6.390625 41.078125 11.03125 
Q 45.3125 15.671875 45.3125 23.6875 
L 45.3125 54.6875 
L 54.296875 54.6875 
L 54.296875 0 
L 45.3125 0 
L 45.3125 8.40625 
Q 42.046875 3.421875 37.71875 1 
Q 33.40625 -1.421875 27.6875 -1.421875 
Q 18.265625 -1.421875 13.375 4.4375 
Q 8.5 10.296875 8.5 21.578125 
z
M 31.109375 56 
z
" id="DejaVuSans-117"/>
      <path d="M 41.109375 46.296875 
Q 39.59375 47.171875 37.8125 47.578125 
Q 36.03125 48 33.890625 48 
Q 26.265625 48 22.1875 43.046875 
Q 18.109375 38.09375 18.109375 28.8125 
L 18.109375 0 
L 9.078125 0 
L 9.078125 54.6875 
L 18.109375 54.6875 
L 18.109375 46.1875 
Q 20.953125 51.171875 25.484375 53.578125 
Q 30.03125 56 36.53125 56 
Q 37.453125 56 38.578125 55.875 
Q 39.703125 55.765625 41.0625 55.515625 
z
" id="DejaVuSans-114"/>
      <path d="M 54.890625 33.015625 
L 54.890625 0 
L 45.90625 0 
L 45.90625 32.71875 
Q 45.90625 40.484375 42.875 44.328125 
Q 39.84375 48.1875 33.796875 48.1875 
Q 26.515625 48.1875 22.3125 43.546875 
Q 18.109375 38.921875 18.109375 30.90625 
L 18.109375 0 
L 9.078125 0 
L 9.078125 54.6875 
L 18.109375 54.6875 
L 18.109375 46.1875 
Q 21.34375 51.125 25.703125 53.5625 
Q 30.078125 56 35.796875 56 
Q 45.21875 56 50.046875 50.171875 
Q 54.890625 44.34375 54.890625 33.015625 
z
" id="DejaVuSans-110"/>
     </defs>
     <g transform="translate(14.798438 268.72)rotate(-90)scale(0.1 -0.1)">
      <use xlink:href="#DejaVuSans-82"/>
      <use x="69.419922" xlink:href="#DejaVuSans-101"/>
      <use x="130.943359" xlink:href="#DejaVuSans-116"/>
      <use x="170.152344" xlink:href="#DejaVuSans-117"/>
      <use x="233.53125" xlink:href="#DejaVuSans-114"/>
      <use x="274.628906" xlink:href="#DejaVuSans-110"/>
     </g>
    </g>
   </g>
   <g id="patch_3">
    <path d="M 58.523438 496.44 
L 58.523438 7.2 
" style="fill:none;stroke:#000000;stroke-linecap:square;stroke-linejoin:miter;stroke-width:0.8;"/>
   </g>
   <g id="patch_4">
    <path d="M 895.523438 496.44 
L 895.523438 7.2 
" style="fill:none;stroke:#000000;stroke-linecap:square;stroke-linejoin:miter;stroke-width:0.8;"/>
   </g>
   <g id="patch_5">
    <path d="M 58.523438 496.44 
L 895.523438 496.44 
" style="fill:none;stroke:#000000;stroke-linecap:square;stroke-linejoin:miter;stroke-width:0.8;"/>
   </g>
   <g id="patch_6">
    <path d="M 58.523438 7.2 
L 895.523438 7.2 
" style="fill:none;stroke:#000000;stroke-linecap:square;stroke-linejoin:miter;stroke-width:0.8;"/>
   </g>
  </g>
 </g>
 <defs>
  <clipPath id="p37eeb72a27">
   <rect height="489.24" width="837" x="58.523438" y="7.2"/>
  </clipPath>
 </defs>
</svg>
