<?xml version="1.0" encoding="utf-8" standalone="no"?>
<!DOCTYPE svg PUBLIC "-//W3C//DTD SVG 1.1//EN"
  "http://www.w3.org/Graphics/SVG/1.1/DTD/svg11.dtd">
<!-- Created with matplotlib (https://matplotlib.org/) -->
<svg height="456.031033pt" version="1.1" viewBox="0 0 710.0875 456.031033" width="710.0875pt" xmlns="http://www.w3.org/2000/svg" xmlns:xlink="http://www.w3.org/1999/xlink">
 <defs>
  <style type="text/css">
*{stroke-linecap:butt;stroke-linejoin:round;}
  </style>
 </defs>
 <g id="figure_1">
  <g id="patch_1">
   <path d="M 0 456.031033 
L 710.0875 456.031033 
L 710.0875 0 
L 0 0 
z
" style="fill:none;"/>
  </g>
  <g id="axes_1">
   <g id="patch_2">
    <path d="M 33.2875 398.88 
L 702.8875 398.88 
L 702.8875 7.2 
L 33.2875 7.2 
z
" style="fill:#ffffff;"/>
   </g>
   <g id="matplotlib.axis_1">
    <g id="xtick_1">
     <g id="line2d_1">
      <defs>
       <path d="M 0 0 
L 0 3.5 
" id="m1c7d8a3426" style="stroke:#000000;stroke-width:0.8;"/>
      </defs>
      <g>
       <use style="stroke:#000000;stroke-width:0.8;" x="62.962955" xlink:href="#m1c7d8a3426" y="398.88"/>
      </g>
     </g>
     <g id="text_1">
      <!-- 2018-01 -->
      <defs>
       <path d="M 19.1875 8.296875 
L 53.609375 8.296875 
L 53.609375 0 
L 7.328125 0 
L 7.328125 8.296875 
Q 12.9375 14.109375 22.625 23.890625 
Q 32.328125 33.6875 34.8125 36.53125 
Q 39.546875 41.84375 41.421875 45.53125 
Q 43.3125 49.21875 43.3125 52.78125 
Q 43.3125 58.59375 39.234375 62.25 
Q 35.15625 65.921875 28.609375 65.921875 
Q 23.96875 65.921875 18.8125 64.3125 
Q 13.671875 62.703125 7.8125 59.421875 
L 7.8125 69.390625 
Q 13.765625 71.78125 18.9375 73 
Q 24.125 74.21875 28.421875 74.21875 
Q 39.75 74.21875 46.484375 68.546875 
Q 53.21875 62.890625 53.21875 53.421875 
Q 53.21875 48.921875 51.53125 44.890625 
Q 49.859375 40.875 45.40625 35.40625 
Q 44.1875 33.984375 37.640625 27.21875 
Q 31.109375 20.453125 19.1875 8.296875 
z
" id="DejaVuSans-50"/>
       <path d="M 31.78125 66.40625 
Q 24.171875 66.40625 20.328125 58.90625 
Q 16.5 51.421875 16.5 36.375 
Q 16.5 21.390625 20.328125 13.890625 
Q 24.171875 6.390625 31.78125 6.390625 
Q 39.453125 6.390625 43.28125 13.890625 
Q 47.125 21.390625 47.125 36.375 
Q 47.125 51.421875 43.28125 58.90625 
Q 39.453125 66.40625 31.78125 66.40625 
z
M 31.78125 74.21875 
Q 44.046875 74.21875 50.515625 64.515625 
Q 56.984375 54.828125 56.984375 36.375 
Q 56.984375 17.96875 50.515625 8.265625 
Q 44.046875 -1.421875 31.78125 -1.421875 
Q 19.53125 -1.421875 13.0625 8.265625 
Q 6.59375 17.96875 6.59375 36.375 
Q 6.59375 54.828125 13.0625 64.515625 
Q 19.53125 74.21875 31.78125 74.21875 
z
" id="DejaVuSans-48"/>
       <path d="M 12.40625 8.296875 
L 28.515625 8.296875 
L 28.515625 63.921875 
L 10.984375 60.40625 
L 10.984375 69.390625 
L 28.421875 72.90625 
L 38.28125 72.90625 
L 38.28125 8.296875 
L 54.390625 8.296875 
L 54.390625 0 
L 12.40625 0 
z
" id="DejaVuSans-49"/>
       <path d="M 31.78125 34.625 
Q 24.75 34.625 20.71875 30.859375 
Q 16.703125 27.09375 16.703125 20.515625 
Q 16.703125 13.921875 20.71875 10.15625 
Q 24.75 6.390625 31.78125 6.390625 
Q 38.8125 6.390625 42.859375 10.171875 
Q 46.921875 13.96875 46.921875 20.515625 
Q 46.921875 27.09375 42.890625 30.859375 
Q 38.875 34.625 31.78125 34.625 
z
M 21.921875 38.8125 
Q 15.578125 40.375 12.03125 44.71875 
Q 8.5 49.078125 8.5 55.328125 
Q 8.5 64.0625 14.71875 69.140625 
Q 20.953125 74.21875 31.78125 74.21875 
Q 42.671875 74.21875 48.875 69.140625 
Q 55.078125 64.0625 55.078125 55.328125 
Q 55.078125 49.078125 51.53125 44.71875 
Q 48 40.375 41.703125 38.8125 
Q 48.828125 37.15625 52.796875 32.3125 
Q 56.78125 27.484375 56.78125 20.515625 
Q 56.78125 9.90625 50.3125 4.234375 
Q 43.84375 -1.421875 31.78125 -1.421875 
Q 19.734375 -1.421875 13.25 4.234375 
Q 6.78125 9.90625 6.78125 20.515625 
Q 6.78125 27.484375 10.78125 32.3125 
Q 14.796875 37.15625 21.921875 38.8125 
z
M 18.3125 54.390625 
Q 18.3125 48.734375 21.84375 45.5625 
Q 25.390625 42.390625 31.78125 42.390625 
Q 38.140625 42.390625 41.71875 45.5625 
Q 45.3125 48.734375 45.3125 54.390625 
Q 45.3125 60.0625 41.71875 63.234375 
Q 38.140625 66.40625 31.78125 66.40625 
Q 25.390625 66.40625 21.84375 63.234375 
Q 18.3125 60.0625 18.3125 54.390625 
z
" id="DejaVuSans-56"/>
       <path d="M 4.890625 31.390625 
L 31.203125 31.390625 
L 31.203125 23.390625 
L 4.890625 23.390625 
z
" id="DejaVuSans-45"/>
      </defs>
      <g transform="translate(25.738134 433.351846)rotate(-30)scale(0.1 -0.1)">
       <use xlink:href="#DejaVuSans-50"/>
       <use x="63.623047" xlink:href="#DejaVuSans-48"/>
       <use x="127.246094" xlink:href="#DejaVuSans-49"/>
       <use x="190.869141" xlink:href="#DejaVuSans-56"/>
       <use x="254.492188" xlink:href="#DejaVuSans-45"/>
       <use x="290.576172" xlink:href="#DejaVuSans-48"/>
       <use x="354.199219" xlink:href="#DejaVuSans-49"/>
      </g>
     </g>
    </g>
    <g id="xtick_2">
     <g id="line2d_2">
      <g>
       <use style="stroke:#000000;stroke-width:0.8;" x="131.444773" xlink:href="#m1c7d8a3426" y="398.88"/>
      </g>
     </g>
     <g id="text_2">
      <!-- 2018-04 -->
      <defs>
       <path d="M 37.796875 64.3125 
L 12.890625 25.390625 
L 37.796875 25.390625 
z
M 35.203125 72.90625 
L 47.609375 72.90625 
L 47.609375 25.390625 
L 58.015625 25.390625 
L 58.015625 17.1875 
L 47.609375 17.1875 
L 47.609375 0 
L 37.796875 0 
L 37.796875 17.1875 
L 4.890625 17.1875 
L 4.890625 26.703125 
z
" id="DejaVuSans-52"/>
      </defs>
      <g transform="translate(94.219952 433.351846)rotate(-30)scale(0.1 -0.1)">
       <use xlink:href="#DejaVuSans-50"/>
       <use x="63.623047" xlink:href="#DejaVuSans-48"/>
       <use x="127.246094" xlink:href="#DejaVuSans-49"/>
       <use x="190.869141" xlink:href="#DejaVuSans-56"/>
       <use x="254.492188" xlink:href="#DejaVuSans-45"/>
       <use x="290.576172" xlink:href="#DejaVuSans-48"/>
       <use x="354.199219" xlink:href="#DejaVuSans-52"/>
      </g>
     </g>
    </g>
    <g id="xtick_3">
     <g id="line2d_3">
      <g>
       <use style="stroke:#000000;stroke-width:0.8;" x="200.6875" xlink:href="#m1c7d8a3426" y="398.88"/>
      </g>
     </g>
     <g id="text_3">
      <!-- 2018-07 -->
      <defs>
       <path d="M 8.203125 72.90625 
L 55.078125 72.90625 
L 55.078125 68.703125 
L 28.609375 0 
L 18.3125 0 
L 43.21875 64.59375 
L 8.203125 64.59375 
z
" id="DejaVuSans-55"/>
      </defs>
      <g transform="translate(163.462679 433.351846)rotate(-30)scale(0.1 -0.1)">
       <use xlink:href="#DejaVuSans-50"/>
       <use x="63.623047" xlink:href="#DejaVuSans-48"/>
       <use x="127.246094" xlink:href="#DejaVuSans-49"/>
       <use x="190.869141" xlink:href="#DejaVuSans-56"/>
       <use x="254.492188" xlink:href="#DejaVuSans-45"/>
       <use x="290.576172" xlink:href="#DejaVuSans-48"/>
       <use x="354.199219" xlink:href="#DejaVuSans-55"/>
      </g>
     </g>
    </g>
    <g id="xtick_4">
     <g id="line2d_4">
      <g>
       <use style="stroke:#000000;stroke-width:0.8;" x="270.691136" xlink:href="#m1c7d8a3426" y="398.88"/>
      </g>
     </g>
     <g id="text_4">
      <!-- 2018-10 -->
      <g transform="translate(233.466316 433.351846)rotate(-30)scale(0.1 -0.1)">
       <use xlink:href="#DejaVuSans-50"/>
       <use x="63.623047" xlink:href="#DejaVuSans-48"/>
       <use x="127.246094" xlink:href="#DejaVuSans-49"/>
       <use x="190.869141" xlink:href="#DejaVuSans-56"/>
       <use x="254.492188" xlink:href="#DejaVuSans-45"/>
       <use x="290.576172" xlink:href="#DejaVuSans-49"/>
       <use x="354.199219" xlink:href="#DejaVuSans-48"/>
      </g>
     </g>
    </g>
    <g id="xtick_5">
     <g id="line2d_5">
      <g>
       <use style="stroke:#000000;stroke-width:0.8;" x="340.694773" xlink:href="#m1c7d8a3426" y="398.88"/>
      </g>
     </g>
     <g id="text_5">
      <!-- 2019-01 -->
      <defs>
       <path d="M 10.984375 1.515625 
L 10.984375 10.5 
Q 14.703125 8.734375 18.5 7.8125 
Q 22.3125 6.890625 25.984375 6.890625 
Q 35.75 6.890625 40.890625 13.453125 
Q 46.046875 20.015625 46.78125 33.40625 
Q 43.953125 29.203125 39.59375 26.953125 
Q 35.25 24.703125 29.984375 24.703125 
Q 19.046875 24.703125 12.671875 31.3125 
Q 6.296875 37.9375 6.296875 49.421875 
Q 6.296875 60.640625 12.9375 67.421875 
Q 19.578125 74.21875 30.609375 74.21875 
Q 43.265625 74.21875 49.921875 64.515625 
Q 56.59375 54.828125 56.59375 36.375 
Q 56.59375 19.140625 48.40625 8.859375 
Q 40.234375 -1.421875 26.421875 -1.421875 
Q 22.703125 -1.421875 18.890625 -0.6875 
Q 15.09375 0.046875 10.984375 1.515625 
z
M 30.609375 32.421875 
Q 37.25 32.421875 41.125 36.953125 
Q 45.015625 41.5 45.015625 49.421875 
Q 45.015625 57.28125 41.125 61.84375 
Q 37.25 66.40625 30.609375 66.40625 
Q 23.96875 66.40625 20.09375 61.84375 
Q 16.21875 57.28125 16.21875 49.421875 
Q 16.21875 41.5 20.09375 36.953125 
Q 23.96875 32.421875 30.609375 32.421875 
z
" id="DejaVuSans-57"/>
      </defs>
      <g transform="translate(303.469952 433.351846)rotate(-30)scale(0.1 -0.1)">
       <use xlink:href="#DejaVuSans-50"/>
       <use x="63.623047" xlink:href="#DejaVuSans-48"/>
       <use x="127.246094" xlink:href="#DejaVuSans-49"/>
       <use x="190.869141" xlink:href="#DejaVuSans-57"/>
       <use x="254.492188" xlink:href="#DejaVuSans-45"/>
       <use x="290.576172" xlink:href="#DejaVuSans-48"/>
       <use x="354.199219" xlink:href="#DejaVuSans-49"/>
      </g>
     </g>
    </g>
    <g id="xtick_6">
     <g id="line2d_6">
      <g>
       <use style="stroke:#000000;stroke-width:0.8;" x="409.176591" xlink:href="#m1c7d8a3426" y="398.88"/>
      </g>
     </g>
     <g id="text_6">
      <!-- 2019-04 -->
      <g transform="translate(371.95177 433.351846)rotate(-30)scale(0.1 -0.1)">
       <use xlink:href="#DejaVuSans-50"/>
       <use x="63.623047" xlink:href="#DejaVuSans-48"/>
       <use x="127.246094" xlink:href="#DejaVuSans-49"/>
       <use x="190.869141" xlink:href="#DejaVuSans-57"/>
       <use x="254.492188" xlink:href="#DejaVuSans-45"/>
       <use x="290.576172" xlink:href="#DejaVuSans-48"/>
       <use x="354.199219" xlink:href="#DejaVuSans-52"/>
      </g>
     </g>
    </g>
    <g id="xtick_7">
     <g id="line2d_7">
      <g>
       <use style="stroke:#000000;stroke-width:0.8;" x="478.419318" xlink:href="#m1c7d8a3426" y="398.88"/>
      </g>
     </g>
     <g id="text_7">
      <!-- 2019-07 -->
      <g transform="translate(441.194497 433.351846)rotate(-30)scale(0.1 -0.1)">
       <use xlink:href="#DejaVuSans-50"/>
       <use x="63.623047" xlink:href="#DejaVuSans-48"/>
       <use x="127.246094" xlink:href="#DejaVuSans-49"/>
       <use x="190.869141" xlink:href="#DejaVuSans-57"/>
       <use x="254.492188" xlink:href="#DejaVuSans-45"/>
       <use x="290.576172" xlink:href="#DejaVuSans-48"/>
       <use x="354.199219" xlink:href="#DejaVuSans-55"/>
      </g>
     </g>
    </g>
    <g id="xtick_8">
     <g id="line2d_8">
      <g>
       <use style="stroke:#000000;stroke-width:0.8;" x="548.422955" xlink:href="#m1c7d8a3426" y="398.88"/>
      </g>
     </g>
     <g id="text_8">
      <!-- 2019-10 -->
      <g transform="translate(511.198134 433.351846)rotate(-30)scale(0.1 -0.1)">
       <use xlink:href="#DejaVuSans-50"/>
       <use x="63.623047" xlink:href="#DejaVuSans-48"/>
       <use x="127.246094" xlink:href="#DejaVuSans-49"/>
       <use x="190.869141" xlink:href="#DejaVuSans-57"/>
       <use x="254.492188" xlink:href="#DejaVuSans-45"/>
       <use x="290.576172" xlink:href="#DejaVuSans-49"/>
       <use x="354.199219" xlink:href="#DejaVuSans-48"/>
      </g>
     </g>
    </g>
    <g id="xtick_9">
     <g id="line2d_9">
      <g>
       <use style="stroke:#000000;stroke-width:0.8;" x="618.426591" xlink:href="#m1c7d8a3426" y="398.88"/>
      </g>
     </g>
     <g id="text_9">
      <!-- 2020-01 -->
      <g transform="translate(581.20177 433.351846)rotate(-30)scale(0.1 -0.1)">
       <use xlink:href="#DejaVuSans-50"/>
       <use x="63.623047" xlink:href="#DejaVuSans-48"/>
       <use x="127.246094" xlink:href="#DejaVuSans-50"/>
       <use x="190.869141" xlink:href="#DejaVuSans-48"/>
       <use x="254.492188" xlink:href="#DejaVuSans-45"/>
       <use x="290.576172" xlink:href="#DejaVuSans-48"/>
       <use x="354.199219" xlink:href="#DejaVuSans-49"/>
      </g>
     </g>
    </g>
    <g id="xtick_10">
     <g id="line2d_10">
      <g>
       <use style="stroke:#000000;stroke-width:0.8;" x="687.669318" xlink:href="#m1c7d8a3426" y="398.88"/>
      </g>
     </g>
     <g id="text_10">
      <!-- 2020-04 -->
      <g transform="translate(650.444497 433.351846)rotate(-30)scale(0.1 -0.1)">
       <use xlink:href="#DejaVuSans-50"/>
       <use x="63.623047" xlink:href="#DejaVuSans-48"/>
       <use x="127.246094" xlink:href="#DejaVuSans-50"/>
       <use x="190.869141" xlink:href="#DejaVuSans-48"/>
       <use x="254.492188" xlink:href="#DejaVuSans-45"/>
       <use x="290.576172" xlink:href="#DejaVuSans-48"/>
       <use x="354.199219" xlink:href="#DejaVuSans-52"/>
      </g>
     </g>
    </g>
    <g id="text_11">
     <!-- Date -->
     <defs>
      <path d="M 19.671875 64.796875 
L 19.671875 8.109375 
L 31.59375 8.109375 
Q 46.6875 8.109375 53.6875 14.9375 
Q 60.6875 21.78125 60.6875 36.53125 
Q 60.6875 51.171875 53.6875 57.984375 
Q 46.6875 64.796875 31.59375 64.796875 
z
M 9.8125 72.90625 
L 30.078125 72.90625 
Q 51.265625 72.90625 61.171875 64.09375 
Q 71.09375 55.28125 71.09375 36.53125 
Q 71.09375 17.671875 61.125 8.828125 
Q 51.171875 0 30.078125 0 
L 9.8125 0 
z
" id="DejaVuSans-68"/>
      <path d="M 34.28125 27.484375 
Q 23.390625 27.484375 19.1875 25 
Q 14.984375 22.515625 14.984375 16.5 
Q 14.984375 11.71875 18.140625 8.90625 
Q 21.296875 6.109375 26.703125 6.109375 
Q 34.1875 6.109375 38.703125 11.40625 
Q 43.21875 16.703125 43.21875 25.484375 
L 43.21875 27.484375 
z
M 52.203125 31.203125 
L 52.203125 0 
L 43.21875 0 
L 43.21875 8.296875 
Q 40.140625 3.328125 35.546875 0.953125 
Q 30.953125 -1.421875 24.3125 -1.421875 
Q 15.921875 -1.421875 10.953125 3.296875 
Q 6 8.015625 6 15.921875 
Q 6 25.140625 12.171875 29.828125 
Q 18.359375 34.515625 30.609375 34.515625 
L 43.21875 34.515625 
L 43.21875 35.40625 
Q 43.21875 41.609375 39.140625 45 
Q 35.0625 48.390625 27.6875 48.390625 
Q 23 48.390625 18.546875 47.265625 
Q 14.109375 46.140625 10.015625 43.890625 
L 10.015625 52.203125 
Q 14.9375 54.109375 19.578125 55.046875 
Q 24.21875 56 28.609375 56 
Q 40.484375 56 46.34375 49.84375 
Q 52.203125 43.703125 52.203125 31.203125 
z
" id="DejaVuSans-97"/>
      <path d="M 18.3125 70.21875 
L 18.3125 54.6875 
L 36.8125 54.6875 
L 36.8125 47.703125 
L 18.3125 47.703125 
L 18.3125 18.015625 
Q 18.3125 11.328125 20.140625 9.421875 
Q 21.96875 7.515625 27.59375 7.515625 
L 36.8125 7.515625 
L 36.8125 0 
L 27.59375 0 
Q 17.1875 0 13.234375 3.875 
Q 9.28125 7.765625 9.28125 18.015625 
L 9.28125 47.703125 
L 2.6875 47.703125 
L 2.6875 54.6875 
L 9.28125 54.6875 
L 9.28125 70.21875 
z
" id="DejaVuSans-116"/>
      <path d="M 56.203125 29.59375 
L 56.203125 25.203125 
L 14.890625 25.203125 
Q 15.484375 15.921875 20.484375 11.0625 
Q 25.484375 6.203125 34.421875 6.203125 
Q 39.59375 6.203125 44.453125 7.46875 
Q 49.3125 8.734375 54.109375 11.28125 
L 54.109375 2.78125 
Q 49.265625 0.734375 44.1875 -0.34375 
Q 39.109375 -1.421875 33.890625 -1.421875 
Q 20.796875 -1.421875 13.15625 6.1875 
Q 5.515625 13.8125 5.515625 26.8125 
Q 5.515625 40.234375 12.765625 48.109375 
Q 20.015625 56 32.328125 56 
Q 43.359375 56 49.78125 48.890625 
Q 56.203125 41.796875 56.203125 29.59375 
z
M 47.21875 32.234375 
Q 47.125 39.59375 43.09375 43.984375 
Q 39.0625 48.390625 32.421875 48.390625 
Q 24.90625 48.390625 20.390625 44.140625 
Q 15.875 39.890625 15.1875 32.171875 
z
" id="DejaVuSans-101"/>
     </defs>
     <g transform="translate(356.136719 446.751346)scale(0.1 -0.1)">
      <use xlink:href="#DejaVuSans-68"/>
      <use x="77.001953" xlink:href="#DejaVuSans-97"/>
      <use x="138.28125" xlink:href="#DejaVuSans-116"/>
      <use x="177.490234" xlink:href="#DejaVuSans-101"/>
     </g>
    </g>
   </g>
   <g id="matplotlib.axis_2">
    <g id="ytick_1">
     <g id="line2d_11">
      <defs>
       <path d="M 0 0 
L -3.5 0 
" id="m42bb72586a" style="stroke:#000000;stroke-width:0.8;"/>
      </defs>
      <g>
       <use style="stroke:#000000;stroke-width:0.8;" x="33.2875" xlink:href="#m42bb72586a" y="391.669895"/>
      </g>
     </g>
     <g id="text_12">
      <!-- 50 -->
      <defs>
       <path d="M 10.796875 72.90625 
L 49.515625 72.90625 
L 49.515625 64.59375 
L 19.828125 64.59375 
L 19.828125 46.734375 
Q 21.96875 47.46875 24.109375 47.828125 
Q 26.265625 48.1875 28.421875 48.1875 
Q 40.625 48.1875 47.75 41.5 
Q 54.890625 34.8125 54.890625 23.390625 
Q 54.890625 11.625 47.5625 5.09375 
Q 40.234375 -1.421875 26.90625 -1.421875 
Q 22.3125 -1.421875 17.546875 -0.640625 
Q 12.796875 0.140625 7.71875 1.703125 
L 7.71875 11.625 
Q 12.109375 9.234375 16.796875 8.0625 
Q 21.484375 6.890625 26.703125 6.890625 
Q 35.15625 6.890625 40.078125 11.328125 
Q 45.015625 15.765625 45.015625 23.390625 
Q 45.015625 31 40.078125 35.4375 
Q 35.15625 39.890625 26.703125 39.890625 
Q 22.75 39.890625 18.8125 39.015625 
Q 14.890625 38.140625 10.796875 36.28125 
z
" id="DejaVuSans-53"/>
      </defs>
      <g transform="translate(13.5625 395.469113)scale(0.1 -0.1)">
       <use xlink:href="#DejaVuSans-53"/>
       <use x="63.623047" xlink:href="#DejaVuSans-48"/>
      </g>
     </g>
    </g>
    <g id="ytick_2">
     <g id="line2d_12">
      <g>
       <use style="stroke:#000000;stroke-width:0.8;" x="33.2875" xlink:href="#m42bb72586a" y="312.136724"/>
      </g>
     </g>
     <g id="text_13">
      <!-- 100 -->
      <g transform="translate(7.2 315.935943)scale(0.1 -0.1)">
       <use xlink:href="#DejaVuSans-49"/>
       <use x="63.623047" xlink:href="#DejaVuSans-48"/>
       <use x="127.246094" xlink:href="#DejaVuSans-48"/>
      </g>
     </g>
    </g>
    <g id="ytick_3">
     <g id="line2d_13">
      <g>
       <use style="stroke:#000000;stroke-width:0.8;" x="33.2875" xlink:href="#m42bb72586a" y="232.603554"/>
      </g>
     </g>
     <g id="text_14">
      <!-- 150 -->
      <g transform="translate(7.2 236.402773)scale(0.1 -0.1)">
       <use xlink:href="#DejaVuSans-49"/>
       <use x="63.623047" xlink:href="#DejaVuSans-53"/>
       <use x="127.246094" xlink:href="#DejaVuSans-48"/>
      </g>
     </g>
    </g>
    <g id="ytick_4">
     <g id="line2d_14">
      <g>
       <use style="stroke:#000000;stroke-width:0.8;" x="33.2875" xlink:href="#m42bb72586a" y="153.070384"/>
      </g>
     </g>
     <g id="text_15">
      <!-- 200 -->
      <g transform="translate(7.2 156.869603)scale(0.1 -0.1)">
       <use xlink:href="#DejaVuSans-50"/>
       <use x="63.623047" xlink:href="#DejaVuSans-48"/>
       <use x="127.246094" xlink:href="#DejaVuSans-48"/>
      </g>
     </g>
    </g>
    <g id="ytick_5">
     <g id="line2d_15">
      <g>
       <use style="stroke:#000000;stroke-width:0.8;" x="33.2875" xlink:href="#m42bb72586a" y="73.537214"/>
      </g>
     </g>
     <g id="text_16">
      <!-- 250 -->
      <g transform="translate(7.2 77.336432)scale(0.1 -0.1)">
       <use xlink:href="#DejaVuSans-50"/>
       <use x="63.623047" xlink:href="#DejaVuSans-53"/>
       <use x="127.246094" xlink:href="#DejaVuSans-48"/>
      </g>
     </g>
    </g>
   </g>
   <g id="line2d_16">
    <path clip-path="url(#pbb05598339)" d="M 63.723864 312.136724 
L 64.484773 315.09986 
L 65.245682 315.714937 
L 66.006591 314.540819 
L 68.289318 313.590283 
L 69.811136 313.534405 
L 70.572045 312.416131 
L 71.332955 314.093481 
L 73.615682 313.031207 
L 74.376591 311.018415 
L 75.1375 307.104708 
L 75.898409 309.788437 
L 76.659318 310.738815 
L 78.942045 309.341081 
L 79.702955 310.123897 
L 80.463864 307.216428 
L 81.224773 307.216428 
L 81.985682 307.384149 
L 84.268409 309.508855 
L 85.029318 309.005622 
L 85.790227 307.663766 
L 86.551136 307.607923 
L 87.312045 308.782041 
L 89.594773 307.160585 
L 90.355682 309.732401 
L 91.116591 305.762869 
L 91.8775 303.190351 
L 92.638409 304.3091 
L 97.203864 306.098329 
L 100.2475 305.874537 
L 101.008409 305.147793 
L 101.769318 305.147793 
L 102.530227 308.782041 
L 103.291136 305.762869 
L 105.573864 305.315514 
L 106.334773 310.179774 
L 107.095682 312.36027 
L 107.856591 312.975365 
L 108.6175 312.807626 
L 110.900227 312.975365 
L 111.661136 314.652698 
L 112.422045 315.603058 
L 113.182955 314.932121 
L 113.943864 314.596662 
L 116.226591 315.770762 
L 116.9875 315.714937 
L 117.748409 316.050396 
L 118.509318 315.770762 
L 119.270227 317.448147 
L 121.552955 319.964121 
L 122.313864 319.684679 
L 123.074773 322.759711 
L 124.596591 322.480129 
L 126.879318 318.342806 
L 127.640227 318.790003 
L 128.401136 321.865193 
L 129.162045 318.230927 
L 132.205682 321.585576 
L 132.966591 318.957672 
L 133.7275 316.944932 
L 134.488409 319.125445 
L 135.249318 318.454509 
L 138.292955 320.243738 
L 139.053864 320.075982 
L 139.814773 318.510562 
L 140.575682 321.921053 
L 142.858409 319.405062 
L 143.619318 319.237306 
L 144.380227 317.671869 
L 145.141136 321.082395 
L 145.902045 320.746918 
L 148.945682 320.075982 
L 150.4675 315.155861 
L 151.228409 319.069568 
L 153.511136 318.398666 
L 155.032955 321.641454 
L 155.793864 323.989662 
L 156.554773 328.406989 
L 158.8375 330.434832 
L 159.598409 325.378346 
L 160.359318 325.086236 
L 161.881136 325.670641 
L 164.163864 328.53448 
L 164.924773 327.716346 
L 165.685682 328.300751 
L 166.446591 331.865934 
L 167.2075 330.112524 
L 169.490227 329.002113 
L 170.251136 325.203008 
L 171.012045 327.482432 
L 171.772955 329.177425 
L 172.533864 329.878787 
L 174.816591 334.145349 
L 175.5775 334.145349 
L 176.338409 334.729939 
L 177.860227 324.793932 
L 180.142955 321.462487 
L 180.903864 326.72268 
L 181.664773 330.404837 
L 182.425682 331.807552 
L 183.186591 329.703466 
L 185.469318 329.703466 
L 186.230227 330.229472 
L 186.991136 330.404837 
L 187.752045 330.755505 
L 188.512955 327.774692 
L 190.795682 330.404837 
L 192.3175 328.125413 
L 193.078409 328.651419 
L 193.839318 329.528128 
L 196.122045 329.002113 
L 196.882955 329.703466 
L 197.643864 329.528128 
L 198.404773 330.580158 
L 199.165682 332.333567 
L 201.448409 330.755505 
L 202.209318 330.580158 
L 202.970227 327.073339 
L 203.731136 327.950048 
L 204.492045 324.092579 
L 207.535682 324.092579 
L 208.296591 326.0213 
L 209.0575 325.84598 
L 209.818409 326.372012 
L 212.101136 326.547333 
L 212.862045 325.319956 
L 213.622955 326.547333 
L 214.383864 326.547333 
L 215.144773 323.391182 
L 217.4275 325.495294 
L 218.949318 328.651419 
L 219.710227 329.703466 
L 220.471136 328.300751 
L 222.753864 331.632214 
L 223.514773 334.612991 
L 224.275682 332.508914 
L 225.036591 331.632214 
L 225.7975 330.930852 
L 228.080227 330.054143 
L 228.841136 334.327453 
L 229.602045 335.384394 
L 230.362955 338.379105 
L 231.123864 339.96453 
L 233.406591 342.254603 
L 234.1675 336.793663 
L 234.928409 340.31685 
L 235.689318 341.197644 
L 236.450227 342.606905 
L 238.732955 340.31685 
L 239.493864 344.016201 
L 240.254773 343.311553 
L 241.015682 341.726128 
L 241.776591 343.66389 
L 244.059318 342.606905 
L 244.820227 341.726128 
L 245.581136 342.254603 
L 246.342045 344.36852 
L 247.102955 345.07315 
L 249.385682 342.430767 
L 250.146591 344.192347 
L 250.9075 345.249315 
L 251.668409 345.777781 
L 255.472955 347.891698 
L 256.233864 348.067853 
L 256.994773 350.710237 
L 257.755682 348.596328 
L 260.038409 348.772501 
L 260.799318 346.658575 
L 261.560227 346.1301 
L 262.321136 349.124821 
L 263.082045 351.414876 
L 265.364773 351.062556 
L 266.886591 351.062556 
L 267.6475 351.238712 
L 268.408409 352.64799 
L 270.691136 354.938063 
L 271.452045 352.119506 
L 272.212955 348.596328 
L 272.973864 348.948648 
L 273.734773 347.715525 
L 276.0175 342.606905 
L 276.778409 338.731416 
L 277.539318 339.2599 
L 278.300227 342.606905 
L 281.343864 337.498311 
L 282.104773 338.026777 
L 282.865682 337.498311 
L 283.626591 337.850631 
L 284.3875 336.617525 
L 286.670227 335.208247 
L 287.431136 330.451938 
L 288.192045 337.674466 
L 288.952955 334.855928 
L 289.713864 343.135397 
L 291.996591 344.896986 
L 292.7575 344.192347 
L 293.518409 342.783087 
L 294.279318 337.850631 
L 297.322955 337.674466 
L 298.083864 338.163045 
L 298.844773 337.098724 
L 299.605682 339.227366 
L 300.366591 338.163045 
L 302.649318 341.71077 
L 303.410227 339.936908 
L 304.171136 334.615311 
L 305.692955 330.180641 
L 307.975682 330.180641 
L 309.4975 332.309283 
L 311.019318 330.003255 
L 313.302045 327.874613 
L 314.062955 327.519834 
L 314.823864 327.874613 
L 315.584773 327.519834 
L 316.345682 333.550981 
L 319.389318 334.792696 
L 320.150227 331.599733 
L 320.911136 331.954512 
L 321.672045 332.13188 
L 323.954773 334.970082 
L 324.715682 331.777118 
L 325.476591 329.47109 
L 326.2375 331.777118 
L 326.998409 330.003255 
L 329.281136 333.018825 
L 330.802955 331.067577 
L 331.563864 331.599733 
L 332.324773 330.358026 
L 336.129318 332.84143 
L 336.890227 329.648485 
L 337.651136 325.74598 
L 341.455682 323.972108 
L 342.216591 324.681667 
L 342.9775 327.697228 
L 345.260227 327.519834 
L 346.021136 326.100733 
L 346.782045 322.730402 
L 347.542955 317.763575 
L 348.303864 318.650502 
L 350.586591 320.246988 
L 351.3475 318.650502 
L 352.108409 320.601759 
L 352.869318 318.295714 
L 353.630227 318.295714 
L 355.912955 319.537429 
L 356.673864 320.246988 
L 357.434773 315.812301 
L 358.195682 313.861062 
L 362.000227 313.328923 
L 362.761136 308.184711 
L 363.522045 309.071621 
L 364.282955 308.184711 
L 366.565682 304.991739 
L 367.326591 306.233437 
L 368.848409 311.909822 
L 369.609318 311.022878 
L 372.652955 311.555051 
L 373.413864 312.619364 
L 374.174773 313.15152 
L 374.935682 313.328923 
L 377.218409 315.457548 
L 377.979318 313.506291 
L 378.740227 316.876631 
L 379.501136 319.360061 
L 380.262045 316.167107 
L 382.544773 315.102777 
L 383.305682 316.167107 
L 384.066591 315.457548 
L 384.8275 317.408805 
L 385.588409 316.876631 
L 390.153864 320.956512 
L 390.914773 320.956512 
L 393.958409 317.940961 
L 394.719318 317.763575 
L 395.480227 318.473135 
L 396.241136 313.506291 
L 398.523864 314.748006 
L 399.284773 316.876631 
L 400.045682 318.650502 
L 400.806591 322.198245 
L 401.5675 324.859044 
L 403.850227 324.32687 
L 404.611136 323.085172 
L 406.132955 325.036429 
L 406.893864 322.552999 
L 409.176591 319.714815 
L 409.9375 322.02086 
L 410.698409 323.794714 
L 411.459318 322.552999 
L 412.220227 322.198245 
L 414.502955 321.488686 
L 415.263864 325.74598 
L 416.024773 326.632924 
L 416.785682 328.229375 
L 417.546591 328.584155 
L 419.829318 325.923374 
L 420.590227 325.391182 
L 421.351136 327.874613 
L 422.112045 326.987677 
L 425.916591 325.923374 
L 426.6775 326.30343 
L 427.438409 325.579831 
L 428.199318 339.328122 
L 430.482045 338.785414 
L 431.242955 338.423614 
L 432.764773 340.594411 
L 433.525682 340.775302 
L 435.808409 340.051703 
L 436.569318 340.95621 
L 437.330227 340.594411 
L 438.091136 341.318001 
L 438.852045 340.394639 
L 441.134773 343.123607 
L 441.895682 343.305534 
L 442.656591 344.579054 
L 443.4175 346.398357 
L 444.178409 345.670638 
L 446.461136 343.66939 
L 447.222045 342.577815 
L 447.982955 343.66939 
L 448.743864 342.759743 
L 449.504773 343.66939 
L 451.7875 343.305534 
L 452.548409 340.030775 
L 453.309318 340.394639 
L 454.070227 340.21272 
L 454.831136 342.759743 
L 457.113864 341.304295 
L 457.874773 338.393391 
L 458.635682 339.666911 
L 459.396591 337.483744 
L 460.1575 336.574088 
L 462.440227 338.029536 
L 463.201136 337.847608 
L 463.962045 337.483744 
L 464.722955 336.574088 
L 465.483864 337.665672 
L 467.766591 337.119889 
L 468.5275 337.301808 
L 469.288409 334.57284 
L 470.810227 334.208985 
L 473.092955 332.753537 
L 473.853864 332.571601 
L 474.614773 333.845121 
L 475.375682 332.935465 
L 476.136591 329.296842 
L 478.419318 330.570361 
L 479.180227 331.29809 
L 479.941136 330.570361 
L 480.702045 326.567883 
L 481.462955 326.931747 
L 483.745682 324.748571 
L 485.2675 321.655722 
L 486.028409 322.38345 
L 486.789318 325.840155 
L 489.072045 327.295611 
L 489.832955 327.477539 
L 490.593864 326.022091 
L 491.354773 328.387194 
L 492.115682 327.841403 
L 494.398409 328.569113 
L 495.159318 331.84389 
L 495.920227 332.025809 
L 496.681136 334.936713 
L 497.442045 335.482505 
L 500.485682 332.025809 
L 501.246591 332.935465 
L 502.0075 332.025809 
L 502.768409 333.663193 
L 505.051136 334.754777 
L 505.812045 334.208985 
L 506.572955 333.117401 
L 507.333864 330.02457 
L 508.094773 330.443064 
L 510.3775 333.178032 
L 511.138409 332.813369 
L 511.899318 334.819018 
L 512.660227 339.559645 
L 513.421136 336.642328 
L 515.703864 336.824668 
L 516.464773 337.189332 
L 517.225682 333.907359 
L 517.986591 335.548346 
L 518.7475 337.736318 
L 521.030227 338.465646 
L 521.791136 336.460005 
L 522.552045 334.089691 
L 524.073864 324.426115 
L 526.356591 330.443064 
L 527.1175 328.802078 
L 527.878409 329.349064 
L 528.639318 330.260723 
L 529.400227 329.531405 
L 531.682955 328.802078 
L 532.443864 325.702437 
L 533.204773 316.221192 
L 534.726591 321.691146 
L 537.009318 321.508806 
L 537.770227 318.95616 
L 538.531136 317.862187 
L 539.292045 318.226833 
L 540.052955 317.497506 
L 542.335682 316.585856 
L 543.096591 311.298225 
L 543.8575 314.580197 
L 544.618409 315.856529 
L 545.379318 314.944878 
L 547.662045 312.02757 
L 548.422955 313.668547 
L 549.183864 319.685488 
L 550.705682 316.221192 
L 552.988409 318.226833 
L 553.749318 318.409174 
L 554.510227 315.127201 
L 555.271136 315.491865 
L 556.032045 312.574556 
L 558.314773 310.568898 
L 559.075682 310.204252 
L 559.836591 304.551957 
L 560.5975 302.181652 
L 561.358409 302.181652 
L 563.641136 301.452325 
L 564.402045 296.711716 
L 565.162955 293.247403 
L 565.923864 294.888398 
L 566.684773 289.965448 
L 568.9675 292.15343 
L 569.728409 287.595143 
L 570.489318 290.877098 
L 571.250227 289.418444 
L 572.011136 289.783107 
L 574.293864 289.236121 
L 575.054773 289.899414 
L 575.815682 286.95139 
L 576.576591 281.423836 
L 577.3375 283.81911 
L 579.620227 283.81911 
L 580.381136 286.95139 
L 581.142045 287.50414 
L 581.902955 288.793914 
L 584.946591 285.477378 
L 585.7075 283.26636 
L 587.229318 281.423836 
L 587.990227 280.318336 
L 590.272955 277.738806 
L 591.033864 278.475812 
L 591.794773 280.871086 
L 592.555682 274.606526 
L 593.316591 273.132514 
L 595.599318 274.975038 
L 597.121136 265.946693 
L 597.882045 261.893168 
L 598.642955 254.891603 
L 600.925682 257.471115 
L 601.686591 261.708913 
L 602.4475 257.471115 
L 603.208409 252.496329 
L 603.969318 244.573501 
L 606.252045 244.573501 
L 607.012955 245.310507 
L 607.773864 242.730995 
L 608.534773 240.888471 
L 609.295682 245.679019 
L 611.578409 242.546739 
L 613.861136 242.546739 
L 614.622045 243.652239 
L 616.904773 244.942013 
L 619.1875 244.573501 
L 619.948409 242.178227 
L 622.231136 244.942013 
L 622.992045 233.334155 
L 623.752955 234.071161 
L 624.513864 242.178227 
L 625.274773 242.730995 
L 627.5575 244.573501 
L 628.318409 241.993989 
L 629.079318 246.600281 
L 629.840227 246.600281 
L 630.601136 245.494763 
L 632.883864 248.258531 
L 634.405682 251.022317 
L 635.166591 250.838061 
L 635.9275 250.285311 
L 638.210227 255.260097 
L 638.971136 251.390811 
L 639.732045 254.523091 
L 640.492955 255.628609 
L 641.253864 259.866389 
L 643.536591 259.129383 
L 644.2975 256.549871 
L 645.058409 259.129383 
L 645.819318 260.971907 
L 646.580227 267.420705 
L 648.862955 272.764003 
L 649.623864 270.552985 
L 650.384773 272.211252 
L 651.145682 270.18449 
L 651.906591 273.501026 
L 654.189318 262.998669 
L 654.950227 266.867955 
L 655.711136 265.578198 
L 656.472045 269.078973 
L 657.232955 274.053776 
L 661.798409 295.611224 
L 662.559318 292.478944 
L 664.842045 288.609658 
L 665.602955 290.08367 
L 666.363864 287.688396 
L 667.124773 297.45373 
L 667.885682 302.612789 
L 670.168409 307.219081 
L 670.929318 294.505706 
L 672.451136 321.222195 
L 672.451136 321.222195 
" style="fill:none;stroke:#1f77b4;stroke-linecap:square;stroke-width:1.5;"/>
   </g>
   <g id="line2d_17">
    <path clip-path="url(#pbb05598339)" d="M 63.723864 312.136724 
L 64.484773 316.023009 
L 65.245682 316.203753 
L 66.006591 313.492404 
L 68.289318 316.655654 
L 69.050227 315.571108 
L 69.811136 319.818915 
L 70.572045 319.999671 
L 71.332955 316.565265 
L 74.376591 315.390352 
L 75.1375 313.853916 
L 75.898409 314.034683 
L 76.659318 319.999671 
L 78.942045 323.434032 
L 79.702955 325.512769 
L 80.463864 325.783891 
L 81.224773 325.783891 
L 81.985682 322.168752 
L 84.268409 323.976333 
L 85.029318 325.241624 
L 85.790227 326.778037 
L 86.551136 325.241624 
L 87.312045 328.404874 
L 89.594773 329.308642 
L 91.116591 331.477745 
L 91.8775 331.025867 
L 92.638409 327.591472 
L 97.203864 327.952984 
L 97.964773 326.506926 
L 100.2475 326.778037 
L 101.008409 322.982165 
L 101.769318 322.078374 
L 102.530227 317.242336 
L 103.291136 315.863579 
L 105.573864 317.701937 
L 106.334773 313.381823 
L 107.856591 314.025244 
L 108.6175 314.025244 
L 110.900227 312.11211 
L 111.661136 311.927111 
L 112.422045 314.609456 
L 113.182955 312.389596 
L 113.943864 313.684531 
L 116.226591 307.209882 
L 116.9875 306.747408 
L 117.748409 306.099958 
L 118.509318 309.429764 
L 119.270227 309.522241 
L 121.552955 309.337265 
L 122.313864 312.11211 
L 123.074773 312.11211 
L 123.835682 317.754287 
L 124.596591 315.719403 
L 126.879318 316.829327 
L 127.640227 321.36158 
L 128.401136 318.586736 
L 129.162045 311.18715 
L 132.205682 314.331981 
L 132.966591 317.846775 
L 133.7275 318.494236 
L 134.488409 318.494236 
L 135.249318 321.916543 
L 137.532045 322.471516 
L 138.292955 323.118977 
L 139.053864 321.824054 
L 139.814773 321.36158 
L 140.575682 322.841491 
L 142.858409 328.668655 
L 143.619318 331.073525 
L 145.141136 327.281244 
L 145.902045 323.211477 
L 148.184773 325.893822 
L 148.945682 325.523836 
L 149.706591 324.783898 
L 150.4675 325.893822 
L 151.228409 326.263797 
L 153.511136 326.81877 
L 155.032955 327.373732 
L 155.793864 332.460948 
L 156.554773 333.385884 
L 158.8375 335.235781 
L 159.598409 334.033357 
L 160.359318 333.385884 
L 161.120227 339.21306 
L 161.881136 334.403332 
L 164.163864 337.640651 
L 164.924773 343.097841 
L 165.685682 340.415484 
L 166.446591 343.652814 
L 167.2075 345.317734 
L 169.490227 342.801531 
L 170.251136 340.844746 
L 171.012045 349.230923 
L 171.772955 347.274149 
L 172.533864 346.621895 
L 174.816591 350.069545 
L 175.5775 346.808252 
L 176.338409 348.392312 
L 177.860227 348.578669 
L 180.142955 345.410559 
L 180.903864 348.205944 
L 181.664773 350.162718 
L 182.425682 358.082987 
L 183.186591 354.542164 
L 185.469318 357.989814 
L 186.230227 357.244365 
L 186.991136 357.058008 
L 187.752045 358.269344 
L 188.512955 358.642068 
L 190.795682 360.785199 
L 191.556591 356.59211 
L 192.3175 356.498938 
L 193.078409 363.114698 
L 193.839318 359.387495 
L 196.122045 361.717005 
L 196.882955 360.226118 
L 197.643864 363.207871 
L 198.404773 357.617089 
L 199.165682 358.455712 
L 201.448409 358.362528 
L 202.209318 358.548896 
L 202.970227 357.058008 
L 204.492045 355.008061 
L 207.535682 354.72852 
L 208.296591 354.542164 
L 209.0575 353.796725 
L 209.818409 355.660315 
L 212.101136 353.610369 
L 212.862045 353.703541 
L 213.622955 352.119492 
L 214.383864 353.703541 
L 215.144773 351.280881 
L 217.4275 352.399033 
L 218.188409 350.349075 
L 218.949318 348.765026 
L 219.710227 348.671842 
L 220.471136 350.349075 
L 222.753864 350.069545 
L 223.514773 352.399033 
L 224.275682 350.535443 
L 225.036591 351.467238 
L 225.7975 350.442259 
L 228.080227 349.510464 
L 229.602045 350.7218 
L 230.362955 355.194418 
L 231.123864 358.17616 
L 233.406591 357.803446 
L 234.1675 352.86493 
L 234.928409 355.753499 
L 235.689318 356.03304 
L 236.450227 358.921598 
L 238.732955 355.663627 
L 239.493864 358.765984 
L 240.254773 355.75763 
L 241.015682 355.569612 
L 241.776591 356.321695 
L 244.059318 353.219337 
L 244.820227 351.903178 
L 245.581136 353.595373 
L 246.342045 358.389937 
L 247.102955 357.449825 
L 249.385682 355.569612 
L 250.146591 361.58631 
L 250.9075 361.58631 
L 251.668409 359.236035 
L 254.712045 359.14202 
L 255.472955 362.526422 
L 256.233864 363.936585 
L 256.994773 368.54312 
L 257.755682 364.876686 
L 260.038409 365.816798 
L 260.799318 363.090487 
L 261.560227 359.518067 
L 262.321136 362.996473 
L 263.082045 356.509713 
L 265.364773 357.449825 
L 266.125682 357.449825 
L 266.886591 358.577966 
L 267.6475 353.97142 
L 268.408409 356.039662 
L 270.691136 358.01389 
L 271.452045 353.689388 
L 272.212955 347.01461 
L 272.973864 352.279225 
L 273.734773 348.988849 
L 276.0175 344.288299 
L 276.778409 342.408075 
L 277.539318 343.348187 
L 278.300227 342.690107 
L 281.343864 346.450545 
L 282.104773 344.852364 
L 282.865682 345.040382 
L 283.626591 344.288299 
L 284.3875 325.486111 
L 286.670227 334.793196 
L 287.431136 334.511164 
L 288.192045 330.186661 
L 288.952955 330.186661 
L 289.713864 326.426223 
L 291.996591 334.8872 
L 292.7575 328.40044 
L 293.518409 328.40044 
L 294.279318 324.075937 
L 297.322955 326.332209 
L 298.083864 323.887919 
L 298.844773 322.853804 
L 299.605682 325.486111 
L 300.366591 325.674129 
L 302.649318 329.340563 
L 303.410227 327.930389 
L 304.171136 328.212422 
L 305.692955 323.511883 
L 309.4975 326.990277 
L 310.258409 326.802259 
L 311.019318 329.622585 
L 313.302045 331.220777 
L 314.062955 327.554354 
L 314.823864 319.845449 
L 315.584773 322.383753 
L 316.345682 317.965236 
L 318.628409 318.999363 
L 319.389318 321.725662 
L 320.150227 321.067594 
L 320.911136 319.375399 
L 321.672045 325.392097 
L 323.954773 326.050176 
L 324.715682 324.075937 
L 325.476591 321.255612 
L 326.2375 321.255612 
L 326.998409 320.691558 
L 329.281136 322.195724 
L 330.042045 321.067594 
L 330.802955 319.657431 
L 331.563864 316.085012 
L 332.324773 314.204798 
L 336.129318 317.683204 
L 336.890227 312.606607 
L 337.651136 311.196444 
L 341.455682 306.683923 
L 342.216591 306.401891 
L 342.9775 307.624024 
L 345.260227 308.000083 
L 346.021136 304.803699 
L 346.782045 293.146339 
L 347.542955 292.582285 
L 348.303864 292.676288 
L 350.586591 292.582285 
L 353.630227 294.462498 
L 355.912955 293.522386 
L 356.673864 287.035638 
L 358.195682 281.300961 
L 361.239318 282.523106 
L 362.000227 283.2752 
L 362.761136 281.771012 
L 363.522045 282.61712 
L 364.282955 281.865049 
L 366.565682 279.984824 
L 367.326591 277.728541 
L 368.0875 283.651236 
L 368.848409 285.53146 
L 369.609318 284.873381 
L 371.892045 287.31767 
L 372.652955 284.497345 
L 373.413864 285.249417 
L 374.174773 285.53146 
L 374.935682 289.76196 
L 377.218409 286.84762 
L 377.979318 283.181186 
L 378.740227 287.881724 
L 379.501136 286.753605 
L 380.262045 291.924205 
L 382.544773 289.573931 
L 383.305682 291.172122 
L 384.066591 290.043981 
L 384.8275 290.890079 
L 385.588409 283.745251 
L 390.153864 288.633818 
L 390.914773 279.608766 
L 393.1975 277.728541 
L 393.958409 280.172831 
L 394.719318 283.181186 
L 395.480227 284.121298 
L 396.241136 281.112932 
L 398.523864 285.061399 
L 399.284773 286.941623 
L 400.045682 289.76196 
L 400.806591 289.996974 
L 401.5675 292.934817 
L 403.850227 291.877198 
L 404.611136 290.819568 
L 405.372045 295.402611 
L 406.132955 294.227462 
L 406.893864 290.467035 
L 409.176591 290.349517 
L 410.698409 294.109966 
L 411.459318 291.524655 
L 412.220227 283.416222 
L 414.502955 290.702061 
L 415.263864 294.580017 
L 416.024773 293.639904 
L 416.785682 291.994716 
L 417.546591 292.582285 
L 419.829318 290.819568 
L 421.351136 293.169854 
L 422.112045 290.819568 
L 425.155682 292.582285 
L 425.916591 292.582285 
L 426.6775 292.112223 
L 427.438409 284.943892 
L 428.199318 287.529192 
L 430.482045 289.056873 
L 431.242955 287.294167 
L 432.764773 287.294167 
L 433.525682 286.119029 
L 435.808409 287.059141 
L 436.569318 285.53146 
L 437.330227 281.771012 
L 438.091136 282.006048 
L 438.852045 276.365397 
L 441.134773 277.540535 
L 441.895682 273.192517 
L 442.656591 271.429811 
L 443.4175 268.374449 
L 444.178409 267.904421 
L 446.461136 264.261468 
L 447.222045 259.678459 
L 447.982955 262.616303 
L 448.743864 258.268285 
L 449.504773 261.323625 
L 451.7875 260.14851 
L 452.548409 257.680716 
L 453.309318 256.740615 
L 454.070227 254.037808 
L 454.831136 255.44796 
L 457.113864 260.266005 
L 457.874773 263.79144 
L 458.635682 267.904421 
L 460.1575 257.915753 
L 462.440227 256.153047 
L 463.201136 254.625355 
L 463.962045 254.977909 
L 464.722955 254.037808 
L 465.483864 249.454754 
L 467.766591 239.701122 
L 468.5275 232.062729 
L 469.288409 232.415284 
L 470.810227 227.009647 
L 473.092955 231.827693 
L 473.853864 232.767816 
L 474.614773 232.767816 
L 475.375682 229.829972 
L 476.136591 231.357664 
L 478.419318 228.889849 
L 479.180227 223.249198 
L 479.941136 223.249198 
L 480.702045 221.016441 
L 481.462955 219.136217 
L 483.745682 224.424358 
L 485.2675 210.322709 
L 486.028409 213.848121 
L 486.789318 215.963382 
L 489.072045 220.546391 
L 489.832955 220.898946 
L 490.593864 214.788222 
L 491.354773 214.43569 
L 492.115682 216.315892 
L 494.398409 223.014184 
L 495.159318 221.839047 
L 495.920227 224.424358 
L 496.681136 228.889849 
L 497.442045 228.302303 
L 499.724773 229.124885 
L 500.485682 223.836789 
L 501.246591 227.362179 
L 502.0075 223.249198 
L 502.768409 223.836789 
L 505.051136 226.774633 
L 505.812045 222.309097 
L 506.572955 219.723808 
L 507.333864 210.675241 
L 508.094773 198.571334 
L 510.3775 191.520532 
L 511.138409 186.937478 
L 512.660227 191.520532 
L 513.421136 188.935221 
L 515.703864 189.757803 
L 516.464773 195.045922 
L 517.225682 187.172514 
L 517.986591 186.349909 
L 518.7475 194.105821 
L 521.030227 198.571334 
L 521.791136 187.642587 
L 523.312955 178.59402 
L 524.073864 180.004171 
L 526.356591 182.11941 
L 527.1175 190.815423 
L 527.878409 192.108078 
L 528.639318 193.870784 
L 529.400227 200.921609 
L 531.682955 206.209728 
L 532.443864 205.857195 
L 533.204773 195.751009 
L 533.965682 203.03687 
L 534.726591 202.801833 
L 537.009318 197.043664 
L 537.770227 191.873064 
L 538.531136 185.76234 
L 539.292045 185.527326 
L 540.052955 183.412088 
L 542.335682 189.757803 
L 543.096591 180.709258 
L 543.8575 180.356726 
L 544.618409 170.133021 
L 545.379318 168.017783 
L 547.662045 166.842646 
L 548.422955 169.427934 
L 549.183864 173.42342 
L 549.944773 173.305901 
L 550.705682 167.547732 
L 553.749318 181.649382 
L 554.510227 178.829056 
L 555.271136 177.653919 
L 556.032045 168.605352 
L 558.314773 164.139838 
L 559.075682 159.204275 
L 559.836591 156.383927 
L 560.5975 150.038189 
L 561.358409 146.512799 
L 564.402045 153.916134 
L 565.162955 154.503702 
L 565.923864 159.204275 
L 566.684773 156.383927 
L 568.9675 153.093551 
L 569.728409 153.211069 
L 570.489318 146.512799 
L 571.250227 151.095808 
L 572.011136 144.515056 
L 574.293864 150.625758 
L 575.054773 151.565859 
L 575.815682 149.803153 
L 576.576591 150.038189 
L 577.3375 144.75007 
L 579.620227 130.413407 
L 580.381136 137.934282 
L 581.142045 137.464232 
L 581.902955 126.770499 
L 584.946591 131.588545 
L 585.7075 129.120751 
L 587.229318 122.775014 
L 587.990227 108.908401 
L 590.272955 109.260955 
L 591.033864 112.198799 
L 591.794773 106.910681 
L 592.555682 103.385268 
L 593.316591 97.744595 
L 595.599318 105.030456 
L 596.360227 105.147974 
L 597.121136 105.147974 
L 597.882045 103.385268 
L 598.642955 94.571737 
L 600.925682 98.332186 
L 601.686591 95.159306 
L 602.4475 82.467786 
L 603.208409 91.633894 
L 603.969318 81.057657 
L 606.252045 83.525427 
L 607.012955 93.984169 
L 607.773864 91.633894 
L 608.534773 86.698307 
L 609.295682 91.046325 
L 611.578409 86.933344 
L 613.861136 85.053142 
L 614.622045 87.403417 
L 616.904773 81.057657 
L 619.1875 88.343473 
L 619.948409 88.343473 
L 622.231136 94.336701 
L 622.992045 85.758207 
L 623.752955 81.52773 
L 624.513864 72.12663 
L 625.274773 75.064474 
L 627.5575 72.949235 
L 628.318409 68.601218 
L 629.079318 66.015906 
L 629.840227 65.545833 
L 630.601136 66.956007 
L 632.883864 65.78087 
L 633.644773 59.317659 
L 634.405682 64.605777 
L 635.9275 63.078063 
L 638.210227 64.605777 
L 638.971136 35.81491 
L 639.732045 25.003636 
L 641.253864 50.034055 
L 643.536591 46.273606 
L 644.2975 56.144779 
L 645.058409 52.854403 
L 645.819318 60.962824 
L 646.580227 65.428383 
L 648.862955 83.407932 
L 649.623864 68.483677 
L 650.384773 58.142476 
L 651.145682 45.921074 
L 651.906591 50.386587 
L 654.189318 50.442978 
L 654.950227 46.559017 
L 655.711136 52.79689 
L 656.472045 54.56229 
L 657.232955 61.624024 
L 661.798409 109.172845 
L 662.559318 99.992617 
L 664.842045 88.693895 
L 665.602955 81.514485 
L 666.363864 77.277453 
L 667.124773 105.053511 
L 667.885682 107.289725 
L 670.168409 170.374321 
L 670.929318 130.82875 
L 671.690227 142.951357 
L 672.451136 189.911711 
L 672.451136 189.911711 
" style="fill:none;stroke:#ff7f0e;stroke-linecap:square;stroke-width:1.5;"/>
   </g>
   <g id="line2d_18">
    <path clip-path="url(#pbb05598339)" d="M 63.723864 312.136724 
L 64.484773 312.136724 
L 65.245682 311.66999 
L 66.006591 312.416786 
L 68.289318 312.043382 
L 69.050227 309.709689 
L 69.811136 315.590651 
L 70.572045 314.750502 
L 71.332955 317.177584 
L 73.615682 310.643157 
L 74.376591 310.643157 
L 75.1375 311.856698 
L 75.898409 311.856698 
L 76.659318 315.403944 
L 78.942045 321.845017 
L 79.702955 320.0714 
L 80.463864 321.00488 
L 81.224773 321.00488 
L 81.985682 317.644318 
L 84.268409 318.857848 
L 85.029318 321.28493 
L 85.790227 319.137897 
L 86.551136 319.511289 
L 87.312045 323.711988 
L 89.594773 323.525281 
L 90.355682 329.312936 
L 91.116591 328.659471 
L 91.8775 327.539296 
L 92.638409 327.165892 
L 97.203864 323.151901 
L 97.964773 320.818184 
L 100.2475 319.044555 
L 101.008409 317.457622 
L 101.769318 315.310613 
L 102.530227 310.088313 
L 103.291136 308.856269 
L 105.573864 311.415141 
L 106.334773 308.192849 
L 107.095682 308.287624 
L 107.856591 311.983799 
L 108.6175 312.836745 
L 110.900227 307.239828 
L 111.661136 307.239828 
L 112.422045 311.529561 
L 113.182955 307.71646 
L 113.943864 307.335157 
L 116.226591 298.946336 
L 116.9875 303.617384 
L 117.748409 303.426726 
L 118.509318 304.380002 
L 119.270227 301.520187 
L 121.552955 301.520187 
L 122.313864 304.665988 
L 123.074773 310.576309 
L 123.835682 303.90337 
L 124.596591 309.623011 
L 126.879318 309.623011 
L 127.640227 313.626781 
L 128.401136 315.819295 
L 129.162045 310.099642 
L 132.205682 304.380002 
L 132.966591 312.006216 
L 133.7275 311.148258 
L 134.488409 305.809909 
L 135.249318 309.146379 
L 139.053864 309.146379 
L 139.814773 310.099642 
L 140.575682 316.105292 
L 142.858409 315.819295 
L 143.619318 322.301565 
L 144.380227 317.725857 
L 145.141136 317.5352 
L 148.184773 317.5352 
L 148.945682 303.426726 
L 149.706591 309.146379 
L 153.511136 309.146379 
L 155.032955 321.157644 
L 155.793864 323.445498 
L 156.554773 321.729604 
L 158.8375 321.729604 
L 159.598409 327.9259 
L 160.359318 331.262335 
L 161.881136 329.927768 
L 164.163864 329.927768 
L 164.924773 329.355807 
L 165.685682 332.882911 
L 166.446591 332.882911 
L 167.2075 342.987626 
L 169.490227 346.433745 
L 170.251136 341.251024 
L 171.012045 341.251024 
L 171.772955 346.33777 
L 172.533864 345.66593 
L 174.816591 347.585462 
L 175.5775 345.953868 
L 177.860227 345.953868 
L 180.142955 347.393511 
L 180.903864 354.59174 
L 181.664773 357.950916 
L 182.425682 365.629021 
L 185.469318 365.724997 
L 186.230227 366.588788 
L 186.991136 365.629021 
L 187.752045 365.629021 
L 188.512955 367.260627 
L 191.556591 365.724997 
L 193.078409 365.629021 
L 198.404773 365.629021 
L 199.165682 360.926178 
L 201.448409 360.830202 
L 202.970227 360.926178 
L 203.731136 356.031383 
L 204.492045 356.031383 
L 207.535682 351.32854 
L 209.0575 351.232564 
L 209.818409 347.969364 
L 212.101136 342.306754 
L 212.862045 349.025105 
L 213.622955 341.826865 
L 215.144773 341.922864 
L 217.4275 347.777413 
L 218.188409 347.393511 
L 219.710227 347.393511 
L 220.471136 345.473979 
L 222.753864 340.771135 
L 224.275682 340.771135 
L 225.036591 346.433745 
L 225.7975 346.241783 
L 228.841136 346.241783 
L 229.602045 350.080847 
L 230.362955 345.857892 
L 231.123864 349.984872 
L 235.689318 349.984872 
L 236.450227 351.232564 
L 238.732955 350.295608 
L 239.493864 350.295608 
L 240.254773 355.035179 
L 241.015682 351.746489 
L 241.776591 351.26287 
L 244.059318 352.520298 
L 244.820227 352.520298 
L 245.581136 352.713751 
L 246.342045 356.195893 
L 247.102955 358.03369 
L 249.385682 358.03369 
L 250.146591 354.841726 
L 250.9075 359.678023 
L 251.668409 360.451833 
L 254.712045 360.451833 
L 255.472955 358.130405 
L 256.233864 357.453333 
L 256.994773 360.064928 
L 257.755682 360.935464 
L 260.038409 358.130405 
L 261.560227 358.130405 
L 262.321136 355.228631 
L 263.082045 360.355107 
L 265.364773 354.841726 
L 266.125682 354.938453 
L 266.886591 354.261369 
L 267.6475 351.359596 
L 268.408409 351.26287 
L 270.691136 351.26287 
L 271.452045 350.585787 
L 272.212955 335.012908 
L 272.973864 335.593265 
L 273.734773 335.593265 
L 276.0175 337.237598 
L 277.539318 344.492049 
L 278.300227 336.753968 
L 281.343864 342.557526 
L 282.104773 342.557526 
L 282.865682 338.301586 
L 283.626591 338.301586 
L 284.3875 327.565005 
L 286.670227 328.048635 
L 287.431136 327.565005 
L 288.192045 323.792684 
L 288.952955 323.792684 
L 289.713864 324.663231 
L 292.7575 324.663231 
L 293.518409 328.628992 
L 294.279318 316.538244 
L 297.322955 322.728708 
L 298.083864 323.889422 
L 298.844773 322.631982 
L 299.605682 322.051625 
L 300.366591 320.310565 
L 302.649318 318.37603 
L 303.410227 318.37603 
L 304.171136 321.277827 
L 305.692955 319.730208 
L 307.975682 319.440018 
L 309.4975 316.538244 
L 310.258409 320.987637 
L 311.019318 321.277827 
L 313.302045 316.634971 
L 314.062955 317.892399 
L 314.823864 314.506995 
L 315.584773 317.40878 
L 316.345682 312.572483 
L 318.628409 312.185567 
L 319.389318 317.40878 
L 320.150227 317.40878 
L 320.911136 319.730208 
L 321.672045 318.37603 
L 323.954773 316.538244 
L 324.715682 316.248066 
L 325.476591 311.605221 
L 326.2375 316.925149 
L 326.998409 318.182589 
L 329.281136 318.279315 
L 330.042045 316.925149 
L 330.802955 314.023364 
L 331.563864 314.023364 
L 332.324773 308.8969 
L 336.129318 308.8969 
L 336.890227 316.925149 
L 337.651136 312.959376 
L 341.455682 308.703448 
L 342.216591 306.865651 
L 342.9775 303.867139 
L 345.260227 316.15134 
L 346.021136 315.184078 
L 346.782045 306.768913 
L 347.542955 302.416247 
L 348.303864 303.867139 
L 350.586591 300.86864 
L 351.3475 300.385009 
L 352.108409 300.965366 
L 352.869318 299.127569 
L 353.630227 301.932628 
L 355.912955 301.932628 
L 356.673864 298.063592 
L 357.434773 295.161796 
L 358.195682 289.358249 
L 361.239318 289.745142 
L 362.000227 287.520452 
L 362.761136 283.457964 
L 363.522045 283.361238 
L 364.282955 283.554679 
L 366.565682 285.972844 
L 367.326591 278.331489 
L 368.0875 280.749643 
L 368.848409 280.749643 
L 369.609318 282.587428 
L 371.892045 283.554679 
L 372.652955 280.943084 
L 373.413864 269.916312 
L 374.174773 262.565146 
L 374.935682 267.885074 
L 377.218409 267.304717 
L 377.979318 263.435693 
L 378.740227 258.792837 
L 379.501136 264.596407 
L 380.262045 264.112765 
L 382.544773 266.144026 
L 383.305682 272.914835 
L 384.8275 282.103798 
L 385.588409 281.136536 
L 390.153864 281.620167 
L 390.914773 287.133547 
L 393.1975 277.751132 
L 393.958409 276.203524 
L 394.719318 273.978811 
L 395.480227 273.978811 
L 396.241136 277.751132 
L 398.523864 277.751132 
L 399.284773 284.231773 
L 400.045682 280.459453 
L 400.806591 271.101233 
L 401.5675 277.025703 
L 403.850227 268.078549 
L 404.611136 270.980311 
L 405.372045 269.287609 
L 406.132955 270.133972 
L 406.893864 282.82925 
L 409.176591 280.773816 
L 409.9375 274.244794 
L 410.698409 271.463931 
L 412.220227 271.463931 
L 414.502955 269.287609 
L 415.263864 287.302815 
L 416.024773 293.469105 
L 416.785682 291.655481 
L 417.546591 295.766337 
L 419.829318 294.678176 
L 420.590227 293.590016 
L 422.112045 287.423725 
L 426.6775 287.665535 
L 427.438409 285.489214 
L 428.199318 285.247392 
L 430.482045 287.302815 
L 431.242955 289.84188 
L 432.764773 286.819195 
L 433.525682 286.214654 
L 435.808409 287.423725 
L 436.569318 283.19197 
L 437.330227 281.378357 
L 438.091136 283.554679 
L 438.852045 280.290185 
L 441.134773 280.290185 
L 441.895682 279.806554 
L 442.656591 279.806554 
L 443.4175 280.411095 
L 444.178409 278.839304 
L 446.461136 278.960214 
L 447.222045 271.705752 
L 447.982955 275.332977 
L 448.743864 273.519376 
L 449.504773 274.123918 
L 452.548409 274.123918 
L 453.309318 271.705752 
L 454.070227 271.705752 
L 454.831136 271.584853 
L 457.113864 271.705752 
L 457.874773 275.332977 
L 458.635682 272.310293 
L 459.396591 272.189394 
L 460.1575 271.584853 
L 462.440227 281.378357 
L 463.201136 272.914835 
L 463.962045 274.123918 
L 464.722955 275.81662 
L 465.483864 275.81662 
L 467.766591 263.242218 
L 468.5275 247.524256 
L 469.288409 247.524256 
L 470.810227 246.315196 
L 473.092955 246.315196 
L 473.853864 242.68797 
L 474.614773 243.292512 
L 475.375682 243.655232 
L 476.136591 245.106113 
L 478.419318 241.478888 
L 479.180227 244.501572 
L 479.941136 241.478888 
L 480.702045 241.478888 
L 481.462955 237.488942 
L 483.745682 233.378097 
L 485.2675 225.881825 
L 486.028409 229.388151 
L 486.789318 227.937247 
L 489.072045 225.035462 
L 489.832955 223.342783 
L 490.593864 225.760926 
L 491.354773 226.849109 
L 492.115682 225.640027 
L 494.398409 225.519104 
L 495.159318 230.597234 
L 495.920227 232.169014 
L 497.442045 226.849109 
L 499.724773 232.894478 
L 500.485682 229.50905 
L 501.246591 232.894478 
L 502.0075 233.498996 
L 502.768409 236.884423 
L 505.051136 236.642602 
L 505.812045 236.038038 
L 506.572955 233.015354 
L 507.333864 229.388151 
L 508.094773 214.879249 
L 510.3775 205.569398 
L 511.138409 205.206655 
L 511.899318 205.206655 
L 512.660227 208.229339 
L 513.421136 208.592083 
L 515.703864 205.811173 
L 516.464773 208.95478 
L 517.225682 211.131124 
L 517.986591 205.811173 
L 518.7475 205.327577 
L 521.030227 211.252023 
L 522.552045 199.282186 
L 523.312955 196.138603 
L 524.073864 199.403108 
L 526.356591 198.919466 
L 527.1175 205.811173 
L 527.878409 210.889303 
L 528.639318 211.372946 
L 529.400227 212.582028 
L 531.682955 216.571974 
L 532.443864 218.385575 
L 533.204773 219.111016 
L 533.965682 219.111016 
L 534.726591 217.781034 
L 537.009318 216.088332 
L 537.770227 207.866619 
L 538.531136 207.987518 
L 539.292045 203.634875 
L 540.052955 203.513953 
L 542.335682 204.360316 
L 543.096591 203.755751 
L 543.8575 201.216709 
L 544.618409 196.138603 
L 545.379318 192.390478 
L 547.662045 189.488693 
L 548.422955 193.35774 
L 549.183864 195.29224 
L 549.944773 195.775859 
L 550.705682 193.115919 
L 552.988409 194.324978 
L 553.749318 196.622245 
L 554.510227 196.622245 
L 555.271136 199.161287 
L 556.032045 193.115919 
L 558.314773 194.324978 
L 559.075682 190.455955 
L 559.836591 188.27961 
L 560.5975 188.76323 
L 561.358409 181.387902 
L 563.641136 181.508802 
L 565.162955 186.707807 
L 565.923864 187.070527 
L 566.684773 191.906836 
L 568.9675 183.564201 
L 569.728409 190.939574 
L 570.489318 181.146081 
L 571.250227 186.466009 
L 572.011136 184.531486 
L 574.293864 184.531486 
L 575.054773 190.335056 
L 575.815682 188.884152 
L 576.576591 190.214134 
L 577.3375 187.070527 
L 579.620227 175.100713 
L 580.381136 181.508802 
L 581.142045 180.420641 
L 581.902955 167.72534 
L 584.946591 168.934423 
L 585.7075 175.584309 
L 587.229318 168.934423 
L 587.990227 161.800871 
L 590.272955 152.490997 
L 591.033864 153.70008 
L 591.794773 143.543844 
L 592.555682 151.040116 
L 593.316591 138.707558 
L 595.599318 148.259253 
L 596.360227 147.654712 
L 597.882045 148.742872 
L 598.642955 145.96201 
L 600.925682 145.720188 
L 601.686591 143.543844 
L 602.4475 134.59669 
L 603.208409 136.773035 
L 603.969318 136.168517 
L 606.252045 120.20871 
L 607.012955 132.66219 
L 607.773864 140.52116 
L 608.534773 141.730243 
L 609.295682 141.730243 
L 611.578409 145.96201 
L 613.861136 147.05017 
L 616.904773 137.740297 
L 619.1875 147.171092 
L 619.948409 142.455683 
L 622.231136 148.863772 
L 622.992045 148.984694 
L 623.752955 147.53379 
L 624.513864 143.181147 
L 625.274773 144.752927 
L 627.5575 140.279338 
L 628.318409 139.795719 
L 629.840227 132.66219 
L 630.601136 132.66219 
L 632.883864 134.475791 
L 633.644773 108.359772 
L 634.405682 98.44538 
L 635.9275 95.059953 
L 638.210227 102.556225 
L 638.971136 78.253807 
L 639.732045 60.722244 
L 640.492955 78.253807 
L 641.253864 108.480694 
L 643.536591 96.389935 
L 644.2975 87.805525 
L 645.058409 94.939054 
L 645.819318 94.576333 
L 646.580227 100.258981 
L 648.862955 116.339664 
L 649.623864 119.362348 
L 650.384773 114.526062 
L 651.145682 96.389935 
L 651.906591 97.599018 
L 654.189318 110.433743 
L 654.950227 104.378535 
L 655.711136 120.000983 
L 656.472045 120.000983 
L 657.232955 124.845145 
L 661.798409 141.315319 
L 662.559318 132.1114 
L 664.842045 136.592264 
L 665.602955 136.834455 
L 666.363864 135.744515 
L 667.124773 136.228943 
L 667.885682 148.097146 
L 670.168409 190.846925 
L 670.929318 172.075765 
L 671.690227 193.14791 
L 672.451136 229.11584 
L 672.451136 229.11584 
" style="fill:none;stroke:#2ca02c;stroke-linecap:square;stroke-width:1.5;"/>
   </g>
   <g id="line2d_19">
    <path clip-path="url(#pbb05598339)" d="M 63.723864 312.136724 
L 64.484773 314.42056 
L 65.245682 315.963702 
L 66.006591 315.716787 
L 68.289318 314.729178 
L 69.050227 316.889582 
L 69.811136 318.062364 
L 70.572045 322.691776 
L 71.332955 320.531373 
L 73.615682 320.531373 
L 74.376591 320.407915 
L 75.1375 316.951323 
L 75.898409 321.210376 
L 76.659318 323.062123 
L 78.942045 324.913883 
L 79.702955 334.728228 
L 80.463864 336.579988 
L 81.224773 336.579988 
L 81.985682 332.320948 
L 85.029318 335.715824 
L 85.790227 333.246815 
L 86.551136 327.753264 
L 87.312045 332.938197 
L 89.594773 336.950347 
L 90.355682 338.061401 
L 91.116591 340.468706 
L 91.8775 337.258966 
L 92.638409 341.271104 
L 97.203864 331.950588 
L 97.964773 328.247056 
L 100.2475 326.580457 
L 101.008409 326.580457 
L 101.769318 324.605265 
L 103.291136 327.012545 
L 105.573864 326.148394 
L 106.334773 328.432229 
L 107.095682 329.234664 
L 107.856591 327.69151 
L 108.6175 331.703673 
L 110.900227 333.246815 
L 111.661136 333.061641 
L 112.422045 334.17267 
L 113.182955 334.481326 
L 113.943864 330.222273 
L 116.226591 329.049491 
L 116.9875 329.790197 
L 117.748409 331.580241 
L 119.270227 334.604796 
L 121.552955 337.258966 
L 122.313864 339.913173 
L 123.074773 340.96246 
L 123.835682 338.55518 
L 124.596591 340.406952 
L 126.879318 341.703204 
L 127.640227 344.604276 
L 128.401136 345.159822 
L 129.162045 343.801866 
L 132.205682 347.690547 
L 132.966591 347.443657 
L 133.7275 347.752263 
L 134.488409 348.678168 
L 135.249318 348.739884 
L 137.532045 352.011328 
L 138.292955 349.983952 
L 139.053864 349.547678 
L 139.814773 346.493835 
L 140.575682 348.114251 
L 142.858409 349.859309 
L 143.619318 350.295596 
L 144.380227 346.306859 
L 145.141136 346.805454 
L 145.902045 342.816742 
L 148.184773 342.505148 
L 149.706591 344.374824 
L 150.4675 341.88191 
L 151.228409 348.737501 
L 153.511136 352.165272 
L 155.032955 352.227593 
L 155.793864 351.915987 
L 156.554773 352.850844 
L 158.8375 356.839531 
L 159.598409 357.774375 
L 161.120227 359.020838 
L 161.881136 361.638432 
L 164.163864 362.448634 
L 164.924773 365.87643 
L 165.685682 364.629954 
L 166.446591 367.122868 
L 167.2075 368.930273 
L 169.490227 368.120071 
L 170.251136 355.593055 
L 171.012045 360.828243 
L 171.772955 358.085994 
L 172.533864 362.137028 
L 174.816591 366.499668 
L 175.5775 367.55918 
L 176.338409 365.377847 
L 177.860227 362.573277 
L 180.142955 353.78565 
L 181.664773 365.938751 
L 182.425682 370.488374 
L 183.186591 368.671273 
L 186.230227 373.038364 
L 186.991136 375.82319 
L 187.752045 374.937095 
L 188.512955 377.785207 
L 190.795682 375.82319 
L 191.556591 376.582683 
L 192.3175 375.253561 
L 193.078409 376.962422 
L 193.839318 375.886476 
L 196.122045 376.962422 
L 196.882955 376.20293 
L 197.643864 377.215584 
L 198.404773 380.380144 
L 199.165682 381.013065 
L 202.209318 381.013065 
L 202.970227 379.683944 
L 204.492045 379.937106 
L 207.535682 379.747236 
L 208.296591 380.633313 
L 209.0575 380.570027 
L 209.818409 380.823189 
L 212.101136 381.076364 
L 212.862045 379.683944 
L 213.622955 376.899137 
L 214.383864 372.532033 
L 215.144773 372.278871 
L 217.4275 375.380146 
L 218.188409 371.329497 
L 219.710227 375.633308 
L 220.471136 379.36749 
L 222.753864 377.532045 
L 223.514773 377.848505 
L 224.275682 376.582683 
L 225.7975 375.570009 
L 228.080227 376.835851 
L 229.602045 371.519385 
L 230.362955 371.456093 
L 231.123864 375.506723 
L 233.406591 374.304187 
L 234.1675 370.126972 
L 234.928409 369.810512 
L 235.689318 369.810512 
L 236.450227 369.177604 
L 238.732955 370.570017 
L 240.254773 368.291533 
L 241.015682 371.202919 
L 241.776591 368.354807 
L 244.059318 366.392796 
L 244.820227 366.582666 
L 245.581136 365.253545 
L 246.342045 368.924448 
L 247.102955 367.342152 
L 249.385682 368.48141 
L 250.146591 372.1523 
L 250.9075 372.025703 
L 251.668409 373.101662 
L 254.712045 374.367479 
L 255.472955 376.582683 
L 256.233864 377.532045 
L 256.994773 379.683944 
L 257.755682 378.354829 
L 260.038409 376.962422 
L 261.560227 370.190264 
L 262.321136 371.202919 
L 263.082045 365.380129 
L 265.364773 366.456094 
L 266.125682 366.329517 
L 266.886591 365.380129 
L 267.6475 359.810502 
L 268.408409 358.734549 
L 270.691136 360.570007 
L 271.452045 357.84846 
L 272.212955 353.671258 
L 273.734773 356.329475 
L 276.0175 351.139587 
L 276.778409 350.190244 
L 277.539318 352.215565 
L 278.300227 353.607966 
L 281.343864 354.114302 
L 282.104773 346.013004 
L 282.865682 342.088971 
L 283.626591 337.278836 
L 284.3875 337.721868 
L 286.670227 337.65855 
L 287.431136 338.101608 
L 288.192045 341.45605 
L 288.952955 338.734503 
L 289.713864 331.329443 
L 291.996591 335.12693 
L 292.7575 328.861115 
L 293.518409 327.848416 
L 294.279318 316.329434 
L 297.322955 313.6079 
L 298.083864 315.126897 
L 298.844773 314.493976 
L 299.605682 317.405387 
L 300.366591 315.820866 
L 302.649318 319.337762 
L 303.410227 320.105071 
L 304.171136 309.618355 
L 305.692955 308.083724 
L 307.975682 310.641443 
L 309.4975 312.048216 
L 310.258409 309.362602 
L 311.019318 309.746238 
L 313.302045 311.280882 
L 314.062955 310.449625 
L 314.823864 308.019764 
L 315.584773 306.357262 
L 316.345682 306.293315 
L 318.628409 304.566853 
L 319.389318 307.827971 
L 320.150227 307.508233 
L 320.911136 303.032222 
L 321.672045 301.753343 
L 323.954773 303.607713 
L 324.715682 301.2418 
L 325.476591 296.062389 
L 326.2375 297.59702 
L 326.998409 301.113904 
L 329.281136 305.398097 
L 330.042045 301.433617 
L 330.802955 304.950514 
L 331.563864 301.945174 
L 332.324773 295.678728 
L 336.129318 294.591693 
L 336.890227 287.046369 
L 337.651136 284.232872 
L 341.455682 278.030374 
L 342.216591 275.408695 
L 342.9775 281.482592 
L 345.260227 287.80015 
L 346.021136 288.186963 
L 346.782045 281.675985 
L 348.303864 284.834777 
L 350.586591 285.543888 
L 351.3475 291.023406 
L 352.108409 290.701096 
L 352.869318 289.99196 
L 353.630227 288.251415 
L 355.912955 288.380344 
L 356.673864 290.056437 
L 357.434773 288.767145 
L 358.195682 281.353662 
L 361.239318 277.808095 
L 362.000227 273.811251 
L 362.761136 272.586423 
L 363.522045 270.072277 
L 364.282955 263.883661 
L 366.565682 265.108476 
L 367.326591 258.533047 
L 368.848409 269.749954 
L 369.609318 267.300299 
L 371.892045 271.361608 
L 372.652955 269.878896 
L 373.413864 278.001489 
L 374.174773 272.006241 
L 374.935682 273.359998 
L 377.218409 272.715352 
L 377.979318 273.424476 
L 378.740227 277.485772 
L 379.501136 276.905578 
L 380.262045 270.716936 
L 382.544773 276.454338 
L 383.305682 276.067538 
L 384.066591 275.229498 
L 384.8275 276.583255 
L 385.588409 273.682334 
L 390.153864 273.553405 
L 390.914773 269.749954 
L 393.1975 262.336485 
L 393.958409 261.562897 
L 394.719318 264.915095 
L 395.480227 266.526723 
L 396.241136 270.459078 
L 398.523864 273.231094 
L 399.284773 275.229498 
L 400.045682 279.484188 
L 400.806591 280.193286 
L 401.5675 284.061202 
L 403.850227 281.418127 
L 404.611136 281.675985 
L 405.372045 288.70268 
L 406.132955 281.804927 
L 406.893864 278.517206 
L 409.176591 275.551821 
L 409.9375 276.389861 
L 410.698409 278.903981 
L 411.459318 280.193286 
L 412.220227 280.502283 
L 414.502955 281.862571 
L 415.263864 285.230933 
L 416.024773 285.101373 
L 416.785682 286.591221 
L 417.546591 286.915095 
L 419.829318 284.129739 
L 420.590227 285.749146 
L 421.351136 290.413003 
L 422.112045 284.712707 
L 425.155682 286.591221 
L 425.916591 282.316005 
L 426.6775 283.67628 
L 427.438409 276.550928 
L 428.199318 266.834522 
L 430.482045 266.316308 
L 431.242955 264.373027 
L 432.764773 266.834522 
L 433.525682 265.539001 
L 435.808409 264.567367 
L 436.569318 266.964069 
L 437.330227 261.328527 
L 438.091136 262.300186 
L 438.852045 261.328527 
L 441.134773 265.927642 
L 441.895682 271.044971 
L 442.656591 277.457795 
L 443.4175 280.761377 
L 444.178409 290.150341 
L 446.461136 288.068536 
L 447.222045 279.546119 
L 447.982955 280.652066 
L 448.743864 283.254354 
L 449.504773 287.417977 
L 451.7875 287.743238 
L 452.548409 275.772826 
L 453.309318 277.594428 
L 454.070227 280.912307 
L 454.831136 280.001519 
L 457.113864 278.440159 
L 457.874773 278.635318 
L 458.635682 279.28589 
L 460.1575 291.191269 
L 462.440227 290.280481 
L 463.201136 288.263708 
L 463.962045 292.557458 
L 464.722955 284.490403 
L 465.483864 288.784165 
L 467.766591 293.598373 
L 468.5275 292.297216 
L 469.288409 290.605742 
L 470.810227 286.312004 
L 473.092955 281.758051 
L 473.853864 284.880759 
L 474.614773 282.278496 
L 475.375682 278.570261 
L 476.136591 277.72453 
L 478.419318 280.977364 
L 479.180227 282.408598 
L 479.941136 279.416017 
L 480.702045 278.700375 
L 481.462955 277.529345 
L 483.745682 278.310032 
L 485.2675 267.055237 
L 486.028409 268.356369 
L 486.789318 268.486483 
L 489.072045 271.088758 
L 489.832955 270.893562 
L 490.593864 263.932504 
L 491.354773 263.932504 
L 492.115682 267.185339 
L 494.398409 269.852672 
L 495.159318 273.235608 
L 495.920227 277.72453 
L 496.681136 277.529345 
L 497.442045 274.081364 
L 499.724773 266.729939 
L 500.485682 258.077419 
L 501.246591 263.021716 
L 502.0075 253.913759 
L 502.768409 241.683131 
L 505.051136 242.333703 
L 505.812045 242.854161 
L 506.572955 247.082828 
L 507.333864 242.692476 
L 508.094773 242.036054 
L 510.3775 242.889463 
L 511.138409 242.495564 
L 511.899318 246.76251 
L 512.660227 254.705565 
L 513.421136 254.574266 
L 515.703864 254.574266 
L 516.464773 258.316013 
L 517.225682 255.230713 
L 517.986591 261.270064 
L 518.7475 262.189085 
L 521.030227 268.031499 
L 522.552045 261.138764 
L 523.312955 259.497633 
L 524.073864 253.589557 
L 526.356591 255.29635 
L 527.1175 257.856502 
L 527.878409 258.316013 
L 528.639318 260.219755 
L 529.400227 261.138764 
L 531.682955 268.097148 
L 532.443864 270.7886 
L 533.965682 258.184713 
L 534.726591 258.3817 
L 537.009318 262.320384 
L 537.770227 254.574266 
L 538.531136 254.574266 
L 539.292045 250.110384 
L 540.052955 250.438595 
L 542.335682 249.453961 
L 543.096591 254.442966 
L 543.8575 257.528316 
L 544.618409 254.902477 
L 545.379318 247.391573 
L 547.662045 242.450201 
L 548.422955 247.786909 
L 549.183864 252.069437 
L 549.944773 251.147012 
L 550.705682 242.58198 
L 552.988409 243.899665 
L 553.749318 247.19393 
L 554.510227 248.445726 
L 555.271136 249.434016 
L 556.032045 246.20564 
L 558.314773 246.535087 
L 559.075682 249.829352 
L 559.836591 251.608212 
L 560.5975 249.829352 
L 563.641136 251.147012 
L 564.402045 253.123591 
L 565.162955 261.359215 
L 565.923864 264.851122 
L 566.684773 266.037054 
L 568.9675 266.959442 
L 569.728409 266.037054 
L 570.489318 265.839399 
L 571.250227 263.862845 
L 572.011136 251.410569 
L 574.293864 248.511641 
L 575.054773 251.476459 
L 575.815682 246.139776 
L 576.576591 246.139776 
L 577.3375 254.770723 
L 579.620227 256.154298 
L 580.381136 265.312309 
L 581.142045 261.688649 
L 581.902955 258.657941 
L 584.946591 264.587577 
L 585.7075 264.982901 
L 587.229318 262.742802 
L 587.990227 260.173295 
L 590.272955 263.204002 
L 591.033864 268.211263 
L 592.555682 260.436827 
L 593.316591 259.975614 
L 595.599318 263.467534 
L 596.360227 260.370938 
L 597.121136 252.201191 
L 597.882045 254.836587 
L 598.642955 250.422305 
L 600.925682 250.356416 
L 601.686591 250.092858 
L 602.4475 243.174933 
L 603.208409 247.259794 
L 603.969318 250.026994 
L 606.252045 246.535087 
L 607.012955 251.942248 
L 607.773864 252.07443 
L 608.534773 246.455758 
L 609.295682 244.538789 
L 611.578409 237.531977 
L 613.861136 240.506554 
L 614.622045 246.455758 
L 616.904773 246.191343 
L 619.1875 242.754028 
L 619.948409 239.97775 
L 622.231136 246.455758 
L 622.992045 255.445654 
L 623.752955 260.469419 
L 624.513864 260.1389 
L 625.274773 259.147358 
L 627.5575 253.925307 
L 628.318409 251.082913 
L 629.079318 258.288048 
L 629.840227 257.693128 
L 630.601136 260.998235 
L 632.883864 263.840617 
L 633.644773 289.950971 
L 634.405682 290.083179 
L 635.166591 294.04931 
L 635.9275 290.876397 
L 638.210227 297.354418 
L 638.971136 296.362875 
L 639.732045 296.825601 
L 640.492955 300.725616 
L 641.253864 307.137533 
L 643.536591 305.947692 
L 644.2975 300.262903 
L 645.058409 302.510377 
L 645.819318 303.964632 
L 646.580227 308.062959 
L 648.862955 309.252799 
L 649.623864 309.252799 
L 650.384773 306.476509 
L 651.145682 302.642584 
L 651.906591 306.278198 
L 654.189318 305.551082 
L 654.950227 301.584951 
L 656.472045 311.830779 
L 657.232955 313.681644 
L 661.798409 326.439361 
L 662.559318 322.208815 
L 664.842045 319.234225 
L 665.602955 320.886779 
L 666.363864 318.507098 
L 667.124773 327.43089 
L 667.885682 332.719057 
L 670.168409 346.270005 
L 670.929318 336.024165 
L 671.690227 346.666615 
L 672.451136 371.983737 
L 672.451136 371.983737 
" style="fill:none;stroke:#d62728;stroke-linecap:square;stroke-width:1.5;"/>
   </g>
   <g id="patch_3">
    <path d="M 33.2875 398.88 
L 33.2875 7.2 
" style="fill:none;stroke:#000000;stroke-linecap:square;stroke-linejoin:miter;stroke-width:0.8;"/>
   </g>
   <g id="patch_4">
    <path d="M 702.8875 398.88 
L 702.8875 7.2 
" style="fill:none;stroke:#000000;stroke-linecap:square;stroke-linejoin:miter;stroke-width:0.8;"/>
   </g>
   <g id="patch_5">
    <path d="M 33.2875 398.88 
L 702.8875 398.88 
" style="fill:none;stroke:#000000;stroke-linecap:square;stroke-linejoin:miter;stroke-width:0.8;"/>
   </g>
   <g id="patch_6">
    <path d="M 33.2875 7.2 
L 702.8875 7.2 
" style="fill:none;stroke:#000000;stroke-linecap:square;stroke-linejoin:miter;stroke-width:0.8;"/>
   </g>
   <g id="legend_1">
    <g id="patch_7">
     <path d="M 40.2875 73.9125 
L 124.896875 73.9125 
Q 126.896875 73.9125 126.896875 71.9125 
L 126.896875 14.2 
Q 126.896875 12.2 124.896875 12.2 
L 40.2875 12.2 
Q 38.2875 12.2 38.2875 14.2 
L 38.2875 71.9125 
Q 38.2875 73.9125 40.2875 73.9125 
z
" style="fill:#ffffff;opacity:0.8;stroke:#cccccc;stroke-linejoin:miter;"/>
    </g>
    <g id="line2d_20">
     <path d="M 42.2875 20.298437 
L 62.2875 20.298437 
" style="fill:none;stroke:#1f77b4;stroke-linecap:square;stroke-width:1.5;"/>
    </g>
    <g id="line2d_21"/>
    <g id="text_17">
     <!-- GRND3.SA -->
     <defs>
      <path d="M 59.515625 10.40625 
L 59.515625 29.984375 
L 43.40625 29.984375 
L 43.40625 38.09375 
L 69.28125 38.09375 
L 69.28125 6.78125 
Q 63.578125 2.734375 56.6875 0.65625 
Q 49.8125 -1.421875 42 -1.421875 
Q 24.90625 -1.421875 15.25 8.5625 
Q 5.609375 18.5625 5.609375 36.375 
Q 5.609375 54.25 15.25 64.234375 
Q 24.90625 74.21875 42 74.21875 
Q 49.125 74.21875 55.546875 72.453125 
Q 61.96875 70.703125 67.390625 67.28125 
L 67.390625 56.78125 
Q 61.921875 61.421875 55.765625 63.765625 
Q 49.609375 66.109375 42.828125 66.109375 
Q 29.4375 66.109375 22.71875 58.640625 
Q 16.015625 51.171875 16.015625 36.375 
Q 16.015625 21.625 22.71875 14.15625 
Q 29.4375 6.6875 42.828125 6.6875 
Q 48.046875 6.6875 52.140625 7.59375 
Q 56.25 8.5 59.515625 10.40625 
z
" id="DejaVuSans-71"/>
      <path d="M 44.390625 34.1875 
Q 47.5625 33.109375 50.5625 29.59375 
Q 53.5625 26.078125 56.59375 19.921875 
L 66.609375 0 
L 56 0 
L 46.6875 18.703125 
Q 43.0625 26.03125 39.671875 28.421875 
Q 36.28125 30.8125 30.421875 30.8125 
L 19.671875 30.8125 
L 19.671875 0 
L 9.8125 0 
L 9.8125 72.90625 
L 32.078125 72.90625 
Q 44.578125 72.90625 50.734375 67.671875 
Q 56.890625 62.453125 56.890625 51.90625 
Q 56.890625 45.015625 53.6875 40.46875 
Q 50.484375 35.9375 44.390625 34.1875 
z
M 19.671875 64.796875 
L 19.671875 38.921875 
L 32.078125 38.921875 
Q 39.203125 38.921875 42.84375 42.21875 
Q 46.484375 45.515625 46.484375 51.90625 
Q 46.484375 58.296875 42.84375 61.546875 
Q 39.203125 64.796875 32.078125 64.796875 
z
" id="DejaVuSans-82"/>
      <path d="M 9.8125 72.90625 
L 23.09375 72.90625 
L 55.421875 11.921875 
L 55.421875 72.90625 
L 64.984375 72.90625 
L 64.984375 0 
L 51.703125 0 
L 19.390625 60.984375 
L 19.390625 0 
L 9.8125 0 
z
" id="DejaVuSans-78"/>
      <path d="M 40.578125 39.3125 
Q 47.65625 37.796875 51.625 33 
Q 55.609375 28.21875 55.609375 21.1875 
Q 55.609375 10.40625 48.1875 4.484375 
Q 40.765625 -1.421875 27.09375 -1.421875 
Q 22.515625 -1.421875 17.65625 -0.515625 
Q 12.796875 0.390625 7.625 2.203125 
L 7.625 11.71875 
Q 11.71875 9.328125 16.59375 8.109375 
Q 21.484375 6.890625 26.8125 6.890625 
Q 36.078125 6.890625 40.9375 10.546875 
Q 45.796875 14.203125 45.796875 21.1875 
Q 45.796875 27.640625 41.28125 31.265625 
Q 36.765625 34.90625 28.71875 34.90625 
L 20.21875 34.90625 
L 20.21875 43.015625 
L 29.109375 43.015625 
Q 36.375 43.015625 40.234375 45.921875 
Q 44.09375 48.828125 44.09375 54.296875 
Q 44.09375 59.90625 40.109375 62.90625 
Q 36.140625 65.921875 28.71875 65.921875 
Q 24.65625 65.921875 20.015625 65.03125 
Q 15.375 64.15625 9.8125 62.3125 
L 9.8125 71.09375 
Q 15.4375 72.65625 20.34375 73.4375 
Q 25.25 74.21875 29.59375 74.21875 
Q 40.828125 74.21875 47.359375 69.109375 
Q 53.90625 64.015625 53.90625 55.328125 
Q 53.90625 49.265625 50.4375 45.09375 
Q 46.96875 40.921875 40.578125 39.3125 
z
" id="DejaVuSans-51"/>
      <path d="M 10.6875 12.40625 
L 21 12.40625 
L 21 0 
L 10.6875 0 
z
" id="DejaVuSans-46"/>
      <path d="M 53.515625 70.515625 
L 53.515625 60.890625 
Q 47.90625 63.578125 42.921875 64.890625 
Q 37.9375 66.21875 33.296875 66.21875 
Q 25.25 66.21875 20.875 63.09375 
Q 16.5 59.96875 16.5 54.203125 
Q 16.5 49.359375 19.40625 46.890625 
Q 22.3125 44.4375 30.421875 42.921875 
L 36.375 41.703125 
Q 47.40625 39.59375 52.65625 34.296875 
Q 57.90625 29 57.90625 20.125 
Q 57.90625 9.515625 50.796875 4.046875 
Q 43.703125 -1.421875 29.984375 -1.421875 
Q 24.8125 -1.421875 18.96875 -0.25 
Q 13.140625 0.921875 6.890625 3.21875 
L 6.890625 13.375 
Q 12.890625 10.015625 18.65625 8.296875 
Q 24.421875 6.59375 29.984375 6.59375 
Q 38.421875 6.59375 43.015625 9.90625 
Q 47.609375 13.234375 47.609375 19.390625 
Q 47.609375 24.75 44.3125 27.78125 
Q 41.015625 30.8125 33.5 32.328125 
L 27.484375 33.5 
Q 16.453125 35.6875 11.515625 40.375 
Q 6.59375 45.0625 6.59375 53.421875 
Q 6.59375 63.09375 13.40625 68.65625 
Q 20.21875 74.21875 32.171875 74.21875 
Q 37.3125 74.21875 42.625 73.28125 
Q 47.953125 72.359375 53.515625 70.515625 
z
" id="DejaVuSans-83"/>
      <path d="M 34.1875 63.1875 
L 20.796875 26.90625 
L 47.609375 26.90625 
z
M 28.609375 72.90625 
L 39.796875 72.90625 
L 67.578125 0 
L 57.328125 0 
L 50.6875 18.703125 
L 17.828125 18.703125 
L 11.1875 0 
L 0.78125 0 
z
" id="DejaVuSans-65"/>
     </defs>
     <g transform="translate(70.2875 23.798437)scale(0.1 -0.1)">
      <use xlink:href="#DejaVuSans-71"/>
      <use x="77.490234" xlink:href="#DejaVuSans-82"/>
      <use x="146.972656" xlink:href="#DejaVuSans-78"/>
      <use x="221.777344" xlink:href="#DejaVuSans-68"/>
      <use x="298.779297" xlink:href="#DejaVuSans-51"/>
      <use x="362.402344" xlink:href="#DejaVuSans-46"/>
      <use x="394.189453" xlink:href="#DejaVuSans-83"/>
      <use x="457.681641" xlink:href="#DejaVuSans-65"/>
     </g>
    </g>
    <g id="line2d_22">
     <path d="M 42.2875 34.976562 
L 62.2875 34.976562 
" style="fill:none;stroke:#ff7f0e;stroke-linecap:square;stroke-width:1.5;"/>
    </g>
    <g id="line2d_23"/>
    <g id="text_18">
     <!-- ALPA4.SA -->
     <defs>
      <path d="M 9.8125 72.90625 
L 19.671875 72.90625 
L 19.671875 8.296875 
L 55.171875 8.296875 
L 55.171875 0 
L 9.8125 0 
z
" id="DejaVuSans-76"/>
      <path d="M 19.671875 64.796875 
L 19.671875 37.40625 
L 32.078125 37.40625 
Q 38.96875 37.40625 42.71875 40.96875 
Q 46.484375 44.53125 46.484375 51.125 
Q 46.484375 57.671875 42.71875 61.234375 
Q 38.96875 64.796875 32.078125 64.796875 
z
M 9.8125 72.90625 
L 32.078125 72.90625 
Q 44.34375 72.90625 50.609375 67.359375 
Q 56.890625 61.8125 56.890625 51.125 
Q 56.890625 40.328125 50.609375 34.8125 
Q 44.34375 29.296875 32.078125 29.296875 
L 19.671875 29.296875 
L 19.671875 0 
L 9.8125 0 
z
" id="DejaVuSans-80"/>
     </defs>
     <g transform="translate(70.2875 38.476562)scale(0.1 -0.1)">
      <use xlink:href="#DejaVuSans-65"/>
      <use x="68.408203" xlink:href="#DejaVuSans-76"/>
      <use x="124.121094" xlink:href="#DejaVuSans-80"/>
      <use x="184.330078" xlink:href="#DejaVuSans-65"/>
      <use x="252.738281" xlink:href="#DejaVuSans-52"/>
      <use x="316.361328" xlink:href="#DejaVuSans-46"/>
      <use x="348.148438" xlink:href="#DejaVuSans-83"/>
      <use x="411.640625" xlink:href="#DejaVuSans-65"/>
     </g>
    </g>
    <g id="line2d_24">
     <path d="M 42.2875 49.654687 
L 62.2875 49.654687 
" style="fill:none;stroke:#2ca02c;stroke-linecap:square;stroke-width:1.5;"/>
    </g>
    <g id="line2d_25"/>
    <g id="text_19">
     <!-- ALPA3.SA -->
     <g transform="translate(70.2875 53.154687)scale(0.1 -0.1)">
      <use xlink:href="#DejaVuSans-65"/>
      <use x="68.408203" xlink:href="#DejaVuSans-76"/>
      <use x="124.121094" xlink:href="#DejaVuSans-80"/>
      <use x="184.330078" xlink:href="#DejaVuSans-65"/>
      <use x="252.738281" xlink:href="#DejaVuSans-51"/>
      <use x="316.361328" xlink:href="#DejaVuSans-46"/>
      <use x="348.148438" xlink:href="#DejaVuSans-83"/>
      <use x="411.640625" xlink:href="#DejaVuSans-65"/>
     </g>
    </g>
    <g id="line2d_26">
     <path d="M 42.2875 64.332812 
L 62.2875 64.332812 
" style="fill:none;stroke:#d62728;stroke-linecap:square;stroke-width:1.5;"/>
    </g>
    <g id="line2d_27"/>
    <g id="text_20">
     <!-- HGTX3.SA -->
     <defs>
      <path d="M 9.8125 72.90625 
L 19.671875 72.90625 
L 19.671875 43.015625 
L 55.515625 43.015625 
L 55.515625 72.90625 
L 65.375 72.90625 
L 65.375 0 
L 55.515625 0 
L 55.515625 34.71875 
L 19.671875 34.71875 
L 19.671875 0 
L 9.8125 0 
z
" id="DejaVuSans-72"/>
      <path d="M -0.296875 72.90625 
L 61.375 72.90625 
L 61.375 64.59375 
L 35.5 64.59375 
L 35.5 0 
L 25.59375 0 
L 25.59375 64.59375 
L -0.296875 64.59375 
z
" id="DejaVuSans-84"/>
      <path d="M 6.296875 72.90625 
L 16.890625 72.90625 
L 35.015625 45.796875 
L 53.21875 72.90625 
L 63.8125 72.90625 
L 40.375 37.890625 
L 65.375 0 
L 54.78125 0 
L 34.28125 31 
L 13.625 0 
L 2.984375 0 
L 29 38.921875 
z
" id="DejaVuSans-88"/>
     </defs>
     <g transform="translate(70.2875 67.832812)scale(0.1 -0.1)">
      <use xlink:href="#DejaVuSans-72"/>
      <use x="75.195312" xlink:href="#DejaVuSans-71"/>
      <use x="152.638672" xlink:href="#DejaVuSans-84"/>
      <use x="213.722656" xlink:href="#DejaVuSans-88"/>
      <use x="282.228516" xlink:href="#DejaVuSans-51"/>
      <use x="345.851562" xlink:href="#DejaVuSans-46"/>
      <use x="377.638672" xlink:href="#DejaVuSans-83"/>
      <use x="441.130859" xlink:href="#DejaVuSans-65"/>
     </g>
    </g>
   </g>
  </g>
 </g>
 <defs>
  <clipPath id="pbb05598339">
   <rect height="391.68" width="669.6" x="33.2875" y="7.2"/>
  </clipPath>
 </defs>
</svg>
