<?xml version="1.0" encoding="utf-8" standalone="no"?>
<!DOCTYPE svg PUBLIC "-//W3C//DTD SVG 1.1//EN"
  "http://www.w3.org/Graphics/SVG/1.1/DTD/svg11.dtd">
<!-- Created with matplotlib (https://matplotlib.org/) -->
<svg height="456.031033pt" version="1.1" viewBox="0 0 721.645312 456.031033" width="721.645312pt" xmlns="http://www.w3.org/2000/svg" xmlns:xlink="http://www.w3.org/1999/xlink">
 <defs>
  <style type="text/css">
*{stroke-linecap:butt;stroke-linejoin:round;}
  </style>
 </defs>
 <g id="figure_1">
  <g id="patch_1">
   <path d="M 0 456.031033 
L 721.645312 456.031033 
L 721.645312 0 
L 0 0 
z
" style="fill:none;"/>
  </g>
  <g id="axes_1">
   <g id="patch_2">
    <path d="M 44.845313 398.88 
L 714.445312 398.88 
L 714.445312 7.2 
L 44.845313 7.2 
z
" style="fill:#ffffff;"/>
   </g>
   <g id="matplotlib.axis_1">
    <g id="xtick_1">
     <g id="line2d_1">
      <defs>
       <path d="M 0 0 
L 0 3.5 
" id="m33c3ac410d" style="stroke:#000000;stroke-width:0.8;"/>
      </defs>
      <g>
       <use style="stroke:#000000;stroke-width:0.8;" x="73.757953" xlink:href="#m33c3ac410d" y="398.88"/>
      </g>
     </g>
     <g id="text_1">
      <!-- 2018-01 -->
      <defs>
       <path d="M 19.1875 8.296875 
L 53.609375 8.296875 
L 53.609375 0 
L 7.328125 0 
L 7.328125 8.296875 
Q 12.9375 14.109375 22.625 23.890625 
Q 32.328125 33.6875 34.8125 36.53125 
Q 39.546875 41.84375 41.421875 45.53125 
Q 43.3125 49.21875 43.3125 52.78125 
Q 43.3125 58.59375 39.234375 62.25 
Q 35.15625 65.921875 28.609375 65.921875 
Q 23.96875 65.921875 18.8125 64.3125 
Q 13.671875 62.703125 7.8125 59.421875 
L 7.8125 69.390625 
Q 13.765625 71.78125 18.9375 73 
Q 24.125 74.21875 28.421875 74.21875 
Q 39.75 74.21875 46.484375 68.546875 
Q 53.21875 62.890625 53.21875 53.421875 
Q 53.21875 48.921875 51.53125 44.890625 
Q 49.859375 40.875 45.40625 35.40625 
Q 44.1875 33.984375 37.640625 27.21875 
Q 31.109375 20.453125 19.1875 8.296875 
z
" id="DejaVuSans-50"/>
       <path d="M 31.78125 66.40625 
Q 24.171875 66.40625 20.328125 58.90625 
Q 16.5 51.421875 16.5 36.375 
Q 16.5 21.390625 20.328125 13.890625 
Q 24.171875 6.390625 31.78125 6.390625 
Q 39.453125 6.390625 43.28125 13.890625 
Q 47.125 21.390625 47.125 36.375 
Q 47.125 51.421875 43.28125 58.90625 
Q 39.453125 66.40625 31.78125 66.40625 
z
M 31.78125 74.21875 
Q 44.046875 74.21875 50.515625 64.515625 
Q 56.984375 54.828125 56.984375 36.375 
Q 56.984375 17.96875 50.515625 8.265625 
Q 44.046875 -1.421875 31.78125 -1.421875 
Q 19.53125 -1.421875 13.0625 8.265625 
Q 6.59375 17.96875 6.59375 36.375 
Q 6.59375 54.828125 13.0625 64.515625 
Q 19.53125 74.21875 31.78125 74.21875 
z
" id="DejaVuSans-48"/>
       <path d="M 12.40625 8.296875 
L 28.515625 8.296875 
L 28.515625 63.921875 
L 10.984375 60.40625 
L 10.984375 69.390625 
L 28.421875 72.90625 
L 38.28125 72.90625 
L 38.28125 8.296875 
L 54.390625 8.296875 
L 54.390625 0 
L 12.40625 0 
z
" id="DejaVuSans-49"/>
       <path d="M 31.78125 34.625 
Q 24.75 34.625 20.71875 30.859375 
Q 16.703125 27.09375 16.703125 20.515625 
Q 16.703125 13.921875 20.71875 10.15625 
Q 24.75 6.390625 31.78125 6.390625 
Q 38.8125 6.390625 42.859375 10.171875 
Q 46.921875 13.96875 46.921875 20.515625 
Q 46.921875 27.09375 42.890625 30.859375 
Q 38.875 34.625 31.78125 34.625 
z
M 21.921875 38.8125 
Q 15.578125 40.375 12.03125 44.71875 
Q 8.5 49.078125 8.5 55.328125 
Q 8.5 64.0625 14.71875 69.140625 
Q 20.953125 74.21875 31.78125 74.21875 
Q 42.671875 74.21875 48.875 69.140625 
Q 55.078125 64.0625 55.078125 55.328125 
Q 55.078125 49.078125 51.53125 44.71875 
Q 48 40.375 41.703125 38.8125 
Q 48.828125 37.15625 52.796875 32.3125 
Q 56.78125 27.484375 56.78125 20.515625 
Q 56.78125 9.90625 50.3125 4.234375 
Q 43.84375 -1.421875 31.78125 -1.421875 
Q 19.734375 -1.421875 13.25 4.234375 
Q 6.78125 9.90625 6.78125 20.515625 
Q 6.78125 27.484375 10.78125 32.3125 
Q 14.796875 37.15625 21.921875 38.8125 
z
M 18.3125 54.390625 
Q 18.3125 48.734375 21.84375 45.5625 
Q 25.390625 42.390625 31.78125 42.390625 
Q 38.140625 42.390625 41.71875 45.5625 
Q 45.3125 48.734375 45.3125 54.390625 
Q 45.3125 60.0625 41.71875 63.234375 
Q 38.140625 66.40625 31.78125 66.40625 
Q 25.390625 66.40625 21.84375 63.234375 
Q 18.3125 60.0625 18.3125 54.390625 
z
" id="DejaVuSans-56"/>
       <path d="M 4.890625 31.390625 
L 31.203125 31.390625 
L 31.203125 23.390625 
L 4.890625 23.390625 
z
" id="DejaVuSans-45"/>
      </defs>
      <g transform="translate(36.533132 433.351846)rotate(-30)scale(0.1 -0.1)">
       <use xlink:href="#DejaVuSans-50"/>
       <use x="63.623047" xlink:href="#DejaVuSans-48"/>
       <use x="127.246094" xlink:href="#DejaVuSans-49"/>
       <use x="190.869141" xlink:href="#DejaVuSans-56"/>
       <use x="254.492188" xlink:href="#DejaVuSans-45"/>
       <use x="290.576172" xlink:href="#DejaVuSans-48"/>
       <use x="354.199219" xlink:href="#DejaVuSans-49"/>
      </g>
     </g>
    </g>
    <g id="xtick_2">
     <g id="line2d_2">
      <g>
       <use style="stroke:#000000;stroke-width:0.8;" x="142.325481" xlink:href="#m33c3ac410d" y="398.88"/>
      </g>
     </g>
     <g id="text_2">
      <!-- 2018-04 -->
      <defs>
       <path d="M 37.796875 64.3125 
L 12.890625 25.390625 
L 37.796875 25.390625 
z
M 35.203125 72.90625 
L 47.609375 72.90625 
L 47.609375 25.390625 
L 58.015625 25.390625 
L 58.015625 17.1875 
L 47.609375 17.1875 
L 47.609375 0 
L 37.796875 0 
L 37.796875 17.1875 
L 4.890625 17.1875 
L 4.890625 26.703125 
z
" id="DejaVuSans-52"/>
      </defs>
      <g transform="translate(105.10066 433.351846)rotate(-30)scale(0.1 -0.1)">
       <use xlink:href="#DejaVuSans-50"/>
       <use x="63.623047" xlink:href="#DejaVuSans-48"/>
       <use x="127.246094" xlink:href="#DejaVuSans-49"/>
       <use x="190.869141" xlink:href="#DejaVuSans-56"/>
       <use x="254.492188" xlink:href="#DejaVuSans-45"/>
       <use x="290.576172" xlink:href="#DejaVuSans-48"/>
       <use x="354.199219" xlink:href="#DejaVuSans-52"/>
      </g>
     </g>
    </g>
    <g id="xtick_3">
     <g id="line2d_3">
      <g>
       <use style="stroke:#000000;stroke-width:0.8;" x="211.65487" xlink:href="#m33c3ac410d" y="398.88"/>
      </g>
     </g>
     <g id="text_3">
      <!-- 2018-07 -->
      <defs>
       <path d="M 8.203125 72.90625 
L 55.078125 72.90625 
L 55.078125 68.703125 
L 28.609375 0 
L 18.3125 0 
L 43.21875 64.59375 
L 8.203125 64.59375 
z
" id="DejaVuSans-55"/>
      </defs>
      <g transform="translate(174.430049 433.351846)rotate(-30)scale(0.1 -0.1)">
       <use xlink:href="#DejaVuSans-50"/>
       <use x="63.623047" xlink:href="#DejaVuSans-48"/>
       <use x="127.246094" xlink:href="#DejaVuSans-49"/>
       <use x="190.869141" xlink:href="#DejaVuSans-56"/>
       <use x="254.492188" xlink:href="#DejaVuSans-45"/>
       <use x="290.576172" xlink:href="#DejaVuSans-48"/>
       <use x="354.199219" xlink:href="#DejaVuSans-55"/>
      </g>
     </g>
    </g>
    <g id="xtick_4">
     <g id="line2d_4">
      <g>
       <use style="stroke:#000000;stroke-width:0.8;" x="281.74612" xlink:href="#m33c3ac410d" y="398.88"/>
      </g>
     </g>
     <g id="text_4">
      <!-- 2018-10 -->
      <g transform="translate(244.5213 433.351846)rotate(-30)scale(0.1 -0.1)">
       <use xlink:href="#DejaVuSans-50"/>
       <use x="63.623047" xlink:href="#DejaVuSans-48"/>
       <use x="127.246094" xlink:href="#DejaVuSans-49"/>
       <use x="190.869141" xlink:href="#DejaVuSans-56"/>
       <use x="254.492188" xlink:href="#DejaVuSans-45"/>
       <use x="290.576172" xlink:href="#DejaVuSans-49"/>
       <use x="354.199219" xlink:href="#DejaVuSans-48"/>
      </g>
     </g>
    </g>
    <g id="xtick_5">
     <g id="line2d_5">
      <g>
       <use style="stroke:#000000;stroke-width:0.8;" x="351.837371" xlink:href="#m33c3ac410d" y="398.88"/>
      </g>
     </g>
     <g id="text_5">
      <!-- 2019-01 -->
      <defs>
       <path d="M 10.984375 1.515625 
L 10.984375 10.5 
Q 14.703125 8.734375 18.5 7.8125 
Q 22.3125 6.890625 25.984375 6.890625 
Q 35.75 6.890625 40.890625 13.453125 
Q 46.046875 20.015625 46.78125 33.40625 
Q 43.953125 29.203125 39.59375 26.953125 
Q 35.25 24.703125 29.984375 24.703125 
Q 19.046875 24.703125 12.671875 31.3125 
Q 6.296875 37.9375 6.296875 49.421875 
Q 6.296875 60.640625 12.9375 67.421875 
Q 19.578125 74.21875 30.609375 74.21875 
Q 43.265625 74.21875 49.921875 64.515625 
Q 56.59375 54.828125 56.59375 36.375 
Q 56.59375 19.140625 48.40625 8.859375 
Q 40.234375 -1.421875 26.421875 -1.421875 
Q 22.703125 -1.421875 18.890625 -0.6875 
Q 15.09375 0.046875 10.984375 1.515625 
z
M 30.609375 32.421875 
Q 37.25 32.421875 41.125 36.953125 
Q 45.015625 41.5 45.015625 49.421875 
Q 45.015625 57.28125 41.125 61.84375 
Q 37.25 66.40625 30.609375 66.40625 
Q 23.96875 66.40625 20.09375 61.84375 
Q 16.21875 57.28125 16.21875 49.421875 
Q 16.21875 41.5 20.09375 36.953125 
Q 23.96875 32.421875 30.609375 32.421875 
z
" id="DejaVuSans-57"/>
      </defs>
      <g transform="translate(314.61255 433.351846)rotate(-30)scale(0.1 -0.1)">
       <use xlink:href="#DejaVuSans-50"/>
       <use x="63.623047" xlink:href="#DejaVuSans-48"/>
       <use x="127.246094" xlink:href="#DejaVuSans-49"/>
       <use x="190.869141" xlink:href="#DejaVuSans-57"/>
       <use x="254.492188" xlink:href="#DejaVuSans-45"/>
       <use x="290.576172" xlink:href="#DejaVuSans-48"/>
       <use x="354.199219" xlink:href="#DejaVuSans-49"/>
      </g>
     </g>
    </g>
    <g id="xtick_6">
     <g id="line2d_6">
      <g>
       <use style="stroke:#000000;stroke-width:0.8;" x="420.404898" xlink:href="#m33c3ac410d" y="398.88"/>
      </g>
     </g>
     <g id="text_6">
      <!-- 2019-04 -->
      <g transform="translate(383.180078 433.351846)rotate(-30)scale(0.1 -0.1)">
       <use xlink:href="#DejaVuSans-50"/>
       <use x="63.623047" xlink:href="#DejaVuSans-48"/>
       <use x="127.246094" xlink:href="#DejaVuSans-49"/>
       <use x="190.869141" xlink:href="#DejaVuSans-57"/>
       <use x="254.492188" xlink:href="#DejaVuSans-45"/>
       <use x="290.576172" xlink:href="#DejaVuSans-48"/>
       <use x="354.199219" xlink:href="#DejaVuSans-52"/>
      </g>
     </g>
    </g>
    <g id="xtick_7">
     <g id="line2d_7">
      <g>
       <use style="stroke:#000000;stroke-width:0.8;" x="489.734287" xlink:href="#m33c3ac410d" y="398.88"/>
      </g>
     </g>
     <g id="text_7">
      <!-- 2019-07 -->
      <g transform="translate(452.509467 433.351846)rotate(-30)scale(0.1 -0.1)">
       <use xlink:href="#DejaVuSans-50"/>
       <use x="63.623047" xlink:href="#DejaVuSans-48"/>
       <use x="127.246094" xlink:href="#DejaVuSans-49"/>
       <use x="190.869141" xlink:href="#DejaVuSans-57"/>
       <use x="254.492188" xlink:href="#DejaVuSans-45"/>
       <use x="290.576172" xlink:href="#DejaVuSans-48"/>
       <use x="354.199219" xlink:href="#DejaVuSans-55"/>
      </g>
     </g>
    </g>
    <g id="xtick_8">
     <g id="line2d_8">
      <g>
       <use style="stroke:#000000;stroke-width:0.8;" x="559.825538" xlink:href="#m33c3ac410d" y="398.88"/>
      </g>
     </g>
     <g id="text_8">
      <!-- 2019-10 -->
      <g transform="translate(522.600717 433.351846)rotate(-30)scale(0.1 -0.1)">
       <use xlink:href="#DejaVuSans-50"/>
       <use x="63.623047" xlink:href="#DejaVuSans-48"/>
       <use x="127.246094" xlink:href="#DejaVuSans-49"/>
       <use x="190.869141" xlink:href="#DejaVuSans-57"/>
       <use x="254.492188" xlink:href="#DejaVuSans-45"/>
       <use x="290.576172" xlink:href="#DejaVuSans-49"/>
       <use x="354.199219" xlink:href="#DejaVuSans-48"/>
      </g>
     </g>
    </g>
    <g id="xtick_9">
     <g id="line2d_9">
      <g>
       <use style="stroke:#000000;stroke-width:0.8;" x="629.916788" xlink:href="#m33c3ac410d" y="398.88"/>
      </g>
     </g>
     <g id="text_9">
      <!-- 2020-01 -->
      <g transform="translate(592.691967 433.351846)rotate(-30)scale(0.1 -0.1)">
       <use xlink:href="#DejaVuSans-50"/>
       <use x="63.623047" xlink:href="#DejaVuSans-48"/>
       <use x="127.246094" xlink:href="#DejaVuSans-50"/>
       <use x="190.869141" xlink:href="#DejaVuSans-48"/>
       <use x="254.492188" xlink:href="#DejaVuSans-45"/>
       <use x="290.576172" xlink:href="#DejaVuSans-48"/>
       <use x="354.199219" xlink:href="#DejaVuSans-49"/>
      </g>
     </g>
    </g>
    <g id="xtick_10">
     <g id="line2d_10">
      <g>
       <use style="stroke:#000000;stroke-width:0.8;" x="699.246177" xlink:href="#m33c3ac410d" y="398.88"/>
      </g>
     </g>
     <g id="text_10">
      <!-- 2020-04 -->
      <g transform="translate(662.021356 433.351846)rotate(-30)scale(0.1 -0.1)">
       <use xlink:href="#DejaVuSans-50"/>
       <use x="63.623047" xlink:href="#DejaVuSans-48"/>
       <use x="127.246094" xlink:href="#DejaVuSans-50"/>
       <use x="190.869141" xlink:href="#DejaVuSans-48"/>
       <use x="254.492188" xlink:href="#DejaVuSans-45"/>
       <use x="290.576172" xlink:href="#DejaVuSans-48"/>
       <use x="354.199219" xlink:href="#DejaVuSans-52"/>
      </g>
     </g>
    </g>
    <g id="text_11">
     <!-- Date -->
     <defs>
      <path d="M 19.671875 64.796875 
L 19.671875 8.109375 
L 31.59375 8.109375 
Q 46.6875 8.109375 53.6875 14.9375 
Q 60.6875 21.78125 60.6875 36.53125 
Q 60.6875 51.171875 53.6875 57.984375 
Q 46.6875 64.796875 31.59375 64.796875 
z
M 9.8125 72.90625 
L 30.078125 72.90625 
Q 51.265625 72.90625 61.171875 64.09375 
Q 71.09375 55.28125 71.09375 36.53125 
Q 71.09375 17.671875 61.125 8.828125 
Q 51.171875 0 30.078125 0 
L 9.8125 0 
z
" id="DejaVuSans-68"/>
      <path d="M 34.28125 27.484375 
Q 23.390625 27.484375 19.1875 25 
Q 14.984375 22.515625 14.984375 16.5 
Q 14.984375 11.71875 18.140625 8.90625 
Q 21.296875 6.109375 26.703125 6.109375 
Q 34.1875 6.109375 38.703125 11.40625 
Q 43.21875 16.703125 43.21875 25.484375 
L 43.21875 27.484375 
z
M 52.203125 31.203125 
L 52.203125 0 
L 43.21875 0 
L 43.21875 8.296875 
Q 40.140625 3.328125 35.546875 0.953125 
Q 30.953125 -1.421875 24.3125 -1.421875 
Q 15.921875 -1.421875 10.953125 3.296875 
Q 6 8.015625 6 15.921875 
Q 6 25.140625 12.171875 29.828125 
Q 18.359375 34.515625 30.609375 34.515625 
L 43.21875 34.515625 
L 43.21875 35.40625 
Q 43.21875 41.609375 39.140625 45 
Q 35.0625 48.390625 27.6875 48.390625 
Q 23 48.390625 18.546875 47.265625 
Q 14.109375 46.140625 10.015625 43.890625 
L 10.015625 52.203125 
Q 14.9375 54.109375 19.578125 55.046875 
Q 24.21875 56 28.609375 56 
Q 40.484375 56 46.34375 49.84375 
Q 52.203125 43.703125 52.203125 31.203125 
z
" id="DejaVuSans-97"/>
      <path d="M 18.3125 70.21875 
L 18.3125 54.6875 
L 36.8125 54.6875 
L 36.8125 47.703125 
L 18.3125 47.703125 
L 18.3125 18.015625 
Q 18.3125 11.328125 20.140625 9.421875 
Q 21.96875 7.515625 27.59375 7.515625 
L 36.8125 7.515625 
L 36.8125 0 
L 27.59375 0 
Q 17.1875 0 13.234375 3.875 
Q 9.28125 7.765625 9.28125 18.015625 
L 9.28125 47.703125 
L 2.6875 47.703125 
L 2.6875 54.6875 
L 9.28125 54.6875 
L 9.28125 70.21875 
z
" id="DejaVuSans-116"/>
      <path d="M 56.203125 29.59375 
L 56.203125 25.203125 
L 14.890625 25.203125 
Q 15.484375 15.921875 20.484375 11.0625 
Q 25.484375 6.203125 34.421875 6.203125 
Q 39.59375 6.203125 44.453125 7.46875 
Q 49.3125 8.734375 54.109375 11.28125 
L 54.109375 2.78125 
Q 49.265625 0.734375 44.1875 -0.34375 
Q 39.109375 -1.421875 33.890625 -1.421875 
Q 20.796875 -1.421875 13.15625 6.1875 
Q 5.515625 13.8125 5.515625 26.8125 
Q 5.515625 40.234375 12.765625 48.109375 
Q 20.015625 56 32.328125 56 
Q 43.359375 56 49.78125 48.890625 
Q 56.203125 41.796875 56.203125 29.59375 
z
M 47.21875 32.234375 
Q 47.125 39.59375 43.09375 43.984375 
Q 39.0625 48.390625 32.421875 48.390625 
Q 24.90625 48.390625 20.390625 44.140625 
Q 15.875 39.890625 15.1875 32.171875 
z
" id="DejaVuSans-101"/>
     </defs>
     <g transform="translate(367.694531 446.751346)scale(0.1 -0.1)">
      <use xlink:href="#DejaVuSans-68"/>
      <use x="77.001953" xlink:href="#DejaVuSans-97"/>
      <use x="138.28125" xlink:href="#DejaVuSans-116"/>
      <use x="177.490234" xlink:href="#DejaVuSans-101"/>
     </g>
    </g>
   </g>
   <g id="matplotlib.axis_2">
    <g id="ytick_1">
     <g id="line2d_11">
      <defs>
       <path d="M 0 0 
L -3.5 0 
" id="m4b70fbb46d" style="stroke:#000000;stroke-width:0.8;"/>
      </defs>
      <g>
       <use style="stroke:#000000;stroke-width:0.8;" x="44.845313" xlink:href="#m4b70fbb46d" y="377.742109"/>
      </g>
     </g>
     <g id="text_12">
      <!-- −0.20 -->
      <defs>
       <path d="M 10.59375 35.5 
L 73.1875 35.5 
L 73.1875 27.203125 
L 10.59375 27.203125 
z
" id="DejaVuSans-8722"/>
       <path d="M 10.6875 12.40625 
L 21 12.40625 
L 21 0 
L 10.6875 0 
z
" id="DejaVuSans-46"/>
      </defs>
      <g transform="translate(7.2 381.541328)scale(0.1 -0.1)">
       <use xlink:href="#DejaVuSans-8722"/>
       <use x="83.789062" xlink:href="#DejaVuSans-48"/>
       <use x="147.412109" xlink:href="#DejaVuSans-46"/>
       <use x="179.199219" xlink:href="#DejaVuSans-50"/>
       <use x="242.822266" xlink:href="#DejaVuSans-48"/>
      </g>
     </g>
    </g>
    <g id="ytick_2">
     <g id="line2d_12">
      <g>
       <use style="stroke:#000000;stroke-width:0.8;" x="44.845313" xlink:href="#m4b70fbb46d" y="327.082861"/>
      </g>
     </g>
     <g id="text_13">
      <!-- −0.15 -->
      <defs>
       <path d="M 10.796875 72.90625 
L 49.515625 72.90625 
L 49.515625 64.59375 
L 19.828125 64.59375 
L 19.828125 46.734375 
Q 21.96875 47.46875 24.109375 47.828125 
Q 26.265625 48.1875 28.421875 48.1875 
Q 40.625 48.1875 47.75 41.5 
Q 54.890625 34.8125 54.890625 23.390625 
Q 54.890625 11.625 47.5625 5.09375 
Q 40.234375 -1.421875 26.90625 -1.421875 
Q 22.3125 -1.421875 17.546875 -0.640625 
Q 12.796875 0.140625 7.71875 1.703125 
L 7.71875 11.625 
Q 12.109375 9.234375 16.796875 8.0625 
Q 21.484375 6.890625 26.703125 6.890625 
Q 35.15625 6.890625 40.078125 11.328125 
Q 45.015625 15.765625 45.015625 23.390625 
Q 45.015625 31 40.078125 35.4375 
Q 35.15625 39.890625 26.703125 39.890625 
Q 22.75 39.890625 18.8125 39.015625 
Q 14.890625 38.140625 10.796875 36.28125 
z
" id="DejaVuSans-53"/>
      </defs>
      <g transform="translate(7.2 330.882079)scale(0.1 -0.1)">
       <use xlink:href="#DejaVuSans-8722"/>
       <use x="83.789062" xlink:href="#DejaVuSans-48"/>
       <use x="147.412109" xlink:href="#DejaVuSans-46"/>
       <use x="179.199219" xlink:href="#DejaVuSans-49"/>
       <use x="242.822266" xlink:href="#DejaVuSans-53"/>
      </g>
     </g>
    </g>
    <g id="ytick_3">
     <g id="line2d_13">
      <g>
       <use style="stroke:#000000;stroke-width:0.8;" x="44.845313" xlink:href="#m4b70fbb46d" y="276.423612"/>
      </g>
     </g>
     <g id="text_14">
      <!-- −0.10 -->
      <g transform="translate(7.2 280.222831)scale(0.1 -0.1)">
       <use xlink:href="#DejaVuSans-8722"/>
       <use x="83.789062" xlink:href="#DejaVuSans-48"/>
       <use x="147.412109" xlink:href="#DejaVuSans-46"/>
       <use x="179.199219" xlink:href="#DejaVuSans-49"/>
       <use x="242.822266" xlink:href="#DejaVuSans-48"/>
      </g>
     </g>
    </g>
    <g id="ytick_4">
     <g id="line2d_14">
      <g>
       <use style="stroke:#000000;stroke-width:0.8;" x="44.845313" xlink:href="#m4b70fbb46d" y="225.764364"/>
      </g>
     </g>
     <g id="text_15">
      <!-- −0.05 -->
      <g transform="translate(7.2 229.563583)scale(0.1 -0.1)">
       <use xlink:href="#DejaVuSans-8722"/>
       <use x="83.789062" xlink:href="#DejaVuSans-48"/>
       <use x="147.412109" xlink:href="#DejaVuSans-46"/>
       <use x="179.199219" xlink:href="#DejaVuSans-48"/>
       <use x="242.822266" xlink:href="#DejaVuSans-53"/>
      </g>
     </g>
    </g>
    <g id="ytick_5">
     <g id="line2d_15">
      <g>
       <use style="stroke:#000000;stroke-width:0.8;" x="44.845313" xlink:href="#m4b70fbb46d" y="175.105116"/>
      </g>
     </g>
     <g id="text_16">
      <!-- 0.00 -->
      <g transform="translate(15.579688 178.904335)scale(0.1 -0.1)">
       <use xlink:href="#DejaVuSans-48"/>
       <use x="63.623047" xlink:href="#DejaVuSans-46"/>
       <use x="95.410156" xlink:href="#DejaVuSans-48"/>
       <use x="159.033203" xlink:href="#DejaVuSans-48"/>
      </g>
     </g>
    </g>
    <g id="ytick_6">
     <g id="line2d_16">
      <g>
       <use style="stroke:#000000;stroke-width:0.8;" x="44.845313" xlink:href="#m4b70fbb46d" y="124.445868"/>
      </g>
     </g>
     <g id="text_17">
      <!-- 0.05 -->
      <g transform="translate(15.579688 128.245086)scale(0.1 -0.1)">
       <use xlink:href="#DejaVuSans-48"/>
       <use x="63.623047" xlink:href="#DejaVuSans-46"/>
       <use x="95.410156" xlink:href="#DejaVuSans-48"/>
       <use x="159.033203" xlink:href="#DejaVuSans-53"/>
      </g>
     </g>
    </g>
    <g id="ytick_7">
     <g id="line2d_17">
      <g>
       <use style="stroke:#000000;stroke-width:0.8;" x="44.845313" xlink:href="#m4b70fbb46d" y="73.786619"/>
      </g>
     </g>
     <g id="text_18">
      <!-- 0.10 -->
      <g transform="translate(15.579688 77.585838)scale(0.1 -0.1)">
       <use xlink:href="#DejaVuSans-48"/>
       <use x="63.623047" xlink:href="#DejaVuSans-46"/>
       <use x="95.410156" xlink:href="#DejaVuSans-49"/>
       <use x="159.033203" xlink:href="#DejaVuSans-48"/>
      </g>
     </g>
    </g>
    <g id="ytick_8">
     <g id="line2d_18">
      <g>
       <use style="stroke:#000000;stroke-width:0.8;" x="44.845313" xlink:href="#m4b70fbb46d" y="23.127371"/>
      </g>
     </g>
     <g id="text_19">
      <!-- 0.15 -->
      <g transform="translate(15.579688 26.92659)scale(0.1 -0.1)">
       <use xlink:href="#DejaVuSans-48"/>
       <use x="63.623047" xlink:href="#DejaVuSans-46"/>
       <use x="95.410156" xlink:href="#DejaVuSans-49"/>
       <use x="159.033203" xlink:href="#DejaVuSans-53"/>
      </g>
     </g>
    </g>
   </g>
   <g id="line2d_19">
    <path clip-path="url(#p2de325ce00)" d="M 75.281676 193.97903 
L 76.043538 179.097259 
L 76.805399 167.454384 
L 79.090983 168.957694 
L 79.852845 174.745916 
L 80.614706 175.105116 
L 81.376567 167.919039 
L 82.138429 185.807926 
L 85.185875 162.21198 
L 85.947736 150.350503 
L 86.709597 191.675143 
L 87.471459 181.070553 
L 89.757043 166.279706 
L 90.518904 180.005195 
L 91.280766 156.817192 
L 92.042627 175.105116 
L 92.804489 176.141374 
L 95.090073 188.24597 
L 95.851934 171.951828 
L 96.613796 166.723059 
L 98.137519 182.376714 
L 100.423103 164.990451 
L 101.184964 190.989569 
L 101.946826 150.197371 
L 102.708687 159.350557 
L 103.470549 181.851628 
L 108.041717 185.967222 
L 108.803579 174.761245 
L 111.089163 174.07601 
L 111.851024 170.6514 
L 112.612886 175.105116 
L 113.374747 197.279452 
L 114.136608 156.271476 
L 116.422193 172.365431 
L 117.184054 204.814372 
L 117.945916 188.825155 
L 118.707777 179.028518 
L 119.469638 174.03103 
L 121.755223 176.178065 
L 122.517084 185.845642 
L 123.278945 181.255794 
L 124.040807 170.736331 
L 124.802668 172.930159 
L 127.088253 182.701103 
L 127.850114 174.741221 
L 128.611975 177.291023 
L 129.373837 173.279034 
L 130.135698 186.03915 
L 132.421282 191.684399 
L 133.183144 173.233074 
L 133.945005 195.667477 
L 134.706867 174.341381 
L 135.468728 173.961455 
L 137.754312 146.919324 
L 138.516174 178.06922 
L 139.278035 195.547826 
L 140.039897 150.448388 
L 143.087342 197.324061 
L 143.849204 157.309381 
L 144.611065 161.710439 
L 145.372927 189.426978 
L 146.134788 170.635142 
L 148.420372 183.635274 
L 149.944095 173.979197 
L 150.705956 164.610243 
L 151.467818 197.735293 
L 153.753402 158.028952 
L 154.515264 173.985417 
L 155.277125 164.668046 
L 156.038986 197.611903 
L 156.800848 172.840935 
L 159.086432 171.716653 
L 159.848293 173.979197 
L 160.610155 157.487612 
L 161.372016 159.99984 
L 162.133878 200.516074 
L 164.419462 170.637018 
L 165.943185 196.606747 
L 166.705046 191.012737 
L 167.466908 205.507029 
L 169.752492 189.493325 
L 170.514353 138.710862 
L 171.276215 173.075543 
L 172.038076 177.536673 
L 172.799938 176.729768 
L 175.085522 195.042927 
L 175.847383 169.294999 
L 176.609245 179.231705 
L 177.371106 200.382451 
L 178.132968 162.355262 
L 180.418552 167.131143 
L 181.180413 148.036409 
L 181.942275 190.923455 
L 182.704136 187.054277 
L 183.465997 180.108504 
L 185.751582 205.693044 
L 186.513443 175.105116 
L 187.275305 179.426636 
L 188.799027 101.339583 
L 191.084612 152.050746 
L 191.846473 210.696994 
L 192.608334 200.926657 
L 193.370196 185.199064 
L 194.132057 159.811738 
L 196.417642 175.105116 
L 197.179503 178.871498 
L 197.941364 176.365471 
L 198.703226 177.628524 
L 199.465087 153.601613 
L 201.750671 193.684586 
L 202.512533 166.272651 
L 203.274394 167.600253 
L 204.036256 178.829957 
L 204.798117 181.33632 
L 207.083701 171.343333 
L 207.845563 180.102273 
L 208.607424 173.849634 
L 209.369286 182.628682 
L 210.131147 187.738392 
L 212.416731 163.591652 
L 213.178593 173.840167 
L 213.940454 149.838564 
L 214.702316 181.268095 
L 215.464177 147.822413 
L 218.511623 175.105116 
L 219.273484 188.388679 
L 220.035345 173.881599 
L 220.797207 178.771729 
L 223.082791 176.331596 
L 223.844653 166.508431 
L 224.606514 183.629474 
L 225.368375 175.105116 
L 226.130237 152.999081 
L 228.415821 189.527874 
L 229.177683 186.078115 
L 229.939544 186.198503 
L 230.701405 182.582536 
L 231.463267 165.061201 
L 233.748851 198.725364 
L 234.510712 196.743437 
L 235.272574 159.497691 
L 236.034435 168.700667 
L 236.796297 170.013727 
L 239.081881 168.772654 
L 239.843742 205.779479 
L 240.605604 182.928838 
L 241.367465 197.445173 
L 242.129327 187.198782 
L 244.414911 192.784887 
L 245.176772 132.196949 
L 245.938634 201.663078 
L 246.700495 181.923311 
L 247.462357 186.088055 
L 249.747941 157.062203 
L 250.509802 203.741643 
L 251.271664 169.491811 
L 252.033525 162.545029 
L 252.795386 190.268521 
L 255.080971 166.708313 
L 255.842832 168.16564 
L 257.366555 191.714769 
L 258.128416 180.733873 
L 260.414001 153.879198 
L 261.175862 188.965291 
L 261.937723 183.536715 
L 262.699585 179.356152 
L 265.747031 189.335296 
L 266.508892 177.991694 
L 267.270753 176.552493 
L 268.032615 196.847257 
L 268.794476 157.329948 
L 271.08006 176.560956 
L 271.841922 157.611134 
L 272.603783 170.805906 
L 273.365645 199.364602 
L 274.127506 194.111364 
L 276.41309 172.125149 
L 277.174952 175.105116 
L 277.936813 175.105116 
L 278.698675 176.590693 
L 279.460536 187.007481 
L 281.74612 194.676334 
L 282.507982 150.542962 
L 283.269843 145.129266 
L 284.031705 178.016578 
L 284.793566 164.885596 
L 287.07915 133.19014 
L 287.841012 144.57087 
L 288.602873 179.147126 
L 289.364735 200.806599 
L 292.41218 134.855465 
L 293.174042 179.109715 
L 293.935903 171.084626 
L 294.697764 177.774915 
L 295.459626 165.73623 
L 297.74521 164.495808 
L 298.507072 139.669786 
L 299.268933 227.095872 
L 300.030794 153.718678 
L 300.792656 236.629212 
L 303.07824 189.041619 
L 303.840101 169.452738 
L 304.601963 163.863217 
L 305.363824 136.189907 
L 308.41127 173.766656 
L 309.173131 178.81234 
L 309.934993 166.999629 
L 310.696854 191.187432 
L 311.458716 166.934262 
L 313.7443 202.123317 
L 314.506161 161.225904 
L 315.268023 134.030081 
L 316.791746 142.209481 
L 319.07733 175.105116 
L 320.601053 190.398488 
L 321.362914 166.047271 
L 322.124775 167.410033 
L 324.41036 159.830957 
L 325.172221 172.597189 
L 325.934083 177.606851 
L 326.695944 172.597189 
L 327.457805 217.633863 
L 329.74339 181.633386 
L 330.505251 177.733398 
L 331.267112 151.389451 
L 332.028974 177.679964 
L 332.790835 176.39566 
L 335.07642 195.782462 
L 335.838281 151.358572 
L 336.600142 158.3476 
L 337.362004 191.589982 
L 338.123865 162.214753 
L 340.409449 196.743456 
L 341.171311 167.301438 
L 341.933172 168.651692 
L 342.695034 178.952626 
L 343.456895 166.093308 
L 347.266202 192.96977 
L 348.028064 151.724034 
L 348.789925 147.172714 
L 352.599232 162.74917 
L 354.122955 195.9575 
L 356.408539 173.852671 
L 357.170401 165.098301 
L 357.932262 151.571594 
L 358.694124 141.211243 
L 359.455985 180.961634 
L 361.741569 185.708253 
L 362.503431 164.389842 
L 363.265292 188.06448 
L 364.027153 159.590972 
L 364.789015 175.105116 
L 367.074599 183.332891 
L 367.836461 179.845245 
L 368.598322 145.34044 
L 369.360183 162.382569 
L 372.407629 172.820612 
L 373.16949 173.965547 
L 373.931352 142.091237 
L 374.693213 180.617399 
L 375.455075 169.562679 
L 377.740659 155.260286 
L 378.50252 182.674212 
L 379.264382 192.536235 
L 380.026243 192.841484 
L 380.788105 169.463704 
L 383.073689 177.349141 
L 383.83555 176.229731 
L 384.597412 181.859633 
L 385.359273 178.505041 
L 386.121135 176.242353 
L 388.406719 188.765938 
L 389.16858 162.411433 
L 389.930442 196.759191 
L 390.692303 191.409352 
L 391.454164 153.799863 
L 393.739749 168.149548 
L 394.50161 182.013259 
L 395.263472 170.468033 
L 396.025333 187.798798 
L 396.787194 171.599195 
L 401.358363 201.890383 
L 402.120224 175.105116 
L 404.405809 159.554578 
L 405.16767 170.392662 
L 405.929531 173.932457 
L 406.691393 179.790446 
L 407.453254 142.155901 
L 409.738838 183.083005 
L 410.5007 188.889845 
L 411.262561 186.750949 
L 412.024423 198.667617 
L 412.786284 193.197692 
L 415.071868 171.420712 
L 415.83373 166.539606 
L 416.595591 182.385433 
L 417.357453 181.216078 
L 418.119314 157.890691 
L 420.404898 155.76032 
L 421.16676 190.528427 
L 421.928621 187.152412 
L 422.690483 166.570408 
L 423.452344 172.687151 
L 425.737928 170.280341 
L 426.49979 203.916147 
L 427.261651 181.28315 
L 428.023513 186.293458 
L 428.785374 177.619266 
L 431.070958 156.202551 
L 431.83282 171.393598 
L 432.594681 192.361423 
L 433.356542 168.835391 
L 436.403988 168.873889 
L 437.16585 173.866697 
L 437.927711 177.75564 
L 438.689572 170.045479 
L 439.451434 270.759915 
L 441.737018 170.935533 
L 442.498879 172.336831 
L 444.022602 191.669565 
L 444.784464 176.508361 
L 447.070048 169.484077 
L 447.831909 182.092716 
L 448.593771 172.290693 
L 449.355632 180.718301 
L 450.117494 167.902316 
L 452.403078 196.242507 
L 453.164939 176.544272 
L 453.926801 185.193749 
L 454.688662 189.66231 
L 455.450524 169.197371 
L 457.736108 158.952839 
L 458.497969 166.433155 
L 459.259831 183.703483 
L 460.021692 167.87847 
L 460.783553 182.280582 
L 463.069138 172.214485 
L 463.830999 149.162966 
L 464.592861 177.91563 
L 465.354722 173.696052 
L 466.116583 194.805841 
L 469.164029 152.400635 
L 469.92589 184.820607 
L 470.687752 158.288812 
L 471.449613 168.212697 
L 473.735198 186.058461 
L 474.497059 173.721009 
L 475.25892 172.340612 
L 476.020782 168.212697 
L 476.782643 183.320108 
L 479.068228 170.96411 
L 479.830089 176.479766 
L 480.59195 154.455953 
L 482.115673 172.406938 
L 484.401257 164.340873 
L 485.92498 184.412608 
L 486.686842 168.395277 
L 487.448703 148.442337 
L 489.734287 184.19782 
L 490.496149 180.348016 
L 491.25801 169.834944 
L 492.019872 146.269354 
L 492.781733 177.654023 
L 495.067317 159.773164 
L 496.59104 153.708515 
L 497.352902 180.035483 
L 498.114763 198.638849 
L 500.400347 185.249702 
L 501.162209 176.385983 
L 501.92407 164.845021 
L 502.685931 191.610634 
L 503.447793 171.233081 
L 505.733377 180.248091 
L 506.495239 198.367142 
L 507.2571 176.427723 
L 508.018961 196.295964 
L 508.780823 179.163256 
L 511.066407 156.090882 
L 512.59013 181.727244 
L 513.351991 168.439421 
L 514.113853 187.024972 
L 516.399437 183.146246 
L 517.161298 171.052387 
L 517.92316 167.03195 
L 518.685021 152.41188 
L 519.446883 178.108492 
L 521.732467 194.79131 
L 522.494328 172.428271 
L 523.25619 189.788971 
L 524.018051 210.322811 
L 524.779913 152.652172 
L 527.065497 176.478063 
L 527.827358 177.854603 
L 528.58922 150.292397 
L 529.351081 187.214909 
L 530.112942 191.44676 
L 532.398527 180.641651 
L 533.160388 159.796054 
L 533.92225 157.281817 
L 534.684111 137.380105 
L 535.445972 142.631269 
L 537.731557 216.639449 
L 538.493418 163.293362 
L 539.25528 178.996933 
L 540.017141 181.616594 
L 540.779002 169.862302 
L 543.064587 169.889229 
L 543.826448 153.051131 
L 544.588309 109.083031 
L 545.350171 194.176852 
L 546.112032 192.113035 
L 548.397617 173.869464 
L 549.159478 157.827889 
L 550.683201 177.514479 
L 551.445062 170.27467 
L 553.730646 169.095767 
L 554.492508 140.456009 
L 555.254369 195.900266 
L 556.778092 169.159246 
L 559.063676 156.189157 
L 560.587399 213.803135 
L 561.349261 162.912863 
L 562.111122 164.262401 
L 564.396706 188.216877 
L 565.158568 176.312786 
L 565.920429 153.342171 
L 566.682291 177.472373 
L 567.444152 156.122709 
L 569.729736 162.294662 
L 570.491598 172.805145 
L 571.253459 139.534544 
L 572.01532 160.694429 
L 572.777182 175.105116 
L 575.062766 170.733224 
L 575.824628 146.810017 
L 576.586489 154.989564 
L 577.34835 184.448069 
L 578.110212 146.815588 
L 580.395796 187.336738 
L 581.157657 149.311223 
L 581.919519 193.215594 
L 582.68138 166.909476 
L 583.443242 177.137585 
L 585.728826 172.050333 
L 586.490687 178.798306 
L 587.252549 158.63058 
L 588.01441 144.709548 
L 588.776272 187.892898 
L 591.061856 175.105116 
L 591.823717 192.041352 
L 592.585579 178.144644 
L 593.34744 182.218817 
L 596.394886 156.683539 
L 597.156747 163.043402 
L 598.68047 165.171892 
L 599.442332 169.20312 
L 601.727916 161.413393 
L 602.489777 178.964865 
L 603.251639 187.697292 
L 604.0135 141.75729 
L 604.775361 167.50861 
L 607.060946 184.530128 
L 607.822807 151.32143 
L 608.584669 152.796388 
L 609.34653 155.09614 
L 610.108391 141.213354 
L 612.393976 187.187337 
L 613.155837 195.194171 
L 613.917698 154.609685 
L 614.67956 151.522407 
L 615.441421 138.401675 
L 617.727006 175.105116 
L 618.488867 178.400023 
L 619.250728 163.535355 
L 620.01259 166.934238 
L 620.774451 196.179382 
L 623.060035 161.033096 
L 626.107481 180.00363 
L 628.393065 180.847918 
L 630.67865 173.45494 
L 631.440511 164.396648 
L 633.726095 187.331851 
L 634.487957 123.125746 
L 635.249818 178.244338 
L 636.01168 209.743885 
L 636.773541 177.55051 
L 639.059125 183.275916 
L 639.820987 163.57298 
L 640.582848 195.466551 
L 641.344709 175.105116 
L 642.106571 170.118116 
L 644.392155 187.511431 
L 645.154017 180.966571 
L 645.915878 181.842832 
L 646.677739 174.257243 
L 647.439601 172.563705 
L 649.725185 197.920749 
L 650.487046 156.950775 
L 651.248908 189.542795 
L 652.010769 180.274463 
L 652.772631 195.022388 
L 655.820076 162.781461 
L 656.581938 187.280677 
L 657.343799 183.907799 
L 658.105661 206.184359 
L 660.391245 201.671444 
L 661.153106 163.816158 
L 661.914968 183.478559 
L 662.676829 164.785672 
L 663.438691 191.821303 
L 665.724275 121.282552 
L 666.486136 193.93422 
L 667.247998 168.709928 
L 668.009859 192.354643 
L 668.771721 200.042253 
L 673.342889 285.89264 
L 674.10475 157.031504 
L 676.390335 153.170179 
L 677.152196 183.2842 
L 677.914058 161.705913 
L 678.675919 229.01955 
L 679.43778 205.189154 
L 681.723365 202.787766 
L 682.485226 96.554757 
L 683.247087 254.342729 
L 684.008949 255.334671 
L 684.008949 255.334671 
" style="fill:none;stroke:#1f77b4;stroke-linecap:square;stroke-width:1.5;"/>
   </g>
   <g id="line2d_20">
    <path clip-path="url(#p2de325ce00)" d="M 75.281676 199.859094 
L 76.043538 176.285214 
L 76.805399 157.381825 
L 79.090983 195.426868 
L 79.852845 167.995026 
L 80.614706 202.758912 
L 82.138429 152.09182 
L 84.424013 169.775647 
L 85.185875 172.748963 
L 85.947736 165.114316 
L 86.709597 176.269091 
L 87.471459 213.55837 
L 89.757043 198.118111 
L 90.518904 189.358069 
L 91.280766 176.990604 
L 92.042627 175.105116 
L 92.804489 149.917208 
L 95.090073 187.393653 
L 95.851934 183.812595 
L 96.613796 185.770063 
L 97.375657 164.326714 
L 98.137519 197.062675 
L 100.423103 181.517551 
L 101.184964 183.494722 
L 101.946826 182.263081 
L 102.708687 171.828427 
L 103.470549 150.281699 
L 108.041717 177.655594 
L 108.803579 164.877379 
L 111.089163 177.00348 
L 111.851024 148.475929 
L 112.612886 168.927128 
L 113.374747 142.248041 
L 114.136608 166.031789 
L 116.422193 187.095606 
L 117.184054 146.590182 
L 117.945916 177.465446 
L 118.707777 176.879569 
L 119.469638 175.105116 
L 121.755223 162.772851 
L 122.517084 173.926936 
L 123.278945 192.16803 
L 124.040807 160.742277 
L 124.802668 183.36643 
L 127.088253 133.459118 
L 127.850114 172.247852 
L 128.611975 171.116279 
L 129.373837 195.539075 
L 130.135698 175.684298 
L 132.421282 173.945949 
L 133.183144 192.474016 
L 133.945005 175.105116 
L 134.706867 211.037826 
L 135.468728 161.669273 
L 137.754312 182.337765 
L 138.516174 204.851176 
L 139.278035 156.342416 
L 140.039897 125.980957 
L 143.087342 195.01748 
L 143.849204 197.806155 
L 144.611065 179.382725 
L 145.372927 175.105116 
L 146.134788 197.811263 
L 148.420372 178.871636 
L 149.182234 179.515735 
L 149.944095 166.245309 
L 150.705956 171.968318 
L 151.467818 185.111844 
L 153.753402 214.899757 
L 154.515264 192.199781 
L 155.277125 161.729807 
L 156.038986 161.243909 
L 156.800848 146.454649 
L 159.086432 193.469078 
L 159.848293 172.525347 
L 160.610155 169.958916 
L 161.372016 182.785522 
L 162.133878 177.684807 
L 164.419462 178.984608 
L 165.943185 178.999441 
L 166.705046 210.941268 
L 167.466908 181.859606 
L 169.752492 188.704924 
L 170.514353 166.145037 
L 171.276215 170.322649 
L 172.038076 217.944528 
L 172.799938 138.184559 
L 175.847383 216.502561 
L 176.609245 153.890343 
L 177.371106 200.184057 
L 178.132968 188.330273 
L 180.418552 154.853515 
L 181.180413 159.664604 
L 181.942275 240.285068 
L 182.704136 158.850798 
L 185.751582 203.143925 
L 186.513443 147.827003 
L 187.275305 188.007151 
L 188.799027 176.642554 
L 191.084612 148.928586 
L 191.846473 197.620305 
L 192.608334 191.223981 
L 193.370196 241.402821 
L 194.132057 143.39095 
L 196.417642 205.047518 
L 197.179503 168.433828 
L 197.941364 173.448254 
L 198.703226 185.857287 
L 199.465087 178.449016 
L 201.750671 194.395882 
L 202.512533 136.629689 
L 203.274394 174.281449 
L 204.036256 233.542323 
L 204.798117 140.16754 
L 207.083701 196.213308 
L 207.845563 161.308428 
L 208.607424 202.327592 
L 209.369286 122.653749 
L 210.131147 182.585612 
L 212.416731 174.267734 
L 213.178593 176.778497 
L 213.940454 161.696424 
L 214.702316 165.180173 
L 215.464177 166.914366 
L 218.511623 172.667606 
L 219.273484 173.484042 
L 220.035345 168.63108 
L 220.797207 191.187394 
L 223.082791 157.1293 
L 223.844653 175.907897 
L 224.606514 161.44604 
L 225.368375 188.582499 
L 226.130237 154.214793 
L 228.415821 184.55203 
L 229.177683 157.622657 
L 229.939544 161.825166 
L 230.701405 174.334011 
L 231.463267 188.973806 
L 233.748851 172.761667 
L 234.510712 194.589415 
L 235.272574 159.212041 
L 236.034435 182.928927 
L 236.796297 166.431911 
L 239.081881 167.287342 
L 239.843742 179.759902 
L 240.605604 180.560701 
L 241.367465 212.717516 
L 242.129327 201.14676 
L 244.414911 171.764073 
L 245.176772 130.981247 
L 245.938634 199.836406 
L 246.700495 177.558365 
L 247.462357 200.516618 
L 249.747941 145.70643 
L 250.509802 202.31022 
L 251.271664 147.996447 
L 252.033525 173.455012 
L 252.795386 181.694898 
L 255.080971 147.744175 
L 255.842832 163.802601 
L 257.366555 216.410072 
L 258.128416 166.661883 
L 260.414001 158.358307 
L 261.175862 227.823665 
L 261.937723 175.105116 
L 262.699585 153.381583 
L 265.747031 174.254382 
L 266.508892 205.704732 
L 267.270753 188.251967 
L 268.032615 218.61612 
L 268.794476 138.919863 
L 271.08006 184.063453 
L 271.841922 148.894328 
L 272.603783 141.625923 
L 273.365645 206.660542 
L 274.127506 114.36679 
L 276.41309 183.409935 
L 277.174952 175.105116 
L 277.936813 185.153321 
L 278.698675 133.664232 
L 279.460536 192.980085 
L 281.74612 192.473984 
L 282.507982 136.395398 
L 283.269843 117.556204 
L 284.031705 218.056199 
L 284.793566 147.07239 
L 287.07915 136.136438 
L 288.602873 182.500649 
L 289.364735 169.890169 
L 292.41218 204.752078 
L 293.174042 162.125397 
L 293.935903 176.6128 
L 294.697764 169.065301 
L 295.459626 25.003636 
L 297.74521 239.818235 
L 298.507072 173.010318 
L 299.268933 143.051124 
L 300.030794 175.105116 
L 300.792656 148.086849 
L 303.07824 234.317168 
L 303.840101 126.891452 
L 304.601963 175.105116 
L 305.363824 144.422759 
L 308.41127 190.642838 
L 309.173131 158.010461 
L 309.934993 167.99281 
L 310.696854 193.083057 
L 311.458716 176.412424 
L 313.7443 200.631146 
L 314.506161 165.033624 
L 315.268023 177.099573 
L 316.791746 141.798636 
L 319.07733 189.29351 
L 320.601053 184.916452 
L 321.362914 173.784172 
L 322.124775 194.893865 
L 324.41036 186.542173 
L 325.172221 148.567725 
L 325.934083 120.732571 
L 326.695944 192.096475 
L 327.457805 145.023165 
L 330.505251 193.253464 
L 331.267112 170.644609 
L 332.028974 163.685384 
L 332.790835 215.256084 
L 335.07642 179.677861 
L 335.838281 161.324686 
L 336.600142 155.68306 
L 337.362004 175.105116 
L 338.123865 171.293842 
L 340.409449 185.230577 
L 341.171311 167.434323 
L 341.933172 165.588673 
L 342.695034 151.221077 
L 343.456895 162.824123 
L 347.266202 197.552929 
L 348.028064 141.601101 
L 348.789925 166.096367 
L 352.599232 146.531186 
L 353.361094 173.368229 
L 354.122955 182.618699 
L 356.408539 177.434367 
L 357.170401 155.261557 
L 357.932262 104.124907 
L 358.694124 171.895516 
L 359.455985 175.638328 
L 361.741569 174.571623 
L 362.503431 177.771368 
L 364.789015 177.792585 
L 367.074599 169.715818 
L 367.836461 138.115861 
L 368.598322 159.072067 
L 369.360183 159.830925 
L 372.407629 181.625627 
L 373.16949 179.143757 
L 373.931352 166.995509 
L 374.693213 179.630563 
L 375.455075 171.064582 
L 378.50252 163.150023 
L 379.264382 206.121009 
L 380.026243 185.262389 
L 380.788105 171.514064 
L 383.073689 188.396167 
L 383.83555 159.565484 
L 384.597412 179.18634 
L 385.359273 176.641856 
L 386.121135 198.190381 
L 388.406719 158.831155 
L 389.16858 154.955041 
L 389.930442 200.434695 
L 390.692303 168.8702 
L 391.454164 203.507338 
L 393.739749 161.822662 
L 394.50161 184.020337 
L 395.263472 168.756119 
L 396.025333 179.837163 
L 396.787194 134.958078 
L 401.358363 201.527185 
L 402.120224 125.01975 
L 404.405809 165.162153 
L 405.16767 187.905341 
L 405.929531 191.060808 
L 406.691393 180.171056 
L 407.453254 158.812609 
L 409.738838 196.150538 
L 410.5007 185.339338 
L 411.262561 190.613095 
L 412.024423 176.417457 
L 412.786284 191.5316 
L 415.071868 169.094153 
L 415.83373 169.12954 
L 416.595591 200.847327 
L 417.357453 168.33242 
L 418.119314 153.576683 
L 420.404898 174.446323 
L 421.16676 184.980219 
L 421.928621 186.407105 
L 422.690483 160.314034 
L 423.452344 129.382638 
L 425.737928 214.415124 
L 426.49979 196.872787 
L 427.261651 169.712232 
L 428.023513 165.717585 
L 428.785374 178.427036 
L 431.070958 165.10651 
L 431.83282 181.705736 
L 432.594681 181.748956 
L 433.356542 161.729665 
L 436.403988 185.006015 
L 437.16585 175.105116 
L 437.927711 172.4388 
L 438.689572 134.551139 
L 439.451434 189.168247 
L 441.737018 183.532136 
L 442.498879 165.300094 
L 444.022602 175.105116 
L 444.784464 168.631087 
L 447.070048 180.251468 
L 448.593771 154.584853 
L 449.355632 176.362218 
L 450.117494 144.898389 
L 452.403078 181.216006 
L 453.164939 152.357577 
L 453.926801 166.08566 
L 454.688662 159.609314 
L 455.450524 172.757196 
L 457.736108 156.949632 
L 458.497969 152.666728 
L 459.259831 189.177138 
L 460.021692 153.985147 
L 460.783553 189.643013 
L 463.830999 163.25827 
L 464.592861 170.644242 
L 465.354722 162.336244 
L 466.116583 181.684181 
L 468.402168 197.730635 
L 469.164029 192.038686 
L 469.92589 195.196616 
L 470.687752 149.921822 
L 471.449613 151.10417 
L 473.735198 166.731681 
L 474.497059 167.907559 
L 475.25892 176.754423 
L 476.020782 170.700003 
L 476.782643 153.722868 
L 479.068228 130.540027 
L 479.830089 141.675136 
L 480.59195 176.598813 
L 482.115673 152.168809 
L 484.401257 195.095709 
L 485.163119 179.084301 
L 485.92498 175.105116 
L 486.686842 162.621312 
L 487.448703 181.517739 
L 489.734287 164.68026 
L 490.496149 151.519846 
L 491.25801 175.105116 
L 492.019872 165.981663 
L 492.781733 167.49074 
L 495.067317 196.360846 
L 496.59104 117.208795 
L 497.352902 188.796813 
L 498.114763 183.432722 
L 500.400347 193.297569 
L 501.162209 176.530185 
L 501.92407 150.370032 
L 502.685931 173.712137 
L 503.447793 182.524253 
L 505.733377 201.73105 
L 506.495239 170.307836 
L 507.2571 185.609433 
L 508.018961 193.438822 
L 508.780823 172.648407 
L 511.066407 178.536264 
L 511.828268 152.972516 
L 512.59013 189.544724 
L 513.351991 158.01524 
L 514.113853 177.506121 
L 516.399437 187.138199 
L 517.161298 156.594938 
L 517.92316 164.581053 
L 518.685021 138.649336 
L 519.446883 128.033382 
L 521.732467 148.902125 
L 522.494328 158.502429 
L 523.25619 183.482012 
L 524.018051 183.129576 
L 524.779913 165.739502 
L 527.065497 178.057732 
L 527.827358 194.142005 
L 528.58922 146.218599 
L 529.351081 172.170744 
L 530.112942 202.691867 
L 532.398527 191.432925 
L 533.160388 134.490467 
L 533.92225 159.569291 
L 534.684111 158.56331 
L 535.445972 179.987891 
L 537.731557 182.464786 
L 538.493418 205.583038 
L 539.25528 179.776147 
L 540.017141 181.504182 
L 540.779002 200.86407 
L 543.064587 194.928312 
L 543.826448 173.757232 
L 544.588309 136.516099 
L 545.350171 201.904426 
L 546.112032 174.217102 
L 548.397617 153.368665 
L 549.159478 155.996618 
L 549.921339 152.940317 
L 550.683201 174.270923 
L 551.445062 167.603157 
L 553.730646 197.445578 
L 554.492508 142.530932 
L 555.254369 173.875553 
L 556.016231 139.490076 
L 556.778092 167.986747 
L 559.063676 171.17804 
L 559.825538 183.711281 
L 560.587399 188.519626 
L 561.349261 174.705264 
L 562.111122 155.520874 
L 564.396706 209.217818 
L 565.920429 165.236441 
L 566.682291 171.032826 
L 567.444152 143.873983 
L 569.729736 160.153281 
L 570.491598 158.819743 
L 571.253459 165.946318 
L 572.01532 154.682577 
L 575.062766 192.706575 
L 575.824628 180.702755 
L 576.586489 176.981385 
L 577.34835 190.143192 
L 578.110212 165.946318 
L 580.395796 164.515673 
L 581.157657 175.479414 
L 581.919519 153.763112 
L 582.68138 189.40624 
L 583.443242 154.276101 
L 585.728826 194.056747 
L 586.490687 178.076306 
L 587.252549 169.517696 
L 588.01441 175.846048 
L 588.776272 158.422588 
L 591.061856 130.609608 
L 591.823717 197.46506 
L 592.585579 173.676095 
L 593.34744 142.640421 
L 596.394886 189.277909 
L 597.156747 167.742854 
L 598.68047 156.310207 
L 599.442332 134.782749 
L 601.727916 176.091062 
L 602.489777 183.329025 
L 603.251639 160.180942 
L 604.0135 165.300094 
L 604.775361 159.567409 
L 607.060946 194.871504 
L 607.822807 175.430284 
L 608.584669 175.105116 
L 609.34653 170.226213 
L 610.108391 150.827506 
L 612.393976 185.221189 
L 613.155837 166.483594 
L 613.917698 140.910006 
L 614.67956 198.995314 
L 615.441421 146.873939 
L 617.727006 181.513773 
L 618.488867 202.438752 
L 619.250728 168.792433 
L 620.01259 161.930543 
L 620.774451 186.562311 
L 623.060035 164.143294 
L 625.34562 170.14768 
L 626.107481 181.271796 
L 628.393065 158.353071 
L 630.67865 194.025958 
L 631.440511 175.105116 
L 633.726095 190.965365 
L 634.487957 152.042295 
L 635.249818 163.984834 
L 636.01168 150.661555 
L 636.773541 182.563785 
L 639.059125 169.695071 
L 639.820987 164.043462 
L 640.582848 168.59894 
L 642.106571 178.62722 
L 644.392155 172.159809 
L 645.154017 158.952995 
L 645.915878 188.113205 
L 646.677739 173.055296 
L 647.439601 173.351627 
L 649.725185 178.897722 
L 650.487046 103.362202 
L 651.248908 149.946371 
L 652.010769 204.991042 
L 652.772631 202.874883 
L 655.058215 166.058795 
L 655.820076 198.641549 
L 656.581938 167.073089 
L 657.343799 194.742637 
L 658.105661 186.133864 
L 660.391245 219.998525 
L 661.153106 136.1128 
L 661.914968 149.088119 
L 662.676829 145.127574 
L 663.438691 185.743683 
L 665.724275 175.240886 
L 666.486136 165.752587 
L 667.247998 189.988448 
L 668.009859 179.380093 
L 668.771721 192.277807 
L 673.342889 292.727712 
L 674.10475 149.413147 
L 676.390335 144.266289 
L 677.152196 156.088395 
L 677.914058 164.088891 
L 678.675919 246.545721 
L 679.43778 181.29302 
L 681.723365 350.741339 
L 682.485226 41.916455 
L 683.247087 211.19022 
L 684.008949 320.053408 
L 684.008949 320.053408 
" style="fill:none;stroke:#ff7f0e;stroke-linecap:square;stroke-width:1.5;"/>
   </g>
   <g id="line2d_21">
    <path clip-path="url(#p2de325ce00)" d="M 75.281676 175.105116 
L 76.043538 172.132218 
L 76.805399 179.847968 
L 79.090983 172.7225 
L 79.852845 160.249198 
L 80.614706 212.001384 
L 81.376567 169.634946 
L 82.138429 190.82287 
L 84.424013 132.121426 
L 85.185875 175.105116 
L 85.947736 182.762952 
L 86.709597 175.105116 
L 87.471459 197.659859 
L 89.757043 216.99238 
L 90.518904 163.07361 
L 91.280766 181.363153 
L 92.042627 175.105116 
L 92.804489 152.435931 
L 95.090073 183.112017 
L 95.851934 191.246633 
L 96.613796 160.594925 
L 97.375657 177.592964 
L 98.137519 203.162571 
L 100.423103 173.822535 
L 101.184964 214.812951 
L 101.946826 170.438966 
L 102.708687 167.143024 
L 103.470549 172.471698 
L 108.041717 146.869933 
L 108.803579 159.134376 
L 111.851024 164.538132 
L 112.612886 160.956291 
L 113.374747 141.164046 
L 114.136608 167.3573 
L 116.422193 191.074699 
L 117.184054 154.673171 
L 118.707777 198.091945 
L 119.469638 180.5328 
L 121.755223 139.297553 
L 122.517084 175.105116 
L 123.278945 201.612847 
L 124.040807 150.909636 
L 124.802668 172.742044 
L 127.088253 123.237564 
L 127.850114 202.579432 
L 128.611975 173.952445 
L 129.373837 180.861853 
L 130.135698 157.736288 
L 132.421282 175.105116 
L 133.945005 211.062565 
L 134.706867 133.014235 
L 135.468728 209.743876 
L 137.754312 175.105116 
L 138.516174 200.21069 
L 139.278035 189.202554 
L 140.039897 137.809936 
L 143.087342 139.134099 
L 143.849204 221.422248 
L 144.611065 169.644767 
L 145.372927 141.312098 
L 146.134788 195.544056 
L 148.420372 175.105116 
L 149.944095 175.105116 
L 150.705956 181.06496 
L 151.467818 212.874854 
L 153.753402 173.23682 
L 154.515264 217.372971 
L 155.277125 143.970181 
L 156.038986 173.846485 
L 156.800848 175.105116 
L 159.086432 175.105116 
L 159.848293 82.083111 
L 160.610155 209.645539 
L 161.372016 175.105116 
L 164.419462 175.105116 
L 165.943185 250.200032 
L 166.705046 190.5539 
L 167.466908 163.339104 
L 169.752492 175.105116 
L 170.514353 217.10584 
L 171.276215 198.698727 
L 172.038076 170.274042 
L 172.799938 170.296718 
L 175.085522 175.105116 
L 175.847383 171.003182 
L 176.609245 200.298473 
L 177.371106 175.105116 
L 178.132968 249.121406 
L 180.418552 202.337066 
L 181.180413 133.019009 
L 182.704136 214.76447 
L 183.465997 169.653658 
L 185.751582 190.597275 
L 186.513443 161.73237 
L 187.275305 175.105116 
L 188.799027 175.105116 
L 191.084612 186.7509 
L 191.846473 234.011209 
L 192.608334 204.291529 
L 193.370196 243.795569 
L 194.132057 175.105116 
L 196.417642 176.026184 
L 197.179503 183.402383 
L 197.941364 165.809821 
L 198.703226 175.105116 
L 199.465087 190.763497 
L 201.750671 163.878574 
L 202.512533 171.40402 
L 203.274394 174.18321 
L 204.036256 175.105116 
L 209.369286 175.105116 
L 210.131147 129.972332 
L 212.416731 174.223327 
L 213.178593 175.986138 
L 213.940454 175.105116 
L 214.702316 130.133478 
L 215.464177 175.105116 
L 218.511623 133.733397 
L 219.273484 174.293927 
L 220.035345 175.105116 
L 220.797207 147.546463 
L 223.082791 128.549092 
L 223.844653 227.914483 
L 224.606514 115.412281 
L 225.368375 175.85691 
L 226.130237 175.105116 
L 228.415821 220.987944 
L 229.177683 171.953716 
L 229.939544 175.105116 
L 230.701405 175.105116 
L 231.463267 159.396787 
L 233.748851 137.207358 
L 234.510712 175.105116 
L 235.272574 175.105116 
L 236.034435 219.091823 
L 236.796297 173.546291 
L 239.081881 175.105116 
L 239.843742 175.105116 
L 240.605604 206.232217 
L 241.367465 139.780182 
L 242.129327 208.464146 
L 244.414911 175.105116 
L 246.700495 175.105116 
L 247.462357 185.533776 
L 249.747941 167.192256 
L 250.509802 175.105116 
L 251.271664 214.821953 
L 252.033525 146.422051 
L 252.795386 171.003242 
L 255.080971 185.727141 
L 255.842832 175.105116 
L 256.604694 176.756603 
L 257.366555 204.880409 
L 258.128416 191.295658 
L 260.414001 175.105116 
L 261.175862 146.528043 
L 261.937723 217.215866 
L 262.699585 182.135035 
L 265.747031 175.105116 
L 266.508892 153.868007 
L 267.270753 169.038231 
L 268.032615 198.366962 
L 268.794476 183.041307 
L 271.08006 149.331058 
L 271.841922 175.105116 
L 272.603783 175.105116 
L 273.365645 149.103841 
L 274.127506 219.891433 
L 276.41309 124.7111 
L 277.174952 175.947333 
L 277.936813 169.204692 
L 278.698675 149.964098 
L 279.460536 174.28737 
L 281.74612 175.105116 
L 282.507982 169.385511 
L 283.269843 44.292959 
L 284.031705 179.422675 
L 284.793566 175.105116 
L 287.07915 187.390466 
L 287.841012 200.709034 
L 288.602873 205.125472 
L 289.364735 113.231188 
L 292.41218 218.839722 
L 293.174042 175.105116 
L 293.935903 141.586237 
L 294.697764 175.105116 
L 295.459626 93.253934 
L 297.74521 178.51652 
L 298.507072 171.682187 
L 299.268933 148.496162 
L 300.030794 175.105116 
L 300.792656 181.088583 
L 303.07824 175.105116 
L 303.840101 175.105116 
L 304.601963 202.524622 
L 305.363824 89.183715 
L 308.41127 215.657869 
L 309.173131 183.025797 
L 309.934993 166.456769 
L 310.696854 171.147354 
L 311.458716 163.278108 
L 313.7443 162.11546 
L 314.506161 175.105116 
L 315.268023 194.342921 
L 316.791746 164.64641 
L 319.07733 173.164067 
L 320.601053 155.732592 
L 321.362914 204.252386 
L 322.124775 177.062413 
L 324.41036 143.728998 
L 325.172221 183.347488 
L 325.934083 152.731977 
L 326.695944 193.867839 
L 327.457805 143.243963 
L 329.74339 172.633854 
L 330.505251 208.384982 
L 331.267112 175.105116 
L 332.028974 190.398506 
L 332.790835 166.047172 
L 335.07642 162.921298 
L 335.838281 173.204202 
L 336.600142 144.747526 
L 337.362004 208.877946 
L 338.123865 183.363067 
L 340.409449 175.745563 
L 341.933172 156.048306 
L 342.695034 175.105116 
L 343.456895 142.05978 
L 347.266202 175.105116 
L 348.028064 225.220902 
L 348.789925 149.060808 
L 352.599232 147.855735 
L 353.361094 163.646452 
L 354.122955 156.618477 
L 356.408539 249.483448 
L 357.170401 168.784548 
L 357.932262 120.45716 
L 358.694124 148.28553 
L 359.455985 183.81446 
L 361.741569 156.949811 
L 362.503431 172.228378 
L 363.265292 178.547428 
L 364.027153 164.167301 
L 364.789015 191.621375 
L 367.074599 175.105116 
L 367.836461 151.946623 
L 368.598322 158.124259 
L 369.360183 141.703479 
L 372.407629 177.260769 
L 373.16949 162.683378 
L 373.931352 152.696619 
L 374.693213 174.583124 
L 375.455075 176.148501 
L 377.740659 188.161712 
L 378.50252 133.307904 
L 379.264382 187.808063 
L 380.026243 175.105116 
L 380.788105 184.881873 
L 383.073689 180.300885 
L 383.83555 161.004122 
L 384.597412 116.384626 
L 385.359273 138.102728 
L 386.121135 200.939685 
L 388.406719 172.21305 
L 389.16858 155.87967 
L 389.930442 152.464063 
L 390.692303 202.787822 
L 391.454164 172.733367 
L 393.739749 185.043018 
L 394.50161 208.559294 
L 395.263472 197.345749 
L 396.025333 200.371566 
L 396.787194 169.922573 
L 401.358363 177.6832 
L 402.120224 204.570188 
L 404.405809 123.460921 
L 405.16767 166.99968 
L 405.929531 163.545877 
L 406.691393 175.105116 
L 407.453254 194.484368 
L 409.738838 175.105116 
L 410.5007 209.046823 
L 411.262561 154.663162 
L 412.024423 125.396468 
L 412.786284 205.102758 
L 415.071868 128.420368 
L 415.83373 189.579103 
L 416.595591 166.539554 
L 417.357453 179.352051 
L 418.119314 239.076483 
L 421.16676 140.367243 
L 421.928621 160.799911 
L 422.690483 175.105116 
L 423.452344 175.105116 
L 425.737928 164.065636 
L 426.49979 265.503027 
L 427.261651 209.077841 
L 428.023513 164.766423 
L 428.785374 198.302632 
L 431.070958 168.820753 
L 431.83282 168.859492 
L 432.594681 157.172633 
L 433.356542 158.162171 
L 436.403988 175.771702 
L 437.16585 175.105116 
L 437.927711 175.772077 
L 438.689572 163.091136 
L 439.451434 173.78583 
L 441.737018 186.304146 
L 442.498879 189.093908 
L 444.022602 158.218713 
L 444.784464 171.783175 
L 447.070048 181.727222 
L 447.831909 151.77523 
L 448.593771 165.331623 
L 449.355632 186.721181 
L 450.117494 157.478873 
L 452.403078 175.105116 
L 453.164939 172.538461 
L 453.926801 175.105116 
L 454.688662 178.305343 
L 455.450524 166.758247 
L 457.736108 175.741955 
L 458.497969 136.87164 
L 459.259831 193.526669 
L 460.021692 165.723829 
L 460.783553 178.203562 
L 463.069138 175.105116 
L 463.830999 175.105116 
L 464.592861 162.673313 
L 465.354722 175.105116 
L 466.116583 174.491107 
L 468.402168 175.718753 
L 469.164029 193.526669 
L 469.92589 159.469558 
L 470.687752 174.489241 
L 471.449613 172.027376 
L 473.735198 224.813163 
L 474.497059 129.931262 
L 475.25892 181.283116 
L 476.020782 183.807307 
L 476.782643 175.105116 
L 479.068228 109.900004 
L 479.830089 98.527226 
L 480.59195 175.105116 
L 482.115673 169.628508 
L 484.401257 175.105116 
L 485.163119 158.763415 
L 485.92498 177.785518 
L 486.686842 176.717602 
L 487.448703 181.565344 
L 489.734287 158.850804 
L 490.496149 188.436486 
L 491.25801 161.595994 
L 492.019872 175.105116 
L 492.781733 157.507695 
L 495.067317 157.284001 
L 496.59104 143.169401 
L 497.352902 189.586362 
L 498.114763 169.025945 
L 500.400347 163.019386 
L 501.162209 168.13833 
L 501.92407 184.989821 
L 502.685931 179.597138 
L 503.447793 170.091796 
L 505.733377 174.606195 
L 506.495239 196.046998 
L 507.2571 181.723841 
L 508.018961 163.317973 
L 508.780823 164.466736 
L 511.066407 200.171525 
L 511.828268 160.711744 
L 512.59013 189.296879 
L 513.351991 177.675266 
L 514.113853 189.535093 
L 516.399437 174.05949 
L 517.161298 172.493697 
L 517.92316 162.082184 
L 518.685021 159.675995 
L 519.446883 114.313987 
L 521.732467 138.305568 
L 522.494328 173.721533 
L 523.25619 175.105116 
L 524.018051 186.618572 
L 524.779913 176.502693 
L 527.065497 164.376032 
L 527.827358 187.106442 
L 528.58922 183.51333 
L 529.351081 154.379719 
L 530.112942 173.258894 
L 532.398527 197.681698 
L 533.160388 152.014 
L 533.92225 152.067642 
L 534.684111 163.392035 
L 535.445972 187.129743 
L 537.731557 173.302249 
L 538.493418 200.749608 
L 539.25528 194.49186 
L 540.017141 176.987534 
L 540.779002 179.81983 
L 543.064587 190.7363 
L 543.826448 182.321491 
L 544.588309 178.012373 
L 545.350171 175.105116 
L 546.112032 169.759776 
L 548.397617 168.337668 
L 549.159478 142.452687 
L 549.921339 175.570274 
L 550.683201 158.350663 
L 551.445062 174.647227 
L 553.730646 178.308541 
L 554.492508 172.809623 
L 555.254369 165.486328 
L 556.016231 156.048371 
L 556.778092 161.299103 
L 559.063676 164.560237 
L 559.825538 189.020132 
L 560.587399 182.159424 
L 561.349261 176.881037 
L 562.111122 165.320273 
L 564.396706 179.510214 
L 565.158568 183.511545 
L 565.920429 175.105116 
L 566.682291 184.474011 
L 567.444152 152.589912 
L 569.729736 179.510214 
L 570.491598 160.947128 
L 571.253459 167.250931 
L 572.01532 176.837018 
L 572.777182 148.647904 
L 575.824628 183.985233 
L 576.586489 184.490407 
L 577.34835 176.396887 
L 578.110212 192.350853 
L 580.395796 144.841076 
L 581.157657 201.08428 
L 581.919519 139.700506 
L 582.68138 193.687916 
L 583.443242 168.221467 
L 585.728826 175.105116 
L 586.490687 195.616706 
L 587.252549 169.871219 
L 588.01441 179.87815 
L 588.776272 163.769956 
L 591.061856 132.422092 
L 591.823717 197.031922 
L 592.585579 171.299352 
L 593.34744 130.870365 
L 596.394886 179.141737 
L 597.156747 197.395106 
L 598.68047 152.313717 
L 599.442332 151.19391 
L 601.727916 144.618506 
L 602.489777 178.948788 
L 603.251639 142.695513 
L 604.0135 198.285023 
L 604.775361 136.077608 
L 607.060946 204.211174 
L 607.822807 173.208463 
L 608.584669 176.998225 
L 609.34653 176.622395 
L 610.108391 166.367515 
L 612.393976 174.351799 
L 613.155837 168.330444 
L 613.917698 147.438807 
L 614.67956 181.655912 
L 615.441421 173.273675 
L 617.727006 126.840733 
L 618.488867 211.053496 
L 619.250728 198.625436 
L 620.01259 178.809657 
L 620.774451 175.105116 
L 623.060035 188.118519 
L 625.34562 178.494934 
L 626.107481 167.924761 
L 628.393065 153.34041 
L 630.67865 203.759411 
L 631.440511 160.360948 
L 633.726095 194.854563 
L 634.487957 175.485201 
L 635.249818 170.542886 
L 636.01168 161.479997 
L 636.773541 179.959986 
L 639.059125 161.220691 
L 639.820987 173.624425 
L 640.582848 164.385507 
L 641.344709 164.132058 
L 642.106571 175.105116 
L 644.392155 180.532861 
L 645.154017 96.524139 
L 645.915878 147.420678 
L 646.677739 170.175541 
L 647.439601 170.853516 
L 649.725185 195.297192 
L 650.487046 108.312614 
L 651.248908 129.901528 
L 652.010769 218.378066 
L 652.772631 253.042476 
L 655.058215 141.332245 
L 655.820076 151.899965 
L 656.581938 193.956526 
L 657.343799 174.128401 
L 658.105661 190.39233 
L 660.391245 219.027384 
L 661.153106 183.735305 
L 661.914968 161.178213 
L 662.676829 123.587211 
L 663.438691 178.373477 
L 665.724275 209.911887 
L 666.486136 158.099662 
L 667.247998 218.254984 
L 668.009859 175.105116 
L 668.771721 189.080068 
L 673.342889 223.284562 
L 674.10475 146.837098 
L 676.390335 188.493662 
L 677.152196 175.838458 
L 677.914058 171.802443 
L 678.675919 176.568232 
L 679.43778 211.00247 
L 681.723365 309.158474 
L 682.485226 107.267626 
L 683.247087 246.479346 
L 684.008949 306.166038 
L 684.008949 306.166038 
" style="fill:none;stroke:#2ca02c;stroke-linecap:square;stroke-width:1.5;"/>
   </g>
   <g id="line2d_22">
    <path clip-path="url(#p2de325ce00)" d="M 75.281676 189.652177 
L 76.043538 185.077453 
L 76.805399 173.493602 
L 79.090983 168.669627 
L 79.852845 189.093956 
L 80.614706 182.805319 
L 81.376567 205.733492 
L 82.138429 160.366249 
L 84.424013 175.105116 
L 85.185875 174.274932 
L 85.947736 151.880447 
L 86.709597 203.080218 
L 87.471459 187.613476 
L 89.757043 187.769915 
L 90.518904 243.078336 
L 91.280766 188.852524 
L 92.042627 175.105116 
L 92.804489 143.05121 
L 95.090073 193.117154 
L 95.851934 181.98193 
L 97.375657 134.759113 
L 98.137519 211.72626 
L 100.423103 204.505576 
L 101.184964 183.490068 
L 101.946826 193.424293 
L 102.708687 150.229781 
L 103.470549 205.45388 
L 108.041717 102.425491 
L 108.803579 148.158641 
L 111.089163 163.293279 
L 111.851024 175.105116 
L 112.612886 161.267481 
L 113.374747 183.210419 
L 114.136608 183.706114 
L 116.422193 169.032976 
L 117.184054 191.057362 
L 117.945916 180.799663 
L 118.707777 164.092097 
L 119.469638 203.430803 
L 121.755223 186.312963 
L 122.517084 173.745156 
L 123.278945 183.253845 
L 124.040807 177.387279 
L 124.802668 143.54314 
L 127.088253 166.676697 
L 127.850114 180.384425 
L 128.611975 187.930296 
L 129.373837 185.855024 
L 130.135698 186.423232 
L 132.421282 194.791785 
L 133.183144 195.182173 
L 133.945005 183.20263 
L 134.706867 156.378082 
L 135.468728 189.249239 
L 137.754312 185.146264 
L 138.516174 197.802612 
L 139.278035 179.551213 
L 140.039897 164.189337 
L 143.087342 206.030671 
L 143.849204 173.079857 
L 145.372927 182.704201 
L 146.134788 175.61546 
L 148.420372 202.171031 
L 149.182234 157.871477 
L 149.944095 171.458609 
L 150.705956 149.671735 
L 151.467818 188.269988 
L 153.753402 189.469273 
L 154.515264 178.747983 
L 155.277125 141.680142 
L 156.038986 179.149829 
L 156.800848 142.61813 
L 159.848293 182.464754 
L 160.610155 182.518505 
L 161.372016 155.19013 
L 162.133878 228.816222 
L 164.419462 203.463827 
L 165.943185 175.635561 
L 166.705046 172.451503 
L 167.466908 183.04548 
L 169.752492 209.25131 
L 170.514353 183.387215 
L 171.276215 180.672096 
L 172.038076 180.70274 
L 172.799938 198.746178 
L 175.085522 182.597353 
L 175.847383 207.039365 
L 176.609245 163.114697 
L 177.371106 198.805116 
L 178.132968 192.699583 
L 180.418552 167.078698 
L 181.180413 51.979237 
L 181.942275 220.985347 
L 182.704136 149.932657 
L 183.465997 211.390058 
L 185.751582 215.6325 
L 187.275305 153.781201 
L 188.799027 148.253778 
L 191.084612 93.143334 
L 191.846473 226.732619 
L 192.608334 231.204265 
L 193.370196 218.895923 
L 194.132057 156.825172 
L 196.417642 206.376366 
L 197.179503 187.366435 
L 197.941364 203.848077 
L 198.703226 165.692453 
L 199.465087 205.081071 
L 201.750671 153.82561 
L 202.512533 183.172921 
L 203.274394 160.873029 
L 204.036256 193.149944 
L 204.798117 163.537572 
L 207.083701 186.542084 
L 207.845563 166.939783 
L 208.607424 185.905166 
L 209.369286 209.21907 
L 210.131147 182.165733 
L 212.416731 175.105116 
L 213.178593 175.105116 
L 213.940454 160.173909 
L 214.702316 176.506567 
L 215.464177 176.508298 
L 218.511623 172.997283 
L 219.273484 184.921433 
L 220.035345 174.397151 
L 220.797207 177.935209 
L 223.082791 177.943278 
L 223.844653 159.451836 
L 225.368375 128.18572 
L 226.130237 172.505569 
L 228.415821 206.868472 
L 229.177683 132.275522 
L 229.939544 196.935564 
L 230.701405 197.416158 
L 231.463267 214.693136 
L 233.748851 154.855388 
L 234.510712 178.528084 
L 235.272574 161.367034 
L 236.034435 169.683317 
L 236.796297 169.712176 
L 239.081881 188.516082 
L 239.843742 145.205424 
L 240.605604 148.703075 
L 241.367465 174.461815 
L 242.129327 216.249599 
L 244.414911 162.373257 
L 245.176772 131.427719 
L 245.938634 171.932922 
L 246.700495 175.105116 
L 247.462357 168.780657 
L 249.747941 188.932763 
L 250.509802 164.272301 
L 251.271664 163.12598 
L 252.033525 203.768297 
L 252.795386 146.248514 
L 255.080971 155.776841 
L 255.842832 176.94056 
L 256.604694 162.233386 
L 257.366555 210.209604 
L 258.128416 159.430694 
L 260.414001 186.218811 
L 261.175862 211.312582 
L 261.937723 173.810164 
L 262.699585 186.096995 
L 265.747031 188.178386 
L 266.508892 198.282663 
L 267.270753 185.270786 
L 268.032615 198.380959 
L 268.794476 160.390823 
L 271.08006 159.910797 
L 271.841922 139.041369 
L 272.603783 139.624045 
L 273.365645 185.262306 
L 274.127506 116.109574 
L 276.41309 185.406776 
L 277.174952 173.880768 
L 277.936813 165.933068 
L 278.698675 121.779598 
L 279.460536 165.318653 
L 281.74612 191.640039 
L 282.507982 150.181007 
L 283.269843 137.768494 
L 284.031705 186.017108 
L 284.793566 187.239011 
L 287.07915 129.330311 
L 287.841012 167.09385 
L 288.602873 192.062205 
L 289.364735 186.961482 
L 292.41218 179.467651 
L 293.174042 105.003482 
L 293.935903 143.34723 
L 294.697764 137.358992 
L 295.459626 178.456812 
L 297.74521 174.624508 
L 298.507072 178.466533 
L 299.268933 200.639552 
L 300.030794 153.852755 
L 300.792656 118.46756 
L 303.07824 202.612496 
L 303.840101 128.451603 
L 304.601963 167.896764 
L 305.363824 93.69262 
L 308.41127 157.300809 
L 309.173131 184.870804 
L 309.934993 170.996443 
L 310.696854 193.928513 
L 311.458716 164.666643 
L 313.7443 198.037386 
L 314.506161 180.224299 
L 315.268023 104.786623 
L 316.791746 165.482514 
L 319.07733 190.991903 
L 320.601053 183.982218 
L 321.362914 158.008409 
L 322.124775 177.506827 
L 324.41036 184.735418 
L 325.172221 169.838698 
L 325.934083 159.790365 
L 326.695944 164.78285 
L 327.457805 174.712077 
L 329.74339 164.49795 
L 330.505251 194.933435 
L 331.267112 173.12223 
L 332.028974 147.400961 
L 332.790835 167.400212 
L 335.07642 186.192886 
L 335.838281 160.802166 
L 336.600142 144.229253 
L 337.362004 183.982924 
L 338.123865 195.630057 
L 340.409449 200.625143 
L 341.171311 150.879356 
L 341.933172 196.093972 
L 342.695034 156.789816 
L 343.456895 137.593905 
L 347.266202 168.830387 
L 348.028064 131.819066 
L 348.789925 159.625946 
L 352.599232 141.493996 
L 353.361094 161.354488 
L 354.122955 206.535951 
L 356.408539 208.843463 
L 357.170401 177.242013 
L 357.932262 139.060066 
L 358.694124 183.720652 
L 359.455985 183.446968 
L 361.741569 178.960173 
L 362.503431 205.008111 
L 363.265292 173.292702 
L 364.027153 171.124627 
L 364.789015 165.373406 
L 367.074599 175.819125 
L 367.836461 184.393852 
L 368.598322 167.893876 
L 369.360183 133.933242 
L 372.407629 156.183196 
L 373.16949 154.165881 
L 373.931352 168.818243 
L 374.693213 162.279934 
L 375.455075 143.93031 
L 377.740659 181.090877 
L 378.50252 142.77954 
L 379.264382 200.903068 
L 380.026243 203.468013 
L 380.788105 162.784858 
L 383.073689 195.285604 
L 383.83555 167.587852 
L 384.597412 215.982916 
L 385.359273 143.664922 
L 386.121135 181.9908 
L 388.406719 171.803783 
L 389.16858 178.724853 
L 389.930442 195.910425 
L 390.692303 172.07057 
L 391.454164 142.833784 
L 393.739749 204.099887 
L 394.50161 173.092778 
L 395.263472 170.753834 
L 396.025333 182.104051 
L 396.787194 160.003009 
L 401.358363 174.443772 
L 402.120224 155.607997 
L 404.405809 137.819934 
L 405.16767 171.352539 
L 405.929531 191.306195 
L 406.691393 183.02064 
L 407.453254 194.570984 
L 409.738838 189.095899 
L 410.5007 185.332585 
L 411.262561 197.101901 
L 412.024423 178.852518 
L 412.786284 195.621938 
L 415.071868 160.795524 
L 415.83373 176.481718 
L 416.595591 212.668831 
L 417.357453 136.810954 
L 418.119314 157.517459 
L 420.404898 159.512462 
L 421.16676 179.444928 
L 421.928621 188.180559 
L 422.690483 181.898204 
L 423.452344 176.744145 
L 425.737928 182.332267 
L 426.49979 193.129646 
L 427.261651 174.399269 
L 428.023513 183.216226 
L 428.785374 176.882598 
L 431.070958 159.791687 
L 431.83282 183.87579 
L 432.594681 200.585031 
L 433.356542 143.159472 
L 436.403988 185.31091 
L 437.16585 151.641915 
L 437.927711 182.401596 
L 438.689572 136.607685 
L 439.451434 124.530194 
L 441.737018 172.536002 
L 442.498879 165.495401 
L 444.022602 187.163081 
L 444.784464 168.682395 
L 447.070048 170.318449 
L 447.831909 186.856728 
L 448.593771 147.148425 
L 449.355632 179.795875 
L 450.117494 170.392539 
L 452.403078 197.307688 
L 453.164939 200.362891 
L 453.926801 207.566342 
L 454.688662 192.381096 
L 455.450524 225.05614 
L 457.736108 163.455174 
L 458.497969 127.955158 
L 459.259831 180.951651 
L 460.783553 197.550176 
L 463.069138 176.898239 
L 463.830999 108.996689 
L 464.592861 184.548994 
L 465.354722 192.468109 
L 466.116583 170.255711 
L 468.402168 166.831403 
L 469.164029 176.130895 
L 469.92589 178.528066 
L 470.687752 205.672374 
L 471.449613 208.394026 
L 473.735198 169.978802 
L 474.497059 163.81098 
L 475.25892 198.885471 
L 476.020782 129.352976 
L 476.782643 198.404959 
L 479.068228 201.844027 
L 479.830089 167.682382 
L 480.59195 165.525906 
L 482.115673 151.016442 
L 484.401257 150.149895 
L 485.163119 191.805901 
L 485.92498 160.95451 
L 486.686842 155.218194 
L 487.448703 170.65685 
L 489.734287 192.139167 
L 490.496149 182.728186 
L 491.25801 159.045123 
L 492.019872 171.324477 
L 492.781733 168.941724 
L 495.067317 179.1892 
L 496.59104 115.988472 
L 497.352902 181.562627 
L 498.114763 175.755015 
L 500.400347 188.111384 
L 501.162209 174.116828 
L 501.92407 139.895411 
L 502.685931 175.105116 
L 503.447793 191.005701 
L 505.733377 188.35152 
L 506.495239 192.127881 
L 507.2571 198.079133 
L 508.018961 174.082999 
L 508.780823 157.067343 
L 511.066407 137.319555 
L 511.828268 132.23101 
L 512.59013 198.60997 
L 513.351991 130.778159 
L 514.113853 118.075674 
L 516.399437 177.976979 
L 517.161298 177.409137 
L 517.92316 193.86773 
L 518.685021 155.25756 
L 519.446883 172.194629 
L 521.732467 178.878178 
L 522.494328 173.357116 
L 523.25619 194.007884 
L 524.018051 210.962202 
L 524.779913 174.490648 
L 527.065497 175.105116 
L 527.827358 192.605476 
L 528.58922 160.42137 
L 529.351081 203.43735 
L 530.112942 179.540524 
L 532.398527 203.425929 
L 533.160388 157.427635 
L 533.92225 158.695901 
L 534.684111 167.189591 
L 535.445972 146.830102 
L 537.731557 183.051761 
L 538.493418 187.119136 
L 539.25528 177.287336 
L 540.017141 184.165523 
L 540.779002 179.518383 
L 543.064587 208.666889 
L 543.826448 188.531305 
L 544.588309 141.254856 
L 545.350171 146.202701 
L 546.112032 176.042051 
L 548.397617 193.856125 
L 549.159478 137.532585 
L 549.921339 175.105116 
L 550.683201 154.227291 
L 551.445062 176.609184 
L 553.730646 170.586203 
L 554.492508 197.900178 
L 555.254369 189.52673 
L 556.016231 162.65413 
L 556.778092 139.922895 
L 559.063676 152.73574 
L 559.825538 198.742293 
L 560.587399 194.526244 
L 561.349261 170.840195 
L 562.111122 135.669881 
L 564.396706 180.944732 
L 565.158568 189.789011 
L 565.920429 180.766944 
L 566.682291 179.600232 
L 567.444152 160.355802 
L 569.729736 176.588646 
L 570.491598 189.961258 
L 571.253459 183.246619 
L 572.01532 166.897662 
L 572.777182 176.612814 
L 575.062766 179.634837 
L 575.824628 184.205707 
L 576.586489 213.36736 
L 577.34835 191.965024 
L 578.110212 180.928026 
L 580.395796 179.660204 
L 581.157657 170.529457 
L 581.919519 174.129021 
L 582.68138 165.353564 
L 583.443242 114.25605 
L 585.728826 161.741826 
L 586.490687 188.594225 
L 587.252549 150.497052 
L 588.01441 175.105116 
L 588.776272 213.959723 
L 591.061856 181.582047 
L 591.823717 218.252349 
L 592.585579 157.273142 
L 593.34744 160.449002 
L 596.394886 203.371198 
L 597.156747 177.043672 
L 598.68047 164.099238 
L 599.442332 162.616472 
L 602.489777 199.496003 
L 603.251639 154.716385 
L 604.0135 157.052882 
L 604.775361 172.887997 
L 607.060946 191.854647 
L 607.822807 160.002138 
L 608.584669 135.844189 
L 609.34653 187.297451 
L 610.108391 154.434241 
L 612.393976 174.802743 
L 613.155837 173.895986 
L 613.917698 143.405367 
L 614.67956 193.255155 
L 615.441421 187.624741 
L 617.727006 159.109045 
L 618.488867 199.489785 
L 620.01259 149.126062 
L 620.774451 166.463217 
L 623.060035 143.784802 
L 626.107481 201.233138 
L 628.393065 173.913106 
L 630.67865 159.627542 
L 631.440511 162.792158 
L 634.487957 215.632533 
L 635.249818 198.69644 
L 636.01168 173.516019 
L 636.773541 170.345351 
L 639.059125 150.154582 
L 639.820987 161.850785 
L 640.582848 208.269434 
L 641.344709 172.274107 
L 642.106571 190.789094 
L 644.392155 188.805365 
L 645.154017 302.681822 
L 645.915878 175.844145 
L 646.677739 197.291662 
L 647.439601 156.958464 
L 649.725185 211.502576 
L 650.487046 169.326436 
L 651.248908 177.786574 
L 652.010769 197.765365 
L 652.772631 213.212546 
L 655.058215 167.757267 
L 655.820076 140.251528 
L 656.581938 188.426192 
L 657.343799 183.839517 
L 658.105661 199.934113 
L 660.391245 182.494646 
L 661.153106 175.105116 
L 661.914968 157.736228 
L 662.676829 151.523768 
L 663.438691 196.958095 
L 665.724275 170.638221 
L 666.486136 150.846881 
L 667.247998 204.324003 
L 668.009859 208.037671 
L 668.771721 186.871706 
L 673.342889 257.163332 
L 674.10475 145.495997 
L 676.390335 154.877429 
L 677.152196 186.122786 
L 677.914058 159.065221 
L 678.675919 234.31724 
L 679.43778 212.371654 
L 681.723365 274.247372 
L 682.485226 92.013164 
L 683.247087 254.871783 
L 684.008949 381.076364 
L 684.008949 381.076364 
" style="fill:none;stroke:#d62728;stroke-linecap:square;stroke-width:1.5;"/>
   </g>
   <g id="patch_3">
    <path d="M 44.845313 398.88 
L 44.845313 7.2 
" style="fill:none;stroke:#000000;stroke-linecap:square;stroke-linejoin:miter;stroke-width:0.8;"/>
   </g>
   <g id="patch_4">
    <path d="M 714.445312 398.88 
L 714.445312 7.2 
" style="fill:none;stroke:#000000;stroke-linecap:square;stroke-linejoin:miter;stroke-width:0.8;"/>
   </g>
   <g id="patch_5">
    <path d="M 44.845313 398.88 
L 714.445312 398.88 
" style="fill:none;stroke:#000000;stroke-linecap:square;stroke-linejoin:miter;stroke-width:0.8;"/>
   </g>
   <g id="patch_6">
    <path d="M 44.845313 7.2 
L 714.445312 7.2 
" style="fill:none;stroke:#000000;stroke-linecap:square;stroke-linejoin:miter;stroke-width:0.8;"/>
   </g>
   <g id="legend_1">
    <g id="patch_7">
     <path d="M 51.845313 73.9125 
L 136.454688 73.9125 
Q 138.454688 73.9125 138.454688 71.9125 
L 138.454688 14.2 
Q 138.454688 12.2 136.454688 12.2 
L 51.845313 12.2 
Q 49.845313 12.2 49.845313 14.2 
L 49.845313 71.9125 
Q 49.845313 73.9125 51.845313 73.9125 
z
" style="fill:#ffffff;opacity:0.8;stroke:#cccccc;stroke-linejoin:miter;"/>
    </g>
    <g id="line2d_23">
     <path d="M 53.845313 20.298437 
L 73.845313 20.298437 
" style="fill:none;stroke:#1f77b4;stroke-linecap:square;stroke-width:1.5;"/>
    </g>
    <g id="line2d_24"/>
    <g id="text_20">
     <!-- GRND3.SA -->
     <defs>
      <path d="M 59.515625 10.40625 
L 59.515625 29.984375 
L 43.40625 29.984375 
L 43.40625 38.09375 
L 69.28125 38.09375 
L 69.28125 6.78125 
Q 63.578125 2.734375 56.6875 0.65625 
Q 49.8125 -1.421875 42 -1.421875 
Q 24.90625 -1.421875 15.25 8.5625 
Q 5.609375 18.5625 5.609375 36.375 
Q 5.609375 54.25 15.25 64.234375 
Q 24.90625 74.21875 42 74.21875 
Q 49.125 74.21875 55.546875 72.453125 
Q 61.96875 70.703125 67.390625 67.28125 
L 67.390625 56.78125 
Q 61.921875 61.421875 55.765625 63.765625 
Q 49.609375 66.109375 42.828125 66.109375 
Q 29.4375 66.109375 22.71875 58.640625 
Q 16.015625 51.171875 16.015625 36.375 
Q 16.015625 21.625 22.71875 14.15625 
Q 29.4375 6.6875 42.828125 6.6875 
Q 48.046875 6.6875 52.140625 7.59375 
Q 56.25 8.5 59.515625 10.40625 
z
" id="DejaVuSans-71"/>
      <path d="M 44.390625 34.1875 
Q 47.5625 33.109375 50.5625 29.59375 
Q 53.5625 26.078125 56.59375 19.921875 
L 66.609375 0 
L 56 0 
L 46.6875 18.703125 
Q 43.0625 26.03125 39.671875 28.421875 
Q 36.28125 30.8125 30.421875 30.8125 
L 19.671875 30.8125 
L 19.671875 0 
L 9.8125 0 
L 9.8125 72.90625 
L 32.078125 72.90625 
Q 44.578125 72.90625 50.734375 67.671875 
Q 56.890625 62.453125 56.890625 51.90625 
Q 56.890625 45.015625 53.6875 40.46875 
Q 50.484375 35.9375 44.390625 34.1875 
z
M 19.671875 64.796875 
L 19.671875 38.921875 
L 32.078125 38.921875 
Q 39.203125 38.921875 42.84375 42.21875 
Q 46.484375 45.515625 46.484375 51.90625 
Q 46.484375 58.296875 42.84375 61.546875 
Q 39.203125 64.796875 32.078125 64.796875 
z
" id="DejaVuSans-82"/>
      <path d="M 9.8125 72.90625 
L 23.09375 72.90625 
L 55.421875 11.921875 
L 55.421875 72.90625 
L 64.984375 72.90625 
L 64.984375 0 
L 51.703125 0 
L 19.390625 60.984375 
L 19.390625 0 
L 9.8125 0 
z
" id="DejaVuSans-78"/>
      <path d="M 40.578125 39.3125 
Q 47.65625 37.796875 51.625 33 
Q 55.609375 28.21875 55.609375 21.1875 
Q 55.609375 10.40625 48.1875 4.484375 
Q 40.765625 -1.421875 27.09375 -1.421875 
Q 22.515625 -1.421875 17.65625 -0.515625 
Q 12.796875 0.390625 7.625 2.203125 
L 7.625 11.71875 
Q 11.71875 9.328125 16.59375 8.109375 
Q 21.484375 6.890625 26.8125 6.890625 
Q 36.078125 6.890625 40.9375 10.546875 
Q 45.796875 14.203125 45.796875 21.1875 
Q 45.796875 27.640625 41.28125 31.265625 
Q 36.765625 34.90625 28.71875 34.90625 
L 20.21875 34.90625 
L 20.21875 43.015625 
L 29.109375 43.015625 
Q 36.375 43.015625 40.234375 45.921875 
Q 44.09375 48.828125 44.09375 54.296875 
Q 44.09375 59.90625 40.109375 62.90625 
Q 36.140625 65.921875 28.71875 65.921875 
Q 24.65625 65.921875 20.015625 65.03125 
Q 15.375 64.15625 9.8125 62.3125 
L 9.8125 71.09375 
Q 15.4375 72.65625 20.34375 73.4375 
Q 25.25 74.21875 29.59375 74.21875 
Q 40.828125 74.21875 47.359375 69.109375 
Q 53.90625 64.015625 53.90625 55.328125 
Q 53.90625 49.265625 50.4375 45.09375 
Q 46.96875 40.921875 40.578125 39.3125 
z
" id="DejaVuSans-51"/>
      <path d="M 53.515625 70.515625 
L 53.515625 60.890625 
Q 47.90625 63.578125 42.921875 64.890625 
Q 37.9375 66.21875 33.296875 66.21875 
Q 25.25 66.21875 20.875 63.09375 
Q 16.5 59.96875 16.5 54.203125 
Q 16.5 49.359375 19.40625 46.890625 
Q 22.3125 44.4375 30.421875 42.921875 
L 36.375 41.703125 
Q 47.40625 39.59375 52.65625 34.296875 
Q 57.90625 29 57.90625 20.125 
Q 57.90625 9.515625 50.796875 4.046875 
Q 43.703125 -1.421875 29.984375 -1.421875 
Q 24.8125 -1.421875 18.96875 -0.25 
Q 13.140625 0.921875 6.890625 3.21875 
L 6.890625 13.375 
Q 12.890625 10.015625 18.65625 8.296875 
Q 24.421875 6.59375 29.984375 6.59375 
Q 38.421875 6.59375 43.015625 9.90625 
Q 47.609375 13.234375 47.609375 19.390625 
Q 47.609375 24.75 44.3125 27.78125 
Q 41.015625 30.8125 33.5 32.328125 
L 27.484375 33.5 
Q 16.453125 35.6875 11.515625 40.375 
Q 6.59375 45.0625 6.59375 53.421875 
Q 6.59375 63.09375 13.40625 68.65625 
Q 20.21875 74.21875 32.171875 74.21875 
Q 37.3125 74.21875 42.625 73.28125 
Q 47.953125 72.359375 53.515625 70.515625 
z
" id="DejaVuSans-83"/>
      <path d="M 34.1875 63.1875 
L 20.796875 26.90625 
L 47.609375 26.90625 
z
M 28.609375 72.90625 
L 39.796875 72.90625 
L 67.578125 0 
L 57.328125 0 
L 50.6875 18.703125 
L 17.828125 18.703125 
L 11.1875 0 
L 0.78125 0 
z
" id="DejaVuSans-65"/>
     </defs>
     <g transform="translate(81.845313 23.798437)scale(0.1 -0.1)">
      <use xlink:href="#DejaVuSans-71"/>
      <use x="77.490234" xlink:href="#DejaVuSans-82"/>
      <use x="146.972656" xlink:href="#DejaVuSans-78"/>
      <use x="221.777344" xlink:href="#DejaVuSans-68"/>
      <use x="298.779297" xlink:href="#DejaVuSans-51"/>
      <use x="362.402344" xlink:href="#DejaVuSans-46"/>
      <use x="394.189453" xlink:href="#DejaVuSans-83"/>
      <use x="457.681641" xlink:href="#DejaVuSans-65"/>
     </g>
    </g>
    <g id="line2d_25">
     <path d="M 53.845313 34.976562 
L 73.845313 34.976562 
" style="fill:none;stroke:#ff7f0e;stroke-linecap:square;stroke-width:1.5;"/>
    </g>
    <g id="line2d_26"/>
    <g id="text_21">
     <!-- ALPA4.SA -->
     <defs>
      <path d="M 9.8125 72.90625 
L 19.671875 72.90625 
L 19.671875 8.296875 
L 55.171875 8.296875 
L 55.171875 0 
L 9.8125 0 
z
" id="DejaVuSans-76"/>
      <path d="M 19.671875 64.796875 
L 19.671875 37.40625 
L 32.078125 37.40625 
Q 38.96875 37.40625 42.71875 40.96875 
Q 46.484375 44.53125 46.484375 51.125 
Q 46.484375 57.671875 42.71875 61.234375 
Q 38.96875 64.796875 32.078125 64.796875 
z
M 9.8125 72.90625 
L 32.078125 72.90625 
Q 44.34375 72.90625 50.609375 67.359375 
Q 56.890625 61.8125 56.890625 51.125 
Q 56.890625 40.328125 50.609375 34.8125 
Q 44.34375 29.296875 32.078125 29.296875 
L 19.671875 29.296875 
L 19.671875 0 
L 9.8125 0 
z
" id="DejaVuSans-80"/>
     </defs>
     <g transform="translate(81.845313 38.476562)scale(0.1 -0.1)">
      <use xlink:href="#DejaVuSans-65"/>
      <use x="68.408203" xlink:href="#DejaVuSans-76"/>
      <use x="124.121094" xlink:href="#DejaVuSans-80"/>
      <use x="184.330078" xlink:href="#DejaVuSans-65"/>
      <use x="252.738281" xlink:href="#DejaVuSans-52"/>
      <use x="316.361328" xlink:href="#DejaVuSans-46"/>
      <use x="348.148438" xlink:href="#DejaVuSans-83"/>
      <use x="411.640625" xlink:href="#DejaVuSans-65"/>
     </g>
    </g>
    <g id="line2d_27">
     <path d="M 53.845313 49.654687 
L 73.845313 49.654687 
" style="fill:none;stroke:#2ca02c;stroke-linecap:square;stroke-width:1.5;"/>
    </g>
    <g id="line2d_28"/>
    <g id="text_22">
     <!-- ALPA3.SA -->
     <g transform="translate(81.845313 53.154687)scale(0.1 -0.1)">
      <use xlink:href="#DejaVuSans-65"/>
      <use x="68.408203" xlink:href="#DejaVuSans-76"/>
      <use x="124.121094" xlink:href="#DejaVuSans-80"/>
      <use x="184.330078" xlink:href="#DejaVuSans-65"/>
      <use x="252.738281" xlink:href="#DejaVuSans-51"/>
      <use x="316.361328" xlink:href="#DejaVuSans-46"/>
      <use x="348.148438" xlink:href="#DejaVuSans-83"/>
      <use x="411.640625" xlink:href="#DejaVuSans-65"/>
     </g>
    </g>
    <g id="line2d_29">
     <path d="M 53.845313 64.332812 
L 73.845313 64.332812 
" style="fill:none;stroke:#d62728;stroke-linecap:square;stroke-width:1.5;"/>
    </g>
    <g id="line2d_30"/>
    <g id="text_23">
     <!-- HGTX3.SA -->
     <defs>
      <path d="M 9.8125 72.90625 
L 19.671875 72.90625 
L 19.671875 43.015625 
L 55.515625 43.015625 
L 55.515625 72.90625 
L 65.375 72.90625 
L 65.375 0 
L 55.515625 0 
L 55.515625 34.71875 
L 19.671875 34.71875 
L 19.671875 0 
L 9.8125 0 
z
" id="DejaVuSans-72"/>
      <path d="M -0.296875 72.90625 
L 61.375 72.90625 
L 61.375 64.59375 
L 35.5 64.59375 
L 35.5 0 
L 25.59375 0 
L 25.59375 64.59375 
L -0.296875 64.59375 
z
" id="DejaVuSans-84"/>
      <path d="M 6.296875 72.90625 
L 16.890625 72.90625 
L 35.015625 45.796875 
L 53.21875 72.90625 
L 63.8125 72.90625 
L 40.375 37.890625 
L 65.375 0 
L 54.78125 0 
L 34.28125 31 
L 13.625 0 
L 2.984375 0 
L 29 38.921875 
z
" id="DejaVuSans-88"/>
     </defs>
     <g transform="translate(81.845313 67.832812)scale(0.1 -0.1)">
      <use xlink:href="#DejaVuSans-72"/>
      <use x="75.195312" xlink:href="#DejaVuSans-71"/>
      <use x="152.638672" xlink:href="#DejaVuSans-84"/>
      <use x="213.722656" xlink:href="#DejaVuSans-88"/>
      <use x="282.228516" xlink:href="#DejaVuSans-51"/>
      <use x="345.851562" xlink:href="#DejaVuSans-46"/>
      <use x="377.638672" xlink:href="#DejaVuSans-83"/>
      <use x="441.130859" xlink:href="#DejaVuSans-65"/>
     </g>
    </g>
   </g>
  </g>
 </g>
 <defs>
  <clipPath id="p2de325ce00">
   <rect height="391.68" width="669.6" x="44.845313" y="7.2"/>
  </clipPath>
 </defs>
</svg>
