<?xml version="1.0" encoding="utf-8" standalone="no"?>
<!DOCTYPE svg PUBLIC "-//W3C//DTD SVG 1.1//EN"
  "http://www.w3.org/Graphics/SVG/1.1/DTD/svg11.dtd">
<!-- Created with matplotlib (https://matplotlib.org/) -->
<svg height="456.031033pt" version="1.1" viewBox="0 0 703.725 456.031033" width="703.725pt" xmlns="http://www.w3.org/2000/svg" xmlns:xlink="http://www.w3.org/1999/xlink">
 <defs>
  <style type="text/css">
*{stroke-linecap:butt;stroke-linejoin:round;}
  </style>
 </defs>
 <g id="figure_1">
  <g id="patch_1">
   <path d="M 0 456.031033 
L 703.725 456.031033 
L 703.725 0 
L 0 0 
z
" style="fill:none;"/>
  </g>
  <g id="axes_1">
   <g id="patch_2">
    <path d="M 26.925 398.88 
L 696.525 398.88 
L 696.525 7.2 
L 26.925 7.2 
z
" style="fill:#ffffff;"/>
   </g>
   <g id="matplotlib.axis_1">
    <g id="xtick_1">
     <g id="line2d_1">
      <defs>
       <path d="M 0 0 
L 0 3.5 
" id="m64a75feb7d" style="stroke:#000000;stroke-width:0.8;"/>
      </defs>
      <g>
       <use style="stroke:#000000;stroke-width:0.8;" x="56.600455" xlink:href="#m64a75feb7d" y="398.88"/>
      </g>
     </g>
     <g id="text_1">
      <!-- 2018-01 -->
      <defs>
       <path d="M 19.1875 8.296875 
L 53.609375 8.296875 
L 53.609375 0 
L 7.328125 0 
L 7.328125 8.296875 
Q 12.9375 14.109375 22.625 23.890625 
Q 32.328125 33.6875 34.8125 36.53125 
Q 39.546875 41.84375 41.421875 45.53125 
Q 43.3125 49.21875 43.3125 52.78125 
Q 43.3125 58.59375 39.234375 62.25 
Q 35.15625 65.921875 28.609375 65.921875 
Q 23.96875 65.921875 18.8125 64.3125 
Q 13.671875 62.703125 7.8125 59.421875 
L 7.8125 69.390625 
Q 13.765625 71.78125 18.9375 73 
Q 24.125 74.21875 28.421875 74.21875 
Q 39.75 74.21875 46.484375 68.546875 
Q 53.21875 62.890625 53.21875 53.421875 
Q 53.21875 48.921875 51.53125 44.890625 
Q 49.859375 40.875 45.40625 35.40625 
Q 44.1875 33.984375 37.640625 27.21875 
Q 31.109375 20.453125 19.1875 8.296875 
z
" id="DejaVuSans-50"/>
       <path d="M 31.78125 66.40625 
Q 24.171875 66.40625 20.328125 58.90625 
Q 16.5 51.421875 16.5 36.375 
Q 16.5 21.390625 20.328125 13.890625 
Q 24.171875 6.390625 31.78125 6.390625 
Q 39.453125 6.390625 43.28125 13.890625 
Q 47.125 21.390625 47.125 36.375 
Q 47.125 51.421875 43.28125 58.90625 
Q 39.453125 66.40625 31.78125 66.40625 
z
M 31.78125 74.21875 
Q 44.046875 74.21875 50.515625 64.515625 
Q 56.984375 54.828125 56.984375 36.375 
Q 56.984375 17.96875 50.515625 8.265625 
Q 44.046875 -1.421875 31.78125 -1.421875 
Q 19.53125 -1.421875 13.0625 8.265625 
Q 6.59375 17.96875 6.59375 36.375 
Q 6.59375 54.828125 13.0625 64.515625 
Q 19.53125 74.21875 31.78125 74.21875 
z
" id="DejaVuSans-48"/>
       <path d="M 12.40625 8.296875 
L 28.515625 8.296875 
L 28.515625 63.921875 
L 10.984375 60.40625 
L 10.984375 69.390625 
L 28.421875 72.90625 
L 38.28125 72.90625 
L 38.28125 8.296875 
L 54.390625 8.296875 
L 54.390625 0 
L 12.40625 0 
z
" id="DejaVuSans-49"/>
       <path d="M 31.78125 34.625 
Q 24.75 34.625 20.71875 30.859375 
Q 16.703125 27.09375 16.703125 20.515625 
Q 16.703125 13.921875 20.71875 10.15625 
Q 24.75 6.390625 31.78125 6.390625 
Q 38.8125 6.390625 42.859375 10.171875 
Q 46.921875 13.96875 46.921875 20.515625 
Q 46.921875 27.09375 42.890625 30.859375 
Q 38.875 34.625 31.78125 34.625 
z
M 21.921875 38.8125 
Q 15.578125 40.375 12.03125 44.71875 
Q 8.5 49.078125 8.5 55.328125 
Q 8.5 64.0625 14.71875 69.140625 
Q 20.953125 74.21875 31.78125 74.21875 
Q 42.671875 74.21875 48.875 69.140625 
Q 55.078125 64.0625 55.078125 55.328125 
Q 55.078125 49.078125 51.53125 44.71875 
Q 48 40.375 41.703125 38.8125 
Q 48.828125 37.15625 52.796875 32.3125 
Q 56.78125 27.484375 56.78125 20.515625 
Q 56.78125 9.90625 50.3125 4.234375 
Q 43.84375 -1.421875 31.78125 -1.421875 
Q 19.734375 -1.421875 13.25 4.234375 
Q 6.78125 9.90625 6.78125 20.515625 
Q 6.78125 27.484375 10.78125 32.3125 
Q 14.796875 37.15625 21.921875 38.8125 
z
M 18.3125 54.390625 
Q 18.3125 48.734375 21.84375 45.5625 
Q 25.390625 42.390625 31.78125 42.390625 
Q 38.140625 42.390625 41.71875 45.5625 
Q 45.3125 48.734375 45.3125 54.390625 
Q 45.3125 60.0625 41.71875 63.234375 
Q 38.140625 66.40625 31.78125 66.40625 
Q 25.390625 66.40625 21.84375 63.234375 
Q 18.3125 60.0625 18.3125 54.390625 
z
" id="DejaVuSans-56"/>
       <path d="M 4.890625 31.390625 
L 31.203125 31.390625 
L 31.203125 23.390625 
L 4.890625 23.390625 
z
" id="DejaVuSans-45"/>
      </defs>
      <g transform="translate(19.375634 433.351846)rotate(-30)scale(0.1 -0.1)">
       <use xlink:href="#DejaVuSans-50"/>
       <use x="63.623047" xlink:href="#DejaVuSans-48"/>
       <use x="127.246094" xlink:href="#DejaVuSans-49"/>
       <use x="190.869141" xlink:href="#DejaVuSans-56"/>
       <use x="254.492188" xlink:href="#DejaVuSans-45"/>
       <use x="290.576172" xlink:href="#DejaVuSans-48"/>
       <use x="354.199219" xlink:href="#DejaVuSans-49"/>
      </g>
     </g>
    </g>
    <g id="xtick_2">
     <g id="line2d_2">
      <g>
       <use style="stroke:#000000;stroke-width:0.8;" x="125.082273" xlink:href="#m64a75feb7d" y="398.88"/>
      </g>
     </g>
     <g id="text_2">
      <!-- 2018-04 -->
      <defs>
       <path d="M 37.796875 64.3125 
L 12.890625 25.390625 
L 37.796875 25.390625 
z
M 35.203125 72.90625 
L 47.609375 72.90625 
L 47.609375 25.390625 
L 58.015625 25.390625 
L 58.015625 17.1875 
L 47.609375 17.1875 
L 47.609375 0 
L 37.796875 0 
L 37.796875 17.1875 
L 4.890625 17.1875 
L 4.890625 26.703125 
z
" id="DejaVuSans-52"/>
      </defs>
      <g transform="translate(87.857452 433.351846)rotate(-30)scale(0.1 -0.1)">
       <use xlink:href="#DejaVuSans-50"/>
       <use x="63.623047" xlink:href="#DejaVuSans-48"/>
       <use x="127.246094" xlink:href="#DejaVuSans-49"/>
       <use x="190.869141" xlink:href="#DejaVuSans-56"/>
       <use x="254.492188" xlink:href="#DejaVuSans-45"/>
       <use x="290.576172" xlink:href="#DejaVuSans-48"/>
       <use x="354.199219" xlink:href="#DejaVuSans-52"/>
      </g>
     </g>
    </g>
    <g id="xtick_3">
     <g id="line2d_3">
      <g>
       <use style="stroke:#000000;stroke-width:0.8;" x="194.325" xlink:href="#m64a75feb7d" y="398.88"/>
      </g>
     </g>
     <g id="text_3">
      <!-- 2018-07 -->
      <defs>
       <path d="M 8.203125 72.90625 
L 55.078125 72.90625 
L 55.078125 68.703125 
L 28.609375 0 
L 18.3125 0 
L 43.21875 64.59375 
L 8.203125 64.59375 
z
" id="DejaVuSans-55"/>
      </defs>
      <g transform="translate(157.100179 433.351846)rotate(-30)scale(0.1 -0.1)">
       <use xlink:href="#DejaVuSans-50"/>
       <use x="63.623047" xlink:href="#DejaVuSans-48"/>
       <use x="127.246094" xlink:href="#DejaVuSans-49"/>
       <use x="190.869141" xlink:href="#DejaVuSans-56"/>
       <use x="254.492188" xlink:href="#DejaVuSans-45"/>
       <use x="290.576172" xlink:href="#DejaVuSans-48"/>
       <use x="354.199219" xlink:href="#DejaVuSans-55"/>
      </g>
     </g>
    </g>
    <g id="xtick_4">
     <g id="line2d_4">
      <g>
       <use style="stroke:#000000;stroke-width:0.8;" x="264.328636" xlink:href="#m64a75feb7d" y="398.88"/>
      </g>
     </g>
     <g id="text_4">
      <!-- 2018-10 -->
      <g transform="translate(227.103816 433.351846)rotate(-30)scale(0.1 -0.1)">
       <use xlink:href="#DejaVuSans-50"/>
       <use x="63.623047" xlink:href="#DejaVuSans-48"/>
       <use x="127.246094" xlink:href="#DejaVuSans-49"/>
       <use x="190.869141" xlink:href="#DejaVuSans-56"/>
       <use x="254.492188" xlink:href="#DejaVuSans-45"/>
       <use x="290.576172" xlink:href="#DejaVuSans-49"/>
       <use x="354.199219" xlink:href="#DejaVuSans-48"/>
      </g>
     </g>
    </g>
    <g id="xtick_5">
     <g id="line2d_5">
      <g>
       <use style="stroke:#000000;stroke-width:0.8;" x="334.332273" xlink:href="#m64a75feb7d" y="398.88"/>
      </g>
     </g>
     <g id="text_5">
      <!-- 2019-01 -->
      <defs>
       <path d="M 10.984375 1.515625 
L 10.984375 10.5 
Q 14.703125 8.734375 18.5 7.8125 
Q 22.3125 6.890625 25.984375 6.890625 
Q 35.75 6.890625 40.890625 13.453125 
Q 46.046875 20.015625 46.78125 33.40625 
Q 43.953125 29.203125 39.59375 26.953125 
Q 35.25 24.703125 29.984375 24.703125 
Q 19.046875 24.703125 12.671875 31.3125 
Q 6.296875 37.9375 6.296875 49.421875 
Q 6.296875 60.640625 12.9375 67.421875 
Q 19.578125 74.21875 30.609375 74.21875 
Q 43.265625 74.21875 49.921875 64.515625 
Q 56.59375 54.828125 56.59375 36.375 
Q 56.59375 19.140625 48.40625 8.859375 
Q 40.234375 -1.421875 26.421875 -1.421875 
Q 22.703125 -1.421875 18.890625 -0.6875 
Q 15.09375 0.046875 10.984375 1.515625 
z
M 30.609375 32.421875 
Q 37.25 32.421875 41.125 36.953125 
Q 45.015625 41.5 45.015625 49.421875 
Q 45.015625 57.28125 41.125 61.84375 
Q 37.25 66.40625 30.609375 66.40625 
Q 23.96875 66.40625 20.09375 61.84375 
Q 16.21875 57.28125 16.21875 49.421875 
Q 16.21875 41.5 20.09375 36.953125 
Q 23.96875 32.421875 30.609375 32.421875 
z
" id="DejaVuSans-57"/>
      </defs>
      <g transform="translate(297.107452 433.351846)rotate(-30)scale(0.1 -0.1)">
       <use xlink:href="#DejaVuSans-50"/>
       <use x="63.623047" xlink:href="#DejaVuSans-48"/>
       <use x="127.246094" xlink:href="#DejaVuSans-49"/>
       <use x="190.869141" xlink:href="#DejaVuSans-57"/>
       <use x="254.492188" xlink:href="#DejaVuSans-45"/>
       <use x="290.576172" xlink:href="#DejaVuSans-48"/>
       <use x="354.199219" xlink:href="#DejaVuSans-49"/>
      </g>
     </g>
    </g>
    <g id="xtick_6">
     <g id="line2d_6">
      <g>
       <use style="stroke:#000000;stroke-width:0.8;" x="402.814091" xlink:href="#m64a75feb7d" y="398.88"/>
      </g>
     </g>
     <g id="text_6">
      <!-- 2019-04 -->
      <g transform="translate(365.58927 433.351846)rotate(-30)scale(0.1 -0.1)">
       <use xlink:href="#DejaVuSans-50"/>
       <use x="63.623047" xlink:href="#DejaVuSans-48"/>
       <use x="127.246094" xlink:href="#DejaVuSans-49"/>
       <use x="190.869141" xlink:href="#DejaVuSans-57"/>
       <use x="254.492188" xlink:href="#DejaVuSans-45"/>
       <use x="290.576172" xlink:href="#DejaVuSans-48"/>
       <use x="354.199219" xlink:href="#DejaVuSans-52"/>
      </g>
     </g>
    </g>
    <g id="xtick_7">
     <g id="line2d_7">
      <g>
       <use style="stroke:#000000;stroke-width:0.8;" x="472.056818" xlink:href="#m64a75feb7d" y="398.88"/>
      </g>
     </g>
     <g id="text_7">
      <!-- 2019-07 -->
      <g transform="translate(434.831997 433.351846)rotate(-30)scale(0.1 -0.1)">
       <use xlink:href="#DejaVuSans-50"/>
       <use x="63.623047" xlink:href="#DejaVuSans-48"/>
       <use x="127.246094" xlink:href="#DejaVuSans-49"/>
       <use x="190.869141" xlink:href="#DejaVuSans-57"/>
       <use x="254.492188" xlink:href="#DejaVuSans-45"/>
       <use x="290.576172" xlink:href="#DejaVuSans-48"/>
       <use x="354.199219" xlink:href="#DejaVuSans-55"/>
      </g>
     </g>
    </g>
    <g id="xtick_8">
     <g id="line2d_8">
      <g>
       <use style="stroke:#000000;stroke-width:0.8;" x="542.060455" xlink:href="#m64a75feb7d" y="398.88"/>
      </g>
     </g>
     <g id="text_8">
      <!-- 2019-10 -->
      <g transform="translate(504.835634 433.351846)rotate(-30)scale(0.1 -0.1)">
       <use xlink:href="#DejaVuSans-50"/>
       <use x="63.623047" xlink:href="#DejaVuSans-48"/>
       <use x="127.246094" xlink:href="#DejaVuSans-49"/>
       <use x="190.869141" xlink:href="#DejaVuSans-57"/>
       <use x="254.492188" xlink:href="#DejaVuSans-45"/>
       <use x="290.576172" xlink:href="#DejaVuSans-49"/>
       <use x="354.199219" xlink:href="#DejaVuSans-48"/>
      </g>
     </g>
    </g>
    <g id="xtick_9">
     <g id="line2d_9">
      <g>
       <use style="stroke:#000000;stroke-width:0.8;" x="612.064091" xlink:href="#m64a75feb7d" y="398.88"/>
      </g>
     </g>
     <g id="text_9">
      <!-- 2020-01 -->
      <g transform="translate(574.83927 433.351846)rotate(-30)scale(0.1 -0.1)">
       <use xlink:href="#DejaVuSans-50"/>
       <use x="63.623047" xlink:href="#DejaVuSans-48"/>
       <use x="127.246094" xlink:href="#DejaVuSans-50"/>
       <use x="190.869141" xlink:href="#DejaVuSans-48"/>
       <use x="254.492188" xlink:href="#DejaVuSans-45"/>
       <use x="290.576172" xlink:href="#DejaVuSans-48"/>
       <use x="354.199219" xlink:href="#DejaVuSans-49"/>
      </g>
     </g>
    </g>
    <g id="xtick_10">
     <g id="line2d_10">
      <g>
       <use style="stroke:#000000;stroke-width:0.8;" x="681.306818" xlink:href="#m64a75feb7d" y="398.88"/>
      </g>
     </g>
     <g id="text_10">
      <!-- 2020-04 -->
      <g transform="translate(644.081997 433.351846)rotate(-30)scale(0.1 -0.1)">
       <use xlink:href="#DejaVuSans-50"/>
       <use x="63.623047" xlink:href="#DejaVuSans-48"/>
       <use x="127.246094" xlink:href="#DejaVuSans-50"/>
       <use x="190.869141" xlink:href="#DejaVuSans-48"/>
       <use x="254.492188" xlink:href="#DejaVuSans-45"/>
       <use x="290.576172" xlink:href="#DejaVuSans-48"/>
       <use x="354.199219" xlink:href="#DejaVuSans-52"/>
      </g>
     </g>
    </g>
    <g id="text_11">
     <!-- Date -->
     <defs>
      <path d="M 19.671875 64.796875 
L 19.671875 8.109375 
L 31.59375 8.109375 
Q 46.6875 8.109375 53.6875 14.9375 
Q 60.6875 21.78125 60.6875 36.53125 
Q 60.6875 51.171875 53.6875 57.984375 
Q 46.6875 64.796875 31.59375 64.796875 
z
M 9.8125 72.90625 
L 30.078125 72.90625 
Q 51.265625 72.90625 61.171875 64.09375 
Q 71.09375 55.28125 71.09375 36.53125 
Q 71.09375 17.671875 61.125 8.828125 
Q 51.171875 0 30.078125 0 
L 9.8125 0 
z
" id="DejaVuSans-68"/>
      <path d="M 34.28125 27.484375 
Q 23.390625 27.484375 19.1875 25 
Q 14.984375 22.515625 14.984375 16.5 
Q 14.984375 11.71875 18.140625 8.90625 
Q 21.296875 6.109375 26.703125 6.109375 
Q 34.1875 6.109375 38.703125 11.40625 
Q 43.21875 16.703125 43.21875 25.484375 
L 43.21875 27.484375 
z
M 52.203125 31.203125 
L 52.203125 0 
L 43.21875 0 
L 43.21875 8.296875 
Q 40.140625 3.328125 35.546875 0.953125 
Q 30.953125 -1.421875 24.3125 -1.421875 
Q 15.921875 -1.421875 10.953125 3.296875 
Q 6 8.015625 6 15.921875 
Q 6 25.140625 12.171875 29.828125 
Q 18.359375 34.515625 30.609375 34.515625 
L 43.21875 34.515625 
L 43.21875 35.40625 
Q 43.21875 41.609375 39.140625 45 
Q 35.0625 48.390625 27.6875 48.390625 
Q 23 48.390625 18.546875 47.265625 
Q 14.109375 46.140625 10.015625 43.890625 
L 10.015625 52.203125 
Q 14.9375 54.109375 19.578125 55.046875 
Q 24.21875 56 28.609375 56 
Q 40.484375 56 46.34375 49.84375 
Q 52.203125 43.703125 52.203125 31.203125 
z
" id="DejaVuSans-97"/>
      <path d="M 18.3125 70.21875 
L 18.3125 54.6875 
L 36.8125 54.6875 
L 36.8125 47.703125 
L 18.3125 47.703125 
L 18.3125 18.015625 
Q 18.3125 11.328125 20.140625 9.421875 
Q 21.96875 7.515625 27.59375 7.515625 
L 36.8125 7.515625 
L 36.8125 0 
L 27.59375 0 
Q 17.1875 0 13.234375 3.875 
Q 9.28125 7.765625 9.28125 18.015625 
L 9.28125 47.703125 
L 2.6875 47.703125 
L 2.6875 54.6875 
L 9.28125 54.6875 
L 9.28125 70.21875 
z
" id="DejaVuSans-116"/>
      <path d="M 56.203125 29.59375 
L 56.203125 25.203125 
L 14.890625 25.203125 
Q 15.484375 15.921875 20.484375 11.0625 
Q 25.484375 6.203125 34.421875 6.203125 
Q 39.59375 6.203125 44.453125 7.46875 
Q 49.3125 8.734375 54.109375 11.28125 
L 54.109375 2.78125 
Q 49.265625 0.734375 44.1875 -0.34375 
Q 39.109375 -1.421875 33.890625 -1.421875 
Q 20.796875 -1.421875 13.15625 6.1875 
Q 5.515625 13.8125 5.515625 26.8125 
Q 5.515625 40.234375 12.765625 48.109375 
Q 20.015625 56 32.328125 56 
Q 43.359375 56 49.78125 48.890625 
Q 56.203125 41.796875 56.203125 29.59375 
z
M 47.21875 32.234375 
Q 47.125 39.59375 43.09375 43.984375 
Q 39.0625 48.390625 32.421875 48.390625 
Q 24.90625 48.390625 20.390625 44.140625 
Q 15.875 39.890625 15.1875 32.171875 
z
" id="DejaVuSans-101"/>
     </defs>
     <g transform="translate(349.774219 446.751346)scale(0.1 -0.1)">
      <use xlink:href="#DejaVuSans-68"/>
      <use x="77.001953" xlink:href="#DejaVuSans-97"/>
      <use x="138.28125" xlink:href="#DejaVuSans-116"/>
      <use x="177.490234" xlink:href="#DejaVuSans-101"/>
     </g>
    </g>
   </g>
   <g id="matplotlib.axis_2">
    <g id="ytick_1">
     <g id="line2d_11">
      <defs>
       <path d="M 0 0 
L -3.5 0 
" id="mb21c13f7a2" style="stroke:#000000;stroke-width:0.8;"/>
      </defs>
      <g>
       <use style="stroke:#000000;stroke-width:0.8;" x="26.925" xlink:href="#mb21c13f7a2" y="395.838322"/>
      </g>
     </g>
     <g id="text_12">
      <!-- 5 -->
      <defs>
       <path d="M 10.796875 72.90625 
L 49.515625 72.90625 
L 49.515625 64.59375 
L 19.828125 64.59375 
L 19.828125 46.734375 
Q 21.96875 47.46875 24.109375 47.828125 
Q 26.265625 48.1875 28.421875 48.1875 
Q 40.625 48.1875 47.75 41.5 
Q 54.890625 34.8125 54.890625 23.390625 
Q 54.890625 11.625 47.5625 5.09375 
Q 40.234375 -1.421875 26.90625 -1.421875 
Q 22.3125 -1.421875 17.546875 -0.640625 
Q 12.796875 0.140625 7.71875 1.703125 
L 7.71875 11.625 
Q 12.109375 9.234375 16.796875 8.0625 
Q 21.484375 6.890625 26.703125 6.890625 
Q 35.15625 6.890625 40.078125 11.328125 
Q 45.015625 15.765625 45.015625 23.390625 
Q 45.015625 31 40.078125 35.4375 
Q 35.15625 39.890625 26.703125 39.890625 
Q 22.75 39.890625 18.8125 39.015625 
Q 14.890625 38.140625 10.796875 36.28125 
z
" id="DejaVuSans-53"/>
      </defs>
      <g transform="translate(13.5625 399.637541)scale(0.1 -0.1)">
       <use xlink:href="#DejaVuSans-53"/>
      </g>
     </g>
    </g>
    <g id="ytick_2">
     <g id="line2d_12">
      <g>
       <use style="stroke:#000000;stroke-width:0.8;" x="26.925" xlink:href="#mb21c13f7a2" y="339.500093"/>
      </g>
     </g>
     <g id="text_13">
      <!-- 10 -->
      <g transform="translate(7.2 343.299312)scale(0.1 -0.1)">
       <use xlink:href="#DejaVuSans-49"/>
       <use x="63.623047" xlink:href="#DejaVuSans-48"/>
      </g>
     </g>
    </g>
    <g id="ytick_3">
     <g id="line2d_13">
      <g>
       <use style="stroke:#000000;stroke-width:0.8;" x="26.925" xlink:href="#mb21c13f7a2" y="283.161864"/>
      </g>
     </g>
     <g id="text_14">
      <!-- 15 -->
      <g transform="translate(7.2 286.961082)scale(0.1 -0.1)">
       <use xlink:href="#DejaVuSans-49"/>
       <use x="63.623047" xlink:href="#DejaVuSans-53"/>
      </g>
     </g>
    </g>
    <g id="ytick_4">
     <g id="line2d_14">
      <g>
       <use style="stroke:#000000;stroke-width:0.8;" x="26.925" xlink:href="#mb21c13f7a2" y="226.823634"/>
      </g>
     </g>
     <g id="text_15">
      <!-- 20 -->
      <g transform="translate(7.2 230.622853)scale(0.1 -0.1)">
       <use xlink:href="#DejaVuSans-50"/>
       <use x="63.623047" xlink:href="#DejaVuSans-48"/>
      </g>
     </g>
    </g>
    <g id="ytick_5">
     <g id="line2d_15">
      <g>
       <use style="stroke:#000000;stroke-width:0.8;" x="26.925" xlink:href="#mb21c13f7a2" y="170.485405"/>
      </g>
     </g>
     <g id="text_16">
      <!-- 25 -->
      <g transform="translate(7.2 174.284624)scale(0.1 -0.1)">
       <use xlink:href="#DejaVuSans-50"/>
       <use x="63.623047" xlink:href="#DejaVuSans-53"/>
      </g>
     </g>
    </g>
    <g id="ytick_6">
     <g id="line2d_16">
      <g>
       <use style="stroke:#000000;stroke-width:0.8;" x="26.925" xlink:href="#mb21c13f7a2" y="114.147176"/>
      </g>
     </g>
     <g id="text_17">
      <!-- 30 -->
      <defs>
       <path d="M 40.578125 39.3125 
Q 47.65625 37.796875 51.625 33 
Q 55.609375 28.21875 55.609375 21.1875 
Q 55.609375 10.40625 48.1875 4.484375 
Q 40.765625 -1.421875 27.09375 -1.421875 
Q 22.515625 -1.421875 17.65625 -0.515625 
Q 12.796875 0.390625 7.625 2.203125 
L 7.625 11.71875 
Q 11.71875 9.328125 16.59375 8.109375 
Q 21.484375 6.890625 26.8125 6.890625 
Q 36.078125 6.890625 40.9375 10.546875 
Q 45.796875 14.203125 45.796875 21.1875 
Q 45.796875 27.640625 41.28125 31.265625 
Q 36.765625 34.90625 28.71875 34.90625 
L 20.21875 34.90625 
L 20.21875 43.015625 
L 29.109375 43.015625 
Q 36.375 43.015625 40.234375 45.921875 
Q 44.09375 48.828125 44.09375 54.296875 
Q 44.09375 59.90625 40.109375 62.90625 
Q 36.140625 65.921875 28.71875 65.921875 
Q 24.65625 65.921875 20.015625 65.03125 
Q 15.375 64.15625 9.8125 62.3125 
L 9.8125 71.09375 
Q 15.4375 72.65625 20.34375 73.4375 
Q 25.25 74.21875 29.59375 74.21875 
Q 40.828125 74.21875 47.359375 69.109375 
Q 53.90625 64.015625 53.90625 55.328125 
Q 53.90625 49.265625 50.4375 45.09375 
Q 46.96875 40.921875 40.578125 39.3125 
z
" id="DejaVuSans-51"/>
      </defs>
      <g transform="translate(7.2 117.946395)scale(0.1 -0.1)">
       <use xlink:href="#DejaVuSans-51"/>
       <use x="63.623047" xlink:href="#DejaVuSans-48"/>
      </g>
     </g>
    </g>
    <g id="ytick_7">
     <g id="line2d_17">
      <g>
       <use style="stroke:#000000;stroke-width:0.8;" x="26.925" xlink:href="#mb21c13f7a2" y="57.808946"/>
      </g>
     </g>
     <g id="text_18">
      <!-- 35 -->
      <g transform="translate(7.2 61.608165)scale(0.1 -0.1)">
       <use xlink:href="#DejaVuSans-51"/>
       <use x="63.623047" xlink:href="#DejaVuSans-53"/>
      </g>
     </g>
    </g>
   </g>
   <g id="line2d_18">
    <path clip-path="url(#pbc2ce31c95)" d="M 57.361364 354.901822 
L 58.122273 356.713885 
L 58.883182 357.090026 
L 59.644091 356.372011 
L 61.926818 355.790724 
L 63.448636 355.756553 
L 64.209545 355.072688 
L 64.970455 356.098448 
L 67.253182 355.44883 
L 68.014091 354.217935 
L 68.775 351.824564 
L 69.535909 353.46576 
L 70.296818 354.04695 
L 72.579545 353.192186 
L 73.340455 353.670906 
L 74.101364 351.892885 
L 75.623182 351.995452 
L 77.905909 353.294786 
L 78.666818 352.987041 
L 79.427727 352.166448 
L 80.188636 352.132299 
L 80.949545 352.850313 
L 83.232273 351.858735 
L 83.993182 353.431492 
L 84.754091 351.003982 
L 85.515 349.430795 
L 86.275909 350.11495 
L 90.841364 351.209128 
L 93.885 351.072271 
L 94.645909 350.627841 
L 95.406818 350.627841 
L 96.167727 352.850313 
L 96.928636 351.003982 
L 99.211364 350.730408 
L 99.972273 353.705077 
L 100.733182 355.038528 
L 101.494091 355.41468 
L 102.255 355.312102 
L 104.537727 355.41468 
L 105.298636 356.440429 
L 106.059545 357.021608 
L 106.820455 356.611306 
L 107.581364 356.406161 
L 109.864091 357.124165 
L 110.625 357.090026 
L 111.385909 357.295171 
L 112.146818 357.124165 
L 112.907727 358.149946 
L 115.190455 359.688553 
L 115.951364 359.517665 
L 116.712273 361.398156 
L 118.234091 361.227182 
L 120.516818 358.697061 
L 121.277727 358.970539 
L 122.038636 360.851127 
L 122.799545 358.628644 
L 125.843182 360.680131 
L 126.604091 359.073074 
L 127.365 357.842212 
L 128.125909 359.175673 
L 128.886818 358.765372 
L 131.930455 359.859549 
L 132.691364 359.75696 
L 133.452273 358.79965 
L 134.213182 360.885287 
L 136.495909 359.346669 
L 137.256818 359.24408 
L 138.017727 358.28676 
L 138.778636 360.372418 
L 139.539545 360.167262 
L 142.583182 359.75696 
L 144.105 356.748131 
L 144.865909 359.141502 
L 147.148636 358.731222 
L 148.670455 360.714302 
L 149.431364 362.150315 
L 150.192273 364.851668 
L 152.475 366.091766 
L 153.235909 362.999545 
L 153.996818 362.820909 
L 155.518636 363.178294 
L 157.801364 364.929633 
L 158.562273 364.429315 
L 159.323182 364.786699 
L 160.084091 366.966935 
L 160.845 365.894663 
L 163.127727 365.215607 
L 163.888636 362.892319 
L 164.649545 364.286268 
L 165.410455 365.322817 
L 166.171364 365.751724 
L 168.454091 368.360879 
L 169.215 368.360879 
L 169.975909 368.718377 
L 171.497727 362.642155 
L 173.780455 360.604857 
L 174.541364 363.821653 
L 175.302273 366.073423 
L 176.063182 366.931233 
L 176.824091 365.64451 
L 179.106818 365.64451 
L 179.867727 365.966181 
L 181.389545 366.287869 
L 182.150455 364.464996 
L 184.433182 366.073423 
L 185.955 364.679474 
L 186.715909 365.001145 
L 187.476818 365.537284 
L 189.759545 365.215607 
L 190.520455 365.64451 
L 191.281364 365.537284 
L 192.042273 366.180638 
L 192.803182 367.25291 
L 195.085909 366.287869 
L 195.846818 366.180638 
L 196.607727 364.036093 
L 197.368636 364.572232 
L 198.129545 362.213252 
L 201.173182 362.213252 
L 201.934091 363.392734 
L 202.695 363.285519 
L 203.455909 363.607207 
L 205.738636 363.714422 
L 206.499545 362.963837 
L 207.260455 363.714422 
L 208.021364 363.714422 
L 208.782273 361.784323 
L 211.065 363.071063 
L 212.586818 365.001145 
L 213.347727 365.64451 
L 214.108636 364.786699 
L 216.391364 366.824007 
L 217.152273 368.646859 
L 217.913182 367.360141 
L 219.435 366.3951 
L 221.717727 365.858961 
L 222.478636 368.472242 
L 223.239545 369.118599 
L 224.000455 370.949972 
L 224.761364 371.919516 
L 227.044091 373.319976 
L 227.805 369.980417 
L 228.565909 372.134971 
L 229.326818 372.673609 
L 230.087727 373.535422 
L 232.370455 372.134971 
L 233.131364 374.397256 
L 233.892273 373.966339 
L 234.653182 372.996795 
L 235.414091 374.181806 
L 237.696818 373.535422 
L 238.457727 372.996795 
L 239.218636 373.319976 
L 239.979545 374.612712 
L 240.740455 375.043619 
L 243.023182 373.427707 
L 243.784091 374.504976 
L 244.545 375.151349 
L 245.305909 375.474525 
L 249.110455 376.767261 
L 249.871364 376.874986 
L 250.632273 378.490898 
L 251.393182 377.198167 
L 253.675909 377.305903 
L 254.436818 376.013162 
L 255.197727 375.689981 
L 255.958636 377.521359 
L 256.719545 378.92181 
L 259.763182 378.706354 
L 261.285 378.814079 
L 262.045909 379.675903 
L 264.328636 381.076364 
L 265.089545 379.352716 
L 265.850455 377.198167 
L 266.611364 377.413623 
L 267.372273 376.659525 
L 269.655 373.535422 
L 270.415909 371.165422 
L 271.176818 371.488609 
L 271.937727 373.535422 
L 274.981364 370.411335 
L 275.742273 370.73451 
L 276.503182 370.411335 
L 277.264091 370.626791 
L 278.025 369.872703 
L 280.307727 369.010879 
L 281.068636 366.102226 
L 281.829545 370.51906 
L 282.590455 368.795423 
L 283.351364 373.858614 
L 285.634091 374.935888 
L 286.395 374.504976 
L 287.155909 373.643163 
L 287.916818 370.626791 
L 290.960455 370.51906 
L 291.721364 370.817843 
L 292.482273 370.166973 
L 293.243182 371.468713 
L 294.004091 370.817843 
L 296.286818 372.987404 
L 297.047727 371.902623 
L 297.808636 368.648277 
L 299.330455 365.936319 
L 301.613182 365.936319 
L 303.135 367.238059 
L 304.656818 365.827841 
L 306.939545 364.526101 
L 307.700455 364.30914 
L 308.461364 364.526101 
L 309.222273 364.30914 
L 309.983182 367.997402 
L 313.026818 368.756755 
L 313.787727 366.804144 
L 315.309545 367.129571 
L 317.592273 368.865232 
L 318.353182 366.912622 
L 319.114091 365.502403 
L 319.875 366.912622 
L 320.635909 365.827841 
L 322.918636 367.671969 
L 324.440455 366.478712 
L 325.201364 366.804144 
L 325.962273 366.044796 
L 329.766818 367.563486 
L 330.527727 365.610886 
L 331.288636 363.224366 
L 335.093182 362.13958 
L 335.854091 362.573501 
L 336.615 364.417623 
L 338.897727 364.30914 
L 339.658636 363.44131 
L 340.419545 361.380232 
L 341.180455 358.342841 
L 341.941364 358.885229 
L 344.224091 359.861537 
L 344.985 358.885229 
L 345.745909 360.078492 
L 346.506818 358.668263 
L 347.267727 358.668263 
L 349.550455 359.427616 
L 350.311364 359.861537 
L 351.072273 357.149567 
L 351.833182 355.956315 
L 355.637727 355.630893 
L 356.398636 352.485025 
L 357.159545 353.027402 
L 357.920455 352.485025 
L 360.203182 350.532409 
L 360.964091 351.291751 
L 362.485909 354.763063 
L 363.246818 354.220665 
L 366.290455 354.546108 
L 367.051364 355.196973 
L 367.812273 355.522405 
L 368.573182 355.630893 
L 370.855909 356.932623 
L 371.616818 355.73936 
L 372.377727 357.800443 
L 373.138636 359.319149 
L 373.899545 357.366544 
L 376.182273 356.715668 
L 376.943182 357.366544 
L 377.704091 356.932623 
L 378.465 358.125886 
L 379.225909 357.800443 
L 383.791364 360.295436 
L 384.552273 360.295436 
L 387.595909 358.451319 
L 388.356818 358.342841 
L 389.117727 358.776762 
L 389.878636 355.73936 
L 392.161364 356.498713 
L 393.683182 358.885229 
L 394.444091 361.0548 
L 395.205 362.681973 
L 397.487727 362.35653 
L 398.248636 361.597187 
L 399.770455 362.79045 
L 400.531364 361.271744 
L 402.814091 359.536094 
L 403.575 360.946322 
L 404.335909 362.031097 
L 405.096818 361.271744 
L 405.857727 361.0548 
L 408.140455 360.620879 
L 408.901364 363.224366 
L 409.662273 363.766764 
L 410.423182 364.74305 
L 411.184091 364.960011 
L 413.466818 363.332848 
L 414.227727 363.007395 
L 414.988636 364.526101 
L 415.749545 363.983708 
L 419.554091 363.332848 
L 420.315 363.565266 
L 421.075909 363.12276 
L 421.836818 371.530329 
L 424.880455 370.977191 
L 426.402273 372.30471 
L 427.163182 372.415331 
L 429.445909 371.972825 
L 430.206818 372.525963 
L 430.967727 372.30471 
L 431.728636 372.747211 
L 432.489545 372.182543 
L 434.772273 373.851403 
L 435.533182 373.962659 
L 436.294091 374.741461 
L 437.055 375.85403 
L 440.859545 373.517632 
L 441.620455 374.185169 
L 442.381364 373.628887 
L 443.142273 374.185169 
L 445.425 373.962659 
L 446.185909 371.960027 
L 446.946818 372.182543 
L 447.707727 372.071293 
L 448.468636 373.628887 
L 450.751364 372.738829 
L 451.512273 370.958708 
L 452.273182 371.737511 
L 453.034091 370.402426 
L 453.795 369.84614 
L 456.077727 370.736198 
L 457.599545 370.402426 
L 458.360455 369.84614 
L 459.121364 370.513682 
L 461.404091 370.179916 
L 462.165 370.291166 
L 462.925909 368.622305 
L 464.447727 368.399795 
L 466.730455 367.509737 
L 467.491364 367.398476 
L 468.252273 368.177279 
L 469.013182 367.620992 
L 469.774091 365.395844 
L 472.056818 366.174647 
L 472.817727 366.619679 
L 473.578636 366.174647 
L 474.339545 363.726989 
L 475.100455 363.949505 
L 477.383182 362.614415 
L 478.905 360.723027 
L 479.665909 361.168059 
L 480.426818 363.281957 
L 482.709545 364.17202 
L 483.470455 364.283276 
L 484.231364 363.393218 
L 484.992273 364.839563 
L 485.753182 364.505791 
L 488.035909 364.950812 
L 488.796818 366.953455 
L 489.557727 367.064705 
L 490.318636 368.844826 
L 491.079545 369.178597 
L 494.123182 367.064705 
L 494.884091 367.620992 
L 495.645 367.064705 
L 496.405909 368.066024 
L 498.688636 368.733566 
L 499.449545 368.399795 
L 500.210455 367.732252 
L 500.971364 365.840876 
L 501.732273 366.0968 
L 504.015 367.76933 
L 504.775909 367.546326 
L 505.536818 368.772852 
L 506.297727 371.671914 
L 507.058636 369.88787 
L 509.341364 369.999378 
L 510.102273 370.222383 
L 510.863182 368.21534 
L 511.624091 369.218861 
L 512.385 370.556885 
L 514.667727 371.002894 
L 515.428636 369.776373 
L 516.189545 368.326842 
L 517.711364 362.417221 
L 519.994091 366.0968 
L 520.755 365.093278 
L 521.515909 365.42778 
L 522.276818 365.985292 
L 523.037727 365.539288 
L 525.320455 365.093278 
L 526.081364 363.197738 
L 526.842273 357.399619 
L 528.364091 360.744691 
L 530.646818 360.633183 
L 531.407727 359.07215 
L 532.168636 358.403146 
L 532.929545 358.62614 
L 533.690455 358.18013 
L 535.973182 357.622624 
L 536.734091 354.389049 
L 537.495 356.396092 
L 538.255909 357.176614 
L 541.299545 354.83507 
L 542.060455 355.838586 
L 542.821364 359.518159 
L 544.343182 357.399619 
L 546.625909 358.62614 
L 547.386818 358.737648 
L 548.147727 356.730605 
L 548.908636 356.95361 
L 549.669545 355.169571 
L 551.952273 353.94304 
L 552.713182 353.720046 
L 553.474091 350.263466 
L 554.235 348.813941 
L 554.995909 348.813941 
L 557.278636 348.367931 
L 558.039545 345.46888 
L 558.800455 343.350329 
L 559.561364 344.353856 
L 560.322273 341.343297 
L 562.605 342.681325 
L 563.365909 339.893771 
L 564.126818 341.900803 
L 564.887727 341.008784 
L 565.648636 341.231789 
L 567.931364 340.897287 
L 568.692273 341.302915 
L 569.453182 339.500093 
L 570.214091 336.119797 
L 570.975 337.584592 
L 573.257727 337.584592 
L 574.018636 339.500093 
L 574.779545 339.838119 
L 575.540455 340.626862 
L 578.584091 338.598682 
L 579.345 337.246566 
L 583.910455 333.86627 
L 584.671364 334.316975 
L 585.432273 335.781771 
L 586.193182 331.950769 
L 586.954091 331.049359 
L 589.236818 332.176127 
L 590.758636 326.654973 
L 591.519545 324.176098 
L 592.280455 319.894392 
L 594.563182 321.471855 
L 595.324091 324.063419 
L 596.085 321.471855 
L 596.845909 318.429597 
L 597.606818 313.584505 
L 599.889545 313.584505 
L 600.650455 314.035211 
L 601.411364 312.457747 
L 602.172273 311.330978 
L 602.933182 314.260569 
L 605.215909 312.345068 
L 607.498636 312.345068 
L 608.259545 313.021121 
L 610.542273 313.809863 
L 612.825 313.584505 
L 613.585909 312.11971 
L 615.868636 313.809863 
L 616.629545 306.711245 
L 617.390455 307.161951 
L 618.151364 312.11971 
L 621.195 313.584505 
L 621.955909 312.007042 
L 622.716818 314.823953 
L 623.477727 314.823953 
L 624.238636 314.14789 
L 626.521364 315.838032 
L 628.043182 317.528186 
L 628.804091 317.415507 
L 629.565 317.07748 
L 631.847727 320.119739 
L 632.608636 317.753533 
L 633.369545 319.669034 
L 634.130455 320.345097 
L 634.891364 322.936651 
L 637.174091 322.485945 
L 637.935 320.908482 
L 638.695909 322.485945 
L 639.456818 323.612714 
L 640.217727 327.556384 
L 642.500455 330.824001 
L 643.261364 329.471884 
L 644.022273 330.485974 
L 644.783182 329.246537 
L 645.544091 331.274717 
L 647.826818 324.852151 
L 648.587727 327.218357 
L 649.348636 326.429625 
L 650.109545 328.570473 
L 650.870455 331.612743 
L 655.435909 344.79589 
L 656.196818 342.880389 
L 658.479545 340.514183 
L 659.240455 341.415594 
L 660.001364 339.950798 
L 660.762273 345.922648 
L 661.523182 349.077596 
L 663.805909 351.894508 
L 664.566818 344.119826 
L 666.088636 360.45791 
L 666.088636 360.45791 
" style="fill:none;stroke:#1f77b4;stroke-linecap:square;stroke-width:1.5;"/>
   </g>
   <g id="line2d_19">
    <path clip-path="url(#pbc2ce31c95)" d="M 57.361364 299.893003 
L 58.122273 303.613571 
L 58.883182 303.786608 
L 59.644091 301.190875 
L 61.926818 304.21924 
L 62.687727 303.18094 
L 63.448636 307.247615 
L 64.209545 307.420663 
L 64.970455 304.132705 
L 68.014091 303.007892 
L 68.775 301.536971 
L 69.535909 301.71003 
L 70.296818 307.420663 
L 72.579545 310.708579 
L 73.340455 312.698676 
L 74.101364 312.958237 
L 74.862273 312.958237 
L 75.623182 309.497252 
L 77.905909 311.227755 
L 78.666818 312.439093 
L 79.427727 313.909992 
L 80.188636 312.439093 
L 80.949545 315.467457 
L 83.232273 316.332688 
L 84.754091 318.409298 
L 85.515 317.976688 
L 86.275909 314.688741 
L 90.841364 315.034837 
L 91.602273 313.650441 
L 93.885 313.909992 
L 94.645909 310.27598 
L 95.406818 309.410728 
L 96.167727 304.780905 
L 96.928636 303.46094 
L 99.211364 305.220908 
L 99.972273 301.085009 
L 101.494091 301.700993 
L 102.255 301.700993 
L 104.537727 299.869438 
L 105.298636 299.692328 
L 106.059545 302.260294 
L 106.820455 300.135092 
L 107.581364 301.374809 
L 109.864091 295.176247 
L 110.625 294.733494 
L 111.385909 294.113651 
L 112.146818 297.301471 
L 112.907727 297.390005 
L 115.190455 297.212916 
L 115.951364 299.869438 
L 116.712273 299.869438 
L 117.473182 305.271025 
L 118.234091 303.322912 
L 120.516818 304.385507 
L 121.277727 308.724499 
L 122.038636 306.067978 
L 122.799545 298.98392 
L 125.843182 301.994651 
L 126.604091 305.35957 
L 127.365 305.979423 
L 128.125909 305.979423 
L 128.886818 309.255797 
L 131.169545 309.787106 
L 131.930455 310.406959 
L 132.691364 309.167253 
L 133.452273 308.724499 
L 134.213182 310.141304 
L 136.495909 315.719991 
L 137.256818 318.022314 
L 138.778636 314.391741 
L 139.539545 310.495514 
L 141.822273 313.06348 
L 142.583182 312.709271 
L 143.344091 312.000885 
L 144.105 313.06348 
L 144.865909 313.417679 
L 147.148636 313.948988 
L 148.670455 314.480285 
L 149.431364 319.350575 
L 150.192273 320.236072 
L 152.475 322.007086 
L 153.235909 320.855935 
L 153.996818 320.236072 
L 154.757727 325.814769 
L 155.518636 321.210134 
L 157.801364 324.309409 
L 158.562273 329.533898 
L 159.323182 326.96592 
L 160.084091 330.065206 
L 160.845 331.659132 
L 163.127727 329.250223 
L 163.888636 327.376877 
L 164.649545 335.405458 
L 165.410455 333.532123 
L 166.171364 332.907682 
L 168.454091 336.20832 
L 169.215 333.086092 
L 169.975909 334.602606 
L 171.497727 334.781016 
L 173.780455 331.747999 
L 174.541364 334.424185 
L 175.302273 336.29752 
L 176.063182 343.880058 
L 176.824091 340.49022 
L 179.106818 343.790858 
L 179.867727 343.077196 
L 180.628636 342.898785 
L 181.389545 344.058468 
L 182.150455 344.4153 
L 184.433182 346.467045 
L 185.194091 342.452754 
L 185.955 342.363555 
L 186.715909 348.69721 
L 187.476818 345.128941 
L 189.759545 347.359117 
L 190.520455 345.931803 
L 191.281364 348.78641 
L 192.042273 343.434027 
L 192.803182 344.236889 
L 195.085909 344.147679 
L 195.846818 344.3261 
L 196.607727 342.898785 
L 198.129545 340.936251 
L 201.934091 340.49022 
L 202.695 339.776568 
L 203.455909 341.560692 
L 205.738636 339.598158 
L 206.499545 339.687358 
L 207.260455 338.170854 
L 208.021364 339.687358 
L 208.782273 337.368003 
L 211.065 338.438475 
L 211.825909 336.47593 
L 212.586818 334.959426 
L 213.347727 334.870216 
L 214.108636 336.47593 
L 216.391364 336.20832 
L 217.152273 338.438475 
L 217.913182 336.654351 
L 218.674091 337.546413 
L 219.435 336.56514 
L 221.717727 335.673078 
L 223.239545 336.832761 
L 224.000455 341.114661 
L 224.761364 343.969258 
L 227.044091 343.612437 
L 227.805 338.884506 
L 228.565909 341.649903 
L 229.326818 341.917524 
L 230.087727 344.68291 
L 232.370455 341.563862 
L 233.131364 344.533932 
L 233.892273 341.653857 
L 234.653182 341.473857 
L 235.414091 342.19387 
L 237.696818 339.2238 
L 238.457727 337.963764 
L 239.218636 339.583802 
L 239.979545 344.17392 
L 240.740455 343.273895 
L 243.023182 341.473857 
L 243.784091 347.233995 
L 244.545 347.233995 
L 245.305909 344.983939 
L 248.349545 344.893933 
L 249.110455 348.134019 
L 249.871364 349.484051 
L 250.632273 353.894158 
L 251.393182 350.384065 
L 253.675909 351.28409 
L 254.436818 348.674032 
L 255.197727 345.253945 
L 255.958636 348.584026 
L 256.719545 342.37387 
L 259.002273 343.273895 
L 259.763182 343.273895 
L 260.524091 344.353931 
L 261.285 339.943814 
L 262.045909 341.923864 
L 264.328636 343.813908 
L 265.089545 339.673807 
L 265.850455 333.283651 
L 266.611364 338.323776 
L 267.372273 335.173706 
L 269.655 330.673593 
L 270.415909 328.873544 
L 271.176818 329.773569 
L 271.937727 329.143551 
L 274.981364 332.743638 
L 275.742273 331.213606 
L 276.503182 331.393607 
L 277.264091 330.673593 
L 278.025 312.673155 
L 280.307727 321.583374 
L 281.068636 321.313367 
L 281.829545 317.173267 
L 282.590455 317.173267 
L 283.351364 313.573179 
L 285.634091 321.673369 
L 286.395 315.463213 
L 287.155909 315.463213 
L 287.916818 311.323112 
L 290.960455 313.483174 
L 291.721364 311.143112 
L 292.482273 310.153092 
L 293.243182 312.673155 
L 294.004091 312.853155 
L 296.286818 316.363248 
L 297.047727 315.013206 
L 297.808636 315.283212 
L 299.330455 310.783111 
L 303.135 314.113181 
L 303.895909 313.933181 
L 304.656818 316.633244 
L 306.939545 318.163287 
L 307.700455 314.653205 
L 308.461364 307.273018 
L 309.222273 309.703085 
L 309.983182 305.472979 
L 312.265909 306.46301 
L 313.026818 309.073056 
L 313.787727 308.443049 
L 314.548636 306.823011 
L 315.309545 312.583149 
L 317.592273 313.213167 
L 318.353182 311.323112 
L 319.114091 308.623049 
L 319.875 308.623049 
L 320.635909 308.083048 
L 322.918636 309.523074 
L 323.679545 308.443049 
L 324.440455 307.093017 
L 325.201364 303.67293 
L 325.962273 301.872892 
L 329.766818 305.202973 
L 330.527727 300.342849 
L 331.288636 298.992817 
L 335.093182 294.672716 
L 335.854091 294.40271 
L 336.615 295.57273 
L 338.897727 295.932753 
L 339.658636 292.872667 
L 340.419545 281.712392 
L 341.180455 281.17239 
L 341.941364 281.262385 
L 344.224091 281.17239 
L 347.267727 282.972428 
L 349.550455 282.072404 
L 350.311364 275.862259 
L 351.833182 270.372116 
L 354.876818 271.542147 
L 355.637727 272.262171 
L 356.398636 270.822123 
L 357.159545 271.632153 
L 357.920455 270.91215 
L 360.203182 269.112101 
L 360.964091 266.952029 
L 361.725 272.622172 
L 362.485909 274.422221 
L 363.246818 273.792203 
L 365.529545 276.132265 
L 366.290455 273.432202 
L 367.051364 274.152204 
L 367.812273 274.422221 
L 368.573182 278.472327 
L 370.855909 275.682258 
L 371.616818 272.172165 
L 372.377727 276.672267 
L 373.138636 275.592252 
L 373.899545 280.542372 
L 376.182273 278.292315 
L 376.943182 279.822358 
L 377.704091 278.742322 
L 378.465 279.552341 
L 379.225909 272.712178 
L 383.791364 277.392291 
L 384.552273 268.752078 
L 386.835 266.952029 
L 387.595909 269.292091 
L 388.356818 272.172165 
L 389.117727 273.07219 
L 389.878636 270.192105 
L 392.161364 273.972204 
L 392.922273 275.772253 
L 393.683182 278.472327 
L 394.444091 278.697319 
L 395.205 281.50989 
L 397.487727 280.497369 
L 398.248636 279.484837 
L 399.009545 283.872453 
L 399.770455 282.747414 
L 400.531364 279.147337 
L 402.814091 279.03483 
L 404.335909 282.634929 
L 405.096818 280.159858 
L 405.857727 272.397179 
L 408.140455 279.372341 
L 408.901364 283.084935 
L 409.662273 282.184911 
L 410.423182 280.609876 
L 411.184091 281.17239 
L 413.466818 279.484837 
L 414.988636 281.734904 
L 415.749545 279.484837 
L 418.793182 281.17239 
L 419.554091 281.17239 
L 420.315 280.722372 
L 421.075909 273.859707 
L 421.836818 276.334767 
L 424.119545 277.797306 
L 424.880455 276.109763 
L 426.402273 276.109763 
L 427.163182 274.984735 
L 429.445909 275.88476 
L 430.206818 274.422221 
L 430.967727 270.822123 
L 431.728636 271.047137 
L 432.489545 265.647011 
L 434.772273 266.772039 
L 435.533182 262.609426 
L 436.294091 260.921884 
L 437.055 257.996807 
L 437.815909 257.546822 
L 440.098636 254.059209 
L 440.859545 249.671625 
L 441.620455 252.484195 
L 442.381364 248.321583 
L 443.142273 251.246638 
L 445.425 250.121632 
L 446.185909 247.759069 
L 446.946818 246.859055 
L 447.707727 244.271499 
L 448.468636 245.62152 
L 450.751364 250.234117 
L 451.512273 253.609223 
L 452.273182 257.546822 
L 453.795 247.984083 
L 456.077727 246.296541 
L 456.838636 244.833991 
L 457.599545 245.171513 
L 458.360455 244.271499 
L 459.121364 239.883872 
L 461.404091 230.546147 
L 462.165 223.233465 
L 462.925909 223.570986 
L 464.447727 218.395853 
L 466.730455 223.008451 
L 467.491364 223.908486 
L 468.252273 223.908486 
L 469.013182 221.095916 
L 469.774091 222.558465 
L 472.056818 220.19588 
L 472.817727 214.795754 
L 473.578636 214.795754 
L 474.339545 212.658205 
L 475.100455 210.858156 
L 477.383182 215.920804 
L 478.905 202.420467 
L 479.665909 205.795551 
L 480.426818 207.820614 
L 482.709545 212.208198 
L 483.470455 212.54572 
L 484.231364 206.695565 
L 484.992273 206.358065 
L 485.753182 208.158093 
L 488.035909 214.570762 
L 488.796818 213.445733 
L 489.557727 215.920804 
L 490.318636 220.19588 
L 491.079545 219.633388 
L 493.362273 220.420895 
L 494.123182 215.35829 
L 494.884091 218.733353 
L 495.645 214.795754 
L 496.405909 215.35829 
L 498.688636 218.17086 
L 499.449545 213.89574 
L 500.210455 211.420691 
L 500.971364 202.757967 
L 501.732273 191.170186 
L 504.015 184.420039 
L 504.775909 180.032412 
L 506.297727 184.420039 
L 507.058636 181.944968 
L 509.341364 182.732475 
L 510.102273 187.795102 
L 510.863182 180.257426 
L 511.624091 179.469898 
L 512.385 186.895088 
L 514.667727 191.170186 
L 515.428636 180.707455 
L 516.950455 172.04473 
L 517.711364 173.394751 
L 519.994091 175.419793 
L 520.755 183.744996 
L 521.515909 184.982531 
L 522.276818 186.670074 
L 523.037727 193.420242 
L 525.320455 198.482868 
L 526.081364 198.145369 
L 526.842273 188.470123 
L 527.603182 195.445306 
L 528.364091 195.220291 
L 530.646818 189.707658 
L 531.407727 184.757539 
L 532.168636 178.907384 
L 532.929545 178.682391 
L 533.690455 176.657349 
L 535.973182 182.732475 
L 536.734091 174.069772 
L 537.495 173.732272 
L 538.255909 163.944519 
L 539.016818 161.919477 
L 541.299545 160.794449 
L 542.060455 163.269498 
L 542.821364 167.094611 
L 543.582273 166.982104 
L 544.343182 161.46947 
L 547.386818 174.969807 
L 548.147727 172.269744 
L 548.908636 171.144716 
L 549.669545 162.481991 
L 551.952273 158.206893 
L 552.713182 153.481788 
L 553.474091 150.781703 
L 554.235 144.706556 
L 554.995909 141.331493 
L 558.039545 148.41914 
L 558.800455 148.981654 
L 559.561364 153.481788 
L 560.322273 150.781703 
L 562.605 147.631633 
L 563.365909 147.74414 
L 564.126818 141.331493 
L 564.887727 145.719077 
L 565.648636 139.418937 
L 567.931364 145.26907 
L 568.692273 146.169084 
L 569.453182 144.481542 
L 570.214091 144.706556 
L 570.975 139.64393 
L 573.257727 125.9186 
L 574.018636 133.118775 
L 574.779545 132.668768 
L 575.540455 122.43103 
L 578.584091 127.043628 
L 579.345 124.681065 
L 580.866818 118.605917 
L 581.627727 105.330594 
L 583.910455 105.668116 
L 584.671364 108.480686 
L 585.432273 103.41806 
L 586.193182 100.042975 
L 586.954091 94.642828 
L 589.236818 101.61801 
L 589.997727 101.730517 
L 590.758636 101.730517 
L 591.519545 100.042975 
L 592.280455 91.605265 
L 594.563182 95.205363 
L 595.324091 92.167779 
L 596.085 80.017441 
L 596.845909 88.792694 
L 597.606818 78.667442 
L 599.889545 81.029984 
L 600.650455 91.042751 
L 601.411364 88.792694 
L 602.172273 84.067568 
L 602.933182 88.23018 
L 605.215909 84.292582 
L 607.498636 82.492554 
L 608.259545 84.742611 
L 610.542273 78.667442 
L 612.825 85.642581 
L 613.585909 85.642581 
L 615.868636 91.38025 
L 616.629545 83.167554 
L 617.390455 79.11747 
L 618.151364 70.117245 
L 618.912273 72.929816 
L 621.195 70.904774 
L 621.955909 66.742161 
L 622.716818 64.267091 
L 623.477727 63.817062 
L 624.238636 65.167105 
L 626.521364 64.042077 
L 627.282273 57.854465 
L 628.043182 62.917091 
L 629.565 61.454521 
L 631.847727 62.917091 
L 632.608636 35.353903 
L 633.369545 25.003636 
L 634.891364 48.966726 
L 637.174091 45.366628 
L 637.935 54.816881 
L 638.695909 51.666811 
L 639.456818 59.429479 
L 640.217727 63.70462 
L 642.500455 80.917498 
L 643.261364 66.629633 
L 644.022273 56.729394 
L 644.783182 45.029128 
L 645.544091 49.304226 
L 647.826818 49.358212 
L 648.587727 45.639868 
L 649.348636 51.61175 
L 650.109545 53.301871 
L 650.870455 60.062484 
L 655.435909 105.583762 
L 656.196818 96.794991 
L 658.479545 85.978061 
L 659.240455 79.10479 
L 660.001364 75.048431 
L 660.762273 101.640082 
L 661.523182 103.780941 
L 663.805909 164.175529 
L 664.566818 126.316232 
L 665.327727 137.921915 
L 666.088636 182.87982 
L 666.088636 182.87982 
" style="fill:none;stroke:#ff7f0e;stroke-linecap:square;stroke-width:1.5;"/>
   </g>
   <g id="line2d_20">
    <path clip-path="url(#pbc2ce31c95)" d="M 57.361364 304.179728 
L 58.122273 304.179728 
L 58.883182 303.745474 
L 59.644091 304.440299 
L 61.926818 304.092881 
L 62.687727 301.921591 
L 63.448636 307.393294 
L 64.209545 306.611611 
L 64.970455 308.869791 
L 67.253182 302.790099 
L 68.014091 302.790099 
L 68.775 303.919188 
L 69.535909 303.919188 
L 70.296818 307.21958 
L 72.579545 313.212415 
L 73.340455 311.562225 
L 74.101364 312.430743 
L 74.862273 312.430743 
L 75.623182 309.304045 
L 77.905909 310.433124 
L 78.666818 312.691304 
L 79.427727 310.693685 
L 80.188636 311.041093 
L 80.949545 314.949463 
L 83.232273 314.775748 
L 83.993182 320.160637 
L 84.754091 319.552647 
L 85.515 318.510425 
L 86.275909 318.163007 
L 90.841364 314.428352 
L 91.602273 312.25704 
L 93.885 310.606839 
L 94.645909 309.130341 
L 95.406818 307.132744 
L 96.167727 302.273866 
L 96.928636 301.127562 
L 99.211364 303.50836 
L 99.972273 300.510309 
L 100.733182 300.598488 
L 101.494091 304.037445 
L 102.255 304.831033 
L 104.537727 299.623609 
L 105.298636 299.623609 
L 106.059545 303.614818 
L 106.820455 300.067072 
L 107.581364 299.712304 
L 109.864091 291.907266 
L 110.625 296.253253 
L 111.385909 296.075864 
L 112.146818 296.9628 
L 112.907727 294.302001 
L 115.190455 294.302001 
L 115.951364 297.228884 
L 116.712273 302.727903 
L 117.473182 296.519337 
L 118.234091 301.840945 
L 120.516818 301.840945 
L 121.277727 305.566091 
L 122.038636 307.606026 
L 122.799545 302.284408 
L 125.843182 296.9628 
L 126.604091 304.058302 
L 127.365 303.260049 
L 128.125909 298.293199 
L 128.886818 301.397482 
L 132.691364 301.397482 
L 133.452273 302.284408 
L 134.213182 307.872121 
L 136.495909 307.606026 
L 137.256818 313.637191 
L 138.017727 309.37991 
L 138.778636 309.20252 
L 141.822273 309.20252 
L 142.583182 296.075864 
L 143.344091 301.397482 
L 147.148636 301.397482 
L 148.670455 312.572876 
L 149.431364 314.701517 
L 150.192273 313.105034 
L 152.475 313.105034 
L 153.235909 318.870126 
L 153.996818 321.974376 
L 155.518636 320.732683 
L 157.801364 320.732683 
L 158.562273 320.200525 
L 159.323182 323.482176 
L 160.084091 323.482176 
L 160.845 332.883697 
L 163.127727 336.089999 
L 163.888636 331.267947 
L 164.649545 331.267947 
L 165.410455 336.000703 
L 166.171364 335.375617 
L 168.454091 337.161568 
L 169.215 335.643517 
L 171.497727 335.643517 
L 173.780455 336.982975 
L 174.541364 343.680275 
L 175.302273 346.805683 
L 176.063182 353.949466 
L 179.106818 354.038762 
L 179.867727 354.842441 
L 180.628636 353.949466 
L 181.389545 353.949466 
L 182.150455 355.467527 
L 185.194091 354.038762 
L 186.715909 353.949466 
L 192.042273 353.949466 
L 192.803182 349.573896 
L 195.085909 349.484599 
L 196.607727 349.573896 
L 197.368636 345.019732 
L 198.129545 345.019732 
L 201.173182 340.644162 
L 202.695 340.554866 
L 203.455909 337.518754 
L 205.738636 332.250208 
L 206.499545 338.501026 
L 207.260455 331.803715 
L 208.782273 331.893033 
L 211.065 337.340161 
L 211.825909 336.982975 
L 213.347727 336.982975 
L 214.108636 335.197024 
L 216.391364 330.821454 
L 217.913182 330.821454 
L 218.674091 336.089999 
L 219.435 335.911396 
L 222.478636 335.911396 
L 223.239545 339.483298 
L 224.000455 335.554221 
L 224.761364 339.394001 
L 229.326818 339.394001 
L 230.087727 340.554866 
L 232.370455 339.683113 
L 233.131364 339.683113 
L 233.892273 344.092854 
L 234.653182 341.033026 
L 235.414091 340.583063 
L 237.696818 341.752986 
L 238.457727 341.752986 
L 239.218636 341.932976 
L 239.979545 345.172794 
L 240.740455 346.882698 
L 243.023182 346.882698 
L 243.784091 343.912865 
L 244.545 348.412601 
L 245.305909 349.13256 
L 248.349545 349.13256 
L 249.110455 346.972682 
L 249.871364 346.342728 
L 250.632273 348.772581 
L 251.393182 349.582535 
L 253.675909 346.972682 
L 255.197727 346.972682 
L 255.958636 344.272844 
L 256.719545 349.042565 
L 259.002273 343.912865 
L 259.763182 344.002859 
L 260.524091 343.372895 
L 261.285 340.673057 
L 262.045909 340.583063 
L 264.328636 340.583063 
L 265.089545 339.953098 
L 265.850455 325.463945 
L 266.611364 326.003915 
L 267.372273 326.003915 
L 269.655 327.533818 
L 271.176818 334.283427 
L 271.937727 327.083843 
L 274.981364 332.483529 
L 275.742273 332.483529 
L 276.503182 328.523762 
L 277.264091 328.523762 
L 278.025 318.534345 
L 280.307727 318.98432 
L 281.068636 318.534345 
L 281.829545 315.024543 
L 282.590455 315.024543 
L 283.351364 315.834508 
L 286.395 315.834508 
L 287.155909 319.52429 
L 287.916818 308.274944 
L 290.960455 314.034609 
L 291.721364 315.114548 
L 292.482273 313.944614 
L 293.243182 313.404644 
L 294.004091 311.784746 
L 296.286818 309.984837 
L 297.047727 309.984837 
L 297.808636 312.684696 
L 299.330455 311.244777 
L 301.613182 310.974781 
L 303.135 308.274944 
L 303.895909 312.4147 
L 304.656818 312.684696 
L 306.939545 308.364939 
L 307.700455 309.534862 
L 308.461364 306.38505 
L 309.222273 309.084898 
L 309.983182 304.585162 
L 312.265909 304.225171 
L 313.026818 309.084898 
L 313.787727 309.084898 
L 314.548636 311.244777 
L 315.309545 309.984837 
L 317.592273 308.274944 
L 318.353182 308.004959 
L 319.114091 303.685212 
L 319.875 308.634923 
L 320.635909 309.804858 
L 322.918636 309.894853 
L 323.679545 308.634923 
L 324.440455 305.935075 
L 325.201364 305.935075 
L 325.962273 301.165365 
L 329.766818 301.165365 
L 330.527727 308.634923 
L 331.288636 304.945131 
L 335.093182 300.985375 
L 335.854091 299.275471 
L 336.615 296.485628 
L 338.897727 307.914964 
L 339.658636 307.015014 
L 340.419545 299.185465 
L 341.180455 295.135704 
L 341.941364 296.485628 
L 344.224091 293.695796 
L 344.985 293.245821 
L 345.745909 293.785791 
L 346.506818 292.075887 
L 347.267727 294.68574 
L 349.550455 294.68574 
L 350.311364 291.085953 
L 351.072273 288.386094 
L 351.833182 282.986419 
L 354.876818 283.346388 
L 355.637727 281.276515 
L 356.398636 277.496739 
L 357.159545 277.406744 
L 357.920455 277.586723 
L 360.203182 279.836607 
L 360.964091 272.727018 
L 361.725 274.976891 
L 362.485909 274.976891 
L 363.246818 276.686784 
L 365.529545 277.586723 
L 366.290455 275.15687 
L 367.051364 264.897458 
L 367.812273 258.057864 
L 368.573182 263.007575 
L 370.855909 262.467605 
L 371.616818 258.867829 
L 372.377727 254.548072 
L 373.138636 259.947768 
L 373.899545 259.497783 
L 376.182273 261.387687 
L 376.943182 267.687312 
L 378.465 276.236809 
L 379.225909 275.33686 
L 383.791364 275.786835 
L 384.552273 280.916536 
L 386.835 272.187048 
L 387.595909 270.74714 
L 388.356818 268.677245 
L 389.117727 268.677245 
L 389.878636 272.187048 
L 392.161364 272.187048 
L 392.922273 278.216698 
L 393.683182 274.706895 
L 394.444091 265.99992 
L 395.205 271.512102 
L 397.487727 263.187586 
L 398.248636 265.887413 
L 399.009545 264.312507 
L 399.770455 265.099971 
L 400.531364 276.911777 
L 402.814091 274.999382 
L 403.575 268.924718 
L 404.335909 266.337377 
L 405.857727 266.337377 
L 408.140455 264.312507 
L 408.901364 281.074024 
L 409.662273 286.811199 
L 410.423182 285.123786 
L 411.184091 288.948565 
L 413.466818 287.93613 
L 414.227727 286.923695 
L 415.749545 281.18652 
L 420.315 281.411502 
L 421.075909 279.386632 
L 421.836818 279.16164 
L 424.119545 281.074024 
L 424.880455 283.436394 
L 426.402273 280.62406 
L 427.163182 280.061589 
L 429.445909 281.18652 
L 430.206818 277.249255 
L 430.967727 275.561853 
L 431.728636 277.586723 
L 432.489545 274.549407 
L 434.772273 274.549407 
L 435.533182 274.099432 
L 436.294091 274.099432 
L 437.055 274.661903 
L 437.815909 273.199494 
L 440.098636 273.31199 
L 440.859545 266.56237 
L 441.620455 269.937174 
L 442.381364 268.249783 
L 443.142273 268.812254 
L 446.185909 268.812254 
L 446.946818 266.56237 
L 447.707727 266.56237 
L 448.468636 266.449884 
L 450.751364 266.56237 
L 451.512273 269.937174 
L 452.273182 267.124841 
L 453.034091 267.012355 
L 453.795 266.449884 
L 456.077727 275.561853 
L 456.838636 267.687312 
L 457.599545 268.812254 
L 458.360455 270.38716 
L 459.121364 270.38716 
L 461.404091 258.687818 
L 462.165 244.063678 
L 462.925909 244.063678 
L 464.447727 242.938757 
L 466.730455 242.938757 
L 467.491364 239.563952 
L 468.252273 240.126423 
L 469.013182 240.463901 
L 469.774091 241.813815 
L 472.056818 238.43901 
L 472.817727 241.251344 
L 473.578636 238.43901 
L 474.339545 238.43901 
L 475.100455 234.726727 
L 477.383182 230.901958 
L 478.905 223.927355 
L 479.665909 227.189675 
L 480.426818 225.83974 
L 482.709545 223.139892 
L 483.470455 221.565007 
L 484.231364 223.81487 
L 484.992273 224.827326 
L 485.753182 223.702384 
L 488.035909 223.589877 
L 488.796818 228.314617 
L 489.557727 229.777016 
L 491.079545 224.827326 
L 493.362273 230.451994 
L 494.123182 227.30216 
L 494.884091 230.451994 
L 495.645 231.014444 
L 496.405909 234.164277 
L 498.688636 233.939284 
L 499.449545 233.376792 
L 500.210455 230.564458 
L 500.971364 227.189675 
L 501.732273 213.690455 
L 504.015 205.028483 
L 504.775909 204.690983 
L 505.536818 204.690983 
L 506.297727 207.503317 
L 507.058636 207.840816 
L 509.341364 205.253432 
L 510.102273 208.178273 
L 510.863182 210.203165 
L 511.624091 205.253432 
L 512.385 204.80349 
L 514.667727 210.31565 
L 516.189545 199.178801 
L 516.950455 196.253981 
L 517.711364 199.291308 
L 519.994091 198.841322 
L 520.755 205.253432 
L 521.515909 209.978172 
L 522.276818 210.428157 
L 523.037727 211.5531 
L 525.320455 215.265383 
L 526.081364 216.952774 
L 526.842273 217.627731 
L 527.603182 217.627731 
L 528.364091 216.390303 
L 530.646818 214.815397 
L 531.407727 207.165838 
L 532.168636 207.278324 
L 532.929545 203.228584 
L 533.690455 203.116077 
L 535.973182 203.90354 
L 536.734091 203.341048 
L 537.495 200.978699 
L 538.255909 196.253981 
L 539.016818 192.766691 
L 541.299545 190.066843 
L 542.060455 193.66664 
L 542.821364 195.466517 
L 543.582273 195.916481 
L 544.343182 193.441647 
L 546.625909 194.566568 
L 547.386818 196.703967 
L 548.147727 196.703967 
L 548.908636 199.066315 
L 549.669545 193.441647 
L 551.952273 194.566568 
L 552.713182 190.966792 
L 553.474091 188.9419 
L 554.235 189.391864 
L 554.995909 182.529791 
L 557.278636 182.642276 
L 558.800455 187.47948 
L 559.561364 187.816958 
L 560.322273 192.316705 
L 562.605 184.554639 
L 563.365909 191.416756 
L 564.126818 182.304798 
L 564.887727 187.254509 
L 565.648636 185.45461 
L 567.931364 185.45461 
L 568.692273 190.854306 
L 569.453182 189.504372 
L 570.214091 190.741799 
L 570.975 187.816958 
L 573.257727 176.68013 
L 574.018636 182.642276 
L 574.779545 181.629841 
L 575.540455 169.818013 
L 578.584091 170.942955 
L 579.345 177.130073 
L 580.866818 170.942955 
L 581.627727 164.305831 
L 583.910455 155.643837 
L 584.671364 156.768779 
L 585.432273 147.319321 
L 586.193182 154.293924 
L 586.954091 142.819596 
L 589.236818 151.706583 
L 589.997727 151.144112 
L 591.519545 152.156547 
L 592.280455 149.569206 
L 594.563182 149.344213 
L 595.324091 147.319321 
L 596.085 138.994806 
L 596.845909 141.019697 
L 597.606818 140.457247 
L 599.889545 125.608093 
L 600.650455 137.194928 
L 601.411364 144.506988 
L 602.172273 145.63193 
L 602.933182 145.63193 
L 605.215909 149.569206 
L 607.498636 150.581641 
L 610.542273 141.919646 
L 612.825 150.694148 
L 613.585909 146.306886 
L 615.868636 152.269032 
L 616.629545 152.381539 
L 617.390455 151.031605 
L 618.151364 146.981865 
L 618.912273 148.444263 
L 621.195 144.281995 
L 621.955909 143.832031 
L 623.477727 137.194928 
L 624.238636 137.194928 
L 626.521364 138.88232 
L 627.282273 114.583729 
L 628.043182 105.359285 
L 629.565 102.209452 
L 631.847727 109.184054 
L 632.608636 86.572855 
L 633.369545 70.261323 
L 634.130455 86.572855 
L 634.891364 114.696236 
L 637.174091 103.446879 
L 637.935 95.459864 
L 638.695909 102.096966 
L 639.456818 101.759488 
L 640.217727 107.046677 
L 642.500455 122.008296 
L 643.261364 124.820629 
L 644.022273 120.320904 
L 644.783182 103.446879 
L 645.544091 104.571822 
L 647.826818 116.513371 
L 648.587727 110.879548 
L 649.348636 125.414822 
L 650.109545 125.414822 
L 650.870455 129.921876 
L 655.435909 145.245881 
L 656.196818 136.682467 
L 658.479545 140.851506 
L 659.240455 141.076842 
L 660.001364 140.062753 
L 660.762273 140.513469 
L 661.523182 151.555757 
L 663.805909 191.330554 
L 664.566818 173.86569 
L 665.327727 193.471413 
L 666.088636 226.936313 
L 666.088636 226.936313 
" style="fill:none;stroke:#2ca02c;stroke-linecap:square;stroke-width:1.5;"/>
   </g>
   <g id="line2d_21">
    <path clip-path="url(#pbc2ce31c95)" d="M 57.361364 181.035112 
L 58.122273 184.928094 
L 58.883182 187.558504 
L 59.644091 187.137617 
L 61.926818 185.454159 
L 62.687727 189.136741 
L 63.448636 191.135843 
L 64.209545 199.02705 
L 64.970455 195.344468 
L 67.253182 195.344468 
L 68.014091 195.134025 
L 68.775 189.241984 
L 69.535909 196.501884 
L 70.296818 199.658337 
L 72.579545 202.814811 
L 73.340455 219.544156 
L 74.101364 222.70063 
L 74.862273 222.70063 
L 75.623182 215.440752 
L 78.666818 221.227593 
L 79.427727 217.018968 
L 80.188636 207.654766 
L 80.949545 216.492903 
L 83.232273 223.331938 
L 83.993182 225.225819 
L 84.754091 229.329265 
L 85.515 223.858003 
L 86.275909 230.697017 
L 90.841364 214.809444 
L 91.602273 208.496474 
L 93.885 205.655621 
L 94.645909 205.655621 
L 95.406818 202.288746 
L 96.928636 206.39215 
L 99.211364 204.919135 
L 99.972273 208.812117 
L 100.733182 210.179933 
L 101.494091 207.549501 
L 102.255 214.388558 
L 104.537727 217.018968 
L 105.298636 216.703325 
L 106.059545 218.597162 
L 106.820455 219.123291 
L 107.581364 211.863391 
L 109.864091 209.864289 
L 110.625 211.126884 
L 111.385909 214.178158 
L 112.907727 219.333756 
L 115.190455 223.858003 
L 115.951364 228.382314 
L 116.712273 230.170909 
L 117.473182 226.067505 
L 118.234091 229.224001 
L 120.516818 231.433567 
L 121.277727 236.378679 
L 122.038636 237.325652 
L 122.799545 235.010907 
L 125.843182 241.639477 
L 126.604091 241.218634 
L 127.365 241.744677 
L 128.125909 243.322957 
L 128.886818 243.428157 
L 131.169545 249.004599 
L 131.930455 245.548771 
L 132.691364 244.805107 
L 133.452273 239.599585 
L 134.213182 242.361715 
L 136.495909 245.336308 
L 137.256818 246.079994 
L 138.017727 239.280868 
L 138.778636 240.130764 
L 139.539545 233.331682 
L 141.822273 232.800545 
L 143.344091 235.987559 
L 144.105 231.738186 
L 144.865909 243.424096 
L 147.148636 249.267008 
L 148.670455 249.373239 
L 149.431364 248.842081 
L 150.192273 250.43562 
L 152.475 257.23466 
L 153.235909 258.828178 
L 154.757727 260.952875 
L 155.518636 265.414776 
L 157.801364 266.79583 
L 158.562273 272.638785 
L 159.323182 270.514066 
L 160.084091 274.763439 
L 160.845 277.844307 
L 163.127727 276.463253 
L 163.888636 255.109941 
L 164.649545 264.033743 
L 165.410455 259.359357 
L 166.171364 266.264672 
L 168.454091 273.701144 
L 169.215 275.507168 
L 169.975909 271.78891 
L 171.497727 267.008293 
L 173.780455 252.029073 
L 175.302273 272.745017 
L 176.063182 280.500216 
L 176.824091 277.402822 
L 179.867727 284.846881 
L 180.628636 289.593842 
L 181.389545 288.083421 
L 182.150455 292.938258 
L 184.433182 289.593842 
L 185.194091 290.888458 
L 185.955 288.622864 
L 186.715909 291.535756 
L 187.476818 289.701718 
L 189.759545 291.535756 
L 190.520455 290.24114 
L 191.281364 291.967291 
L 192.042273 297.361539 
L 192.803182 298.440404 
L 195.846818 298.440404 
L 196.607727 296.17481 
L 198.129545 296.606345 
L 201.173182 296.282696 
L 201.934091 297.793085 
L 202.695 297.685209 
L 203.455909 298.116745 
L 205.738636 298.548301 
L 206.499545 296.17481 
L 207.260455 291.42788 
L 208.021364 283.9838 
L 208.782273 283.552264 
L 211.065 288.838637 
L 211.825909 281.933978 
L 213.347727 289.270172 
L 214.108636 295.635388 
L 216.391364 292.506723 
L 217.152273 293.046156 
L 217.913182 290.888458 
L 219.435 289.162275 
L 221.717727 291.320004 
L 223.239545 282.257659 
L 224.000455 282.149773 
L 224.761364 289.054399 
L 227.044091 287.004578 
L 227.805 279.884178 
L 228.565909 279.344746 
L 229.326818 279.344746 
L 230.087727 278.265903 
L 232.370455 280.639383 
L 233.892273 276.755524 
L 234.653182 281.718216 
L 235.414091 276.863378 
L 237.696818 273.518973 
L 238.457727 273.842622 
L 239.218636 271.577027 
L 239.979545 277.834378 
L 240.740455 275.137227 
L 243.023182 277.079184 
L 243.784091 283.336513 
L 244.545 283.120719 
L 245.305909 284.954778 
L 248.349545 287.112464 
L 249.110455 290.888458 
L 249.871364 292.506723 
L 250.632273 296.17481 
L 251.393182 293.909226 
L 253.675909 291.535756 
L 255.197727 279.992065 
L 255.958636 281.718216 
L 256.719545 271.7928 
L 259.002273 273.62687 
L 259.763182 273.411108 
L 260.524091 271.7928 
L 261.285 262.29892 
L 262.045909 260.464871 
L 264.328636 263.593557 
L 265.089545 258.954461 
L 265.850455 251.834082 
L 267.372273 256.365228 
L 269.655 247.518645 
L 270.415909 245.900412 
L 271.176818 249.352737 
L 271.937727 251.726196 
L 274.981364 252.589288 
L 275.742273 238.77997 
L 276.503182 232.091138 
L 277.264091 223.891873 
L 278.025 224.647057 
L 280.307727 224.539128 
L 281.068636 225.294354 
L 281.829545 231.012273 
L 282.590455 226.373176 
L 283.351364 213.750652 
L 285.634091 220.223776 
L 286.395 209.543187 
L 287.155909 207.816961 
L 287.916818 188.181924 
L 290.960455 183.542849 
L 291.721364 186.132103 
L 292.482273 185.053238 
L 293.243182 190.015973 
L 294.004091 187.315028 
L 296.286818 193.309863 
L 297.047727 194.617803 
L 297.808636 176.742348 
L 299.330455 174.126445 
L 301.613182 178.486283 
L 303.135 180.884242 
L 303.895909 176.306396 
L 304.656818 176.960334 
L 306.939545 179.576259 
L 307.700455 178.159314 
L 308.461364 174.017419 
L 309.222273 171.183551 
L 309.983182 171.074547 
L 312.265909 168.131653 
L 313.026818 173.690493 
L 313.787727 173.145473 
L 314.548636 165.51575 
L 315.309545 163.335799 
L 317.592273 166.496722 
L 318.353182 162.463831 
L 319.114091 153.635107 
L 319.875 156.25101 
L 320.635909 162.245823 
L 322.918636 169.548577 
L 323.679545 162.7908 
L 324.440455 168.785634 
L 325.201364 163.662789 
L 325.962273 152.981126 
L 329.766818 151.128187 
L 330.527727 138.266572 
L 331.288636 133.470739 
L 335.093182 122.89808 
L 335.854091 118.429216 
L 336.615 128.782663 
L 338.897727 139.551452 
L 339.658636 140.210806 
L 340.419545 129.112319 
L 341.941364 134.496735 
L 344.224091 135.705472 
L 344.985 145.045754 
L 345.745909 144.496349 
L 346.506818 143.28757 
L 347.267727 140.32067 
L 349.550455 140.54044 
L 350.311364 143.397476 
L 351.072273 141.199773 
L 351.833182 128.562893 
L 354.876818 122.519187 
L 355.637727 115.706243 
L 356.398636 113.618425 
L 357.159545 109.33286 
L 357.920455 98.783863 
L 360.203182 100.87166 
L 360.964091 89.663308 
L 362.485909 108.783434 
L 363.246818 104.607798 
L 365.529545 111.530628 
L 366.290455 109.003226 
L 367.051364 122.848843 
L 367.812273 112.629458 
L 368.573182 114.937047 
L 370.855909 113.838195 
L 371.616818 115.046953 
L 372.377727 121.969762 
L 373.138636 120.980774 
L 373.899545 110.431733 
L 376.182273 120.211599 
L 376.943182 119.552266 
L 377.704091 118.123759 
L 378.465 120.431348 
L 379.225909 115.486494 
L 383.791364 115.266724 
L 384.552273 108.783434 
L 386.835 96.146576 
L 387.595909 94.827932 
L 388.356818 100.542026 
L 389.117727 103.289176 
L 389.878636 109.992193 
L 392.161364 114.717319 
L 392.922273 118.123759 
L 393.683182 125.376223 
L 394.444091 126.584939 
L 395.205 133.178113 
L 397.487727 128.672778 
L 398.248636 129.112319 
L 399.009545 141.089888 
L 399.770455 129.332111 
L 400.531364 123.727924 
L 402.814091 118.673185 
L 403.575 120.101692 
L 404.335909 124.387214 
L 405.096818 126.584939 
L 405.857727 127.111648 
L 408.140455 129.430369 
L 408.901364 135.172014 
L 409.662273 134.951169 
L 410.423182 137.490735 
L 411.184091 138.042804 
L 413.466818 133.29494 
L 414.227727 136.055351 
L 414.988636 144.005272 
L 415.749545 134.288656 
L 418.793182 137.490735 
L 419.554091 130.203283 
L 420.315 132.521983 
L 421.075909 120.376244 
L 421.836818 103.813844 
L 424.119545 102.930507 
L 424.880455 99.618027 
L 426.402273 103.813844 
L 427.163182 101.605524 
L 429.445909 99.949295 
L 430.206818 104.034667 
L 430.967727 94.42843 
L 431.728636 96.084702 
L 432.489545 94.42843 
L 434.772273 102.267994 
L 435.533182 110.990895 
L 436.294091 121.922072 
L 437.055 127.553295 
L 437.815909 143.557544 
L 440.098636 140.008938 
L 440.859545 125.481789 
L 441.620455 127.366965 
L 442.381364 131.802775 
L 443.142273 138.900007 
L 445.425 139.454441 
L 446.185909 119.049907 
L 446.946818 122.154974 
L 447.707727 127.810568 
L 448.468636 126.258055 
L 450.751364 123.596591 
L 451.512273 123.929255 
L 452.273182 125.038208 
L 453.795 145.331889 
L 456.077727 143.779377 
L 456.838636 140.341624 
L 457.599545 147.660668 
L 458.360455 133.909721 
L 459.121364 141.228786 
L 461.404091 149.434992 
L 462.165 147.217066 
L 462.925909 144.33381 
L 464.447727 137.014788 
L 466.730455 129.252206 
L 467.491364 134.575114 
L 468.252273 130.139346 
L 469.013182 123.81836 
L 469.774091 122.376743 
L 472.056818 127.921463 
L 472.817727 130.361115 
L 473.578636 125.26002 
L 474.339545 124.04015 
L 475.100455 122.044036 
L 477.383182 123.374779 
L 478.905 104.190071 
L 479.665909 106.407955 
L 480.426818 106.629745 
L 482.709545 111.065534 
L 483.470455 110.732805 
L 484.231364 98.86712 
L 484.992273 98.86712 
L 485.753182 104.41184 
L 488.035909 108.958524 
L 488.796818 114.725013 
L 489.557727 122.376743 
L 490.318636 122.044036 
L 491.079545 116.166673 
L 493.362273 103.635573 
L 494.123182 88.886655 
L 494.884091 97.314608 
L 495.645 81.789358 
L 496.405909 60.941265 
L 498.688636 62.050217 
L 499.449545 62.937379 
L 500.210455 70.145485 
L 500.971364 62.661774 
L 501.732273 61.54285 
L 504.015 62.997555 
L 504.775909 62.326123 
L 505.536818 69.599476 
L 506.297727 83.139057 
L 507.058636 82.915246 
L 509.341364 82.915246 
L 510.102273 89.293356 
L 510.863182 84.034213 
L 511.624091 94.328775 
L 512.385 95.895321 
L 514.667727 105.854188 
L 516.189545 94.104964 
L 516.950455 91.307524 
L 517.711364 81.23673 
L 519.994091 84.146097 
L 520.755 88.510084 
L 521.515909 89.293356 
L 522.276818 92.53844 
L 523.037727 94.104964 
L 525.320455 105.966093 
L 526.081364 110.55389 
L 527.603182 89.069546 
L 528.364091 89.405326 
L 530.646818 96.119132 
L 531.407727 82.915246 
L 532.168636 82.915246 
L 532.929545 75.306198 
L 533.690455 75.86566 
L 535.973182 74.187273 
L 536.734091 82.691435 
L 537.495 87.950664 
L 538.255909 83.474708 
L 539.016818 70.671765 
L 541.299545 62.248797 
L 542.060455 71.345647 
L 542.821364 78.645564 
L 543.582273 77.073215 
L 544.343182 62.473424 
L 546.625909 64.719526 
L 547.386818 70.334867 
L 548.147727 72.468655 
L 548.908636 74.153274 
L 549.669545 68.650247 
L 551.952273 69.211816 
L 552.713182 74.827156 
L 553.474091 77.859368 
L 554.235 74.827156 
L 557.278636 77.073215 
L 558.039545 80.442454 
L 558.800455 94.48074 
L 559.561364 100.432979 
L 560.322273 102.454496 
L 562.605 104.02678 
L 563.365909 102.454496 
L 564.126818 102.117576 
L 564.887727 98.748381 
L 565.648636 77.52247 
L 567.931364 72.581011 
L 568.692273 77.634783 
L 569.453182 68.537977 
L 570.214091 68.537977 
L 570.975 83.250124 
L 573.257727 85.608539 
L 574.018636 101.21911 
L 574.779545 95.042287 
L 575.540455 89.876201 
L 578.584091 99.983745 
L 579.345 100.657606 
L 580.866818 96.839177 
L 581.627727 92.459244 
L 583.910455 97.62533 
L 584.671364 106.160611 
L 586.193182 92.908456 
L 586.954091 92.122282 
L 589.236818 98.074542 
L 589.997727 92.796142 
L 590.758636 78.870148 
L 591.519545 83.362394 
L 592.280455 75.837893 
L 594.563182 75.72558 
L 595.324091 75.276325 
L 596.085 63.484162 
L 596.845909 70.447137 
L 597.606818 75.164054 
L 599.889545 69.211816 
L 600.650455 78.428759 
L 601.411364 78.654074 
L 602.172273 69.076592 
L 602.933182 65.808965 
L 605.215909 53.865288 
L 607.498636 58.935694 
L 608.259545 69.076592 
L 610.542273 68.625876 
L 612.825 62.766695 
L 613.585909 58.034305 
L 615.868636 69.076592 
L 616.629545 84.400598 
L 617.390455 92.964011 
L 618.151364 92.400616 
L 618.912273 90.710452 
L 621.195 81.809044 
L 621.955909 76.963953 
L 622.716818 89.245689 
L 623.477727 88.231599 
L 624.238636 93.865422 
L 626.521364 98.710491 
L 627.282273 143.217701 
L 628.043182 143.443059 
L 628.804091 150.203651 
L 629.565 144.795165 
L 631.847727 155.837474 
L 632.608636 154.14731 
L 633.369545 154.936063 
L 634.130455 161.583955 
L 634.891364 172.513585 
L 637.174091 170.485405 
L 637.935 160.795223 
L 638.695909 164.626224 
L 639.456818 167.10512 
L 640.217727 174.091048 
L 642.500455 176.119228 
L 643.261364 176.119228 
L 644.022273 171.386816 
L 644.783182 164.851582 
L 645.544091 171.048779 
L 647.826818 169.809352 
L 648.587727 163.048761 
L 650.109545 180.513603 
L 650.870455 183.668552 
L 655.435909 205.415112 
L 656.196818 198.203804 
L 658.479545 193.133376 
L 659.240455 195.950287 
L 660.001364 191.893928 
L 660.762273 207.105254 
L 661.523182 216.119362 
L 663.805909 239.218049 
L 664.566818 221.753185 
L 665.327727 239.894102 
L 666.088636 283.049185 
L 666.088636 283.049185 
" style="fill:none;stroke:#d62728;stroke-linecap:square;stroke-width:1.5;"/>
   </g>
   <g id="patch_3">
    <path d="M 26.925 398.88 
L 26.925 7.2 
" style="fill:none;stroke:#000000;stroke-linecap:square;stroke-linejoin:miter;stroke-width:0.8;"/>
   </g>
   <g id="patch_4">
    <path d="M 696.525 398.88 
L 696.525 7.2 
" style="fill:none;stroke:#000000;stroke-linecap:square;stroke-linejoin:miter;stroke-width:0.8;"/>
   </g>
   <g id="patch_5">
    <path d="M 26.925 398.88 
L 696.525 398.88 
" style="fill:none;stroke:#000000;stroke-linecap:square;stroke-linejoin:miter;stroke-width:0.8;"/>
   </g>
   <g id="patch_6">
    <path d="M 26.925 7.2 
L 696.525 7.2 
" style="fill:none;stroke:#000000;stroke-linecap:square;stroke-linejoin:miter;stroke-width:0.8;"/>
   </g>
   <g id="legend_1">
    <g id="patch_7">
     <path d="M 33.925 73.9125 
L 118.534375 73.9125 
Q 120.534375 73.9125 120.534375 71.9125 
L 120.534375 14.2 
Q 120.534375 12.2 118.534375 12.2 
L 33.925 12.2 
Q 31.925 12.2 31.925 14.2 
L 31.925 71.9125 
Q 31.925 73.9125 33.925 73.9125 
z
" style="fill:#ffffff;opacity:0.8;stroke:#cccccc;stroke-linejoin:miter;"/>
    </g>
    <g id="line2d_22">
     <path d="M 35.925 20.298437 
L 55.925 20.298437 
" style="fill:none;stroke:#1f77b4;stroke-linecap:square;stroke-width:1.5;"/>
    </g>
    <g id="line2d_23"/>
    <g id="text_19">
     <!-- GRND3.SA -->
     <defs>
      <path d="M 59.515625 10.40625 
L 59.515625 29.984375 
L 43.40625 29.984375 
L 43.40625 38.09375 
L 69.28125 38.09375 
L 69.28125 6.78125 
Q 63.578125 2.734375 56.6875 0.65625 
Q 49.8125 -1.421875 42 -1.421875 
Q 24.90625 -1.421875 15.25 8.5625 
Q 5.609375 18.5625 5.609375 36.375 
Q 5.609375 54.25 15.25 64.234375 
Q 24.90625 74.21875 42 74.21875 
Q 49.125 74.21875 55.546875 72.453125 
Q 61.96875 70.703125 67.390625 67.28125 
L 67.390625 56.78125 
Q 61.921875 61.421875 55.765625 63.765625 
Q 49.609375 66.109375 42.828125 66.109375 
Q 29.4375 66.109375 22.71875 58.640625 
Q 16.015625 51.171875 16.015625 36.375 
Q 16.015625 21.625 22.71875 14.15625 
Q 29.4375 6.6875 42.828125 6.6875 
Q 48.046875 6.6875 52.140625 7.59375 
Q 56.25 8.5 59.515625 10.40625 
z
" id="DejaVuSans-71"/>
      <path d="M 44.390625 34.1875 
Q 47.5625 33.109375 50.5625 29.59375 
Q 53.5625 26.078125 56.59375 19.921875 
L 66.609375 0 
L 56 0 
L 46.6875 18.703125 
Q 43.0625 26.03125 39.671875 28.421875 
Q 36.28125 30.8125 30.421875 30.8125 
L 19.671875 30.8125 
L 19.671875 0 
L 9.8125 0 
L 9.8125 72.90625 
L 32.078125 72.90625 
Q 44.578125 72.90625 50.734375 67.671875 
Q 56.890625 62.453125 56.890625 51.90625 
Q 56.890625 45.015625 53.6875 40.46875 
Q 50.484375 35.9375 44.390625 34.1875 
z
M 19.671875 64.796875 
L 19.671875 38.921875 
L 32.078125 38.921875 
Q 39.203125 38.921875 42.84375 42.21875 
Q 46.484375 45.515625 46.484375 51.90625 
Q 46.484375 58.296875 42.84375 61.546875 
Q 39.203125 64.796875 32.078125 64.796875 
z
" id="DejaVuSans-82"/>
      <path d="M 9.8125 72.90625 
L 23.09375 72.90625 
L 55.421875 11.921875 
L 55.421875 72.90625 
L 64.984375 72.90625 
L 64.984375 0 
L 51.703125 0 
L 19.390625 60.984375 
L 19.390625 0 
L 9.8125 0 
z
" id="DejaVuSans-78"/>
      <path d="M 10.6875 12.40625 
L 21 12.40625 
L 21 0 
L 10.6875 0 
z
" id="DejaVuSans-46"/>
      <path d="M 53.515625 70.515625 
L 53.515625 60.890625 
Q 47.90625 63.578125 42.921875 64.890625 
Q 37.9375 66.21875 33.296875 66.21875 
Q 25.25 66.21875 20.875 63.09375 
Q 16.5 59.96875 16.5 54.203125 
Q 16.5 49.359375 19.40625 46.890625 
Q 22.3125 44.4375 30.421875 42.921875 
L 36.375 41.703125 
Q 47.40625 39.59375 52.65625 34.296875 
Q 57.90625 29 57.90625 20.125 
Q 57.90625 9.515625 50.796875 4.046875 
Q 43.703125 -1.421875 29.984375 -1.421875 
Q 24.8125 -1.421875 18.96875 -0.25 
Q 13.140625 0.921875 6.890625 3.21875 
L 6.890625 13.375 
Q 12.890625 10.015625 18.65625 8.296875 
Q 24.421875 6.59375 29.984375 6.59375 
Q 38.421875 6.59375 43.015625 9.90625 
Q 47.609375 13.234375 47.609375 19.390625 
Q 47.609375 24.75 44.3125 27.78125 
Q 41.015625 30.8125 33.5 32.328125 
L 27.484375 33.5 
Q 16.453125 35.6875 11.515625 40.375 
Q 6.59375 45.0625 6.59375 53.421875 
Q 6.59375 63.09375 13.40625 68.65625 
Q 20.21875 74.21875 32.171875 74.21875 
Q 37.3125 74.21875 42.625 73.28125 
Q 47.953125 72.359375 53.515625 70.515625 
z
" id="DejaVuSans-83"/>
      <path d="M 34.1875 63.1875 
L 20.796875 26.90625 
L 47.609375 26.90625 
z
M 28.609375 72.90625 
L 39.796875 72.90625 
L 67.578125 0 
L 57.328125 0 
L 50.6875 18.703125 
L 17.828125 18.703125 
L 11.1875 0 
L 0.78125 0 
z
" id="DejaVuSans-65"/>
     </defs>
     <g transform="translate(63.925 23.798437)scale(0.1 -0.1)">
      <use xlink:href="#DejaVuSans-71"/>
      <use x="77.490234" xlink:href="#DejaVuSans-82"/>
      <use x="146.972656" xlink:href="#DejaVuSans-78"/>
      <use x="221.777344" xlink:href="#DejaVuSans-68"/>
      <use x="298.779297" xlink:href="#DejaVuSans-51"/>
      <use x="362.402344" xlink:href="#DejaVuSans-46"/>
      <use x="394.189453" xlink:href="#DejaVuSans-83"/>
      <use x="457.681641" xlink:href="#DejaVuSans-65"/>
     </g>
    </g>
    <g id="line2d_24">
     <path d="M 35.925 34.976562 
L 55.925 34.976562 
" style="fill:none;stroke:#ff7f0e;stroke-linecap:square;stroke-width:1.5;"/>
    </g>
    <g id="line2d_25"/>
    <g id="text_20">
     <!-- ALPA4.SA -->
     <defs>
      <path d="M 9.8125 72.90625 
L 19.671875 72.90625 
L 19.671875 8.296875 
L 55.171875 8.296875 
L 55.171875 0 
L 9.8125 0 
z
" id="DejaVuSans-76"/>
      <path d="M 19.671875 64.796875 
L 19.671875 37.40625 
L 32.078125 37.40625 
Q 38.96875 37.40625 42.71875 40.96875 
Q 46.484375 44.53125 46.484375 51.125 
Q 46.484375 57.671875 42.71875 61.234375 
Q 38.96875 64.796875 32.078125 64.796875 
z
M 9.8125 72.90625 
L 32.078125 72.90625 
Q 44.34375 72.90625 50.609375 67.359375 
Q 56.890625 61.8125 56.890625 51.125 
Q 56.890625 40.328125 50.609375 34.8125 
Q 44.34375 29.296875 32.078125 29.296875 
L 19.671875 29.296875 
L 19.671875 0 
L 9.8125 0 
z
" id="DejaVuSans-80"/>
     </defs>
     <g transform="translate(63.925 38.476562)scale(0.1 -0.1)">
      <use xlink:href="#DejaVuSans-65"/>
      <use x="68.408203" xlink:href="#DejaVuSans-76"/>
      <use x="124.121094" xlink:href="#DejaVuSans-80"/>
      <use x="184.330078" xlink:href="#DejaVuSans-65"/>
      <use x="252.738281" xlink:href="#DejaVuSans-52"/>
      <use x="316.361328" xlink:href="#DejaVuSans-46"/>
      <use x="348.148438" xlink:href="#DejaVuSans-83"/>
      <use x="411.640625" xlink:href="#DejaVuSans-65"/>
     </g>
    </g>
    <g id="line2d_26">
     <path d="M 35.925 49.654687 
L 55.925 49.654687 
" style="fill:none;stroke:#2ca02c;stroke-linecap:square;stroke-width:1.5;"/>
    </g>
    <g id="line2d_27"/>
    <g id="text_21">
     <!-- ALPA3.SA -->
     <g transform="translate(63.925 53.154687)scale(0.1 -0.1)">
      <use xlink:href="#DejaVuSans-65"/>
      <use x="68.408203" xlink:href="#DejaVuSans-76"/>
      <use x="124.121094" xlink:href="#DejaVuSans-80"/>
      <use x="184.330078" xlink:href="#DejaVuSans-65"/>
      <use x="252.738281" xlink:href="#DejaVuSans-51"/>
      <use x="316.361328" xlink:href="#DejaVuSans-46"/>
      <use x="348.148438" xlink:href="#DejaVuSans-83"/>
      <use x="411.640625" xlink:href="#DejaVuSans-65"/>
     </g>
    </g>
    <g id="line2d_28">
     <path d="M 35.925 64.332812 
L 55.925 64.332812 
" style="fill:none;stroke:#d62728;stroke-linecap:square;stroke-width:1.5;"/>
    </g>
    <g id="line2d_29"/>
    <g id="text_22">
     <!-- HGTX3.SA -->
     <defs>
      <path d="M 9.8125 72.90625 
L 19.671875 72.90625 
L 19.671875 43.015625 
L 55.515625 43.015625 
L 55.515625 72.90625 
L 65.375 72.90625 
L 65.375 0 
L 55.515625 0 
L 55.515625 34.71875 
L 19.671875 34.71875 
L 19.671875 0 
L 9.8125 0 
z
" id="DejaVuSans-72"/>
      <path d="M -0.296875 72.90625 
L 61.375 72.90625 
L 61.375 64.59375 
L 35.5 64.59375 
L 35.5 0 
L 25.59375 0 
L 25.59375 64.59375 
L -0.296875 64.59375 
z
" id="DejaVuSans-84"/>
      <path d="M 6.296875 72.90625 
L 16.890625 72.90625 
L 35.015625 45.796875 
L 53.21875 72.90625 
L 63.8125 72.90625 
L 40.375 37.890625 
L 65.375 0 
L 54.78125 0 
L 34.28125 31 
L 13.625 0 
L 2.984375 0 
L 29 38.921875 
z
" id="DejaVuSans-88"/>
     </defs>
     <g transform="translate(63.925 67.832812)scale(0.1 -0.1)">
      <use xlink:href="#DejaVuSans-72"/>
      <use x="75.195312" xlink:href="#DejaVuSans-71"/>
      <use x="152.638672" xlink:href="#DejaVuSans-84"/>
      <use x="213.722656" xlink:href="#DejaVuSans-88"/>
      <use x="282.228516" xlink:href="#DejaVuSans-51"/>
      <use x="345.851562" xlink:href="#DejaVuSans-46"/>
      <use x="377.638672" xlink:href="#DejaVuSans-83"/>
      <use x="441.130859" xlink:href="#DejaVuSans-65"/>
     </g>
    </g>
   </g>
  </g>
 </g>
 <defs>
  <clipPath id="pbc2ce31c95">
   <rect height="391.68" width="669.6" x="26.925" y="7.2"/>
  </clipPath>
 </defs>
</svg>
