<?xml version="1.0" encoding="utf-8" standalone="no"?>
<!DOCTYPE svg PUBLIC "-//W3C//DTD SVG 1.1//EN"
  "http://www.w3.org/Graphics/SVG/1.1/DTD/svg11.dtd">
<!-- Created with matplotlib (https://matplotlib.org/) -->
<svg height="456.031033pt" version="1.1" viewBox="0 0 765.8875 456.031033" width="765.8875pt" xmlns="http://www.w3.org/2000/svg" xmlns:xlink="http://www.w3.org/1999/xlink">
 <defs>
  <style type="text/css">
*{stroke-linecap:butt;stroke-linejoin:round;}
  </style>
 </defs>
 <g id="figure_1">
  <g id="patch_1">
   <path d="M 0 456.031033 
L 765.8875 456.031033 
L 765.8875 0 
L 0 0 
z
" style="fill:none;"/>
  </g>
  <g id="axes_1">
   <g id="patch_2">
    <path d="M 33.2875 398.88 
L 758.6875 398.88 
L 758.6875 7.2 
L 33.2875 7.2 
z
" style="fill:#ffffff;"/>
   </g>
   <g id="matplotlib.axis_1">
    <g id="xtick_1">
     <g id="line2d_1">
      <defs>
       <path d="M 0 0 
L 0 3.5 
" id="mb90a94834f" style="stroke:#000000;stroke-width:0.8;"/>
      </defs>
      <g>
       <use style="stroke:#000000;stroke-width:0.8;" x="65.435909" xlink:href="#mb90a94834f" y="398.88"/>
      </g>
     </g>
     <g id="text_1">
      <!-- 2018-01 -->
      <defs>
       <path d="M 19.1875 8.296875 
L 53.609375 8.296875 
L 53.609375 0 
L 7.328125 0 
L 7.328125 8.296875 
Q 12.9375 14.109375 22.625 23.890625 
Q 32.328125 33.6875 34.8125 36.53125 
Q 39.546875 41.84375 41.421875 45.53125 
Q 43.3125 49.21875 43.3125 52.78125 
Q 43.3125 58.59375 39.234375 62.25 
Q 35.15625 65.921875 28.609375 65.921875 
Q 23.96875 65.921875 18.8125 64.3125 
Q 13.671875 62.703125 7.8125 59.421875 
L 7.8125 69.390625 
Q 13.765625 71.78125 18.9375 73 
Q 24.125 74.21875 28.421875 74.21875 
Q 39.75 74.21875 46.484375 68.546875 
Q 53.21875 62.890625 53.21875 53.421875 
Q 53.21875 48.921875 51.53125 44.890625 
Q 49.859375 40.875 45.40625 35.40625 
Q 44.1875 33.984375 37.640625 27.21875 
Q 31.109375 20.453125 19.1875 8.296875 
z
" id="DejaVuSans-50"/>
       <path d="M 31.78125 66.40625 
Q 24.171875 66.40625 20.328125 58.90625 
Q 16.5 51.421875 16.5 36.375 
Q 16.5 21.390625 20.328125 13.890625 
Q 24.171875 6.390625 31.78125 6.390625 
Q 39.453125 6.390625 43.28125 13.890625 
Q 47.125 21.390625 47.125 36.375 
Q 47.125 51.421875 43.28125 58.90625 
Q 39.453125 66.40625 31.78125 66.40625 
z
M 31.78125 74.21875 
Q 44.046875 74.21875 50.515625 64.515625 
Q 56.984375 54.828125 56.984375 36.375 
Q 56.984375 17.96875 50.515625 8.265625 
Q 44.046875 -1.421875 31.78125 -1.421875 
Q 19.53125 -1.421875 13.0625 8.265625 
Q 6.59375 17.96875 6.59375 36.375 
Q 6.59375 54.828125 13.0625 64.515625 
Q 19.53125 74.21875 31.78125 74.21875 
z
" id="DejaVuSans-48"/>
       <path d="M 12.40625 8.296875 
L 28.515625 8.296875 
L 28.515625 63.921875 
L 10.984375 60.40625 
L 10.984375 69.390625 
L 28.421875 72.90625 
L 38.28125 72.90625 
L 38.28125 8.296875 
L 54.390625 8.296875 
L 54.390625 0 
L 12.40625 0 
z
" id="DejaVuSans-49"/>
       <path d="M 31.78125 34.625 
Q 24.75 34.625 20.71875 30.859375 
Q 16.703125 27.09375 16.703125 20.515625 
Q 16.703125 13.921875 20.71875 10.15625 
Q 24.75 6.390625 31.78125 6.390625 
Q 38.8125 6.390625 42.859375 10.171875 
Q 46.921875 13.96875 46.921875 20.515625 
Q 46.921875 27.09375 42.890625 30.859375 
Q 38.875 34.625 31.78125 34.625 
z
M 21.921875 38.8125 
Q 15.578125 40.375 12.03125 44.71875 
Q 8.5 49.078125 8.5 55.328125 
Q 8.5 64.0625 14.71875 69.140625 
Q 20.953125 74.21875 31.78125 74.21875 
Q 42.671875 74.21875 48.875 69.140625 
Q 55.078125 64.0625 55.078125 55.328125 
Q 55.078125 49.078125 51.53125 44.71875 
Q 48 40.375 41.703125 38.8125 
Q 48.828125 37.15625 52.796875 32.3125 
Q 56.78125 27.484375 56.78125 20.515625 
Q 56.78125 9.90625 50.3125 4.234375 
Q 43.84375 -1.421875 31.78125 -1.421875 
Q 19.734375 -1.421875 13.25 4.234375 
Q 6.78125 9.90625 6.78125 20.515625 
Q 6.78125 27.484375 10.78125 32.3125 
Q 14.796875 37.15625 21.921875 38.8125 
z
M 18.3125 54.390625 
Q 18.3125 48.734375 21.84375 45.5625 
Q 25.390625 42.390625 31.78125 42.390625 
Q 38.140625 42.390625 41.71875 45.5625 
Q 45.3125 48.734375 45.3125 54.390625 
Q 45.3125 60.0625 41.71875 63.234375 
Q 38.140625 66.40625 31.78125 66.40625 
Q 25.390625 66.40625 21.84375 63.234375 
Q 18.3125 60.0625 18.3125 54.390625 
z
" id="DejaVuSans-56"/>
       <path d="M 4.890625 31.390625 
L 31.203125 31.390625 
L 31.203125 23.390625 
L 4.890625 23.390625 
z
" id="DejaVuSans-45"/>
      </defs>
      <g transform="translate(28.211088 433.351846)rotate(-30)scale(0.1 -0.1)">
       <use xlink:href="#DejaVuSans-50"/>
       <use x="63.623047" xlink:href="#DejaVuSans-48"/>
       <use x="127.246094" xlink:href="#DejaVuSans-49"/>
       <use x="190.869141" xlink:href="#DejaVuSans-56"/>
       <use x="254.492188" xlink:href="#DejaVuSans-45"/>
       <use x="290.576172" xlink:href="#DejaVuSans-48"/>
       <use x="354.199219" xlink:href="#DejaVuSans-49"/>
      </g>
     </g>
    </g>
    <g id="xtick_2">
     <g id="line2d_2">
      <g>
       <use style="stroke:#000000;stroke-width:0.8;" x="139.624545" xlink:href="#mb90a94834f" y="398.88"/>
      </g>
     </g>
     <g id="text_2">
      <!-- 2018-04 -->
      <defs>
       <path d="M 37.796875 64.3125 
L 12.890625 25.390625 
L 37.796875 25.390625 
z
M 35.203125 72.90625 
L 47.609375 72.90625 
L 47.609375 25.390625 
L 58.015625 25.390625 
L 58.015625 17.1875 
L 47.609375 17.1875 
L 47.609375 0 
L 37.796875 0 
L 37.796875 17.1875 
L 4.890625 17.1875 
L 4.890625 26.703125 
z
" id="DejaVuSans-52"/>
      </defs>
      <g transform="translate(102.399725 433.351846)rotate(-30)scale(0.1 -0.1)">
       <use xlink:href="#DejaVuSans-50"/>
       <use x="63.623047" xlink:href="#DejaVuSans-48"/>
       <use x="127.246094" xlink:href="#DejaVuSans-49"/>
       <use x="190.869141" xlink:href="#DejaVuSans-56"/>
       <use x="254.492188" xlink:href="#DejaVuSans-45"/>
       <use x="290.576172" xlink:href="#DejaVuSans-48"/>
       <use x="354.199219" xlink:href="#DejaVuSans-52"/>
      </g>
     </g>
    </g>
    <g id="xtick_3">
     <g id="line2d_3">
      <g>
       <use style="stroke:#000000;stroke-width:0.8;" x="214.6375" xlink:href="#mb90a94834f" y="398.88"/>
      </g>
     </g>
     <g id="text_3">
      <!-- 2018-07 -->
      <defs>
       <path d="M 8.203125 72.90625 
L 55.078125 72.90625 
L 55.078125 68.703125 
L 28.609375 0 
L 18.3125 0 
L 43.21875 64.59375 
L 8.203125 64.59375 
z
" id="DejaVuSans-55"/>
      </defs>
      <g transform="translate(177.412679 433.351846)rotate(-30)scale(0.1 -0.1)">
       <use xlink:href="#DejaVuSans-50"/>
       <use x="63.623047" xlink:href="#DejaVuSans-48"/>
       <use x="127.246094" xlink:href="#DejaVuSans-49"/>
       <use x="190.869141" xlink:href="#DejaVuSans-56"/>
       <use x="254.492188" xlink:href="#DejaVuSans-45"/>
       <use x="290.576172" xlink:href="#DejaVuSans-48"/>
       <use x="354.199219" xlink:href="#DejaVuSans-55"/>
      </g>
     </g>
    </g>
    <g id="xtick_4">
     <g id="line2d_4">
      <g>
       <use style="stroke:#000000;stroke-width:0.8;" x="290.474773" xlink:href="#mb90a94834f" y="398.88"/>
      </g>
     </g>
     <g id="text_4">
      <!-- 2018-10 -->
      <g transform="translate(253.249952 433.351846)rotate(-30)scale(0.1 -0.1)">
       <use xlink:href="#DejaVuSans-50"/>
       <use x="63.623047" xlink:href="#DejaVuSans-48"/>
       <use x="127.246094" xlink:href="#DejaVuSans-49"/>
       <use x="190.869141" xlink:href="#DejaVuSans-56"/>
       <use x="254.492188" xlink:href="#DejaVuSans-45"/>
       <use x="290.576172" xlink:href="#DejaVuSans-49"/>
       <use x="354.199219" xlink:href="#DejaVuSans-48"/>
      </g>
     </g>
    </g>
    <g id="xtick_5">
     <g id="line2d_5">
      <g>
       <use style="stroke:#000000;stroke-width:0.8;" x="366.312045" xlink:href="#mb90a94834f" y="398.88"/>
      </g>
     </g>
     <g id="text_5">
      <!-- 2019-01 -->
      <defs>
       <path d="M 10.984375 1.515625 
L 10.984375 10.5 
Q 14.703125 8.734375 18.5 7.8125 
Q 22.3125 6.890625 25.984375 6.890625 
Q 35.75 6.890625 40.890625 13.453125 
Q 46.046875 20.015625 46.78125 33.40625 
Q 43.953125 29.203125 39.59375 26.953125 
Q 35.25 24.703125 29.984375 24.703125 
Q 19.046875 24.703125 12.671875 31.3125 
Q 6.296875 37.9375 6.296875 49.421875 
Q 6.296875 60.640625 12.9375 67.421875 
Q 19.578125 74.21875 30.609375 74.21875 
Q 43.265625 74.21875 49.921875 64.515625 
Q 56.59375 54.828125 56.59375 36.375 
Q 56.59375 19.140625 48.40625 8.859375 
Q 40.234375 -1.421875 26.421875 -1.421875 
Q 22.703125 -1.421875 18.890625 -0.6875 
Q 15.09375 0.046875 10.984375 1.515625 
z
M 30.609375 32.421875 
Q 37.25 32.421875 41.125 36.953125 
Q 45.015625 41.5 45.015625 49.421875 
Q 45.015625 57.28125 41.125 61.84375 
Q 37.25 66.40625 30.609375 66.40625 
Q 23.96875 66.40625 20.09375 61.84375 
Q 16.21875 57.28125 16.21875 49.421875 
Q 16.21875 41.5 20.09375 36.953125 
Q 23.96875 32.421875 30.609375 32.421875 
z
" id="DejaVuSans-57"/>
      </defs>
      <g transform="translate(329.087225 433.351846)rotate(-30)scale(0.1 -0.1)">
       <use xlink:href="#DejaVuSans-50"/>
       <use x="63.623047" xlink:href="#DejaVuSans-48"/>
       <use x="127.246094" xlink:href="#DejaVuSans-49"/>
       <use x="190.869141" xlink:href="#DejaVuSans-57"/>
       <use x="254.492188" xlink:href="#DejaVuSans-45"/>
       <use x="290.576172" xlink:href="#DejaVuSans-48"/>
       <use x="354.199219" xlink:href="#DejaVuSans-49"/>
      </g>
     </g>
    </g>
    <g id="xtick_6">
     <g id="line2d_6">
      <g>
       <use style="stroke:#000000;stroke-width:0.8;" x="440.500682" xlink:href="#mb90a94834f" y="398.88"/>
      </g>
     </g>
     <g id="text_6">
      <!-- 2019-04 -->
      <g transform="translate(403.275861 433.351846)rotate(-30)scale(0.1 -0.1)">
       <use xlink:href="#DejaVuSans-50"/>
       <use x="63.623047" xlink:href="#DejaVuSans-48"/>
       <use x="127.246094" xlink:href="#DejaVuSans-49"/>
       <use x="190.869141" xlink:href="#DejaVuSans-57"/>
       <use x="254.492188" xlink:href="#DejaVuSans-45"/>
       <use x="290.576172" xlink:href="#DejaVuSans-48"/>
       <use x="354.199219" xlink:href="#DejaVuSans-52"/>
      </g>
     </g>
    </g>
    <g id="xtick_7">
     <g id="line2d_7">
      <g>
       <use style="stroke:#000000;stroke-width:0.8;" x="515.513636" xlink:href="#mb90a94834f" y="398.88"/>
      </g>
     </g>
     <g id="text_7">
      <!-- 2019-07 -->
      <g transform="translate(478.288816 433.351846)rotate(-30)scale(0.1 -0.1)">
       <use xlink:href="#DejaVuSans-50"/>
       <use x="63.623047" xlink:href="#DejaVuSans-48"/>
       <use x="127.246094" xlink:href="#DejaVuSans-49"/>
       <use x="190.869141" xlink:href="#DejaVuSans-57"/>
       <use x="254.492188" xlink:href="#DejaVuSans-45"/>
       <use x="290.576172" xlink:href="#DejaVuSans-48"/>
       <use x="354.199219" xlink:href="#DejaVuSans-55"/>
      </g>
     </g>
    </g>
    <g id="xtick_8">
     <g id="line2d_8">
      <g>
       <use style="stroke:#000000;stroke-width:0.8;" x="591.350909" xlink:href="#mb90a94834f" y="398.88"/>
      </g>
     </g>
     <g id="text_8">
      <!-- 2019-10 -->
      <g transform="translate(554.126088 433.351846)rotate(-30)scale(0.1 -0.1)">
       <use xlink:href="#DejaVuSans-50"/>
       <use x="63.623047" xlink:href="#DejaVuSans-48"/>
       <use x="127.246094" xlink:href="#DejaVuSans-49"/>
       <use x="190.869141" xlink:href="#DejaVuSans-57"/>
       <use x="254.492188" xlink:href="#DejaVuSans-45"/>
       <use x="290.576172" xlink:href="#DejaVuSans-49"/>
       <use x="354.199219" xlink:href="#DejaVuSans-48"/>
      </g>
     </g>
    </g>
    <g id="xtick_9">
     <g id="line2d_9">
      <g>
       <use style="stroke:#000000;stroke-width:0.8;" x="667.188182" xlink:href="#mb90a94834f" y="398.88"/>
      </g>
     </g>
     <g id="text_9">
      <!-- 2020-01 -->
      <g transform="translate(629.963361 433.351846)rotate(-30)scale(0.1 -0.1)">
       <use xlink:href="#DejaVuSans-50"/>
       <use x="63.623047" xlink:href="#DejaVuSans-48"/>
       <use x="127.246094" xlink:href="#DejaVuSans-50"/>
       <use x="190.869141" xlink:href="#DejaVuSans-48"/>
       <use x="254.492188" xlink:href="#DejaVuSans-45"/>
       <use x="290.576172" xlink:href="#DejaVuSans-48"/>
       <use x="354.199219" xlink:href="#DejaVuSans-49"/>
      </g>
     </g>
    </g>
    <g id="xtick_10">
     <g id="line2d_10">
      <g>
       <use style="stroke:#000000;stroke-width:0.8;" x="742.201136" xlink:href="#mb90a94834f" y="398.88"/>
      </g>
     </g>
     <g id="text_10">
      <!-- 2020-04 -->
      <g transform="translate(704.976316 433.351846)rotate(-30)scale(0.1 -0.1)">
       <use xlink:href="#DejaVuSans-50"/>
       <use x="63.623047" xlink:href="#DejaVuSans-48"/>
       <use x="127.246094" xlink:href="#DejaVuSans-50"/>
       <use x="190.869141" xlink:href="#DejaVuSans-48"/>
       <use x="254.492188" xlink:href="#DejaVuSans-45"/>
       <use x="290.576172" xlink:href="#DejaVuSans-48"/>
       <use x="354.199219" xlink:href="#DejaVuSans-52"/>
      </g>
     </g>
    </g>
    <g id="text_11">
     <!-- Date -->
     <defs>
      <path d="M 19.671875 64.796875 
L 19.671875 8.109375 
L 31.59375 8.109375 
Q 46.6875 8.109375 53.6875 14.9375 
Q 60.6875 21.78125 60.6875 36.53125 
Q 60.6875 51.171875 53.6875 57.984375 
Q 46.6875 64.796875 31.59375 64.796875 
z
M 9.8125 72.90625 
L 30.078125 72.90625 
Q 51.265625 72.90625 61.171875 64.09375 
Q 71.09375 55.28125 71.09375 36.53125 
Q 71.09375 17.671875 61.125 8.828125 
Q 51.171875 0 30.078125 0 
L 9.8125 0 
z
" id="DejaVuSans-68"/>
      <path d="M 34.28125 27.484375 
Q 23.390625 27.484375 19.1875 25 
Q 14.984375 22.515625 14.984375 16.5 
Q 14.984375 11.71875 18.140625 8.90625 
Q 21.296875 6.109375 26.703125 6.109375 
Q 34.1875 6.109375 38.703125 11.40625 
Q 43.21875 16.703125 43.21875 25.484375 
L 43.21875 27.484375 
z
M 52.203125 31.203125 
L 52.203125 0 
L 43.21875 0 
L 43.21875 8.296875 
Q 40.140625 3.328125 35.546875 0.953125 
Q 30.953125 -1.421875 24.3125 -1.421875 
Q 15.921875 -1.421875 10.953125 3.296875 
Q 6 8.015625 6 15.921875 
Q 6 25.140625 12.171875 29.828125 
Q 18.359375 34.515625 30.609375 34.515625 
L 43.21875 34.515625 
L 43.21875 35.40625 
Q 43.21875 41.609375 39.140625 45 
Q 35.0625 48.390625 27.6875 48.390625 
Q 23 48.390625 18.546875 47.265625 
Q 14.109375 46.140625 10.015625 43.890625 
L 10.015625 52.203125 
Q 14.9375 54.109375 19.578125 55.046875 
Q 24.21875 56 28.609375 56 
Q 40.484375 56 46.34375 49.84375 
Q 52.203125 43.703125 52.203125 31.203125 
z
" id="DejaVuSans-97"/>
      <path d="M 18.3125 70.21875 
L 18.3125 54.6875 
L 36.8125 54.6875 
L 36.8125 47.703125 
L 18.3125 47.703125 
L 18.3125 18.015625 
Q 18.3125 11.328125 20.140625 9.421875 
Q 21.96875 7.515625 27.59375 7.515625 
L 36.8125 7.515625 
L 36.8125 0 
L 27.59375 0 
Q 17.1875 0 13.234375 3.875 
Q 9.28125 7.765625 9.28125 18.015625 
L 9.28125 47.703125 
L 2.6875 47.703125 
L 2.6875 54.6875 
L 9.28125 54.6875 
L 9.28125 70.21875 
z
" id="DejaVuSans-116"/>
      <path d="M 56.203125 29.59375 
L 56.203125 25.203125 
L 14.890625 25.203125 
Q 15.484375 15.921875 20.484375 11.0625 
Q 25.484375 6.203125 34.421875 6.203125 
Q 39.59375 6.203125 44.453125 7.46875 
Q 49.3125 8.734375 54.109375 11.28125 
L 54.109375 2.78125 
Q 49.265625 0.734375 44.1875 -0.34375 
Q 39.109375 -1.421875 33.890625 -1.421875 
Q 20.796875 -1.421875 13.15625 6.1875 
Q 5.515625 13.8125 5.515625 26.8125 
Q 5.515625 40.234375 12.765625 48.109375 
Q 20.015625 56 32.328125 56 
Q 43.359375 56 49.78125 48.890625 
Q 56.203125 41.796875 56.203125 29.59375 
z
M 47.21875 32.234375 
Q 47.125 39.59375 43.09375 43.984375 
Q 39.0625 48.390625 32.421875 48.390625 
Q 24.90625 48.390625 20.390625 44.140625 
Q 15.875 39.890625 15.1875 32.171875 
z
" id="DejaVuSans-101"/>
     </defs>
     <g transform="translate(384.036719 446.751346)scale(0.1 -0.1)">
      <use xlink:href="#DejaVuSans-68"/>
      <use x="77.001953" xlink:href="#DejaVuSans-97"/>
      <use x="138.28125" xlink:href="#DejaVuSans-116"/>
      <use x="177.490234" xlink:href="#DejaVuSans-101"/>
     </g>
    </g>
   </g>
   <g id="matplotlib.axis_2">
    <g id="ytick_1">
     <g id="line2d_11">
      <defs>
       <path d="M 0 0 
L -3.5 0 
" id="m950c4d102a" style="stroke:#000000;stroke-width:0.8;"/>
      </defs>
      <g>
       <use style="stroke:#000000;stroke-width:0.8;" x="33.2875" xlink:href="#m950c4d102a" y="398.787064"/>
      </g>
     </g>
     <g id="text_12">
      <!-- 50 -->
      <defs>
       <path d="M 10.796875 72.90625 
L 49.515625 72.90625 
L 49.515625 64.59375 
L 19.828125 64.59375 
L 19.828125 46.734375 
Q 21.96875 47.46875 24.109375 47.828125 
Q 26.265625 48.1875 28.421875 48.1875 
Q 40.625 48.1875 47.75 41.5 
Q 54.890625 34.8125 54.890625 23.390625 
Q 54.890625 11.625 47.5625 5.09375 
Q 40.234375 -1.421875 26.90625 -1.421875 
Q 22.3125 -1.421875 17.546875 -0.640625 
Q 12.796875 0.140625 7.71875 1.703125 
L 7.71875 11.625 
Q 12.109375 9.234375 16.796875 8.0625 
Q 21.484375 6.890625 26.703125 6.890625 
Q 35.15625 6.890625 40.078125 11.328125 
Q 45.015625 15.765625 45.015625 23.390625 
Q 45.015625 31 40.078125 35.4375 
Q 35.15625 39.890625 26.703125 39.890625 
Q 22.75 39.890625 18.8125 39.015625 
Q 14.890625 38.140625 10.796875 36.28125 
z
" id="DejaVuSans-53"/>
      </defs>
      <g transform="translate(13.5625 402.586283)scale(0.1 -0.1)">
       <use xlink:href="#DejaVuSans-53"/>
       <use x="63.623047" xlink:href="#DejaVuSans-48"/>
      </g>
     </g>
    </g>
    <g id="ytick_2">
     <g id="line2d_12">
      <g>
       <use style="stroke:#000000;stroke-width:0.8;" x="33.2875" xlink:href="#m950c4d102a" y="320.353994"/>
      </g>
     </g>
     <g id="text_13">
      <!-- 100 -->
      <g transform="translate(7.2 324.153213)scale(0.1 -0.1)">
       <use xlink:href="#DejaVuSans-49"/>
       <use x="63.623047" xlink:href="#DejaVuSans-48"/>
       <use x="127.246094" xlink:href="#DejaVuSans-48"/>
      </g>
     </g>
    </g>
    <g id="ytick_3">
     <g id="line2d_13">
      <g>
       <use style="stroke:#000000;stroke-width:0.8;" x="33.2875" xlink:href="#m950c4d102a" y="241.920924"/>
      </g>
     </g>
     <g id="text_14">
      <!-- 150 -->
      <g transform="translate(7.2 245.720143)scale(0.1 -0.1)">
       <use xlink:href="#DejaVuSans-49"/>
       <use x="63.623047" xlink:href="#DejaVuSans-53"/>
       <use x="127.246094" xlink:href="#DejaVuSans-48"/>
      </g>
     </g>
    </g>
    <g id="ytick_4">
     <g id="line2d_14">
      <g>
       <use style="stroke:#000000;stroke-width:0.8;" x="33.2875" xlink:href="#m950c4d102a" y="163.487854"/>
      </g>
     </g>
     <g id="text_15">
      <!-- 200 -->
      <g transform="translate(7.2 167.287073)scale(0.1 -0.1)">
       <use xlink:href="#DejaVuSans-50"/>
       <use x="63.623047" xlink:href="#DejaVuSans-48"/>
       <use x="127.246094" xlink:href="#DejaVuSans-48"/>
      </g>
     </g>
    </g>
    <g id="ytick_5">
     <g id="line2d_15">
      <g>
       <use style="stroke:#000000;stroke-width:0.8;" x="33.2875" xlink:href="#m950c4d102a" y="85.054784"/>
      </g>
     </g>
     <g id="text_16">
      <!-- 250 -->
      <g transform="translate(7.2 88.854003)scale(0.1 -0.1)">
       <use xlink:href="#DejaVuSans-50"/>
       <use x="63.623047" xlink:href="#DejaVuSans-53"/>
       <use x="127.246094" xlink:href="#DejaVuSans-48"/>
      </g>
     </g>
    </g>
   </g>
   <g id="line2d_16">
    <path clip-path="url(#p16467a30cf)" d="M 66.260227 320.353994 
L 67.084545 322.212836 
L 67.908864 316.326486 
L 68.733182 315.500332 
L 71.206136 315.087255 
L 72.030455 319.011491 
L 72.854773 322.316107 
L 73.679091 326.446877 
L 74.503409 326.343616 
L 76.976364 324.381492 
L 77.800682 321.489953 
L 78.625 315.810137 
L 79.449318 311.163018 
L 80.273636 313.02187 
L 82.746591 310.646679 
L 83.570909 311.369562 
L 84.395227 301.662237 
L 85.219545 301.662237 
L 86.043864 293.917036 
L 88.516818 289.579722 
L 89.341136 291.025487 
L 90.165455 290.199333 
L 90.989773 288.85684 
L 91.814091 293.503949 
L 94.287045 299.080503 
L 95.111364 293.917036 
L 95.935682 293.917036 
L 97.584318 306.309366 
L 103.354545 301.455694 
L 105.8275 300.422996 
L 106.651818 300.836083 
L 107.476136 296.911856 
L 108.300455 290.715691 
L 109.124773 280.285485 
L 111.597727 274.812202 
L 112.422045 274.70893 
L 113.246364 278.942972 
L 114.070682 279.975669 
L 114.895 280.801823 
L 117.367955 282.041064 
L 118.192273 280.59528 
L 119.016591 285.139137 
L 119.840909 277.393936 
L 120.665227 263.246046 
L 123.138182 254.158332 
L 123.9625 253.951788 
L 124.786818 261.283922 
L 125.611136 259.321799 
L 126.435455 254.468147 
L 128.908409 261.180651 
L 129.732727 262.110076 
L 130.557045 261.387194 
L 131.381364 265.517964 
L 132.205682 257.772763 
L 134.678636 253.332178 
L 135.502955 256.223727 
L 136.327273 261.69699 
L 137.151591 253.641993 
L 140.448864 256.740065 
L 141.273182 256.843337 
L 142.0975 264.898354 
L 142.921818 260.457768 
L 143.746136 230.509661 
L 146.219091 240.630052 
L 147.043409 245.380433 
L 147.867727 251.989685 
L 148.692045 250.027562 
L 149.516364 258.289102 
L 151.989318 265.311421 
L 152.813636 249.717746 
L 153.637955 242.385632 
L 154.462273 258.18585 
L 155.286591 265.001625 
L 157.759545 259.94141 
L 158.583864 265.517964 
L 159.408182 279.459331 
L 160.2325 278.116818 
L 161.056818 275.844899 
L 163.529773 276.671053 
L 165.178409 288.237229 
L 166.002727 297.11838 
L 166.827045 288.753568 
L 170.124318 303.108002 
L 170.948636 320.250722 
L 171.772955 308.994352 
L 172.597273 314.261101 
L 175.070227 321.799759 
L 175.894545 323.348805 
L 176.718864 323.65861 
L 177.543182 331.094006 
L 178.3675 330.474386 
L 180.840455 325.001113 
L 181.664773 322.316107 
L 182.489091 330.577657 
L 183.313409 331.094006 
L 184.137727 328.615534 
L 186.610682 340.388244 
L 187.435 333.572468 
L 188.259318 337.909782 
L 189.907955 339.975167 
L 192.380909 329.54496 
L 194.853864 353.606718 
L 195.678182 350.715179 
L 198.151136 350.81845 
L 198.975455 349.682481 
L 199.799773 348.133445 
L 200.624091 352.264215 
L 201.448409 358.976729 
L 203.921364 362.59115 
L 204.745682 355.981918 
L 205.57 355.362298 
L 206.394318 357.944031 
L 207.218636 362.694422 
L 210.515909 369.09712 
L 211.340227 372.091931 
L 212.164545 367.238279 
L 212.988864 369.613469 
L 215.461818 372.711552 
L 216.286136 371.885398 
L 217.110455 368.787315 
L 217.934773 367.651356 
L 218.759091 362.384617 
L 222.056364 363.314042 
L 222.880682 367.031735 
L 223.705 362.694422 
L 224.529318 361.455191 
L 227.826591 344.105937 
L 228.650909 340.698049 
L 229.475227 344.002675 
L 230.299545 337.186889 
L 232.7725 336.773812 
L 233.596818 333.67574 
L 234.421136 324.071687 
L 235.245455 326.137072 
L 236.069773 324.381492 
L 238.542727 327.995924 
L 239.367045 334.605156 
L 241.015682 336.773812 
L 241.84 328.099195 
L 244.312955 328.925349 
L 245.137273 332.746314 
L 245.961591 338.942469 
L 246.785909 342.453629 
L 247.610227 350.095558 
L 250.083182 349.062871 
L 250.9075 348.339988 
L 251.731818 346.894214 
L 252.556136 347.617096 
L 253.380455 351.644605 
L 255.853409 349.579219 
L 256.677727 362.178073 
L 257.502045 361.042114 
L 258.326364 367.444812 
L 259.150682 369.923275 
L 261.623636 365.999038 
L 262.447955 368.167695 
L 263.272273 361.351919 
L 264.096591 364.863079 
L 264.920909 361.455191 
L 267.393864 365.069622 
L 268.218182 372.711552 
L 269.0425 373.744239 
L 273.164091 372.711552 
L 273.988409 377.978291 
L 274.812727 377.875019 
L 275.637045 381.076364 
L 276.461364 380.86983 
L 278.934318 373.847511 
L 279.758636 370.749429 
L 280.582955 368.787315 
L 281.407273 362.694422 
L 282.231591 359.389806 
L 284.704545 366.928464 
L 285.528864 366.205581 
L 286.353182 364.656545 
L 287.1775 357.427683 
L 288.001818 363.107499 
L 290.474773 367.651356 
L 291.299091 358.563652 
L 292.123409 350.715179 
L 292.947727 351.747876 
L 293.772045 349.166142 
L 296.245 325.207646 
L 297.069318 324.071687 
L 297.893636 339.871895 
L 298.717955 337.393433 
L 302.015227 331.713617 
L 302.839545 313.02187 
L 303.663864 309.407438 
L 304.488182 310.130321 
L 305.3125 309.820525 
L 307.785455 305.793007 
L 308.609773 306.206094 
L 309.434091 312.608793 
L 310.258409 307.342043 
L 311.082727 289.166655 
L 313.555682 301.352422 
L 314.38 287.10126 
L 315.204318 287.204532 
L 316.028636 278.426633 
L 319.325909 266.550662 
L 320.150227 265.414693 
L 320.974545 268.616037 
L 321.798864 273.056622 
L 322.623182 271.301042 
L 325.096136 274.812202 
L 325.920455 275.32856 
L 326.744773 269.132395 
L 328.393409 268.512785 
L 330.866364 269.235667 
L 332.515 260.147953 
L 333.339318 249.201408 
L 334.163636 251.060259 
L 336.636591 268.099698 
L 337.460909 264.485267 
L 338.285227 261.387194 
L 339.109545 256.740065 
L 339.933864 254.158332 
L 342.406818 256.740065 
L 343.231136 265.931051 
L 344.055455 261.903533 
L 344.879773 266.44739 
L 345.704091 272.643555 
L 348.177045 287.204532 
L 349.001364 262.419892 
L 349.825682 261.387194 
L 350.65 250.027562 
L 351.474318 232.988123 
L 353.947273 232.575036 
L 354.771591 217.807515 
L 355.595909 223.280798 
L 356.420227 215.12253 
L 357.244545 221.731762 
L 361.366136 224.210224 
L 362.190455 225.036378 
L 363.014773 218.014059 
L 367.136364 214.399628 
L 367.960682 212.540796 
L 368.785 219.046756 
L 371.257955 230.406389 
L 372.082273 233.607733 
L 372.906591 234.743702 
L 373.730909 237.118893 
L 374.555227 219.459843 
L 377.028182 217.394448 
L 377.8525 225.552717 
L 378.676818 230.509661 
L 379.501136 229.167148 
L 380.325455 227.205044 
L 382.798409 233.297918 
L 383.622727 241.66275 
L 384.447045 237.53198 
L 385.271364 235.260041 
L 388.568636 237.945047 
L 389.392955 239.184288 
L 390.217273 228.754081 
L 391.041591 221.938305 
L 391.865909 219.87291 
L 395.163182 192.299993 
L 395.9875 200.561533 
L 396.811818 205.002118 
L 397.636136 198.083071 
L 400.109091 189.924802 
L 400.933409 182.489397 
L 401.757727 181.353447 
L 402.582045 182.902483 
L 403.406364 178.668442 
L 406.703636 187.859408 
L 407.527955 185.484217 
L 408.352273 195.294813 
L 409.176591 192.196721 
L 411.649545 198.392886 
L 412.473864 193.229419 
L 413.298182 195.294813 
L 414.1225 201.904046 
L 414.946818 204.382508 
L 419.892727 202.213861 
L 420.717045 197.876547 
L 423.19 205.10539 
L 424.014318 203.040015 
L 424.838636 193.952301 
L 425.662955 200.458281 
L 426.487273 192.196721 
L 428.960227 179.184781 
L 429.784545 163.074767 
L 430.608864 160.28649 
L 431.433182 176.18998 
L 432.2575 195.707881 
L 434.730455 191.783654 
L 435.554773 192.71308 
L 436.379091 217.49772 
L 437.203409 212.74732 
L 438.027727 209.752519 
L 440.500682 212.334252 
L 441.325 215.74214 
L 442.149318 214.915986 
L 442.973636 211.817894 
L 443.797955 215.12253 
L 446.270909 227.308296 
L 447.095227 232.471764 
L 447.919545 226.895229 
L 448.743864 235.569856 
L 449.568182 237.118893 
L 452.041136 242.798699 
L 452.865455 242.488904 
L 453.689773 250.853716 
L 454.514091 231.439086 
L 457.811364 238.564657 
L 458.635682 230.509661 
L 459.46 238.358134 
L 460.284318 237.945047 
L 461.108636 239.700626 
L 463.581591 239.700626 
L 464.405909 241.972545 
L 466.054545 244.244483 
L 466.878864 232.575036 
L 469.351818 236.602554 
L 470.176136 234.537159 
L 471.000455 224.00368 
L 471.824773 220.699064 
L 472.649091 213.883289 
L 475.946364 239.184288 
L 476.770682 243.211786 
L 477.595 260.56104 
L 478.419318 265.517964 
L 480.892273 261.903533 
L 481.716591 246.929489 
L 482.540909 234.02082 
L 483.365227 233.091394 
L 484.189545 220.492521 
L 486.6625 213.883289 
L 487.486818 203.659625 
L 488.311136 203.659625 
L 489.135455 197.46346 
L 489.959773 198.59943 
L 492.432727 195.191542 
L 493.257045 186.929982 
L 494.081364 185.277674 
L 494.905682 175.157282 
L 495.73 167.618624 
L 498.202955 158.427639 
L 499.027273 157.601485 
L 499.851591 160.493034 
L 500.675909 159.047269 
L 501.500227 164.107465 
L 503.973182 157.085146 
L 505.621818 138.290127 
L 507.270455 144.692816 
L 509.743409 147.481093 
L 510.567727 152.954376 
L 511.392045 152.438017 
L 512.216364 150.785709 
L 513.040682 140.562065 
L 515.513636 147.687636 
L 516.337955 143.247051 
L 517.162273 111.233568 
L 518.810909 60.01194 
L 521.283864 54.74522 
L 522.9325 56.604072 
L 523.756818 60.321775 
L 524.581136 73.333696 
L 527.054091 83.144292 
L 527.878409 64.76236 
L 528.702727 81.698527 
L 529.527045 73.436987 
L 530.351364 79.633132 
L 532.824318 75.502343 
L 533.648636 78.393911 
L 534.472955 74.986004 
L 535.297273 82.214866 
L 536.121591 57.120411 
L 538.594545 53.815795 
L 539.418864 53.609251 
L 540.243182 54.12559 
L 541.0675 25.003636 
L 541.891818 38.841731 
L 544.364773 56.397529 
L 545.189091 54.435425 
L 546.013409 69.306197 
L 546.837727 64.245982 
L 547.662045 58.359632 
L 550.135 88.514303 
L 550.959318 83.763922 
L 551.783636 101.31968 
L 553.432273 115.983949 
L 555.905227 116.810083 
L 556.729545 111.646616 
L 557.553864 112.679333 
L 558.378182 132.300486 
L 559.2025 132.300486 
L 561.675455 142.730712 
L 562.499773 138.290127 
L 563.324091 143.453595 
L 564.148409 128.582822 
L 564.972727 134.365881 
L 567.445682 140.148978 
L 568.27 151.302068 
L 569.094318 146.758211 
L 569.918636 126.001088 
L 570.742955 125.48471 
L 573.215909 139.529348 
L 574.040227 139.529348 
L 575.688864 108.032204 
L 576.513182 118.359139 
L 578.986136 146.241872 
L 579.810455 127.8599 
L 580.634773 129.822043 
L 581.459091 124.968371 
L 582.283409 134.262629 
L 585.580682 142.627421 
L 586.405 131.267808 
L 587.229318 123.72915 
L 588.053636 146.758211 
L 590.526591 143.660138 
L 591.350909 148.823606 
L 592.175227 157.085146 
L 592.999545 139.529348 
L 593.823864 135.811645 
L 596.296818 142.730712 
L 597.121136 145.725533 
L 597.945455 135.398598 
L 598.769773 135.398598 
L 599.594091 119.391817 
L 602.067045 109.58126 
L 602.891364 108.032204 
L 603.715682 106.999526 
L 604.54 105.45047 
L 605.364318 111.233568 
L 607.837273 113.918554 
L 608.661591 92.128714 
L 609.485909 95.433331 
L 610.310227 95.123535 
L 611.134545 100.493546 
L 613.6075 89.960068 
L 614.431818 82.111614 
L 615.256136 76.018721 
L 616.080455 99.254325 
L 616.904773 101.31968 
L 619.377727 109.477969 
L 620.202045 118.565683 
L 621.026364 115.777405 
L 621.850682 109.891055 
L 622.675 126.414136 
L 625.147955 124.142237 
L 625.972273 137.87704 
L 626.796591 136.224732 
L 627.620909 124.142237 
L 630.918182 121.973551 
L 631.7425 124.038946 
L 633.391136 126.930514 
L 634.215455 118.359139 
L 636.688409 119.391817 
L 637.512727 133.126659 
L 638.337045 134.985511 
L 639.161364 121.560503 
L 639.985682 125.48471 
L 642.458636 129.925295 
L 643.282955 115.983949 
L 644.107273 121.457212 
L 644.931591 122.489929 
L 645.755909 104.83084 
L 648.228864 98.324899 
L 649.053182 115.777405 
L 649.8775 112.679333 
L 650.701818 108.548543 
L 651.526136 103.591619 
L 653.999091 102.042563 
L 654.823409 112.369498 
L 655.647727 114.228349 
L 656.472045 100.906633 
L 657.296364 106.586439 
L 659.769318 100.70009 
L 662.242273 98.737947 
L 663.066591 95.949709 
L 665.539545 97.18893 
L 668.0125 93.367975 
L 668.836818 106.483148 
L 671.309773 123.522607 
L 672.134091 121.457212 
L 672.958409 107.412574 
L 673.782727 98.737947 
L 674.607045 92.645053 
L 677.08 84.7966 
L 677.904318 84.899852 
L 678.728636 95.433331 
L 679.552955 98.841238 
L 680.377273 85.519482 
L 682.850227 86.861995 
L 683.674545 98.428151 
L 684.498864 93.264684 
L 685.323182 73.953326 
L 686.1475 86.655452 
L 688.620455 112.679333 
L 689.444773 103.488367 
L 690.269091 116.397036 
L 691.093409 115.364318 
L 691.917727 123.522607 
L 694.390682 122.489929 
L 695.215 114.125097 
L 696.039318 103.488367 
L 696.863636 108.032204 
L 697.687955 121.35396 
L 700.160909 124.452032 
L 700.985227 103.385075 
L 701.809545 102.352398 
L 702.633864 111.646616 
L 703.458182 105.45047 
L 705.931136 101.422972 
L 706.755455 106.792983 
L 707.579773 101.836059 
L 708.404091 117.8428 
L 709.228409 127.963192 
L 714.174318 204.589051 
L 714.998636 212.850591 
L 717.471591 207.583852 
L 718.295909 217.807515 
L 719.120227 221.008879 
L 719.944545 263.968928 
L 720.768864 259.838158 
L 723.241818 297.73801 
L 724.066136 288.030686 
L 724.890455 315.603603 
L 725.714773 374.260588 
L 725.714773 374.260588 
" style="fill:none;stroke:#1f77b4;stroke-linecap:square;stroke-width:1.5;"/>
   </g>
   <g id="line2d_17">
    <path clip-path="url(#p16467a30cf)" d="M 66.260227 320.353994 
L 67.084545 320.873993 
L 67.908864 319.891774 
L 68.733182 320.065099 
L 72.030455 322.376212 
L 72.854773 324.398418 
L 73.679091 323.820651 
L 74.503409 324.687313 
L 77.800682 320.353994 
L 78.625 314.576235 
L 79.449318 310.416242 
L 80.273636 311.860682 
L 82.746591 309.665139 
L 83.570909 310.416242 
L 84.395227 306.776259 
L 85.219545 306.776259 
L 86.043864 303.829601 
L 88.516818 302.269604 
L 89.341136 301.171838 
L 90.165455 297.820738 
L 90.989773 292.909641 
L 91.814091 296.954066 
L 94.287045 299.554061 
L 95.111364 295.798521 
L 95.935682 297.531844 
L 97.584318 307.7007 
L 102.530227 305.274041 
L 103.354545 307.296259 
L 105.8275 307.354037 
L 106.651818 301.576279 
L 107.476136 296.607403 
L 108.300455 289.500752 
L 109.124773 287.131872 
L 111.597727 282.163018 
L 112.422045 282.683017 
L 113.246364 282.914111 
L 114.070682 284.647434 
L 114.895 287.131872 
L 117.367955 285.514106 
L 118.192273 282.509669 
L 119.016591 284.242993 
L 120.665227 266.33195 
L 123.138182 262.460863 
L 123.9625 262.403073 
L 125.611136 264.483069 
L 126.435455 266.851949 
L 128.908409 267.025275 
L 129.732727 265.291952 
L 130.557045 260.61196 
L 131.381364 260.265308 
L 132.205682 262.460863 
L 134.678636 257.72308 
L 135.502955 257.607545 
L 136.327273 259.398636 
L 137.151591 256.509756 
L 140.448864 261.363074 
L 141.273182 257.665313 
L 142.0975 265.176394 
L 142.921818 262.576398 
L 143.746136 253.678667 
L 146.219091 253.678667 
L 147.043409 261.247517 
L 147.867727 266.909717 
L 148.692045 262.287515 
L 149.516364 265.465278 
L 151.989318 269.856386 
L 152.813636 264.829743 
L 153.637955 263.385303 
L 154.462273 265.754183 
L 155.286591 264.598627 
L 157.759545 263.674187 
L 158.583864 270.087502 
L 159.408182 279.389675 
L 160.2325 278.75414 
L 161.056818 272.629708 
L 163.529773 266.909717 
L 165.178409 272.051941 
L 166.002727 282.04746 
L 166.827045 283.780783 
L 169.3 286.554105 
L 170.124318 286.034106 
L 170.948636 298.109622 
L 171.772955 292.331863 
L 172.597273 300.651838 
L 175.070227 307.23848 
L 175.894545 316.020675 
L 176.718864 319.487332 
L 177.543182 329.656178 
L 178.3675 326.131752 
L 180.840455 318.909554 
L 181.664773 311.687356 
L 182.489091 317.522894 
L 183.313409 318.909554 
L 184.137727 315.154014 
L 186.610682 321.220655 
L 187.435 320.758435 
L 188.259318 324.051756 
L 189.907955 324.109535 
L 192.380909 321.220655 
L 193.205227 330.465071 
L 194.853864 341.385031 
L 195.678182 343.176133 
L 198.151136 336.820608 
L 198.975455 339.651708 
L 199.799773 339.478371 
L 200.624091 339.420592 
L 201.448409 345.313909 
L 203.921364 347.16279 
L 204.745682 343.753911 
L 205.57 342.251693 
L 206.394318 349.185007 
L 207.218636 349.127228 
L 209.691591 350.860552 
L 210.515909 350.109448 
L 211.340227 353.576105 
L 212.164545 352.998327 
L 212.988864 353.980546 
L 215.461818 357.562761 
L 216.286136 357.447204 
L 217.110455 355.887206 
L 217.934773 359.180527 
L 218.759091 357.042762 
L 222.056364 357.678308 
L 222.880682 356.464984 
L 223.705 351.669445 
L 224.529318 350.976109 
L 227.002273 345.545013 
L 227.826591 340.402812 
L 228.650909 339.07393 
L 229.475227 339.940592 
L 230.299545 337.513933 
L 232.7725 334.856169 
L 233.596818 334.220612 
L 234.421136 328.385075 
L 235.245455 330.06063 
L 236.069773 331.100617 
L 238.542727 336.70505 
L 239.367045 337.802827 
L 240.191364 339.189488 
L 241.015682 339.99837 
L 241.84 335.26061 
L 244.312955 336.589492 
L 245.137273 336.069493 
L 245.961591 342.136146 
L 246.785909 338.438373 
L 247.610227 343.753911 
L 250.083182 342.251693 
L 250.9075 337.860595 
L 251.731818 336.762829 
L 252.556136 333.527276 
L 253.380455 336.300609 
L 255.853409 335.433936 
L 256.677727 340.229486 
L 257.502045 347.509452 
L 258.326364 349.820564 
L 259.150682 350.109448 
L 262.447955 346.353907 
L 263.272273 346.353907 
L 264.096591 348.318346 
L 264.920909 344.331689 
L 267.393864 342.367251 
L 268.218182 348.433893 
L 269.0425 347.913904 
L 269.866818 346.065012 
L 273.164091 344.331689 
L 273.988409 350.109448 
L 274.812727 350.687226 
L 275.637045 350.225006 
L 276.461364 346.64279 
L 278.934318 341.500589 
L 279.758636 341.269473 
L 280.582955 339.420592 
L 281.407273 335.896167 
L 282.231591 331.042849 
L 284.704545 340.345033 
L 286.353182 339.767255 
L 287.1775 335.491715 
L 288.001818 338.265047 
L 290.474773 344.79391 
L 291.299091 339.709487 
L 292.123409 335.665052 
L 292.947727 333.931728 
L 293.772045 332.833951 
L 296.245 315.211781 
L 297.069318 312.842901 
L 297.893636 323.936198 
L 298.717955 324.976196 
L 302.015227 322.491758 
L 302.839545 316.945116 
L 303.663864 316.020675 
L 304.488182 313.478458 
L 305.3125 315.442897 
L 308.609773 311.456241 
L 309.434091 317.17622 
L 310.258409 316.25178 
L 311.082727 308.509582 
L 313.555682 311.225136 
L 314.38 298.340737 
L 315.204318 300.478502 
L 316.028636 294.41186 
L 319.325909 289.1541 
L 320.150227 294.354081 
L 320.974545 295.509626 
L 321.798864 301.287384 
L 322.623182 293.256304 
L 325.096136 287.189662 
L 325.920455 287.420777 
L 326.744773 284.474108 
L 328.393409 274.998588 
L 330.866364 278.523024 
L 332.515 275.518587 
L 333.339318 271.1275 
L 334.163636 269.220829 
L 336.636591 285.918548 
L 338.285227 278.060793 
L 339.109545 279.043023 
L 339.933864 276.500795 
L 342.406818 285.86078 
L 343.231136 291.522981 
L 344.055455 285.167433 
L 344.879773 288.980753 
L 345.704091 296.087404 
L 348.177045 298.918504 
L 349.001364 287.30522 
L 349.825682 282.798553 
L 350.65 281.354113 
L 351.474318 284.531898 
L 353.947273 293.198525 
L 354.771591 286.554105 
L 355.595909 290.194099 
L 356.420227 283.665226 
L 357.244545 274.998588 
L 361.366136 275.634145 
L 362.190455 275.518587 
L 363.014773 269.220829 
L 367.136364 267.314159 
L 367.960682 267.083065 
L 368.785 267.77639 
L 371.257955 273.265265 
L 372.082273 276.616353 
L 372.906591 274.131915 
L 373.730909 269.740829 
L 374.555227 262.287515 
L 377.028182 260.727517 
L 377.8525 263.443071 
L 378.676818 263.443071 
L 379.501136 263.154187 
L 380.325455 267.140833 
L 382.798409 268.180831 
L 383.622727 272.109709 
L 384.447045 269.220829 
L 385.271364 268.874156 
L 389.392955 276.154144 
L 391.041591 262.807514 
L 391.865909 262.287515 
L 394.338864 257.434197 
L 395.163182 254.256434 
L 396.811818 268.180831 
L 397.636136 263.443071 
L 400.109091 262.287515 
L 400.933409 256.163105 
L 401.757727 255.3542 
L 402.582045 254.198666 
L 403.406364 254.776433 
L 405.879318 252.580879 
L 406.703636 253.851993 
L 407.527955 256.79864 
L 408.352273 260.61196 
L 409.176591 258.24308 
L 411.649545 256.509756 
L 412.473864 254.776433 
L 413.298182 258.24308 
L 414.1225 259.687519 
L 414.946818 264.887511 
L 419.892727 266.909717 
L 420.717045 263.096398 
L 424.014318 244.896472 
L 424.838636 243.220916 
L 425.662955 238.714272 
L 426.487273 237.443158 
L 428.960227 233.283165 
L 429.784545 234.149837 
L 430.608864 239.349829 
L 431.433182 240.620921 
L 432.2575 249.287558 
L 434.730455 251.771996 
L 435.554773 247.438677 
L 436.379091 259.456426 
L 437.203409 261.998631 
L 438.027727 256.105315 
L 440.500682 252.234228 
L 441.325 253.04311 
L 442.149318 252.11867 
L 442.973636 253.100878 
L 443.797955 260.843075 
L 446.270909 268.931946 
L 447.095227 270.665269 
L 447.919545 268.931946 
L 448.743864 276.269702 
L 449.568182 282.220786 
L 452.041136 288.287428 
L 452.865455 285.514106 
L 453.689773 294.065186 
L 454.514091 282.914111 
L 457.811364 280.891904 
L 458.635682 279.794138 
L 459.46 283.780783 
L 460.284318 285.109665 
L 461.108636 283.029669 
L 463.581591 282.740785 
L 464.405909 280.776346 
L 466.054545 277.3097 
L 466.878864 268.758598 
L 469.351818 274.998588 
L 470.176136 273.380823 
L 471.000455 263.443071 
L 471.824773 257.665313 
L 472.649091 257.145313 
L 475.122045 265.754183 
L 475.946364 274.131915 
L 476.770682 277.136352 
L 477.595 284.820782 
L 478.419318 288.518544 
L 480.892273 284.185225 
L 481.716591 273.611916 
L 482.540909 271.06971 
L 483.365227 273.207475 
L 484.189545 272.398592 
L 486.6625 266.620834 
L 487.486818 256.220873 
L 488.311136 256.79864 
L 489.135455 250.154231 
L 489.959773 250.731998 
L 492.432727 247.900909 
L 493.257045 246.109796 
L 494.081364 242.527592 
L 494.905682 230.567633 
L 495.73 224.963201 
L 498.202955 222.420995 
L 499.027273 224.500969 
L 499.851591 225.194316 
L 500.675909 221.554322 
L 501.500227 224.212086 
L 503.973182 218.492117 
L 504.7975 215.776564 
L 505.621818 214.909891 
L 507.270455 221.496554 
L 509.743409 225.4832 
L 510.567727 231.087632 
L 511.392045 232.300956 
L 512.216364 231.838725 
L 513.040682 227.100965 
L 515.513636 234.03428 
L 516.337955 232.185399 
L 517.162273 222.652088 
L 517.986591 207.109926 
L 518.810909 197.287732 
L 521.283864 195.669967 
L 522.9325 188.389979 
L 523.756818 191.394416 
L 524.581136 193.58997 
L 527.054091 192.029973 
L 527.878409 188.332211 
L 528.702727 190.412208 
L 529.527045 189.198884 
L 530.351364 190.065534 
L 532.824318 188.909978 
L 533.648636 193.936644 
L 534.472955 191.509974 
L 535.297273 183.19001 
L 536.121591 177.412251 
L 538.594545 171.461167 
L 539.418864 170.941168 
L 540.243182 178.047808 
L 541.0675 164.470062 
L 541.891818 167.532289 
L 544.364773 178.798901 
L 545.189091 171.172261 
L 546.013409 170.305611 
L 546.837727 162.043415 
L 547.662045 156.727865 
L 550.135 163.487854 
L 550.959318 167.821173 
L 551.783636 182.727778 
L 552.607955 185.096658 
L 553.432273 185.616658 
L 555.905227 189.314419 
L 556.729545 190.181092 
L 557.553864 183.421125 
L 558.378182 194.456643 
L 559.2025 203.932163 
L 561.675455 211.443245 
L 562.499773 211.558803 
L 563.324091 208.32325 
L 564.148409 196.709965 
L 564.972727 205.087719 
L 567.445682 204.856604 
L 568.27 211.674361 
L 569.094318 205.029929 
L 569.918636 192.838856 
L 570.742955 192.087763 
L 573.215909 197.634406 
L 574.040227 199.021055 
L 574.864545 191.856647 
L 575.688864 176.487811 
L 576.513182 180.590014 
L 578.986136 205.665486 
L 579.810455 197.287732 
L 580.634773 192.954413 
L 581.459091 192.492204 
L 582.283409 195.669967 
L 584.756364 199.136613 
L 585.580682 204.047721 
L 587.229318 189.083326 
L 588.053636 190.527765 
L 590.526591 190.007766 
L 591.350909 194.456643 
L 592.175227 200.407727 
L 592.999545 188.967768 
L 593.823864 182.843336 
L 596.296818 184.923333 
L 597.121136 187.176655 
L 597.945455 191.22109 
L 598.769773 190.181092 
L 599.594091 186.021099 
L 602.067045 181.514454 
L 602.891364 181.341129 
L 603.715682 180.821129 
L 604.54 181.052245 
L 605.364318 182.612221 
L 607.837273 180.532246 
L 608.661591 171.056704 
L 609.485909 175.910022 
L 610.310227 171.576703 
L 611.134545 173.656699 
L 613.6075 170.074495 
L 614.431818 168.110056 
L 615.256136 167.301174 
L 616.080455 173.772257 
L 616.904773 167.821173 
L 619.377727 168.110056 
L 620.202045 168.861171 
L 621.026364 178.336692 
L 621.850682 173.945583 
L 622.675 183.016684 
L 625.147955 185.732215 
L 625.972273 196.941081 
L 626.796591 199.136613 
L 627.620909 187.754444 
L 630.918182 183.13222 
L 631.7425 185.5011 
L 633.391136 175.621138 
L 634.215455 161.35009 
L 636.688409 166.145618 
L 637.512727 180.24334 
L 638.337045 182.612221 
L 639.161364 172.443375 
L 639.985682 170.421169 
L 642.458636 171.345609 
L 643.282955 168.110056 
L 644.107273 168.630056 
L 644.931591 168.630056 
L 645.755909 161.176742 
L 648.228864 161.118974 
L 649.053182 167.532289 
L 649.8775 161.523415 
L 650.701818 159.038977 
L 651.526136 148.696785 
L 653.999091 146.327904 
L 654.823409 148.639017 
L 655.647727 144.363466 
L 656.472045 143.785699 
L 657.296364 147.887902 
L 659.769318 144.421256 
L 662.242273 147.483461 
L 663.066591 143.2657 
L 665.539545 140.492378 
L 668.0125 137.487941 
L 668.836818 149.274574 
L 671.309773 159.443419 
L 672.134091 148.9279 
L 672.958409 148.350133 
L 673.782727 146.270137 
L 674.607045 144.999023 
L 677.08 140.37682 
L 677.904318 135.234619 
L 678.728636 134.599062 
L 679.552955 133.790179 
L 680.377273 122.754661 
L 682.850227 120.327991 
L 683.674545 130.265743 
L 684.498864 132.865739 
L 685.323182 123.621312 
L 686.1475 133.674621 
L 688.620455 145.11458 
L 689.444773 116.63023 
L 690.269091 131.305741 
L 691.093409 132.230182 
L 691.917727 134.830178 
L 694.390682 129.803512 
L 695.215 125.932424 
L 696.039318 123.216871 
L 696.863636 135.927944 
L 697.687955 151.990105 
L 700.160909 148.9279 
L 701.809545 132.519065 
L 702.633864 136.332385 
L 703.458182 134.945713 
L 705.931136 138.065708 
L 706.755455 141.994586 
L 707.579773 141.647912 
L 708.404091 151.354548 
L 709.228409 155.687867 
L 714.174318 216.469889 
L 714.998636 220.456556 
L 717.471591 216.123237 
L 718.295909 222.998762 
L 719.120227 218.665443 
L 719.944545 256.220873 
L 720.768864 253.736435 
L 723.241818 291.754096 
L 724.066136 268.180831 
L 724.890455 302.442941 
L 725.714773 359.931642 
L 725.714773 359.931642 
" style="fill:none;stroke:#ff7f0e;stroke-linecap:square;stroke-width:1.5;"/>
   </g>
   <g id="patch_3">
    <path d="M 33.2875 398.88 
L 33.2875 7.2 
" style="fill:none;stroke:#000000;stroke-linecap:square;stroke-linejoin:miter;stroke-width:0.8;"/>
   </g>
   <g id="patch_4">
    <path d="M 758.6875 398.88 
L 758.6875 7.2 
" style="fill:none;stroke:#000000;stroke-linecap:square;stroke-linejoin:miter;stroke-width:0.8;"/>
   </g>
   <g id="patch_5">
    <path d="M 33.2875 398.88 
L 758.6875 398.88 
" style="fill:none;stroke:#000000;stroke-linecap:square;stroke-linejoin:miter;stroke-width:0.8;"/>
   </g>
   <g id="patch_6">
    <path d="M 33.2875 7.2 
L 758.6875 7.2 
" style="fill:none;stroke:#000000;stroke-linecap:square;stroke-linejoin:miter;stroke-width:0.8;"/>
   </g>
   <g id="legend_1">
    <g id="patch_7">
     <path d="M 670.192187 44.55625 
L 751.6875 44.55625 
Q 753.6875 44.55625 753.6875 42.55625 
L 753.6875 14.2 
Q 753.6875 12.2 751.6875 12.2 
L 670.192187 12.2 
Q 668.192187 12.2 668.192187 14.2 
L 668.192187 42.55625 
Q 668.192187 44.55625 670.192187 44.55625 
z
" style="fill:#ffffff;opacity:0.8;stroke:#cccccc;stroke-linejoin:miter;"/>
    </g>
    <g id="line2d_18">
     <path d="M 672.192187 20.298437 
L 692.192187 20.298437 
" style="fill:none;stroke:#1f77b4;stroke-linecap:square;stroke-width:1.5;"/>
    </g>
    <g id="line2d_19"/>
    <g id="text_17">
     <!-- GOLL4.SA -->
     <defs>
      <path d="M 59.515625 10.40625 
L 59.515625 29.984375 
L 43.40625 29.984375 
L 43.40625 38.09375 
L 69.28125 38.09375 
L 69.28125 6.78125 
Q 63.578125 2.734375 56.6875 0.65625 
Q 49.8125 -1.421875 42 -1.421875 
Q 24.90625 -1.421875 15.25 8.5625 
Q 5.609375 18.5625 5.609375 36.375 
Q 5.609375 54.25 15.25 64.234375 
Q 24.90625 74.21875 42 74.21875 
Q 49.125 74.21875 55.546875 72.453125 
Q 61.96875 70.703125 67.390625 67.28125 
L 67.390625 56.78125 
Q 61.921875 61.421875 55.765625 63.765625 
Q 49.609375 66.109375 42.828125 66.109375 
Q 29.4375 66.109375 22.71875 58.640625 
Q 16.015625 51.171875 16.015625 36.375 
Q 16.015625 21.625 22.71875 14.15625 
Q 29.4375 6.6875 42.828125 6.6875 
Q 48.046875 6.6875 52.140625 7.59375 
Q 56.25 8.5 59.515625 10.40625 
z
" id="DejaVuSans-71"/>
      <path d="M 39.40625 66.21875 
Q 28.65625 66.21875 22.328125 58.203125 
Q 16.015625 50.203125 16.015625 36.375 
Q 16.015625 22.609375 22.328125 14.59375 
Q 28.65625 6.59375 39.40625 6.59375 
Q 50.140625 6.59375 56.421875 14.59375 
Q 62.703125 22.609375 62.703125 36.375 
Q 62.703125 50.203125 56.421875 58.203125 
Q 50.140625 66.21875 39.40625 66.21875 
z
M 39.40625 74.21875 
Q 54.734375 74.21875 63.90625 63.9375 
Q 73.09375 53.65625 73.09375 36.375 
Q 73.09375 19.140625 63.90625 8.859375 
Q 54.734375 -1.421875 39.40625 -1.421875 
Q 24.03125 -1.421875 14.8125 8.828125 
Q 5.609375 19.09375 5.609375 36.375 
Q 5.609375 53.65625 14.8125 63.9375 
Q 24.03125 74.21875 39.40625 74.21875 
z
" id="DejaVuSans-79"/>
      <path d="M 9.8125 72.90625 
L 19.671875 72.90625 
L 19.671875 8.296875 
L 55.171875 8.296875 
L 55.171875 0 
L 9.8125 0 
z
" id="DejaVuSans-76"/>
      <path d="M 10.6875 12.40625 
L 21 12.40625 
L 21 0 
L 10.6875 0 
z
" id="DejaVuSans-46"/>
      <path d="M 53.515625 70.515625 
L 53.515625 60.890625 
Q 47.90625 63.578125 42.921875 64.890625 
Q 37.9375 66.21875 33.296875 66.21875 
Q 25.25 66.21875 20.875 63.09375 
Q 16.5 59.96875 16.5 54.203125 
Q 16.5 49.359375 19.40625 46.890625 
Q 22.3125 44.4375 30.421875 42.921875 
L 36.375 41.703125 
Q 47.40625 39.59375 52.65625 34.296875 
Q 57.90625 29 57.90625 20.125 
Q 57.90625 9.515625 50.796875 4.046875 
Q 43.703125 -1.421875 29.984375 -1.421875 
Q 24.8125 -1.421875 18.96875 -0.25 
Q 13.140625 0.921875 6.890625 3.21875 
L 6.890625 13.375 
Q 12.890625 10.015625 18.65625 8.296875 
Q 24.421875 6.59375 29.984375 6.59375 
Q 38.421875 6.59375 43.015625 9.90625 
Q 47.609375 13.234375 47.609375 19.390625 
Q 47.609375 24.75 44.3125 27.78125 
Q 41.015625 30.8125 33.5 32.328125 
L 27.484375 33.5 
Q 16.453125 35.6875 11.515625 40.375 
Q 6.59375 45.0625 6.59375 53.421875 
Q 6.59375 63.09375 13.40625 68.65625 
Q 20.21875 74.21875 32.171875 74.21875 
Q 37.3125 74.21875 42.625 73.28125 
Q 47.953125 72.359375 53.515625 70.515625 
z
" id="DejaVuSans-83"/>
      <path d="M 34.1875 63.1875 
L 20.796875 26.90625 
L 47.609375 26.90625 
z
M 28.609375 72.90625 
L 39.796875 72.90625 
L 67.578125 0 
L 57.328125 0 
L 50.6875 18.703125 
L 17.828125 18.703125 
L 11.1875 0 
L 0.78125 0 
z
" id="DejaVuSans-65"/>
     </defs>
     <g transform="translate(700.192187 23.798437)scale(0.1 -0.1)">
      <use xlink:href="#DejaVuSans-71"/>
      <use x="77.490234" xlink:href="#DejaVuSans-79"/>
      <use x="156.201172" xlink:href="#DejaVuSans-76"/>
      <use x="211.914062" xlink:href="#DejaVuSans-76"/>
      <use x="267.626953" xlink:href="#DejaVuSans-52"/>
      <use x="331.25" xlink:href="#DejaVuSans-46"/>
      <use x="363.037109" xlink:href="#DejaVuSans-83"/>
      <use x="426.529297" xlink:href="#DejaVuSans-65"/>
     </g>
    </g>
    <g id="line2d_20">
     <path d="M 672.192187 34.976562 
L 692.192187 34.976562 
" style="fill:none;stroke:#ff7f0e;stroke-linecap:square;stroke-width:1.5;"/>
    </g>
    <g id="line2d_21"/>
    <g id="text_18">
     <!-- AZUL4.SA -->
     <defs>
      <path d="M 5.609375 72.90625 
L 62.890625 72.90625 
L 62.890625 65.375 
L 16.796875 8.296875 
L 64.015625 8.296875 
L 64.015625 0 
L 4.5 0 
L 4.5 7.515625 
L 50.59375 64.59375 
L 5.609375 64.59375 
z
" id="DejaVuSans-90"/>
      <path d="M 8.6875 72.90625 
L 18.609375 72.90625 
L 18.609375 28.609375 
Q 18.609375 16.890625 22.84375 11.734375 
Q 27.09375 6.59375 36.625 6.59375 
Q 46.09375 6.59375 50.34375 11.734375 
Q 54.59375 16.890625 54.59375 28.609375 
L 54.59375 72.90625 
L 64.5 72.90625 
L 64.5 27.390625 
Q 64.5 13.140625 57.4375 5.859375 
Q 50.390625 -1.421875 36.625 -1.421875 
Q 22.796875 -1.421875 15.734375 5.859375 
Q 8.6875 13.140625 8.6875 27.390625 
z
" id="DejaVuSans-85"/>
     </defs>
     <g transform="translate(700.192187 38.476562)scale(0.1 -0.1)">
      <use xlink:href="#DejaVuSans-65"/>
      <use x="68.408203" xlink:href="#DejaVuSans-90"/>
      <use x="136.914062" xlink:href="#DejaVuSans-85"/>
      <use x="210.107422" xlink:href="#DejaVuSans-76"/>
      <use x="265.820312" xlink:href="#DejaVuSans-52"/>
      <use x="329.443359" xlink:href="#DejaVuSans-46"/>
      <use x="361.230469" xlink:href="#DejaVuSans-83"/>
      <use x="424.722656" xlink:href="#DejaVuSans-65"/>
     </g>
    </g>
   </g>
  </g>
 </g>
 <defs>
  <clipPath id="p16467a30cf">
   <rect height="391.68" width="725.4" x="33.2875" y="7.2"/>
  </clipPath>
 </defs>
</svg>
