<?xml version="1.0" encoding="utf-8" standalone="no"?>
<!DOCTYPE svg PUBLIC "-//W3C//DTD SVG 1.1//EN"
  "http://www.w3.org/Graphics/SVG/1.1/DTD/svg11.dtd">
<!-- Created with matplotlib (https://matplotlib.org/) -->
<svg height="456.031033pt" version="1.1" viewBox="0 0 759.525 456.031033" width="759.525pt" xmlns="http://www.w3.org/2000/svg" xmlns:xlink="http://www.w3.org/1999/xlink">
 <defs>
  <style type="text/css">
*{stroke-linecap:butt;stroke-linejoin:round;}
  </style>
 </defs>
 <g id="figure_1">
  <g id="patch_1">
   <path d="M 0 456.031033 
L 759.525 456.031033 
L 759.525 0 
L 0 0 
z
" style="fill:none;"/>
  </g>
  <g id="axes_1">
   <g id="patch_2">
    <path d="M 26.925 398.88 
L 752.325 398.88 
L 752.325 7.2 
L 26.925 7.2 
z
" style="fill:#ffffff;"/>
   </g>
   <g id="matplotlib.axis_1">
    <g id="xtick_1">
     <g id="line2d_1">
      <defs>
       <path d="M 0 0 
L 0 3.5 
" id="mcd4d437f2a" style="stroke:#000000;stroke-width:0.8;"/>
      </defs>
      <g>
       <use style="stroke:#000000;stroke-width:0.8;" x="59.073409" xlink:href="#mcd4d437f2a" y="398.88"/>
      </g>
     </g>
     <g id="text_1">
      <!-- 2018-01 -->
      <defs>
       <path d="M 19.1875 8.296875 
L 53.609375 8.296875 
L 53.609375 0 
L 7.328125 0 
L 7.328125 8.296875 
Q 12.9375 14.109375 22.625 23.890625 
Q 32.328125 33.6875 34.8125 36.53125 
Q 39.546875 41.84375 41.421875 45.53125 
Q 43.3125 49.21875 43.3125 52.78125 
Q 43.3125 58.59375 39.234375 62.25 
Q 35.15625 65.921875 28.609375 65.921875 
Q 23.96875 65.921875 18.8125 64.3125 
Q 13.671875 62.703125 7.8125 59.421875 
L 7.8125 69.390625 
Q 13.765625 71.78125 18.9375 73 
Q 24.125 74.21875 28.421875 74.21875 
Q 39.75 74.21875 46.484375 68.546875 
Q 53.21875 62.890625 53.21875 53.421875 
Q 53.21875 48.921875 51.53125 44.890625 
Q 49.859375 40.875 45.40625 35.40625 
Q 44.1875 33.984375 37.640625 27.21875 
Q 31.109375 20.453125 19.1875 8.296875 
z
" id="DejaVuSans-50"/>
       <path d="M 31.78125 66.40625 
Q 24.171875 66.40625 20.328125 58.90625 
Q 16.5 51.421875 16.5 36.375 
Q 16.5 21.390625 20.328125 13.890625 
Q 24.171875 6.390625 31.78125 6.390625 
Q 39.453125 6.390625 43.28125 13.890625 
Q 47.125 21.390625 47.125 36.375 
Q 47.125 51.421875 43.28125 58.90625 
Q 39.453125 66.40625 31.78125 66.40625 
z
M 31.78125 74.21875 
Q 44.046875 74.21875 50.515625 64.515625 
Q 56.984375 54.828125 56.984375 36.375 
Q 56.984375 17.96875 50.515625 8.265625 
Q 44.046875 -1.421875 31.78125 -1.421875 
Q 19.53125 -1.421875 13.0625 8.265625 
Q 6.59375 17.96875 6.59375 36.375 
Q 6.59375 54.828125 13.0625 64.515625 
Q 19.53125 74.21875 31.78125 74.21875 
z
" id="DejaVuSans-48"/>
       <path d="M 12.40625 8.296875 
L 28.515625 8.296875 
L 28.515625 63.921875 
L 10.984375 60.40625 
L 10.984375 69.390625 
L 28.421875 72.90625 
L 38.28125 72.90625 
L 38.28125 8.296875 
L 54.390625 8.296875 
L 54.390625 0 
L 12.40625 0 
z
" id="DejaVuSans-49"/>
       <path d="M 31.78125 34.625 
Q 24.75 34.625 20.71875 30.859375 
Q 16.703125 27.09375 16.703125 20.515625 
Q 16.703125 13.921875 20.71875 10.15625 
Q 24.75 6.390625 31.78125 6.390625 
Q 38.8125 6.390625 42.859375 10.171875 
Q 46.921875 13.96875 46.921875 20.515625 
Q 46.921875 27.09375 42.890625 30.859375 
Q 38.875 34.625 31.78125 34.625 
z
M 21.921875 38.8125 
Q 15.578125 40.375 12.03125 44.71875 
Q 8.5 49.078125 8.5 55.328125 
Q 8.5 64.0625 14.71875 69.140625 
Q 20.953125 74.21875 31.78125 74.21875 
Q 42.671875 74.21875 48.875 69.140625 
Q 55.078125 64.0625 55.078125 55.328125 
Q 55.078125 49.078125 51.53125 44.71875 
Q 48 40.375 41.703125 38.8125 
Q 48.828125 37.15625 52.796875 32.3125 
Q 56.78125 27.484375 56.78125 20.515625 
Q 56.78125 9.90625 50.3125 4.234375 
Q 43.84375 -1.421875 31.78125 -1.421875 
Q 19.734375 -1.421875 13.25 4.234375 
Q 6.78125 9.90625 6.78125 20.515625 
Q 6.78125 27.484375 10.78125 32.3125 
Q 14.796875 37.15625 21.921875 38.8125 
z
M 18.3125 54.390625 
Q 18.3125 48.734375 21.84375 45.5625 
Q 25.390625 42.390625 31.78125 42.390625 
Q 38.140625 42.390625 41.71875 45.5625 
Q 45.3125 48.734375 45.3125 54.390625 
Q 45.3125 60.0625 41.71875 63.234375 
Q 38.140625 66.40625 31.78125 66.40625 
Q 25.390625 66.40625 21.84375 63.234375 
Q 18.3125 60.0625 18.3125 54.390625 
z
" id="DejaVuSans-56"/>
       <path d="M 4.890625 31.390625 
L 31.203125 31.390625 
L 31.203125 23.390625 
L 4.890625 23.390625 
z
" id="DejaVuSans-45"/>
      </defs>
      <g transform="translate(21.848588 433.351846)rotate(-30)scale(0.1 -0.1)">
       <use xlink:href="#DejaVuSans-50"/>
       <use x="63.623047" xlink:href="#DejaVuSans-48"/>
       <use x="127.246094" xlink:href="#DejaVuSans-49"/>
       <use x="190.869141" xlink:href="#DejaVuSans-56"/>
       <use x="254.492188" xlink:href="#DejaVuSans-45"/>
       <use x="290.576172" xlink:href="#DejaVuSans-48"/>
       <use x="354.199219" xlink:href="#DejaVuSans-49"/>
      </g>
     </g>
    </g>
    <g id="xtick_2">
     <g id="line2d_2">
      <g>
       <use style="stroke:#000000;stroke-width:0.8;" x="133.262045" xlink:href="#mcd4d437f2a" y="398.88"/>
      </g>
     </g>
     <g id="text_2">
      <!-- 2018-04 -->
      <defs>
       <path d="M 37.796875 64.3125 
L 12.890625 25.390625 
L 37.796875 25.390625 
z
M 35.203125 72.90625 
L 47.609375 72.90625 
L 47.609375 25.390625 
L 58.015625 25.390625 
L 58.015625 17.1875 
L 47.609375 17.1875 
L 47.609375 0 
L 37.796875 0 
L 37.796875 17.1875 
L 4.890625 17.1875 
L 4.890625 26.703125 
z
" id="DejaVuSans-52"/>
      </defs>
      <g transform="translate(96.037225 433.351846)rotate(-30)scale(0.1 -0.1)">
       <use xlink:href="#DejaVuSans-50"/>
       <use x="63.623047" xlink:href="#DejaVuSans-48"/>
       <use x="127.246094" xlink:href="#DejaVuSans-49"/>
       <use x="190.869141" xlink:href="#DejaVuSans-56"/>
       <use x="254.492188" xlink:href="#DejaVuSans-45"/>
       <use x="290.576172" xlink:href="#DejaVuSans-48"/>
       <use x="354.199219" xlink:href="#DejaVuSans-52"/>
      </g>
     </g>
    </g>
    <g id="xtick_3">
     <g id="line2d_3">
      <g>
       <use style="stroke:#000000;stroke-width:0.8;" x="208.275" xlink:href="#mcd4d437f2a" y="398.88"/>
      </g>
     </g>
     <g id="text_3">
      <!-- 2018-07 -->
      <defs>
       <path d="M 8.203125 72.90625 
L 55.078125 72.90625 
L 55.078125 68.703125 
L 28.609375 0 
L 18.3125 0 
L 43.21875 64.59375 
L 8.203125 64.59375 
z
" id="DejaVuSans-55"/>
      </defs>
      <g transform="translate(171.050179 433.351846)rotate(-30)scale(0.1 -0.1)">
       <use xlink:href="#DejaVuSans-50"/>
       <use x="63.623047" xlink:href="#DejaVuSans-48"/>
       <use x="127.246094" xlink:href="#DejaVuSans-49"/>
       <use x="190.869141" xlink:href="#DejaVuSans-56"/>
       <use x="254.492188" xlink:href="#DejaVuSans-45"/>
       <use x="290.576172" xlink:href="#DejaVuSans-48"/>
       <use x="354.199219" xlink:href="#DejaVuSans-55"/>
      </g>
     </g>
    </g>
    <g id="xtick_4">
     <g id="line2d_4">
      <g>
       <use style="stroke:#000000;stroke-width:0.8;" x="284.112273" xlink:href="#mcd4d437f2a" y="398.88"/>
      </g>
     </g>
     <g id="text_4">
      <!-- 2018-10 -->
      <g transform="translate(246.887452 433.351846)rotate(-30)scale(0.1 -0.1)">
       <use xlink:href="#DejaVuSans-50"/>
       <use x="63.623047" xlink:href="#DejaVuSans-48"/>
       <use x="127.246094" xlink:href="#DejaVuSans-49"/>
       <use x="190.869141" xlink:href="#DejaVuSans-56"/>
       <use x="254.492188" xlink:href="#DejaVuSans-45"/>
       <use x="290.576172" xlink:href="#DejaVuSans-49"/>
       <use x="354.199219" xlink:href="#DejaVuSans-48"/>
      </g>
     </g>
    </g>
    <g id="xtick_5">
     <g id="line2d_5">
      <g>
       <use style="stroke:#000000;stroke-width:0.8;" x="359.949545" xlink:href="#mcd4d437f2a" y="398.88"/>
      </g>
     </g>
     <g id="text_5">
      <!-- 2019-01 -->
      <defs>
       <path d="M 10.984375 1.515625 
L 10.984375 10.5 
Q 14.703125 8.734375 18.5 7.8125 
Q 22.3125 6.890625 25.984375 6.890625 
Q 35.75 6.890625 40.890625 13.453125 
Q 46.046875 20.015625 46.78125 33.40625 
Q 43.953125 29.203125 39.59375 26.953125 
Q 35.25 24.703125 29.984375 24.703125 
Q 19.046875 24.703125 12.671875 31.3125 
Q 6.296875 37.9375 6.296875 49.421875 
Q 6.296875 60.640625 12.9375 67.421875 
Q 19.578125 74.21875 30.609375 74.21875 
Q 43.265625 74.21875 49.921875 64.515625 
Q 56.59375 54.828125 56.59375 36.375 
Q 56.59375 19.140625 48.40625 8.859375 
Q 40.234375 -1.421875 26.421875 -1.421875 
Q 22.703125 -1.421875 18.890625 -0.6875 
Q 15.09375 0.046875 10.984375 1.515625 
z
M 30.609375 32.421875 
Q 37.25 32.421875 41.125 36.953125 
Q 45.015625 41.5 45.015625 49.421875 
Q 45.015625 57.28125 41.125 61.84375 
Q 37.25 66.40625 30.609375 66.40625 
Q 23.96875 66.40625 20.09375 61.84375 
Q 16.21875 57.28125 16.21875 49.421875 
Q 16.21875 41.5 20.09375 36.953125 
Q 23.96875 32.421875 30.609375 32.421875 
z
" id="DejaVuSans-57"/>
      </defs>
      <g transform="translate(322.724725 433.351846)rotate(-30)scale(0.1 -0.1)">
       <use xlink:href="#DejaVuSans-50"/>
       <use x="63.623047" xlink:href="#DejaVuSans-48"/>
       <use x="127.246094" xlink:href="#DejaVuSans-49"/>
       <use x="190.869141" xlink:href="#DejaVuSans-57"/>
       <use x="254.492188" xlink:href="#DejaVuSans-45"/>
       <use x="290.576172" xlink:href="#DejaVuSans-48"/>
       <use x="354.199219" xlink:href="#DejaVuSans-49"/>
      </g>
     </g>
    </g>
    <g id="xtick_6">
     <g id="line2d_6">
      <g>
       <use style="stroke:#000000;stroke-width:0.8;" x="434.138182" xlink:href="#mcd4d437f2a" y="398.88"/>
      </g>
     </g>
     <g id="text_6">
      <!-- 2019-04 -->
      <g transform="translate(396.913361 433.351846)rotate(-30)scale(0.1 -0.1)">
       <use xlink:href="#DejaVuSans-50"/>
       <use x="63.623047" xlink:href="#DejaVuSans-48"/>
       <use x="127.246094" xlink:href="#DejaVuSans-49"/>
       <use x="190.869141" xlink:href="#DejaVuSans-57"/>
       <use x="254.492188" xlink:href="#DejaVuSans-45"/>
       <use x="290.576172" xlink:href="#DejaVuSans-48"/>
       <use x="354.199219" xlink:href="#DejaVuSans-52"/>
      </g>
     </g>
    </g>
    <g id="xtick_7">
     <g id="line2d_7">
      <g>
       <use style="stroke:#000000;stroke-width:0.8;" x="509.151136" xlink:href="#mcd4d437f2a" y="398.88"/>
      </g>
     </g>
     <g id="text_7">
      <!-- 2019-07 -->
      <g transform="translate(471.926316 433.351846)rotate(-30)scale(0.1 -0.1)">
       <use xlink:href="#DejaVuSans-50"/>
       <use x="63.623047" xlink:href="#DejaVuSans-48"/>
       <use x="127.246094" xlink:href="#DejaVuSans-49"/>
       <use x="190.869141" xlink:href="#DejaVuSans-57"/>
       <use x="254.492188" xlink:href="#DejaVuSans-45"/>
       <use x="290.576172" xlink:href="#DejaVuSans-48"/>
       <use x="354.199219" xlink:href="#DejaVuSans-55"/>
      </g>
     </g>
    </g>
    <g id="xtick_8">
     <g id="line2d_8">
      <g>
       <use style="stroke:#000000;stroke-width:0.8;" x="584.988409" xlink:href="#mcd4d437f2a" y="398.88"/>
      </g>
     </g>
     <g id="text_8">
      <!-- 2019-10 -->
      <g transform="translate(547.763588 433.351846)rotate(-30)scale(0.1 -0.1)">
       <use xlink:href="#DejaVuSans-50"/>
       <use x="63.623047" xlink:href="#DejaVuSans-48"/>
       <use x="127.246094" xlink:href="#DejaVuSans-49"/>
       <use x="190.869141" xlink:href="#DejaVuSans-57"/>
       <use x="254.492188" xlink:href="#DejaVuSans-45"/>
       <use x="290.576172" xlink:href="#DejaVuSans-49"/>
       <use x="354.199219" xlink:href="#DejaVuSans-48"/>
      </g>
     </g>
    </g>
    <g id="xtick_9">
     <g id="line2d_9">
      <g>
       <use style="stroke:#000000;stroke-width:0.8;" x="660.825682" xlink:href="#mcd4d437f2a" y="398.88"/>
      </g>
     </g>
     <g id="text_9">
      <!-- 2020-01 -->
      <g transform="translate(623.600861 433.351846)rotate(-30)scale(0.1 -0.1)">
       <use xlink:href="#DejaVuSans-50"/>
       <use x="63.623047" xlink:href="#DejaVuSans-48"/>
       <use x="127.246094" xlink:href="#DejaVuSans-50"/>
       <use x="190.869141" xlink:href="#DejaVuSans-48"/>
       <use x="254.492188" xlink:href="#DejaVuSans-45"/>
       <use x="290.576172" xlink:href="#DejaVuSans-48"/>
       <use x="354.199219" xlink:href="#DejaVuSans-49"/>
      </g>
     </g>
    </g>
    <g id="xtick_10">
     <g id="line2d_10">
      <g>
       <use style="stroke:#000000;stroke-width:0.8;" x="735.838636" xlink:href="#mcd4d437f2a" y="398.88"/>
      </g>
     </g>
     <g id="text_10">
      <!-- 2020-04 -->
      <g transform="translate(698.613816 433.351846)rotate(-30)scale(0.1 -0.1)">
       <use xlink:href="#DejaVuSans-50"/>
       <use x="63.623047" xlink:href="#DejaVuSans-48"/>
       <use x="127.246094" xlink:href="#DejaVuSans-50"/>
       <use x="190.869141" xlink:href="#DejaVuSans-48"/>
       <use x="254.492188" xlink:href="#DejaVuSans-45"/>
       <use x="290.576172" xlink:href="#DejaVuSans-48"/>
       <use x="354.199219" xlink:href="#DejaVuSans-52"/>
      </g>
     </g>
    </g>
    <g id="text_11">
     <!-- Date -->
     <defs>
      <path d="M 19.671875 64.796875 
L 19.671875 8.109375 
L 31.59375 8.109375 
Q 46.6875 8.109375 53.6875 14.9375 
Q 60.6875 21.78125 60.6875 36.53125 
Q 60.6875 51.171875 53.6875 57.984375 
Q 46.6875 64.796875 31.59375 64.796875 
z
M 9.8125 72.90625 
L 30.078125 72.90625 
Q 51.265625 72.90625 61.171875 64.09375 
Q 71.09375 55.28125 71.09375 36.53125 
Q 71.09375 17.671875 61.125 8.828125 
Q 51.171875 0 30.078125 0 
L 9.8125 0 
z
" id="DejaVuSans-68"/>
      <path d="M 34.28125 27.484375 
Q 23.390625 27.484375 19.1875 25 
Q 14.984375 22.515625 14.984375 16.5 
Q 14.984375 11.71875 18.140625 8.90625 
Q 21.296875 6.109375 26.703125 6.109375 
Q 34.1875 6.109375 38.703125 11.40625 
Q 43.21875 16.703125 43.21875 25.484375 
L 43.21875 27.484375 
z
M 52.203125 31.203125 
L 52.203125 0 
L 43.21875 0 
L 43.21875 8.296875 
Q 40.140625 3.328125 35.546875 0.953125 
Q 30.953125 -1.421875 24.3125 -1.421875 
Q 15.921875 -1.421875 10.953125 3.296875 
Q 6 8.015625 6 15.921875 
Q 6 25.140625 12.171875 29.828125 
Q 18.359375 34.515625 30.609375 34.515625 
L 43.21875 34.515625 
L 43.21875 35.40625 
Q 43.21875 41.609375 39.140625 45 
Q 35.0625 48.390625 27.6875 48.390625 
Q 23 48.390625 18.546875 47.265625 
Q 14.109375 46.140625 10.015625 43.890625 
L 10.015625 52.203125 
Q 14.9375 54.109375 19.578125 55.046875 
Q 24.21875 56 28.609375 56 
Q 40.484375 56 46.34375 49.84375 
Q 52.203125 43.703125 52.203125 31.203125 
z
" id="DejaVuSans-97"/>
      <path d="M 18.3125 70.21875 
L 18.3125 54.6875 
L 36.8125 54.6875 
L 36.8125 47.703125 
L 18.3125 47.703125 
L 18.3125 18.015625 
Q 18.3125 11.328125 20.140625 9.421875 
Q 21.96875 7.515625 27.59375 7.515625 
L 36.8125 7.515625 
L 36.8125 0 
L 27.59375 0 
Q 17.1875 0 13.234375 3.875 
Q 9.28125 7.765625 9.28125 18.015625 
L 9.28125 47.703125 
L 2.6875 47.703125 
L 2.6875 54.6875 
L 9.28125 54.6875 
L 9.28125 70.21875 
z
" id="DejaVuSans-116"/>
      <path d="M 56.203125 29.59375 
L 56.203125 25.203125 
L 14.890625 25.203125 
Q 15.484375 15.921875 20.484375 11.0625 
Q 25.484375 6.203125 34.421875 6.203125 
Q 39.59375 6.203125 44.453125 7.46875 
Q 49.3125 8.734375 54.109375 11.28125 
L 54.109375 2.78125 
Q 49.265625 0.734375 44.1875 -0.34375 
Q 39.109375 -1.421875 33.890625 -1.421875 
Q 20.796875 -1.421875 13.15625 6.1875 
Q 5.515625 13.8125 5.515625 26.8125 
Q 5.515625 40.234375 12.765625 48.109375 
Q 20.015625 56 32.328125 56 
Q 43.359375 56 49.78125 48.890625 
Q 56.203125 41.796875 56.203125 29.59375 
z
M 47.21875 32.234375 
Q 47.125 39.59375 43.09375 43.984375 
Q 39.0625 48.390625 32.421875 48.390625 
Q 24.90625 48.390625 20.390625 44.140625 
Q 15.875 39.890625 15.1875 32.171875 
z
" id="DejaVuSans-101"/>
     </defs>
     <g transform="translate(377.674219 446.751346)scale(0.1 -0.1)">
      <use xlink:href="#DejaVuSans-68"/>
      <use x="77.001953" xlink:href="#DejaVuSans-97"/>
      <use x="138.28125" xlink:href="#DejaVuSans-116"/>
      <use x="177.490234" xlink:href="#DejaVuSans-101"/>
     </g>
    </g>
   </g>
   <g id="matplotlib.axis_2">
    <g id="ytick_1">
     <g id="line2d_11">
      <defs>
       <path d="M 0 0 
L -3.5 0 
" id="m20d431f433" style="stroke:#000000;stroke-width:0.8;"/>
      </defs>
      <g>
       <use style="stroke:#000000;stroke-width:0.8;" x="26.925" xlink:href="#m20d431f433" y="376.449433"/>
      </g>
     </g>
     <g id="text_12">
      <!-- 10 -->
      <g transform="translate(7.2 380.248651)scale(0.1 -0.1)">
       <use xlink:href="#DejaVuSans-49"/>
       <use x="63.623047" xlink:href="#DejaVuSans-48"/>
      </g>
     </g>
    </g>
    <g id="ytick_2">
     <g id="line2d_12">
      <g>
       <use style="stroke:#000000;stroke-width:0.8;" x="26.925" xlink:href="#m20d431f433" y="309.392421"/>
      </g>
     </g>
     <g id="text_13">
      <!-- 20 -->
      <g transform="translate(7.2 313.19164)scale(0.1 -0.1)">
       <use xlink:href="#DejaVuSans-50"/>
       <use x="63.623047" xlink:href="#DejaVuSans-48"/>
      </g>
     </g>
    </g>
    <g id="ytick_3">
     <g id="line2d_13">
      <g>
       <use style="stroke:#000000;stroke-width:0.8;" x="26.925" xlink:href="#m20d431f433" y="242.33541"/>
      </g>
     </g>
     <g id="text_14">
      <!-- 30 -->
      <defs>
       <path d="M 40.578125 39.3125 
Q 47.65625 37.796875 51.625 33 
Q 55.609375 28.21875 55.609375 21.1875 
Q 55.609375 10.40625 48.1875 4.484375 
Q 40.765625 -1.421875 27.09375 -1.421875 
Q 22.515625 -1.421875 17.65625 -0.515625 
Q 12.796875 0.390625 7.625 2.203125 
L 7.625 11.71875 
Q 11.71875 9.328125 16.59375 8.109375 
Q 21.484375 6.890625 26.8125 6.890625 
Q 36.078125 6.890625 40.9375 10.546875 
Q 45.796875 14.203125 45.796875 21.1875 
Q 45.796875 27.640625 41.28125 31.265625 
Q 36.765625 34.90625 28.71875 34.90625 
L 20.21875 34.90625 
L 20.21875 43.015625 
L 29.109375 43.015625 
Q 36.375 43.015625 40.234375 45.921875 
Q 44.09375 48.828125 44.09375 54.296875 
Q 44.09375 59.90625 40.109375 62.90625 
Q 36.140625 65.921875 28.71875 65.921875 
Q 24.65625 65.921875 20.015625 65.03125 
Q 15.375 64.15625 9.8125 62.3125 
L 9.8125 71.09375 
Q 15.4375 72.65625 20.34375 73.4375 
Q 25.25 74.21875 29.59375 74.21875 
Q 40.828125 74.21875 47.359375 69.109375 
Q 53.90625 64.015625 53.90625 55.328125 
Q 53.90625 49.265625 50.4375 45.09375 
Q 46.96875 40.921875 40.578125 39.3125 
z
" id="DejaVuSans-51"/>
      </defs>
      <g transform="translate(7.2 246.134628)scale(0.1 -0.1)">
       <use xlink:href="#DejaVuSans-51"/>
       <use x="63.623047" xlink:href="#DejaVuSans-48"/>
      </g>
     </g>
    </g>
    <g id="ytick_4">
     <g id="line2d_14">
      <g>
       <use style="stroke:#000000;stroke-width:0.8;" x="26.925" xlink:href="#m20d431f433" y="175.278398"/>
      </g>
     </g>
     <g id="text_15">
      <!-- 40 -->
      <g transform="translate(7.2 179.077617)scale(0.1 -0.1)">
       <use xlink:href="#DejaVuSans-52"/>
       <use x="63.623047" xlink:href="#DejaVuSans-48"/>
      </g>
     </g>
    </g>
    <g id="ytick_5">
     <g id="line2d_15">
      <g>
       <use style="stroke:#000000;stroke-width:0.8;" x="26.925" xlink:href="#m20d431f433" y="108.221387"/>
      </g>
     </g>
     <g id="text_16">
      <!-- 50 -->
      <defs>
       <path d="M 10.796875 72.90625 
L 49.515625 72.90625 
L 49.515625 64.59375 
L 19.828125 64.59375 
L 19.828125 46.734375 
Q 21.96875 47.46875 24.109375 47.828125 
Q 26.265625 48.1875 28.421875 48.1875 
Q 40.625 48.1875 47.75 41.5 
Q 54.890625 34.8125 54.890625 23.390625 
Q 54.890625 11.625 47.5625 5.09375 
Q 40.234375 -1.421875 26.90625 -1.421875 
Q 22.3125 -1.421875 17.546875 -0.640625 
Q 12.796875 0.140625 7.71875 1.703125 
L 7.71875 11.625 
Q 12.109375 9.234375 16.796875 8.0625 
Q 21.484375 6.890625 26.703125 6.890625 
Q 35.15625 6.890625 40.078125 11.328125 
Q 45.015625 15.765625 45.015625 23.390625 
Q 45.015625 31 40.078125 35.4375 
Q 35.15625 39.890625 26.703125 39.890625 
Q 22.75 39.890625 18.8125 39.015625 
Q 14.890625 38.140625 10.796875 36.28125 
z
" id="DejaVuSans-53"/>
      </defs>
      <g transform="translate(7.2 112.020605)scale(0.1 -0.1)">
       <use xlink:href="#DejaVuSans-53"/>
       <use x="63.623047" xlink:href="#DejaVuSans-48"/>
      </g>
     </g>
    </g>
    <g id="ytick_6">
     <g id="line2d_16">
      <g>
       <use style="stroke:#000000;stroke-width:0.8;" x="26.925" xlink:href="#m20d431f433" y="41.164375"/>
      </g>
     </g>
     <g id="text_17">
      <!-- 60 -->
      <defs>
       <path d="M 33.015625 40.375 
Q 26.375 40.375 22.484375 35.828125 
Q 18.609375 31.296875 18.609375 23.390625 
Q 18.609375 15.53125 22.484375 10.953125 
Q 26.375 6.390625 33.015625 6.390625 
Q 39.65625 6.390625 43.53125 10.953125 
Q 47.40625 15.53125 47.40625 23.390625 
Q 47.40625 31.296875 43.53125 35.828125 
Q 39.65625 40.375 33.015625 40.375 
z
M 52.59375 71.296875 
L 52.59375 62.3125 
Q 48.875 64.0625 45.09375 64.984375 
Q 41.3125 65.921875 37.59375 65.921875 
Q 27.828125 65.921875 22.671875 59.328125 
Q 17.53125 52.734375 16.796875 39.40625 
Q 19.671875 43.65625 24.015625 45.921875 
Q 28.375 48.1875 33.59375 48.1875 
Q 44.578125 48.1875 50.953125 41.515625 
Q 57.328125 34.859375 57.328125 23.390625 
Q 57.328125 12.15625 50.6875 5.359375 
Q 44.046875 -1.421875 33.015625 -1.421875 
Q 20.359375 -1.421875 13.671875 8.265625 
Q 6.984375 17.96875 6.984375 36.375 
Q 6.984375 53.65625 15.1875 63.9375 
Q 23.390625 74.21875 37.203125 74.21875 
Q 40.921875 74.21875 44.703125 73.484375 
Q 48.484375 72.75 52.59375 71.296875 
z
" id="DejaVuSans-54"/>
      </defs>
      <g transform="translate(7.2 44.963594)scale(0.1 -0.1)">
       <use xlink:href="#DejaVuSans-54"/>
       <use x="63.623047" xlink:href="#DejaVuSans-48"/>
      </g>
     </g>
    </g>
   </g>
   <g id="line2d_17">
    <path clip-path="url(#p790e192ff3)" d="M 59.897727 341.646846 
L 60.722045 342.853868 
L 61.546364 339.031621 
L 62.370682 338.495165 
L 64.843636 338.226937 
L 65.667955 340.775105 
L 66.492273 342.920927 
L 67.316591 345.603205 
L 68.140909 345.536153 
L 70.613864 344.262066 
L 71.438182 342.384471 
L 72.2625 338.696334 
L 73.086818 335.67877 
L 73.911136 336.885798 
L 76.384091 335.34349 
L 77.208409 335.812887 
L 78.032727 329.509525 
L 78.857045 329.509525 
L 79.681364 324.480249 
L 82.154318 321.663854 
L 82.978636 322.602648 
L 83.802955 322.066192 
L 84.627273 321.194457 
L 85.451591 324.212015 
L 87.924545 327.833099 
L 88.748864 324.480249 
L 89.573182 324.480249 
L 91.221818 332.527095 
L 96.992045 329.375408 
L 99.465 328.704835 
L 100.289318 328.973069 
L 101.113636 326.424908 
L 101.937955 322.401485 
L 102.762273 315.628725 
L 105.235227 312.074699 
L 106.059545 312.007641 
L 106.883864 314.756977 
L 108.5325 315.964005 
L 111.005455 316.768695 
L 111.829773 315.829888 
L 112.654091 318.7804 
L 113.478409 313.751124 
L 114.302727 304.564321 
L 116.775682 298.663297 
L 117.6 298.52918 
L 118.424318 303.290234 
L 119.248636 302.016147 
L 120.072955 298.864472 
L 122.545909 303.223176 
L 123.370227 303.82669 
L 124.194545 303.357293 
L 125.018864 306.039571 
L 125.843182 301.010295 
L 128.316136 298.126841 
L 129.140455 300.004442 
L 129.964773 303.558456 
L 130.789091 298.328017 
L 134.086364 300.339722 
L 134.910682 300.406781 
L 135.735 305.637232 
L 136.559318 302.753779 
L 137.383636 283.307248 
L 139.856591 289.878832 
L 140.680909 292.963448 
L 141.505227 297.255106 
L 142.329545 295.981019 
L 143.153864 301.345575 
L 145.626818 305.905453 
L 146.451136 295.779843 
L 147.275455 291.018802 
L 148.099773 301.278529 
L 148.924091 305.704291 
L 151.397045 302.418486 
L 152.221364 306.039571 
L 153.045682 315.09227 
L 153.87 314.220521 
L 154.694318 312.745272 
L 157.167273 313.281727 
L 158.815909 320.792118 
L 159.640227 326.559013 
L 160.464545 321.127398 
L 163.761818 330.448319 
L 164.586136 341.579788 
L 165.410455 334.270566 
L 166.234773 337.690482 
L 168.707727 342.585641 
L 169.532045 343.5915 
L 170.356364 343.792669 
L 171.180682 348.620775 
L 172.005 348.218431 
L 174.477955 344.664411 
L 175.302273 342.920927 
L 176.126591 348.285489 
L 176.950909 348.620775 
L 177.775227 347.011402 
L 180.248182 354.655904 
L 181.0725 350.230142 
L 181.896818 353.046537 
L 183.545455 354.387676 
L 186.018409 347.614916 
L 188.491364 363.2392 
L 189.315682 361.361605 
L 191.788636 361.428664 
L 192.612955 360.691032 
L 193.437273 359.68518 
L 194.261591 362.367458 
L 195.085909 366.726167 
L 197.558864 369.073159 
L 198.383182 364.781514 
L 199.2075 364.379169 
L 200.031818 366.055595 
L 200.856136 369.140217 
L 204.153409 373.297751 
L 204.977727 375.242404 
L 205.802045 372.090729 
L 206.626364 373.633038 
L 209.099318 375.644749 
L 209.923636 375.108294 
L 210.747955 373.096582 
L 211.572273 372.358957 
L 212.396591 368.939048 
L 215.693864 369.542562 
L 216.518182 371.956612 
L 217.3425 369.140217 
L 218.166818 368.335534 
L 221.464091 357.069954 
L 222.288409 354.857073 
L 223.112727 357.002902 
L 223.937045 352.577134 
L 226.41 352.308906 
L 227.234318 350.297201 
L 228.058636 344.060897 
L 228.882955 345.402036 
L 229.707273 344.262066 
L 232.180227 346.609064 
L 233.004545 350.900708 
L 234.653182 352.308906 
L 235.4775 346.676122 
L 237.950455 347.212578 
L 238.774773 349.693687 
L 239.599091 353.717103 
L 240.423409 355.997043 
L 241.247727 360.95926 
L 243.720682 360.288694 
L 244.545 359.819297 
L 245.369318 358.880496 
L 246.193636 359.349893 
L 247.017955 361.965119 
L 249.490909 360.62398 
L 250.315227 368.804931 
L 251.139545 368.067306 
L 251.963864 372.22484 
L 252.788182 373.834207 
L 255.261136 371.28604 
L 256.085455 372.694237 
L 256.909773 368.268475 
L 257.734091 370.548415 
L 258.558409 368.335534 
L 261.031364 370.682532 
L 261.855682 375.644749 
L 262.68 376.315316 
L 266.801591 375.644749 
L 267.625909 379.064658 
L 268.450227 378.9976 
L 269.274545 381.076364 
L 270.098864 380.942253 
L 272.571818 376.382374 
L 273.396136 374.370662 
L 274.220455 373.096582 
L 275.044773 369.140217 
L 275.869091 366.994395 
L 278.342045 371.889554 
L 279.166364 371.420157 
L 279.990682 370.414304 
L 280.815 365.720308 
L 281.639318 369.408445 
L 284.112273 372.358957 
L 284.936591 366.457939 
L 285.760909 361.361605 
L 286.585227 362.032178 
L 287.409545 360.355752 
L 289.8825 344.798521 
L 290.706818 344.060897 
L 291.531136 354.320618 
L 292.355455 352.711251 
L 295.652727 349.023114 
L 296.477045 336.885798 
L 297.301364 334.5388 
L 298.125682 335.008197 
L 298.95 334.807035 
L 301.422955 332.191803 
L 302.247273 332.460037 
L 303.071591 336.617571 
L 303.895909 333.197655 
L 304.720227 321.395632 
L 307.193182 329.308349 
L 308.0175 320.054487 
L 308.841818 320.121546 
L 309.666136 314.421697 
L 312.963409 306.710143 
L 313.787727 305.972512 
L 314.612045 308.051276 
L 315.436364 310.934729 
L 316.260682 309.79476 
L 318.733636 312.074699 
L 319.557955 312.409992 
L 320.382273 308.386569 
L 322.030909 307.98423 
L 324.503864 308.453627 
L 326.1525 302.552603 
L 326.976818 295.444563 
L 327.801136 296.651592 
L 330.274091 307.715996 
L 333.571364 298.663297 
L 336.044318 300.339722 
L 336.868636 306.307805 
L 337.692955 303.692573 
L 338.517273 306.643085 
L 339.341591 310.666508 
L 341.814545 320.121546 
L 342.638864 304.027865 
L 343.463182 303.357293 
L 344.2875 295.981019 
L 345.111818 284.916615 
L 347.584773 284.64838 
L 348.409091 275.059226 
L 349.233409 278.613252 
L 350.057727 273.315755 
L 350.882045 277.607399 
L 355.003636 279.216766 
L 355.827955 279.753222 
L 356.652273 275.193343 
L 360.773864 272.846345 
L 361.598182 271.639329 
L 362.4225 275.863915 
L 364.895455 283.240189 
L 365.719773 285.318953 
L 366.544091 286.056584 
L 367.368409 287.598892 
L 368.192727 276.13215 
L 370.665682 274.791004 
L 371.49 280.088501 
L 372.314318 283.307248 
L 373.138636 282.435499 
L 373.962955 281.161425 
L 376.435909 285.117777 
L 377.260227 290.549404 
L 378.084545 287.867127 
L 378.908864 286.391864 
L 382.206136 288.135348 
L 383.030455 288.940038 
L 383.854773 282.167278 
L 384.679091 277.741516 
L 385.503409 276.400371 
L 388.800682 258.496148 
L 389.625 263.860704 
L 390.449318 266.744158 
L 391.273636 262.251337 
L 393.746591 256.95384 
L 394.570909 252.125727 
L 395.395227 251.388109 
L 396.219545 252.393961 
L 397.043864 249.644625 
L 400.341136 255.612695 
L 401.165455 254.070387 
L 401.989773 260.440808 
L 402.814091 258.42909 
L 405.287045 262.452513 
L 406.111364 259.099663 
L 406.935682 260.440808 
L 407.76 264.732453 
L 408.584318 266.341819 
L 413.530227 264.933628 
L 414.354545 262.117233 
L 416.8275 266.811216 
L 417.651818 265.470084 
L 418.476136 259.56906 
L 419.300455 263.793658 
L 420.124773 258.42909 
L 422.597727 249.979905 
L 423.422045 239.519015 
L 424.246364 237.708472 
L 425.070682 248.035258 
L 425.895 260.709029 
L 428.367955 258.160868 
L 429.192273 258.764383 
L 430.016591 274.858063 
L 430.840909 271.773434 
L 431.665227 269.828787 
L 434.138182 271.505212 
L 434.9625 273.718093 
L 435.786818 273.181637 
L 436.611136 271.169919 
L 437.435455 273.315755 
L 439.908409 281.228471 
L 440.732727 284.581322 
L 441.557045 280.96025 
L 442.381364 286.59304 
L 443.205682 287.598892 
L 445.678636 291.287023 
L 446.502955 291.08586 
L 447.327273 296.517474 
L 448.151591 283.910762 
L 451.448864 288.537686 
L 452.273182 283.307248 
L 453.0975 288.403582 
L 453.921818 288.135348 
L 454.746136 289.275318 
L 457.219091 289.275318 
L 458.043409 290.750567 
L 459.692045 292.22583 
L 460.516364 284.64838 
L 462.989318 287.263612 
L 463.813636 285.922467 
L 464.637955 279.082649 
L 465.462273 276.936827 
L 466.286591 272.511065 
L 469.583864 288.940038 
L 470.408182 291.555257 
L 471.2325 302.820837 
L 472.056818 306.039571 
L 474.529773 303.692573 
L 475.354091 293.969314 
L 476.178409 285.587187 
L 477.002727 284.983673 
L 477.827045 276.802709 
L 480.3 272.511065 
L 481.124318 265.872422 
L 481.948636 265.872422 
L 482.772955 261.848999 
L 483.597273 262.58663 
L 486.070227 260.373749 
L 486.894545 255.009181 
L 487.718864 253.93627 
L 488.543182 247.364686 
L 489.3675 242.469527 
L 491.840455 236.501444 
L 492.664773 235.964988 
L 493.489091 237.842589 
L 494.313409 236.903795 
L 495.137727 240.189587 
L 497.610682 235.629708 
L 499.259318 223.425334 
L 500.907955 227.582862 
L 503.380909 229.393404 
L 504.205227 232.947431 
L 505.029545 232.612138 
L 505.853864 231.539227 
L 506.678182 224.900597 
L 509.151136 229.527521 
L 509.975455 226.644068 
L 510.799773 205.856405 
L 512.448409 172.596107 
L 514.921364 169.176211 
L 516.57 170.383239 
L 517.394318 172.797296 
L 518.218636 181.246468 
L 520.691591 187.616889 
L 521.515909 175.680749 
L 522.340227 186.678095 
L 523.164545 181.313539 
L 523.988864 185.33695 
L 526.461818 182.654659 
L 527.286136 184.532273 
L 528.110455 182.319379 
L 528.934773 187.013375 
L 529.759091 170.718519 
L 532.232045 168.572697 
L 533.056364 168.43858 
L 533.880682 168.77386 
L 534.705 149.863785 
L 535.529318 158.849425 
L 538.002273 170.249122 
L 538.826591 168.975048 
L 539.650909 178.631249 
L 540.475227 175.345444 
L 541.299545 171.523196 
L 543.7725 191.103857 
L 544.596818 188.019241 
L 545.421136 199.418912 
L 547.069773 208.941021 
L 549.542727 209.477464 
L 550.367045 206.124613 
L 551.191364 206.795199 
L 552.015682 219.536015 
L 552.84 219.536015 
L 555.312955 226.308788 
L 556.137273 223.425334 
L 556.961591 226.778185 
L 557.785909 217.121985 
L 558.610227 220.877161 
L 561.083182 224.632363 
L 561.9075 231.874519 
L 562.731818 228.924007 
L 563.556136 215.445559 
L 564.380455 215.110254 
L 566.853409 224.230011 
L 567.677727 224.230011 
L 569.326364 203.777628 
L 570.150682 210.483329 
L 572.623636 228.588727 
L 573.447955 216.652562 
L 574.272273 217.926662 
L 575.096591 214.774974 
L 575.920909 220.810115 
L 579.218182 226.241717 
L 580.0425 218.865456 
L 580.866818 213.970297 
L 581.691136 228.924007 
L 584.164091 226.912302 
L 584.988409 230.265153 
L 585.812727 235.629708 
L 586.637045 224.230011 
L 587.461364 221.815955 
L 589.934318 226.308788 
L 590.758636 228.253447 
L 591.582955 221.547746 
L 592.407273 221.547746 
L 593.231591 211.153889 
L 595.704545 204.783493 
L 596.528864 203.777628 
L 597.353182 203.107068 
L 598.1775 202.101203 
L 599.001818 205.856405 
L 601.474773 207.599876 
L 602.299091 193.450842 
L 603.123409 195.596664 
L 603.947727 195.395502 
L 604.772045 198.882469 
L 607.245 192.042651 
L 608.069318 186.946329 
L 608.893636 182.989965 
L 609.717955 198.077792 
L 610.542273 199.418912 
L 613.015227 204.716422 
L 613.839545 210.617446 
L 614.663864 208.806904 
L 615.488182 204.984656 
L 616.3125 215.713768 
L 618.785455 214.238531 
L 619.609773 223.1571 
L 620.434091 222.084189 
L 621.258409 214.238531 
L 624.555682 212.830314 
L 625.38 214.17146 
L 627.028636 216.049073 
L 627.852955 210.483329 
L 630.325909 211.153889 
L 631.150227 220.072484 
L 631.974545 221.279512 
L 632.798864 212.562106 
L 633.623182 215.110254 
L 636.096136 217.993707 
L 636.920455 208.941021 
L 637.744773 212.495034 
L 638.569091 213.16562 
L 639.393409 201.698851 
L 641.866364 197.474278 
L 642.690682 208.806904 
L 643.515 206.795199 
L 644.339318 204.112908 
L 645.163636 200.894174 
L 647.636591 199.888309 
L 648.460909 206.59401 
L 649.285227 207.801038 
L 650.109545 199.150703 
L 650.933864 202.838834 
L 653.406818 199.016586 
L 655.879773 197.742487 
L 656.704091 195.93197 
L 659.177045 196.736647 
L 661.65 194.255545 
L 662.474318 202.771763 
L 664.947273 213.83618 
L 665.771591 212.495034 
L 666.595909 203.375277 
L 667.420227 197.742487 
L 668.244545 193.786122 
L 670.7175 188.6898 
L 671.541818 188.756846 
L 672.366136 195.596664 
L 673.190455 197.809558 
L 674.014773 189.159197 
L 676.487727 190.030946 
L 677.312045 197.541324 
L 678.136364 194.188473 
L 678.960682 181.648819 
L 679.785 189.896829 
L 682.257955 206.795199 
L 683.082273 200.827129 
L 683.906591 209.209255 
L 684.730909 208.53867 
L 685.555227 213.83618 
L 688.028182 213.16562 
L 688.8525 207.733993 
L 689.676818 200.827129 
L 690.501136 203.777628 
L 691.325455 212.427989 
L 693.798409 214.439694 
L 694.622727 200.760057 
L 695.447045 200.089498 
L 696.271364 206.124613 
L 697.095682 202.101203 
L 699.568636 199.485983 
L 700.392955 202.972951 
L 701.217273 199.754218 
L 702.041591 210.148049 
L 702.865909 216.719633 
L 707.811818 266.475936 
L 708.636136 271.840492 
L 711.109091 268.420583 
L 711.933409 275.059226 
L 712.757727 277.138002 
L 713.582045 305.033718 
L 714.406364 302.35144 
L 716.879318 326.961364 
L 717.703636 320.658001 
L 718.527955 338.562224 
L 719.352273 376.650602 
L 719.352273 376.650602 
" style="fill:none;stroke:#1f77b4;stroke-linecap:square;stroke-width:1.5;"/>
   </g>
   <g id="line2d_18">
    <path clip-path="url(#p790e192ff3)" d="M 59.897727 261.44666 
L 60.722045 262.050175 
L 61.546364 260.910205 
L 62.370682 261.111368 
L 65.667955 263.793658 
L 66.492273 266.140644 
L 67.316591 265.470084 
L 68.140909 266.475936 
L 71.438182 261.44666 
L 72.2625 254.740959 
L 73.086818 249.912846 
L 73.911136 251.589272 
L 76.384091 249.041111 
L 77.208409 249.912846 
L 78.032727 245.68826 
L 78.857045 245.68826 
L 79.681364 242.268351 
L 82.154318 240.457809 
L 82.978636 239.183735 
L 83.802955 235.294429 
L 84.627273 229.59458 
L 85.451591 234.288563 
L 87.924545 237.306134 
L 88.748864 232.947431 
L 89.573182 234.959136 
L 91.221818 246.761171 
L 96.167727 243.944776 
L 96.992045 246.291774 
L 99.465 246.358833 
L 100.289318 239.653132 
L 101.113636 233.886225 
L 101.937955 225.638203 
L 102.762273 222.888866 
L 105.235227 217.121985 
L 106.059545 217.725499 
L 106.883864 217.993707 
L 107.708182 220.005413 
L 108.5325 222.888866 
L 111.005455 221.011278 
L 111.829773 217.52431 
L 112.654091 219.536015 
L 114.302727 198.748352 
L 116.775682 194.255545 
L 117.6 194.188473 
L 119.248636 196.60253 
L 120.072955 199.351866 
L 122.545909 199.553029 
L 123.370227 197.541324 
L 124.194545 192.109697 
L 125.018864 191.707371 
L 125.843182 194.255545 
L 128.316136 188.756846 
L 129.140455 188.622755 
L 129.964773 190.701506 
L 130.789091 187.348655 
L 134.086364 192.981445 
L 134.910682 188.6898 
L 135.735 197.407207 
L 136.559318 194.389636 
L 137.383636 184.062876 
L 139.856591 184.062876 
L 140.680909 192.847328 
L 141.505227 199.418912 
L 142.329545 194.054356 
L 143.153864 197.742487 
L 145.626818 202.838834 
L 146.451136 197.004881 
L 147.275455 195.328456 
L 148.099773 198.077792 
L 148.924091 196.736647 
L 151.397045 195.663736 
L 152.221364 203.107068 
L 153.045682 213.903226 
L 153.87 213.16562 
L 154.694318 206.057567 
L 157.167273 199.418912 
L 158.815909 205.387008 
L 159.640227 216.987867 
L 160.464545 218.999573 
L 162.9375 222.218306 
L 163.761818 221.614792 
L 164.586136 235.629708 
L 165.410455 228.924007 
L 166.234773 238.580221 
L 168.707727 246.224716 
L 169.532045 256.417385 
L 170.356364 260.440808 
L 171.180682 272.242831 
L 172.005 268.152362 
L 174.477955 259.770235 
L 175.302273 251.388109 
L 176.126591 258.160868 
L 176.950909 259.770235 
L 177.775227 255.411532 
L 180.248182 262.452513 
L 181.0725 261.916058 
L 181.896818 265.738305 
L 183.545455 265.805364 
L 186.018409 262.452513 
L 186.842727 273.181637 
L 188.491364 285.855409 
L 189.315682 287.934172 
L 191.788636 280.557911 
L 192.612955 283.843703 
L 193.437273 283.642528 
L 194.261591 283.575469 
L 195.085909 290.415287 
L 197.558864 292.56111 
L 198.383182 288.604745 
L 199.2075 286.861261 
L 200.031818 294.908108 
L 200.856136 294.841049 
L 203.329091 296.852754 
L 204.153409 295.981019 
L 204.977727 300.004442 
L 205.802045 299.333869 
L 206.626364 300.473839 
L 209.099318 304.631379 
L 209.923636 304.497262 
L 210.747955 302.68672 
L 211.572273 306.508968 
L 212.396591 304.027865 
L 215.693864 304.765484 
L 216.518182 303.357293 
L 217.3425 297.791561 
L 218.166818 296.986871 
L 220.639773 290.683509 
L 221.464091 284.715439 
L 222.288409 283.173131 
L 223.112727 284.178983 
L 223.937045 281.362588 
L 226.41 278.277972 
L 227.234318 277.540341 
L 228.058636 270.767581 
L 228.882955 272.71224 
L 229.707273 273.919256 
L 232.180227 280.423794 
L 233.004545 281.697881 
L 233.828864 283.307248 
L 234.653182 284.246042 
L 235.4775 278.747369 
L 237.950455 280.289677 
L 238.774773 279.686163 
L 239.599091 286.727157 
L 240.423409 282.435499 
L 241.247727 288.604745 
L 243.720682 286.861261 
L 244.545 281.764927 
L 245.369318 280.490853 
L 246.193636 276.735651 
L 247.017955 279.954397 
L 249.490909 278.948532 
L 250.315227 284.514276 
L 251.139545 292.963448 
L 251.963864 295.645739 
L 252.788182 295.981019 
L 256.085455 291.622316 
L 256.909773 291.622316 
L 257.734091 293.902255 
L 258.558409 289.275318 
L 261.031364 286.995378 
L 261.855682 294.036359 
L 262.68 293.432858 
L 263.504318 291.287023 
L 266.801591 289.275318 
L 267.625909 295.981019 
L 268.450227 296.651592 
L 269.274545 296.115136 
L 270.098864 291.957596 
L 272.571818 285.989526 
L 273.396136 285.721291 
L 274.220455 283.575469 
L 275.044773 279.485 
L 275.869091 273.85221 
L 278.342045 284.64838 
L 279.166364 284.246042 
L 279.990682 283.977808 
L 280.815 279.01559 
L 281.639318 282.234337 
L 284.112273 289.811773 
L 284.936591 283.910762 
L 285.760909 279.216766 
L 286.585227 277.205061 
L 287.409545 275.930974 
L 289.8825 255.478578 
L 290.706818 252.729241 
L 291.531136 265.604188 
L 292.355455 266.811216 
L 295.652727 263.927763 
L 296.477045 257.490296 
L 297.301364 256.417385 
L 298.125682 253.466873 
L 298.95 255.746812 
L 302.247273 251.119875 
L 303.071591 257.758517 
L 303.895909 256.685606 
L 304.720227 247.699965 
L 307.193182 250.851653 
L 308.0175 235.897943 
L 308.841818 238.379045 
L 309.666136 231.338064 
L 312.963409 225.235877 
L 313.787727 231.271005 
L 314.612045 232.612138 
L 315.436364 239.317839 
L 316.260682 229.996918 
L 318.733636 222.955937 
L 319.557955 223.224172 
L 320.382273 219.80425 
L 322.030909 208.806904 
L 324.503864 212.897386 
L 326.1525 209.410418 
L 326.976818 204.314096 
L 327.801136 202.101203 
L 330.274091 221.480675 
L 331.922727 212.360917 
L 332.747045 213.5009 
L 333.571364 210.550375 
L 336.044318 221.413629 
L 336.868636 227.985213 
L 337.692955 220.608927 
L 338.517273 225.034688 
L 339.341591 233.282711 
L 341.814545 236.568503 
L 342.638864 223.090054 
L 343.463182 217.85959 
L 344.2875 216.183165 
L 345.111818 219.871321 
L 347.584773 229.92986 
L 348.409091 222.218306 
L 349.233409 226.442905 
L 350.057727 218.865456 
L 350.882045 208.806904 
L 355.003636 209.544535 
L 355.827955 209.410418 
L 356.652273 202.101203 
L 360.773864 199.888309 
L 361.598182 199.6201 
L 362.4225 200.424777 
L 364.895455 206.795199 
L 365.719773 210.684492 
L 366.544091 207.801038 
L 367.368409 202.704717 
L 368.192727 194.054356 
L 370.665682 192.243814 
L 371.49 195.395502 
L 372.314318 195.395502 
L 373.138636 195.060222 
L 373.962955 199.687146 
L 376.435909 200.894174 
L 377.260227 205.454053 
L 378.084545 202.101203 
L 378.908864 201.698851 
L 383.030455 210.148049 
L 384.679091 194.65787 
L 385.503409 194.054356 
L 387.976364 188.421566 
L 388.800682 184.733436 
L 390.449318 200.894174 
L 391.273636 195.395502 
L 393.746591 194.054356 
L 394.570909 186.946329 
L 395.395227 186.00751 
L 396.219545 184.66639 
L 397.043864 185.33695 
L 399.516818 182.788776 
L 400.341136 184.264039 
L 401.165455 187.683935 
L 401.989773 192.109697 
L 402.814091 189.36036 
L 405.287045 187.348655 
L 406.111364 185.33695 
L 406.935682 189.36036 
L 407.76 191.036786 
L 408.584318 197.071927 
L 413.530227 199.418912 
L 414.354545 194.99315 
L 417.651818 173.870207 
L 418.476136 171.925548 
L 419.300455 166.695109 
L 420.124773 165.219846 
L 422.597727 160.391733 
L 423.422045 161.397599 
L 424.246364 167.43274 
L 425.070682 168.907977 
L 425.895 178.966529 
L 428.367955 181.849982 
L 429.192273 176.820706 
L 430.016591 190.768577 
L 430.840909 193.719076 
L 431.665227 186.879258 
L 434.138182 182.386451 
L 434.9625 183.325245 
L 435.786818 182.252333 
L 436.611136 183.39229 
L 437.435455 192.377931 
L 439.908409 201.765923 
L 440.732727 203.777628 
L 441.557045 201.765923 
L 442.381364 210.282166 
L 443.205682 217.18903 
L 445.678636 224.230011 
L 446.502955 221.011278 
L 447.327273 230.935713 
L 448.151591 217.993707 
L 451.448864 215.646722 
L 452.273182 214.372648 
L 453.0975 218.999573 
L 453.921818 220.541881 
L 454.746136 218.127824 
L 457.219091 217.792544 
L 458.043409 215.512605 
L 459.692045 211.489195 
L 460.516364 201.564734 
L 462.989318 208.806904 
L 463.813636 206.929316 
L 464.637955 195.395502 
L 465.462273 188.6898 
L 466.286591 188.086286 
L 468.759545 198.077792 
L 469.583864 207.801038 
L 470.408182 211.288006 
L 471.2325 220.206601 
L 472.056818 224.498246 
L 474.529773 219.46897 
L 475.354091 207.197524 
L 476.178409 204.247025 
L 477.002727 206.728127 
L 477.827045 205.789333 
L 480.3 199.083632 
L 481.124318 187.013375 
L 481.948636 187.683935 
L 482.772955 179.972394 
L 483.597273 180.642954 
L 486.070227 177.357175 
L 486.894545 175.278398 
L 487.718864 171.120871 
L 488.543182 157.240071 
L 489.3675 150.735533 
L 491.840455 147.785034 
L 492.664773 150.199065 
L 493.489091 151.003767 
L 494.313409 146.779168 
L 495.137727 149.863785 
L 497.610682 143.225155 
L 498.435 140.073467 
L 499.259318 139.067602 
L 500.907955 146.712122 
L 503.380909 151.339047 
L 504.205227 157.843585 
L 505.029545 159.251776 
L 505.853864 158.715308 
L 506.678182 153.216635 
L 509.151136 161.263482 
L 509.975455 159.117659 
L 510.799773 148.053242 
L 511.624091 130.014915 
L 512.448409 118.615218 
L 514.921364 116.73763 
L 516.57 108.288432 
L 517.394318 111.7754 
L 518.218636 114.323574 
L 520.691591 112.513031 
L 521.515909 108.221387 
L 522.340227 110.635443 
L 523.164545 109.227252 
L 523.988864 110.233092 
L 526.461818 108.891947 
L 527.286136 114.725925 
L 528.110455 111.909517 
L 528.934773 102.253317 
L 529.759091 95.547616 
L 532.232045 88.640752 
L 533.056364 88.037237 
L 533.880682 96.285247 
L 534.705 80.526834 
L 535.529318 84.080873 
L 538.002273 97.156969 
L 538.826591 88.305446 
L 539.650909 87.299606 
L 540.475227 77.710452 
L 541.299545 71.541193 
L 543.7725 79.386877 
L 544.596818 84.416153 
L 545.421136 101.716848 
L 546.245455 104.466185 
L 547.069773 105.069699 
L 549.542727 109.361344 
L 550.367045 110.367209 
L 551.191364 102.521551 
L 552.015682 115.329439 
L 552.84 126.326785 
L 555.312955 135.044191 
L 556.137273 135.178308 
L 556.961591 131.423106 
L 557.785909 117.944658 
L 558.610227 127.66793 
L 561.083182 127.399696 
L 561.9075 135.312425 
L 562.731818 127.600859 
L 563.556136 113.451825 
L 564.380455 112.580103 
L 566.853409 119.01757 
L 567.677727 120.626924 
L 568.502045 112.311868 
L 569.326364 94.474704 
L 570.150682 99.235746 
L 572.623636 128.33849 
L 573.447955 118.615218 
L 574.272273 113.585942 
L 575.096591 113.0495 
L 575.920909 116.73763 
L 578.393864 120.761041 
L 579.218182 126.460902 
L 580.866818 109.093135 
L 581.691136 110.76956 
L 584.164091 110.166046 
L 584.988409 115.329439 
L 585.812727 122.236303 
L 586.637045 108.959018 
L 587.461364 101.850965 
L 589.934318 104.265022 
L 590.758636 106.880241 
L 591.582955 111.574237 
L 592.407273 110.367209 
L 593.231591 105.539096 
L 595.704545 100.308657 
L 596.528864 100.107494 
L 597.353182 99.50398 
L 598.1775 99.772214 
L 599.001818 101.582731 
L 601.474773 99.1687 
L 602.299091 88.171329 
L 603.123409 93.804119 
L 603.947727 88.774843 
L 604.772045 91.1889 
L 607.245 87.031372 
L 608.069318 84.751433 
L 608.893636 83.812639 
L 609.717955 91.323017 
L 610.542273 84.416153 
L 613.015227 84.751433 
L 613.839545 85.623181 
L 614.663864 96.620527 
L 615.488182 91.52418 
L 616.3125 102.052154 
L 618.785455 105.203816 
L 619.609773 118.212893 
L 620.434091 120.761041 
L 621.258409 107.550827 
L 624.555682 102.186245 
L 625.38 104.935582 
L 627.028636 93.468839 
L 627.852955 76.905775 
L 630.325909 82.471493 
L 631.150227 98.833395 
L 631.974545 101.582731 
L 632.798864 89.780708 
L 633.623182 87.433723 
L 636.096136 88.506634 
L 636.920455 84.751433 
L 637.744773 85.354947 
L 638.569091 85.354947 
L 639.393409 76.704586 
L 641.866364 76.63754 
L 642.690682 84.080873 
L 643.515 77.106937 
L 644.339318 74.223484 
L 645.163636 62.220273 
L 647.636591 59.470936 
L 648.460909 62.153227 
L 649.285227 57.190997 
L 650.109545 56.520437 
L 650.933864 61.281479 
L 653.406818 57.258068 
L 655.879773 60.812082 
L 656.704091 55.916923 
L 659.177045 52.698189 
L 661.65 49.211222 
L 662.474318 62.890858 
L 664.947273 74.692881 
L 665.771591 62.488507 
L 666.595909 61.817947 
L 667.420227 59.40389 
L 668.244545 57.928628 
L 670.7175 52.564072 
L 671.541818 46.596002 
L 672.366136 45.858371 
L 673.190455 44.919577 
L 674.014773 32.111689 
L 676.487727 29.295281 
L 677.312045 40.829095 
L 678.136364 43.846666 
L 678.960682 33.117529 
L 679.785 44.78546 
L 682.257955 58.062745 
L 683.082273 25.003636 
L 683.906591 42.036123 
L 684.730909 43.109035 
L 685.555227 46.126605 
L 688.028182 40.292627 
L 688.8525 35.799819 
L 689.676818 32.648132 
L 690.501136 47.400679 
L 691.325455 66.04252 
L 693.798409 62.488507 
L 695.447045 43.444315 
L 696.271364 47.870076 
L 697.095682 46.260697 
L 699.568636 49.881781 
L 700.392955 54.44166 
L 701.217273 54.039309 
L 702.041591 65.304889 
L 702.865909 70.334165 
L 707.811818 140.878144 
L 708.636136 145.505094 
L 711.109091 140.475818 
L 711.933409 148.455594 
L 712.757727 143.426318 
L 713.582045 187.013375 
L 714.406364 184.129922 
L 716.879318 228.253447 
L 717.703636 200.894174 
L 718.527955 240.658984 
L 719.352273 307.380716 
L 719.352273 307.380716 
" style="fill:none;stroke:#ff7f0e;stroke-linecap:square;stroke-width:1.5;"/>
   </g>
   <g id="patch_3">
    <path d="M 26.925 398.88 
L 26.925 7.2 
" style="fill:none;stroke:#000000;stroke-linecap:square;stroke-linejoin:miter;stroke-width:0.8;"/>
   </g>
   <g id="patch_4">
    <path d="M 752.325 398.88 
L 752.325 7.2 
" style="fill:none;stroke:#000000;stroke-linecap:square;stroke-linejoin:miter;stroke-width:0.8;"/>
   </g>
   <g id="patch_5">
    <path d="M 26.925 398.88 
L 752.325 398.88 
" style="fill:none;stroke:#000000;stroke-linecap:square;stroke-linejoin:miter;stroke-width:0.8;"/>
   </g>
   <g id="patch_6">
    <path d="M 26.925 7.2 
L 752.325 7.2 
" style="fill:none;stroke:#000000;stroke-linecap:square;stroke-linejoin:miter;stroke-width:0.8;"/>
   </g>
   <g id="legend_1">
    <g id="patch_7">
     <path d="M 33.925 44.55625 
L 115.420313 44.55625 
Q 117.420313 44.55625 117.420313 42.55625 
L 117.420313 14.2 
Q 117.420313 12.2 115.420313 12.2 
L 33.925 12.2 
Q 31.925 12.2 31.925 14.2 
L 31.925 42.55625 
Q 31.925 44.55625 33.925 44.55625 
z
" style="fill:#ffffff;opacity:0.8;stroke:#cccccc;stroke-linejoin:miter;"/>
    </g>
    <g id="line2d_19">
     <path d="M 35.925 20.298437 
L 55.925 20.298437 
" style="fill:none;stroke:#1f77b4;stroke-linecap:square;stroke-width:1.5;"/>
    </g>
    <g id="line2d_20"/>
    <g id="text_18">
     <!-- GOLL4.SA -->
     <defs>
      <path d="M 59.515625 10.40625 
L 59.515625 29.984375 
L 43.40625 29.984375 
L 43.40625 38.09375 
L 69.28125 38.09375 
L 69.28125 6.78125 
Q 63.578125 2.734375 56.6875 0.65625 
Q 49.8125 -1.421875 42 -1.421875 
Q 24.90625 -1.421875 15.25 8.5625 
Q 5.609375 18.5625 5.609375 36.375 
Q 5.609375 54.25 15.25 64.234375 
Q 24.90625 74.21875 42 74.21875 
Q 49.125 74.21875 55.546875 72.453125 
Q 61.96875 70.703125 67.390625 67.28125 
L 67.390625 56.78125 
Q 61.921875 61.421875 55.765625 63.765625 
Q 49.609375 66.109375 42.828125 66.109375 
Q 29.4375 66.109375 22.71875 58.640625 
Q 16.015625 51.171875 16.015625 36.375 
Q 16.015625 21.625 22.71875 14.15625 
Q 29.4375 6.6875 42.828125 6.6875 
Q 48.046875 6.6875 52.140625 7.59375 
Q 56.25 8.5 59.515625 10.40625 
z
" id="DejaVuSans-71"/>
      <path d="M 39.40625 66.21875 
Q 28.65625 66.21875 22.328125 58.203125 
Q 16.015625 50.203125 16.015625 36.375 
Q 16.015625 22.609375 22.328125 14.59375 
Q 28.65625 6.59375 39.40625 6.59375 
Q 50.140625 6.59375 56.421875 14.59375 
Q 62.703125 22.609375 62.703125 36.375 
Q 62.703125 50.203125 56.421875 58.203125 
Q 50.140625 66.21875 39.40625 66.21875 
z
M 39.40625 74.21875 
Q 54.734375 74.21875 63.90625 63.9375 
Q 73.09375 53.65625 73.09375 36.375 
Q 73.09375 19.140625 63.90625 8.859375 
Q 54.734375 -1.421875 39.40625 -1.421875 
Q 24.03125 -1.421875 14.8125 8.828125 
Q 5.609375 19.09375 5.609375 36.375 
Q 5.609375 53.65625 14.8125 63.9375 
Q 24.03125 74.21875 39.40625 74.21875 
z
" id="DejaVuSans-79"/>
      <path d="M 9.8125 72.90625 
L 19.671875 72.90625 
L 19.671875 8.296875 
L 55.171875 8.296875 
L 55.171875 0 
L 9.8125 0 
z
" id="DejaVuSans-76"/>
      <path d="M 10.6875 12.40625 
L 21 12.40625 
L 21 0 
L 10.6875 0 
z
" id="DejaVuSans-46"/>
      <path d="M 53.515625 70.515625 
L 53.515625 60.890625 
Q 47.90625 63.578125 42.921875 64.890625 
Q 37.9375 66.21875 33.296875 66.21875 
Q 25.25 66.21875 20.875 63.09375 
Q 16.5 59.96875 16.5 54.203125 
Q 16.5 49.359375 19.40625 46.890625 
Q 22.3125 44.4375 30.421875 42.921875 
L 36.375 41.703125 
Q 47.40625 39.59375 52.65625 34.296875 
Q 57.90625 29 57.90625 20.125 
Q 57.90625 9.515625 50.796875 4.046875 
Q 43.703125 -1.421875 29.984375 -1.421875 
Q 24.8125 -1.421875 18.96875 -0.25 
Q 13.140625 0.921875 6.890625 3.21875 
L 6.890625 13.375 
Q 12.890625 10.015625 18.65625 8.296875 
Q 24.421875 6.59375 29.984375 6.59375 
Q 38.421875 6.59375 43.015625 9.90625 
Q 47.609375 13.234375 47.609375 19.390625 
Q 47.609375 24.75 44.3125 27.78125 
Q 41.015625 30.8125 33.5 32.328125 
L 27.484375 33.5 
Q 16.453125 35.6875 11.515625 40.375 
Q 6.59375 45.0625 6.59375 53.421875 
Q 6.59375 63.09375 13.40625 68.65625 
Q 20.21875 74.21875 32.171875 74.21875 
Q 37.3125 74.21875 42.625 73.28125 
Q 47.953125 72.359375 53.515625 70.515625 
z
" id="DejaVuSans-83"/>
      <path d="M 34.1875 63.1875 
L 20.796875 26.90625 
L 47.609375 26.90625 
z
M 28.609375 72.90625 
L 39.796875 72.90625 
L 67.578125 0 
L 57.328125 0 
L 50.6875 18.703125 
L 17.828125 18.703125 
L 11.1875 0 
L 0.78125 0 
z
" id="DejaVuSans-65"/>
     </defs>
     <g transform="translate(63.925 23.798437)scale(0.1 -0.1)">
      <use xlink:href="#DejaVuSans-71"/>
      <use x="77.490234" xlink:href="#DejaVuSans-79"/>
      <use x="156.201172" xlink:href="#DejaVuSans-76"/>
      <use x="211.914062" xlink:href="#DejaVuSans-76"/>
      <use x="267.626953" xlink:href="#DejaVuSans-52"/>
      <use x="331.25" xlink:href="#DejaVuSans-46"/>
      <use x="363.037109" xlink:href="#DejaVuSans-83"/>
      <use x="426.529297" xlink:href="#DejaVuSans-65"/>
     </g>
    </g>
    <g id="line2d_21">
     <path d="M 35.925 34.976562 
L 55.925 34.976562 
" style="fill:none;stroke:#ff7f0e;stroke-linecap:square;stroke-width:1.5;"/>
    </g>
    <g id="line2d_22"/>
    <g id="text_19">
     <!-- AZUL4.SA -->
     <defs>
      <path d="M 5.609375 72.90625 
L 62.890625 72.90625 
L 62.890625 65.375 
L 16.796875 8.296875 
L 64.015625 8.296875 
L 64.015625 0 
L 4.5 0 
L 4.5 7.515625 
L 50.59375 64.59375 
L 5.609375 64.59375 
z
" id="DejaVuSans-90"/>
      <path d="M 8.6875 72.90625 
L 18.609375 72.90625 
L 18.609375 28.609375 
Q 18.609375 16.890625 22.84375 11.734375 
Q 27.09375 6.59375 36.625 6.59375 
Q 46.09375 6.59375 50.34375 11.734375 
Q 54.59375 16.890625 54.59375 28.609375 
L 54.59375 72.90625 
L 64.5 72.90625 
L 64.5 27.390625 
Q 64.5 13.140625 57.4375 5.859375 
Q 50.390625 -1.421875 36.625 -1.421875 
Q 22.796875 -1.421875 15.734375 5.859375 
Q 8.6875 13.140625 8.6875 27.390625 
z
" id="DejaVuSans-85"/>
     </defs>
     <g transform="translate(63.925 38.476562)scale(0.1 -0.1)">
      <use xlink:href="#DejaVuSans-65"/>
      <use x="68.408203" xlink:href="#DejaVuSans-90"/>
      <use x="136.914062" xlink:href="#DejaVuSans-85"/>
      <use x="210.107422" xlink:href="#DejaVuSans-76"/>
      <use x="265.820312" xlink:href="#DejaVuSans-52"/>
      <use x="329.443359" xlink:href="#DejaVuSans-46"/>
      <use x="361.230469" xlink:href="#DejaVuSans-83"/>
      <use x="424.722656" xlink:href="#DejaVuSans-65"/>
     </g>
    </g>
   </g>
  </g>
 </g>
 <defs>
  <clipPath id="p790e192ff3">
   <rect height="391.68" width="725.4" x="26.925" y="7.2"/>
  </clipPath>
 </defs>
</svg>
