<?xml version="1.0" encoding="utf-8" standalone="no"?>
<!DOCTYPE svg PUBLIC "-//W3C//DTD SVG 1.1//EN"
  "http://www.w3.org/Graphics/SVG/1.1/DTD/svg11.dtd">
<!-- Created with matplotlib (https://matplotlib.org/) -->
<svg height="533.99625pt" version="1.1" viewBox="0 0 902.723438 533.99625" width="902.723438pt" xmlns="http://www.w3.org/2000/svg" xmlns:xlink="http://www.w3.org/1999/xlink">
 <defs>
  <style type="text/css">
*{stroke-linecap:butt;stroke-linejoin:round;}
  </style>
 </defs>
 <g id="figure_1">
  <g id="patch_1">
   <path d="M -0 533.99625 
L 902.723438 533.99625 
L 902.723438 0 
L -0 0 
z
" style="fill:none;"/>
  </g>
  <g id="axes_1">
   <g id="patch_2">
    <path d="M 58.523438 496.44 
L 895.523438 496.44 
L 895.523438 7.2 
L 58.523438 7.2 
z
" style="fill:#ffffff;"/>
   </g>
   <g id="PathCollection_1">
    <defs>
     <path d="M 0 -5 
L -1.12257 -1.545085 
L -4.755283 -1.545085 
L -1.816356 0.59017 
L -2.938926 4.045085 
L -0 1.90983 
L 2.938926 4.045085 
L 1.816356 0.59017 
L 4.755283 -1.545085 
L 1.12257 -1.545085 
z
" id="mfe926b41a7" style="stroke:#0000ff;"/>
    </defs>
    <g clip-path="url(#p013ff00b2b)">
     <use style="fill:#0000ff;stroke:#0000ff;" x="725.550942" xlink:href="#mfe926b41a7" y="461.840739"/>
     <use style="fill:#0000ff;stroke:#0000ff;" x="576.102941" xlink:href="#mfe926b41a7" y="403.714807"/>
     <use style="fill:#0000ff;stroke:#0000ff;" x="836.709562" xlink:href="#mfe926b41a7" y="396.878282"/>
     <use style="fill:#0000ff;stroke:#0000ff;" x="530.935481" xlink:href="#mfe926b41a7" y="393.628207"/>
     <use style="fill:#0000ff;stroke:#0000ff;" x="513.811923" xlink:href="#mfe926b41a7" y="381.353449"/>
     <use style="fill:#0000ff;stroke:#0000ff;" x="666.881731" xlink:href="#mfe926b41a7" y="377.751067"/>
     <use style="fill:#0000ff;stroke:#0000ff;" x="583.334238" xlink:href="#mfe926b41a7" y="370.583232"/>
     <use style="fill:#0000ff;stroke:#0000ff;" x="727.52987" xlink:href="#mfe926b41a7" y="365.506332"/>
     <use style="fill:#0000ff;stroke:#0000ff;" x="508.687787" xlink:href="#mfe926b41a7" y="361.071247"/>
     <use style="fill:#0000ff;stroke:#0000ff;" x="505.271004" xlink:href="#mfe926b41a7" y="348.457823"/>
     <use style="fill:#0000ff;stroke:#0000ff;" x="470.013103" xlink:href="#mfe926b41a7" y="344.685882"/>
     <use style="fill:#0000ff;stroke:#0000ff;" x="630.100806" xlink:href="#mfe926b41a7" y="344.622156"/>
     <use style="fill:#0000ff;stroke:#0000ff;" x="427.696448" xlink:href="#mfe926b41a7" y="341.183342"/>
     <use style="fill:#0000ff;stroke:#0000ff;" x="441.648316" xlink:href="#mfe926b41a7" y="339.374198"/>
     <use style="fill:#0000ff;stroke:#0000ff;" x="393.64932" xlink:href="#mfe926b41a7" y="336.796162"/>
     <use style="fill:#0000ff;stroke:#0000ff;" x="539.125895" xlink:href="#mfe926b41a7" y="333.620757"/>
     <use style="fill:#0000ff;stroke:#0000ff;" x="541.944534" xlink:href="#mfe926b41a7" y="327.940421"/>
     <use style="fill:#0000ff;stroke:#0000ff;" x="477.558611" xlink:href="#mfe926b41a7" y="326.522554"/>
     <use style="fill:#0000ff;stroke:#0000ff;" x="467.679159" xlink:href="#mfe926b41a7" y="324.779296"/>
     <use style="fill:#0000ff;stroke:#0000ff;" x="386.893389" xlink:href="#mfe926b41a7" y="323.496796"/>
     <use style="fill:#0000ff;stroke:#0000ff;" x="373.665412" xlink:href="#mfe926b41a7" y="305.948562"/>
     <use style="fill:#0000ff;stroke:#0000ff;" x="388.250938" xlink:href="#mfe926b41a7" y="304.13004"/>
     <use style="fill:#0000ff;stroke:#0000ff;" x="366.097486" xlink:href="#mfe926b41a7" y="303.226042"/>
     <use style="fill:#0000ff;stroke:#0000ff;" x="440.650658" xlink:href="#mfe926b41a7" y="302.569794"/>
     <use style="fill:#0000ff;stroke:#0000ff;" x="385.40007" xlink:href="#mfe926b41a7" y="298.234985"/>
     <use style="fill:#0000ff;stroke:#0000ff;" x="358.105016" xlink:href="#mfe926b41a7" y="297.886012"/>
     <use style="fill:#0000ff;stroke:#0000ff;" x="429.463274" xlink:href="#mfe926b41a7" y="296.23892"/>
     <use style="fill:#0000ff;stroke:#0000ff;" x="367.085862" xlink:href="#mfe926b41a7" y="293.015144"/>
     <use style="fill:#0000ff;stroke:#0000ff;" x="412.408483" xlink:href="#mfe926b41a7" y="292.751571"/>
     <use style="fill:#0000ff;stroke:#0000ff;" x="365.266237" xlink:href="#mfe926b41a7" y="291.006042"/>
     <use style="fill:#0000ff;stroke:#0000ff;" x="404.546917" xlink:href="#mfe926b41a7" y="288.911659"/>
     <use style="fill:#0000ff;stroke:#0000ff;" x="477.747764" xlink:href="#mfe926b41a7" y="288.147347"/>
     <use style="fill:#0000ff;stroke:#0000ff;" x="392.500763" xlink:href="#mfe926b41a7" y="287.207011"/>
     <use style="fill:#0000ff;stroke:#0000ff;" x="488.460774" xlink:href="#mfe926b41a7" y="283.613262"/>
     <use style="fill:#0000ff;stroke:#0000ff;" x="550.647908" xlink:href="#mfe926b41a7" y="281.723435"/>
     <use style="fill:#0000ff;stroke:#0000ff;" x="362.709446" xlink:href="#mfe926b41a7" y="280.806785"/>
     <use style="fill:#0000ff;stroke:#0000ff;" x="356.571141" xlink:href="#mfe926b41a7" y="279.021282"/>
     <use style="fill:#0000ff;stroke:#0000ff;" x="290.920628" xlink:href="#mfe926b41a7" y="277.744076"/>
     <use style="fill:#0000ff;stroke:#0000ff;" x="345.866412" xlink:href="#mfe926b41a7" y="277.387382"/>
     <use style="fill:#0000ff;stroke:#0000ff;" x="350.60662" xlink:href="#mfe926b41a7" y="276.868235"/>
     <use style="fill:#0000ff;stroke:#0000ff;" x="431.887525" xlink:href="#mfe926b41a7" y="275.922813"/>
     <use style="fill:#0000ff;stroke:#0000ff;" x="491.910311" xlink:href="#mfe926b41a7" y="275.12706"/>
     <use style="fill:#0000ff;stroke:#0000ff;" x="406.300777" xlink:href="#mfe926b41a7" y="274.662062"/>
     <use style="fill:#0000ff;stroke:#0000ff;" x="474.741559" xlink:href="#mfe926b41a7" y="272.370259"/>
     <use style="fill:#0000ff;stroke:#0000ff;" x="326.561001" xlink:href="#mfe926b41a7" y="272.078508"/>
     <use style="fill:#0000ff;stroke:#0000ff;" x="331.306474" xlink:href="#mfe926b41a7" y="268.134071"/>
     <use style="fill:#0000ff;stroke:#0000ff;" x="268.512873" xlink:href="#mfe926b41a7" y="267.276838"/>
     <use style="fill:#0000ff;stroke:#0000ff;" x="484.844026" xlink:href="#mfe926b41a7" y="266.544233"/>
     <use style="fill:#0000ff;stroke:#0000ff;" x="383.860024" xlink:href="#mfe926b41a7" y="264.68358"/>
     <use style="fill:#0000ff;stroke:#0000ff;" x="358.244393" xlink:href="#mfe926b41a7" y="263.030762"/>
     <use style="fill:#0000ff;stroke:#0000ff;" x="343.250562" xlink:href="#mfe926b41a7" y="261.961464"/>
     <use style="fill:#0000ff;stroke:#0000ff;" x="369.163894" xlink:href="#mfe926b41a7" y="261.091238"/>
     <use style="fill:#0000ff;stroke:#0000ff;" x="358.520861" xlink:href="#mfe926b41a7" y="255.039475"/>
     <use style="fill:#0000ff;stroke:#0000ff;" x="398.854833" xlink:href="#mfe926b41a7" y="253.457761"/>
     <use style="fill:#0000ff;stroke:#0000ff;" x="339.972928" xlink:href="#mfe926b41a7" y="252.265872"/>
     <use style="fill:#0000ff;stroke:#0000ff;" x="355.132767" xlink:href="#mfe926b41a7" y="252.091384"/>
     <use style="fill:#0000ff;stroke:#0000ff;" x="345.789189" xlink:href="#mfe926b41a7" y="250.450506"/>
     <use style="fill:#0000ff;stroke:#0000ff;" x="364.630827" xlink:href="#mfe926b41a7" y="249.248453"/>
     <use style="fill:#0000ff;stroke:#0000ff;" x="468.234811" xlink:href="#mfe926b41a7" y="246.67643"/>
     <use style="fill:#0000ff;stroke:#0000ff;" x="341.534631" xlink:href="#mfe926b41a7" y="242.662333"/>
     <use style="fill:#0000ff;stroke:#0000ff;" x="308.585459" xlink:href="#mfe926b41a7" y="242.615933"/>
     <use style="fill:#0000ff;stroke:#0000ff;" x="255.466812" xlink:href="#mfe926b41a7" y="241.482358"/>
     <use style="fill:#0000ff;stroke:#0000ff;" x="302.371187" xlink:href="#mfe926b41a7" y="236.933813"/>
     <use style="fill:#0000ff;stroke:#0000ff;" x="255.807856" xlink:href="#mfe926b41a7" y="234.487734"/>
     <use style="fill:#0000ff;stroke:#0000ff;" x="226.266009" xlink:href="#mfe926b41a7" y="220.983692"/>
     <use style="fill:#0000ff;stroke:#0000ff;" x="322.384422" xlink:href="#mfe926b41a7" y="219.569652"/>
     <use style="fill:#0000ff;stroke:#0000ff;" x="242.823434" xlink:href="#mfe926b41a7" y="218.954682"/>
     <use style="fill:#0000ff;stroke:#0000ff;" x="371.376106" xlink:href="#mfe926b41a7" y="217.301188"/>
     <use style="fill:#0000ff;stroke:#0000ff;" x="350.951046" xlink:href="#mfe926b41a7" y="213.689143"/>
     <use style="fill:#0000ff;stroke:#0000ff;" x="292.075673" xlink:href="#mfe926b41a7" y="211.324557"/>
     <use style="fill:#0000ff;stroke:#0000ff;" x="310.438282" xlink:href="#mfe926b41a7" y="210.663844"/>
     <use style="fill:#0000ff;stroke:#0000ff;" x="362.450386" xlink:href="#mfe926b41a7" y="209.669858"/>
     <use style="fill:#0000ff;stroke:#0000ff;" x="249.299211" xlink:href="#mfe926b41a7" y="209.076403"/>
     <use style="fill:#0000ff;stroke:#0000ff;" x="320.142959" xlink:href="#mfe926b41a7" y="205.65278"/>
     <use style="fill:#0000ff;stroke:#0000ff;" x="367.699678" xlink:href="#mfe926b41a7" y="203.086267"/>
     <use style="fill:#0000ff;stroke:#0000ff;" x="203.71843" xlink:href="#mfe926b41a7" y="201.83527"/>
     <use style="fill:#0000ff;stroke:#0000ff;" x="298.750531" xlink:href="#mfe926b41a7" y="199.594871"/>
     <use style="fill:#0000ff;stroke:#0000ff;" x="209.304262" xlink:href="#mfe926b41a7" y="198.477038"/>
     <use style="fill:#0000ff;stroke:#0000ff;" x="224.129165" xlink:href="#mfe926b41a7" y="198.330421"/>
     <use style="fill:#0000ff;stroke:#0000ff;" x="358.572011" xlink:href="#mfe926b41a7" y="194.530413"/>
     <use style="fill:#0000ff;stroke:#0000ff;" x="244.607548" xlink:href="#mfe926b41a7" y="185.107388"/>
     <use style="fill:#0000ff;stroke:#0000ff;" x="226.668276" xlink:href="#mfe926b41a7" y="179.573199"/>
     <use style="fill:#0000ff;stroke:#0000ff;" x="250.863066" xlink:href="#mfe926b41a7" y="175.37822"/>
     <use style="fill:#0000ff;stroke:#0000ff;" x="199.203549" xlink:href="#mfe926b41a7" y="175.255845"/>
     <use style="fill:#0000ff;stroke:#0000ff;" x="189.871254" xlink:href="#mfe926b41a7" y="164.331881"/>
     <use style="fill:#0000ff;stroke:#0000ff;" x="244.685718" xlink:href="#mfe926b41a7" y="161.142727"/>
     <use style="fill:#0000ff;stroke:#0000ff;" x="211.838799" xlink:href="#mfe926b41a7" y="149.416332"/>
     <use style="fill:#0000ff;stroke:#0000ff;" x="165.994099" xlink:href="#mfe926b41a7" y="147.39404"/>
     <use style="fill:#0000ff;stroke:#0000ff;" x="165.074486" xlink:href="#mfe926b41a7" y="145.699738"/>
     <use style="fill:#0000ff;stroke:#0000ff;" x="224.887823" xlink:href="#mfe926b41a7" y="143.416183"/>
     <use style="fill:#0000ff;stroke:#0000ff;" x="148.307402" xlink:href="#mfe926b41a7" y="139.13669"/>
     <use style="fill:#0000ff;stroke:#0000ff;" x="255.962064" xlink:href="#mfe926b41a7" y="135.640025"/>
     <use style="fill:#0000ff;stroke:#0000ff;" x="259.460927" xlink:href="#mfe926b41a7" y="120.364797"/>
     <use style="fill:#0000ff;stroke:#0000ff;" x="244.055257" xlink:href="#mfe926b41a7" y="110.629988"/>
     <use style="fill:#0000ff;stroke:#0000ff;" x="135.616054" xlink:href="#mfe926b41a7" y="105.453475"/>
     <use style="fill:#0000ff;stroke:#0000ff;" x="174.169065" xlink:href="#mfe926b41a7" y="103.882768"/>
     <use style="fill:#0000ff;stroke:#0000ff;" x="158.356627" xlink:href="#mfe926b41a7" y="78.803646"/>
     <use style="fill:#0000ff;stroke:#0000ff;" x="185.738409" xlink:href="#mfe926b41a7" y="74.567159"/>
     <use style="fill:#0000ff;stroke:#0000ff;" x="117.337313" xlink:href="#mfe926b41a7" y="48.920203"/>
     <use style="fill:#0000ff;stroke:#0000ff;" x="124.45349" xlink:href="#mfe926b41a7" y="44.717315"/>
    </g>
   </g>
   <g id="matplotlib.axis_1">
    <g id="xtick_1">
     <g id="line2d_1">
      <defs>
       <path d="M 0 0 
L 0 3.5 
" id="m4aa1ddcf21" style="stroke:#000000;stroke-width:0.8;"/>
      </defs>
      <g>
       <use style="stroke:#000000;stroke-width:0.8;" x="232.80258" xlink:href="#m4aa1ddcf21" y="496.44"/>
      </g>
     </g>
     <g id="text_1">
      <!-- 0.35 -->
      <defs>
       <path d="M 31.78125 66.40625 
Q 24.171875 66.40625 20.328125 58.90625 
Q 16.5 51.421875 16.5 36.375 
Q 16.5 21.390625 20.328125 13.890625 
Q 24.171875 6.390625 31.78125 6.390625 
Q 39.453125 6.390625 43.28125 13.890625 
Q 47.125 21.390625 47.125 36.375 
Q 47.125 51.421875 43.28125 58.90625 
Q 39.453125 66.40625 31.78125 66.40625 
z
M 31.78125 74.21875 
Q 44.046875 74.21875 50.515625 64.515625 
Q 56.984375 54.828125 56.984375 36.375 
Q 56.984375 17.96875 50.515625 8.265625 
Q 44.046875 -1.421875 31.78125 -1.421875 
Q 19.53125 -1.421875 13.0625 8.265625 
Q 6.59375 17.96875 6.59375 36.375 
Q 6.59375 54.828125 13.0625 64.515625 
Q 19.53125 74.21875 31.78125 74.21875 
z
" id="DejaVuSans-48"/>
       <path d="M 10.6875 12.40625 
L 21 12.40625 
L 21 0 
L 10.6875 0 
z
" id="DejaVuSans-46"/>
       <path d="M 40.578125 39.3125 
Q 47.65625 37.796875 51.625 33 
Q 55.609375 28.21875 55.609375 21.1875 
Q 55.609375 10.40625 48.1875 4.484375 
Q 40.765625 -1.421875 27.09375 -1.421875 
Q 22.515625 -1.421875 17.65625 -0.515625 
Q 12.796875 0.390625 7.625 2.203125 
L 7.625 11.71875 
Q 11.71875 9.328125 16.59375 8.109375 
Q 21.484375 6.890625 26.8125 6.890625 
Q 36.078125 6.890625 40.9375 10.546875 
Q 45.796875 14.203125 45.796875 21.1875 
Q 45.796875 27.640625 41.28125 31.265625 
Q 36.765625 34.90625 28.71875 34.90625 
L 20.21875 34.90625 
L 20.21875 43.015625 
L 29.109375 43.015625 
Q 36.375 43.015625 40.234375 45.921875 
Q 44.09375 48.828125 44.09375 54.296875 
Q 44.09375 59.90625 40.109375 62.90625 
Q 36.140625 65.921875 28.71875 65.921875 
Q 24.65625 65.921875 20.015625 65.03125 
Q 15.375 64.15625 9.8125 62.3125 
L 9.8125 71.09375 
Q 15.4375 72.65625 20.34375 73.4375 
Q 25.25 74.21875 29.59375 74.21875 
Q 40.828125 74.21875 47.359375 69.109375 
Q 53.90625 64.015625 53.90625 55.328125 
Q 53.90625 49.265625 50.4375 45.09375 
Q 46.96875 40.921875 40.578125 39.3125 
z
" id="DejaVuSans-51"/>
       <path d="M 10.796875 72.90625 
L 49.515625 72.90625 
L 49.515625 64.59375 
L 19.828125 64.59375 
L 19.828125 46.734375 
Q 21.96875 47.46875 24.109375 47.828125 
Q 26.265625 48.1875 28.421875 48.1875 
Q 40.625 48.1875 47.75 41.5 
Q 54.890625 34.8125 54.890625 23.390625 
Q 54.890625 11.625 47.5625 5.09375 
Q 40.234375 -1.421875 26.90625 -1.421875 
Q 22.3125 -1.421875 17.546875 -0.640625 
Q 12.796875 0.140625 7.71875 1.703125 
L 7.71875 11.625 
Q 12.109375 9.234375 16.796875 8.0625 
Q 21.484375 6.890625 26.703125 6.890625 
Q 35.15625 6.890625 40.078125 11.328125 
Q 45.015625 15.765625 45.015625 23.390625 
Q 45.015625 31 40.078125 35.4375 
Q 35.15625 39.890625 26.703125 39.890625 
Q 22.75 39.890625 18.8125 39.015625 
Q 14.890625 38.140625 10.796875 36.28125 
z
" id="DejaVuSans-53"/>
      </defs>
      <g transform="translate(221.669768 511.038437)scale(0.1 -0.1)">
       <use xlink:href="#DejaVuSans-48"/>
       <use x="63.623047" xlink:href="#DejaVuSans-46"/>
       <use x="95.410156" xlink:href="#DejaVuSans-51"/>
       <use x="159.033203" xlink:href="#DejaVuSans-53"/>
      </g>
     </g>
    </g>
    <g id="xtick_2">
     <g id="line2d_2">
      <g>
       <use style="stroke:#000000;stroke-width:0.8;" x="415.580029" xlink:href="#m4aa1ddcf21" y="496.44"/>
      </g>
     </g>
     <g id="text_2">
      <!-- 0.40 -->
      <defs>
       <path d="M 37.796875 64.3125 
L 12.890625 25.390625 
L 37.796875 25.390625 
z
M 35.203125 72.90625 
L 47.609375 72.90625 
L 47.609375 25.390625 
L 58.015625 25.390625 
L 58.015625 17.1875 
L 47.609375 17.1875 
L 47.609375 0 
L 37.796875 0 
L 37.796875 17.1875 
L 4.890625 17.1875 
L 4.890625 26.703125 
z
" id="DejaVuSans-52"/>
      </defs>
      <g transform="translate(404.447216 511.038437)scale(0.1 -0.1)">
       <use xlink:href="#DejaVuSans-48"/>
       <use x="63.623047" xlink:href="#DejaVuSans-46"/>
       <use x="95.410156" xlink:href="#DejaVuSans-52"/>
       <use x="159.033203" xlink:href="#DejaVuSans-48"/>
      </g>
     </g>
    </g>
    <g id="xtick_3">
     <g id="line2d_3">
      <g>
       <use style="stroke:#000000;stroke-width:0.8;" x="598.357477" xlink:href="#m4aa1ddcf21" y="496.44"/>
      </g>
     </g>
     <g id="text_3">
      <!-- 0.45 -->
      <g transform="translate(587.224664 511.038437)scale(0.1 -0.1)">
       <use xlink:href="#DejaVuSans-48"/>
       <use x="63.623047" xlink:href="#DejaVuSans-46"/>
       <use x="95.410156" xlink:href="#DejaVuSans-52"/>
       <use x="159.033203" xlink:href="#DejaVuSans-53"/>
      </g>
     </g>
    </g>
    <g id="xtick_4">
     <g id="line2d_4">
      <g>
       <use style="stroke:#000000;stroke-width:0.8;" x="781.134925" xlink:href="#m4aa1ddcf21" y="496.44"/>
      </g>
     </g>
     <g id="text_4">
      <!-- 0.50 -->
      <g transform="translate(770.002112 511.038437)scale(0.1 -0.1)">
       <use xlink:href="#DejaVuSans-48"/>
       <use x="63.623047" xlink:href="#DejaVuSans-46"/>
       <use x="95.410156" xlink:href="#DejaVuSans-53"/>
       <use x="159.033203" xlink:href="#DejaVuSans-48"/>
      </g>
     </g>
    </g>
    <g id="text_5">
     <!-- Volatility -->
     <defs>
      <path d="M 28.609375 0 
L 0.78125 72.90625 
L 11.078125 72.90625 
L 34.1875 11.53125 
L 57.328125 72.90625 
L 67.578125 72.90625 
L 39.796875 0 
z
" id="DejaVuSans-86"/>
      <path d="M 30.609375 48.390625 
Q 23.390625 48.390625 19.1875 42.75 
Q 14.984375 37.109375 14.984375 27.296875 
Q 14.984375 17.484375 19.15625 11.84375 
Q 23.34375 6.203125 30.609375 6.203125 
Q 37.796875 6.203125 41.984375 11.859375 
Q 46.1875 17.53125 46.1875 27.296875 
Q 46.1875 37.015625 41.984375 42.703125 
Q 37.796875 48.390625 30.609375 48.390625 
z
M 30.609375 56 
Q 42.328125 56 49.015625 48.375 
Q 55.71875 40.765625 55.71875 27.296875 
Q 55.71875 13.875 49.015625 6.21875 
Q 42.328125 -1.421875 30.609375 -1.421875 
Q 18.84375 -1.421875 12.171875 6.21875 
Q 5.515625 13.875 5.515625 27.296875 
Q 5.515625 40.765625 12.171875 48.375 
Q 18.84375 56 30.609375 56 
z
" id="DejaVuSans-111"/>
      <path d="M 9.421875 75.984375 
L 18.40625 75.984375 
L 18.40625 0 
L 9.421875 0 
z
" id="DejaVuSans-108"/>
      <path d="M 34.28125 27.484375 
Q 23.390625 27.484375 19.1875 25 
Q 14.984375 22.515625 14.984375 16.5 
Q 14.984375 11.71875 18.140625 8.90625 
Q 21.296875 6.109375 26.703125 6.109375 
Q 34.1875 6.109375 38.703125 11.40625 
Q 43.21875 16.703125 43.21875 25.484375 
L 43.21875 27.484375 
z
M 52.203125 31.203125 
L 52.203125 0 
L 43.21875 0 
L 43.21875 8.296875 
Q 40.140625 3.328125 35.546875 0.953125 
Q 30.953125 -1.421875 24.3125 -1.421875 
Q 15.921875 -1.421875 10.953125 3.296875 
Q 6 8.015625 6 15.921875 
Q 6 25.140625 12.171875 29.828125 
Q 18.359375 34.515625 30.609375 34.515625 
L 43.21875 34.515625 
L 43.21875 35.40625 
Q 43.21875 41.609375 39.140625 45 
Q 35.0625 48.390625 27.6875 48.390625 
Q 23 48.390625 18.546875 47.265625 
Q 14.109375 46.140625 10.015625 43.890625 
L 10.015625 52.203125 
Q 14.9375 54.109375 19.578125 55.046875 
Q 24.21875 56 28.609375 56 
Q 40.484375 56 46.34375 49.84375 
Q 52.203125 43.703125 52.203125 31.203125 
z
" id="DejaVuSans-97"/>
      <path d="M 18.3125 70.21875 
L 18.3125 54.6875 
L 36.8125 54.6875 
L 36.8125 47.703125 
L 18.3125 47.703125 
L 18.3125 18.015625 
Q 18.3125 11.328125 20.140625 9.421875 
Q 21.96875 7.515625 27.59375 7.515625 
L 36.8125 7.515625 
L 36.8125 0 
L 27.59375 0 
Q 17.1875 0 13.234375 3.875 
Q 9.28125 7.765625 9.28125 18.015625 
L 9.28125 47.703125 
L 2.6875 47.703125 
L 2.6875 54.6875 
L 9.28125 54.6875 
L 9.28125 70.21875 
z
" id="DejaVuSans-116"/>
      <path d="M 9.421875 54.6875 
L 18.40625 54.6875 
L 18.40625 0 
L 9.421875 0 
z
M 9.421875 75.984375 
L 18.40625 75.984375 
L 18.40625 64.59375 
L 9.421875 64.59375 
z
" id="DejaVuSans-105"/>
      <path d="M 32.171875 -5.078125 
Q 28.375 -14.84375 24.75 -17.8125 
Q 21.140625 -20.796875 15.09375 -20.796875 
L 7.90625 -20.796875 
L 7.90625 -13.28125 
L 13.1875 -13.28125 
Q 16.890625 -13.28125 18.9375 -11.515625 
Q 21 -9.765625 23.484375 -3.21875 
L 25.09375 0.875 
L 2.984375 54.6875 
L 12.5 54.6875 
L 29.59375 11.921875 
L 46.6875 54.6875 
L 56.203125 54.6875 
z
" id="DejaVuSans-121"/>
     </defs>
     <g transform="translate(455.049219 524.716562)scale(0.1 -0.1)">
      <use xlink:href="#DejaVuSans-86"/>
      <use x="68.298828" xlink:href="#DejaVuSans-111"/>
      <use x="129.480469" xlink:href="#DejaVuSans-108"/>
      <use x="157.263672" xlink:href="#DejaVuSans-97"/>
      <use x="218.542969" xlink:href="#DejaVuSans-116"/>
      <use x="257.751953" xlink:href="#DejaVuSans-105"/>
      <use x="285.535156" xlink:href="#DejaVuSans-108"/>
      <use x="313.318359" xlink:href="#DejaVuSans-105"/>
      <use x="341.101562" xlink:href="#DejaVuSans-116"/>
      <use x="380.310547" xlink:href="#DejaVuSans-121"/>
     </g>
    </g>
   </g>
   <g id="matplotlib.axis_2">
    <g id="ytick_1">
     <g id="line2d_5">
      <defs>
       <path d="M 0 0 
L -3.5 0 
" id="m16c7b10ea3" style="stroke:#000000;stroke-width:0.8;"/>
      </defs>
      <g>
       <use style="stroke:#000000;stroke-width:0.8;" x="58.523438" xlink:href="#m16c7b10ea3" y="438.954024"/>
      </g>
     </g>
     <g id="text_6">
      <!-- −0.10 -->
      <defs>
       <path d="M 10.59375 35.5 
L 73.1875 35.5 
L 73.1875 27.203125 
L 10.59375 27.203125 
z
" id="DejaVuSans-8722"/>
       <path d="M 12.40625 8.296875 
L 28.515625 8.296875 
L 28.515625 63.921875 
L 10.984375 60.40625 
L 10.984375 69.390625 
L 28.421875 72.90625 
L 38.28125 72.90625 
L 38.28125 8.296875 
L 54.390625 8.296875 
L 54.390625 0 
L 12.40625 0 
z
" id="DejaVuSans-49"/>
      </defs>
      <g transform="translate(20.878125 442.753243)scale(0.1 -0.1)">
       <use xlink:href="#DejaVuSans-8722"/>
       <use x="83.789062" xlink:href="#DejaVuSans-48"/>
       <use x="147.412109" xlink:href="#DejaVuSans-46"/>
       <use x="179.199219" xlink:href="#DejaVuSans-49"/>
       <use x="242.822266" xlink:href="#DejaVuSans-48"/>
      </g>
     </g>
    </g>
    <g id="ytick_2">
     <g id="line2d_6">
      <g>
       <use style="stroke:#000000;stroke-width:0.8;" x="58.523438" xlink:href="#m16c7b10ea3" y="364.202391"/>
      </g>
     </g>
     <g id="text_7">
      <!-- −0.05 -->
      <g transform="translate(20.878125 368.00161)scale(0.1 -0.1)">
       <use xlink:href="#DejaVuSans-8722"/>
       <use x="83.789062" xlink:href="#DejaVuSans-48"/>
       <use x="147.412109" xlink:href="#DejaVuSans-46"/>
       <use x="179.199219" xlink:href="#DejaVuSans-48"/>
       <use x="242.822266" xlink:href="#DejaVuSans-53"/>
      </g>
     </g>
    </g>
    <g id="ytick_3">
     <g id="line2d_7">
      <g>
       <use style="stroke:#000000;stroke-width:0.8;" x="58.523438" xlink:href="#m16c7b10ea3" y="289.450758"/>
      </g>
     </g>
     <g id="text_8">
      <!-- 0.00 -->
      <g transform="translate(29.257813 293.249976)scale(0.1 -0.1)">
       <use xlink:href="#DejaVuSans-48"/>
       <use x="63.623047" xlink:href="#DejaVuSans-46"/>
       <use x="95.410156" xlink:href="#DejaVuSans-48"/>
       <use x="159.033203" xlink:href="#DejaVuSans-48"/>
      </g>
     </g>
    </g>
    <g id="ytick_4">
     <g id="line2d_8">
      <g>
       <use style="stroke:#000000;stroke-width:0.8;" x="58.523438" xlink:href="#m16c7b10ea3" y="214.699124"/>
      </g>
     </g>
     <g id="text_9">
      <!-- 0.05 -->
      <g transform="translate(29.257813 218.498343)scale(0.1 -0.1)">
       <use xlink:href="#DejaVuSans-48"/>
       <use x="63.623047" xlink:href="#DejaVuSans-46"/>
       <use x="95.410156" xlink:href="#DejaVuSans-48"/>
       <use x="159.033203" xlink:href="#DejaVuSans-53"/>
      </g>
     </g>
    </g>
    <g id="ytick_5">
     <g id="line2d_9">
      <g>
       <use style="stroke:#000000;stroke-width:0.8;" x="58.523438" xlink:href="#m16c7b10ea3" y="139.947491"/>
      </g>
     </g>
     <g id="text_10">
      <!-- 0.10 -->
      <g transform="translate(29.257813 143.74671)scale(0.1 -0.1)">
       <use xlink:href="#DejaVuSans-48"/>
       <use x="63.623047" xlink:href="#DejaVuSans-46"/>
       <use x="95.410156" xlink:href="#DejaVuSans-49"/>
       <use x="159.033203" xlink:href="#DejaVuSans-48"/>
      </g>
     </g>
    </g>
    <g id="ytick_6">
     <g id="line2d_10">
      <g>
       <use style="stroke:#000000;stroke-width:0.8;" x="58.523438" xlink:href="#m16c7b10ea3" y="65.195857"/>
      </g>
     </g>
     <g id="text_11">
      <!-- 0.15 -->
      <g transform="translate(29.257813 68.995076)scale(0.1 -0.1)">
       <use xlink:href="#DejaVuSans-48"/>
       <use x="63.623047" xlink:href="#DejaVuSans-46"/>
       <use x="95.410156" xlink:href="#DejaVuSans-49"/>
       <use x="159.033203" xlink:href="#DejaVuSans-53"/>
      </g>
     </g>
    </g>
    <g id="text_12">
     <!-- Return -->
     <defs>
      <path d="M 44.390625 34.1875 
Q 47.5625 33.109375 50.5625 29.59375 
Q 53.5625 26.078125 56.59375 19.921875 
L 66.609375 0 
L 56 0 
L 46.6875 18.703125 
Q 43.0625 26.03125 39.671875 28.421875 
Q 36.28125 30.8125 30.421875 30.8125 
L 19.671875 30.8125 
L 19.671875 0 
L 9.8125 0 
L 9.8125 72.90625 
L 32.078125 72.90625 
Q 44.578125 72.90625 50.734375 67.671875 
Q 56.890625 62.453125 56.890625 51.90625 
Q 56.890625 45.015625 53.6875 40.46875 
Q 50.484375 35.9375 44.390625 34.1875 
z
M 19.671875 64.796875 
L 19.671875 38.921875 
L 32.078125 38.921875 
Q 39.203125 38.921875 42.84375 42.21875 
Q 46.484375 45.515625 46.484375 51.90625 
Q 46.484375 58.296875 42.84375 61.546875 
Q 39.203125 64.796875 32.078125 64.796875 
z
" id="DejaVuSans-82"/>
      <path d="M 56.203125 29.59375 
L 56.203125 25.203125 
L 14.890625 25.203125 
Q 15.484375 15.921875 20.484375 11.0625 
Q 25.484375 6.203125 34.421875 6.203125 
Q 39.59375 6.203125 44.453125 7.46875 
Q 49.3125 8.734375 54.109375 11.28125 
L 54.109375 2.78125 
Q 49.265625 0.734375 44.1875 -0.34375 
Q 39.109375 -1.421875 33.890625 -1.421875 
Q 20.796875 -1.421875 13.15625 6.1875 
Q 5.515625 13.8125 5.515625 26.8125 
Q 5.515625 40.234375 12.765625 48.109375 
Q 20.015625 56 32.328125 56 
Q 43.359375 56 49.78125 48.890625 
Q 56.203125 41.796875 56.203125 29.59375 
z
M 47.21875 32.234375 
Q 47.125 39.59375 43.09375 43.984375 
Q 39.0625 48.390625 32.421875 48.390625 
Q 24.90625 48.390625 20.390625 44.140625 
Q 15.875 39.890625 15.1875 32.171875 
z
" id="DejaVuSans-101"/>
      <path d="M 8.5 21.578125 
L 8.5 54.6875 
L 17.484375 54.6875 
L 17.484375 21.921875 
Q 17.484375 14.15625 20.5 10.265625 
Q 23.53125 6.390625 29.59375 6.390625 
Q 36.859375 6.390625 41.078125 11.03125 
Q 45.3125 15.671875 45.3125 23.6875 
L 45.3125 54.6875 
L 54.296875 54.6875 
L 54.296875 0 
L 45.3125 0 
L 45.3125 8.40625 
Q 42.046875 3.421875 37.71875 1 
Q 33.40625 -1.421875 27.6875 -1.421875 
Q 18.265625 -1.421875 13.375 4.4375 
Q 8.5 10.296875 8.5 21.578125 
z
M 31.109375 56 
z
" id="DejaVuSans-117"/>
      <path d="M 41.109375 46.296875 
Q 39.59375 47.171875 37.8125 47.578125 
Q 36.03125 48 33.890625 48 
Q 26.265625 48 22.1875 43.046875 
Q 18.109375 38.09375 18.109375 28.8125 
L 18.109375 0 
L 9.078125 0 
L 9.078125 54.6875 
L 18.109375 54.6875 
L 18.109375 46.1875 
Q 20.953125 51.171875 25.484375 53.578125 
Q 30.03125 56 36.53125 56 
Q 37.453125 56 38.578125 55.875 
Q 39.703125 55.765625 41.0625 55.515625 
z
" id="DejaVuSans-114"/>
      <path d="M 54.890625 33.015625 
L 54.890625 0 
L 45.90625 0 
L 45.90625 32.71875 
Q 45.90625 40.484375 42.875 44.328125 
Q 39.84375 48.1875 33.796875 48.1875 
Q 26.515625 48.1875 22.3125 43.546875 
Q 18.109375 38.921875 18.109375 30.90625 
L 18.109375 0 
L 9.078125 0 
L 9.078125 54.6875 
L 18.109375 54.6875 
L 18.109375 46.1875 
Q 21.34375 51.125 25.703125 53.5625 
Q 30.078125 56 35.796875 56 
Q 45.21875 56 50.046875 50.171875 
Q 54.890625 44.34375 54.890625 33.015625 
z
" id="DejaVuSans-110"/>
     </defs>
     <g transform="translate(14.798438 268.72)rotate(-90)scale(0.1 -0.1)">
      <use xlink:href="#DejaVuSans-82"/>
      <use x="69.419922" xlink:href="#DejaVuSans-101"/>
      <use x="130.943359" xlink:href="#DejaVuSans-116"/>
      <use x="170.152344" xlink:href="#DejaVuSans-117"/>
      <use x="233.53125" xlink:href="#DejaVuSans-114"/>
      <use x="274.628906" xlink:href="#DejaVuSans-110"/>
     </g>
    </g>
   </g>
   <g id="patch_3">
    <path d="M 58.523438 496.44 
L 58.523438 7.2 
" style="fill:none;stroke:#000000;stroke-linecap:square;stroke-linejoin:miter;stroke-width:0.8;"/>
   </g>
   <g id="patch_4">
    <path d="M 895.523438 496.44 
L 895.523438 7.2 
" style="fill:none;stroke:#000000;stroke-linecap:square;stroke-linejoin:miter;stroke-width:0.8;"/>
   </g>
   <g id="patch_5">
    <path d="M 58.523438 496.44 
L 895.523438 496.44 
" style="fill:none;stroke:#000000;stroke-linecap:square;stroke-linejoin:miter;stroke-width:0.8;"/>
   </g>
   <g id="patch_6">
    <path d="M 58.523438 7.2 
L 895.523438 7.2 
" style="fill:none;stroke:#000000;stroke-linecap:square;stroke-linejoin:miter;stroke-width:0.8;"/>
   </g>
  </g>
 </g>
 <defs>
  <clipPath id="p013ff00b2b">
   <rect height="489.24" width="837" x="58.523438" y="7.2"/>
  </clipPath>
 </defs>
</svg>
