<?xml version="1.0" encoding="utf-8" standalone="no"?>
<!DOCTYPE svg PUBLIC "-//W3C//DTD SVG 1.1//EN"
  "http://www.w3.org/Graphics/SVG/1.1/DTD/svg11.dtd">
<!-- Created with matplotlib (https://matplotlib.org/) -->
<svg height="456.031033pt" version="1.1" viewBox="0 0 703.725 456.031033" width="703.725pt" xmlns="http://www.w3.org/2000/svg" xmlns:xlink="http://www.w3.org/1999/xlink">
 <defs>
  <style type="text/css">
*{stroke-linecap:butt;stroke-linejoin:round;}
  </style>
 </defs>
 <g id="figure_1">
  <g id="patch_1">
   <path d="M 0 456.031033 
L 703.725 456.031033 
L 703.725 0 
L 0 0 
z
" style="fill:none;"/>
  </g>
  <g id="axes_1">
   <g id="patch_2">
    <path d="M 26.925 398.88 
L 696.525 398.88 
L 696.525 7.2 
L 26.925 7.2 
z
" style="fill:#ffffff;"/>
   </g>
   <g id="matplotlib.axis_1">
    <g id="xtick_1">
     <g id="line2d_1">
      <defs>
       <path d="M 0 0 
L 0 3.5 
" id="m26ab996989" style="stroke:#000000;stroke-width:0.8;"/>
      </defs>
      <g>
       <use style="stroke:#000000;stroke-width:0.8;" x="56.600455" xlink:href="#m26ab996989" y="398.88"/>
      </g>
     </g>
     <g id="text_1">
      <!-- 2018-01 -->
      <defs>
       <path d="M 19.1875 8.296875 
L 53.609375 8.296875 
L 53.609375 0 
L 7.328125 0 
L 7.328125 8.296875 
Q 12.9375 14.109375 22.625 23.890625 
Q 32.328125 33.6875 34.8125 36.53125 
Q 39.546875 41.84375 41.421875 45.53125 
Q 43.3125 49.21875 43.3125 52.78125 
Q 43.3125 58.59375 39.234375 62.25 
Q 35.15625 65.921875 28.609375 65.921875 
Q 23.96875 65.921875 18.8125 64.3125 
Q 13.671875 62.703125 7.8125 59.421875 
L 7.8125 69.390625 
Q 13.765625 71.78125 18.9375 73 
Q 24.125 74.21875 28.421875 74.21875 
Q 39.75 74.21875 46.484375 68.546875 
Q 53.21875 62.890625 53.21875 53.421875 
Q 53.21875 48.921875 51.53125 44.890625 
Q 49.859375 40.875 45.40625 35.40625 
Q 44.1875 33.984375 37.640625 27.21875 
Q 31.109375 20.453125 19.1875 8.296875 
z
" id="DejaVuSans-50"/>
       <path d="M 31.78125 66.40625 
Q 24.171875 66.40625 20.328125 58.90625 
Q 16.5 51.421875 16.5 36.375 
Q 16.5 21.390625 20.328125 13.890625 
Q 24.171875 6.390625 31.78125 6.390625 
Q 39.453125 6.390625 43.28125 13.890625 
Q 47.125 21.390625 47.125 36.375 
Q 47.125 51.421875 43.28125 58.90625 
Q 39.453125 66.40625 31.78125 66.40625 
z
M 31.78125 74.21875 
Q 44.046875 74.21875 50.515625 64.515625 
Q 56.984375 54.828125 56.984375 36.375 
Q 56.984375 17.96875 50.515625 8.265625 
Q 44.046875 -1.421875 31.78125 -1.421875 
Q 19.53125 -1.421875 13.0625 8.265625 
Q 6.59375 17.96875 6.59375 36.375 
Q 6.59375 54.828125 13.0625 64.515625 
Q 19.53125 74.21875 31.78125 74.21875 
z
" id="DejaVuSans-48"/>
       <path d="M 12.40625 8.296875 
L 28.515625 8.296875 
L 28.515625 63.921875 
L 10.984375 60.40625 
L 10.984375 69.390625 
L 28.421875 72.90625 
L 38.28125 72.90625 
L 38.28125 8.296875 
L 54.390625 8.296875 
L 54.390625 0 
L 12.40625 0 
z
" id="DejaVuSans-49"/>
       <path d="M 31.78125 34.625 
Q 24.75 34.625 20.71875 30.859375 
Q 16.703125 27.09375 16.703125 20.515625 
Q 16.703125 13.921875 20.71875 10.15625 
Q 24.75 6.390625 31.78125 6.390625 
Q 38.8125 6.390625 42.859375 10.171875 
Q 46.921875 13.96875 46.921875 20.515625 
Q 46.921875 27.09375 42.890625 30.859375 
Q 38.875 34.625 31.78125 34.625 
z
M 21.921875 38.8125 
Q 15.578125 40.375 12.03125 44.71875 
Q 8.5 49.078125 8.5 55.328125 
Q 8.5 64.0625 14.71875 69.140625 
Q 20.953125 74.21875 31.78125 74.21875 
Q 42.671875 74.21875 48.875 69.140625 
Q 55.078125 64.0625 55.078125 55.328125 
Q 55.078125 49.078125 51.53125 44.71875 
Q 48 40.375 41.703125 38.8125 
Q 48.828125 37.15625 52.796875 32.3125 
Q 56.78125 27.484375 56.78125 20.515625 
Q 56.78125 9.90625 50.3125 4.234375 
Q 43.84375 -1.421875 31.78125 -1.421875 
Q 19.734375 -1.421875 13.25 4.234375 
Q 6.78125 9.90625 6.78125 20.515625 
Q 6.78125 27.484375 10.78125 32.3125 
Q 14.796875 37.15625 21.921875 38.8125 
z
M 18.3125 54.390625 
Q 18.3125 48.734375 21.84375 45.5625 
Q 25.390625 42.390625 31.78125 42.390625 
Q 38.140625 42.390625 41.71875 45.5625 
Q 45.3125 48.734375 45.3125 54.390625 
Q 45.3125 60.0625 41.71875 63.234375 
Q 38.140625 66.40625 31.78125 66.40625 
Q 25.390625 66.40625 21.84375 63.234375 
Q 18.3125 60.0625 18.3125 54.390625 
z
" id="DejaVuSans-56"/>
       <path d="M 4.890625 31.390625 
L 31.203125 31.390625 
L 31.203125 23.390625 
L 4.890625 23.390625 
z
" id="DejaVuSans-45"/>
      </defs>
      <g transform="translate(19.375634 433.351846)rotate(-30)scale(0.1 -0.1)">
       <use xlink:href="#DejaVuSans-50"/>
       <use x="63.623047" xlink:href="#DejaVuSans-48"/>
       <use x="127.246094" xlink:href="#DejaVuSans-49"/>
       <use x="190.869141" xlink:href="#DejaVuSans-56"/>
       <use x="254.492188" xlink:href="#DejaVuSans-45"/>
       <use x="290.576172" xlink:href="#DejaVuSans-48"/>
       <use x="354.199219" xlink:href="#DejaVuSans-49"/>
      </g>
     </g>
    </g>
    <g id="xtick_2">
     <g id="line2d_2">
      <g>
       <use style="stroke:#000000;stroke-width:0.8;" x="125.082273" xlink:href="#m26ab996989" y="398.88"/>
      </g>
     </g>
     <g id="text_2">
      <!-- 2018-04 -->
      <defs>
       <path d="M 37.796875 64.3125 
L 12.890625 25.390625 
L 37.796875 25.390625 
z
M 35.203125 72.90625 
L 47.609375 72.90625 
L 47.609375 25.390625 
L 58.015625 25.390625 
L 58.015625 17.1875 
L 47.609375 17.1875 
L 47.609375 0 
L 37.796875 0 
L 37.796875 17.1875 
L 4.890625 17.1875 
L 4.890625 26.703125 
z
" id="DejaVuSans-52"/>
      </defs>
      <g transform="translate(87.857452 433.351846)rotate(-30)scale(0.1 -0.1)">
       <use xlink:href="#DejaVuSans-50"/>
       <use x="63.623047" xlink:href="#DejaVuSans-48"/>
       <use x="127.246094" xlink:href="#DejaVuSans-49"/>
       <use x="190.869141" xlink:href="#DejaVuSans-56"/>
       <use x="254.492188" xlink:href="#DejaVuSans-45"/>
       <use x="290.576172" xlink:href="#DejaVuSans-48"/>
       <use x="354.199219" xlink:href="#DejaVuSans-52"/>
      </g>
     </g>
    </g>
    <g id="xtick_3">
     <g id="line2d_3">
      <g>
       <use style="stroke:#000000;stroke-width:0.8;" x="194.325" xlink:href="#m26ab996989" y="398.88"/>
      </g>
     </g>
     <g id="text_3">
      <!-- 2018-07 -->
      <defs>
       <path d="M 8.203125 72.90625 
L 55.078125 72.90625 
L 55.078125 68.703125 
L 28.609375 0 
L 18.3125 0 
L 43.21875 64.59375 
L 8.203125 64.59375 
z
" id="DejaVuSans-55"/>
      </defs>
      <g transform="translate(157.100179 433.351846)rotate(-30)scale(0.1 -0.1)">
       <use xlink:href="#DejaVuSans-50"/>
       <use x="63.623047" xlink:href="#DejaVuSans-48"/>
       <use x="127.246094" xlink:href="#DejaVuSans-49"/>
       <use x="190.869141" xlink:href="#DejaVuSans-56"/>
       <use x="254.492188" xlink:href="#DejaVuSans-45"/>
       <use x="290.576172" xlink:href="#DejaVuSans-48"/>
       <use x="354.199219" xlink:href="#DejaVuSans-55"/>
      </g>
     </g>
    </g>
    <g id="xtick_4">
     <g id="line2d_4">
      <g>
       <use style="stroke:#000000;stroke-width:0.8;" x="264.328636" xlink:href="#m26ab996989" y="398.88"/>
      </g>
     </g>
     <g id="text_4">
      <!-- 2018-10 -->
      <g transform="translate(227.103816 433.351846)rotate(-30)scale(0.1 -0.1)">
       <use xlink:href="#DejaVuSans-50"/>
       <use x="63.623047" xlink:href="#DejaVuSans-48"/>
       <use x="127.246094" xlink:href="#DejaVuSans-49"/>
       <use x="190.869141" xlink:href="#DejaVuSans-56"/>
       <use x="254.492188" xlink:href="#DejaVuSans-45"/>
       <use x="290.576172" xlink:href="#DejaVuSans-49"/>
       <use x="354.199219" xlink:href="#DejaVuSans-48"/>
      </g>
     </g>
    </g>
    <g id="xtick_5">
     <g id="line2d_5">
      <g>
       <use style="stroke:#000000;stroke-width:0.8;" x="334.332273" xlink:href="#m26ab996989" y="398.88"/>
      </g>
     </g>
     <g id="text_5">
      <!-- 2019-01 -->
      <defs>
       <path d="M 10.984375 1.515625 
L 10.984375 10.5 
Q 14.703125 8.734375 18.5 7.8125 
Q 22.3125 6.890625 25.984375 6.890625 
Q 35.75 6.890625 40.890625 13.453125 
Q 46.046875 20.015625 46.78125 33.40625 
Q 43.953125 29.203125 39.59375 26.953125 
Q 35.25 24.703125 29.984375 24.703125 
Q 19.046875 24.703125 12.671875 31.3125 
Q 6.296875 37.9375 6.296875 49.421875 
Q 6.296875 60.640625 12.9375 67.421875 
Q 19.578125 74.21875 30.609375 74.21875 
Q 43.265625 74.21875 49.921875 64.515625 
Q 56.59375 54.828125 56.59375 36.375 
Q 56.59375 19.140625 48.40625 8.859375 
Q 40.234375 -1.421875 26.421875 -1.421875 
Q 22.703125 -1.421875 18.890625 -0.6875 
Q 15.09375 0.046875 10.984375 1.515625 
z
M 30.609375 32.421875 
Q 37.25 32.421875 41.125 36.953125 
Q 45.015625 41.5 45.015625 49.421875 
Q 45.015625 57.28125 41.125 61.84375 
Q 37.25 66.40625 30.609375 66.40625 
Q 23.96875 66.40625 20.09375 61.84375 
Q 16.21875 57.28125 16.21875 49.421875 
Q 16.21875 41.5 20.09375 36.953125 
Q 23.96875 32.421875 30.609375 32.421875 
z
" id="DejaVuSans-57"/>
      </defs>
      <g transform="translate(297.107452 433.351846)rotate(-30)scale(0.1 -0.1)">
       <use xlink:href="#DejaVuSans-50"/>
       <use x="63.623047" xlink:href="#DejaVuSans-48"/>
       <use x="127.246094" xlink:href="#DejaVuSans-49"/>
       <use x="190.869141" xlink:href="#DejaVuSans-57"/>
       <use x="254.492188" xlink:href="#DejaVuSans-45"/>
       <use x="290.576172" xlink:href="#DejaVuSans-48"/>
       <use x="354.199219" xlink:href="#DejaVuSans-49"/>
      </g>
     </g>
    </g>
    <g id="xtick_6">
     <g id="line2d_6">
      <g>
       <use style="stroke:#000000;stroke-width:0.8;" x="402.814091" xlink:href="#m26ab996989" y="398.88"/>
      </g>
     </g>
     <g id="text_6">
      <!-- 2019-04 -->
      <g transform="translate(365.58927 433.351846)rotate(-30)scale(0.1 -0.1)">
       <use xlink:href="#DejaVuSans-50"/>
       <use x="63.623047" xlink:href="#DejaVuSans-48"/>
       <use x="127.246094" xlink:href="#DejaVuSans-49"/>
       <use x="190.869141" xlink:href="#DejaVuSans-57"/>
       <use x="254.492188" xlink:href="#DejaVuSans-45"/>
       <use x="290.576172" xlink:href="#DejaVuSans-48"/>
       <use x="354.199219" xlink:href="#DejaVuSans-52"/>
      </g>
     </g>
    </g>
    <g id="xtick_7">
     <g id="line2d_7">
      <g>
       <use style="stroke:#000000;stroke-width:0.8;" x="472.056818" xlink:href="#m26ab996989" y="398.88"/>
      </g>
     </g>
     <g id="text_7">
      <!-- 2019-07 -->
      <g transform="translate(434.831997 433.351846)rotate(-30)scale(0.1 -0.1)">
       <use xlink:href="#DejaVuSans-50"/>
       <use x="63.623047" xlink:href="#DejaVuSans-48"/>
       <use x="127.246094" xlink:href="#DejaVuSans-49"/>
       <use x="190.869141" xlink:href="#DejaVuSans-57"/>
       <use x="254.492188" xlink:href="#DejaVuSans-45"/>
       <use x="290.576172" xlink:href="#DejaVuSans-48"/>
       <use x="354.199219" xlink:href="#DejaVuSans-55"/>
      </g>
     </g>
    </g>
    <g id="xtick_8">
     <g id="line2d_8">
      <g>
       <use style="stroke:#000000;stroke-width:0.8;" x="542.060455" xlink:href="#m26ab996989" y="398.88"/>
      </g>
     </g>
     <g id="text_8">
      <!-- 2019-10 -->
      <g transform="translate(504.835634 433.351846)rotate(-30)scale(0.1 -0.1)">
       <use xlink:href="#DejaVuSans-50"/>
       <use x="63.623047" xlink:href="#DejaVuSans-48"/>
       <use x="127.246094" xlink:href="#DejaVuSans-49"/>
       <use x="190.869141" xlink:href="#DejaVuSans-57"/>
       <use x="254.492188" xlink:href="#DejaVuSans-45"/>
       <use x="290.576172" xlink:href="#DejaVuSans-49"/>
       <use x="354.199219" xlink:href="#DejaVuSans-48"/>
      </g>
     </g>
    </g>
    <g id="xtick_9">
     <g id="line2d_9">
      <g>
       <use style="stroke:#000000;stroke-width:0.8;" x="612.064091" xlink:href="#m26ab996989" y="398.88"/>
      </g>
     </g>
     <g id="text_9">
      <!-- 2020-01 -->
      <g transform="translate(574.83927 433.351846)rotate(-30)scale(0.1 -0.1)">
       <use xlink:href="#DejaVuSans-50"/>
       <use x="63.623047" xlink:href="#DejaVuSans-48"/>
       <use x="127.246094" xlink:href="#DejaVuSans-50"/>
       <use x="190.869141" xlink:href="#DejaVuSans-48"/>
       <use x="254.492188" xlink:href="#DejaVuSans-45"/>
       <use x="290.576172" xlink:href="#DejaVuSans-48"/>
       <use x="354.199219" xlink:href="#DejaVuSans-49"/>
      </g>
     </g>
    </g>
    <g id="xtick_10">
     <g id="line2d_10">
      <g>
       <use style="stroke:#000000;stroke-width:0.8;" x="681.306818" xlink:href="#m26ab996989" y="398.88"/>
      </g>
     </g>
     <g id="text_10">
      <!-- 2020-04 -->
      <g transform="translate(644.081997 433.351846)rotate(-30)scale(0.1 -0.1)">
       <use xlink:href="#DejaVuSans-50"/>
       <use x="63.623047" xlink:href="#DejaVuSans-48"/>
       <use x="127.246094" xlink:href="#DejaVuSans-50"/>
       <use x="190.869141" xlink:href="#DejaVuSans-48"/>
       <use x="254.492188" xlink:href="#DejaVuSans-45"/>
       <use x="290.576172" xlink:href="#DejaVuSans-48"/>
       <use x="354.199219" xlink:href="#DejaVuSans-52"/>
      </g>
     </g>
    </g>
    <g id="text_11">
     <!-- Date -->
     <defs>
      <path d="M 19.671875 64.796875 
L 19.671875 8.109375 
L 31.59375 8.109375 
Q 46.6875 8.109375 53.6875 14.9375 
Q 60.6875 21.78125 60.6875 36.53125 
Q 60.6875 51.171875 53.6875 57.984375 
Q 46.6875 64.796875 31.59375 64.796875 
z
M 9.8125 72.90625 
L 30.078125 72.90625 
Q 51.265625 72.90625 61.171875 64.09375 
Q 71.09375 55.28125 71.09375 36.53125 
Q 71.09375 17.671875 61.125 8.828125 
Q 51.171875 0 30.078125 0 
L 9.8125 0 
z
" id="DejaVuSans-68"/>
      <path d="M 34.28125 27.484375 
Q 23.390625 27.484375 19.1875 25 
Q 14.984375 22.515625 14.984375 16.5 
Q 14.984375 11.71875 18.140625 8.90625 
Q 21.296875 6.109375 26.703125 6.109375 
Q 34.1875 6.109375 38.703125 11.40625 
Q 43.21875 16.703125 43.21875 25.484375 
L 43.21875 27.484375 
z
M 52.203125 31.203125 
L 52.203125 0 
L 43.21875 0 
L 43.21875 8.296875 
Q 40.140625 3.328125 35.546875 0.953125 
Q 30.953125 -1.421875 24.3125 -1.421875 
Q 15.921875 -1.421875 10.953125 3.296875 
Q 6 8.015625 6 15.921875 
Q 6 25.140625 12.171875 29.828125 
Q 18.359375 34.515625 30.609375 34.515625 
L 43.21875 34.515625 
L 43.21875 35.40625 
Q 43.21875 41.609375 39.140625 45 
Q 35.0625 48.390625 27.6875 48.390625 
Q 23 48.390625 18.546875 47.265625 
Q 14.109375 46.140625 10.015625 43.890625 
L 10.015625 52.203125 
Q 14.9375 54.109375 19.578125 55.046875 
Q 24.21875 56 28.609375 56 
Q 40.484375 56 46.34375 49.84375 
Q 52.203125 43.703125 52.203125 31.203125 
z
" id="DejaVuSans-97"/>
      <path d="M 18.3125 70.21875 
L 18.3125 54.6875 
L 36.8125 54.6875 
L 36.8125 47.703125 
L 18.3125 47.703125 
L 18.3125 18.015625 
Q 18.3125 11.328125 20.140625 9.421875 
Q 21.96875 7.515625 27.59375 7.515625 
L 36.8125 7.515625 
L 36.8125 0 
L 27.59375 0 
Q 17.1875 0 13.234375 3.875 
Q 9.28125 7.765625 9.28125 18.015625 
L 9.28125 47.703125 
L 2.6875 47.703125 
L 2.6875 54.6875 
L 9.28125 54.6875 
L 9.28125 70.21875 
z
" id="DejaVuSans-116"/>
      <path d="M 56.203125 29.59375 
L 56.203125 25.203125 
L 14.890625 25.203125 
Q 15.484375 15.921875 20.484375 11.0625 
Q 25.484375 6.203125 34.421875 6.203125 
Q 39.59375 6.203125 44.453125 7.46875 
Q 49.3125 8.734375 54.109375 11.28125 
L 54.109375 2.78125 
Q 49.265625 0.734375 44.1875 -0.34375 
Q 39.109375 -1.421875 33.890625 -1.421875 
Q 20.796875 -1.421875 13.15625 6.1875 
Q 5.515625 13.8125 5.515625 26.8125 
Q 5.515625 40.234375 12.765625 48.109375 
Q 20.015625 56 32.328125 56 
Q 43.359375 56 49.78125 48.890625 
Q 56.203125 41.796875 56.203125 29.59375 
z
M 47.21875 32.234375 
Q 47.125 39.59375 43.09375 43.984375 
Q 39.0625 48.390625 32.421875 48.390625 
Q 24.90625 48.390625 20.390625 44.140625 
Q 15.875 39.890625 15.1875 32.171875 
z
" id="DejaVuSans-101"/>
     </defs>
     <g transform="translate(349.774219 446.751346)scale(0.1 -0.1)">
      <use xlink:href="#DejaVuSans-68"/>
      <use x="77.001953" xlink:href="#DejaVuSans-97"/>
      <use x="138.28125" xlink:href="#DejaVuSans-116"/>
      <use x="177.490234" xlink:href="#DejaVuSans-101"/>
     </g>
    </g>
   </g>
   <g id="matplotlib.axis_2">
    <g id="ytick_1">
     <g id="line2d_11">
      <defs>
       <path d="M 0 0 
L -3.5 0 
" id="mdbea30e149" style="stroke:#000000;stroke-width:0.8;"/>
      </defs>
      <g>
       <use style="stroke:#000000;stroke-width:0.8;" x="26.925" xlink:href="#mdbea30e149" y="348.554073"/>
      </g>
     </g>
     <g id="text_12">
      <!-- 10 -->
      <g transform="translate(7.2 352.353292)scale(0.1 -0.1)">
       <use xlink:href="#DejaVuSans-49"/>
       <use x="63.623047" xlink:href="#DejaVuSans-48"/>
      </g>
     </g>
    </g>
    <g id="ytick_2">
     <g id="line2d_12">
      <g>
       <use style="stroke:#000000;stroke-width:0.8;" x="26.925" xlink:href="#mdbea30e149" y="275.192919"/>
      </g>
     </g>
     <g id="text_13">
      <!-- 15 -->
      <defs>
       <path d="M 10.796875 72.90625 
L 49.515625 72.90625 
L 49.515625 64.59375 
L 19.828125 64.59375 
L 19.828125 46.734375 
Q 21.96875 47.46875 24.109375 47.828125 
Q 26.265625 48.1875 28.421875 48.1875 
Q 40.625 48.1875 47.75 41.5 
Q 54.890625 34.8125 54.890625 23.390625 
Q 54.890625 11.625 47.5625 5.09375 
Q 40.234375 -1.421875 26.90625 -1.421875 
Q 22.3125 -1.421875 17.546875 -0.640625 
Q 12.796875 0.140625 7.71875 1.703125 
L 7.71875 11.625 
Q 12.109375 9.234375 16.796875 8.0625 
Q 21.484375 6.890625 26.703125 6.890625 
Q 35.15625 6.890625 40.078125 11.328125 
Q 45.015625 15.765625 45.015625 23.390625 
Q 45.015625 31 40.078125 35.4375 
Q 35.15625 39.890625 26.703125 39.890625 
Q 22.75 39.890625 18.8125 39.015625 
Q 14.890625 38.140625 10.796875 36.28125 
z
" id="DejaVuSans-53"/>
      </defs>
      <g transform="translate(7.2 278.992138)scale(0.1 -0.1)">
       <use xlink:href="#DejaVuSans-49"/>
       <use x="63.623047" xlink:href="#DejaVuSans-53"/>
      </g>
     </g>
    </g>
    <g id="ytick_3">
     <g id="line2d_13">
      <g>
       <use style="stroke:#000000;stroke-width:0.8;" x="26.925" xlink:href="#mdbea30e149" y="201.831766"/>
      </g>
     </g>
     <g id="text_14">
      <!-- 20 -->
      <g transform="translate(7.2 205.630985)scale(0.1 -0.1)">
       <use xlink:href="#DejaVuSans-50"/>
       <use x="63.623047" xlink:href="#DejaVuSans-48"/>
      </g>
     </g>
    </g>
    <g id="ytick_4">
     <g id="line2d_14">
      <g>
       <use style="stroke:#000000;stroke-width:0.8;" x="26.925" xlink:href="#mdbea30e149" y="128.470613"/>
      </g>
     </g>
     <g id="text_15">
      <!-- 25 -->
      <g transform="translate(7.2 132.269831)scale(0.1 -0.1)">
       <use xlink:href="#DejaVuSans-50"/>
       <use x="63.623047" xlink:href="#DejaVuSans-53"/>
      </g>
     </g>
    </g>
    <g id="ytick_5">
     <g id="line2d_15">
      <g>
       <use style="stroke:#000000;stroke-width:0.8;" x="26.925" xlink:href="#mdbea30e149" y="55.109459"/>
      </g>
     </g>
     <g id="text_16">
      <!-- 30 -->
      <defs>
       <path d="M 40.578125 39.3125 
Q 47.65625 37.796875 51.625 33 
Q 55.609375 28.21875 55.609375 21.1875 
Q 55.609375 10.40625 48.1875 4.484375 
Q 40.765625 -1.421875 27.09375 -1.421875 
Q 22.515625 -1.421875 17.65625 -0.515625 
Q 12.796875 0.390625 7.625 2.203125 
L 7.625 11.71875 
Q 11.71875 9.328125 16.59375 8.109375 
Q 21.484375 6.890625 26.8125 6.890625 
Q 36.078125 6.890625 40.9375 10.546875 
Q 45.796875 14.203125 45.796875 21.1875 
Q 45.796875 27.640625 41.28125 31.265625 
Q 36.765625 34.90625 28.71875 34.90625 
L 20.21875 34.90625 
L 20.21875 43.015625 
L 29.109375 43.015625 
Q 36.375 43.015625 40.234375 45.921875 
Q 44.09375 48.828125 44.09375 54.296875 
Q 44.09375 59.90625 40.109375 62.90625 
Q 36.140625 65.921875 28.71875 65.921875 
Q 24.65625 65.921875 20.015625 65.03125 
Q 15.375 64.15625 9.8125 62.3125 
L 9.8125 71.09375 
Q 15.4375 72.65625 20.34375 73.4375 
Q 25.25 74.21875 29.59375 74.21875 
Q 40.828125 74.21875 47.359375 69.109375 
Q 53.90625 64.015625 53.90625 55.328125 
Q 53.90625 49.265625 50.4375 45.09375 
Q 46.96875 40.921875 40.578125 39.3125 
z
" id="DejaVuSans-51"/>
      </defs>
      <g transform="translate(7.2 58.908678)scale(0.1 -0.1)">
       <use xlink:href="#DejaVuSans-51"/>
       <use x="63.623047" xlink:href="#DejaVuSans-48"/>
      </g>
     </g>
    </g>
   </g>
   <g id="line2d_16">
    <path clip-path="url(#pda0db2b7d7)" d="M 57.361364 148.336143 
L 58.122273 145.631331 
L 58.883182 141.753917 
L 59.644091 139.319525 
L 61.926818 141.303581 
L 62.687727 146.352198 
L 63.448636 144.999652 
L 64.209545 137.335608 
L 64.970455 141.844449 
L 67.253182 140.762602 
L 68.014091 138.328294 
L 68.775 134.271048 
L 69.535909 133.278306 
L 70.296818 131.836628 
L 72.579545 126.516192 
L 73.340455 128.139102 
L 74.101364 109.386453 
L 74.862273 109.386453 
L 75.623182 93.337246 
L 77.905909 95.862226 
L 78.666818 99.378549 
L 79.427727 95.501135 
L 80.188636 92.592088 
L 80.949545 94.756984 
L 83.232273 103.326149 
L 83.993182 96.110062 
L 84.754091 103.596792 
L 85.515 104.228751 
L 86.275909 102.604918 
L 90.841364 83.029565 
L 91.602273 102.095226 
L 93.885 101.641336 
L 94.645909 95.118523 
L 95.406818 89.682929 
L 96.167727 86.784264 
L 96.928636 87.327902 
L 99.211364 88.506017 
L 99.972273 92.128879 
L 100.733182 100.28255 
L 101.494091 97.359287 
L 102.255 91.015298 
L 104.537727 84.669937 
L 105.298636 84.035012 
L 106.059545 85.938444 
L 106.820455 89.836483 
L 107.581364 84.217167 
L 109.864091 82.041748 
L 110.625 83.58227 
L 111.385909 89.56458 
L 112.146818 88.385793 
L 112.907727 91.015298 
L 115.190455 96.271563 
L 115.951364 97.359287 
L 117.473182 98.718885 
L 118.234091 93.824326 
L 120.516818 91.831006 
L 121.277727 98.901151 
L 122.038636 94.368188 
L 122.799545 86.210347 
L 125.843182 86.822548 
L 126.604091 85.372474 
L 127.365 88.00195 
L 128.125909 87.729852 
L 128.886818 86.006308 
L 131.169545 93.534233 
L 131.930455 89.543116 
L 132.691364 84.465143 
L 133.452273 85.372474 
L 134.213182 95.800463 
L 136.495909 102.965254 
L 137.256818 93.079923 
L 138.017727 85.372474 
L 138.778636 91.266603 
L 139.539545 89.634263 
L 141.822273 97.523979 
L 142.583182 98.884248 
L 143.344091 92.717993 
L 144.105 88.00195 
L 144.865909 88.273965 
L 147.148636 95.347525 
L 148.670455 109.297685 
L 149.431364 114.378316 
L 150.192273 118.461336 
L 152.475 116.1027 
L 153.235909 115.558278 
L 153.996818 115.286124 
L 154.757727 107.392294 
L 155.518636 113.017347 
L 157.801364 119.00573 
L 158.562273 121.365626 
L 159.323182 120.094517 
L 160.084091 134.340059 
L 160.845 133.523483 
L 163.127727 135.882064 
L 163.888636 130.529278 
L 164.649545 133.614602 
L 165.410455 133.342476 
L 166.171364 137.878602 
L 168.454091 149.946571 
L 169.215 152.305208 
L 169.975909 148.585602 
L 171.497727 144.385828 
L 173.780455 139.30223 
L 174.541364 148.834725 
L 175.302273 156.188498 
L 176.824091 163.088802 
L 179.106818 170.623528 
L 179.867727 169.897707 
L 180.628636 176.524261 
L 181.389545 185.603398 
L 182.150455 180.700836 
L 184.433182 188.508107 
L 185.194091 173.074851 
L 185.955 170.714871 
L 186.715909 178.885669 
L 187.476818 177.069047 
L 189.759545 176.979159 
L 190.520455 178.430744 
L 191.281364 183.152131 
L 192.042273 175.345027 
L 192.803182 169.353034 
L 195.085909 170.238761 
L 195.846818 160.790138 
L 196.607727 158.247415 
L 197.368636 160.155129 
L 198.129545 160.881425 
L 201.173182 153.704293 
L 201.934091 154.521876 
L 202.695 151.888034 
L 203.455909 144.893477 
L 205.738636 143.075707 
L 206.499545 132.902047 
L 207.260455 134.627298 
L 208.021364 138.261381 
L 208.782273 125.997489 
L 211.065 133.900889 
L 211.825909 129.813 
L 212.586818 122.908414 
L 213.347727 127.541369 
L 214.108636 126.361379 
L 216.391364 120.910729 
L 217.152273 131.901917 
L 217.913182 128.789195 
L 218.674091 130.606712 
L 219.435 122.60889 
L 221.717727 127.153132 
L 222.478636 126.69913 
L 223.239545 134.424294 
L 224.000455 135.333641 
L 224.761364 145.695668 
L 227.044091 143.150119 
L 227.805 135.333641 
L 228.565909 139.87791 
L 229.326818 139.515224 
L 230.087727 144.059494 
L 232.370455 148.738288 
L 233.131364 154.9489 
L 233.892273 150.838651 
L 234.653182 158.967359 
L 235.414091 158.145326 
L 237.696818 148.190369 
L 238.457727 148.738288 
L 239.218636 149.560461 
L 239.979545 156.867052 
L 240.740455 153.670711 
L 243.023182 154.744022 
L 243.784091 160.135847 
L 244.545 156.206801 
L 245.305909 151.271552 
L 248.349545 146.152692 
L 249.871364 161.3244 
L 250.632273 160.409989 
L 251.393182 159.861677 
L 253.675909 152.276439 
L 254.436818 151.271552 
L 255.197727 149.900647 
L 255.958636 152.824778 
L 256.719545 149.900647 
L 259.002273 156.206801 
L 259.763182 157.211688 
L 260.524091 149.260377 
L 261.285 144.873607 
L 262.045909 150.723184 
L 264.328636 150.51741 
L 265.089545 141.005932 
L 265.850455 124.08846 
L 266.611364 127.106173 
L 267.372273 123.173461 
L 269.655 101.958491 
L 270.415909 105.707426 
L 271.176818 117.596094 
L 271.937727 122.076139 
L 274.981364 121.985607 
L 275.742273 109.27387 
L 276.503182 106.622369 
L 277.264091 112.932244 
L 278.025 116.314938 
L 280.307727 112.840313 
L 281.068636 113.114735 
L 281.829545 123.083013 
L 282.590455 114.029595 
L 283.351364 113.114735 
L 285.634091 116.224463 
L 286.395 104.243723 
L 287.155909 107.627816 
L 287.916818 96.716834 
L 290.960455 86.927128 
L 291.721364 91.318963 
L 292.482273 85.554713 
L 293.243182 96.167935 
L 294.004091 87.841204 
L 296.286818 87.201634 
L 297.047727 94.977898 
L 297.808636 95.436321 
L 299.330455 83.541384 
L 301.613182 80.796357 
L 303.135 83.26685 
L 303.895909 79.42397 
L 304.656818 84.77656 
L 306.939545 90.540839 
L 307.700455 80.659147 
L 308.461364 72.699048 
L 309.222273 71.18931 
L 309.983182 71.738209 
L 312.265909 75.376967 
L 313.026818 77.711228 
L 313.787727 78.947077 
L 314.548636 76.887488 
L 315.309545 78.947077 
L 317.592273 88.833554 
L 318.353182 85.812707 
L 319.114091 83.890302 
L 319.875 75.65164 
L 320.635909 77.299372 
L 322.918636 85.263332 
L 323.679545 84.431029 
L 324.440455 87.590318 
L 325.201364 85.941942 
L 325.962273 92.810035 
L 329.766818 96.930835 
L 330.527727 90.200205 
L 331.288636 82.359631 
L 335.093182 55.894944 
L 335.854091 51.908052 
L 336.615 59.331901 
L 338.897727 53.695318 
L 339.658636 52.595477 
L 340.419545 48.471095 
L 341.180455 48.471095 
L 341.941364 53.557772 
L 344.224091 48.471095 
L 344.985 54.520178 
L 346.506818 56.582313 
L 347.267727 51.220739 
L 349.550455 54.107734 
L 350.311364 55.482528 
L 351.072273 51.770562 
L 351.833182 52.595477 
L 354.876818 49.708315 
L 355.637727 51.220739 
L 356.398636 51.908052 
L 357.159545 43.384419 
L 357.920455 45.516265 
L 360.203182 35.475757 
L 360.964091 49.504891 
L 361.725 66.147522 
L 362.485909 61.883719 
L 363.246818 49.09228 
L 365.529545 55.419282 
L 366.290455 48.267112 
L 367.051364 57.895008 
L 367.812273 45.653867 
L 368.573182 46.754156 
L 370.855909 53.218649 
L 371.616818 44.140855 
L 372.377727 48.129622 
L 373.138636 36.301065 
L 373.899545 45.736451 
L 376.182273 50.660954 
L 376.943182 51.364471 
L 377.704091 52.771475 
L 379.225909 62.411853 
L 383.791364 56.499561 
L 384.552273 50.72809 
L 386.835 43.408011 
L 387.595909 42.563505 
L 388.356818 37.777249 
L 389.117727 47.631096 
L 389.878636 53.684152 
L 392.161364 44.252656 
L 392.922273 49.038828 
L 393.683182 55.514207 
L 395.205 75.081053 
L 398.248636 78.881815 
L 399.009545 89.861781 
L 399.770455 78.459521 
L 400.531364 75.081053 
L 402.814091 77.686602 
L 403.575 81.20757 
L 404.335909 86.700309 
L 405.857727 74.869821 
L 408.140455 76.98233 
L 408.901364 78.954101 
L 409.662273 82.33436 
L 410.423182 87.686223 
L 411.184091 91.911407 
L 413.466818 89.939636 
L 414.227727 92.756444 
L 414.988636 94.869036 
L 415.749545 89.376297 
L 418.793182 92.193049 
L 419.554091 84.728566 
L 420.315 84.728566 
L 421.075909 82.193483 
L 421.836818 82.475153 
L 424.119545 81.911814 
L 424.880455 81.911814 
L 426.402273 80.150406 
L 427.163182 82.545871 
L 429.445909 91.141482 
L 430.206818 93.537087 
L 430.967727 90.436958 
L 431.728636 93.677936 
L 432.489545 97.905303 
L 434.772273 104.246298 
L 435.533182 105.796334 
L 436.294091 105.373648 
L 437.055 108.614542 
L 437.815909 109.178217 
L 440.098636 100.159863 
L 440.859545 86.350524 
L 441.620455 84.236868 
L 443.142273 90.859673 
L 445.425 93.537087 
L 446.185909 82.968642 
L 446.946818 75.500325 
L 447.707727 70.427473 
L 448.468636 70.99112 
L 450.751364 68.946896 
L 451.512273 69.933789 
L 452.273182 76.418934 
L 453.034091 72.330457 
L 453.795 69.651811 
L 456.077727 77.264867 
L 456.838636 72.753451 
L 457.599545 74.304187 
L 458.360455 79.661507 
L 459.121364 82.622131 
L 461.404091 80.50744 
L 462.925909 67.960003 
L 464.447727 58.514261 
L 466.730455 59.07816 
L 467.491364 63.871553 
L 468.252273 55.412649 
L 469.013182 58.232256 
L 469.774091 56.399515 
L 472.056818 56.470009 
L 472.817727 60.84259 
L 473.578636 54.918489 
L 475.100455 46.737561 
L 477.383182 45.891293 
L 478.905 49.981729 
L 479.665909 50.263846 
L 480.426818 52.661662 
L 482.709545 57.316389 
L 483.470455 55.764813 
L 484.231364 58.021584 
L 484.992273 47.724958 
L 485.753182 56.470009 
L 488.035909 50.263846 
L 488.796818 49.981729 
L 489.557727 48.430237 
L 490.318636 61.688943 
L 491.079545 56.611082 
L 493.362273 56.328992 
L 494.123182 66.907708 
L 494.884091 73.537117 
L 495.645 72.055308 
L 496.405909 72.478638 
L 498.688636 76.571173 
L 499.449545 63.446936 
L 500.210455 46.512505 
L 500.971364 46.37132 
L 501.732273 46.37132 
L 504.015 62.600192 
L 504.775909 58.507713 
L 505.536818 66.269313 
L 506.297727 69.232847 
L 507.058636 70.992128 
L 509.341364 72.716819 
L 510.102273 76.166313 
L 510.863182 70.56099 
L 511.624091 76.453776 
L 512.385 80.190677 
L 514.667727 81.915396 
L 516.189545 75.016491 
L 516.950455 71.710784 
L 517.711364 65.53048 
L 519.994091 73.655186 
L 520.755 79.838513 
L 521.515909 79.982384 
L 523.037727 54.098387 
L 525.320455 46.764566 
L 526.081364 51.078547 
L 526.842273 52.372744 
L 527.603182 53.379367 
L 528.364091 49.496804 
L 530.646818 59.418962 
L 531.407727 54.817379 
L 532.168636 53.235524 
L 532.929545 66.752755 
L 533.690455 61.863597 
L 535.973182 63.157766 
L 536.734091 67.615534 
L 537.495 65.458558 
L 538.255909 55.967733 
L 539.016818 56.255335 
L 541.299545 62.151116 
L 542.060455 68.985067 
L 542.821364 78.624437 
L 543.582273 81.070247 
L 544.343182 77.473467 
L 546.625909 88.40765 
L 547.386818 91.28513 
L 548.147727 85.242512 
L 548.908636 81.645732 
L 549.669545 74.452144 
L 551.952273 70.423751 
L 552.713182 68.121784 
L 553.474091 65.100545 
L 554.235 67.114742 
L 554.995909 68.553426 
L 557.278636 62.654679 
L 558.800455 49.850171 
L 559.561364 46.828848 
L 560.322273 45.533979 
L 562.605 37.189423 
L 563.365909 43.951396 
L 564.126818 41.217844 
L 564.887727 46.828848 
L 565.648636 46.325033 
L 567.931364 44.309885 
L 568.692273 38.552211 
L 569.453182 38.552211 
L 570.214091 36.249181 
L 570.975 43.87802 
L 573.257727 40.71137 
L 574.018636 50.211458 
L 574.779545 52.082679 
L 575.540455 50.643268 
L 578.584091 51.794797 
L 579.345 59.135754 
L 580.866818 52.514517 
L 581.627727 52.946298 
L 583.910455 57.120578 
L 584.671364 63.741926 
L 585.432273 60.575193 
L 586.193182 65.469164 
L 586.954091 64.029753 
L 589.236818 58.62928 
L 589.997727 57.477163 
L 590.758636 45.236079 
L 591.519545 44.227973 
L 592.280455 49.268446 
L 594.563182 44.659978 
L 596.085 50.564546 
L 596.845909 49.55644 
L 597.606818 39.786856 
L 599.889545 47.717178 
L 600.650455 41.805502 
L 601.411364 40.219449 
L 602.172273 38.921754 
L 602.933182 42.670632 
L 605.215909 36.758956 
L 607.498636 29.837887 
L 608.259545 31.568148 
L 610.542273 33.442615 
L 612.825 25.003636 
L 613.585909 28.898513 
L 615.868636 33.658995 
L 616.629545 42.602852 
L 618.912273 56.739841 
L 621.195 50.536868 
L 621.955909 52.700701 
L 622.716818 59.047937 
L 623.477727 58.32665 
L 624.238636 51.40239 
L 626.521364 59.192172 
L 627.282273 69.722865 
L 628.043182 62.798606 
L 628.804091 53.566223 
L 629.565 59.047937 
L 631.847727 64.385387 
L 633.369545 71.88667 
L 634.130455 66.116459 
L 634.891364 70.588359 
L 637.174091 68.35129 
L 637.935 65.464687 
L 638.695909 64.887411 
L 639.456818 66.763641 
L 640.217727 65.609034 
L 642.500455 61.567823 
L 643.261364 43.382376 
L 644.022273 41.073105 
L 644.783182 49.155526 
L 645.544091 54.928676 
L 647.826818 57.237947 
L 648.587727 57.670932 
L 649.348636 53.341055 
L 650.109545 53.77404 
L 650.870455 64.432262 
L 655.435909 82.176329 
L 656.196818 75.723925 
L 658.479545 75.650577 
L 659.240455 79.905537 
L 660.001364 75.650577 
L 660.762273 82.693241 
L 661.523182 96.044996 
L 663.805909 113.798382 
L 664.566818 104.408163 
L 665.327727 124.068955 
L 666.088636 161.483132 
L 666.088636 161.483132 
" style="fill:none;stroke:#1f77b4;stroke-linecap:square;stroke-width:1.5;"/>
   </g>
   <g id="line2d_17">
    <path clip-path="url(#pda0db2b7d7)" d="M 57.361364 369.413632 
L 58.122273 367.929976 
L 58.883182 365.533826 
L 59.644091 365.306615 
L 61.926818 365.419577 
L 62.687727 367.474352 
L 63.448636 367.474352 
L 64.209545 365.419577 
L 64.970455 365.078173 
L 67.253182 363.480282 
L 68.014091 361.768198 
L 68.775 359.714668 
L 69.535909 359.030602 
L 70.296818 358.573732 
L 72.579545 355.150795 
L 73.340455 356.975897 
L 74.101364 347.961014 
L 74.862273 347.961014 
L 75.623182 341.799235 
L 77.905909 345.793277 
L 79.427727 344.081179 
L 80.188636 344.538063 
L 80.949545 346.934256 
L 83.232273 351.499416 
L 83.993182 345.907498 
L 84.754091 348.989003 
L 85.515 350.357164 
L 86.275909 350.585648 
L 90.841364 345.907498 
L 91.602273 342.370326 
L 93.885 342.712989 
L 94.645909 336.54998 
L 96.167727 331.187735 
L 96.928636 331.353784 
L 99.211364 331.113014 
L 99.972273 333.277309 
L 100.733182 337.48685 
L 101.494091 334.759566 
L 102.255 333.434949 
L 104.537727 329.099559 
L 105.298636 329.822777 
L 106.059545 330.304946 
L 106.820455 331.388443 
L 107.581364 329.943323 
L 109.864091 328.377629 
L 110.625 329.461154 
L 111.385909 331.14738 
L 112.146818 331.869255 
L 112.907727 333.434949 
L 115.190455 335.121105 
L 115.951364 335.121105 
L 116.712273 334.880069 
L 117.473182 335.482769 
L 118.234091 335.000601 
L 120.516818 332.351395 
L 121.277727 334.037621 
L 122.038636 332.110332 
L 122.799545 329.220105 
L 125.843182 330.184386 
L 126.604091 331.02682 
L 127.365 330.906303 
L 128.125909 331.388443 
L 128.886818 332.713046 
L 131.169545 335.963595 
L 131.930455 335.241678 
L 132.691364 335.36221 
L 133.452273 332.833606 
L 134.213182 336.325204 
L 136.495909 339.215473 
L 138.017727 333.193858 
L 138.778636 335.722545 
L 139.539545 337.047134 
L 141.822273 336.445735 
L 142.583182 336.807344 
L 143.344091 335.843049 
L 144.105 330.665239 
L 144.865909 330.42412 
L 147.148636 331.388443 
L 149.431364 345.35629 
L 150.192273 347.764404 
L 152.475 347.524614 
L 153.996818 346.801439 
L 154.757727 341.864664 
L 155.518636 344.272779 
L 157.801364 346.439802 
L 158.562273 348.487622 
L 159.323182 347.042502 
L 160.084091 353.544928 
L 160.845 355.59142 
L 163.127727 356.435183 
L 163.888636 350.413582 
L 164.649545 353.785964 
L 165.410455 351.498451 
L 168.454091 359.44597 
L 169.215 360.408992 
L 169.975909 360.047355 
L 171.497727 357.997631 
L 173.780455 353.620614 
L 174.541364 360.650363 
L 175.302273 362.507269 
L 176.063182 370.598086 
L 176.824091 370.332815 
L 179.106818 373.250832 
L 179.867727 373.383467 
L 180.628636 374.311941 
L 181.389545 378.291011 
L 182.150455 377.097294 
L 184.433182 381.076364 
L 185.194091 376.036199 
L 185.955 373.516102 
L 186.715909 377.097294 
L 187.476818 376.168848 
L 189.759545 376.699388 
L 190.520455 374.709819 
L 191.281364 378.291011 
L 192.042273 375.373009 
L 192.803182 373.516102 
L 195.085909 372.18975 
L 195.846818 368.078003 
L 196.607727 366.884287 
L 198.129545 366.353732 
L 201.173182 366.088475 
L 201.934091 365.690542 
L 202.695 363.833635 
L 203.455909 360.915647 
L 205.738636 360.119836 
L 206.499545 357.467076 
L 207.260455 357.59974 
L 208.021364 355.610184 
L 208.782273 351.100559 
L 211.065 354.681709 
L 211.825909 354.416453 
L 212.586818 349.906815 
L 213.347727 352.426911 
L 214.108636 352.824831 
L 216.391364 351.365788 
L 217.152273 357.069157 
L 217.913182 354.018533 
L 218.674091 353.222694 
L 219.435 348.978368 
L 221.717727 351.100559 
L 222.478636 351.365788 
L 224.000455 357.20182 
L 224.761364 362.507269 
L 227.044091 363.170445 
L 227.805 359.987159 
L 228.565909 360.252457 
L 229.326818 361.578809 
L 230.087727 363.303095 
L 232.370455 363.590291 
L 233.131364 366.570868 
L 233.892273 363.725781 
L 234.653182 367.248246 
L 235.414091 366.70633 
L 237.696818 363.048389 
L 238.457727 365.216055 
L 239.218636 361.558128 
L 239.979545 367.519198 
L 240.740455 365.351545 
L 243.023182 366.776292 
L 243.784091 368.268931 
L 244.545 368.268931 
L 245.305909 363.655398 
L 248.349545 363.79107 
L 249.110455 369.218772 
L 250.632273 367.590448 
L 251.393182 364.605239 
L 253.675909 362.569844 
L 254.436818 360.805862 
L 255.197727 360.941561 
L 255.958636 362.841243 
L 256.719545 361.348646 
L 259.002273 365.147996 
L 260.524091 362.841243 
L 261.285 358.906166 
L 262.045909 358.22771 
L 264.328636 359.720321 
L 265.089545 354.156962 
L 265.850455 349.543471 
L 266.611364 350.628969 
L 267.372273 352.392993 
L 269.655 343.708698 
L 270.415909 344.929924 
L 271.176818 348.593616 
L 271.937727 349.407757 
L 274.981364 348.45793 
L 275.742273 342.351786 
L 276.503182 343.708698 
L 277.264091 348.322203 
L 278.025 348.593616 
L 280.307727 346.286849 
L 281.068636 346.558234 
L 281.829545 350.086227 
L 282.590455 348.45793 
L 283.351364 345.472694 
L 285.634091 347.508089 
L 286.395 341.809002 
L 287.155909 342.758871 
L 287.916818 340.587804 
L 290.960455 339.230878 
L 292.482273 337.873967 
L 293.243182 341.94473 
L 294.004091 338.552409 
L 296.286818 340.04502 
L 297.047727 341.13056 
L 297.808636 338.552409 
L 299.330455 332.581964 
L 301.613182 331.496438 
L 303.135 334.481646 
L 303.895909 334.61736 
L 304.656818 334.345988 
L 306.939545 337.331211 
L 307.700455 331.225081 
L 308.461364 327.425689 
L 309.222273 325.797392 
L 309.983182 327.83276 
L 312.265909 329.055987 
L 313.026818 331.502371 
L 313.787727 331.502371 
L 314.548636 327.289122 
L 315.309545 330.55099 
L 317.592273 335.579752 
L 318.353182 335.036114 
L 319.114091 333.405159 
L 319.875 330.822823 
L 320.635909 329.73552 
L 322.918636 334.220629 
L 323.679545 333.430443 
L 325.201364 333.702458 
L 325.962273 335.470526 
L 329.766818 337.510581 
L 330.527727 334.790475 
L 331.288636 330.982352 
L 335.854091 321.734018 
L 336.615 322.278019 
L 338.897727 322.414041 
L 340.419545 317.78986 
L 341.180455 319.013884 
L 341.941364 321.189988 
L 344.224091 318.605904 
L 344.985 319.693907 
L 345.745909 319.557942 
L 346.506818 319.285927 
L 347.267727 319.421906 
L 349.550455 320.101929 
L 350.311364 320.917973 
L 351.072273 318.605904 
L 351.833182 315.749805 
L 354.876818 311.80566 
L 355.637727 314.797767 
L 356.398636 312.75767 
L 357.159545 311.669625 
L 357.920455 311.125595 
L 360.203182 307.589487 
L 360.964091 313.437707 
L 361.725 321.189988 
L 362.485909 320.917973 
L 363.246818 315.341796 
L 365.529545 316.565807 
L 366.290455 313.573728 
L 367.051364 317.517873 
L 367.812273 313.029713 
L 368.573182 315.341796 
L 370.855909 319.013884 
L 371.616818 315.341796 
L 372.377727 315.749805 
L 373.138636 310.853623 
L 373.899545 315.710262 
L 376.182273 316.963041 
L 376.943182 316.823829 
L 377.704091 319.329416 
L 378.465 323.087767 
L 379.225909 324.342575 
L 383.791364 323.924324 
L 384.552273 320.85698 
L 386.835 315.977141 
L 387.595909 315.419469 
L 388.356818 314.304069 
L 389.117727 317.231935 
L 392.161364 315.558863 
L 394.444091 324.063732 
L 395.205 328.943571 
L 397.487727 328.525306 
L 398.248636 327.549327 
L 399.009545 335.914761 
L 399.770455 327.270484 
L 400.531364 328.246477 
L 402.814091 328.246477 
L 404.335909 331.453215 
L 405.096818 330.756079 
L 405.857727 326.991641 
L 408.140455 327.131048 
L 408.901364 329.640706 
L 409.662273 330.477236 
L 410.423182 332.568615 
L 411.184091 334.241702 
L 413.466818 334.520531 
L 414.227727 333.126274 
L 414.988636 335.357089 
L 415.749545 333.683988 
L 418.793182 334.241702 
L 419.554091 330.058943 
L 420.315 330.058943 
L 421.075909 327.409905 
L 421.836818 327.688749 
L 424.119545 330.756079 
L 424.880455 329.222442 
L 426.402273 328.664728 
L 427.163182 331.174358 
L 429.445909 335.775367 
L 430.206818 335.775367 
L 430.967727 334.381096 
L 432.489545 335.635932 
L 434.772273 338.424405 
L 435.533182 338.145562 
L 436.294091 338.424405 
L 437.055 340.794614 
L 437.815909 340.794614 
L 440.098636 335.775367 
L 440.859545 330.895529 
L 441.620455 331.87148 
L 442.381364 332.429166 
L 443.142273 334.241702 
L 445.425 333.823423 
L 446.946818 325.736805 
L 447.707727 323.36661 
L 448.468636 322.530067 
L 450.751364 321.831826 
L 451.512273 321.412875 
L 452.273182 325.602378 
L 453.034091 323.647272 
L 453.795 322.111102 
L 456.077727 324.764464 
L 456.838636 324.345528 
L 457.599545 325.1834 
L 458.360455 327.417797 
L 459.121364 327.976421 
L 461.404091 328.116038 
L 462.165 324.904109 
L 462.925909 322.390421 
L 464.447727 319.31811 
L 466.730455 318.619882 
L 467.491364 319.597428 
L 468.252273 314.011471 
L 469.013182 314.570053 
L 469.774091 315.268294 
L 472.056818 314.849357 
L 472.817727 316.804464 
L 474.339545 311.637428 
L 475.100455 309.961627 
L 477.383182 309.821967 
L 478.905 308.984081 
L 479.665909 310.939173 
L 480.426818 313.732152 
L 482.709545 314.430421 
L 483.470455 315.268294 
L 484.231364 314.709698 
L 484.992273 310.799514 
L 485.753182 313.033897 
L 488.796818 309.263386 
L 489.557727 309.542677 
L 490.318636 315.128676 
L 491.079545 313.592506 
L 493.362273 313.871811 
L 494.123182 316.804464 
L 494.884091 321.133584 
L 495.645 320.016379 
L 496.405909 321.27323 
L 498.688636 324.066223 
L 499.449545 318.480251 
L 500.210455 313.871811 
L 500.971364 312.056379 
L 501.732273 312.894265 
L 504.015 319.31811 
L 504.775909 314.849357 
L 505.536818 317.2234 
L 507.058636 315.80064 
L 509.341364 318.956878 
L 510.102273 321.682749 
L 510.863182 319.53074 
L 512.385 324.839002 
L 514.667727 325.556315 
L 516.189545 320.248095 
L 516.950455 319.387275 
L 517.711364 318.956878 
L 519.994091 320.824965 
L 520.755 323.555299 
L 521.515909 320.824965 
L 522.276818 314.502203 
L 523.037727 309.185321 
L 525.320455 306.886125 
L 526.081364 308.75424 
L 526.842273 309.329025 
L 527.603182 306.886125 
L 528.364091 306.167622 
L 530.646818 306.742436 
L 531.407727 305.88023 
L 532.168636 305.592823 
L 532.929545 307.317221 
L 533.690455 305.018024 
L 536.734091 307.604599 
L 537.495 306.455015 
L 538.255909 302.431435 
L 539.016818 302.862531 
L 541.299545 305.88023 
L 542.060455 309.185321 
L 542.821364 313.496322 
L 543.582273 315.651801 
L 544.343182 315.508098 
L 546.625909 320.250194 
L 547.386818 320.824965 
L 548.147727 318.094687 
L 548.908636 316.657696 
L 549.669545 312.777819 
L 551.952273 309.760106 
L 552.713182 309.472714 
L 553.474091 306.023933 
L 554.235 306.311326 
L 554.995909 307.460938 
L 557.278636 304.730632 
L 558.039545 300.419645 
L 558.800455 298.982654 
L 559.561364 299.126358 
L 560.322273 297.11454 
L 562.605 295.390156 
L 563.365909 297.258257 
L 564.126818 294.815371 
L 564.887727 298.264138 
L 567.931364 295.53386 
L 568.692273 293.09096 
L 569.453182 294.671654 
L 570.214091 294.959061 
L 570.975 297.545636 
L 573.257727 295.677549 
L 574.018636 297.976759 
L 574.779545 301.281837 
L 575.540455 299.413736 
L 578.584091 299.844846 
L 579.345 302.431435 
L 580.866818 301.138148 
L 581.627727 298.264138 
L 583.910455 303.006234 
L 584.671364 307.604599 
L 585.432273 305.305431 
L 586.193182 304.874321 
L 586.954091 304.586928 
L 589.236818 303.003856 
L 589.997727 303.435595 
L 590.758636 298.830276 
L 591.519545 299.693755 
L 592.280455 301.564682 
L 594.563182 298.398508 
L 595.324091 298.686349 
L 596.085 299.262015 
L 596.845909 299.549842 
L 597.606818 298.02439 
L 599.889545 299.896129 
L 600.650455 296.152651 
L 601.411364 294.13693 
L 602.172273 293.992974 
L 602.933182 295.864685 
L 605.215909 294.424896 
L 607.498636 290.969385 
L 608.259545 291.833269 
L 610.542273 292.409188 
L 612.825 288.665711 
L 613.585909 291.689286 
L 615.868636 292.121236 
L 617.390455 297.880407 
L 618.151364 301.767867 
L 618.912273 303.063674 
L 621.195 300.472047 
L 621.955909 298.312342 
L 622.716818 301.479901 
L 623.477727 301.047966 
L 624.238636 299.464179 
L 626.521364 302.199789 
L 627.282273 306.663154 
L 628.043182 303.927544 
L 628.804091 300.184081 
L 629.565 303.063674 
L 631.847727 307.239072 
L 632.608636 306.519199 
L 633.369545 308.534893 
L 634.130455 306.95112 
L 634.891364 310.118679 
L 637.174091 310.262648 
L 637.935 309.830713 
L 638.695909 308.822859 
L 639.456818 310.694584 
L 640.217727 311.126533 
L 642.500455 307.383056 
L 643.261364 304.071528 
L 644.022273 302.775721 
L 645.544091 308.102943 
L 647.826818 308.102943 
L 648.587727 305.367348 
L 649.348636 303.207643 
L 650.109545 304.503463 
L 650.870455 307.638097 
L 655.435909 321.407026 
L 656.196818 319.356337 
L 658.479545 314.661214 
L 659.240455 317.30222 
L 660.001364 316.275168 
L 660.762273 321.703892 
L 661.523182 325.665387 
L 663.805909 336.376123 
L 664.566818 333.001502 
L 665.327727 343.858964 
L 666.088636 359.264795 
L 666.088636 359.264795 
" style="fill:none;stroke:#ff7f0e;stroke-linecap:square;stroke-width:1.5;"/>
   </g>
   <g id="line2d_18">
    <path clip-path="url(#pda0db2b7d7)" d="M 57.361364 370.880889 
L 58.122273 371.335772 
L 58.883182 368.492672 
L 59.644091 368.492672 
L 61.926818 367.128218 
L 62.687727 369.061594 
L 63.448636 368.947933 
L 64.209545 367.242006 
L 64.970455 366.788046 
L 68.014091 364.171639 
L 69.535909 359.851907 
L 70.296818 361.216361 
L 72.579545 357.009199 
L 73.340455 358.032179 
L 74.101364 351.891501 
L 74.862273 351.891501 
L 75.623182 344.159943 
L 77.905909 346.206 
L 78.666818 347.230338 
L 79.427727 345.752055 
L 80.188636 346.092213 
L 80.949545 346.888892 
L 83.232273 348.594763 
L 83.993182 347.230338 
L 84.754091 347.456709 
L 85.515 350.073046 
L 86.275909 351.7777 
L 90.841364 345.296822 
L 91.602273 341.772467 
L 93.885 343.136893 
L 94.645909 331.652189 
L 95.406818 328.126547 
L 96.167727 326.421949 
L 96.928636 324.26591 
L 99.211364 323.661531 
L 99.972273 328.13998 
L 100.733182 334.06951 
L 101.494091 330.47725 
L 102.255 331.082427 
L 104.537727 330.234675 
L 105.298636 327.690078 
L 106.059545 326.235834 
L 106.820455 326.840997 
L 107.581364 327.93268 
L 109.864091 321.025394 
L 110.625 319.692452 
L 111.385909 323.327389 
L 112.146818 323.20606 
L 112.907727 325.508055 
L 115.190455 329.265623 
L 115.951364 329.265623 
L 116.712273 330.355977 
L 117.473182 332.779217 
L 118.234091 328.537843 
L 120.516818 325.14548 
L 121.277727 328.537843 
L 122.038636 326.235834 
L 122.799545 325.62937 
L 125.843182 328.901719 
L 126.604091 329.385595 
L 127.365 328.780432 
L 128.125909 329.628169 
L 128.886818 330.11336 
L 131.169545 327.568791 
L 131.930455 328.780432 
L 132.691364 330.718523 
L 133.452273 327.204901 
L 134.213182 331.203686 
L 136.495909 331.931479 
L 137.256818 330.961112 
L 138.017727 329.265623 
L 138.778636 333.505681 
L 139.539545 331.810192 
L 141.822273 333.264422 
L 142.583182 330.83981 
L 143.344091 331.931479 
L 144.105 328.416514 
L 144.865909 327.204901 
L 147.148636 326.235834 
L 150.192273 341.745924 
L 152.475 340.049078 
L 153.235909 339.686517 
L 153.996818 339.807832 
L 154.757727 336.535469 
L 155.518636 338.958724 
L 157.801364 340.291666 
L 158.562273 343.564057 
L 159.323182 341.140761 
L 160.084091 347.198952 
L 160.845 347.198952 
L 163.127727 347.562842 
L 163.888636 345.502134 
L 164.649545 345.744723 
L 165.410455 346.108612 
L 166.171364 345.86601 
L 168.454091 354.591458 
L 169.975909 352.409421 
L 171.497727 348.733345 
L 173.780455 346.064074 
L 174.541364 350.601838 
L 175.302273 351.803026 
L 176.063182 359.143493 
L 176.824091 359.010061 
L 179.867727 363.013953 
L 180.628636 366.217081 
L 181.389545 367.15132 
L 182.150455 369.153301 
L 184.433182 370.888291 
L 185.194091 364.482049 
L 185.955 361.812778 
L 186.715909 365.816699 
L 187.476818 368.219048 
L 189.759545 366.217081 
L 191.281364 367.418256 
L 192.042273 364.215114 
L 192.803182 363.147428 
L 195.085909 361.812778 
L 195.846818 357.141554 
L 196.607727 355.539997 
L 198.129545 354.472283 
L 201.173182 357.141554 
L 201.934091 355.539997 
L 202.695 355.806919 
L 203.455909 353.137648 
L 205.738636 354.071873 
L 206.499545 353.137648 
L 207.260455 350.067981 
L 208.021364 350.468349 
L 208.782273 347.665631 
L 211.065 347.13176 
L 211.825909 348.466424 
L 212.586818 342.46055 
L 213.347727 341.79326 
L 214.108636 346.864867 
L 216.391364 345.797153 
L 217.152273 351.135695 
L 217.913182 349.267202 
L 218.674091 348.466424 
L 219.435 344.062107 
L 221.717727 345.797153 
L 223.239545 348.466424 
L 224.000455 350.334916 
L 224.761364 356.474264 
L 227.044091 354.472283 
L 227.805 352.737238 
L 228.565909 353.137648 
L 229.326818 354.205376 
L 230.087727 354.872679 
L 232.370455 354.888995 
L 233.131364 358.293167 
L 233.892273 356.250692 
L 234.653182 359.246324 
L 235.414091 357.612333 
L 237.696818 356.65919 
L 238.457727 357.476171 
L 239.218636 354.344336 
L 239.979545 358.701637 
L 240.740455 358.974002 
L 243.023182 357.542104 
L 243.784091 358.769445 
L 244.545 358.223988 
L 245.305909 356.860276 
L 248.349545 353.587354 
L 249.110455 359.178545 
L 249.871364 358.769445 
L 250.632273 359.451287 
L 251.393182 356.042035 
L 253.675909 354.132824 
L 254.436818 352.632783 
L 255.197727 351.950899 
L 255.958636 354.26921 
L 256.719545 352.360027 
L 259.002273 355.087465 
L 259.763182 354.951052 
L 260.524091 353.178254 
L 261.285 350.587201 
L 262.045909 352.087299 
L 264.328636 352.905512 
L 265.089545 348.541634 
L 265.850455 343.495941 
L 266.611364 344.723282 
L 267.372273 344.723282 
L 269.655 341.177645 
L 270.415909 340.63216 
L 271.176818 343.359556 
L 271.937727 344.177811 
L 274.981364 344.314155 
L 275.742273 340.223047 
L 276.503182 340.904917 
L 277.264091 342.677728 
L 278.025 343.223199 
L 280.307727 340.904917 
L 281.068636 340.768517 
L 281.829545 341.177645 
L 282.590455 341.04126 
L 283.351364 338.722978 
L 285.634091 341.450373 
L 286.395 335.722811 
L 287.155909 334.904584 
L 287.916818 332.995387 
L 291.721364 329.858892 
L 292.482273 328.495194 
L 293.243182 332.995387 
L 294.004091 330.540748 
L 296.286818 330.949862 
L 297.047727 331.495318 
L 297.808636 330.268006 
L 299.330455 324.813186 
L 301.613182 324.540415 
L 303.135 325.495014 
L 303.895909 325.085914 
L 304.656818 326.722355 
L 306.939545 327.949709 
L 307.700455 323.040332 
L 308.461364 319.631094 
L 309.222273 317.31277 
L 309.983182 320.722064 
L 312.265909 321.131807 
L 313.026818 320.99524 
L 313.787727 326.458595 
L 314.548636 320.17574 
L 315.309545 322.087903 
L 317.592273 325.912257 
L 318.353182 325.229324 
L 319.114091 321.405011 
L 319.875 319.083049 
L 320.635909 318.809901 
L 322.918636 324.136661 
L 323.679545 318.559057 
L 324.440455 320.062456 
L 325.201364 318.969094 
L 325.962273 321.019139 
L 329.766818 317.739039 
L 330.527727 318.969094 
L 331.288636 313.502185 
L 335.093182 307.761917 
L 335.854091 303.935128 
L 336.615 302.978431 
L 338.897727 305.575179 
L 339.658636 304.755175 
L 340.419545 301.065009 
L 341.180455 299.834939 
L 341.941364 299.561595 
L 344.224091 300.244949 
L 345.745909 302.021706 
L 346.506818 301.748334 
L 347.267727 296.828141 
L 349.550455 298.878242 
L 350.311364 299.288237 
L 351.072273 298.058196 
L 351.833182 296.554797 
L 354.876818 291.634617 
L 355.637727 289.994539 
L 356.398636 286.441052 
L 357.159545 283.434268 
L 357.920455 282.7509 
L 360.203182 278.240716 
L 360.964091 279.470758 
L 361.725 285.210997 
L 362.485909 288.764484 
L 363.246818 282.067533 
L 365.529545 279.744102 
L 366.290455 277.694014 
L 367.051364 270.450403 
L 367.812273 270.177045 
L 368.573182 275.643927 
L 370.855909 276.463987 
L 371.616818 273.183858 
L 372.377727 268.810325 
L 373.138636 271.680445 
L 373.899545 276.820027 
L 376.182273 280.581694 
L 376.943182 283.368153 
L 377.704091 282.114254 
L 378.465 286.293893 
L 379.225909 286.433384 
L 383.791364 286.433384 
L 384.552273 285.735843 
L 386.835 284.061776 
L 387.595909 282.527188 
L 388.356818 282.945704 
L 389.117727 285.875362 
L 389.878636 283.50374 
L 392.161364 282.248163 
L 392.922273 282.806199 
L 393.683182 282.248163 
L 394.444091 282.108657 
L 395.205 289.921092 
L 397.487727 289.363042 
L 398.248636 289.502576 
L 399.009545 295.082866 
L 399.770455 290.200117 
L 400.531364 290.758139 
L 402.814091 295.919914 
L 403.575 298.291549 
L 404.335909 302.755796 
L 405.096818 301.360727 
L 405.857727 301.360727 
L 408.140455 300.663185 
L 408.901364 304.708887 
L 410.423182 307.080537 
L 411.184091 309.73117 
L 413.466818 304.848421 
L 414.227727 306.801512 
L 414.988636 309.73117 
L 415.749545 306.382981 
L 418.793182 307.638573 
L 419.554091 303.87184 
L 420.315 303.453324 
L 421.075909 302.476785 
L 421.836818 299.965644 
L 424.119545 303.453324 
L 424.880455 302.755796 
L 426.402273 303.592843 
L 427.163182 305.545948 
L 429.445909 308.336115 
L 430.206818 311.9633 
L 430.967727 308.196581 
L 431.728636 308.47562 
L 432.489545 310.1497 
L 434.772273 314.055925 
L 435.533182 313.916391 
L 436.294091 314.055925 
L 437.055 318.799183 
L 437.815909 315.311503 
L 440.098636 311.126253 
L 440.859545 307.359548 
L 441.620455 306.243462 
L 442.381364 310.568217 
L 443.142273 309.591664 
L 445.425 307.638573 
L 446.946818 300.942182 
L 447.707727 298.431069 
L 448.468636 297.175491 
L 450.751364 298.572533 
L 451.512273 298.293103 
L 452.273182 301.646048 
L 453.034091 300.248978 
L 453.795 297.594609 
L 456.077727 300.388694 
L 457.599545 303.182764 
L 458.360455 308.770947 
L 459.121364 308.491544 
L 461.404091 307.094502 
L 462.165 303.322493 
L 462.925909 301.646048 
L 464.447727 298.712235 
L 466.730455 300.109277 
L 467.491364 302.903361 
L 468.252273 298.851936 
L 469.013182 309.469468 
L 469.774091 311.425343 
L 472.056818 310.168003 
L 472.817727 309.888586 
L 473.578636 313.660594 
L 474.339545 310.168003 
L 475.100455 307.513606 
L 477.383182 307.373918 
L 478.905 306.535682 
L 479.665909 306.815113 
L 480.426818 309.469468 
L 482.709545 310.44742 
L 483.470455 310.028287 
L 484.231364 310.168003 
L 484.992273 306.675369 
L 485.753182 308.770947 
L 488.035909 306.535682 
L 488.796818 305.278355 
L 489.557727 304.719522 
L 490.318636 310.168003 
L 491.079545 311.425343 
L 493.362273 312.822372 
L 494.123182 311.425343 
L 494.884091 318.270853 
L 495.645 322.042875 
L 496.405909 324.836959 
L 498.688636 327.631043 
L 499.449545 321.344326 
L 500.210455 316.175289 
L 500.971364 312.822372 
L 501.732273 313.381177 
L 504.015 317.01354 
L 504.775909 319.947298 
L 505.536818 319.248777 
L 507.058636 317.258745 
L 509.341364 320.273575 
L 510.102273 322.28342 
L 510.863182 319.699294 
L 511.624091 321.996322 
L 512.385 323.719068 
L 514.667727 323.719068 
L 515.428636 322.139857 
L 516.189545 319.842871 
L 517.711364 316.397365 
L 519.994091 317.403918 
L 520.755 319.992214 
L 521.515909 317.97908 
L 522.276818 313.521494 
L 523.037727 309.782886 
L 525.320455 307.625966 
L 526.081364 309.639071 
L 527.603182 306.188024 
L 528.364091 305.469073 
L 530.646818 307.769753 
L 531.407727 305.469073 
L 532.168636 305.181457 
L 532.929545 306.475612 
L 533.690455 308.344916 
L 535.973182 306.331825 
L 536.734091 307.338377 
L 537.495 307.194576 
L 538.255909 303.024578 
L 539.016818 303.312153 
L 541.299545 304.462507 
L 542.060455 307.625966 
L 542.821364 313.377707 
L 543.582273 312.80253 
L 544.343182 314.528047 
L 546.625909 318.985647 
L 547.386818 318.266655 
L 548.147727 316.684953 
L 548.908636 313.377707 
L 549.669545 308.488717 
L 551.952273 305.181457 
L 552.713182 306.906988 
L 553.474091 299.861105 
L 554.235 299.429744 
L 554.995909 303.88733 
L 557.278636 301.442849 
L 558.039545 297.560426 
L 558.800455 296.841462 
L 559.561364 297.991801 
L 560.322273 295.403519 
L 562.605 294.684555 
L 563.365909 295.97871 
L 564.126818 294.109378 
L 564.887727 296.841462 
L 565.648636 296.841462 
L 567.931364 294.684555 
L 568.692273 293.678003 
L 569.453182 294.540768 
L 570.214091 293.246627 
L 570.975 297.560426 
L 573.257727 296.410072 
L 574.018636 298.566964 
L 574.779545 300.004907 
L 575.540455 298.27939 
L 578.584091 298.566964 
L 579.345 302.3056 
L 581.627727 298.423191 
L 583.910455 301.442849 
L 584.671364 306.906988 
L 585.432273 303.599755 
L 586.954091 304.174932 
L 589.236818 300.862691 
L 589.997727 302.302802 
L 590.758636 298.414516 
L 591.519545 297.982482 
L 592.280455 300.142621 
L 594.563182 296.542385 
L 595.324091 296.542385 
L 596.085 297.982482 
L 596.845909 295.246285 
L 597.606818 295.736849 
L 599.889545 297.609791 
L 601.411364 291.558764 
L 602.172273 293.575773 
L 602.933182 293.71984 
L 605.215909 292.85541 
L 607.498636 291.702845 
L 608.259545 292.135046 
L 610.542273 292.85541 
L 612.825 290.550266 
L 613.585909 290.118051 
L 615.868636 292.135046 
L 616.629545 294.152069 
L 618.151364 299.626787 
L 618.912273 300.491217 
L 621.955909 297.177562 
L 622.716818 300.059002 
L 623.477727 300.203083 
L 624.238636 298.186074 
L 626.521364 300.059002 
L 627.282273 303.660791 
L 628.043182 300.779379 
L 628.804091 297.321643 
L 629.565 299.194585 
L 631.847727 303.660791 
L 632.608636 302.940441 
L 633.369545 303.372657 
L 634.130455 300.923446 
L 634.891364 306.254096 
L 637.174091 304.957451 
L 638.695909 304.381168 
L 639.456818 305.821895 
L 640.217727 306.398177 
L 642.500455 304.237101 
L 643.261364 301.499729 
L 644.022273 300.059002 
L 644.783182 300.203083 
L 645.544091 302.220092 
L 647.826818 302.508226 
L 648.587727 300.059002 
L 649.348636 295.160567 
L 650.109545 298.186074 
L 650.870455 302.639448 
L 655.435909 311.428954 
L 656.196818 308.645615 
L 658.479545 304.390655 
L 659.240455 308.058713 
L 660.001364 305.711158 
L 660.762273 306.73821 
L 661.523182 310.406268 
L 663.805909 317.742383 
L 664.566818 312.607111 
L 665.327727 323.611284 
L 666.088636 336.963011 
L 666.088636 336.963011 
" style="fill:none;stroke:#2ca02c;stroke-linecap:square;stroke-width:1.5;"/>
   </g>
   <g id="patch_3">
    <path d="M 26.925 398.88 
L 26.925 7.2 
" style="fill:none;stroke:#000000;stroke-linecap:square;stroke-linejoin:miter;stroke-width:0.8;"/>
   </g>
   <g id="patch_4">
    <path d="M 696.525 398.88 
L 696.525 7.2 
" style="fill:none;stroke:#000000;stroke-linecap:square;stroke-linejoin:miter;stroke-width:0.8;"/>
   </g>
   <g id="patch_5">
    <path d="M 26.925 398.88 
L 696.525 398.88 
" style="fill:none;stroke:#000000;stroke-linecap:square;stroke-linejoin:miter;stroke-width:0.8;"/>
   </g>
   <g id="patch_6">
    <path d="M 26.925 7.2 
L 696.525 7.2 
" style="fill:none;stroke:#000000;stroke-linecap:square;stroke-linejoin:miter;stroke-width:0.8;"/>
   </g>
   <g id="legend_1">
    <g id="patch_7">
     <path d="M 33.925 59.234375 
L 111.89375 59.234375 
Q 113.89375 59.234375 113.89375 57.234375 
L 113.89375 14.2 
Q 113.89375 12.2 111.89375 12.2 
L 33.925 12.2 
Q 31.925 12.2 31.925 14.2 
L 31.925 57.234375 
Q 31.925 59.234375 33.925 59.234375 
z
" style="fill:#ffffff;opacity:0.8;stroke:#cccccc;stroke-linejoin:miter;"/>
    </g>
    <g id="line2d_19">
     <path d="M 35.925 20.298437 
L 55.925 20.298437 
" style="fill:none;stroke:#1f77b4;stroke-linecap:square;stroke-width:1.5;"/>
    </g>
    <g id="line2d_20"/>
    <g id="text_17">
     <!-- ITUB3.SA -->
     <defs>
      <path d="M 9.8125 72.90625 
L 19.671875 72.90625 
L 19.671875 0 
L 9.8125 0 
z
" id="DejaVuSans-73"/>
      <path d="M -0.296875 72.90625 
L 61.375 72.90625 
L 61.375 64.59375 
L 35.5 64.59375 
L 35.5 0 
L 25.59375 0 
L 25.59375 64.59375 
L -0.296875 64.59375 
z
" id="DejaVuSans-84"/>
      <path d="M 8.6875 72.90625 
L 18.609375 72.90625 
L 18.609375 28.609375 
Q 18.609375 16.890625 22.84375 11.734375 
Q 27.09375 6.59375 36.625 6.59375 
Q 46.09375 6.59375 50.34375 11.734375 
Q 54.59375 16.890625 54.59375 28.609375 
L 54.59375 72.90625 
L 64.5 72.90625 
L 64.5 27.390625 
Q 64.5 13.140625 57.4375 5.859375 
Q 50.390625 -1.421875 36.625 -1.421875 
Q 22.796875 -1.421875 15.734375 5.859375 
Q 8.6875 13.140625 8.6875 27.390625 
z
" id="DejaVuSans-85"/>
      <path d="M 19.671875 34.8125 
L 19.671875 8.109375 
L 35.5 8.109375 
Q 43.453125 8.109375 47.28125 11.40625 
Q 51.125 14.703125 51.125 21.484375 
Q 51.125 28.328125 47.28125 31.5625 
Q 43.453125 34.8125 35.5 34.8125 
z
M 19.671875 64.796875 
L 19.671875 42.828125 
L 34.28125 42.828125 
Q 41.5 42.828125 45.03125 45.53125 
Q 48.578125 48.25 48.578125 53.8125 
Q 48.578125 59.328125 45.03125 62.0625 
Q 41.5 64.796875 34.28125 64.796875 
z
M 9.8125 72.90625 
L 35.015625 72.90625 
Q 46.296875 72.90625 52.390625 68.21875 
Q 58.5 63.53125 58.5 54.890625 
Q 58.5 48.1875 55.375 44.234375 
Q 52.25 40.28125 46.1875 39.3125 
Q 53.46875 37.75 57.5 32.78125 
Q 61.53125 27.828125 61.53125 20.40625 
Q 61.53125 10.640625 54.890625 5.3125 
Q 48.25 0 35.984375 0 
L 9.8125 0 
z
" id="DejaVuSans-66"/>
      <path d="M 10.6875 12.40625 
L 21 12.40625 
L 21 0 
L 10.6875 0 
z
" id="DejaVuSans-46"/>
      <path d="M 53.515625 70.515625 
L 53.515625 60.890625 
Q 47.90625 63.578125 42.921875 64.890625 
Q 37.9375 66.21875 33.296875 66.21875 
Q 25.25 66.21875 20.875 63.09375 
Q 16.5 59.96875 16.5 54.203125 
Q 16.5 49.359375 19.40625 46.890625 
Q 22.3125 44.4375 30.421875 42.921875 
L 36.375 41.703125 
Q 47.40625 39.59375 52.65625 34.296875 
Q 57.90625 29 57.90625 20.125 
Q 57.90625 9.515625 50.796875 4.046875 
Q 43.703125 -1.421875 29.984375 -1.421875 
Q 24.8125 -1.421875 18.96875 -0.25 
Q 13.140625 0.921875 6.890625 3.21875 
L 6.890625 13.375 
Q 12.890625 10.015625 18.65625 8.296875 
Q 24.421875 6.59375 29.984375 6.59375 
Q 38.421875 6.59375 43.015625 9.90625 
Q 47.609375 13.234375 47.609375 19.390625 
Q 47.609375 24.75 44.3125 27.78125 
Q 41.015625 30.8125 33.5 32.328125 
L 27.484375 33.5 
Q 16.453125 35.6875 11.515625 40.375 
Q 6.59375 45.0625 6.59375 53.421875 
Q 6.59375 63.09375 13.40625 68.65625 
Q 20.21875 74.21875 32.171875 74.21875 
Q 37.3125 74.21875 42.625 73.28125 
Q 47.953125 72.359375 53.515625 70.515625 
z
" id="DejaVuSans-83"/>
      <path d="M 34.1875 63.1875 
L 20.796875 26.90625 
L 47.609375 26.90625 
z
M 28.609375 72.90625 
L 39.796875 72.90625 
L 67.578125 0 
L 57.328125 0 
L 50.6875 18.703125 
L 17.828125 18.703125 
L 11.1875 0 
L 0.78125 0 
z
" id="DejaVuSans-65"/>
     </defs>
     <g transform="translate(63.925 23.798437)scale(0.1 -0.1)">
      <use xlink:href="#DejaVuSans-73"/>
      <use x="29.492188" xlink:href="#DejaVuSans-84"/>
      <use x="90.576172" xlink:href="#DejaVuSans-85"/>
      <use x="163.769531" xlink:href="#DejaVuSans-66"/>
      <use x="232.373047" xlink:href="#DejaVuSans-51"/>
      <use x="295.996094" xlink:href="#DejaVuSans-46"/>
      <use x="327.783203" xlink:href="#DejaVuSans-83"/>
      <use x="391.275391" xlink:href="#DejaVuSans-65"/>
     </g>
    </g>
    <g id="line2d_21">
     <path d="M 35.925 34.976562 
L 55.925 34.976562 
" style="fill:none;stroke:#ff7f0e;stroke-linecap:square;stroke-width:1.5;"/>
    </g>
    <g id="line2d_22"/>
    <g id="text_18">
     <!-- ITSA4.SA -->
     <g transform="translate(63.925 38.476562)scale(0.1 -0.1)">
      <use xlink:href="#DejaVuSans-73"/>
      <use x="29.492188" xlink:href="#DejaVuSans-84"/>
      <use x="90.576172" xlink:href="#DejaVuSans-83"/>
      <use x="154.068359" xlink:href="#DejaVuSans-65"/>
      <use x="222.476562" xlink:href="#DejaVuSans-52"/>
      <use x="286.099609" xlink:href="#DejaVuSans-46"/>
      <use x="317.886719" xlink:href="#DejaVuSans-83"/>
      <use x="381.378906" xlink:href="#DejaVuSans-65"/>
     </g>
    </g>
    <g id="line2d_23">
     <path d="M 35.925 49.654687 
L 55.925 49.654687 
" style="fill:none;stroke:#2ca02c;stroke-linecap:square;stroke-width:1.5;"/>
    </g>
    <g id="line2d_24"/>
    <g id="text_19">
     <!-- ITSA3.SA -->
     <g transform="translate(63.925 53.154687)scale(0.1 -0.1)">
      <use xlink:href="#DejaVuSans-73"/>
      <use x="29.492188" xlink:href="#DejaVuSans-84"/>
      <use x="90.576172" xlink:href="#DejaVuSans-83"/>
      <use x="154.068359" xlink:href="#DejaVuSans-65"/>
      <use x="222.476562" xlink:href="#DejaVuSans-51"/>
      <use x="286.099609" xlink:href="#DejaVuSans-46"/>
      <use x="317.886719" xlink:href="#DejaVuSans-83"/>
      <use x="381.378906" xlink:href="#DejaVuSans-65"/>
     </g>
    </g>
   </g>
  </g>
 </g>
 <defs>
  <clipPath id="pda0db2b7d7">
   <rect height="391.68" width="669.6" x="26.925" y="7.2"/>
  </clipPath>
 </defs>
</svg>
