<?xml version="1.0" encoding="utf-8" standalone="no"?>
<!DOCTYPE svg PUBLIC "-//W3C//DTD SVG 1.1//EN"
  "http://www.w3.org/Graphics/SVG/1.1/DTD/svg11.dtd">
<!-- Created with matplotlib (https://matplotlib.org/) -->
<svg height="456.031033pt" version="1.1" viewBox="0 0 703.725 456.031033" width="703.725pt" xmlns="http://www.w3.org/2000/svg" xmlns:xlink="http://www.w3.org/1999/xlink">
 <defs>
  <style type="text/css">
*{stroke-linecap:butt;stroke-linejoin:round;}
  </style>
 </defs>
 <g id="figure_1">
  <g id="patch_1">
   <path d="M 0 456.031033 
L 703.725 456.031033 
L 703.725 0 
L 0 0 
z
" style="fill:none;"/>
  </g>
  <g id="axes_1">
   <g id="patch_2">
    <path d="M 26.925 398.88 
L 696.525 398.88 
L 696.525 7.2 
L 26.925 7.2 
z
" style="fill:#ffffff;"/>
   </g>
   <g id="matplotlib.axis_1">
    <g id="xtick_1">
     <g id="line2d_1">
      <defs>
       <path d="M 0 0 
L 0 3.5 
" id="m4f85256132" style="stroke:#000000;stroke-width:0.8;"/>
      </defs>
      <g>
       <use style="stroke:#000000;stroke-width:0.8;" x="56.600455" xlink:href="#m4f85256132" y="398.88"/>
      </g>
     </g>
     <g id="text_1">
      <!-- 2018-01 -->
      <defs>
       <path d="M 19.1875 8.296875 
L 53.609375 8.296875 
L 53.609375 0 
L 7.328125 0 
L 7.328125 8.296875 
Q 12.9375 14.109375 22.625 23.890625 
Q 32.328125 33.6875 34.8125 36.53125 
Q 39.546875 41.84375 41.421875 45.53125 
Q 43.3125 49.21875 43.3125 52.78125 
Q 43.3125 58.59375 39.234375 62.25 
Q 35.15625 65.921875 28.609375 65.921875 
Q 23.96875 65.921875 18.8125 64.3125 
Q 13.671875 62.703125 7.8125 59.421875 
L 7.8125 69.390625 
Q 13.765625 71.78125 18.9375 73 
Q 24.125 74.21875 28.421875 74.21875 
Q 39.75 74.21875 46.484375 68.546875 
Q 53.21875 62.890625 53.21875 53.421875 
Q 53.21875 48.921875 51.53125 44.890625 
Q 49.859375 40.875 45.40625 35.40625 
Q 44.1875 33.984375 37.640625 27.21875 
Q 31.109375 20.453125 19.1875 8.296875 
z
" id="DejaVuSans-50"/>
       <path d="M 31.78125 66.40625 
Q 24.171875 66.40625 20.328125 58.90625 
Q 16.5 51.421875 16.5 36.375 
Q 16.5 21.390625 20.328125 13.890625 
Q 24.171875 6.390625 31.78125 6.390625 
Q 39.453125 6.390625 43.28125 13.890625 
Q 47.125 21.390625 47.125 36.375 
Q 47.125 51.421875 43.28125 58.90625 
Q 39.453125 66.40625 31.78125 66.40625 
z
M 31.78125 74.21875 
Q 44.046875 74.21875 50.515625 64.515625 
Q 56.984375 54.828125 56.984375 36.375 
Q 56.984375 17.96875 50.515625 8.265625 
Q 44.046875 -1.421875 31.78125 -1.421875 
Q 19.53125 -1.421875 13.0625 8.265625 
Q 6.59375 17.96875 6.59375 36.375 
Q 6.59375 54.828125 13.0625 64.515625 
Q 19.53125 74.21875 31.78125 74.21875 
z
" id="DejaVuSans-48"/>
       <path d="M 12.40625 8.296875 
L 28.515625 8.296875 
L 28.515625 63.921875 
L 10.984375 60.40625 
L 10.984375 69.390625 
L 28.421875 72.90625 
L 38.28125 72.90625 
L 38.28125 8.296875 
L 54.390625 8.296875 
L 54.390625 0 
L 12.40625 0 
z
" id="DejaVuSans-49"/>
       <path d="M 31.78125 34.625 
Q 24.75 34.625 20.71875 30.859375 
Q 16.703125 27.09375 16.703125 20.515625 
Q 16.703125 13.921875 20.71875 10.15625 
Q 24.75 6.390625 31.78125 6.390625 
Q 38.8125 6.390625 42.859375 10.171875 
Q 46.921875 13.96875 46.921875 20.515625 
Q 46.921875 27.09375 42.890625 30.859375 
Q 38.875 34.625 31.78125 34.625 
z
M 21.921875 38.8125 
Q 15.578125 40.375 12.03125 44.71875 
Q 8.5 49.078125 8.5 55.328125 
Q 8.5 64.0625 14.71875 69.140625 
Q 20.953125 74.21875 31.78125 74.21875 
Q 42.671875 74.21875 48.875 69.140625 
Q 55.078125 64.0625 55.078125 55.328125 
Q 55.078125 49.078125 51.53125 44.71875 
Q 48 40.375 41.703125 38.8125 
Q 48.828125 37.15625 52.796875 32.3125 
Q 56.78125 27.484375 56.78125 20.515625 
Q 56.78125 9.90625 50.3125 4.234375 
Q 43.84375 -1.421875 31.78125 -1.421875 
Q 19.734375 -1.421875 13.25 4.234375 
Q 6.78125 9.90625 6.78125 20.515625 
Q 6.78125 27.484375 10.78125 32.3125 
Q 14.796875 37.15625 21.921875 38.8125 
z
M 18.3125 54.390625 
Q 18.3125 48.734375 21.84375 45.5625 
Q 25.390625 42.390625 31.78125 42.390625 
Q 38.140625 42.390625 41.71875 45.5625 
Q 45.3125 48.734375 45.3125 54.390625 
Q 45.3125 60.0625 41.71875 63.234375 
Q 38.140625 66.40625 31.78125 66.40625 
Q 25.390625 66.40625 21.84375 63.234375 
Q 18.3125 60.0625 18.3125 54.390625 
z
" id="DejaVuSans-56"/>
       <path d="M 4.890625 31.390625 
L 31.203125 31.390625 
L 31.203125 23.390625 
L 4.890625 23.390625 
z
" id="DejaVuSans-45"/>
      </defs>
      <g transform="translate(19.375634 433.351846)rotate(-30)scale(0.1 -0.1)">
       <use xlink:href="#DejaVuSans-50"/>
       <use x="63.623047" xlink:href="#DejaVuSans-48"/>
       <use x="127.246094" xlink:href="#DejaVuSans-49"/>
       <use x="190.869141" xlink:href="#DejaVuSans-56"/>
       <use x="254.492188" xlink:href="#DejaVuSans-45"/>
       <use x="290.576172" xlink:href="#DejaVuSans-48"/>
       <use x="354.199219" xlink:href="#DejaVuSans-49"/>
      </g>
     </g>
    </g>
    <g id="xtick_2">
     <g id="line2d_2">
      <g>
       <use style="stroke:#000000;stroke-width:0.8;" x="125.082273" xlink:href="#m4f85256132" y="398.88"/>
      </g>
     </g>
     <g id="text_2">
      <!-- 2018-04 -->
      <defs>
       <path d="M 37.796875 64.3125 
L 12.890625 25.390625 
L 37.796875 25.390625 
z
M 35.203125 72.90625 
L 47.609375 72.90625 
L 47.609375 25.390625 
L 58.015625 25.390625 
L 58.015625 17.1875 
L 47.609375 17.1875 
L 47.609375 0 
L 37.796875 0 
L 37.796875 17.1875 
L 4.890625 17.1875 
L 4.890625 26.703125 
z
" id="DejaVuSans-52"/>
      </defs>
      <g transform="translate(87.857452 433.351846)rotate(-30)scale(0.1 -0.1)">
       <use xlink:href="#DejaVuSans-50"/>
       <use x="63.623047" xlink:href="#DejaVuSans-48"/>
       <use x="127.246094" xlink:href="#DejaVuSans-49"/>
       <use x="190.869141" xlink:href="#DejaVuSans-56"/>
       <use x="254.492188" xlink:href="#DejaVuSans-45"/>
       <use x="290.576172" xlink:href="#DejaVuSans-48"/>
       <use x="354.199219" xlink:href="#DejaVuSans-52"/>
      </g>
     </g>
    </g>
    <g id="xtick_3">
     <g id="line2d_3">
      <g>
       <use style="stroke:#000000;stroke-width:0.8;" x="194.325" xlink:href="#m4f85256132" y="398.88"/>
      </g>
     </g>
     <g id="text_3">
      <!-- 2018-07 -->
      <defs>
       <path d="M 8.203125 72.90625 
L 55.078125 72.90625 
L 55.078125 68.703125 
L 28.609375 0 
L 18.3125 0 
L 43.21875 64.59375 
L 8.203125 64.59375 
z
" id="DejaVuSans-55"/>
      </defs>
      <g transform="translate(157.100179 433.351846)rotate(-30)scale(0.1 -0.1)">
       <use xlink:href="#DejaVuSans-50"/>
       <use x="63.623047" xlink:href="#DejaVuSans-48"/>
       <use x="127.246094" xlink:href="#DejaVuSans-49"/>
       <use x="190.869141" xlink:href="#DejaVuSans-56"/>
       <use x="254.492188" xlink:href="#DejaVuSans-45"/>
       <use x="290.576172" xlink:href="#DejaVuSans-48"/>
       <use x="354.199219" xlink:href="#DejaVuSans-55"/>
      </g>
     </g>
    </g>
    <g id="xtick_4">
     <g id="line2d_4">
      <g>
       <use style="stroke:#000000;stroke-width:0.8;" x="264.328636" xlink:href="#m4f85256132" y="398.88"/>
      </g>
     </g>
     <g id="text_4">
      <!-- 2018-10 -->
      <g transform="translate(227.103816 433.351846)rotate(-30)scale(0.1 -0.1)">
       <use xlink:href="#DejaVuSans-50"/>
       <use x="63.623047" xlink:href="#DejaVuSans-48"/>
       <use x="127.246094" xlink:href="#DejaVuSans-49"/>
       <use x="190.869141" xlink:href="#DejaVuSans-56"/>
       <use x="254.492188" xlink:href="#DejaVuSans-45"/>
       <use x="290.576172" xlink:href="#DejaVuSans-49"/>
       <use x="354.199219" xlink:href="#DejaVuSans-48"/>
      </g>
     </g>
    </g>
    <g id="xtick_5">
     <g id="line2d_5">
      <g>
       <use style="stroke:#000000;stroke-width:0.8;" x="334.332273" xlink:href="#m4f85256132" y="398.88"/>
      </g>
     </g>
     <g id="text_5">
      <!-- 2019-01 -->
      <defs>
       <path d="M 10.984375 1.515625 
L 10.984375 10.5 
Q 14.703125 8.734375 18.5 7.8125 
Q 22.3125 6.890625 25.984375 6.890625 
Q 35.75 6.890625 40.890625 13.453125 
Q 46.046875 20.015625 46.78125 33.40625 
Q 43.953125 29.203125 39.59375 26.953125 
Q 35.25 24.703125 29.984375 24.703125 
Q 19.046875 24.703125 12.671875 31.3125 
Q 6.296875 37.9375 6.296875 49.421875 
Q 6.296875 60.640625 12.9375 67.421875 
Q 19.578125 74.21875 30.609375 74.21875 
Q 43.265625 74.21875 49.921875 64.515625 
Q 56.59375 54.828125 56.59375 36.375 
Q 56.59375 19.140625 48.40625 8.859375 
Q 40.234375 -1.421875 26.421875 -1.421875 
Q 22.703125 -1.421875 18.890625 -0.6875 
Q 15.09375 0.046875 10.984375 1.515625 
z
M 30.609375 32.421875 
Q 37.25 32.421875 41.125 36.953125 
Q 45.015625 41.5 45.015625 49.421875 
Q 45.015625 57.28125 41.125 61.84375 
Q 37.25 66.40625 30.609375 66.40625 
Q 23.96875 66.40625 20.09375 61.84375 
Q 16.21875 57.28125 16.21875 49.421875 
Q 16.21875 41.5 20.09375 36.953125 
Q 23.96875 32.421875 30.609375 32.421875 
z
" id="DejaVuSans-57"/>
      </defs>
      <g transform="translate(297.107452 433.351846)rotate(-30)scale(0.1 -0.1)">
       <use xlink:href="#DejaVuSans-50"/>
       <use x="63.623047" xlink:href="#DejaVuSans-48"/>
       <use x="127.246094" xlink:href="#DejaVuSans-49"/>
       <use x="190.869141" xlink:href="#DejaVuSans-57"/>
       <use x="254.492188" xlink:href="#DejaVuSans-45"/>
       <use x="290.576172" xlink:href="#DejaVuSans-48"/>
       <use x="354.199219" xlink:href="#DejaVuSans-49"/>
      </g>
     </g>
    </g>
    <g id="xtick_6">
     <g id="line2d_6">
      <g>
       <use style="stroke:#000000;stroke-width:0.8;" x="402.814091" xlink:href="#m4f85256132" y="398.88"/>
      </g>
     </g>
     <g id="text_6">
      <!-- 2019-04 -->
      <g transform="translate(365.58927 433.351846)rotate(-30)scale(0.1 -0.1)">
       <use xlink:href="#DejaVuSans-50"/>
       <use x="63.623047" xlink:href="#DejaVuSans-48"/>
       <use x="127.246094" xlink:href="#DejaVuSans-49"/>
       <use x="190.869141" xlink:href="#DejaVuSans-57"/>
       <use x="254.492188" xlink:href="#DejaVuSans-45"/>
       <use x="290.576172" xlink:href="#DejaVuSans-48"/>
       <use x="354.199219" xlink:href="#DejaVuSans-52"/>
      </g>
     </g>
    </g>
    <g id="xtick_7">
     <g id="line2d_7">
      <g>
       <use style="stroke:#000000;stroke-width:0.8;" x="472.056818" xlink:href="#m4f85256132" y="398.88"/>
      </g>
     </g>
     <g id="text_7">
      <!-- 2019-07 -->
      <g transform="translate(434.831997 433.351846)rotate(-30)scale(0.1 -0.1)">
       <use xlink:href="#DejaVuSans-50"/>
       <use x="63.623047" xlink:href="#DejaVuSans-48"/>
       <use x="127.246094" xlink:href="#DejaVuSans-49"/>
       <use x="190.869141" xlink:href="#DejaVuSans-57"/>
       <use x="254.492188" xlink:href="#DejaVuSans-45"/>
       <use x="290.576172" xlink:href="#DejaVuSans-48"/>
       <use x="354.199219" xlink:href="#DejaVuSans-55"/>
      </g>
     </g>
    </g>
    <g id="xtick_8">
     <g id="line2d_8">
      <g>
       <use style="stroke:#000000;stroke-width:0.8;" x="542.060455" xlink:href="#m4f85256132" y="398.88"/>
      </g>
     </g>
     <g id="text_8">
      <!-- 2019-10 -->
      <g transform="translate(504.835634 433.351846)rotate(-30)scale(0.1 -0.1)">
       <use xlink:href="#DejaVuSans-50"/>
       <use x="63.623047" xlink:href="#DejaVuSans-48"/>
       <use x="127.246094" xlink:href="#DejaVuSans-49"/>
       <use x="190.869141" xlink:href="#DejaVuSans-57"/>
       <use x="254.492188" xlink:href="#DejaVuSans-45"/>
       <use x="290.576172" xlink:href="#DejaVuSans-49"/>
       <use x="354.199219" xlink:href="#DejaVuSans-48"/>
      </g>
     </g>
    </g>
    <g id="xtick_9">
     <g id="line2d_9">
      <g>
       <use style="stroke:#000000;stroke-width:0.8;" x="612.064091" xlink:href="#m4f85256132" y="398.88"/>
      </g>
     </g>
     <g id="text_9">
      <!-- 2020-01 -->
      <g transform="translate(574.83927 433.351846)rotate(-30)scale(0.1 -0.1)">
       <use xlink:href="#DejaVuSans-50"/>
       <use x="63.623047" xlink:href="#DejaVuSans-48"/>
       <use x="127.246094" xlink:href="#DejaVuSans-50"/>
       <use x="190.869141" xlink:href="#DejaVuSans-48"/>
       <use x="254.492188" xlink:href="#DejaVuSans-45"/>
       <use x="290.576172" xlink:href="#DejaVuSans-48"/>
       <use x="354.199219" xlink:href="#DejaVuSans-49"/>
      </g>
     </g>
    </g>
    <g id="xtick_10">
     <g id="line2d_10">
      <g>
       <use style="stroke:#000000;stroke-width:0.8;" x="681.306818" xlink:href="#m4f85256132" y="398.88"/>
      </g>
     </g>
     <g id="text_10">
      <!-- 2020-04 -->
      <g transform="translate(644.081997 433.351846)rotate(-30)scale(0.1 -0.1)">
       <use xlink:href="#DejaVuSans-50"/>
       <use x="63.623047" xlink:href="#DejaVuSans-48"/>
       <use x="127.246094" xlink:href="#DejaVuSans-50"/>
       <use x="190.869141" xlink:href="#DejaVuSans-48"/>
       <use x="254.492188" xlink:href="#DejaVuSans-45"/>
       <use x="290.576172" xlink:href="#DejaVuSans-48"/>
       <use x="354.199219" xlink:href="#DejaVuSans-52"/>
      </g>
     </g>
    </g>
    <g id="text_11">
     <!-- Date -->
     <defs>
      <path d="M 19.671875 64.796875 
L 19.671875 8.109375 
L 31.59375 8.109375 
Q 46.6875 8.109375 53.6875 14.9375 
Q 60.6875 21.78125 60.6875 36.53125 
Q 60.6875 51.171875 53.6875 57.984375 
Q 46.6875 64.796875 31.59375 64.796875 
z
M 9.8125 72.90625 
L 30.078125 72.90625 
Q 51.265625 72.90625 61.171875 64.09375 
Q 71.09375 55.28125 71.09375 36.53125 
Q 71.09375 17.671875 61.125 8.828125 
Q 51.171875 0 30.078125 0 
L 9.8125 0 
z
" id="DejaVuSans-68"/>
      <path d="M 34.28125 27.484375 
Q 23.390625 27.484375 19.1875 25 
Q 14.984375 22.515625 14.984375 16.5 
Q 14.984375 11.71875 18.140625 8.90625 
Q 21.296875 6.109375 26.703125 6.109375 
Q 34.1875 6.109375 38.703125 11.40625 
Q 43.21875 16.703125 43.21875 25.484375 
L 43.21875 27.484375 
z
M 52.203125 31.203125 
L 52.203125 0 
L 43.21875 0 
L 43.21875 8.296875 
Q 40.140625 3.328125 35.546875 0.953125 
Q 30.953125 -1.421875 24.3125 -1.421875 
Q 15.921875 -1.421875 10.953125 3.296875 
Q 6 8.015625 6 15.921875 
Q 6 25.140625 12.171875 29.828125 
Q 18.359375 34.515625 30.609375 34.515625 
L 43.21875 34.515625 
L 43.21875 35.40625 
Q 43.21875 41.609375 39.140625 45 
Q 35.0625 48.390625 27.6875 48.390625 
Q 23 48.390625 18.546875 47.265625 
Q 14.109375 46.140625 10.015625 43.890625 
L 10.015625 52.203125 
Q 14.9375 54.109375 19.578125 55.046875 
Q 24.21875 56 28.609375 56 
Q 40.484375 56 46.34375 49.84375 
Q 52.203125 43.703125 52.203125 31.203125 
z
" id="DejaVuSans-97"/>
      <path d="M 18.3125 70.21875 
L 18.3125 54.6875 
L 36.8125 54.6875 
L 36.8125 47.703125 
L 18.3125 47.703125 
L 18.3125 18.015625 
Q 18.3125 11.328125 20.140625 9.421875 
Q 21.96875 7.515625 27.59375 7.515625 
L 36.8125 7.515625 
L 36.8125 0 
L 27.59375 0 
Q 17.1875 0 13.234375 3.875 
Q 9.28125 7.765625 9.28125 18.015625 
L 9.28125 47.703125 
L 2.6875 47.703125 
L 2.6875 54.6875 
L 9.28125 54.6875 
L 9.28125 70.21875 
z
" id="DejaVuSans-116"/>
      <path d="M 56.203125 29.59375 
L 56.203125 25.203125 
L 14.890625 25.203125 
Q 15.484375 15.921875 20.484375 11.0625 
Q 25.484375 6.203125 34.421875 6.203125 
Q 39.59375 6.203125 44.453125 7.46875 
Q 49.3125 8.734375 54.109375 11.28125 
L 54.109375 2.78125 
Q 49.265625 0.734375 44.1875 -0.34375 
Q 39.109375 -1.421875 33.890625 -1.421875 
Q 20.796875 -1.421875 13.15625 6.1875 
Q 5.515625 13.8125 5.515625 26.8125 
Q 5.515625 40.234375 12.765625 48.109375 
Q 20.015625 56 32.328125 56 
Q 43.359375 56 49.78125 48.890625 
Q 56.203125 41.796875 56.203125 29.59375 
z
M 47.21875 32.234375 
Q 47.125 39.59375 43.09375 43.984375 
Q 39.0625 48.390625 32.421875 48.390625 
Q 24.90625 48.390625 20.390625 44.140625 
Q 15.875 39.890625 15.1875 32.171875 
z
" id="DejaVuSans-101"/>
     </defs>
     <g transform="translate(349.774219 446.751346)scale(0.1 -0.1)">
      <use xlink:href="#DejaVuSans-68"/>
      <use x="77.001953" xlink:href="#DejaVuSans-97"/>
      <use x="138.28125" xlink:href="#DejaVuSans-116"/>
      <use x="177.490234" xlink:href="#DejaVuSans-101"/>
     </g>
    </g>
   </g>
   <g id="matplotlib.axis_2">
    <g id="ytick_1">
     <g id="line2d_11">
      <defs>
       <path d="M 0 0 
L -3.5 0 
" id="m7bc6ca9852" style="stroke:#000000;stroke-width:0.8;"/>
      </defs>
      <g>
       <use style="stroke:#000000;stroke-width:0.8;" x="26.925" xlink:href="#m7bc6ca9852" y="365.106885"/>
      </g>
     </g>
     <g id="text_12">
      <!-- 10 -->
      <g transform="translate(7.2 368.906104)scale(0.1 -0.1)">
       <use xlink:href="#DejaVuSans-49"/>
       <use x="63.623047" xlink:href="#DejaVuSans-48"/>
      </g>
     </g>
    </g>
    <g id="ytick_2">
     <g id="line2d_12">
      <g>
       <use style="stroke:#000000;stroke-width:0.8;" x="26.925" xlink:href="#m7bc6ca9852" y="279.292092"/>
      </g>
     </g>
     <g id="text_13">
      <!-- 20 -->
      <g transform="translate(7.2 283.091311)scale(0.1 -0.1)">
       <use xlink:href="#DejaVuSans-50"/>
       <use x="63.623047" xlink:href="#DejaVuSans-48"/>
      </g>
     </g>
    </g>
    <g id="ytick_3">
     <g id="line2d_13">
      <g>
       <use style="stroke:#000000;stroke-width:0.8;" x="26.925" xlink:href="#m7bc6ca9852" y="193.477299"/>
      </g>
     </g>
     <g id="text_14">
      <!-- 30 -->
      <defs>
       <path d="M 40.578125 39.3125 
Q 47.65625 37.796875 51.625 33 
Q 55.609375 28.21875 55.609375 21.1875 
Q 55.609375 10.40625 48.1875 4.484375 
Q 40.765625 -1.421875 27.09375 -1.421875 
Q 22.515625 -1.421875 17.65625 -0.515625 
Q 12.796875 0.390625 7.625 2.203125 
L 7.625 11.71875 
Q 11.71875 9.328125 16.59375 8.109375 
Q 21.484375 6.890625 26.8125 6.890625 
Q 36.078125 6.890625 40.9375 10.546875 
Q 45.796875 14.203125 45.796875 21.1875 
Q 45.796875 27.640625 41.28125 31.265625 
Q 36.765625 34.90625 28.71875 34.90625 
L 20.21875 34.90625 
L 20.21875 43.015625 
L 29.109375 43.015625 
Q 36.375 43.015625 40.234375 45.921875 
Q 44.09375 48.828125 44.09375 54.296875 
Q 44.09375 59.90625 40.109375 62.90625 
Q 36.140625 65.921875 28.71875 65.921875 
Q 24.65625 65.921875 20.015625 65.03125 
Q 15.375 64.15625 9.8125 62.3125 
L 9.8125 71.09375 
Q 15.4375 72.65625 20.34375 73.4375 
Q 25.25 74.21875 29.59375 74.21875 
Q 40.828125 74.21875 47.359375 69.109375 
Q 53.90625 64.015625 53.90625 55.328125 
Q 53.90625 49.265625 50.4375 45.09375 
Q 46.96875 40.921875 40.578125 39.3125 
z
" id="DejaVuSans-51"/>
      </defs>
      <g transform="translate(7.2 197.276518)scale(0.1 -0.1)">
       <use xlink:href="#DejaVuSans-51"/>
       <use x="63.623047" xlink:href="#DejaVuSans-48"/>
      </g>
     </g>
    </g>
    <g id="ytick_4">
     <g id="line2d_14">
      <g>
       <use style="stroke:#000000;stroke-width:0.8;" x="26.925" xlink:href="#m7bc6ca9852" y="107.662507"/>
      </g>
     </g>
     <g id="text_15">
      <!-- 40 -->
      <g transform="translate(7.2 111.461726)scale(0.1 -0.1)">
       <use xlink:href="#DejaVuSans-52"/>
       <use x="63.623047" xlink:href="#DejaVuSans-48"/>
      </g>
     </g>
    </g>
    <g id="ytick_5">
     <g id="line2d_15">
      <g>
       <use style="stroke:#000000;stroke-width:0.8;" x="26.925" xlink:href="#m7bc6ca9852" y="21.847714"/>
      </g>
     </g>
     <g id="text_16">
      <!-- 50 -->
      <defs>
       <path d="M 10.796875 72.90625 
L 49.515625 72.90625 
L 49.515625 64.59375 
L 19.828125 64.59375 
L 19.828125 46.734375 
Q 21.96875 47.46875 24.109375 47.828125 
Q 26.265625 48.1875 28.421875 48.1875 
Q 40.625 48.1875 47.75 41.5 
Q 54.890625 34.8125 54.890625 23.390625 
Q 54.890625 11.625 47.5625 5.09375 
Q 40.234375 -1.421875 26.90625 -1.421875 
Q 22.3125 -1.421875 17.546875 -0.640625 
Q 12.796875 0.140625 7.71875 1.703125 
L 7.71875 11.625 
Q 12.109375 9.234375 16.796875 8.0625 
Q 21.484375 6.890625 26.703125 6.890625 
Q 35.15625 6.890625 40.078125 11.328125 
Q 45.015625 15.765625 45.015625 23.390625 
Q 45.015625 31 40.078125 35.4375 
Q 35.15625 39.890625 26.703125 39.890625 
Q 22.75 39.890625 18.8125 39.015625 
Q 14.890625 38.140625 10.796875 36.28125 
z
" id="DejaVuSans-53"/>
      </defs>
      <g transform="translate(7.2 25.646933)scale(0.1 -0.1)">
       <use xlink:href="#DejaVuSans-53"/>
       <use x="63.623047" xlink:href="#DejaVuSans-48"/>
      </g>
     </g>
    </g>
   </g>
   <g id="line2d_16">
    <path clip-path="url(#pf0e74a7419)" d="M 57.361364 320.569011 
L 58.122273 322.113672 
L 58.883182 317.222231 
L 59.644091 316.535714 
L 61.926818 316.192455 
L 62.687727 319.453418 
L 63.448636 322.199489 
L 64.209545 325.632077 
L 64.970455 325.546268 
L 67.253182 323.915783 
L 68.014091 321.512971 
L 68.775 316.793156 
L 69.535909 312.931492 
L 70.296818 314.47616 
L 72.579545 312.502424 
L 73.340455 313.103125 
L 74.101364 305.03653 
L 74.862273 305.03653 
L 75.623182 298.600421 
L 77.905909 294.996199 
L 78.666818 296.1976 
L 79.427727 295.511083 
L 80.188636 294.395498 
L 80.949545 298.257154 
L 83.232273 302.89116 
L 83.993182 298.600421 
L 84.754091 298.600421 
L 86.275909 308.898202 
L 91.602273 304.864896 
L 93.885 304.006745 
L 94.645909 304.350012 
L 95.406818 301.089057 
L 96.167727 295.940167 
L 96.928636 287.272871 
L 99.211364 282.724681 
L 99.972273 282.638864 
L 100.733182 286.157269 
L 101.494091 287.01542 
L 102.255 287.701938 
L 104.537727 288.731723 
L 105.298636 287.530304 
L 106.059545 291.30616 
L 106.820455 284.87005 
L 107.581364 273.113433 
L 109.864091 265.561722 
L 110.625 265.390089 
L 111.385909 271.482947 
L 112.146818 269.852462 
L 112.907727 265.819172 
L 115.190455 271.397131 
L 115.951364 272.169465 
L 116.712273 271.568764 
L 117.473182 275.001353 
L 118.234091 268.565243 
L 120.516818 264.875204 
L 121.277727 267.278024 
L 122.038636 271.826198 
L 122.799545 265.132655 
L 125.843182 267.707092 
L 126.604091 267.792909 
L 127.365 274.486468 
L 128.125909 270.79643 
L 128.886818 245.910143 
L 131.169545 254.319989 
L 131.930455 258.267461 
L 132.691364 263.759619 
L 133.452273 262.129134 
L 134.213182 268.994311 
L 136.495909 274.829719 
L 137.256818 261.871683 
L 138.017727 255.778841 
L 138.778636 268.90851 
L 139.539545 274.572285 
L 141.822273 270.367346 
L 142.583182 275.001353 
L 143.344091 286.586353 
L 144.105 285.470751 
L 144.865909 283.582832 
L 147.148636 284.26935 
L 148.670455 293.880614 
L 149.431364 301.260675 
L 150.192273 294.309681 
L 153.235909 306.237932 
L 153.996818 320.483194 
L 154.757727 311.129372 
L 155.518636 315.505937 
L 157.801364 321.770413 
L 158.562273 323.05764 
L 159.323182 323.315082 
L 160.084091 329.493749 
L 160.845 328.978857 
L 163.127727 324.430675 
L 163.888636 322.199489 
L 164.649545 329.064674 
L 165.410455 329.493749 
L 166.171364 327.434188 
L 168.454091 337.217077 
L 169.215 331.553302 
L 169.975909 335.157524 
L 171.497727 336.873818 
L 173.780455 328.206522 
L 176.063182 348.201368 
L 176.824091 345.798557 
L 179.106818 345.884373 
L 179.867727 344.940405 
L 180.628636 343.653187 
L 181.389545 347.085775 
L 182.150455 352.663742 
L 184.433182 355.667254 
L 185.194091 350.175113 
L 185.955 349.660221 
L 186.715909 351.80559 
L 187.476818 355.753071 
L 190.520455 361.073587 
L 191.281364 363.562216 
L 192.042273 359.528927 
L 192.803182 361.502663 
L 195.085909 364.077108 
L 195.846818 363.390591 
L 196.607727 360.816145 
L 197.368636 359.872185 
L 198.129545 355.495629 
L 201.173182 356.267964 
L 201.934091 359.357293 
L 202.695 355.753071 
L 203.455909 354.723295 
L 206.499545 340.306407 
L 207.260455 337.474519 
L 208.021364 340.220598 
L 208.782273 334.556815 
L 211.065 334.213556 
L 211.825909 331.639119 
L 212.586818 323.658341 
L 213.347727 325.374635 
L 214.108636 323.915783 
L 216.391364 326.919304 
L 217.152273 332.411445 
L 218.674091 334.213556 
L 219.435 327.005121 
L 221.717727 327.691638 
L 222.478636 330.866785 
L 223.239545 336.015667 
L 224.000455 338.933371 
L 224.761364 345.283664 
L 227.044091 344.425521 
L 227.805 343.82482 
L 228.565909 342.62341 
L 229.326818 343.224111 
L 230.087727 346.570891 
L 232.370455 344.854597 
L 233.131364 355.323996 
L 233.892273 354.380036 
L 234.653182 359.700552 
L 235.414091 361.760105 
L 237.696818 358.499142 
L 238.457727 360.301253 
L 239.218636 354.637478 
L 239.979545 357.555182 
L 240.740455 354.723295 
L 243.023182 357.726816 
L 243.784091 364.077108 
L 244.545 364.935251 
L 248.349545 364.077108 
L 249.110455 368.453665 
L 249.871364 368.367848 
L 250.632273 371.028102 
L 251.393182 370.856477 
L 253.675909 365.021068 
L 254.436818 362.446623 
L 255.197727 360.816145 
L 255.958636 355.753071 
L 256.719545 353.007 
L 259.002273 359.271476 
L 259.763182 358.670775 
L 260.524091 357.383557 
L 261.285 351.376515 
L 262.045909 356.09633 
L 264.328636 359.872185 
L 265.850455 345.798557 
L 266.611364 346.656708 
L 267.372273 344.511338 
L 269.655 324.6023 
L 270.415909 323.658341 
L 271.176818 336.788002 
L 271.937727 334.728449 
L 274.981364 330.008633 
L 275.742273 314.47616 
L 276.503182 311.472639 
L 277.264091 312.07334 
L 278.025 311.815906 
L 280.307727 308.469118 
L 281.068636 308.812385 
L 281.829545 314.132902 
L 282.590455 309.756337 
L 283.351364 294.652948 
L 285.634091 304.77908 
L 286.395 292.936646 
L 287.155909 293.022462 
L 287.916818 285.728202 
L 290.960455 275.859504 
L 291.721364 274.915536 
L 292.482273 277.57579 
L 293.243182 281.265829 
L 294.004091 279.806976 
L 296.286818 282.724681 
L 297.047727 283.153764 
L 297.808636 278.004874 
L 299.330455 277.489989 
L 301.613182 278.09069 
L 303.135 270.538979 
L 303.895909 261.442616 
L 304.656818 262.987285 
L 306.939545 277.146722 
L 309.983182 265.561722 
L 312.265909 267.707092 
L 313.026818 275.34462 
L 313.787727 271.997832 
L 314.548636 275.773687 
L 315.309545 280.922578 
L 317.592273 293.022462 
L 318.353182 272.426915 
L 319.114091 271.568764 
L 319.875 262.129134 
L 320.635909 247.969696 
L 322.918636 247.626429 
L 323.679545 235.354911 
L 324.440455 239.903101 
L 325.201364 233.123741 
L 325.962273 238.615882 
L 329.766818 240.675435 
L 330.527727 241.361953 
L 331.288636 235.526545 
L 335.093182 232.523024 
L 335.854091 230.978371 
L 336.615 236.384696 
L 338.897727 245.824326 
L 339.658636 248.48458 
L 340.419545 249.428548 
L 341.180455 251.402285 
L 341.941364 236.727963 
L 344.224091 235.01166 
L 344.985 241.791021 
L 345.745909 245.910143 
L 346.506818 244.794542 
L 347.267727 243.164072 
L 349.550455 248.22713 
L 350.311364 255.17814 
L 351.072273 251.745552 
L 351.833182 249.857616 
L 354.876818 252.088802 
L 355.637727 253.118587 
L 356.398636 244.451291 
L 357.159545 238.787516 
L 357.920455 237.071214 
L 360.964091 214.158663 
L 361.725 221.02384 
L 362.485909 224.713879 
L 363.246818 218.964287 
L 365.529545 212.184927 
L 366.290455 206.006251 
L 367.051364 205.0623 
L 367.812273 206.349518 
L 368.573182 202.831113 
L 371.616818 210.468625 
L 372.377727 208.494888 
L 373.138636 216.6473 
L 373.899545 214.072846 
L 376.182273 219.221737 
L 376.943182 214.930998 
L 377.704091 216.6473 
L 378.465 222.139442 
L 379.225909 224.198995 
L 383.791364 222.396892 
L 384.552273 218.79267 
L 386.835 224.799696 
L 387.595909 223.08341 
L 388.356818 215.531699 
L 389.117727 220.93804 
L 389.878636 214.072846 
L 392.161364 203.260181 
L 392.922273 189.873078 
L 393.683182 187.556074 
L 394.444091 200.77156 
L 395.205 216.990551 
L 397.487727 213.729596 
L 398.248636 214.50193 
L 399.009545 235.097477 
L 399.770455 231.149988 
L 400.531364 228.661368 
L 402.814091 230.806738 
L 403.575 233.638625 
L 404.335909 232.952107 
L 405.096818 230.377654 
L 405.857727 233.123741 
L 408.140455 243.249873 
L 408.901364 247.540612 
L 409.662273 242.906622 
L 410.423182 250.115066 
L 411.184091 251.402285 
L 413.466818 256.122092 
L 414.227727 255.864658 
L 414.988636 262.815651 
L 415.749545 246.682478 
L 418.793182 252.603686 
L 419.554091 245.910143 
L 420.315 252.432069 
L 421.075909 252.088802 
L 421.836818 253.547654 
L 424.119545 253.547654 
L 424.880455 255.435574 
L 426.402273 257.32351 
L 427.163182 247.626429 
L 429.445909 250.973217 
L 430.206818 249.256915 
L 430.967727 240.503802 
L 431.728636 237.757731 
L 432.489545 232.093956 
L 435.533182 253.118587 
L 436.294091 256.465359 
L 437.055 270.882246 
L 437.815909 275.001353 
L 440.098636 271.997832 
L 441.620455 248.827847 
L 442.381364 248.055513 
L 443.142273 237.586098 
L 445.425 232.093956 
L 446.185909 223.598294 
L 446.946818 223.598294 
L 447.707727 218.449403 
L 448.468636 219.393371 
L 450.751364 216.561483 
L 451.512273 209.69629 
L 452.273182 208.323255 
L 453.034091 199.913409 
L 453.795 193.648933 
L 456.077727 186.011405 
L 456.838636 185.324888 
L 457.599545 187.727708 
L 458.360455 186.526306 
L 459.121364 190.731229 
L 461.404091 184.89582 
L 462.925909 169.277531 
L 464.447727 174.598039 
L 466.730455 176.915042 
L 467.491364 181.463232 
L 468.252273 181.034148 
L 469.013182 179.661113 
L 469.774091 171.165466 
L 472.056818 177.086675 
L 472.817727 173.396637 
L 473.578636 146.794064 
L 475.100455 104.229902 
L 477.383182 99.853362 
L 478.905 101.398031 
L 479.665909 104.487369 
L 480.426818 115.300018 
L 482.709545 123.45243 
L 483.470455 108.177407 
L 484.231364 122.251028 
L 484.992273 115.385851 
L 485.753182 120.534726 
L 488.035909 117.102121 
L 488.796818 119.504957 
L 489.557727 116.673053 
L 490.318636 122.680096 
L 491.079545 101.827098 
L 493.362273 99.081028 
L 494.123182 98.909394 
L 494.884091 99.338461 
L 495.645 75.138692 
L 496.405909 86.637876 
L 498.688636 101.226397 
L 499.449545 99.595928 
L 500.210455 111.953246 
L 500.971364 107.748307 
L 501.732273 102.856867 
L 504.015 127.914803 
L 504.775909 123.96733 
L 505.536818 138.555819 
L 507.058636 150.741537 
L 509.341364 151.428038 
L 510.102273 147.137298 
L 510.863182 147.995466 
L 511.624091 164.300257 
L 512.385 164.300257 
L 514.667727 172.967569 
L 515.428636 169.277531 
L 516.189545 173.56827 
L 516.950455 161.210952 
L 517.711364 166.016559 
L 519.994091 170.822199 
L 520.755 180.090196 
L 521.515909 176.314341 
L 522.276818 159.065582 
L 523.037727 158.636482 
L 525.320455 170.307299 
L 526.081364 170.307299 
L 527.603182 144.133794 
L 528.364091 152.715273 
L 530.646818 175.885274 
L 531.407727 160.610218 
L 532.168636 162.24072 
L 532.929545 158.207414 
L 533.690455 165.930759 
L 536.734091 172.881736 
L 537.495 163.442122 
L 538.255909 157.177646 
L 539.016818 176.314341 
L 541.299545 173.739904 
L 542.060455 178.030643 
L 542.821364 184.89582 
L 543.582273 170.307299 
L 544.343182 167.217961 
L 546.625909 172.967569 
L 547.386818 175.456206 
L 548.147727 166.874727 
L 548.908636 166.874727 
L 549.669545 153.573408 
L 551.952273 145.421029 
L 552.713182 144.133794 
L 553.474091 143.275659 
L 554.235 141.988424 
L 554.995909 146.794064 
L 557.278636 149.025234 
L 558.039545 130.918308 
L 558.800455 133.664379 
L 559.561364 133.406945 
L 560.322273 137.869318 
L 562.605 129.116205 
L 563.365909 122.594295 
L 564.126818 117.531221 
L 564.887727 136.839549 
L 565.648636 138.555819 
L 567.931364 145.335196 
L 568.692273 152.886906 
L 569.453182 150.569903 
L 570.214091 145.678463 
L 570.975 159.408816 
L 573.257727 157.520913 
L 574.018636 168.934264 
L 574.779545 167.561228 
L 575.540455 157.520913 
L 578.584091 155.718778 
L 579.345 157.43508 
L 580.866818 159.837916 
L 581.627727 152.715273 
L 583.910455 153.573408 
L 584.671364 164.986791 
L 585.432273 166.53146 
L 586.193182 155.375543 
L 586.954091 158.636482 
L 589.236818 162.326521 
L 589.997727 150.741537 
L 590.758636 155.28971 
L 591.519545 156.147878 
L 592.280455 141.473523 
L 594.563182 136.067215 
L 595.324091 150.569903 
L 596.085 147.995466 
L 596.845909 144.562861 
L 597.606818 140.443755 
L 599.889545 139.15652 
L 600.650455 147.737999 
L 601.411364 149.282668 
L 602.172273 138.212585 
L 602.933182 142.932392 
L 605.215909 138.040951 
L 607.498636 136.410449 
L 608.259545 134.093479 
L 610.542273 135.123247 
L 612.825 131.948109 
L 613.585909 142.846559 
L 615.868636 157.006013 
L 616.629545 155.28971 
L 617.390455 143.618893 
L 618.151364 136.410449 
L 618.912273 131.347375 
L 621.195 124.825465 
L 621.955909 124.911266 
L 622.716818 133.664379 
L 623.477727 136.496282 
L 624.238636 125.426166 
L 626.521364 126.541768 
L 627.282273 136.153015 
L 628.043182 131.862276 
L 628.804091 115.814919 
L 629.565 126.370134 
L 631.847727 147.995466 
L 632.608636 140.357955 
L 633.369545 151.084804 
L 634.130455 150.226636 
L 634.891364 157.006013 
L 637.174091 156.147878 
L 637.935 149.196868 
L 638.695909 140.357955 
L 639.456818 144.133794 
L 640.217727 155.20391 
L 642.500455 157.778347 
L 643.261364 140.272121 
L 644.022273 139.413987 
L 644.783182 147.137298 
L 645.544091 141.988424 
L 647.826818 138.641652 
L 648.587727 143.104025 
L 649.348636 138.984919 
L 650.109545 152.286206 
L 650.870455 160.696051 
L 655.435909 224.370628 
L 656.196818 231.235805 
L 658.479545 226.859249 
L 659.240455 235.354911 
L 660.001364 238.015181 
L 660.762273 273.714134 
L 661.523182 270.281546 
L 663.805909 301.775575 
L 664.566818 293.70898 
L 665.327727 316.62153 
L 666.088636 365.364327 
L 666.088636 365.364327 
" style="fill:none;stroke:#1f77b4;stroke-linecap:square;stroke-width:1.5;"/>
   </g>
   <g id="line2d_17">
    <path clip-path="url(#pf0e74a7419)" d="M 57.361364 319.156374 
L 58.122273 317.962116 
L 58.883182 317.723293 
L 59.644091 316.927135 
L 61.926818 315.334778 
L 62.687727 315.334778 
L 63.448636 317.165975 
L 64.209545 313.583228 
L 64.970455 313.185161 
L 67.253182 312.787061 
L 68.014091 310.398563 
L 68.775 304.745771 
L 69.535909 305.86044 
L 70.296818 305.541937 
L 72.579545 303.869992 
L 73.340455 305.70118 
L 74.101364 296.94337 
L 74.862273 296.94337 
L 75.623182 292.24597 
L 77.905909 292.882926 
L 78.666818 295.749121 
L 79.427727 294.077192 
L 80.188636 287.548604 
L 80.949545 291.92755 
L 83.232273 299.331868 
L 83.993182 291.76829 
L 84.754091 296.14722 
L 85.515 299.252255 
L 86.275909 301.481477 
L 90.841364 296.465673 
L 91.602273 296.306447 
L 93.885 291.290627 
L 94.645909 288.185559 
L 95.406818 289.698262 
L 96.167727 285.797061 
L 96.928636 282.771624 
L 99.211364 279.586976 
L 99.972273 279.746202 
L 100.733182 280.064721 
L 101.494091 283.488193 
L 102.255 279.666605 
L 104.537727 274.809979 
L 106.059545 278.392727 
L 106.820455 278.15387 
L 107.581364 272.660354 
L 109.864091 273.138018 
L 110.625 274.889576 
L 111.385909 272.739951 
L 112.146818 281.258921 
L 112.907727 280.303529 
L 115.190455 284.284359 
L 115.951364 282.453187 
L 116.712273 275.367322 
L 117.473182 277.994627 
L 118.234091 277.755787 
L 120.516818 275.526516 
L 121.277727 280.223899 
L 122.038636 282.134717 
L 122.799545 280.462772 
L 125.843182 284.523182 
L 126.604091 286.035918 
L 127.365 288.663256 
L 128.125909 282.532784 
L 128.886818 281.497778 
L 131.169545 287.469007 
L 131.930455 280.542369 
L 132.691364 277.357737 
L 133.452273 278.313146 
L 134.213182 282.134717 
L 136.495909 286.752454 
L 137.256818 283.488193 
L 138.017727 277.357737 
L 138.778636 274.17304 
L 139.539545 272.899178 
L 141.822273 271.943801 
L 142.583182 272.580724 
L 143.344091 277.915063 
L 144.105 270.749552 
L 144.865909 270.112613 
L 147.148636 268.042584 
L 148.670455 270.988359 
L 149.431364 272.182625 
L 150.192273 273.61573 
L 152.475 270.590293 
L 153.235909 268.520264 
L 153.996818 253.631982 
L 154.757727 245.909194 
L 155.518636 248.377289 
L 157.801364 242.007993 
L 159.323182 232.8521 
L 160.084091 244.316862 
L 160.845 246.705376 
L 163.127727 251.482356 
L 163.888636 253.79589 
L 164.649545 265.283534 
L 165.410455 290.732024 
L 166.171364 292.965748 
L 168.454091 316.020936 
L 169.215 296.954533 
L 169.975909 299.507364 
L 171.497727 322.004097 
L 173.780455 311.074835 
L 174.541364 318.573751 
L 175.302273 320.647912 
L 176.824091 329.263699 
L 179.867727 327.588398 
L 180.628636 329.901915 
L 181.389545 330.460329 
L 182.150455 331.497414 
L 184.433182 335.246868 
L 185.955 321.605237 
L 186.715909 330.460329 
L 187.476818 330.380561 
L 189.759545 325.673782 
L 190.520455 322.961397 
L 191.281364 318.892851 
L 192.042273 318.493958 
L 192.803182 313.787204 
L 195.085909 311.55348 
L 195.846818 311.314166 
L 196.607727 310.436602 
L 197.368636 308.442226 
L 198.129545 307.804026 
L 201.173182 309.319773 
L 201.934091 312.032126 
L 202.695 307.724266 
L 203.455909 306.44785 
L 205.738636 308.282672 
L 206.499545 305.01188 
L 207.260455 306.926512 
L 208.021364 304.134333 
L 208.782273 297.034277 
L 211.065 297.273641 
L 211.825909 294.082577 
L 212.586818 291.689299 
L 213.347727 296.077002 
L 214.108636 293.205079 
L 216.391364 292.247755 
L 217.152273 293.603947 
L 217.913182 291.290447 
L 218.674091 288.099432 
L 219.435 282.515106 
L 221.717727 283.073545 
L 222.478636 285.706138 
L 223.239545 290.253378 
L 224.000455 288.657838 
L 224.761364 294.641032 
L 227.044091 291.051132 
L 227.805 291.131106 
L 228.565909 298.568798 
L 229.326818 299.368548 
L 230.087727 303.287328 
L 232.370455 304.087079 
L 233.131364 309.205542 
L 233.892273 304.167052 
L 234.653182 307.366088 
L 235.414091 304.566952 
L 237.696818 301.287976 
L 238.457727 304.167052 
L 239.218636 296.569429 
L 239.979545 300.568166 
L 240.740455 296.88934 
L 243.023182 298.968681 
L 243.784091 301.767817 
L 244.545 300.968033 
L 245.305909 299.048655 
L 248.349545 296.88934 
L 249.110455 302.967434 
L 249.871364 299.368548 
L 250.632273 301.287976 
L 251.393182 300.64814 
L 253.675909 295.769662 
L 254.436818 288.971774 
L 255.197727 291.131106 
L 255.958636 292.01083 
L 256.719545 289.851514 
L 259.002273 290.971142 
L 259.763182 290.331339 
L 260.524091 289.451631 
L 261.285 279.294777 
L 262.045909 282.253859 
L 264.328636 282.973603 
L 265.089545 268.418129 
L 265.850455 260.66051 
L 266.611364 258.821105 
L 267.372273 259.300945 
L 269.655 238.187486 
L 270.415909 236.428022 
L 271.937727 248.664234 
L 274.981364 244.825428 
L 275.742273 237.147782 
L 276.503182 239.387104 
L 277.264091 245.385242 
L 278.025 243.62581 
L 280.307727 238.7473 
L 281.068636 241.386489 
L 281.829545 245.545189 
L 282.590455 240.426775 
L 283.351364 230.189931 
L 285.634091 239.627024 
L 286.395 226.990945 
L 287.155909 230.029967 
L 287.916818 232.429236 
L 290.960455 225.711337 
L 293.243182 248.184361 
L 294.004091 247.304653 
L 296.286818 248.344324 
L 297.047727 257.06164 
L 297.808636 250.183746 
L 299.330455 244.585508 
L 301.613182 242.98599 
L 303.135 249.623932 
L 303.895909 248.981591 
L 304.656818 255.244512 
L 306.939545 256.208072 
L 307.700455 245.93039 
L 308.461364 247.13482 
L 309.222273 248.820989 
L 309.983182 246.492447 
L 312.265909 242.638336 
L 313.026818 247.456007 
L 313.787727 245.689521 
L 314.548636 253.478042 
L 315.309545 252.032775 
L 317.592273 262.711912 
L 318.353182 263.916309 
L 319.114091 263.836025 
L 319.875 263.354269 
L 320.635909 265.843348 
L 322.918636 267.288664 
L 323.679545 274.274292 
L 324.440455 272.266919 
L 325.201364 278.369272 
L 325.962273 277.887516 
L 329.766818 270.85632 
L 330.527727 270.93937 
L 331.288636 262.550705 
L 335.093182 251.088971 
L 335.854091 246.188675 
L 336.615 245.607305 
L 338.897727 242.368086 
L 339.658636 243.61396 
L 340.419545 239.295035 
L 341.180455 241.122262 
L 341.941364 243.364792 
L 344.224091 244.527549 
L 345.745909 244.776733 
L 346.506818 241.95285 
L 347.267727 239.959488 
L 349.550455 238.879733 
L 350.311364 242.202002 
L 351.072273 239.710304 
L 351.833182 238.796682 
L 354.876818 245.192019 
L 355.637727 240.20864 
L 356.398636 238.132245 
L 357.159545 238.46448 
L 357.920455 236.637252 
L 360.203182 234.726958 
L 360.964091 234.311688 
L 361.725 239.211984 
L 362.485909 242.53422 
L 363.246818 242.202002 
L 365.529545 244.610632 
L 366.290455 237.301706 
L 367.051364 234.560857 
L 367.812273 227.085796 
L 368.573182 227.999418 
L 370.855909 228.663872 
L 371.616818 223.514392 
L 372.377727 226.338292 
L 373.138636 223.348274 
L 373.899545 225.590804 
L 376.943182 230.158864 
L 377.704091 226.00609 
L 378.465 226.172174 
L 379.225909 229.162192 
L 383.791364 228.580805 
L 384.552273 229.411376 
L 386.835 220.441324 
L 387.595909 222.517719 
L 388.356818 217.534373 
L 389.117727 216.786836 
L 389.878636 216.288516 
L 392.161364 212.218792 
L 392.922273 208.398187 
L 393.683182 210.308514 
L 394.444091 213.713801 
L 395.205 226.670511 
L 397.487727 223.846627 
L 398.248636 213.132398 
L 399.009545 223.846627 
L 399.770455 217.866592 
L 400.531364 217.866592 
L 402.814091 218.364945 
L 403.575 215.956298 
L 404.335909 222.185484 
L 405.096818 214.461305 
L 405.857727 211.886541 
L 408.140455 207.982901 
L 408.901364 208.730422 
L 409.662273 211.886541 
L 410.423182 218.364945 
L 411.184091 236.388084 
L 413.466818 235.557513 
L 414.227727 228.996107 
L 414.988636 228.746906 
L 415.749545 221.687165 
L 418.793182 223.016072 
L 419.554091 221.022711 
L 420.315 221.687165 
L 421.075909 220.026038 
L 421.836818 224.435298 
L 424.119545 223.437921 
L 424.880455 225.598906 
L 426.402273 228.757251 
L 427.163182 227.759858 
L 429.445909 228.424787 
L 430.206818 231.915579 
L 430.967727 223.437921 
L 431.728636 227.92609 
L 432.489545 229.172798 
L 434.772273 235.655736 
L 435.533182 234.824576 
L 436.294091 235.821952 
L 437.815909 245.795666 
L 440.098636 238.814065 
L 440.859545 230.752003 
L 441.620455 231.586274 
L 442.381364 235.340573 
L 443.142273 233.254864 
L 445.425 232.003426 
L 446.185909 227.331396 
L 446.946818 229.834273 
L 447.707727 232.754285 
L 448.468636 237.760055 
L 450.751364 234.089151 
L 451.512273 232.337134 
L 452.273182 235.173735 
L 453.795 227.665104 
L 456.077727 228.582835 
L 456.838636 224.327941 
L 457.599545 226.914228 
L 458.360455 224.16107 
L 459.121364 225.162228 
L 461.404091 224.745092 
L 462.165 221.908475 
L 462.925909 221.324485 
L 464.447727 214.983866 
L 466.730455 215.234163 
L 467.491364 221.407912 
L 468.252273 220.073047 
L 469.013182 223.743935 
L 469.774091 222.242215 
L 472.056818 223.493638 
L 472.817727 227.164542 
L 473.578636 224.16107 
L 474.339545 222.40907 
L 475.100455 222.325626 
L 477.383182 220.239917 
L 478.905 216.735883 
L 479.665909 213.982725 
L 480.426818 212.898108 
L 482.709545 215.818169 
L 483.470455 218.738198 
L 484.992273 221.407912 
L 485.753182 221.991918 
L 488.796818 221.324485 
L 489.557727 222.742778 
L 490.318636 226.58052 
L 491.079545 232.837712 
L 493.362273 230.835414 
L 494.884091 233.338307 
L 495.645 231.919998 
L 496.405909 229.667403 
L 498.688636 237.760055 
L 499.449545 235.006897 
L 500.210455 237.342887 
L 500.971364 231.085695 
L 501.732273 231.669701 
L 504.015 236.925752 
L 504.775909 234.066858 
L 505.536818 241.382249 
L 506.297727 247.184104 
L 507.058636 249.874818 
L 509.341364 248.865804 
L 510.102273 248.949886 
L 510.863182 236.925752 
L 511.624091 238.859698 
L 512.385 246.763662 
L 514.667727 249.454393 
L 515.428636 246.259172 
L 516.189545 244.157046 
L 516.950455 236.505327 
L 517.711364 236.505327 
L 519.994091 238.187028 
L 520.755 235.664477 
L 521.515909 230.114868 
L 525.320455 224.481193 
L 526.081364 223.051754 
L 526.842273 224.9857 
L 527.603182 223.388097 
L 528.364091 224.901618 
L 530.646818 214.97961 
L 531.407727 218.090734 
L 532.168636 222.04274 
L 532.929545 221.454135 
L 533.690455 223.892604 
L 535.973182 219.856533 
L 536.734091 221.622299 
L 537.495 221.033726 
L 538.255909 218.006652 
L 542.060455 219.604271 
L 542.821364 226.246992 
L 543.582273 226.078812 
L 544.343182 228.012758 
L 546.625909 230.871653 
L 547.386818 232.132912 
L 548.147727 227.928676 
L 548.908636 226.078812 
L 549.669545 221.706397 
L 551.952273 221.285988 
L 553.474091 216.072722 
L 554.235 218.343012 
L 554.995909 218.847502 
L 557.278636 217.418063 
L 558.039545 210.691293 
L 558.800455 207.496039 
L 559.561364 212.793403 
L 560.322273 204.973504 
L 562.605 202.030544 
L 563.365909 200.18068 
L 564.126818 197.994472 
L 564.887727 195.387839 
L 565.648636 195.051512 
L 567.931364 195.640085 
L 568.692273 201.610119 
L 569.453182 201.105628 
L 570.214091 191.099522 
L 570.975 198.498979 
L 573.257727 194.883332 
L 574.018636 196.822287 
L 574.779545 197.838028 
L 575.540455 202.916619 
L 578.584091 204.778775 
L 579.345 207.318071 
L 580.866818 198.261236 
L 581.627727 197.160873 
L 583.910455 199.276961 
L 584.671364 203.847689 
L 585.432273 202.662688 
L 586.193182 200.969824 
L 586.954091 204.186275 
L 589.236818 204.863414 
L 589.997727 205.625207 
L 590.758636 199.869461 
L 591.519545 196.568372 
L 592.280455 194.02906 
L 594.563182 195.214078 
L 595.324091 193.267267 
L 596.085 193.605853 
L 596.845909 188.781177 
L 597.606818 197.160873 
L 599.889545 201.985549 
L 600.650455 198.261236 
L 601.411364 192.420835 
L 602.172273 191.828335 
L 602.933182 194.790854 
L 605.215909 192.759421 
L 607.498636 189.289039 
L 608.259545 189.014926 
L 610.542273 191.932631 
L 612.825 187.470257 
L 613.585909 189.615627 
L 615.868636 186.526306 
L 616.629545 187.556074 
L 617.390455 189.18656 
L 618.151364 190.044711 
L 618.912273 191.160296 
L 621.195 190.645412 
L 621.955909 193.477299 
L 622.716818 197.338972 
L 623.477727 197.596406 
L 624.238636 194.764518 
L 626.521364 193.477299 
L 628.043182 199.570142 
L 628.804091 196.480821 
L 629.565 199.484342 
L 631.847727 210.382808 
L 632.608636 203.775081 
L 633.369545 203.345997 
L 634.130455 202.573663 
L 634.891364 206.778586 
L 637.174091 209.095589 
L 637.935 205.233933 
L 638.695909 207.293486 
L 639.456818 200.51411 
L 640.217727 202.65948 
L 642.500455 200.943194 
L 643.261364 197.939673 
L 644.022273 192.361714 
L 644.783182 195.88012 
L 645.544091 198.454557 
L 647.826818 198.969441 
L 648.587727 195.622669 
L 649.348636 188.757492 
L 650.109545 194.163817 
L 650.870455 200.857377 
L 655.435909 233.810259 
L 656.196818 233.466992 
L 658.479545 223.255027 
L 659.240455 227.374149 
L 660.001364 220.165705 
L 660.762273 233.896059 
L 661.523182 255.006507 
L 663.805909 313.188942 
L 664.566818 300.230906 
L 665.327727 316.192455 
L 666.088636 342.795036 
L 666.088636 342.795036 
" style="fill:none;stroke:#ff7f0e;stroke-linecap:square;stroke-width:1.5;"/>
   </g>
   <g id="line2d_18">
    <path clip-path="url(#pf0e74a7419)" d="M 57.361364 344.577751 
L 58.122273 344.741757 
L 58.883182 339.002288 
L 59.644091 340.39616 
L 61.926818 336.542516 
L 62.687727 335.886582 
L 63.448636 337.444427 
L 64.209545 328.179319 
L 64.970455 328.179319 
L 67.253182 329.409193 
L 68.014091 332.360909 
L 68.775 327.933334 
L 69.535909 331.704983 
L 70.296818 334.820673 
L 72.579545 336.296548 
L 73.340455 338.510344 
L 74.101364 334.984663 
L 74.862273 334.984663 
L 75.623182 328.425295 
L 77.905909 331.049024 
L 78.666818 330.229125 
L 79.427727 332.852854 
L 80.188636 331.049024 
L 80.949545 331.459007 
L 83.232273 338.264351 
L 83.993182 331.459007 
L 84.754091 335.640597 
L 85.515 338.100378 
L 86.275909 335.886582 
L 90.841364 327.933334 
L 91.602273 320.30805 
L 93.885 313.748666 
L 94.645909 318.504228 
L 95.406818 317.274363 
L 96.167727 318.832183 
L 96.928636 314.650568 
L 99.211364 311.28891 
L 99.972273 314.404633 
L 100.733182 314.650568 
L 101.494091 310.305005 
L 102.255 312.354851 
L 104.537727 310.960947 
L 105.298636 317.11034 
L 106.059545 313.748666 
L 106.820455 319.488126 
L 109.864091 316.203863 
L 110.625 317.107435 
L 111.385909 319.078945 
L 112.146818 323.268335 
L 112.907727 324.007639 
L 115.190455 327.457725 
L 115.951364 321.625426 
L 116.712273 319.653941 
L 117.473182 324.746943 
L 118.234091 326.964864 
L 120.516818 325.157662 
L 121.277727 326.800571 
L 122.038636 328.114895 
L 122.799545 323.596912 
L 125.843182 322.446881 
L 126.604091 321.707577 
L 127.365 324.829077 
L 128.125909 316.368156 
L 128.886818 318.421767 
L 131.169545 321.050415 
L 131.930455 318.339617 
L 132.691364 319.325364 
L 133.452273 315.793128 
L 134.213182 316.121721 
L 136.495909 316.53244 
L 137.256818 312.91807 
L 138.017727 308.482213 
L 138.778636 309.87872 
L 139.539545 311.685896 
L 141.822273 313.493073 
L 142.583182 313.246655 
L 143.344091 313.164472 
L 144.105 311.110893 
L 144.865909 313.903809 
L 147.148636 314.150243 
L 148.670455 317.518179 
L 149.431364 315.464567 
L 150.192273 312.589469 
L 152.475 316.53244 
L 153.235909 316.778883 
L 153.996818 308.317928 
L 154.757727 304.292823 
L 155.518636 305.114294 
L 157.801364 305.442895 
L 158.562273 304.867859 
L 159.323182 301.007054 
L 160.084091 303.389218 
L 163.888636 311.446778 
L 164.649545 314.582854 
L 165.410455 314.417801 
L 166.171364 320.112347 
L 168.454091 328.28278 
L 169.215 326.467133 
L 169.975909 328.777949 
L 171.497727 323.331008 
L 173.780455 319.947294 
L 174.541364 317.636469 
L 175.302273 319.617187 
L 176.063182 328.447834 
L 176.824091 332.739376 
L 179.106818 333.729722 
L 179.867727 331.08879 
L 180.628636 331.501424 
L 182.150455 335.0502 
L 184.433182 334.555023 
L 185.194091 335.0502 
L 185.955 329.273135 
L 186.715909 335.462842 
L 187.476818 333.234553 
L 189.759545 336.453213 
L 190.520455 339.836919 
L 191.281364 339.011618 
L 192.042273 335.95802 
L 192.803182 336.12309 
L 195.085909 336.040563 
L 195.846818 332.986964 
L 196.607727 330.593605 
L 197.368636 325.806894 
L 198.129545 322.835822 
L 201.173182 325.064128 
L 201.934091 328.035184 
L 202.695 321.350299 
L 203.455909 322.918357 
L 205.738636 321.10271 
L 206.499545 317.553943 
L 207.260455 316.646107 
L 208.021364 319.122009 
L 208.782273 316.811185 
L 211.065 316.398534 
L 211.825909 312.4371 
L 212.586818 313.509998 
L 213.347727 316.728642 
L 214.108636 311.941923 
L 216.391364 309.63109 
L 217.152273 313.262417 
L 217.913182 315.573234 
L 218.674091 313.592525 
L 219.435 309.878687 
L 221.717727 311.859412 
L 222.478636 313.262417 
L 223.239545 308.970859 
L 224.000455 312.35459 
L 224.761364 318.296708 
L 227.044091 319.617187 
L 227.805 316.398534 
L 228.565909 322.835822 
L 229.326818 322.835822 
L 230.087727 321.762949 
L 232.370455 317.1413 
L 233.131364 319.287071 
L 233.892273 315.873379 
L 234.653182 319.370318 
L 235.414091 318.620972 
L 237.696818 316.789244 
L 239.218636 315.207305 
L 239.979545 318.371199 
L 240.740455 317.372071 
L 243.023182 318.954009 
L 243.784091 320.952273 
L 244.545 321.202039 
L 245.305909 318.870762 
L 248.349545 321.118783 
L 249.110455 324.36594 
L 249.871364 323.616594 
L 251.393182 323.866368 
L 253.675909 320.785746 
L 254.436818 312.126651 
L 255.197727 311.210803 
L 255.958636 311.044309 
L 256.719545 309.379074 
L 259.002273 313.042531 
L 259.763182 305.549123 
L 260.524091 308.46321 
L 261.285 307.963646 
L 262.045909 307.797103 
L 264.328636 312.04342 
L 265.089545 310.961029 
L 266.611364 315.956651 
L 267.372273 319.370318 
L 269.655 320.952273 
L 270.415909 317.455318 
L 271.176818 321.45182 
L 271.937727 319.869882 
L 274.981364 321.618347 
L 275.742273 316.039906 
L 276.503182 316.872499 
L 277.264091 321.951393 
L 278.025 325.115294 
L 280.307727 319.453573 
L 281.068636 320.369429 
L 281.829545 326.28094 
L 283.351364 319.453573 
L 285.634091 320.702483 
L 286.395 319.370318 
L 287.155909 315.540334 
L 287.916818 314.208161 
L 290.960455 309.878638 
L 291.721364 309.462337 
L 293.243182 317.039026 
L 294.004091 316.705989 
L 296.286818 322.367693 
L 297.808636 324.782249 
L 299.330455 315.790116 
L 301.613182 316.456215 
L 303.135 323.117039 
L 303.895909 321.77349 
L 304.656818 325.636177 
L 306.939545 326.643824 
L 307.700455 327.483562 
L 308.461364 324.376612 
L 309.222273 324.124694 
L 309.983182 320.933777 
L 312.265909 315.307681 
L 313.026818 318.162721 
L 313.787727 316.567254 
L 314.548636 318.078754 
L 315.309545 319.338311 
L 317.592273 322.193351 
L 318.353182 320.933777 
L 319.114091 321.605548 
L 319.875 322.109383 
L 320.635909 323.872776 
L 322.918636 324.124694 
L 323.679545 323.117039 
L 324.440455 323.704834 
L 325.201364 328.743127 
L 325.962273 327.399578 
L 329.766818 326.727816 
L 330.527727 329.834757 
L 331.288636 326.475898 
L 335.093182 323.284981 
L 335.854091 324.124694 
L 336.615 320.765835 
L 339.658636 320.261999 
L 340.419545 316.567254 
L 341.941364 323.117039 
L 344.224091 323.284981 
L 344.985 325.804128 
L 345.745909 325.552202 
L 346.506818 324.544555 
L 347.267727 320.84981 
L 349.550455 320.765835 
L 350.311364 321.017745 
L 351.072273 319.506261 
L 351.833182 316.65123 
L 354.876818 319.590229 
L 355.637727 319.590229 
L 356.398636 315.307681 
L 357.159545 319.506261 
L 357.920455 318.24668 
L 360.203182 316.65123 
L 360.964091 317.239025 
L 361.725 322.193351 
L 362.485909 323.033063 
L 363.246818 322.0254 
L 365.529545 321.185695 
L 366.290455 320.765835 
L 367.051364 319.674204 
L 367.812273 318.834491 
L 368.573182 320.933777 
L 370.855909 320.345974 
L 371.616818 320.429941 
L 372.377727 318.24668 
L 373.138636 324.124694 
L 373.899545 323.452916 
L 376.182273 322.697178 
L 376.943182 320.933777 
L 377.704091 321.35363 
L 378.465 323.788809 
L 379.225909 324.712497 
L 384.552273 326.572231 
L 386.835 324.966093 
L 387.595909 326.910383 
L 388.356818 324.289821 
L 389.117727 326.149564 
L 389.878636 323.190891 
L 392.161364 319.724985 
L 392.922273 316.93536 
L 393.683182 318.87965 
L 394.444091 318.541515 
L 395.205 324.627965 
L 397.487727 325.219697 
L 398.248636 322.091952 
L 399.009545 327.079447 
L 400.531364 322.937279 
L 402.814091 314.991094 
L 403.575 314.991094 
L 404.335909 315.667357 
L 405.096818 313.976678 
L 405.857727 317.611639 
L 408.140455 316.93536 
L 408.901364 319.048722 
L 409.662273 319.640453 
L 410.423182 322.514619 
L 411.184091 324.036226 
L 413.466818 325.9805 
L 414.227727 323.444486 
L 414.988636 324.289821 
L 415.749545 324.712489 
L 418.793182 324.543425 
L 419.554091 326.403167 
L 420.315 327.502106 
L 421.075909 327.671187 
L 421.836818 329.446397 
L 424.119545 329.277333 
L 424.880455 331.306147 
L 426.402273 332.57415 
L 427.163182 330.629868 
L 429.445909 331.897879 
L 430.206818 330.7144 
L 430.967727 328.34745 
L 431.728636 330.545336 
L 432.489545 331.306147 
L 434.772273 334.180289 
L 435.533182 332.996818 
L 436.294091 333.250422 
L 437.055 334.772044 
L 437.815909 334.772044 
L 440.098636 333.837398 
L 440.859545 329.504102 
L 441.620455 329.504102 
L 442.381364 332.392966 
L 443.142273 333.24263 
L 445.425 333.497535 
L 446.185909 330.778594 
L 448.468636 333.072699 
L 450.751364 332.477932 
L 451.512273 333.157665 
L 452.273182 334.432166 
L 453.034091 334.941976 
L 453.795 332.817802 
L 456.077727 330.693637 
L 456.838636 327.125023 
L 457.599545 328.059653 
L 458.360455 326.44529 
L 459.121364 328.994284 
L 461.404091 330.183827 
L 462.165 325.680591 
L 462.925909 323.811315 
L 464.447727 321.602176 
L 466.730455 322.366875 
L 467.491364 325.595618 
L 468.252273 322.706745 
L 469.013182 323.556418 
L 469.774091 321.772115 
L 472.056818 323.216547 
L 472.817727 326.530256 
L 473.578636 324.406091 
L 474.339545 320.922443 
L 475.100455 320.327675 
L 477.383182 320.497606 
L 478.905 320.837477 
L 479.665909 323.981254 
L 480.426818 325.850523 
L 482.709545 324.066212 
L 483.470455 325.255755 
L 484.231364 326.785153 
L 484.992273 327.804757 
L 485.753182 329.079266 
L 488.035909 331.883156 
L 488.796818 331.45832 
L 489.557727 333.24263 
L 490.318636 334.347208 
L 491.079545 334.007329 
L 493.362273 332.817802 
L 494.123182 331.203431 
L 494.884091 334.092295 
L 495.645 336.216476 
L 496.405909 335.621709 
L 498.688636 339.615142 
L 499.449545 339.700116 
L 500.210455 340.719712 
L 500.971364 337.151107 
L 501.732273 338.000779 
L 504.015 341.059583 
L 504.775909 338.170702 
L 505.536818 342.928851 
L 506.297727 346.582422 
L 507.058636 343.183748 
L 509.341364 346.174093 
L 510.102273 345.7469 
L 510.863182 343.696382 
L 511.624091 343.183748 
L 512.385 345.917788 
L 514.667727 348.310051 
L 515.428636 350.360577 
L 516.189545 349.164446 
L 516.950455 343.867262 
L 517.711364 340.962349 
L 520.755 343.440061 
L 521.515909 343.440061 
L 522.276818 342.671123 
L 523.037727 344.721641 
L 525.320455 338.911823 
L 526.081364 335.408845 
L 526.842273 337.886564 
L 527.603182 334.639898 
L 528.364091 335.067084 
L 530.646818 335.579725 
L 531.407727 334.896211 
L 532.168636 336.177791 
L 532.929545 336.434112 
L 533.690455 337.715684 
L 535.973182 338.057437 
L 536.734091 340.278843 
L 537.495 338.911823 
L 538.255909 338.740943 
L 539.016818 339.595337 
L 541.299545 338.48463 
L 542.060455 339.082704 
L 542.821364 343.269188 
L 543.582273 341.731296 
L 544.343182 339.595337 
L 546.625909 341.731296 
L 547.386818 343.696382 
L 548.147727 343.952694 
L 548.908636 340.022531 
L 549.669545 337.373939 
L 551.952273 337.715684 
L 552.713182 335.665166 
L 553.474091 336.861297 
L 554.235 336.434112 
L 554.995909 338.48463 
L 557.278636 337.886564 
L 558.039545 337.459371 
L 558.800455 337.20305 
L 559.561364 339.85165 
L 560.322273 337.801132 
L 562.605 338.057437 
L 563.365909 338.911823 
L 564.126818 336.604984 
L 564.887727 336.177791 
L 565.648636 332.076747 
L 567.931364 326.181489 
L 568.692273 324.899909 
L 569.453182 325.07079 
L 570.214091 319.944479 
L 570.975 320.627985 
L 573.257727 320.371672 
L 574.018636 319.943366 
L 574.779545 319.686382 
L 575.540455 318.658422 
L 578.584091 320.200349 
L 579.345 319.857696 
L 580.866818 310.006487 
L 581.627727 307.950584 
L 583.910455 307.008302 
L 584.671364 303.067802 
L 585.432273 301.697206 
L 586.193182 303.838762 
L 586.954091 305.295044 
L 589.236818 301.440214 
L 589.997727 304.86673 
L 590.758636 303.067802 
L 591.519545 302.725157 
L 592.280455 300.15527 
L 594.563182 303.753109 
L 595.324091 299.555633 
L 596.085 300.15527 
L 596.845909 297.49973 
L 597.606818 292.531295 
L 599.889545 295.786472 
L 600.650455 296.557432 
L 601.411364 298.185037 
L 602.172273 294.415859 
L 602.933182 286.877554 
L 605.215909 284.222014 
L 607.498636 280.538506 
L 608.259545 280.624175 
L 610.542273 279.596224 
L 612.825 273.085853 
L 613.585909 275.998385 
L 615.868636 276.426683 
L 616.629545 273.68549 
L 617.390455 273.000184 
L 618.151364 273.942482 
L 618.912273 271.543918 
L 621.195 263.834273 
L 621.955909 267.432112 
L 622.716818 270.173321 
L 623.477727 268.460063 
L 624.238636 266.147168 
L 626.521364 260.150782 
L 627.282273 264.176935 
L 628.043182 261.86404 
L 628.804091 261.093064 
L 629.565 265.290539 
L 631.847727 280.024522 
L 632.608636 277.882949 
L 633.369545 278.39695 
L 634.130455 273.257176 
L 634.891364 279.167909 
L 637.174091 274.884781 
L 637.935 267.346442 
L 638.695909 267.603434 
L 639.456818 268.974047 
L 640.217727 277.454651 
L 642.500455 280.195861 
L 643.261364 270.258974 
L 644.022273 268.631386 
L 644.783182 269.488015 
L 645.544091 275.313079 
L 647.826818 273.599821 
L 648.587727 275.141756 
L 649.348636 275.912716 
L 650.109545 283.62236 
L 650.870455 287.305852 
L 655.435909 304.524068 
L 656.196818 305.894665 
L 659.240455 301.089057 
L 660.001364 293.623163 
L 660.762273 301.346491 
L 661.523182 312.330791 
L 663.805909 337.217077 
L 664.566818 327.863264 
L 665.327727 342.022709 
L 666.088636 359.957994 
L 666.088636 359.957994 
" style="fill:none;stroke:#2ca02c;stroke-linecap:square;stroke-width:1.5;"/>
   </g>
   <g id="line2d_19">
    <path clip-path="url(#pf0e74a7419)" d="M 57.361364 364.72188 
L 58.122273 366.599504 
L 58.883182 366.428812 
L 59.644091 365.746042 
L 61.926818 365.57535 
L 62.687727 368.477128 
L 63.448636 368.306428 
L 64.209545 367.452966 
L 64.970455 367.111581 
L 67.253182 367.367615 
L 68.014091 368.135743 
L 68.775 367.623658 
L 69.535909 368.647812 
L 70.296818 368.135743 
L 72.579545 367.709008 
L 73.340455 369.415932 
L 74.101364 366.514154 
L 74.862273 366.514154 
L 75.623182 365.233965 
L 77.905909 364.039119 
L 78.666818 364.209803 
L 79.427727 365.148615 
L 80.188636 363.953776 
L 80.949545 365.660692 
L 83.232273 366.599504 
L 83.993182 366.087427 
L 84.754091 366.855538 
L 85.515 368.989197 
L 86.275909 368.56247 
L 90.841364 368.477128 
L 91.602273 368.989197 
L 93.885 368.647812 
L 94.645909 367.367615 
L 95.406818 365.660692 
L 96.167727 363.527041 
L 96.928636 363.014956 
L 99.211364 366.172769 
L 99.972273 366.599504 
L 101.494091 366.002077 
L 102.255 365.57535 
L 104.537727 369.842667 
L 106.059545 370.610779 
L 106.820455 371.122856 
L 107.581364 367.538308 
L 109.864091 364.039119 
L 110.625 362.161503 
L 111.385909 364.465845 
L 112.146818 367.282273 
L 112.907727 368.818505 
L 115.190455 367.538308 
L 115.951364 368.050393 
L 116.712273 368.733154 
L 117.473182 368.903855 
L 118.234091 370.440086 
L 120.516818 370.610779 
L 122.038636 374.963446 
L 122.799545 371.122856 
L 125.843182 370.696129 
L 126.604091 373.256514 
L 127.365 373.256514 
L 128.125909 374.707403 
L 128.886818 373.256514 
L 131.930455 374.451369 
L 132.691364 372.573745 
L 133.452273 371.293556 
L 134.213182 373.085822 
L 136.495909 374.366019 
L 137.256818 373.939284 
L 138.017727 372.403061 
L 138.778636 373.256514 
L 139.539545 372.659095 
L 141.822273 372.403061 
L 142.583182 373.085822 
L 143.344091 374.366019 
L 144.105 372.23236 
L 144.865909 374.536711 
L 147.148636 376.243635 
L 148.670455 376.614506 
L 149.431364 378.75963 
L 150.192273 380.13251 
L 152.475 380.475736 
L 153.235909 381.076364 
L 153.996818 378.330604 
L 154.757727 374.383573 
L 155.518636 374.726791 
L 157.801364 373.43972 
L 158.562273 371.981031 
L 159.323182 370.093325 
L 160.084091 371.208787 
L 160.845 369.835907 
L 163.127727 368.806245 
L 164.649545 369.406881 
L 165.410455 369.492689 
L 166.171364 368.463027 
L 168.454091 369.750098 
L 169.215 372.495858 
L 169.975909 374.297765 
L 171.497727 373.43972 
L 173.780455 373.954547 
L 174.541364 377.043533 
L 175.302273 376.442889 
L 176.063182 378.416412 
L 176.824091 375.413235 
L 179.867727 376.099671 
L 180.628636 375.413235 
L 181.389545 375.499044 
L 182.150455 376.099671 
L 184.433182 374.297765 
L 185.194091 372.667475 
L 185.955 372.753284 
L 186.715909 370.951378 
L 187.476818 370.865569 
L 189.759545 369.664298 
L 190.520455 370.865569 
L 192.042273 374.383573 
L 192.803182 371.122978 
L 195.085909 371.208787 
L 195.846818 371.122978 
L 196.607727 368.20561 
L 197.368636 368.977854 
L 198.129545 370.77976 
L 201.173182 366.489512 
L 201.934091 369.492689 
L 202.695 369.235263 
L 203.455909 370.264934 
L 205.738636 368.119809 
L 206.499545 365.374041 
L 207.260455 366.661121 
L 208.021364 366.575312 
L 208.782273 368.377219 
L 211.065 369.835907 
L 211.825909 369.063663 
L 212.586818 366.489512 
L 213.347727 368.463027 
L 214.108636 368.291418 
L 216.391364 372.839076 
L 217.152273 373.52552 
L 217.913182 373.010693 
L 219.435 370.77976 
L 222.478636 374.126164 
L 223.239545 374.297765 
L 224.000455 377.30095 
L 224.761364 379.703484 
L 227.044091 376.357097 
L 228.565909 372.238449 
L 229.326818 374.726791 
L 230.087727 374.640983 
L 232.370455 375.670645 
L 233.131364 374.126164 
L 233.892273 369.921716 
L 234.653182 371.809422 
L 235.414091 369.492689 
L 237.696818 368.548828 
L 238.457727 369.406881 
L 239.218636 369.406881 
L 239.979545 371.466204 
L 240.740455 370.264934 
L 243.023182 369.492689 
L 243.784091 371.122978 
L 244.545 370.693952 
L 245.305909 371.466204 
L 248.349545 370.093325 
L 249.110455 370.007516 
L 249.871364 371.552005 
L 250.632273 372.839076 
L 251.393182 372.581667 
L 253.675909 371.03717 
L 254.436818 367.090139 
L 255.197727 368.806245 
L 255.958636 371.466204 
L 256.719545 371.122978 
L 259.002273 372.410058 
L 260.524091 369.321072 
L 261.285 368.892046 
L 262.045909 370.436543 
L 264.328636 371.208787 
L 265.089545 371.03717 
L 265.850455 371.294596 
L 266.611364 375.070017 
L 267.372273 376.700315 
L 269.655 374.726791 
L 271.176818 374.383573 
L 271.937727 372.495858 
L 274.981364 371.809422 
L 275.742273 370.608151 
L 276.503182 370.264934 
L 277.264091 368.892046 
L 278.025 368.034001 
L 280.307727 366.232094 
L 281.068636 363.486335 
L 281.829545 365.974685 
L 282.590455 365.030823 
L 283.351364 364.859214 
L 285.634091 367.090139 
L 286.395 362.542473 
L 287.155909 362.971499 
L 287.916818 363.572135 
L 290.960455 361.34121 
L 291.721364 362.71409 
L 292.482273 360.397349 
L 293.243182 362.628282 
L 294.004091 365.45985 
L 296.286818 365.45985 
L 297.047727 366.403703 
L 297.808636 353.103923 
L 299.330455 354.648412 
L 301.613182 357.823198 
L 303.135 353.790367 
L 303.895909 355.249055 
L 304.656818 357.737398 
L 306.939545 355.506465 
L 307.700455 352.674896 
L 308.461364 352.160061 
L 309.222273 350.100746 
L 309.983182 349.929128 
L 312.265909 348.298839 
L 313.026818 352.417487 
L 313.787727 347.011768 
L 314.548636 346.239523 
L 315.309545 347.526595 
L 317.592273 350.100746 
L 318.353182 353.532941 
L 319.114091 352.160061 
L 319.875 347.955621 
L 320.635909 347.269177 
L 322.918636 348.813674 
L 323.679545 348.642057 
L 324.440455 351.902652 
L 325.201364 353.103923 
L 325.962273 350.014937 
L 329.766818 352.24587 
L 330.527727 353.961968 
L 331.288636 351.473625 
L 335.093182 347.612403 
L 335.854091 345.982106 
L 336.615 343.236338 
L 338.897727 347.011768 
L 339.658636 345.381462 
L 340.419545 346.239523 
L 341.180455 346.582741 
L 341.941364 343.836982 
L 344.224091 342.035075 
L 344.985 342.635711 
L 345.745909 338.088045 
L 346.506818 335.942912 
L 347.267727 334.82745 
L 349.550455 333.368761 
L 350.311364 334.226806 
L 351.072273 330.108166 
L 351.833182 326.761771 
L 354.876818 323.930203 
L 355.637727 324.788256 
L 356.398636 319.639954 
L 357.920455 323.329567 
L 360.203182 322.042488 
L 360.964091 322.385722 
L 361.725 330.537193 
L 362.485909 327.963042 
L 363.246818 328.649486 
L 365.529545 327.791433 
L 366.290455 326.075327 
L 367.051364 327.534016 
L 367.812273 326.504354 
L 368.573182 323.758602 
L 370.855909 322.214105 
L 371.616818 324.016011 
L 372.377727 328.821095 
L 373.138636 331.481046 
L 373.899545 328.992704 
L 376.182273 331.05202 
L 376.943182 333.368761 
L 377.704091 332.853926 
L 378.465 335.685495 
L 379.225909 329.764948 
L 383.791364 338.77448 
L 384.552273 338.088045 
L 386.835 337.229992 
L 388.356818 329.764948 
L 389.117727 327.362407 
L 389.878636 323.501176 
L 392.161364 317.494822 
L 392.922273 322.299914 
L 393.683182 322.385722 
L 395.205 328.30626 
L 397.487727 327.019189 
L 398.248636 321.184443 
L 399.009545 325.4747 
L 399.770455 318.181266 
L 400.531364 314.320036 
L 402.814091 311.660084 
L 403.575 314.834871 
L 404.335909 317.065795 
L 405.096818 315.521315 
L 405.857727 308.48529 
L 408.140455 302.90797 
L 408.901364 305.911147 
L 409.662273 304.109241 
L 410.423182 305.996948 
L 411.184091 299.561575 
L 413.466818 297.073216 
L 414.227727 284.030853 
L 414.988636 287.034031 
L 415.749545 294.413273 
L 418.793182 287.977884 
L 419.554091 281.714128 
L 420.315 287.720466 
L 421.075909 275.107138 
L 421.836818 285.146324 
L 424.119545 284.888906 
L 424.880455 281.285093 
L 426.402273 283.411198 
L 427.163182 274.829719 
L 429.445909 276.717655 
L 430.206818 281.265829 
L 430.967727 277.919057 
L 431.728636 272.426915 
L 432.489545 279.034642 
L 434.772273 281.523279 
L 435.533182 267.363841 
L 437.055 256.207908 
L 437.815909 248.656214 
L 440.098636 244.880358 
L 440.859545 258.353278 
L 441.620455 256.551175 
L 442.381364 259.81213 
L 443.142273 251.659735 
L 445.425 257.752577 
L 446.185909 256.980243 
L 446.946818 269.251761 
L 447.707727 259.81213 
L 448.468636 263.330536 
L 450.751364 268.822693 
L 451.512273 258.953979 
L 452.273182 261.528433 
L 453.034091 262.21495 
L 453.795 265.132655 
L 456.077727 261.9575 
L 456.838636 263.845436 
L 457.599545 261.013549 
L 458.360455 265.990806 
L 459.121364 269.595028 
L 461.404091 271.740398 
L 462.165 274.229018 
L 462.925909 268.565243 
L 464.447727 261.528433 
L 466.730455 263.931236 
L 467.491364 262.987285 
L 468.252273 268.65106 
L 469.013182 269.938278 
L 469.774091 268.822693 
L 472.056818 258.782362 
L 472.817727 252.689503 
L 473.578636 252.689503 
L 474.339545 249.428548 
L 475.100455 242.477538 
L 477.383182 240.589619 
L 478.905 233.209541 
L 479.665909 241.533587 
L 480.426818 246.253394 
L 482.709545 239.731468 
L 483.470455 246.253394 
L 484.231364 249.342732 
L 484.992273 246.682478 
L 485.753182 245.824326 
L 488.035909 237.671914 
L 488.796818 231.064171 
L 489.557727 228.318101 
L 490.318636 233.037924 
L 491.079545 234.496776 
L 493.362273 235.869812 
L 494.123182 233.810259 
L 494.884091 237.242847 
L 495.645 226.945065 
L 496.405909 225.57203 
L 498.688636 229.004618 
L 499.449545 220.766406 
L 500.210455 221.452924 
L 500.971364 220.93804 
L 501.732273 215.617515 
L 504.015 202.058779 
L 504.775909 210.897708 
L 505.536818 216.218216 
L 506.297727 205.319734 
L 507.058636 201.200628 
L 509.341364 202.91693 
L 510.102273 205.148117 
L 510.863182 199.913409 
L 511.624091 201.543895 
L 512.385 213.643779 
L 514.667727 212.957261 
L 515.428636 211.927477 
L 516.950455 198.197107 
L 517.711364 196.566637 
L 519.994091 200.685743 
L 520.755 202.487846 
L 521.515909 194.335451 
L 522.276818 191.417746 
L 523.037727 192.962415 
L 525.320455 202.058779 
L 526.081364 202.058779 
L 526.842273 205.491367 
L 527.603182 201.200628 
L 528.364091 194.936152 
L 530.646818 195.708486 
L 531.407727 197.338972 
L 532.168636 198.111306 
L 532.929545 196.566637 
L 533.690455 185.753971 
L 535.973182 187.470257 
L 536.734091 168.76263 
L 537.495 166.016559 
L 539.016818 172.452669 
L 541.299545 169.534964 
L 542.060455 168.161929 
L 542.821364 180.605081 
L 543.582273 177.172492 
L 544.343182 180.176013 
L 546.625909 184.209303 
L 547.386818 187.899341 
L 548.147727 198.197107 
L 548.908636 200.77156 
L 549.669545 198.62619 
L 551.952273 202.058779 
L 552.713182 201.200628 
L 553.474091 199.141075 
L 554.235 200.857377 
L 554.995909 201.715512 
L 557.278636 194.764518 
L 558.039545 191.33193 
L 559.561364 201.200628 
L 560.322273 207.636737 
L 562.605 204.289965 
L 563.365909 206.177885 
L 564.126818 202.65948 
L 564.887727 208.151621 
L 565.648636 207.894187 
L 567.931364 200.342476 
L 568.692273 210.039557 
L 569.453182 222.654326 
L 570.214091 217.934519 
L 570.975 214.158663 
L 573.257727 212.270744 
L 574.018636 214.759364 
L 574.779545 219.908255 
L 575.540455 225.82948 
L 578.584091 221.452924 
L 579.345 223.512477 
L 580.866818 230.720921 
L 581.627727 232.952107 
L 583.910455 212.013293 
L 584.671364 217.848702 
L 585.432273 214.072846 
L 586.193182 205.0623 
L 586.954091 206.521152 
L 589.236818 208.923956 
L 589.997727 210.468625 
L 590.758636 217.248001 
L 591.519545 214.50193 
L 592.280455 215.360065 
L 594.563182 223.255027 
L 596.085 232.523024 
L 596.845909 234.239326 
L 597.606818 230.892554 
L 599.889545 232.093956 
L 600.650455 236.470513 
L 601.411364 228.833001 
L 602.172273 225.657847 
L 602.933182 227.803217 
L 605.215909 225.057146 
L 607.498636 223.598294 
L 608.259545 224.370628 
L 610.542273 229.519519 
L 612.825 217.505435 
L 613.585909 215.188448 
L 615.868636 220.766406 
L 616.629545 216.6473 
L 617.390455 210.897708 
L 618.151364 207.980004 
L 618.912273 209.267223 
L 621.195 204.375782 
L 621.955909 204.633216 
L 622.716818 205.40555 
L 623.477727 203.689264 
L 624.238636 195.622669 
L 626.521364 195.021968 
L 627.282273 192.704965 
L 628.043182 193.048232 
L 628.804091 195.021968 
L 629.565 199.484342 
L 631.847727 216.6473 
L 632.608636 209.009772 
L 633.369545 215.874966 
L 634.130455 219.650805 
L 634.891364 214.24448 
L 637.174091 209.610473 
L 637.935 215.102631 
L 638.695909 217.333818 
L 639.456818 221.02384 
L 640.217727 230.635104 
L 642.500455 232.008139 
L 643.261364 228.146484 
L 644.022273 229.433702 
L 644.783182 225.31458 
L 645.544091 229.691136 
L 647.826818 229.433702 
L 648.587727 230.377654 
L 649.348636 220.93804 
L 650.109545 229.605319 
L 650.870455 227.97485 
L 655.435909 257.06606 
L 656.196818 256.122092 
L 658.479545 249.943432 
L 659.240455 256.293725 
L 660.001364 247.540612 
L 660.762273 260.412831 
L 661.523182 270.624796 
L 663.805909 296.455051 
L 664.566818 272.770166 
L 666.088636 307.1819 
L 666.088636 307.1819 
" style="fill:none;stroke:#d62728;stroke-linecap:square;stroke-width:1.5;"/>
   </g>
   <g id="line2d_20">
    <path clip-path="url(#pf0e74a7419)" d="M 57.361364 290.539996 
L 58.122273 292.976616 
L 58.883182 294.514967 
L 59.644091 293.873248 
L 61.926818 292.591627 
L 62.687727 290.027534 
L 63.448636 291.309974 
L 64.209545 288.232568 
L 64.970455 287.015077 
L 67.253182 285.925107 
L 68.014091 283.937655 
L 68.775 284.899283 
L 69.535909 287.206712 
L 70.296818 284.963495 
L 72.579545 286.822558 
L 73.340455 291.565787 
L 74.101364 291.309974 
L 74.862273 291.309974 
L 75.623182 290.604158 
L 77.905909 295.732393 
L 78.666818 297.079043 
L 79.427727 299.001483 
L 80.188636 300.283971 
L 80.949545 305.091362 
L 83.232273 306.693843 
L 83.993182 302.334767 
L 84.754091 304.129717 
L 85.515 308.424631 
L 86.275909 310.412083 
L 90.841364 300.860644 
L 91.602273 304.322236 
L 93.885 303.681385 
L 94.645909 303.809758 
L 95.406818 304.514689 
L 96.167727 303.553077 
L 96.928636 298.039854 
L 99.211364 296.053236 
L 100.733182 300.860644 
L 104.537727 305.0272 
L 105.298636 305.283865 
L 106.059545 306.24551 
L 106.820455 307.014686 
L 107.581364 303.488915 
L 109.864091 304.129717 
L 110.625 305.412222 
L 111.385909 303.168039 
L 112.146818 302.848096 
L 112.907727 302.20641 
L 115.190455 302.143116 
L 115.951364 303.29638 
L 116.712273 302.527253 
L 117.473182 302.20641 
L 118.234091 303.42472 
L 120.516818 305.557929 
L 121.277727 308.129649 
L 122.799545 305.557929 
L 125.843182 307.422589 
L 127.365 307.358215 
L 128.125909 307.936606 
L 128.886818 311.022343 
L 131.169545 313.980247 
L 131.930455 312.693945 
L 132.691364 311.986869 
L 133.452273 310.379642 
L 134.213182 309.15855 
L 136.495909 308.514965 
L 137.256818 307.872248 
L 138.017727 308.258398 
L 138.778636 306.651172 
L 139.539545 303.628926 
L 141.822273 304.208119 
L 142.583182 304.915211 
L 143.344091 308.000932 
L 144.105 301.147442 
L 144.865909 301.0639 
L 147.148636 302.317564 
L 148.670455 300.39524 
L 150.192273 307.165172 
L 152.475 309.505352 
L 153.235909 310.006864 
L 153.996818 309.338236 
L 154.757727 302.568288 
L 155.518636 302.233974 
L 157.801364 301.398197 
L 158.562273 295.464074 
L 159.323182 291.452243 
L 160.845 297.971485 
L 163.127727 301.0639 
L 163.888636 300.1445 
L 164.649545 300.311649 
L 165.410455 293.625307 
L 166.171364 294.628265 
L 169.215 305.74431 
L 169.975909 307.332337 
L 171.497727 308.418853 
L 173.780455 310.508343 
L 174.541364 313.851522 
L 175.302273 308.836757 
L 176.063182 313.600774 
L 176.824091 313.015737 
L 179.106818 316.609631 
L 179.867727 318.114076 
L 180.628636 320.454297 
L 181.389545 323.463146 
L 182.150455 319.033443 
L 184.433182 323.295981 
L 185.194091 323.797459 
L 185.955 322.209457 
L 186.715909 321.624403 
L 187.476818 321.875143 
L 190.520455 317.529031 
L 191.281364 319.534913 
L 192.042273 316.275325 
L 192.803182 315.105219 
L 195.085909 319.7201 
L 195.846818 316.871517 
L 196.607727 317.709347 
L 197.368636 317.039099 
L 198.129545 314.022942 
L 201.173182 308.493408 
L 201.934091 310.085217 
L 202.695 308.074473 
L 205.738636 304.807003 
L 206.499545 298.52341 
L 208.021364 293.580296 
L 208.782273 294.669463 
L 211.065 292.377192 
L 211.825909 291.030738 
L 212.586818 291.872276 
L 213.347727 294.649331 
L 214.108636 295.659163 
L 216.391364 294.396856 
L 217.152273 295.154247 
L 217.913182 296.837339 
L 218.674091 299.782672 
L 219.435 298.352054 
L 221.717727 297.342239 
L 222.478636 294.985952 
L 223.239545 298.352054 
L 224.000455 298.941134 
L 224.761364 305.084308 
L 227.044091 302.559727 
L 227.805 303.064643 
L 229.326818 301.970615 
L 230.087727 303.65369 
L 232.370455 304.158623 
L 233.131364 303.65369 
L 233.892273 300.540046 
L 234.653182 300.455883 
L 235.414091 302.138942 
L 237.696818 299.446067 
L 238.457727 295.322541 
L 239.218636 293.134566 
L 239.979545 292.377192 
L 240.740455 289.852595 
L 243.023182 292.713797 
L 243.784091 293.976087 
L 244.545 294.649331 
L 245.305909 286.907229 
L 248.349545 286.402296 
L 249.110455 290.189184 
L 249.871364 292.713797 
L 250.632273 293.218697 
L 251.393182 289.347678 
L 253.675909 288.506141 
L 255.197727 291.114885 
L 255.958636 290.273364 
L 256.719545 287.243818 
L 259.002273 288.261686 
L 259.763182 286.406585 
L 260.524091 284.97307 
L 261.285 283.117952 
L 262.045909 284.382812 
L 264.328636 286.575206 
L 265.089545 284.467139 
L 266.611364 289.779496 
L 267.372273 289.863839 
L 269.655 290.285459 
L 270.415909 296.609711 
L 271.176818 295.766471 
L 271.937727 295.513489 
L 274.981364 296.609711 
L 275.742273 292.815147 
L 276.503182 293.658371 
L 277.264091 295.682143 
L 278.025 294.080023 
L 280.307727 293.658371 
L 281.068636 289.020616 
L 281.829545 287.755739 
L 282.590455 290.622752 
L 283.351364 298.464845 
L 285.634091 303.355566 
L 286.395 296.609711 
L 287.155909 299.139415 
L 287.916818 297.452918 
L 290.960455 293.152456 
L 291.721364 293.236783 
L 292.482273 291.887612 
L 293.243182 294.080023 
L 294.004091 294.080023 
L 296.286818 295.344867 
L 297.047727 298.043225 
L 297.808636 295.597833 
L 299.330455 294.50166 
L 303.135 299.476691 
L 303.895909 302.343704 
L 304.656818 301.837757 
L 306.939545 301.331826 
L 307.700455 298.717811 
L 308.461364 297.958898 
L 309.222273 297.368624 
L 309.983182 300.657257 
L 312.265909 299.476691 
L 313.026818 298.802105 
L 313.787727 300.404291 
L 314.548636 300.572897 
L 315.309545 301.753429 
L 317.592273 305.800992 
L 318.353182 304.198822 
L 319.114091 305.042079 
L 319.875 304.451788 
L 320.635909 304.620442 
L 322.918636 308.246352 
L 323.679545 309.005264 
L 324.440455 306.728526 
L 325.201364 305.463666 
L 325.962273 304.704786 
L 329.766818 307.145498 
L 330.527727 306.046019 
L 331.288636 302.578468 
L 335.093182 298.857216 
L 335.854091 295.389682 
L 336.615 293.613621 
L 338.897727 296.066281 
L 339.658636 297.334889 
L 340.419545 295.643401 
L 341.180455 294.459349 
L 341.941364 292.852433 
L 344.224091 291.076388 
L 344.985 294.205647 
L 345.745909 290.907258 
L 347.267727 292.767876 
L 349.550455 291.75297 
L 350.311364 293.951896 
L 351.072273 292.17585 
L 351.833182 291.75297 
L 355.637727 288.454582 
L 356.398636 286.678504 
L 357.159545 291.583824 
L 357.920455 284.902459 
L 360.203182 284.310433 
L 360.964091 281.350352 
L 361.725 287.355119 
L 363.246818 290.230643 
L 365.529545 291.160961 
L 366.290455 291.330106 
L 367.051364 293.106168 
L 367.812273 291.583824 
L 370.855909 289.554028 
L 371.616818 286.932271 
L 372.377727 292.006688 
L 373.138636 291.245533 
L 373.899545 289.807779 
L 376.182273 294.797673 
L 376.943182 295.897103 
L 377.704091 293.782766 
L 378.465 295.135948 
L 379.225909 295.81253 
L 383.791364 294.290187 
L 384.552273 291.922116 
L 386.835 290.399789 
L 387.595909 290.146071 
L 388.356818 288.7083 
L 389.117727 289.469472 
L 389.878636 288.031718 
L 392.161364 289.469472 
L 392.922273 289.469472 
L 393.683182 292.260423 
L 394.444091 293.951896 
L 395.205 296.827436 
L 398.248636 298.129713 
L 399.009545 302.962737 
L 399.770455 297.875357 
L 400.531364 298.299284 
L 402.814091 297.705753 
L 403.575 296.17953 
L 404.335909 294.314149 
L 405.096818 291.431276 
L 405.857727 289.226753 
L 408.140455 291.940022 
L 408.901364 293.974991 
L 409.662273 295.501213 
L 410.423182 296.349134 
L 411.184091 296.264332 
L 413.466818 294.907681 
L 414.227727 291.940022 
L 414.988636 293.974991 
L 415.749545 292.957498 
L 418.793182 291.940022 
L 419.554091 287.70053 
L 420.315 291.516078 
L 421.075909 289.39634 
L 421.836818 289.141951 
L 424.119545 291.940022 
L 424.880455 293.381459 
L 426.402273 291.770451 
L 427.163182 292.787943 
L 429.445909 295.246856 
L 430.206818 297.112221 
L 430.967727 293.127086 
L 431.728636 293.635816 
L 432.489545 294.653308 
L 434.772273 298.299284 
L 435.533182 298.214499 
L 437.055 298.299284 
L 437.815909 297.197023 
L 440.098636 294.22938 
L 440.859545 291.516078 
L 441.620455 291.770451 
L 443.142273 296.688277 
L 445.425 295.840372 
L 446.185909 291.092117 
L 446.946818 289.057165 
L 447.707727 289.311522 
L 448.468636 289.39634 
L 450.751364 288.633221 
L 452.273182 290.752975 
L 453.034091 290.752975 
L 453.795 288.124475 
L 456.077727 287.870101 
L 456.838636 286.683022 
L 458.360455 281.341235 
L 459.121364 281.934783 
L 461.404091 278.797553 
L 462.165 275.91468 
L 462.925909 271.420815 
L 464.447727 269.216259 
L 466.730455 267.94441 
L 467.491364 271.420815 
L 468.252273 271.59037 
L 469.013182 269.809791 
L 469.774091 269.809791 
L 472.056818 267.576329 
L 472.817727 267.746244 
L 473.578636 266.556774 
L 474.339545 262.308755 
L 475.100455 260.60954 
L 477.383182 259.505036 
L 478.905 249.64958 
L 479.665909 250.414222 
L 480.426818 254.747239 
L 482.709545 260.60954 
L 483.470455 259.674968 
L 484.231364 259.505036 
L 484.992273 257.635907 
L 485.753182 257.296061 
L 488.035909 258.91031 
L 488.796818 259.080241 
L 489.557727 255.511897 
L 490.318636 257.296061 
L 491.079545 252.453282 
L 493.362273 249.817089 
L 494.123182 246.235078 
L 494.884091 247.770221 
L 495.645 251.096369 
L 496.405909 248.452516 
L 498.688636 252.205112 
L 499.449545 247.087926 
L 500.210455 243.591208 
L 500.971364 242.482498 
L 501.732273 244.699919 
L 504.015 248.367223 
L 504.775909 243.847055 
L 505.536818 253.996118 
L 506.297727 260.307275 
L 507.058636 256.469402 
L 509.341364 258.686823 
L 510.102273 258.175114 
L 510.863182 254.25198 
L 511.624091 257.06642 
L 512.385 261.416002 
L 514.667727 267.130173 
L 515.428636 266.021447 
L 516.189545 262.524696 
L 516.950455 259.880859 
L 517.711364 259.027995 
L 519.994091 256.639971 
L 520.755 261.671848 
L 521.515909 257.919284 
L 522.276818 256.639971 
L 523.037727 256.128246 
L 525.320455 258.3457 
L 526.081364 255.360675 
L 526.842273 254.081394 
L 527.603182 254.337257 
L 528.364091 248.623085 
L 530.646818 252.716805 
L 531.407727 247.940807 
L 532.168636 246.235078 
L 532.929545 248.878931 
L 533.690455 242.823637 
L 535.973182 244.182956 
L 536.734091 246.916702 
L 537.495 243.84126 
L 538.255909 243.84126 
L 539.016818 244.780973 
L 541.299545 243.926684 
L 542.060455 243.926684 
L 542.821364 247.343854 
L 543.582273 248.625295 
L 544.343182 249.223279 
L 546.625909 255.715906 
L 547.386818 256.057635 
L 548.147727 255.545042 
L 548.908636 254.69077 
L 549.669545 248.710719 
L 552.713182 247.770974 
L 553.474091 242.730651 
L 554.235 243.84126 
L 554.995909 242.816091 
L 557.278636 242.132667 
L 558.039545 239.569786 
L 558.800455 230.172564 
L 559.561364 227.951411 
L 560.322273 233.846022 
L 562.605 232.393734 
L 563.365909 232.906294 
L 564.126818 230.08714 
L 564.887727 233.077158 
L 565.648636 229.830852 
L 567.931364 227.69514 
L 568.692273 222.483936 
L 569.453182 218.810478 
L 570.214091 210.950986 
L 570.975 209.669561 
L 573.257727 202.408069 
L 574.018636 207.448392 
L 574.779545 201.382933 
L 575.540455 200.955781 
L 578.584091 200.614068 
L 579.345 201.468357 
L 580.866818 204.202103 
L 581.627727 202.664357 
L 583.910455 202.322645 
L 584.671364 206.337832 
L 586.193182 199.503476 
L 586.954091 191.045983 
L 589.236818 193.267152 
L 589.997727 188.568558 
L 591.519545 170.9701 
L 592.280455 171.226388 
L 594.563182 178.317032 
L 595.324091 177.804472 
L 596.085 168.407251 
L 596.845909 162.170928 
L 597.606818 160.035182 
L 599.889545 164.819184 
L 600.650455 160.804047 
L 601.411364 161.31659 
L 602.172273 163.879504 
L 602.933182 161.402063 
L 605.215909 161.930287 
L 607.498636 152.864581 
L 608.259545 148.673816 
L 610.542273 154.48955 
L 612.825 149.52907 
L 613.585909 153.377714 
L 615.868636 152.607998 
L 616.629545 150.298786 
L 617.390455 161.673737 
L 618.151364 165.950008 
L 618.912273 160.134273 
L 621.195 157.397434 
L 621.955909 151.5817 
L 622.716818 149.614609 
L 623.477727 144.140963 
L 624.238636 136.187061 
L 626.521364 126.52265 
L 627.282273 130.285788 
L 628.043182 118.226659 
L 628.804091 111.812221 
L 629.565 96.588659 
L 631.847727 100.522841 
L 632.608636 91.628179 
L 633.369545 88.378206 
L 634.891364 113.86485 
L 637.174091 103.088636 
L 637.935 104.371484 
L 638.695909 97.101824 
L 639.456818 84.52953 
L 640.217727 99.411037 
L 642.500455 95.733405 
L 644.022273 69.819101 
L 644.783182 61.181022 
L 645.544091 61.181022 
L 647.826818 59.384975 
L 648.587727 68.621758 
L 649.348636 33.385166 
L 650.109545 44.760052 
L 650.870455 25.003636 
L 656.196818 80.630834 
L 658.479545 47.677952 
L 659.240455 39.697207 
L 660.001364 35.0632 
L 660.762273 50.166589 
L 661.523182 73.164956 
L 663.805909 109.807877 
L 664.566818 91.271883 
L 665.327727 114.527684 
L 666.088636 167.732862 
L 666.088636 167.732862 
" style="fill:none;stroke:#9467bd;stroke-linecap:square;stroke-width:1.5;"/>
   </g>
   <g id="patch_3">
    <path d="M 26.925 398.88 
L 26.925 7.2 
" style="fill:none;stroke:#000000;stroke-linecap:square;stroke-linejoin:miter;stroke-width:0.8;"/>
   </g>
   <g id="patch_4">
    <path d="M 696.525 398.88 
L 696.525 7.2 
" style="fill:none;stroke:#000000;stroke-linecap:square;stroke-linejoin:miter;stroke-width:0.8;"/>
   </g>
   <g id="patch_5">
    <path d="M 26.925 398.88 
L 696.525 398.88 
" style="fill:none;stroke:#000000;stroke-linecap:square;stroke-linejoin:miter;stroke-width:0.8;"/>
   </g>
   <g id="patch_6">
    <path d="M 26.925 7.2 
L 696.525 7.2 
" style="fill:none;stroke:#000000;stroke-linecap:square;stroke-linejoin:miter;stroke-width:0.8;"/>
   </g>
   <g id="legend_1">
    <g id="patch_7">
     <path d="M 33.925 88.590625 
L 118.929688 88.590625 
Q 120.929688 88.590625 120.929688 86.590625 
L 120.929688 14.2 
Q 120.929688 12.2 118.929688 12.2 
L 33.925 12.2 
Q 31.925 12.2 31.925 14.2 
L 31.925 86.590625 
Q 31.925 88.590625 33.925 88.590625 
z
" style="fill:#ffffff;opacity:0.8;stroke:#cccccc;stroke-linejoin:miter;"/>
    </g>
    <g id="line2d_21">
     <path d="M 35.925 20.298437 
L 55.925 20.298437 
" style="fill:none;stroke:#1f77b4;stroke-linecap:square;stroke-width:1.5;"/>
    </g>
    <g id="line2d_22"/>
    <g id="text_17">
     <!-- GOLL4.SA -->
     <defs>
      <path d="M 59.515625 10.40625 
L 59.515625 29.984375 
L 43.40625 29.984375 
L 43.40625 38.09375 
L 69.28125 38.09375 
L 69.28125 6.78125 
Q 63.578125 2.734375 56.6875 0.65625 
Q 49.8125 -1.421875 42 -1.421875 
Q 24.90625 -1.421875 15.25 8.5625 
Q 5.609375 18.5625 5.609375 36.375 
Q 5.609375 54.25 15.25 64.234375 
Q 24.90625 74.21875 42 74.21875 
Q 49.125 74.21875 55.546875 72.453125 
Q 61.96875 70.703125 67.390625 67.28125 
L 67.390625 56.78125 
Q 61.921875 61.421875 55.765625 63.765625 
Q 49.609375 66.109375 42.828125 66.109375 
Q 29.4375 66.109375 22.71875 58.640625 
Q 16.015625 51.171875 16.015625 36.375 
Q 16.015625 21.625 22.71875 14.15625 
Q 29.4375 6.6875 42.828125 6.6875 
Q 48.046875 6.6875 52.140625 7.59375 
Q 56.25 8.5 59.515625 10.40625 
z
" id="DejaVuSans-71"/>
      <path d="M 39.40625 66.21875 
Q 28.65625 66.21875 22.328125 58.203125 
Q 16.015625 50.203125 16.015625 36.375 
Q 16.015625 22.609375 22.328125 14.59375 
Q 28.65625 6.59375 39.40625 6.59375 
Q 50.140625 6.59375 56.421875 14.59375 
Q 62.703125 22.609375 62.703125 36.375 
Q 62.703125 50.203125 56.421875 58.203125 
Q 50.140625 66.21875 39.40625 66.21875 
z
M 39.40625 74.21875 
Q 54.734375 74.21875 63.90625 63.9375 
Q 73.09375 53.65625 73.09375 36.375 
Q 73.09375 19.140625 63.90625 8.859375 
Q 54.734375 -1.421875 39.40625 -1.421875 
Q 24.03125 -1.421875 14.8125 8.828125 
Q 5.609375 19.09375 5.609375 36.375 
Q 5.609375 53.65625 14.8125 63.9375 
Q 24.03125 74.21875 39.40625 74.21875 
z
" id="DejaVuSans-79"/>
      <path d="M 9.8125 72.90625 
L 19.671875 72.90625 
L 19.671875 8.296875 
L 55.171875 8.296875 
L 55.171875 0 
L 9.8125 0 
z
" id="DejaVuSans-76"/>
      <path d="M 10.6875 12.40625 
L 21 12.40625 
L 21 0 
L 10.6875 0 
z
" id="DejaVuSans-46"/>
      <path d="M 53.515625 70.515625 
L 53.515625 60.890625 
Q 47.90625 63.578125 42.921875 64.890625 
Q 37.9375 66.21875 33.296875 66.21875 
Q 25.25 66.21875 20.875 63.09375 
Q 16.5 59.96875 16.5 54.203125 
Q 16.5 49.359375 19.40625 46.890625 
Q 22.3125 44.4375 30.421875 42.921875 
L 36.375 41.703125 
Q 47.40625 39.59375 52.65625 34.296875 
Q 57.90625 29 57.90625 20.125 
Q 57.90625 9.515625 50.796875 4.046875 
Q 43.703125 -1.421875 29.984375 -1.421875 
Q 24.8125 -1.421875 18.96875 -0.25 
Q 13.140625 0.921875 6.890625 3.21875 
L 6.890625 13.375 
Q 12.890625 10.015625 18.65625 8.296875 
Q 24.421875 6.59375 29.984375 6.59375 
Q 38.421875 6.59375 43.015625 9.90625 
Q 47.609375 13.234375 47.609375 19.390625 
Q 47.609375 24.75 44.3125 27.78125 
Q 41.015625 30.8125 33.5 32.328125 
L 27.484375 33.5 
Q 16.453125 35.6875 11.515625 40.375 
Q 6.59375 45.0625 6.59375 53.421875 
Q 6.59375 63.09375 13.40625 68.65625 
Q 20.21875 74.21875 32.171875 74.21875 
Q 37.3125 74.21875 42.625 73.28125 
Q 47.953125 72.359375 53.515625 70.515625 
z
" id="DejaVuSans-83"/>
      <path d="M 34.1875 63.1875 
L 20.796875 26.90625 
L 47.609375 26.90625 
z
M 28.609375 72.90625 
L 39.796875 72.90625 
L 67.578125 0 
L 57.328125 0 
L 50.6875 18.703125 
L 17.828125 18.703125 
L 11.1875 0 
L 0.78125 0 
z
" id="DejaVuSans-65"/>
     </defs>
     <g transform="translate(63.925 23.798437)scale(0.1 -0.1)">
      <use xlink:href="#DejaVuSans-71"/>
      <use x="77.490234" xlink:href="#DejaVuSans-79"/>
      <use x="156.201172" xlink:href="#DejaVuSans-76"/>
      <use x="211.914062" xlink:href="#DejaVuSans-76"/>
      <use x="267.626953" xlink:href="#DejaVuSans-52"/>
      <use x="331.25" xlink:href="#DejaVuSans-46"/>
      <use x="363.037109" xlink:href="#DejaVuSans-83"/>
      <use x="426.529297" xlink:href="#DejaVuSans-65"/>
     </g>
    </g>
    <g id="line2d_23">
     <path d="M 35.925 34.976562 
L 55.925 34.976562 
" style="fill:none;stroke:#ff7f0e;stroke-linecap:square;stroke-width:1.5;"/>
    </g>
    <g id="line2d_24"/>
    <g id="text_18">
     <!-- PETR4.SA -->
     <defs>
      <path d="M 19.671875 64.796875 
L 19.671875 37.40625 
L 32.078125 37.40625 
Q 38.96875 37.40625 42.71875 40.96875 
Q 46.484375 44.53125 46.484375 51.125 
Q 46.484375 57.671875 42.71875 61.234375 
Q 38.96875 64.796875 32.078125 64.796875 
z
M 9.8125 72.90625 
L 32.078125 72.90625 
Q 44.34375 72.90625 50.609375 67.359375 
Q 56.890625 61.8125 56.890625 51.125 
Q 56.890625 40.328125 50.609375 34.8125 
Q 44.34375 29.296875 32.078125 29.296875 
L 19.671875 29.296875 
L 19.671875 0 
L 9.8125 0 
z
" id="DejaVuSans-80"/>
      <path d="M 9.8125 72.90625 
L 55.90625 72.90625 
L 55.90625 64.59375 
L 19.671875 64.59375 
L 19.671875 43.015625 
L 54.390625 43.015625 
L 54.390625 34.71875 
L 19.671875 34.71875 
L 19.671875 8.296875 
L 56.78125 8.296875 
L 56.78125 0 
L 9.8125 0 
z
" id="DejaVuSans-69"/>
      <path d="M -0.296875 72.90625 
L 61.375 72.90625 
L 61.375 64.59375 
L 35.5 64.59375 
L 35.5 0 
L 25.59375 0 
L 25.59375 64.59375 
L -0.296875 64.59375 
z
" id="DejaVuSans-84"/>
      <path d="M 44.390625 34.1875 
Q 47.5625 33.109375 50.5625 29.59375 
Q 53.5625 26.078125 56.59375 19.921875 
L 66.609375 0 
L 56 0 
L 46.6875 18.703125 
Q 43.0625 26.03125 39.671875 28.421875 
Q 36.28125 30.8125 30.421875 30.8125 
L 19.671875 30.8125 
L 19.671875 0 
L 9.8125 0 
L 9.8125 72.90625 
L 32.078125 72.90625 
Q 44.578125 72.90625 50.734375 67.671875 
Q 56.890625 62.453125 56.890625 51.90625 
Q 56.890625 45.015625 53.6875 40.46875 
Q 50.484375 35.9375 44.390625 34.1875 
z
M 19.671875 64.796875 
L 19.671875 38.921875 
L 32.078125 38.921875 
Q 39.203125 38.921875 42.84375 42.21875 
Q 46.484375 45.515625 46.484375 51.90625 
Q 46.484375 58.296875 42.84375 61.546875 
Q 39.203125 64.796875 32.078125 64.796875 
z
" id="DejaVuSans-82"/>
     </defs>
     <g transform="translate(63.925 38.476562)scale(0.1 -0.1)">
      <use xlink:href="#DejaVuSans-80"/>
      <use x="60.302734" xlink:href="#DejaVuSans-69"/>
      <use x="123.486328" xlink:href="#DejaVuSans-84"/>
      <use x="184.570312" xlink:href="#DejaVuSans-82"/>
      <use x="254.052734" xlink:href="#DejaVuSans-52"/>
      <use x="317.675781" xlink:href="#DejaVuSans-46"/>
      <use x="349.462891" xlink:href="#DejaVuSans-83"/>
      <use x="412.955078" xlink:href="#DejaVuSans-65"/>
     </g>
    </g>
    <g id="line2d_25">
     <path d="M 35.925 49.654687 
L 55.925 49.654687 
" style="fill:none;stroke:#2ca02c;stroke-linecap:square;stroke-width:1.5;"/>
    </g>
    <g id="line2d_26"/>
    <g id="text_19">
     <!-- GGBR4.SA -->
     <defs>
      <path d="M 19.671875 34.8125 
L 19.671875 8.109375 
L 35.5 8.109375 
Q 43.453125 8.109375 47.28125 11.40625 
Q 51.125 14.703125 51.125 21.484375 
Q 51.125 28.328125 47.28125 31.5625 
Q 43.453125 34.8125 35.5 34.8125 
z
M 19.671875 64.796875 
L 19.671875 42.828125 
L 34.28125 42.828125 
Q 41.5 42.828125 45.03125 45.53125 
Q 48.578125 48.25 48.578125 53.8125 
Q 48.578125 59.328125 45.03125 62.0625 
Q 41.5 64.796875 34.28125 64.796875 
z
M 9.8125 72.90625 
L 35.015625 72.90625 
Q 46.296875 72.90625 52.390625 68.21875 
Q 58.5 63.53125 58.5 54.890625 
Q 58.5 48.1875 55.375 44.234375 
Q 52.25 40.28125 46.1875 39.3125 
Q 53.46875 37.75 57.5 32.78125 
Q 61.53125 27.828125 61.53125 20.40625 
Q 61.53125 10.640625 54.890625 5.3125 
Q 48.25 0 35.984375 0 
L 9.8125 0 
z
" id="DejaVuSans-66"/>
     </defs>
     <g transform="translate(63.925 53.154687)scale(0.1 -0.1)">
      <use xlink:href="#DejaVuSans-71"/>
      <use x="77.490234" xlink:href="#DejaVuSans-71"/>
      <use x="154.980469" xlink:href="#DejaVuSans-66"/>
      <use x="223.583984" xlink:href="#DejaVuSans-82"/>
      <use x="293.066406" xlink:href="#DejaVuSans-52"/>
      <use x="356.689453" xlink:href="#DejaVuSans-46"/>
      <use x="388.476562" xlink:href="#DejaVuSans-83"/>
      <use x="451.96875" xlink:href="#DejaVuSans-65"/>
     </g>
    </g>
    <g id="line2d_27">
     <path d="M 35.925 64.332812 
L 55.925 64.332812 
" style="fill:none;stroke:#d62728;stroke-linecap:square;stroke-width:1.5;"/>
    </g>
    <g id="line2d_28"/>
    <g id="text_20">
     <!-- JBSS3.SA -->
     <defs>
      <path d="M 9.8125 72.90625 
L 19.671875 72.90625 
L 19.671875 5.078125 
Q 19.671875 -8.109375 14.671875 -14.0625 
Q 9.671875 -20.015625 -1.421875 -20.015625 
L -5.171875 -20.015625 
L -5.171875 -11.71875 
L -2.09375 -11.71875 
Q 4.4375 -11.71875 7.125 -8.046875 
Q 9.8125 -4.390625 9.8125 5.078125 
z
" id="DejaVuSans-74"/>
     </defs>
     <g transform="translate(63.925 67.832812)scale(0.1 -0.1)">
      <use xlink:href="#DejaVuSans-74"/>
      <use x="29.492188" xlink:href="#DejaVuSans-66"/>
      <use x="98.080078" xlink:href="#DejaVuSans-83"/>
      <use x="161.556641" xlink:href="#DejaVuSans-83"/>
      <use x="225.033203" xlink:href="#DejaVuSans-51"/>
      <use x="288.65625" xlink:href="#DejaVuSans-46"/>
      <use x="320.443359" xlink:href="#DejaVuSans-83"/>
      <use x="383.935547" xlink:href="#DejaVuSans-65"/>
     </g>
    </g>
    <g id="line2d_29">
     <path d="M 35.925 79.010937 
L 55.925 79.010937 
" style="fill:none;stroke:#9467bd;stroke-linecap:square;stroke-width:1.5;"/>
    </g>
    <g id="line2d_30"/>
    <g id="text_21">
     <!-- WEGE3.SA -->
     <defs>
      <path d="M 3.328125 72.90625 
L 13.28125 72.90625 
L 28.609375 11.28125 
L 43.890625 72.90625 
L 54.984375 72.90625 
L 70.3125 11.28125 
L 85.59375 72.90625 
L 95.609375 72.90625 
L 77.296875 0 
L 64.890625 0 
L 49.515625 63.28125 
L 33.984375 0 
L 21.578125 0 
z
" id="DejaVuSans-87"/>
     </defs>
     <g transform="translate(63.925 82.510937)scale(0.1 -0.1)">
      <use xlink:href="#DejaVuSans-87"/>
      <use x="98.876953" xlink:href="#DejaVuSans-69"/>
      <use x="162.060547" xlink:href="#DejaVuSans-71"/>
      <use x="239.550781" xlink:href="#DejaVuSans-69"/>
      <use x="302.734375" xlink:href="#DejaVuSans-51"/>
      <use x="366.357422" xlink:href="#DejaVuSans-46"/>
      <use x="398.144531" xlink:href="#DejaVuSans-83"/>
      <use x="461.636719" xlink:href="#DejaVuSans-65"/>
     </g>
    </g>
   </g>
  </g>
 </g>
 <defs>
  <clipPath id="pf0e74a7419">
   <rect height="391.68" width="669.6" x="26.925" y="7.2"/>
  </clipPath>
 </defs>
</svg>
