<?xml version="1.0" encoding="utf-8" standalone="no"?>
<!DOCTYPE svg PUBLIC "-//W3C//DTD SVG 1.1//EN"
  "http://www.w3.org/Graphics/SVG/1.1/DTD/svg11.dtd">
<!-- Created with matplotlib (https://matplotlib.org/) -->
<svg height="456.031033pt" version="1.1" viewBox="0 0 710.0875 456.031033" width="710.0875pt" xmlns="http://www.w3.org/2000/svg" xmlns:xlink="http://www.w3.org/1999/xlink">
 <defs>
  <style type="text/css">
*{stroke-linecap:butt;stroke-linejoin:round;}
  </style>
 </defs>
 <g id="figure_1">
  <g id="patch_1">
   <path d="M 0 456.031033 
L 710.0875 456.031033 
L 710.0875 0 
L 0 0 
z
" style="fill:none;"/>
  </g>
  <g id="axes_1">
   <g id="patch_2">
    <path d="M 33.2875 398.88 
L 702.8875 398.88 
L 702.8875 7.2 
L 33.2875 7.2 
z
" style="fill:#ffffff;"/>
   </g>
   <g id="matplotlib.axis_1">
    <g id="xtick_1">
     <g id="line2d_1">
      <defs>
       <path d="M 0 0 
L 0 3.5 
" id="m738b2e4678" style="stroke:#000000;stroke-width:0.8;"/>
      </defs>
      <g>
       <use style="stroke:#000000;stroke-width:0.8;" x="62.962955" xlink:href="#m738b2e4678" y="398.88"/>
      </g>
     </g>
     <g id="text_1">
      <!-- 2018-01 -->
      <defs>
       <path d="M 19.1875 8.296875 
L 53.609375 8.296875 
L 53.609375 0 
L 7.328125 0 
L 7.328125 8.296875 
Q 12.9375 14.109375 22.625 23.890625 
Q 32.328125 33.6875 34.8125 36.53125 
Q 39.546875 41.84375 41.421875 45.53125 
Q 43.3125 49.21875 43.3125 52.78125 
Q 43.3125 58.59375 39.234375 62.25 
Q 35.15625 65.921875 28.609375 65.921875 
Q 23.96875 65.921875 18.8125 64.3125 
Q 13.671875 62.703125 7.8125 59.421875 
L 7.8125 69.390625 
Q 13.765625 71.78125 18.9375 73 
Q 24.125 74.21875 28.421875 74.21875 
Q 39.75 74.21875 46.484375 68.546875 
Q 53.21875 62.890625 53.21875 53.421875 
Q 53.21875 48.921875 51.53125 44.890625 
Q 49.859375 40.875 45.40625 35.40625 
Q 44.1875 33.984375 37.640625 27.21875 
Q 31.109375 20.453125 19.1875 8.296875 
z
" id="DejaVuSans-50"/>
       <path d="M 31.78125 66.40625 
Q 24.171875 66.40625 20.328125 58.90625 
Q 16.5 51.421875 16.5 36.375 
Q 16.5 21.390625 20.328125 13.890625 
Q 24.171875 6.390625 31.78125 6.390625 
Q 39.453125 6.390625 43.28125 13.890625 
Q 47.125 21.390625 47.125 36.375 
Q 47.125 51.421875 43.28125 58.90625 
Q 39.453125 66.40625 31.78125 66.40625 
z
M 31.78125 74.21875 
Q 44.046875 74.21875 50.515625 64.515625 
Q 56.984375 54.828125 56.984375 36.375 
Q 56.984375 17.96875 50.515625 8.265625 
Q 44.046875 -1.421875 31.78125 -1.421875 
Q 19.53125 -1.421875 13.0625 8.265625 
Q 6.59375 17.96875 6.59375 36.375 
Q 6.59375 54.828125 13.0625 64.515625 
Q 19.53125 74.21875 31.78125 74.21875 
z
" id="DejaVuSans-48"/>
       <path d="M 12.40625 8.296875 
L 28.515625 8.296875 
L 28.515625 63.921875 
L 10.984375 60.40625 
L 10.984375 69.390625 
L 28.421875 72.90625 
L 38.28125 72.90625 
L 38.28125 8.296875 
L 54.390625 8.296875 
L 54.390625 0 
L 12.40625 0 
z
" id="DejaVuSans-49"/>
       <path d="M 31.78125 34.625 
Q 24.75 34.625 20.71875 30.859375 
Q 16.703125 27.09375 16.703125 20.515625 
Q 16.703125 13.921875 20.71875 10.15625 
Q 24.75 6.390625 31.78125 6.390625 
Q 38.8125 6.390625 42.859375 10.171875 
Q 46.921875 13.96875 46.921875 20.515625 
Q 46.921875 27.09375 42.890625 30.859375 
Q 38.875 34.625 31.78125 34.625 
z
M 21.921875 38.8125 
Q 15.578125 40.375 12.03125 44.71875 
Q 8.5 49.078125 8.5 55.328125 
Q 8.5 64.0625 14.71875 69.140625 
Q 20.953125 74.21875 31.78125 74.21875 
Q 42.671875 74.21875 48.875 69.140625 
Q 55.078125 64.0625 55.078125 55.328125 
Q 55.078125 49.078125 51.53125 44.71875 
Q 48 40.375 41.703125 38.8125 
Q 48.828125 37.15625 52.796875 32.3125 
Q 56.78125 27.484375 56.78125 20.515625 
Q 56.78125 9.90625 50.3125 4.234375 
Q 43.84375 -1.421875 31.78125 -1.421875 
Q 19.734375 -1.421875 13.25 4.234375 
Q 6.78125 9.90625 6.78125 20.515625 
Q 6.78125 27.484375 10.78125 32.3125 
Q 14.796875 37.15625 21.921875 38.8125 
z
M 18.3125 54.390625 
Q 18.3125 48.734375 21.84375 45.5625 
Q 25.390625 42.390625 31.78125 42.390625 
Q 38.140625 42.390625 41.71875 45.5625 
Q 45.3125 48.734375 45.3125 54.390625 
Q 45.3125 60.0625 41.71875 63.234375 
Q 38.140625 66.40625 31.78125 66.40625 
Q 25.390625 66.40625 21.84375 63.234375 
Q 18.3125 60.0625 18.3125 54.390625 
z
" id="DejaVuSans-56"/>
       <path d="M 4.890625 31.390625 
L 31.203125 31.390625 
L 31.203125 23.390625 
L 4.890625 23.390625 
z
" id="DejaVuSans-45"/>
      </defs>
      <g transform="translate(25.738134 433.351846)rotate(-30)scale(0.1 -0.1)">
       <use xlink:href="#DejaVuSans-50"/>
       <use x="63.623047" xlink:href="#DejaVuSans-48"/>
       <use x="127.246094" xlink:href="#DejaVuSans-49"/>
       <use x="190.869141" xlink:href="#DejaVuSans-56"/>
       <use x="254.492188" xlink:href="#DejaVuSans-45"/>
       <use x="290.576172" xlink:href="#DejaVuSans-48"/>
       <use x="354.199219" xlink:href="#DejaVuSans-49"/>
      </g>
     </g>
    </g>
    <g id="xtick_2">
     <g id="line2d_2">
      <g>
       <use style="stroke:#000000;stroke-width:0.8;" x="131.444773" xlink:href="#m738b2e4678" y="398.88"/>
      </g>
     </g>
     <g id="text_2">
      <!-- 2018-04 -->
      <defs>
       <path d="M 37.796875 64.3125 
L 12.890625 25.390625 
L 37.796875 25.390625 
z
M 35.203125 72.90625 
L 47.609375 72.90625 
L 47.609375 25.390625 
L 58.015625 25.390625 
L 58.015625 17.1875 
L 47.609375 17.1875 
L 47.609375 0 
L 37.796875 0 
L 37.796875 17.1875 
L 4.890625 17.1875 
L 4.890625 26.703125 
z
" id="DejaVuSans-52"/>
      </defs>
      <g transform="translate(94.219952 433.351846)rotate(-30)scale(0.1 -0.1)">
       <use xlink:href="#DejaVuSans-50"/>
       <use x="63.623047" xlink:href="#DejaVuSans-48"/>
       <use x="127.246094" xlink:href="#DejaVuSans-49"/>
       <use x="190.869141" xlink:href="#DejaVuSans-56"/>
       <use x="254.492188" xlink:href="#DejaVuSans-45"/>
       <use x="290.576172" xlink:href="#DejaVuSans-48"/>
       <use x="354.199219" xlink:href="#DejaVuSans-52"/>
      </g>
     </g>
    </g>
    <g id="xtick_3">
     <g id="line2d_3">
      <g>
       <use style="stroke:#000000;stroke-width:0.8;" x="200.6875" xlink:href="#m738b2e4678" y="398.88"/>
      </g>
     </g>
     <g id="text_3">
      <!-- 2018-07 -->
      <defs>
       <path d="M 8.203125 72.90625 
L 55.078125 72.90625 
L 55.078125 68.703125 
L 28.609375 0 
L 18.3125 0 
L 43.21875 64.59375 
L 8.203125 64.59375 
z
" id="DejaVuSans-55"/>
      </defs>
      <g transform="translate(163.462679 433.351846)rotate(-30)scale(0.1 -0.1)">
       <use xlink:href="#DejaVuSans-50"/>
       <use x="63.623047" xlink:href="#DejaVuSans-48"/>
       <use x="127.246094" xlink:href="#DejaVuSans-49"/>
       <use x="190.869141" xlink:href="#DejaVuSans-56"/>
       <use x="254.492188" xlink:href="#DejaVuSans-45"/>
       <use x="290.576172" xlink:href="#DejaVuSans-48"/>
       <use x="354.199219" xlink:href="#DejaVuSans-55"/>
      </g>
     </g>
    </g>
    <g id="xtick_4">
     <g id="line2d_4">
      <g>
       <use style="stroke:#000000;stroke-width:0.8;" x="270.691136" xlink:href="#m738b2e4678" y="398.88"/>
      </g>
     </g>
     <g id="text_4">
      <!-- 2018-10 -->
      <g transform="translate(233.466316 433.351846)rotate(-30)scale(0.1 -0.1)">
       <use xlink:href="#DejaVuSans-50"/>
       <use x="63.623047" xlink:href="#DejaVuSans-48"/>
       <use x="127.246094" xlink:href="#DejaVuSans-49"/>
       <use x="190.869141" xlink:href="#DejaVuSans-56"/>
       <use x="254.492188" xlink:href="#DejaVuSans-45"/>
       <use x="290.576172" xlink:href="#DejaVuSans-49"/>
       <use x="354.199219" xlink:href="#DejaVuSans-48"/>
      </g>
     </g>
    </g>
    <g id="xtick_5">
     <g id="line2d_5">
      <g>
       <use style="stroke:#000000;stroke-width:0.8;" x="340.694773" xlink:href="#m738b2e4678" y="398.88"/>
      </g>
     </g>
     <g id="text_5">
      <!-- 2019-01 -->
      <defs>
       <path d="M 10.984375 1.515625 
L 10.984375 10.5 
Q 14.703125 8.734375 18.5 7.8125 
Q 22.3125 6.890625 25.984375 6.890625 
Q 35.75 6.890625 40.890625 13.453125 
Q 46.046875 20.015625 46.78125 33.40625 
Q 43.953125 29.203125 39.59375 26.953125 
Q 35.25 24.703125 29.984375 24.703125 
Q 19.046875 24.703125 12.671875 31.3125 
Q 6.296875 37.9375 6.296875 49.421875 
Q 6.296875 60.640625 12.9375 67.421875 
Q 19.578125 74.21875 30.609375 74.21875 
Q 43.265625 74.21875 49.921875 64.515625 
Q 56.59375 54.828125 56.59375 36.375 
Q 56.59375 19.140625 48.40625 8.859375 
Q 40.234375 -1.421875 26.421875 -1.421875 
Q 22.703125 -1.421875 18.890625 -0.6875 
Q 15.09375 0.046875 10.984375 1.515625 
z
M 30.609375 32.421875 
Q 37.25 32.421875 41.125 36.953125 
Q 45.015625 41.5 45.015625 49.421875 
Q 45.015625 57.28125 41.125 61.84375 
Q 37.25 66.40625 30.609375 66.40625 
Q 23.96875 66.40625 20.09375 61.84375 
Q 16.21875 57.28125 16.21875 49.421875 
Q 16.21875 41.5 20.09375 36.953125 
Q 23.96875 32.421875 30.609375 32.421875 
z
" id="DejaVuSans-57"/>
      </defs>
      <g transform="translate(303.469952 433.351846)rotate(-30)scale(0.1 -0.1)">
       <use xlink:href="#DejaVuSans-50"/>
       <use x="63.623047" xlink:href="#DejaVuSans-48"/>
       <use x="127.246094" xlink:href="#DejaVuSans-49"/>
       <use x="190.869141" xlink:href="#DejaVuSans-57"/>
       <use x="254.492188" xlink:href="#DejaVuSans-45"/>
       <use x="290.576172" xlink:href="#DejaVuSans-48"/>
       <use x="354.199219" xlink:href="#DejaVuSans-49"/>
      </g>
     </g>
    </g>
    <g id="xtick_6">
     <g id="line2d_6">
      <g>
       <use style="stroke:#000000;stroke-width:0.8;" x="409.176591" xlink:href="#m738b2e4678" y="398.88"/>
      </g>
     </g>
     <g id="text_6">
      <!-- 2019-04 -->
      <g transform="translate(371.95177 433.351846)rotate(-30)scale(0.1 -0.1)">
       <use xlink:href="#DejaVuSans-50"/>
       <use x="63.623047" xlink:href="#DejaVuSans-48"/>
       <use x="127.246094" xlink:href="#DejaVuSans-49"/>
       <use x="190.869141" xlink:href="#DejaVuSans-57"/>
       <use x="254.492188" xlink:href="#DejaVuSans-45"/>
       <use x="290.576172" xlink:href="#DejaVuSans-48"/>
       <use x="354.199219" xlink:href="#DejaVuSans-52"/>
      </g>
     </g>
    </g>
    <g id="xtick_7">
     <g id="line2d_7">
      <g>
       <use style="stroke:#000000;stroke-width:0.8;" x="478.419318" xlink:href="#m738b2e4678" y="398.88"/>
      </g>
     </g>
     <g id="text_7">
      <!-- 2019-07 -->
      <g transform="translate(441.194497 433.351846)rotate(-30)scale(0.1 -0.1)">
       <use xlink:href="#DejaVuSans-50"/>
       <use x="63.623047" xlink:href="#DejaVuSans-48"/>
       <use x="127.246094" xlink:href="#DejaVuSans-49"/>
       <use x="190.869141" xlink:href="#DejaVuSans-57"/>
       <use x="254.492188" xlink:href="#DejaVuSans-45"/>
       <use x="290.576172" xlink:href="#DejaVuSans-48"/>
       <use x="354.199219" xlink:href="#DejaVuSans-55"/>
      </g>
     </g>
    </g>
    <g id="xtick_8">
     <g id="line2d_8">
      <g>
       <use style="stroke:#000000;stroke-width:0.8;" x="548.422955" xlink:href="#m738b2e4678" y="398.88"/>
      </g>
     </g>
     <g id="text_8">
      <!-- 2019-10 -->
      <g transform="translate(511.198134 433.351846)rotate(-30)scale(0.1 -0.1)">
       <use xlink:href="#DejaVuSans-50"/>
       <use x="63.623047" xlink:href="#DejaVuSans-48"/>
       <use x="127.246094" xlink:href="#DejaVuSans-49"/>
       <use x="190.869141" xlink:href="#DejaVuSans-57"/>
       <use x="254.492188" xlink:href="#DejaVuSans-45"/>
       <use x="290.576172" xlink:href="#DejaVuSans-49"/>
       <use x="354.199219" xlink:href="#DejaVuSans-48"/>
      </g>
     </g>
    </g>
    <g id="xtick_9">
     <g id="line2d_9">
      <g>
       <use style="stroke:#000000;stroke-width:0.8;" x="618.426591" xlink:href="#m738b2e4678" y="398.88"/>
      </g>
     </g>
     <g id="text_9">
      <!-- 2020-01 -->
      <g transform="translate(581.20177 433.351846)rotate(-30)scale(0.1 -0.1)">
       <use xlink:href="#DejaVuSans-50"/>
       <use x="63.623047" xlink:href="#DejaVuSans-48"/>
       <use x="127.246094" xlink:href="#DejaVuSans-50"/>
       <use x="190.869141" xlink:href="#DejaVuSans-48"/>
       <use x="254.492188" xlink:href="#DejaVuSans-45"/>
       <use x="290.576172" xlink:href="#DejaVuSans-48"/>
       <use x="354.199219" xlink:href="#DejaVuSans-49"/>
      </g>
     </g>
    </g>
    <g id="xtick_10">
     <g id="line2d_10">
      <g>
       <use style="stroke:#000000;stroke-width:0.8;" x="687.669318" xlink:href="#m738b2e4678" y="398.88"/>
      </g>
     </g>
     <g id="text_10">
      <!-- 2020-04 -->
      <g transform="translate(650.444497 433.351846)rotate(-30)scale(0.1 -0.1)">
       <use xlink:href="#DejaVuSans-50"/>
       <use x="63.623047" xlink:href="#DejaVuSans-48"/>
       <use x="127.246094" xlink:href="#DejaVuSans-50"/>
       <use x="190.869141" xlink:href="#DejaVuSans-48"/>
       <use x="254.492188" xlink:href="#DejaVuSans-45"/>
       <use x="290.576172" xlink:href="#DejaVuSans-48"/>
       <use x="354.199219" xlink:href="#DejaVuSans-52"/>
      </g>
     </g>
    </g>
    <g id="text_11">
     <!-- Date -->
     <defs>
      <path d="M 19.671875 64.796875 
L 19.671875 8.109375 
L 31.59375 8.109375 
Q 46.6875 8.109375 53.6875 14.9375 
Q 60.6875 21.78125 60.6875 36.53125 
Q 60.6875 51.171875 53.6875 57.984375 
Q 46.6875 64.796875 31.59375 64.796875 
z
M 9.8125 72.90625 
L 30.078125 72.90625 
Q 51.265625 72.90625 61.171875 64.09375 
Q 71.09375 55.28125 71.09375 36.53125 
Q 71.09375 17.671875 61.125 8.828125 
Q 51.171875 0 30.078125 0 
L 9.8125 0 
z
" id="DejaVuSans-68"/>
      <path d="M 34.28125 27.484375 
Q 23.390625 27.484375 19.1875 25 
Q 14.984375 22.515625 14.984375 16.5 
Q 14.984375 11.71875 18.140625 8.90625 
Q 21.296875 6.109375 26.703125 6.109375 
Q 34.1875 6.109375 38.703125 11.40625 
Q 43.21875 16.703125 43.21875 25.484375 
L 43.21875 27.484375 
z
M 52.203125 31.203125 
L 52.203125 0 
L 43.21875 0 
L 43.21875 8.296875 
Q 40.140625 3.328125 35.546875 0.953125 
Q 30.953125 -1.421875 24.3125 -1.421875 
Q 15.921875 -1.421875 10.953125 3.296875 
Q 6 8.015625 6 15.921875 
Q 6 25.140625 12.171875 29.828125 
Q 18.359375 34.515625 30.609375 34.515625 
L 43.21875 34.515625 
L 43.21875 35.40625 
Q 43.21875 41.609375 39.140625 45 
Q 35.0625 48.390625 27.6875 48.390625 
Q 23 48.390625 18.546875 47.265625 
Q 14.109375 46.140625 10.015625 43.890625 
L 10.015625 52.203125 
Q 14.9375 54.109375 19.578125 55.046875 
Q 24.21875 56 28.609375 56 
Q 40.484375 56 46.34375 49.84375 
Q 52.203125 43.703125 52.203125 31.203125 
z
" id="DejaVuSans-97"/>
      <path d="M 18.3125 70.21875 
L 18.3125 54.6875 
L 36.8125 54.6875 
L 36.8125 47.703125 
L 18.3125 47.703125 
L 18.3125 18.015625 
Q 18.3125 11.328125 20.140625 9.421875 
Q 21.96875 7.515625 27.59375 7.515625 
L 36.8125 7.515625 
L 36.8125 0 
L 27.59375 0 
Q 17.1875 0 13.234375 3.875 
Q 9.28125 7.765625 9.28125 18.015625 
L 9.28125 47.703125 
L 2.6875 47.703125 
L 2.6875 54.6875 
L 9.28125 54.6875 
L 9.28125 70.21875 
z
" id="DejaVuSans-116"/>
      <path d="M 56.203125 29.59375 
L 56.203125 25.203125 
L 14.890625 25.203125 
Q 15.484375 15.921875 20.484375 11.0625 
Q 25.484375 6.203125 34.421875 6.203125 
Q 39.59375 6.203125 44.453125 7.46875 
Q 49.3125 8.734375 54.109375 11.28125 
L 54.109375 2.78125 
Q 49.265625 0.734375 44.1875 -0.34375 
Q 39.109375 -1.421875 33.890625 -1.421875 
Q 20.796875 -1.421875 13.15625 6.1875 
Q 5.515625 13.8125 5.515625 26.8125 
Q 5.515625 40.234375 12.765625 48.109375 
Q 20.015625 56 32.328125 56 
Q 43.359375 56 49.78125 48.890625 
Q 56.203125 41.796875 56.203125 29.59375 
z
M 47.21875 32.234375 
Q 47.125 39.59375 43.09375 43.984375 
Q 39.0625 48.390625 32.421875 48.390625 
Q 24.90625 48.390625 20.390625 44.140625 
Q 15.875 39.890625 15.1875 32.171875 
z
" id="DejaVuSans-101"/>
     </defs>
     <g transform="translate(356.136719 446.751346)scale(0.1 -0.1)">
      <use xlink:href="#DejaVuSans-68"/>
      <use x="77.001953" xlink:href="#DejaVuSans-97"/>
      <use x="138.28125" xlink:href="#DejaVuSans-116"/>
      <use x="177.490234" xlink:href="#DejaVuSans-101"/>
     </g>
    </g>
   </g>
   <g id="matplotlib.axis_2">
    <g id="ytick_1">
     <g id="line2d_11">
      <defs>
       <path d="M 0 0 
L -3.5 0 
" id="m64da922949" style="stroke:#000000;stroke-width:0.8;"/>
      </defs>
      <g>
       <use style="stroke:#000000;stroke-width:0.8;" x="33.2875" xlink:href="#m64da922949" y="371.190831"/>
      </g>
     </g>
     <g id="text_12">
      <!-- 80 -->
      <g transform="translate(13.5625 374.99005)scale(0.1 -0.1)">
       <use xlink:href="#DejaVuSans-56"/>
       <use x="63.623047" xlink:href="#DejaVuSans-48"/>
      </g>
     </g>
    </g>
    <g id="ytick_2">
     <g id="line2d_12">
      <g>
       <use style="stroke:#000000;stroke-width:0.8;" x="33.2875" xlink:href="#m64da922949" y="313.806804"/>
      </g>
     </g>
     <g id="text_13">
      <!-- 100 -->
      <g transform="translate(7.2 317.606022)scale(0.1 -0.1)">
       <use xlink:href="#DejaVuSans-49"/>
       <use x="63.623047" xlink:href="#DejaVuSans-48"/>
       <use x="127.246094" xlink:href="#DejaVuSans-48"/>
      </g>
     </g>
    </g>
    <g id="ytick_3">
     <g id="line2d_13">
      <g>
       <use style="stroke:#000000;stroke-width:0.8;" x="33.2875" xlink:href="#m64da922949" y="256.422776"/>
      </g>
     </g>
     <g id="text_14">
      <!-- 120 -->
      <g transform="translate(7.2 260.221995)scale(0.1 -0.1)">
       <use xlink:href="#DejaVuSans-49"/>
       <use x="63.623047" xlink:href="#DejaVuSans-50"/>
       <use x="127.246094" xlink:href="#DejaVuSans-48"/>
      </g>
     </g>
    </g>
    <g id="ytick_4">
     <g id="line2d_14">
      <g>
       <use style="stroke:#000000;stroke-width:0.8;" x="33.2875" xlink:href="#m64da922949" y="199.038749"/>
      </g>
     </g>
     <g id="text_15">
      <!-- 140 -->
      <g transform="translate(7.2 202.837968)scale(0.1 -0.1)">
       <use xlink:href="#DejaVuSans-49"/>
       <use x="63.623047" xlink:href="#DejaVuSans-52"/>
       <use x="127.246094" xlink:href="#DejaVuSans-48"/>
      </g>
     </g>
    </g>
    <g id="ytick_5">
     <g id="line2d_15">
      <g>
       <use style="stroke:#000000;stroke-width:0.8;" x="33.2875" xlink:href="#m64da922949" y="141.654722"/>
      </g>
     </g>
     <g id="text_16">
      <!-- 160 -->
      <defs>
       <path d="M 33.015625 40.375 
Q 26.375 40.375 22.484375 35.828125 
Q 18.609375 31.296875 18.609375 23.390625 
Q 18.609375 15.53125 22.484375 10.953125 
Q 26.375 6.390625 33.015625 6.390625 
Q 39.65625 6.390625 43.53125 10.953125 
Q 47.40625 15.53125 47.40625 23.390625 
Q 47.40625 31.296875 43.53125 35.828125 
Q 39.65625 40.375 33.015625 40.375 
z
M 52.59375 71.296875 
L 52.59375 62.3125 
Q 48.875 64.0625 45.09375 64.984375 
Q 41.3125 65.921875 37.59375 65.921875 
Q 27.828125 65.921875 22.671875 59.328125 
Q 17.53125 52.734375 16.796875 39.40625 
Q 19.671875 43.65625 24.015625 45.921875 
Q 28.375 48.1875 33.59375 48.1875 
Q 44.578125 48.1875 50.953125 41.515625 
Q 57.328125 34.859375 57.328125 23.390625 
Q 57.328125 12.15625 50.6875 5.359375 
Q 44.046875 -1.421875 33.015625 -1.421875 
Q 20.359375 -1.421875 13.671875 8.265625 
Q 6.984375 17.96875 6.984375 36.375 
Q 6.984375 53.65625 15.1875 63.9375 
Q 23.390625 74.21875 37.203125 74.21875 
Q 40.921875 74.21875 44.703125 73.484375 
Q 48.484375 72.75 52.59375 71.296875 
z
" id="DejaVuSans-54"/>
      </defs>
      <g transform="translate(7.2 145.453941)scale(0.1 -0.1)">
       <use xlink:href="#DejaVuSans-49"/>
       <use x="63.623047" xlink:href="#DejaVuSans-54"/>
       <use x="127.246094" xlink:href="#DejaVuSans-48"/>
      </g>
     </g>
    </g>
    <g id="ytick_6">
     <g id="line2d_16">
      <g>
       <use style="stroke:#000000;stroke-width:0.8;" x="33.2875" xlink:href="#m64da922949" y="84.270695"/>
      </g>
     </g>
     <g id="text_17">
      <!-- 180 -->
      <g transform="translate(7.2 88.069913)scale(0.1 -0.1)">
       <use xlink:href="#DejaVuSans-49"/>
       <use x="63.623047" xlink:href="#DejaVuSans-56"/>
       <use x="127.246094" xlink:href="#DejaVuSans-48"/>
      </g>
     </g>
    </g>
    <g id="ytick_7">
     <g id="line2d_17">
      <g>
       <use style="stroke:#000000;stroke-width:0.8;" x="33.2875" xlink:href="#m64da922949" y="26.886667"/>
      </g>
     </g>
     <g id="text_18">
      <!-- 200 -->
      <g transform="translate(7.2 30.685886)scale(0.1 -0.1)">
       <use xlink:href="#DejaVuSans-50"/>
       <use x="63.623047" xlink:href="#DejaVuSans-48"/>
       <use x="127.246094" xlink:href="#DejaVuSans-48"/>
      </g>
     </g>
    </g>
   </g>
   <g id="line2d_18">
    <path clip-path="url(#pf4cc1a5a43)" d="M 63.723864 313.806804 
L 64.484773 311.206298 
L 65.245682 310.686257 
L 66.006591 308.952616 
L 68.289318 305.485245 
L 69.050227 305.485245 
L 69.811136 309.472692 
L 70.572045 301.671228 
L 71.332955 300.804434 
L 73.615682 299.937569 
L 74.376591 294.736593 
L 75.1375 282.427587 
L 75.898409 284.854788 
L 76.659318 284.161246 
L 78.942045 280.520569 
L 79.702955 284.507999 
L 80.463864 265.437788 
L 81.224773 265.437788 
L 81.985682 255.209158 
L 84.268409 256.596135 
L 85.029318 262.8373 
L 85.790227 259.196659 
L 86.551136 244.9806 
L 87.312045 254.515795 
L 89.594773 270.638764 
L 90.355682 254.169006 
L 91.116591 263.704165 
L 91.8775 270.465405 
L 92.638409 275.319557 
L 97.203864 264.3976 
L 97.964773 264.050882 
L 100.2475 253.128889 
L 101.008409 246.367577 
L 101.769318 249.6615 
L 102.530227 241.166601 
L 103.291136 234.578683 
L 105.573864 227.644083 
L 106.334773 227.990801 
L 107.095682 228.684379 
L 107.856591 236.139019 
L 108.6175 227.817478 
L 110.900227 217.242131 
L 112.422045 225.043595 
L 113.182955 224.523483 
L 113.943864 212.561302 
L 116.226591 213.601419 
L 116.9875 217.415454 
L 117.748409 212.734625 
L 118.509318 231.28476 
L 119.270227 229.204383 
L 121.552955 237.872677 
L 122.313864 233.885284 
L 123.074773 218.455749 
L 123.835682 224.17673 
L 124.596591 223.656654 
L 126.879318 218.802395 
L 127.640227 229.030989 
L 128.401136 233.191813 
L 129.162045 229.551137 
L 132.205682 238.392718 
L 132.966591 241.686712 
L 133.7275 247.407765 
L 134.488409 234.058607 
L 135.249318 231.804872 
L 137.532045 244.807277 
L 138.292955 229.72446 
L 139.053864 222.789896 
L 139.814773 224.870308 
L 140.575682 233.191813 
L 142.858409 243.246977 
L 143.619318 236.139019 
L 144.380227 222.789896 
L 145.141136 215.855189 
L 145.902045 213.081343 
L 148.184773 211.001002 
L 148.945682 212.387908 
L 149.706591 224.003478 
L 150.4675 208.400514 
L 151.228409 207.013572 
L 153.511136 202.506067 
L 155.032955 208.920519 
L 155.793864 211.521043 
L 156.554773 214.641643 
L 158.8375 208.053725 
L 159.598409 203.546219 
L 160.359318 171.12685 
L 161.120227 154.31041 
L 161.881136 159.684709 
L 164.163864 145.81551 
L 165.685682 125.87847 
L 166.446591 150.843092 
L 167.2075 156.044104 
L 169.490227 166.446021 
L 170.251136 171.483761 
L 171.012045 196.49821 
L 171.772955 251.912526 
L 172.533864 256.77648 
L 174.816591 306.979359 
L 175.5775 265.462095 
L 176.338409 271.020909 
L 177.860227 320.007747 
L 180.142955 296.20918 
L 180.903864 312.538138 
L 181.664773 317.054643 
L 183.186591 335.815595 
L 186.230227 332.167612 
L 186.991136 337.205316 
L 187.752045 338.421269 
L 188.512955 340.679531 
L 190.795682 348.844001 
L 192.3175 319.139225 
L 193.078409 338.421269 
L 193.839318 338.247572 
L 196.122045 327.99852 
L 196.882955 322.092276 
L 197.643864 313.232981 
L 198.404773 312.364387 
L 199.165682 302.115388 
L 201.448409 297.251435 
L 202.209318 296.730325 
L 202.970227 294.819423 
L 203.731136 290.476651 
L 204.492045 289.086965 
L 207.535682 292.387518 
L 208.296591 298.29369 
L 209.0575 288.913286 
L 209.818409 286.133879 
L 212.101136 290.12922 
L 212.862045 283.007041 
L 213.622955 287.17617 
L 214.383864 281.096175 
L 215.144773 265.635739 
L 217.4275 266.156956 
L 218.188409 259.208385 
L 218.949318 253.997001 
L 219.710227 263.551264 
L 220.471136 257.297625 
L 222.753864 255.213043 
L 223.514773 258.166165 
L 224.275682 253.128497 
L 225.036591 246.180033 
L 225.7975 234.020114 
L 228.080227 235.23612 
L 228.841136 240.968614 
L 229.602045 250.870271 
L 230.362955 247.395968 
L 231.123864 260.424427 
L 233.406591 252.607387 
L 234.1675 252.78153 
L 234.928409 268.977172 
L 235.689318 270.718636 
L 236.450227 279.251814 
L 238.732955 280.993278 
L 239.493864 292.138778 
L 240.254773 281.167421 
L 241.015682 288.133349 
L 241.776591 282.038207 
L 244.059318 274.898207 
L 244.820227 281.167421 
L 245.581136 264.623529 
L 246.342045 273.330815 
L 247.102955 265.320136 
L 249.385682 269.847922 
L 250.146591 275.943064 
L 250.9075 274.201529 
L 251.668409 270.022065 
L 254.712045 265.320136 
L 255.472955 278.555243 
L 256.233864 270.718636 
L 256.994773 274.898207 
L 257.755682 273.504957 
L 260.038409 262.882029 
L 260.799318 248.079566 
L 261.560227 252.78153 
L 262.321136 254.697137 
L 263.082045 249.995209 
L 265.364773 252.433209 
L 266.125682 251.04003 
L 266.886591 249.124459 
L 267.6475 227.007817 
L 268.408409 233.451245 
L 270.691136 235.018495 
L 271.452045 203.323818 
L 272.212955 186.431533 
L 272.973864 182.426212 
L 273.734773 183.471069 
L 276.0175 137.496322 
L 276.778409 133.665072 
L 278.300227 160.309535 
L 281.343864 151.9505 
L 282.104773 135.232358 
L 282.865682 140.1085 
L 283.626591 153.169499 
L 284.3875 149.338321 
L 286.670227 138.715322 
L 287.431136 144.462178 
L 288.192045 153.517785 
L 288.952955 142.372393 
L 289.713864 120.081573 
L 291.996591 140.630929 
L 292.7575 113.115752 
L 293.518409 119.733251 
L 294.279318 124.95768 
L 297.322955 110.329395 
L 299.605682 159.264606 
L 300.366591 157.349035 
L 302.649318 159.612928 
L 303.410227 178.594962 
L 304.171136 163.618285 
L 305.692955 151.428071 
L 307.975682 147.945107 
L 309.4975 162.399285 
L 310.258409 161.000582 
L 311.019318 174.638149 
L 313.302045 176.73631 
L 314.062955 154.356565 
L 314.823864 156.979222 
L 315.584773 160.65087 
L 316.345682 155.580448 
L 318.628409 147.188088 
L 319.389318 157.678609 
L 320.150227 153.832069 
L 320.911136 170.791645 
L 321.672045 167.644563 
L 323.954773 190.89848 
L 324.715682 193.521065 
L 325.476591 193.346245 
L 326.2375 192.297218 
L 326.998409 197.717209 
L 329.281136 200.864398 
L 330.042045 216.075666 
L 330.802955 211.704595 
L 331.563864 224.992521 
L 332.324773 223.943494 
L 336.129318 208.633001 
L 336.890227 208.813845 
L 337.651136 190.547449 
L 341.455682 165.589421 
L 342.216591 154.918983 
L 342.9775 153.653044 
L 345.260227 146.599616 
L 346.021136 149.312517 
L 346.782045 139.908018 
L 347.542955 143.886823 
L 348.303864 148.769951 
L 350.586591 151.301865 
L 351.3475 151.663588 
L 352.108409 151.844467 
L 352.869318 145.695435 
L 353.630227 141.354873 
L 355.912955 139.003695 
L 356.673864 146.237965 
L 357.434773 140.812271 
L 358.195682 138.822851 
L 361.239318 152.748755 
L 362.000227 141.897403 
L 362.761136 137.376033 
L 363.522045 138.099478 
L 364.282955 134.120673 
L 366.565682 129.96099 
L 367.326591 129.056737 
L 368.0875 139.727175 
L 368.848409 146.961374 
L 369.609318 146.237965 
L 371.892045 151.48278 
L 372.652955 135.567527 
L 373.413864 129.599303 
L 374.174773 113.322292 
L 374.935682 115.311712 
L 377.218409 116.758566 
L 377.979318 105.545527 
L 378.740227 111.694595 
L 379.501136 105.183805 
L 380.262045 110.066933 
L 382.544773 117.843662 
L 383.305682 120.013926 
L 384.066591 110.971221 
L 384.8275 111.332872 
L 385.588409 117.843662 
L 390.153864 116.577687 
L 390.914773 118.386264 
L 393.1975 98.853894 
L 393.958409 103.375264 
L 394.719318 92.523983 
L 395.480227 90.896214 
L 396.241136 89.811118 
L 398.523864 80.949256 
L 399.284773 72.629854 
L 400.045682 76.789609 
L 400.806591 84.204652 
L 401.5675 112.418004 
L 403.850227 106.268972 
L 404.611136 82.938641 
L 405.372045 106.268972 
L 406.132955 93.247392 
L 406.893864 93.247392 
L 409.176591 94.332559 
L 409.9375 89.087708 
L 410.698409 102.651819 
L 411.459318 85.832349 
L 412.220227 80.225776 
L 414.502955 71.725566 
L 415.263864 73.353299 
L 416.024773 80.225776 
L 416.785682 94.332559 
L 417.546591 133.578107 
L 419.829318 131.769531 
L 420.590227 117.482011 
L 421.351136 116.939374 
L 422.112045 101.566723 
L 425.155682 104.460431 
L 425.916591 100.119869 
L 426.6775 101.566723 
L 427.438409 97.949605 
L 428.199318 107.550807 
L 430.482045 105.379011 
L 431.242955 110.084575 
L 432.764773 116.961899 
L 433.525682 114.790068 
L 435.808409 116.237955 
L 436.569318 123.839188 
L 437.330227 105.379011 
L 438.091136 115.15204 
L 438.852045 117.866758 
L 441.134773 131.983414 
L 441.895682 130.173554 
L 442.656591 132.34535 
L 444.178409 154.063202 
L 446.461136 138.860702 
L 447.222045 121.305491 
L 447.982955 123.122123 
L 448.743864 131.297143 
L 449.504773 126.755493 
L 451.7875 124.030474 
L 452.548409 113.857088 
L 453.309318 119.307125 
L 454.070227 125.665478 
L 454.831136 136.565588 
L 457.113864 128.57216 
L 457.874773 124.757127 
L 458.635682 130.933852 
L 460.1575 114.583741 
L 462.440227 116.582107 
L 463.201136 107.317037 
L 463.962045 112.948701 
L 464.722955 106.953675 
L 465.483864 109.133704 
L 467.766591 108.225388 
L 468.5275 102.048627 
L 469.288409 100.776985 
L 470.810227 86.97023 
L 473.092955 87.515255 
L 473.853864 100.958648 
L 474.614773 98.051967 
L 475.375682 106.045359 
L 476.136591 102.775351 
L 478.419318 105.500334 
L 479.180227 113.493762 
L 479.941136 106.953675 
L 480.702045 103.138677 
L 481.462955 102.956979 
L 483.745682 98.415329 
L 485.2675 90.785263 
L 486.028409 84.790236 
L 486.789318 82.428473 
L 489.072045 88.786932 
L 489.832955 95.145321 
L 491.354773 100.958648 
L 492.115682 102.230326 
L 494.398409 101.32201 
L 495.159318 100.776985 
L 495.920227 103.86533 
L 496.681136 112.222049 
L 497.442045 125.847141 
L 499.724773 121.487119 
L 501.246591 126.937191 
L 502.0075 123.848811 
L 502.768409 118.943763 
L 505.051136 136.565588 
L 505.812045 130.570561 
L 506.572955 135.657201 
L 507.333864 122.032108 
L 508.094773 123.303786 
L 510.3775 134.748885 
L 511.138409 128.523616 
L 511.899318 144.452947 
L 512.660227 157.086538 
L 513.421136 162.945593 
L 515.703864 160.748456 
L 516.464773 160.931545 
L 517.225682 134.748885 
L 517.986591 138.96007 
L 518.7475 156.171022 
L 521.030227 162.030113 
L 521.791136 155.07249 
L 522.552045 150.495091 
L 523.312955 133.833405 
L 524.073864 133.833405 
L 526.356591 137.495324 
L 527.1175 132.002446 
L 527.878409 119.918122 
L 529.400227 115.157671 
L 531.682955 107.650745 
L 532.443864 104.538129 
L 533.204773 108.749314 
L 533.965682 105.27052 
L 534.726591 108.566225 
L 537.009318 86.960963 
L 537.770227 93.735462 
L 538.531136 102.340992 
L 539.292045 101.059299 
L 540.052955 106.369088 
L 542.335682 97.580505 
L 543.096591 101.425477 
L 543.8575 100.143855 
L 544.618409 93.552373 
L 545.379318 94.2848 
L 548.422955 97.031203 
L 549.183864 111.495788 
L 549.944773 111.129575 
L 550.705682 115.34076 
L 552.988409 121.566028 
L 553.749318 124.312432 
L 554.510227 115.157671 
L 555.271136 111.129575 
L 556.032045 101.608601 
L 558.314773 100.693157 
L 559.836591 89.341224 
L 560.5975 94.2848 
L 561.358409 95.383333 
L 563.641136 92.270716 
L 564.402045 77.623114 
L 565.162955 70.665419 
L 565.923864 82.200476 
L 566.684773 65.172577 
L 568.9675 58.764255 
L 569.728409 54.736159 
L 570.489318 49.975672 
L 571.250227 44.299706 
L 572.011136 43.56735 
L 574.293864 44.848972 
L 575.054773 57.848775 
L 575.815682 56.750243 
L 576.576591 34.961856 
L 577.3375 51.07424 
L 579.620227 43.201137 
L 580.381136 47.423228 
L 581.142045 49.635014 
L 581.902955 60.693691 
L 584.946591 64.748553 
L 585.7075 70.277892 
L 587.229318 50.556552 
L 587.990227 48.160502 
L 590.272955 52.768302 
L 591.033864 62.721104 
L 591.794773 60.140753 
L 592.555682 56.454528 
L 593.316591 63.458378 
L 595.599318 64.932854 
L 596.360227 66.591666 
L 597.121136 54.058477 
L 597.882045 46.870326 
L 598.642955 41.340952 
L 600.925682 43.921339 
L 601.686591 39.68214 
L 602.4475 40.419414 
L 603.208409 29.913638 
L 603.969318 48.160502 
L 606.252045 58.666277 
L 607.012955 50.556552 
L 607.773864 37.839027 
L 608.534773 36.548852 
L 609.295682 42.999764 
L 611.578409 38.576301 
L 613.861136 31.019513 
L 614.622045 30.42263 
L 616.904773 36.775957 
L 619.1875 27.059099 
L 619.948409 31.730662 
L 622.231136 25.003636 
L 622.992045 27.245966 
L 623.752955 30.796363 
L 624.513864 32.664995 
L 625.274773 35.094192 
L 627.5575 33.973027 
L 628.318409 40.139488 
L 629.079318 48.548314 
L 629.840227 49.108878 
L 630.601136 42.942418 
L 632.883864 40.139488 
L 634.405682 53.406707 
L 635.166591 46.679682 
L 635.9275 53.219876 
L 638.210227 76.951384 
L 638.971136 62.563 
L 639.732045 61.628666 
L 640.492955 59.946901 
L 641.253864 69.103158 
L 643.536591 74.148454 
L 644.2975 65.739664 
L 645.058409 70.224359 
L 645.819318 55.462206 
L 646.580227 60.133768 
L 648.862955 56.396539 
L 649.623864 49.856345 
L 650.384773 37.710291 
L 651.145682 45.37165 
L 651.906591 50.97751 
L 654.189318 52.098675 
L 654.950227 44.81105 
L 655.711136 29.862065 
L 656.472045 41.634386 
L 657.232955 56.209673 
L 661.798409 127.964869 
L 662.559318 127.217402 
L 664.842045 104.980757 
L 665.602955 113.950183 
L 666.363864 98.253732 
L 667.124773 128.151701 
L 667.885682 174.11989 
L 670.168409 300.812667 
L 670.929318 272.596428 
L 671.690227 307.352844 
L 672.451136 365.280203 
L 672.451136 365.280203 
" style="fill:none;stroke:#1f77b4;stroke-linecap:square;stroke-width:1.5;"/>
   </g>
   <g id="line2d_19">
    <path clip-path="url(#pf4cc1a5a43)" d="M 63.723864 313.806804 
L 64.484773 310.164498 
L 66.006591 305.363141 
L 68.289318 300.727385 
L 69.050227 300.727385 
L 69.811136 306.356526 
L 70.572045 299.071721 
L 71.332955 296.753843 
L 73.615682 295.098277 
L 74.376591 289.634673 
L 75.1375 278.376423 
L 75.898409 278.873067 
L 76.659318 281.025408 
L 78.942045 277.714177 
L 79.702955 280.528764 
L 80.463864 259.171187 
L 81.224773 259.171187 
L 81.985682 241.290411 
L 84.268409 241.290411 
L 85.029318 250.065181 
L 85.790227 248.078442 
L 86.551136 234.336778 
L 87.312045 244.104965 
L 89.594773 260.16454 
L 90.355682 243.111548 
L 91.8775 263.80691 
L 92.638409 268.111527 
L 97.203864 257.515556 
L 97.964773 257.681093 
L 100.2475 248.078442 
L 101.008409 241.787088 
L 101.769318 245.760565 
L 103.291136 225.72748 
L 105.573864 216.952678 
L 106.334773 217.946031 
L 107.095682 217.449387 
L 107.856591 223.740742 
L 108.6175 216.952678 
L 110.900227 206.025568 
L 111.661136 208.674552 
L 112.422045 213.972522 
L 113.182955 213.475845 
L 113.943864 203.376551 
L 116.226591 205.032182 
L 116.9875 208.84009 
L 117.748409 209.833475 
L 118.509318 217.946031 
L 119.270227 213.806952 
L 121.552955 226.720866 
L 122.313864 221.753971 
L 123.074773 207.350028 
L 123.835682 209.502303 
L 124.596591 208.177844 
L 126.879318 204.86658 
L 127.640227 214.634768 
L 128.401136 219.436093 
L 129.162045 213.972522 
L 132.205682 224.237418 
L 132.966591 223.244065 
L 133.7275 224.568493 
L 134.488409 214.303596 
L 135.249318 210.330184 
L 137.532045 221.588401 
L 138.292955 206.687782 
L 139.053864 197.58184 
L 139.814773 196.919561 
L 140.575682 207.846737 
L 142.858409 221.753971 
L 143.619318 214.800338 
L 144.380227 202.217563 
L 145.141136 197.250636 
L 145.902045 196.257315 
L 148.184773 197.58184 
L 148.945682 198.9063 
L 149.706591 211.654676 
L 150.4675 195.926208 
L 151.228409 194.767188 
L 153.511136 192.946149 
L 155.032955 193.93947 
L 155.793864 198.244119 
L 156.554773 205.197752 
L 158.8375 191.124916 
L 159.598409 191.124916 
L 160.359318 150.065329 
L 161.120227 123.244214 
L 161.881136 121.423012 
L 164.163864 101.555498 
L 165.685682 77.052228 
L 166.446591 100.56208 
L 167.2075 101.555498 
L 169.490227 118.277319 
L 170.251136 129.389066 
L 171.012045 150.451723 
L 171.772955 215.961336 
L 172.533864 218.780721 
L 174.816591 272.515206 
L 175.5775 231.882676 
L 176.338409 232.711919 
L 177.860227 287.607401 
L 180.142955 269.364162 
L 180.903864 279.31504 
L 181.664773 281.139322 
L 182.425682 286.943955 
L 183.186591 302.201883 
L 185.469318 295.733868 
L 186.230227 298.221596 
L 186.991136 302.367744 
L 187.752045 302.533573 
L 188.512955 305.518885 
L 190.795682 315.303902 
L 192.3175 292.582792 
L 193.078409 308.006516 
L 196.122045 300.709291 
L 196.882955 293.577863 
L 197.643864 285.285503 
L 198.404773 287.109817 
L 199.165682 278.651594 
L 201.448409 274.339585 
L 202.209318 273.178619 
L 202.970227 257.257343 
L 203.731136 267.539815 
L 204.492045 265.38381 
L 207.535682 265.881298 
L 208.296591 268.700748 
L 209.0575 259.081658 
L 209.818409 259.413316 
L 212.101136 262.730254 
L 212.862045 251.452678 
L 213.622955 258.252415 
L 214.383864 254.272064 
L 215.144773 245.482151 
L 217.4275 243.823666 
L 218.188409 237.52148 
L 218.949318 232.87778 
L 219.710227 242.165148 
L 220.471136 234.204543 
L 222.753864 234.867924 
L 223.514773 236.858067 
L 224.275682 234.702062 
L 225.036591 228.565706 
L 225.7975 215.629677 
L 228.080227 214.302883 
L 228.841136 215.795539 
L 229.602045 223.590315 
L 230.362955 223.258657 
L 231.123864 233.209471 
L 233.406591 229.229119 
L 234.1675 230.725051 
L 234.928409 245.352315 
L 235.689318 246.848246 
L 236.450227 252.499664 
L 238.732955 251.668606 
L 239.493864 257.486274 
L 240.254773 247.346933 
L 241.015682 252.167293 
L 244.059318 244.188755 
L 244.820227 247.679337 
L 245.581136 232.221079 
L 246.342045 240.36577 
L 247.102955 233.71701 
L 249.385682 239.20221 
L 250.146591 243.025261 
L 251.668409 236.376534 
L 254.712045 231.722425 
L 255.472955 242.027952 
L 256.233864 232.387297 
L 256.994773 237.540028 
L 260.038409 227.234534 
L 260.799318 213.770797 
L 261.560227 215.931665 
L 262.321136 218.591156 
L 263.082045 213.937015 
L 265.364773 215.931665 
L 266.125682 213.937015 
L 266.886591 212.441084 
L 267.6475 193.492211 
L 268.408409 197.980102 
L 270.691136 198.811161 
L 271.452045 171.717598 
L 272.212955 160.58098 
L 272.973864 155.926903 
L 273.734773 157.589053 
L 276.0175 115.535789 
L 276.778409 106.560072 
L 277.539318 124.844104 
L 278.300227 133.653603 
L 281.343864 122.849421 
L 282.104773 105.396513 
L 282.865682 108.720876 
L 283.626591 124.511635 
L 284.3875 119.691276 
L 286.670227 106.72629 
L 287.431136 116.034444 
L 288.192045 129.996835 
L 288.952955 120.18993 
L 289.713864 102.072182 
L 291.996591 120.023745 
L 292.7575 93.428804 
L 293.518409 96.7532 
L 294.279318 105.895135 
L 297.322955 91.268 
L 298.083864 104.399236 
L 298.844773 115.369603 
L 299.605682 131.326581 
L 300.366591 133.154981 
L 302.649318 135.482035 
L 303.410227 156.92418 
L 304.171136 148.779489 
L 305.692955 134.484726 
L 307.975682 134.81713 
L 309.4975 145.621344 
L 310.258409 144.787205 
L 311.019318 155.464177 
L 313.302045 148.624231 
L 314.062955 133.276094 
L 314.823864 139.115066 
L 315.584773 136.112147 
L 318.628409 118.09479 
L 319.389318 126.603014 
L 320.150227 123.766961 
L 320.911136 143.619462 
L 321.672045 136.112147 
L 323.954773 159.134402 
L 324.715682 161.970455 
L 325.476591 160.468979 
L 326.2375 158.133364 
L 326.998409 161.470017 
L 329.281136 166.141182 
L 330.042045 180.82195 
L 330.802955 187.661896 
L 331.563864 197.671564 
L 332.324773 197.337863 
L 336.129318 189.794976 
L 336.890227 192.135487 
L 337.651136 176.086094 
L 341.455682 155.188423 
L 342.216591 145.993405 
L 345.260227 125.931656 
L 346.021136 128.439391 
L 346.782045 118.910057 
L 347.542955 121.250601 
L 348.303864 124.259811 
L 350.586591 125.931656 
L 351.3475 127.43631 
L 352.869318 119.578756 
L 353.630227 113.393047 
L 355.912955 111.05247 
L 356.673864 118.408484 
L 358.195682 108.210418 
L 361.239318 125.597274 
L 362.000227 115.232018 
L 362.761136 108.544768 
L 363.522045 106.705797 
L 364.282955 98.848243 
L 366.565682 93.164074 
L 367.326591 89.98764 
L 368.848409 107.876069 
L 369.609318 111.386852 
L 371.892045 117.572594 
L 372.652955 100.185673 
L 374.174773 77.616189 
L 374.935682 81.628578 
L 377.218409 87.647064 
L 377.979318 78.117762 
L 378.740227 78.117762 
L 379.501136 75.275645 
L 380.262045 78.284953 
L 382.544773 90.823563 
L 383.305682 90.656372 
L 384.066591 87.981446 
L 384.8275 101.523169 
L 385.588409 112.557124 
L 390.153864 112.222775 
L 390.914773 115.900782 
L 393.1975 88.483019 
L 393.958409 97.009272 
L 394.719318 83.467581 
L 396.241136 72.099211 
L 398.523864 61.399638 
L 399.284773 52.87332 
L 400.045682 49.529695 
L 400.806591 60.563683 
L 401.5675 86.309633 
L 403.850227 88.315828 
L 404.611136 66.916583 
L 405.372045 91.65942 
L 406.132955 83.133199 
L 406.893864 79.956765 
L 409.176591 84.637821 
L 409.9375 82.464436 
L 410.698409 93.331233 
L 411.459318 76.613141 
L 412.220227 64.910421 
L 414.502955 53.374893 
L 415.263864 58.223204 
L 416.024773 61.232447 
L 416.785682 68.254014 
L 417.546591 113.727429 
L 419.829318 114.061778 
L 420.590227 96.67489 
L 421.351136 96.173349 
L 422.112045 86.476792 
L 425.155682 84.637821 
L 425.916591 80.458306 
L 426.6775 89.486067 
L 427.438409 88.148637 
L 428.199318 92.662566 
L 430.482045 95.003045 
L 431.242955 99.851356 
L 432.764773 107.374496 
L 433.525682 106.538606 
L 435.808409 106.872955 
L 436.569318 112.222775 
L 437.330227 95.50465 
L 438.091136 109.882198 
L 438.852045 110.049389 
L 441.134773 124.092653 
L 441.895682 123.925462 
L 442.656591 127.269087 
L 443.4175 136.29688 
L 444.178409 139.974887 
L 446.461136 131.448666 
L 447.222045 119.244406 
L 447.982955 118.070049 
L 448.743864 126.45823 
L 449.504773 125.451647 
L 451.7875 118.57334 
L 452.548409 112.030551 
L 453.309318 115.889108 
L 454.070227 116.727916 
L 454.831136 127.129296 
L 457.113864 116.727916 
L 457.874773 113.875942 
L 458.635682 120.754249 
L 459.396591 113.204908 
L 460.1575 99.951554 
L 462.440227 108.339735 
L 463.201136 98.273905 
L 463.962045 105.655503 
L 464.722955 98.944939 
L 465.483864 94.247573 
L 467.766591 94.918606 
L 468.5275 87.201491 
L 469.288409 83.342901 
L 470.810227 67.405315 
L 473.092955 69.586256 
L 473.853864 85.691617 
L 474.614773 88.208074 
L 475.375682 99.280488 
L 476.136591 97.099547 
L 478.419318 98.777196 
L 479.180227 106.326602 
L 479.941136 101.293622 
L 480.702045 94.750864 
L 481.462955 96.931773 
L 483.745682 87.201491 
L 485.2675 85.356068 
L 486.028409 75.625786 
L 486.789318 72.270488 
L 489.072045 81.161993 
L 489.832955 87.369234 
L 490.593864 90.724532 
L 491.354773 96.260739 
L 492.115682 96.428513 
L 494.398409 95.757415 
L 495.159318 93.24099 
L 495.920227 97.435096 
L 496.681136 106.494344 
L 497.442045 121.928606 
L 499.724773 116.056883 
L 500.485682 119.244374 
L 501.246591 117.734499 
L 502.0075 125.11613 
L 502.768409 110.688451 
L 505.051136 130.987854 
L 505.812045 123.102964 
L 506.572955 127.632588 
L 507.333864 116.3924 
L 510.3775 133.504311 
L 511.138409 128.266039 
L 511.899318 142.798067 
L 512.660227 152.936727 
L 513.421136 154.964485 
L 515.703864 148.881276 
L 516.464773 153.105702 
L 517.225682 129.279886 
L 517.986591 133.842292 
L 518.7475 148.543327 
L 521.030227 154.457529 
L 521.791136 146.008646 
L 522.552045 142.798067 
L 523.312955 125.562383 
L 524.073864 123.027702 
L 526.356591 128.097065 
L 527.1175 125.731358 
L 527.878409 113.733979 
L 529.400227 107.481795 
L 531.682955 97.681084 
L 532.443864 93.79464 
L 533.204773 102.750446 
L 533.965682 96.667237 
L 534.726591 99.539867 
L 537.009318 76.896872 
L 538.531136 93.456658 
L 539.292045 89.739156 
L 540.052955 88.387361 
L 542.335682 86.190628 
L 543.096591 92.780761 
L 543.8575 92.10483 
L 544.618409 87.880405 
L 545.379318 86.697584 
L 547.662045 91.259958 
L 548.422955 94.132588 
L 549.183864 112.382151 
L 549.944773 108.664616 
L 550.705682 113.227023 
L 552.988409 120.831034 
L 553.749318 123.872607 
L 554.510227 111.875195 
L 555.271136 109.509521 
L 556.032045 102.243491 
L 558.314773 99.370893 
L 559.836591 85.51473 
L 561.358409 94.639512 
L 563.641136 87.880405 
L 564.402045 72.165491 
L 565.162955 69.630842 
L 565.923864 80.107451 
L 566.684773 64.899493 
L 568.9675 60.84401 
L 569.728409 55.943654 
L 570.489318 49.353554 
L 571.250227 48.170701 
L 572.011136 47.494803 
L 574.293864 43.608294 
L 575.054773 50.705414 
L 575.815682 53.071056 
L 576.576591 35.497392 
L 577.3375 44.622205 
L 579.620227 40.735696 
L 580.381136 47.860314 
L 581.142045 49.900394 
L 581.902955 61.631001 
L 584.946591 61.80098 
L 585.7075 69.451362 
L 587.229318 55.340651 
L 587.990227 52.960547 
L 590.272955 56.360724 
L 591.033864 67.071257 
L 591.794773 66.051185 
L 592.555682 63.671081 
L 593.316591 70.30139 
L 595.599318 70.981438 
L 596.360227 72.511514 
L 597.882045 59.080852 
L 598.642955 55.510696 
L 600.925682 52.790567 
L 601.686591 49.390391 
L 602.4475 49.220411 
L 603.208409 41.910054 
L 603.969318 68.091297 
L 606.252045 72.17149 
L 607.012955 64.861133 
L 607.773864 50.750487 
L 608.534773 51.600515 
L 609.295682 57.8908 
L 611.578409 49.900394 
L 613.861136 44.970206 
L 614.622045 53.81064 
L 616.904773 56.700748 
L 619.1875 43.100106 
L 619.948409 56.87076 
L 622.231136 39.189925 
L 622.992045 46.840242 
L 623.752955 55.85072 
L 624.513864 52.790567 
L 625.274773 55.000692 
L 627.5575 55.170671 
L 628.318409 59.590888 
L 629.079318 71.661454 
L 629.840227 69.961398 
L 630.601136 59.250864 
L 632.883864 57.040772 
L 633.644773 73.361542 
L 634.405682 73.361542 
L 635.166591 69.791386 
L 635.9275 71.831466 
L 638.210227 94.102561 
L 638.971136 82.201976 
L 639.732045 84.58208 
L 640.492955 73.871578 
L 641.253864 84.752092 
L 643.536591 90.532373 
L 644.2975 77.951771 
L 645.058409 82.542 
L 645.819318 68.601334 
L 646.580227 65.881205 
L 648.862955 63.841093 
L 649.623864 56.530768 
L 650.384773 47.350311 
L 651.145682 57.8908 
L 651.906591 63.161045 
L 654.189318 61.80098 
L 654.950227 57.720788 
L 655.711136 47.010286 
L 657.232955 76.251683 
L 661.798409 144.594981 
L 664.842045 123.003933 
L 665.602955 133.204431 
L 666.363864 120.963853 
L 667.124773 144.935005 
L 667.885682 191.687256 
L 670.168409 313.07309 
L 670.929318 288.591902 
L 671.690227 322.423527 
L 672.451136 381.076364 
L 672.451136 381.076364 
" style="fill:none;stroke:#ff7f0e;stroke-linecap:square;stroke-width:1.5;"/>
   </g>
   <g id="patch_3">
    <path d="M 33.2875 398.88 
L 33.2875 7.2 
" style="fill:none;stroke:#000000;stroke-linecap:square;stroke-linejoin:miter;stroke-width:0.8;"/>
   </g>
   <g id="patch_4">
    <path d="M 702.8875 398.88 
L 702.8875 7.2 
" style="fill:none;stroke:#000000;stroke-linecap:square;stroke-linejoin:miter;stroke-width:0.8;"/>
   </g>
   <g id="patch_5">
    <path d="M 33.2875 398.88 
L 702.8875 398.88 
" style="fill:none;stroke:#000000;stroke-linecap:square;stroke-linejoin:miter;stroke-width:0.8;"/>
   </g>
   <g id="patch_6">
    <path d="M 33.2875 7.2 
L 702.8875 7.2 
" style="fill:none;stroke:#000000;stroke-linecap:square;stroke-linejoin:miter;stroke-width:0.8;"/>
   </g>
   <g id="legend_1">
    <g id="patch_7">
     <path d="M 40.2875 44.55625 
L 120.423438 44.55625 
Q 122.423438 44.55625 122.423438 42.55625 
L 122.423438 14.2 
Q 122.423438 12.2 120.423438 12.2 
L 40.2875 12.2 
Q 38.2875 12.2 38.2875 14.2 
L 38.2875 42.55625 
Q 38.2875 44.55625 40.2875 44.55625 
z
" style="fill:#ffffff;opacity:0.8;stroke:#cccccc;stroke-linejoin:miter;"/>
    </g>
    <g id="line2d_20">
     <path d="M 42.2875 20.298437 
L 62.2875 20.298437 
" style="fill:none;stroke:#1f77b4;stroke-linecap:square;stroke-width:1.5;"/>
    </g>
    <g id="line2d_21"/>
    <g id="text_19">
     <!-- PETR4.SA -->
     <defs>
      <path d="M 19.671875 64.796875 
L 19.671875 37.40625 
L 32.078125 37.40625 
Q 38.96875 37.40625 42.71875 40.96875 
Q 46.484375 44.53125 46.484375 51.125 
Q 46.484375 57.671875 42.71875 61.234375 
Q 38.96875 64.796875 32.078125 64.796875 
z
M 9.8125 72.90625 
L 32.078125 72.90625 
Q 44.34375 72.90625 50.609375 67.359375 
Q 56.890625 61.8125 56.890625 51.125 
Q 56.890625 40.328125 50.609375 34.8125 
Q 44.34375 29.296875 32.078125 29.296875 
L 19.671875 29.296875 
L 19.671875 0 
L 9.8125 0 
z
" id="DejaVuSans-80"/>
      <path d="M 9.8125 72.90625 
L 55.90625 72.90625 
L 55.90625 64.59375 
L 19.671875 64.59375 
L 19.671875 43.015625 
L 54.390625 43.015625 
L 54.390625 34.71875 
L 19.671875 34.71875 
L 19.671875 8.296875 
L 56.78125 8.296875 
L 56.78125 0 
L 9.8125 0 
z
" id="DejaVuSans-69"/>
      <path d="M -0.296875 72.90625 
L 61.375 72.90625 
L 61.375 64.59375 
L 35.5 64.59375 
L 35.5 0 
L 25.59375 0 
L 25.59375 64.59375 
L -0.296875 64.59375 
z
" id="DejaVuSans-84"/>
      <path d="M 44.390625 34.1875 
Q 47.5625 33.109375 50.5625 29.59375 
Q 53.5625 26.078125 56.59375 19.921875 
L 66.609375 0 
L 56 0 
L 46.6875 18.703125 
Q 43.0625 26.03125 39.671875 28.421875 
Q 36.28125 30.8125 30.421875 30.8125 
L 19.671875 30.8125 
L 19.671875 0 
L 9.8125 0 
L 9.8125 72.90625 
L 32.078125 72.90625 
Q 44.578125 72.90625 50.734375 67.671875 
Q 56.890625 62.453125 56.890625 51.90625 
Q 56.890625 45.015625 53.6875 40.46875 
Q 50.484375 35.9375 44.390625 34.1875 
z
M 19.671875 64.796875 
L 19.671875 38.921875 
L 32.078125 38.921875 
Q 39.203125 38.921875 42.84375 42.21875 
Q 46.484375 45.515625 46.484375 51.90625 
Q 46.484375 58.296875 42.84375 61.546875 
Q 39.203125 64.796875 32.078125 64.796875 
z
" id="DejaVuSans-82"/>
      <path d="M 10.6875 12.40625 
L 21 12.40625 
L 21 0 
L 10.6875 0 
z
" id="DejaVuSans-46"/>
      <path d="M 53.515625 70.515625 
L 53.515625 60.890625 
Q 47.90625 63.578125 42.921875 64.890625 
Q 37.9375 66.21875 33.296875 66.21875 
Q 25.25 66.21875 20.875 63.09375 
Q 16.5 59.96875 16.5 54.203125 
Q 16.5 49.359375 19.40625 46.890625 
Q 22.3125 44.4375 30.421875 42.921875 
L 36.375 41.703125 
Q 47.40625 39.59375 52.65625 34.296875 
Q 57.90625 29 57.90625 20.125 
Q 57.90625 9.515625 50.796875 4.046875 
Q 43.703125 -1.421875 29.984375 -1.421875 
Q 24.8125 -1.421875 18.96875 -0.25 
Q 13.140625 0.921875 6.890625 3.21875 
L 6.890625 13.375 
Q 12.890625 10.015625 18.65625 8.296875 
Q 24.421875 6.59375 29.984375 6.59375 
Q 38.421875 6.59375 43.015625 9.90625 
Q 47.609375 13.234375 47.609375 19.390625 
Q 47.609375 24.75 44.3125 27.78125 
Q 41.015625 30.8125 33.5 32.328125 
L 27.484375 33.5 
Q 16.453125 35.6875 11.515625 40.375 
Q 6.59375 45.0625 6.59375 53.421875 
Q 6.59375 63.09375 13.40625 68.65625 
Q 20.21875 74.21875 32.171875 74.21875 
Q 37.3125 74.21875 42.625 73.28125 
Q 47.953125 72.359375 53.515625 70.515625 
z
" id="DejaVuSans-83"/>
      <path d="M 34.1875 63.1875 
L 20.796875 26.90625 
L 47.609375 26.90625 
z
M 28.609375 72.90625 
L 39.796875 72.90625 
L 67.578125 0 
L 57.328125 0 
L 50.6875 18.703125 
L 17.828125 18.703125 
L 11.1875 0 
L 0.78125 0 
z
" id="DejaVuSans-65"/>
     </defs>
     <g transform="translate(70.2875 23.798437)scale(0.1 -0.1)">
      <use xlink:href="#DejaVuSans-80"/>
      <use x="60.302734" xlink:href="#DejaVuSans-69"/>
      <use x="123.486328" xlink:href="#DejaVuSans-84"/>
      <use x="184.570312" xlink:href="#DejaVuSans-82"/>
      <use x="254.052734" xlink:href="#DejaVuSans-52"/>
      <use x="317.675781" xlink:href="#DejaVuSans-46"/>
      <use x="349.462891" xlink:href="#DejaVuSans-83"/>
      <use x="412.955078" xlink:href="#DejaVuSans-65"/>
     </g>
    </g>
    <g id="line2d_22">
     <path d="M 42.2875 34.976562 
L 62.2875 34.976562 
" style="fill:none;stroke:#ff7f0e;stroke-linecap:square;stroke-width:1.5;"/>
    </g>
    <g id="line2d_23"/>
    <g id="text_20">
     <!-- PETR3.SA -->
     <defs>
      <path d="M 40.578125 39.3125 
Q 47.65625 37.796875 51.625 33 
Q 55.609375 28.21875 55.609375 21.1875 
Q 55.609375 10.40625 48.1875 4.484375 
Q 40.765625 -1.421875 27.09375 -1.421875 
Q 22.515625 -1.421875 17.65625 -0.515625 
Q 12.796875 0.390625 7.625 2.203125 
L 7.625 11.71875 
Q 11.71875 9.328125 16.59375 8.109375 
Q 21.484375 6.890625 26.8125 6.890625 
Q 36.078125 6.890625 40.9375 10.546875 
Q 45.796875 14.203125 45.796875 21.1875 
Q 45.796875 27.640625 41.28125 31.265625 
Q 36.765625 34.90625 28.71875 34.90625 
L 20.21875 34.90625 
L 20.21875 43.015625 
L 29.109375 43.015625 
Q 36.375 43.015625 40.234375 45.921875 
Q 44.09375 48.828125 44.09375 54.296875 
Q 44.09375 59.90625 40.109375 62.90625 
Q 36.140625 65.921875 28.71875 65.921875 
Q 24.65625 65.921875 20.015625 65.03125 
Q 15.375 64.15625 9.8125 62.3125 
L 9.8125 71.09375 
Q 15.4375 72.65625 20.34375 73.4375 
Q 25.25 74.21875 29.59375 74.21875 
Q 40.828125 74.21875 47.359375 69.109375 
Q 53.90625 64.015625 53.90625 55.328125 
Q 53.90625 49.265625 50.4375 45.09375 
Q 46.96875 40.921875 40.578125 39.3125 
z
" id="DejaVuSans-51"/>
     </defs>
     <g transform="translate(70.2875 38.476562)scale(0.1 -0.1)">
      <use xlink:href="#DejaVuSans-80"/>
      <use x="60.302734" xlink:href="#DejaVuSans-69"/>
      <use x="123.486328" xlink:href="#DejaVuSans-84"/>
      <use x="184.570312" xlink:href="#DejaVuSans-82"/>
      <use x="254.052734" xlink:href="#DejaVuSans-51"/>
      <use x="317.675781" xlink:href="#DejaVuSans-46"/>
      <use x="349.462891" xlink:href="#DejaVuSans-83"/>
      <use x="412.955078" xlink:href="#DejaVuSans-65"/>
     </g>
    </g>
   </g>
  </g>
 </g>
 <defs>
  <clipPath id="pf4cc1a5a43">
   <rect height="391.68" width="669.6" x="33.2875" y="7.2"/>
  </clipPath>
 </defs>
</svg>
