<?xml version="1.0" encoding="utf-8" standalone="no"?>
<!DOCTYPE svg PUBLIC "-//W3C//DTD SVG 1.1//EN"
  "http://www.w3.org/Graphics/SVG/1.1/DTD/svg11.dtd">
<!-- Created with matplotlib (https://matplotlib.org/) -->
<svg height="456.031033pt" version="1.1" viewBox="0 0 710.0875 456.031033" width="710.0875pt" xmlns="http://www.w3.org/2000/svg" xmlns:xlink="http://www.w3.org/1999/xlink">
 <defs>
  <style type="text/css">
*{stroke-linecap:butt;stroke-linejoin:round;}
  </style>
 </defs>
 <g id="figure_1">
  <g id="patch_1">
   <path d="M 0 456.031033 
L 710.0875 456.031033 
L 710.0875 0 
L 0 0 
z
" style="fill:none;"/>
  </g>
  <g id="axes_1">
   <g id="patch_2">
    <path d="M 33.2875 398.88 
L 702.8875 398.88 
L 702.8875 7.2 
L 33.2875 7.2 
z
" style="fill:#ffffff;"/>
   </g>
   <g id="matplotlib.axis_1">
    <g id="xtick_1">
     <g id="line2d_1">
      <defs>
       <path d="M 0 0 
L 0 3.5 
" id="m67d036e801" style="stroke:#000000;stroke-width:0.8;"/>
      </defs>
      <g>
       <use style="stroke:#000000;stroke-width:0.8;" x="62.962955" xlink:href="#m67d036e801" y="398.88"/>
      </g>
     </g>
     <g id="text_1">
      <!-- 2018-01 -->
      <defs>
       <path d="M 19.1875 8.296875 
L 53.609375 8.296875 
L 53.609375 0 
L 7.328125 0 
L 7.328125 8.296875 
Q 12.9375 14.109375 22.625 23.890625 
Q 32.328125 33.6875 34.8125 36.53125 
Q 39.546875 41.84375 41.421875 45.53125 
Q 43.3125 49.21875 43.3125 52.78125 
Q 43.3125 58.59375 39.234375 62.25 
Q 35.15625 65.921875 28.609375 65.921875 
Q 23.96875 65.921875 18.8125 64.3125 
Q 13.671875 62.703125 7.8125 59.421875 
L 7.8125 69.390625 
Q 13.765625 71.78125 18.9375 73 
Q 24.125 74.21875 28.421875 74.21875 
Q 39.75 74.21875 46.484375 68.546875 
Q 53.21875 62.890625 53.21875 53.421875 
Q 53.21875 48.921875 51.53125 44.890625 
Q 49.859375 40.875 45.40625 35.40625 
Q 44.1875 33.984375 37.640625 27.21875 
Q 31.109375 20.453125 19.1875 8.296875 
z
" id="DejaVuSans-50"/>
       <path d="M 31.78125 66.40625 
Q 24.171875 66.40625 20.328125 58.90625 
Q 16.5 51.421875 16.5 36.375 
Q 16.5 21.390625 20.328125 13.890625 
Q 24.171875 6.390625 31.78125 6.390625 
Q 39.453125 6.390625 43.28125 13.890625 
Q 47.125 21.390625 47.125 36.375 
Q 47.125 51.421875 43.28125 58.90625 
Q 39.453125 66.40625 31.78125 66.40625 
z
M 31.78125 74.21875 
Q 44.046875 74.21875 50.515625 64.515625 
Q 56.984375 54.828125 56.984375 36.375 
Q 56.984375 17.96875 50.515625 8.265625 
Q 44.046875 -1.421875 31.78125 -1.421875 
Q 19.53125 -1.421875 13.0625 8.265625 
Q 6.59375 17.96875 6.59375 36.375 
Q 6.59375 54.828125 13.0625 64.515625 
Q 19.53125 74.21875 31.78125 74.21875 
z
" id="DejaVuSans-48"/>
       <path d="M 12.40625 8.296875 
L 28.515625 8.296875 
L 28.515625 63.921875 
L 10.984375 60.40625 
L 10.984375 69.390625 
L 28.421875 72.90625 
L 38.28125 72.90625 
L 38.28125 8.296875 
L 54.390625 8.296875 
L 54.390625 0 
L 12.40625 0 
z
" id="DejaVuSans-49"/>
       <path d="M 31.78125 34.625 
Q 24.75 34.625 20.71875 30.859375 
Q 16.703125 27.09375 16.703125 20.515625 
Q 16.703125 13.921875 20.71875 10.15625 
Q 24.75 6.390625 31.78125 6.390625 
Q 38.8125 6.390625 42.859375 10.171875 
Q 46.921875 13.96875 46.921875 20.515625 
Q 46.921875 27.09375 42.890625 30.859375 
Q 38.875 34.625 31.78125 34.625 
z
M 21.921875 38.8125 
Q 15.578125 40.375 12.03125 44.71875 
Q 8.5 49.078125 8.5 55.328125 
Q 8.5 64.0625 14.71875 69.140625 
Q 20.953125 74.21875 31.78125 74.21875 
Q 42.671875 74.21875 48.875 69.140625 
Q 55.078125 64.0625 55.078125 55.328125 
Q 55.078125 49.078125 51.53125 44.71875 
Q 48 40.375 41.703125 38.8125 
Q 48.828125 37.15625 52.796875 32.3125 
Q 56.78125 27.484375 56.78125 20.515625 
Q 56.78125 9.90625 50.3125 4.234375 
Q 43.84375 -1.421875 31.78125 -1.421875 
Q 19.734375 -1.421875 13.25 4.234375 
Q 6.78125 9.90625 6.78125 20.515625 
Q 6.78125 27.484375 10.78125 32.3125 
Q 14.796875 37.15625 21.921875 38.8125 
z
M 18.3125 54.390625 
Q 18.3125 48.734375 21.84375 45.5625 
Q 25.390625 42.390625 31.78125 42.390625 
Q 38.140625 42.390625 41.71875 45.5625 
Q 45.3125 48.734375 45.3125 54.390625 
Q 45.3125 60.0625 41.71875 63.234375 
Q 38.140625 66.40625 31.78125 66.40625 
Q 25.390625 66.40625 21.84375 63.234375 
Q 18.3125 60.0625 18.3125 54.390625 
z
" id="DejaVuSans-56"/>
       <path d="M 4.890625 31.390625 
L 31.203125 31.390625 
L 31.203125 23.390625 
L 4.890625 23.390625 
z
" id="DejaVuSans-45"/>
      </defs>
      <g transform="translate(25.738134 433.351846)rotate(-30)scale(0.1 -0.1)">
       <use xlink:href="#DejaVuSans-50"/>
       <use x="63.623047" xlink:href="#DejaVuSans-48"/>
       <use x="127.246094" xlink:href="#DejaVuSans-49"/>
       <use x="190.869141" xlink:href="#DejaVuSans-56"/>
       <use x="254.492188" xlink:href="#DejaVuSans-45"/>
       <use x="290.576172" xlink:href="#DejaVuSans-48"/>
       <use x="354.199219" xlink:href="#DejaVuSans-49"/>
      </g>
     </g>
    </g>
    <g id="xtick_2">
     <g id="line2d_2">
      <g>
       <use style="stroke:#000000;stroke-width:0.8;" x="131.444773" xlink:href="#m67d036e801" y="398.88"/>
      </g>
     </g>
     <g id="text_2">
      <!-- 2018-04 -->
      <defs>
       <path d="M 37.796875 64.3125 
L 12.890625 25.390625 
L 37.796875 25.390625 
z
M 35.203125 72.90625 
L 47.609375 72.90625 
L 47.609375 25.390625 
L 58.015625 25.390625 
L 58.015625 17.1875 
L 47.609375 17.1875 
L 47.609375 0 
L 37.796875 0 
L 37.796875 17.1875 
L 4.890625 17.1875 
L 4.890625 26.703125 
z
" id="DejaVuSans-52"/>
      </defs>
      <g transform="translate(94.219952 433.351846)rotate(-30)scale(0.1 -0.1)">
       <use xlink:href="#DejaVuSans-50"/>
       <use x="63.623047" xlink:href="#DejaVuSans-48"/>
       <use x="127.246094" xlink:href="#DejaVuSans-49"/>
       <use x="190.869141" xlink:href="#DejaVuSans-56"/>
       <use x="254.492188" xlink:href="#DejaVuSans-45"/>
       <use x="290.576172" xlink:href="#DejaVuSans-48"/>
       <use x="354.199219" xlink:href="#DejaVuSans-52"/>
      </g>
     </g>
    </g>
    <g id="xtick_3">
     <g id="line2d_3">
      <g>
       <use style="stroke:#000000;stroke-width:0.8;" x="200.6875" xlink:href="#m67d036e801" y="398.88"/>
      </g>
     </g>
     <g id="text_3">
      <!-- 2018-07 -->
      <defs>
       <path d="M 8.203125 72.90625 
L 55.078125 72.90625 
L 55.078125 68.703125 
L 28.609375 0 
L 18.3125 0 
L 43.21875 64.59375 
L 8.203125 64.59375 
z
" id="DejaVuSans-55"/>
      </defs>
      <g transform="translate(163.462679 433.351846)rotate(-30)scale(0.1 -0.1)">
       <use xlink:href="#DejaVuSans-50"/>
       <use x="63.623047" xlink:href="#DejaVuSans-48"/>
       <use x="127.246094" xlink:href="#DejaVuSans-49"/>
       <use x="190.869141" xlink:href="#DejaVuSans-56"/>
       <use x="254.492188" xlink:href="#DejaVuSans-45"/>
       <use x="290.576172" xlink:href="#DejaVuSans-48"/>
       <use x="354.199219" xlink:href="#DejaVuSans-55"/>
      </g>
     </g>
    </g>
    <g id="xtick_4">
     <g id="line2d_4">
      <g>
       <use style="stroke:#000000;stroke-width:0.8;" x="270.691136" xlink:href="#m67d036e801" y="398.88"/>
      </g>
     </g>
     <g id="text_4">
      <!-- 2018-10 -->
      <g transform="translate(233.466316 433.351846)rotate(-30)scale(0.1 -0.1)">
       <use xlink:href="#DejaVuSans-50"/>
       <use x="63.623047" xlink:href="#DejaVuSans-48"/>
       <use x="127.246094" xlink:href="#DejaVuSans-49"/>
       <use x="190.869141" xlink:href="#DejaVuSans-56"/>
       <use x="254.492188" xlink:href="#DejaVuSans-45"/>
       <use x="290.576172" xlink:href="#DejaVuSans-49"/>
       <use x="354.199219" xlink:href="#DejaVuSans-48"/>
      </g>
     </g>
    </g>
    <g id="xtick_5">
     <g id="line2d_5">
      <g>
       <use style="stroke:#000000;stroke-width:0.8;" x="340.694773" xlink:href="#m67d036e801" y="398.88"/>
      </g>
     </g>
     <g id="text_5">
      <!-- 2019-01 -->
      <defs>
       <path d="M 10.984375 1.515625 
L 10.984375 10.5 
Q 14.703125 8.734375 18.5 7.8125 
Q 22.3125 6.890625 25.984375 6.890625 
Q 35.75 6.890625 40.890625 13.453125 
Q 46.046875 20.015625 46.78125 33.40625 
Q 43.953125 29.203125 39.59375 26.953125 
Q 35.25 24.703125 29.984375 24.703125 
Q 19.046875 24.703125 12.671875 31.3125 
Q 6.296875 37.9375 6.296875 49.421875 
Q 6.296875 60.640625 12.9375 67.421875 
Q 19.578125 74.21875 30.609375 74.21875 
Q 43.265625 74.21875 49.921875 64.515625 
Q 56.59375 54.828125 56.59375 36.375 
Q 56.59375 19.140625 48.40625 8.859375 
Q 40.234375 -1.421875 26.421875 -1.421875 
Q 22.703125 -1.421875 18.890625 -0.6875 
Q 15.09375 0.046875 10.984375 1.515625 
z
M 30.609375 32.421875 
Q 37.25 32.421875 41.125 36.953125 
Q 45.015625 41.5 45.015625 49.421875 
Q 45.015625 57.28125 41.125 61.84375 
Q 37.25 66.40625 30.609375 66.40625 
Q 23.96875 66.40625 20.09375 61.84375 
Q 16.21875 57.28125 16.21875 49.421875 
Q 16.21875 41.5 20.09375 36.953125 
Q 23.96875 32.421875 30.609375 32.421875 
z
" id="DejaVuSans-57"/>
      </defs>
      <g transform="translate(303.469952 433.351846)rotate(-30)scale(0.1 -0.1)">
       <use xlink:href="#DejaVuSans-50"/>
       <use x="63.623047" xlink:href="#DejaVuSans-48"/>
       <use x="127.246094" xlink:href="#DejaVuSans-49"/>
       <use x="190.869141" xlink:href="#DejaVuSans-57"/>
       <use x="254.492188" xlink:href="#DejaVuSans-45"/>
       <use x="290.576172" xlink:href="#DejaVuSans-48"/>
       <use x="354.199219" xlink:href="#DejaVuSans-49"/>
      </g>
     </g>
    </g>
    <g id="xtick_6">
     <g id="line2d_6">
      <g>
       <use style="stroke:#000000;stroke-width:0.8;" x="409.176591" xlink:href="#m67d036e801" y="398.88"/>
      </g>
     </g>
     <g id="text_6">
      <!-- 2019-04 -->
      <g transform="translate(371.95177 433.351846)rotate(-30)scale(0.1 -0.1)">
       <use xlink:href="#DejaVuSans-50"/>
       <use x="63.623047" xlink:href="#DejaVuSans-48"/>
       <use x="127.246094" xlink:href="#DejaVuSans-49"/>
       <use x="190.869141" xlink:href="#DejaVuSans-57"/>
       <use x="254.492188" xlink:href="#DejaVuSans-45"/>
       <use x="290.576172" xlink:href="#DejaVuSans-48"/>
       <use x="354.199219" xlink:href="#DejaVuSans-52"/>
      </g>
     </g>
    </g>
    <g id="xtick_7">
     <g id="line2d_7">
      <g>
       <use style="stroke:#000000;stroke-width:0.8;" x="478.419318" xlink:href="#m67d036e801" y="398.88"/>
      </g>
     </g>
     <g id="text_7">
      <!-- 2019-07 -->
      <g transform="translate(441.194497 433.351846)rotate(-30)scale(0.1 -0.1)">
       <use xlink:href="#DejaVuSans-50"/>
       <use x="63.623047" xlink:href="#DejaVuSans-48"/>
       <use x="127.246094" xlink:href="#DejaVuSans-49"/>
       <use x="190.869141" xlink:href="#DejaVuSans-57"/>
       <use x="254.492188" xlink:href="#DejaVuSans-45"/>
       <use x="290.576172" xlink:href="#DejaVuSans-48"/>
       <use x="354.199219" xlink:href="#DejaVuSans-55"/>
      </g>
     </g>
    </g>
    <g id="xtick_8">
     <g id="line2d_8">
      <g>
       <use style="stroke:#000000;stroke-width:0.8;" x="548.422955" xlink:href="#m67d036e801" y="398.88"/>
      </g>
     </g>
     <g id="text_8">
      <!-- 2019-10 -->
      <g transform="translate(511.198134 433.351846)rotate(-30)scale(0.1 -0.1)">
       <use xlink:href="#DejaVuSans-50"/>
       <use x="63.623047" xlink:href="#DejaVuSans-48"/>
       <use x="127.246094" xlink:href="#DejaVuSans-49"/>
       <use x="190.869141" xlink:href="#DejaVuSans-57"/>
       <use x="254.492188" xlink:href="#DejaVuSans-45"/>
       <use x="290.576172" xlink:href="#DejaVuSans-49"/>
       <use x="354.199219" xlink:href="#DejaVuSans-48"/>
      </g>
     </g>
    </g>
    <g id="xtick_9">
     <g id="line2d_9">
      <g>
       <use style="stroke:#000000;stroke-width:0.8;" x="618.426591" xlink:href="#m67d036e801" y="398.88"/>
      </g>
     </g>
     <g id="text_9">
      <!-- 2020-01 -->
      <g transform="translate(581.20177 433.351846)rotate(-30)scale(0.1 -0.1)">
       <use xlink:href="#DejaVuSans-50"/>
       <use x="63.623047" xlink:href="#DejaVuSans-48"/>
       <use x="127.246094" xlink:href="#DejaVuSans-50"/>
       <use x="190.869141" xlink:href="#DejaVuSans-48"/>
       <use x="254.492188" xlink:href="#DejaVuSans-45"/>
       <use x="290.576172" xlink:href="#DejaVuSans-48"/>
       <use x="354.199219" xlink:href="#DejaVuSans-49"/>
      </g>
     </g>
    </g>
    <g id="xtick_10">
     <g id="line2d_10">
      <g>
       <use style="stroke:#000000;stroke-width:0.8;" x="687.669318" xlink:href="#m67d036e801" y="398.88"/>
      </g>
     </g>
     <g id="text_10">
      <!-- 2020-04 -->
      <g transform="translate(650.444497 433.351846)rotate(-30)scale(0.1 -0.1)">
       <use xlink:href="#DejaVuSans-50"/>
       <use x="63.623047" xlink:href="#DejaVuSans-48"/>
       <use x="127.246094" xlink:href="#DejaVuSans-50"/>
       <use x="190.869141" xlink:href="#DejaVuSans-48"/>
       <use x="254.492188" xlink:href="#DejaVuSans-45"/>
       <use x="290.576172" xlink:href="#DejaVuSans-48"/>
       <use x="354.199219" xlink:href="#DejaVuSans-52"/>
      </g>
     </g>
    </g>
    <g id="text_11">
     <!-- Date -->
     <defs>
      <path d="M 19.671875 64.796875 
L 19.671875 8.109375 
L 31.59375 8.109375 
Q 46.6875 8.109375 53.6875 14.9375 
Q 60.6875 21.78125 60.6875 36.53125 
Q 60.6875 51.171875 53.6875 57.984375 
Q 46.6875 64.796875 31.59375 64.796875 
z
M 9.8125 72.90625 
L 30.078125 72.90625 
Q 51.265625 72.90625 61.171875 64.09375 
Q 71.09375 55.28125 71.09375 36.53125 
Q 71.09375 17.671875 61.125 8.828125 
Q 51.171875 0 30.078125 0 
L 9.8125 0 
z
" id="DejaVuSans-68"/>
      <path d="M 34.28125 27.484375 
Q 23.390625 27.484375 19.1875 25 
Q 14.984375 22.515625 14.984375 16.5 
Q 14.984375 11.71875 18.140625 8.90625 
Q 21.296875 6.109375 26.703125 6.109375 
Q 34.1875 6.109375 38.703125 11.40625 
Q 43.21875 16.703125 43.21875 25.484375 
L 43.21875 27.484375 
z
M 52.203125 31.203125 
L 52.203125 0 
L 43.21875 0 
L 43.21875 8.296875 
Q 40.140625 3.328125 35.546875 0.953125 
Q 30.953125 -1.421875 24.3125 -1.421875 
Q 15.921875 -1.421875 10.953125 3.296875 
Q 6 8.015625 6 15.921875 
Q 6 25.140625 12.171875 29.828125 
Q 18.359375 34.515625 30.609375 34.515625 
L 43.21875 34.515625 
L 43.21875 35.40625 
Q 43.21875 41.609375 39.140625 45 
Q 35.0625 48.390625 27.6875 48.390625 
Q 23 48.390625 18.546875 47.265625 
Q 14.109375 46.140625 10.015625 43.890625 
L 10.015625 52.203125 
Q 14.9375 54.109375 19.578125 55.046875 
Q 24.21875 56 28.609375 56 
Q 40.484375 56 46.34375 49.84375 
Q 52.203125 43.703125 52.203125 31.203125 
z
" id="DejaVuSans-97"/>
      <path d="M 18.3125 70.21875 
L 18.3125 54.6875 
L 36.8125 54.6875 
L 36.8125 47.703125 
L 18.3125 47.703125 
L 18.3125 18.015625 
Q 18.3125 11.328125 20.140625 9.421875 
Q 21.96875 7.515625 27.59375 7.515625 
L 36.8125 7.515625 
L 36.8125 0 
L 27.59375 0 
Q 17.1875 0 13.234375 3.875 
Q 9.28125 7.765625 9.28125 18.015625 
L 9.28125 47.703125 
L 2.6875 47.703125 
L 2.6875 54.6875 
L 9.28125 54.6875 
L 9.28125 70.21875 
z
" id="DejaVuSans-116"/>
      <path d="M 56.203125 29.59375 
L 56.203125 25.203125 
L 14.890625 25.203125 
Q 15.484375 15.921875 20.484375 11.0625 
Q 25.484375 6.203125 34.421875 6.203125 
Q 39.59375 6.203125 44.453125 7.46875 
Q 49.3125 8.734375 54.109375 11.28125 
L 54.109375 2.78125 
Q 49.265625 0.734375 44.1875 -0.34375 
Q 39.109375 -1.421875 33.890625 -1.421875 
Q 20.796875 -1.421875 13.15625 6.1875 
Q 5.515625 13.8125 5.515625 26.8125 
Q 5.515625 40.234375 12.765625 48.109375 
Q 20.015625 56 32.328125 56 
Q 43.359375 56 49.78125 48.890625 
Q 56.203125 41.796875 56.203125 29.59375 
z
M 47.21875 32.234375 
Q 47.125 39.59375 43.09375 43.984375 
Q 39.0625 48.390625 32.421875 48.390625 
Q 24.90625 48.390625 20.390625 44.140625 
Q 15.875 39.890625 15.1875 32.171875 
z
" id="DejaVuSans-101"/>
     </defs>
     <g transform="translate(356.136719 446.751346)scale(0.1 -0.1)">
      <use xlink:href="#DejaVuSans-68"/>
      <use x="77.001953" xlink:href="#DejaVuSans-97"/>
      <use x="138.28125" xlink:href="#DejaVuSans-116"/>
      <use x="177.490234" xlink:href="#DejaVuSans-101"/>
     </g>
    </g>
   </g>
   <g id="matplotlib.axis_2">
    <g id="ytick_1">
     <g id="line2d_11">
      <defs>
       <path d="M 0 0 
L -3.5 0 
" id="mdaee01ec3d" style="stroke:#000000;stroke-width:0.8;"/>
      </defs>
      <g>
       <use style="stroke:#000000;stroke-width:0.8;" x="33.2875" xlink:href="#mdaee01ec3d" y="369.90927"/>
      </g>
     </g>
     <g id="text_12">
      <!-- 50 -->
      <defs>
       <path d="M 10.796875 72.90625 
L 49.515625 72.90625 
L 49.515625 64.59375 
L 19.828125 64.59375 
L 19.828125 46.734375 
Q 21.96875 47.46875 24.109375 47.828125 
Q 26.265625 48.1875 28.421875 48.1875 
Q 40.625 48.1875 47.75 41.5 
Q 54.890625 34.8125 54.890625 23.390625 
Q 54.890625 11.625 47.5625 5.09375 
Q 40.234375 -1.421875 26.90625 -1.421875 
Q 22.3125 -1.421875 17.546875 -0.640625 
Q 12.796875 0.140625 7.71875 1.703125 
L 7.71875 11.625 
Q 12.109375 9.234375 16.796875 8.0625 
Q 21.484375 6.890625 26.703125 6.890625 
Q 35.15625 6.890625 40.078125 11.328125 
Q 45.015625 15.765625 45.015625 23.390625 
Q 45.015625 31 40.078125 35.4375 
Q 35.15625 39.890625 26.703125 39.890625 
Q 22.75 39.890625 18.8125 39.015625 
Q 14.890625 38.140625 10.796875 36.28125 
z
" id="DejaVuSans-53"/>
      </defs>
      <g transform="translate(13.5625 373.708488)scale(0.1 -0.1)">
       <use xlink:href="#DejaVuSans-53"/>
       <use x="63.623047" xlink:href="#DejaVuSans-48"/>
      </g>
     </g>
    </g>
    <g id="ytick_2">
     <g id="line2d_12">
      <g>
       <use style="stroke:#000000;stroke-width:0.8;" x="33.2875" xlink:href="#mdaee01ec3d" y="308.432524"/>
      </g>
     </g>
     <g id="text_13">
      <!-- 100 -->
      <g transform="translate(7.2 312.231743)scale(0.1 -0.1)">
       <use xlink:href="#DejaVuSans-49"/>
       <use x="63.623047" xlink:href="#DejaVuSans-48"/>
       <use x="127.246094" xlink:href="#DejaVuSans-48"/>
      </g>
     </g>
    </g>
    <g id="ytick_3">
     <g id="line2d_13">
      <g>
       <use style="stroke:#000000;stroke-width:0.8;" x="33.2875" xlink:href="#mdaee01ec3d" y="246.955779"/>
      </g>
     </g>
     <g id="text_14">
      <!-- 150 -->
      <g transform="translate(7.2 250.754998)scale(0.1 -0.1)">
       <use xlink:href="#DejaVuSans-49"/>
       <use x="63.623047" xlink:href="#DejaVuSans-53"/>
       <use x="127.246094" xlink:href="#DejaVuSans-48"/>
      </g>
     </g>
    </g>
    <g id="ytick_4">
     <g id="line2d_14">
      <g>
       <use style="stroke:#000000;stroke-width:0.8;" x="33.2875" xlink:href="#mdaee01ec3d" y="185.479033"/>
      </g>
     </g>
     <g id="text_15">
      <!-- 200 -->
      <g transform="translate(7.2 189.278252)scale(0.1 -0.1)">
       <use xlink:href="#DejaVuSans-50"/>
       <use x="63.623047" xlink:href="#DejaVuSans-48"/>
       <use x="127.246094" xlink:href="#DejaVuSans-48"/>
      </g>
     </g>
    </g>
    <g id="ytick_5">
     <g id="line2d_15">
      <g>
       <use style="stroke:#000000;stroke-width:0.8;" x="33.2875" xlink:href="#mdaee01ec3d" y="124.002288"/>
      </g>
     </g>
     <g id="text_16">
      <!-- 250 -->
      <g transform="translate(7.2 127.801507)scale(0.1 -0.1)">
       <use xlink:href="#DejaVuSans-50"/>
       <use x="63.623047" xlink:href="#DejaVuSans-53"/>
       <use x="127.246094" xlink:href="#DejaVuSans-48"/>
      </g>
     </g>
    </g>
    <g id="ytick_6">
     <g id="line2d_16">
      <g>
       <use style="stroke:#000000;stroke-width:0.8;" x="33.2875" xlink:href="#mdaee01ec3d" y="62.525542"/>
      </g>
     </g>
     <g id="text_17">
      <!-- 300 -->
      <defs>
       <path d="M 40.578125 39.3125 
Q 47.65625 37.796875 51.625 33 
Q 55.609375 28.21875 55.609375 21.1875 
Q 55.609375 10.40625 48.1875 4.484375 
Q 40.765625 -1.421875 27.09375 -1.421875 
Q 22.515625 -1.421875 17.65625 -0.515625 
Q 12.796875 0.390625 7.625 2.203125 
L 7.625 11.71875 
Q 11.71875 9.328125 16.59375 8.109375 
Q 21.484375 6.890625 26.8125 6.890625 
Q 36.078125 6.890625 40.9375 10.546875 
Q 45.796875 14.203125 45.796875 21.1875 
Q 45.796875 27.640625 41.28125 31.265625 
Q 36.765625 34.90625 28.71875 34.90625 
L 20.21875 34.90625 
L 20.21875 43.015625 
L 29.109375 43.015625 
Q 36.375 43.015625 40.234375 45.921875 
Q 44.09375 48.828125 44.09375 54.296875 
Q 44.09375 59.90625 40.109375 62.90625 
Q 36.140625 65.921875 28.71875 65.921875 
Q 24.65625 65.921875 20.015625 65.03125 
Q 15.375 64.15625 9.8125 62.3125 
L 9.8125 71.09375 
Q 15.4375 72.65625 20.34375 73.4375 
Q 25.25 74.21875 29.59375 74.21875 
Q 40.828125 74.21875 47.359375 69.109375 
Q 53.90625 64.015625 53.90625 55.328125 
Q 53.90625 49.265625 50.4375 45.09375 
Q 46.96875 40.921875 40.578125 39.3125 
z
" id="DejaVuSans-51"/>
      </defs>
      <g transform="translate(7.2 66.324761)scale(0.1 -0.1)">
       <use xlink:href="#DejaVuSans-51"/>
       <use x="63.623047" xlink:href="#DejaVuSans-48"/>
       <use x="127.246094" xlink:href="#DejaVuSans-48"/>
      </g>
     </g>
    </g>
   </g>
   <g id="line2d_17">
    <path clip-path="url(#pf9de69b44f)" d="M 63.723864 308.432524 
L 64.484773 311.110726 
L 65.245682 310.867254 
L 66.006591 309.893367 
L 68.289318 309.649895 
L 69.050227 313.788928 
L 69.811136 313.545444 
L 70.572045 312.328085 
L 71.332955 311.841141 
L 73.615682 312.206343 
L 74.376591 313.301984 
L 75.1375 312.571557 
L 75.898409 314.032388 
L 76.659318 313.301984 
L 78.942045 312.693299 
L 79.702955 315.128017 
L 80.463864 310.988984 
L 81.224773 310.988984 
L 81.985682 309.162951 
L 84.268409 307.458649 
L 85.029318 307.702109 
L 85.790227 309.04121 
L 86.551136 307.336919 
L 87.312045 309.771625 
L 89.594773 311.110726 
L 90.355682 310.38031 
L 91.116591 311.475928 
L 91.8775 314.519331 
L 92.638409 313.910658 
L 97.203864 313.788928 
L 97.964773 314.519331 
L 100.2475 314.032388 
L 101.008409 312.206343 
L 101.769318 309.771625 
L 102.530227 306.728233 
L 103.291136 305.997806 
L 105.573864 310.502041 
L 106.334773 311.110726 
L 107.856591 310.258569 
L 108.6175 309.649895 
L 110.900227 315.736702 
L 112.422045 316.83232 
L 113.182955 317.562735 
L 113.943864 312.449815 
L 116.226591 307.458649 
L 116.9875 304.780459 
L 117.748409 308.067322 
L 118.509318 312.084613 
L 119.270227 314.27586 
L 121.552955 312.449815 
L 122.313864 313.180242 
L 123.074773 314.154118 
L 123.835682 314.397601 
L 124.596591 316.588848 
L 126.879318 316.83232 
L 128.401136 323.040868 
L 129.162045 317.562735 
L 132.205682 316.954061 
L 132.966591 320.606139 
L 133.7275 320.606139 
L 134.488409 322.675655 
L 135.249318 320.606139 
L 138.292955 322.310453 
L 139.053864 319.632251 
L 139.814773 317.806219 
L 140.575682 320.362667 
L 142.858409 322.188711 
L 143.619318 321.580026 
L 144.380227 319.388791 
L 145.141136 320.606139 
L 145.902045 319.753993 
L 148.184773 319.388791 
L 148.945682 320.362667 
L 149.706591 322.188711 
L 150.4675 319.145308 
L 151.228409 322.432183 
L 153.511136 324.866901 
L 155.032955 325.395904 
L 155.793864 328.455662 
L 156.554773 330.413908 
L 158.8375 330.903478 
L 159.598409 331.760199 
L 160.359318 327.843708 
L 161.120227 322.213751 
L 161.881136 322.703309 
L 164.163864 320.867459 
L 164.924773 318.786818 
L 165.685682 316.094235 
L 166.446591 317.685306 
L 167.2075 315.72706 
L 169.490227 314.258373 
L 171.012045 315.115106 
L 171.772955 315.237502 
L 172.533864 313.768814 
L 174.816591 315.604665 
L 175.5775 319.521156 
L 176.338409 322.091355 
L 177.860227 320.867459 
L 180.142955 321.601797 
L 180.903864 326.007858 
L 181.664773 325.151113 
L 182.425682 327.966104 
L 183.186591 323.682438 
L 186.230227 324.661555 
L 186.991136 323.682438 
L 187.752045 323.804833 
L 188.512955 324.661555 
L 190.795682 322.091355 
L 191.556591 319.765947 
L 192.3175 319.888342 
L 193.078409 317.318143 
L 193.839318 317.195747 
L 196.122045 315.482281 
L 196.882955 317.195747 
L 198.404773 322.213751 
L 199.165682 317.56291 
L 201.448409 317.685306 
L 202.209318 317.56291 
L 202.970227 313.40164 
L 203.731136 314.503152 
L 204.492045 317.073352 
L 207.535682 310.953836 
L 208.296591 315.237502 
L 209.0575 314.870315 
L 209.818409 316.339014 
L 212.101136 313.279256 
L 212.862045 309.362753 
L 213.622955 311.198615 
L 214.383864 311.076219 
L 215.144773 313.646419 
L 217.4275 315.72706 
L 218.188409 314.625548 
L 218.949318 310.953836 
L 219.710227 313.768814 
L 220.471136 313.524035 
L 222.753864 320.010714 
L 223.514773 320.989843 
L 224.275682 320.255505 
L 225.7975 317.073352 
L 228.841136 321.846588 
L 229.602045 322.091355 
L 230.362955 326.375033 
L 231.123864 329.801954 
L 233.406591 325.028741 
L 234.928409 319.153993 
L 235.689318 322.703309 
L 236.450227 322.580914 
L 238.732955 324.049601 
L 239.493864 321.846588 
L 240.254773 315.849455 
L 241.015682 318.542039 
L 241.776591 315.237502 
L 244.059318 313.891198 
L 244.820227 315.115106 
L 245.581136 315.115106 
L 246.342045 318.05248 
L 247.102955 316.339014 
L 249.385682 315.237502 
L 250.146591 317.56291 
L 250.9075 316.950956 
L 251.668409 318.05248 
L 254.712045 316.094235 
L 255.472955 315.971839 
L 256.233864 318.174864 
L 256.994773 320.010714 
L 257.755682 319.643551 
L 260.038409 317.440515 
L 260.799318 311.810557 
L 261.560227 314.258373 
L 262.321136 318.05248 
L 263.082045 317.56291 
L 265.364773 319.398772 
L 266.886591 314.992711 
L 267.6475 314.380757 
L 268.408409 316.583793 
L 270.691136 317.685306 
L 271.452045 317.440515 
L 272.212955 317.807701 
L 272.973864 323.192879 
L 273.734773 325.5183 
L 276.0175 322.703309 
L 277.539318 322.213751 
L 278.300227 319.521156 
L 281.343864 318.542039 
L 282.104773 316.828572 
L 282.865682 316.339014 
L 283.626591 314.380757 
L 284.3875 313.15686 
L 286.670227 310.586661 
L 287.431136 306.67017 
L 288.192045 310.219498 
L 288.952955 308.873195 
L 289.713864 308.628415 
L 291.996591 311.810557 
L 292.7575 305.323866 
L 293.518409 305.93582 
L 294.279318 306.792554 
L 297.322955 303.610412 
L 298.083864 305.568657 
L 298.844773 302.264108 
L 299.605682 305.446262 
L 300.366591 309.485149 
L 302.649318 309.485149 
L 303.410227 310.83144 
L 304.171136 291.860927 
L 305.692955 294.063951 
L 307.975682 298.592396 
L 309.4975 292.840055 
L 310.258409 294.920696 
L 311.019318 298.470013 
L 313.302045 295.287859 
L 314.062955 291.248973 
L 314.823864 290.514623 
L 315.584773 287.577261 
L 316.345682 287.33247 
L 318.628409 285.007061 
L 319.389318 290.88181 
L 320.150227 283.171211 
L 320.911136 282.069699 
L 321.672045 283.905549 
L 323.954773 287.577261 
L 324.715682 292.472869 
L 325.476591 290.514623 
L 326.2375 284.517503 
L 326.998409 283.538374 
L 329.281136 285.741411 
L 330.042045 285.49662 
L 330.802955 290.14746 
L 331.563864 291.860927 
L 332.324773 287.454865 
L 336.129318 290.637019 
L 336.890227 293.084823 
L 337.651136 289.535506 
L 341.455682 284.027944 
L 342.216591 281.702524 
L 342.9775 277.786021 
L 345.260227 283.171211 
L 346.021136 280.845779 
L 346.782045 282.069699 
L 347.542955 282.559257 
L 348.303864 278.642766 
L 350.586591 276.072566 
L 351.3475 276.9293 
L 352.108409 270.442609 
L 352.869318 267.382839 
L 353.630227 265.791768 
L 355.912955 263.711127 
L 356.673864 264.935023 
L 357.434773 259.060287 
L 358.195682 254.287062 
L 361.239318 250.248176 
L 362.000227 251.472084 
L 362.761136 244.12866 
L 364.282955 249.391443 
L 366.565682 247.555581 
L 367.326591 248.045163 
L 368.0875 259.672241 
L 368.848409 256.000529 
L 369.609318 256.979657 
L 371.892045 255.755749 
L 372.652955 253.307934 
L 373.413864 255.388575 
L 374.174773 253.919888 
L 374.935682 250.003408 
L 377.218409 247.800372 
L 377.979318 250.370571 
L 378.740227 257.224437 
L 379.501136 261.018532 
L 380.262045 257.469216 
L 382.544773 260.406578 
L 383.305682 263.711127 
L 384.066591 262.976778 
L 384.8275 267.015664 
L 385.588409 258.570728 
L 390.153864 271.421726 
L 390.914773 270.442609 
L 393.1975 269.218701 
L 394.719318 258.570728 
L 395.480227 255.143796 
L 396.241136 249.636222 
L 398.523864 241.06889 
L 399.284773 247.922767 
L 400.045682 248.045163 
L 401.5675 256.490087 
L 403.850227 254.654237 
L 404.611136 246.331685 
L 405.372045 252.451212 
L 406.132955 242.048019 
L 406.893864 236.540445 
L 409.176591 232.746349 
L 409.9375 237.274794 
L 410.698409 240.456936 
L 411.459318 238.253923 
L 412.220227 228.217892 
L 414.502955 220.262526 
L 415.263864 224.546192 
L 416.024773 221.975993 
L 416.785682 224.668576 
L 417.546591 215.489302 
L 419.829318 211.939962 
L 420.590227 193.336623 
L 421.351136 197.620289 
L 422.112045 208.145878 
L 425.155682 198.966581 
L 425.916591 190.032098 
L 426.6775 198.599406 
L 427.438409 180.608033 
L 428.199318 194.927706 
L 430.482045 194.560531 
L 431.242955 189.420132 
L 432.764773 192.452761 
L 433.525682 180.212328 
L 435.808409 182.905238 
L 436.569318 189.392653 
L 437.330227 184.618891 
L 438.091136 176.785022 
L 438.852045 186.210137 
L 441.134773 189.759874 
L 441.895682 169.563165 
L 443.4175 153.650588 
L 444.178409 142.879017 
L 446.461136 137.49322 
L 447.222045 156.710696 
L 447.982955 154.140217 
L 448.743864 158.791571 
L 449.504773 147.163174 
L 451.7875 155.85387 
L 452.548409 154.752229 
L 453.309318 172.256052 
L 454.070227 158.791571 
L 454.831136 163.810146 
L 457.113864 171.644039 
L 457.874773 157.567523 
L 458.635682 161.239667 
L 459.396591 162.2189 
L 460.1575 166.380649 
L 462.440227 161.851679 
L 463.201136 164.544589 
L 463.962045 160.505247 
L 464.722955 167.604697 
L 465.483864 172.74568 
L 467.766591 175.805788 
L 468.5275 179.355502 
L 469.288409 171.276818 
L 470.810227 161.239667 
L 473.092955 164.666973 
L 473.853864 163.320541 
L 474.614773 171.399225 
L 475.375682 173.235285 
L 476.136591 171.644039 
L 478.419318 157.322732 
L 479.180227 148.632012 
L 479.941136 148.632012 
L 480.702045 143.980658 
L 481.462955 134.065891 
L 483.745682 131.373004 
L 485.2675 120.846224 
L 486.028409 132.719459 
L 486.789318 139.451688 
L 489.072045 130.148956 
L 489.832955 139.451688 
L 490.593864 143.858251 
L 491.354773 140.063724 
L 492.115682 138.839676 
L 494.398409 127.211255 
L 495.159318 117.786116 
L 495.920227 113.869181 
L 496.681136 120.601433 
L 497.442045 122.682308 
L 499.724773 124.640775 
L 500.485682 121.703074 
L 501.246591 126.599243 
L 502.0075 111.910714 
L 502.768409 109.952247 
L 505.051136 114.848415 
L 505.812045 103.097611 
L 506.572955 104.076844 
L 507.333864 103.342425 
L 508.094773 95.753346 
L 510.3775 76.413464 
L 511.138409 89.021118 
L 511.899318 96.610173 
L 512.660227 81.064818 
L 513.421136 75.189416 
L 515.703864 77.637511 
L 516.464773 80.820027 
L 517.225682 73.353355 
L 517.986591 75.679044 
L 518.7475 92.938053 
L 521.030227 91.958819 
L 521.791136 90.489957 
L 523.312955 70.905259 
L 524.073864 68.579594 
L 526.356591 74.454996 
L 527.1175 77.025476 
L 527.878409 65.397079 
L 528.639318 61.23533 
L 529.400227 63.438611 
L 531.682955 76.413464 
L 532.443864 76.413464 
L 533.204773 81.309632 
L 533.965682 75.189416 
L 534.726591 66.253905 
L 537.009318 67.355546 
L 537.770227 69.681235 
L 538.531136 70.782876 
L 539.292045 68.579594 
L 540.052955 53.156646 
L 542.335682 55.604718 
L 543.096591 28.920571 
L 543.8575 25.003636 
L 545.379318 34.183961 
L 547.662045 30.022212 
L 548.422955 28.063745 
L 549.183864 45.812381 
L 549.944773 40.916213 
L 550.705682 45.200369 
L 552.988409 50.953364 
L 553.749318 56.216754 
L 554.510227 70.905259 
L 555.271136 74.577403 
L 556.032045 71.517295 
L 558.314773 76.413464 
L 559.075682 75.189416 
L 559.836591 72.251715 
L 560.5975 74.69981 
L 561.358409 75.923835 
L 563.641136 66.009091 
L 564.402045 61.112923 
L 565.923864 75.189416 
L 566.684773 84.36974 
L 568.9675 79.595979 
L 569.728409 82.288866 
L 570.489318 77.27029 
L 571.250227 85.10416 
L 572.011136 84.736962 
L 574.293864 73.965368 
L 575.054773 87.79707 
L 575.815682 105.790498 
L 576.576591 99.058269 
L 577.3375 93.672472 
L 579.620227 90.979585 
L 580.381136 94.529298 
L 581.142045 101.873563 
L 581.902955 110.319468 
L 584.946591 104.076844 
L 585.7075 107.014546 
L 587.229318 117.296511 
L 587.990227 120.479026 
L 590.272955 90.612364 
L 591.033864 98.935862 
L 591.794773 93.550065 
L 592.555682 80.69762 
L 593.316591 82.778494 
L 595.599318 86.2058 
L 596.360227 88.409082 
L 597.121136 98.079035 
L 597.882045 94.1621 
L 598.642955 95.386125 
L 600.925682 106.647324 
L 602.4475 119.866991 
L 603.208409 122.315087 
L 603.969318 117.541325 
L 606.252045 119.254978 
L 607.012955 125.497602 
L 607.773864 114.603624 
L 608.534773 110.074654 
L 609.295682 113.134762 
L 611.578409 109.217827 
L 613.861136 107.136953 
L 614.622045 108.238594 
L 616.904773 115.582858 
L 619.1875 98.446233 
L 619.948409 95.141334 
L 622.231136 103.097611 
L 622.992045 97.222209 
L 623.752955 89.021118 
L 624.513864 84.859369 
L 625.274773 86.695429 
L 627.5575 79.718386 
L 628.318409 80.085584 
L 629.079318 81.187225 
L 629.840227 78.739152 
L 630.601136 67.233139 
L 632.883864 66.376312 
L 633.644773 63.07139 
L 634.405682 63.561018 
L 635.166591 66.376312 
L 635.9275 72.741343 
L 638.210227 97.222209 
L 638.971136 86.328208 
L 639.732045 96.120568 
L 640.492955 101.506341 
L 641.253864 93.794879 
L 643.536591 87.185034 
L 644.2975 95.018927 
L 645.058409 98.201442 
L 645.819318 103.464809 
L 646.580227 117.174104 
L 648.862955 119.132571 
L 649.623864 113.62439 
L 650.384773 115.460451 
L 651.145682 109.585025 
L 651.906591 115.827649 
L 654.189318 115.460451 
L 654.950227 116.806882 
L 655.711136 103.342425 
L 656.472045 115.705242 
L 657.232955 113.379576 
L 661.798409 154.874636 
L 662.559318 153.528181 
L 664.842045 144.715078 
L 665.602955 153.772995 
L 666.363864 141.287748 
L 667.124773 159.648397 
L 667.885682 174.214519 
L 670.168409 211.058225 
L 670.929318 177.274627 
L 672.451136 226.358766 
L 672.451136 226.358766 
" style="fill:none;stroke:#1f77b4;stroke-linecap:square;stroke-width:1.5;"/>
   </g>
   <g id="line2d_18">
    <path clip-path="url(#pf9de69b44f)" d="M 63.723864 308.432524 
L 64.484773 309.779966 
L 65.245682 309.779966 
L 66.006591 308.769383 
L 68.289318 310.958967 
L 69.050227 312.474835 
L 69.811136 312.64326 
L 70.572045 312.474835 
L 71.332955 315.506562 
L 73.615682 316.180279 
L 74.376591 318.369864 
L 75.1375 316.011854 
L 75.898409 318.706722 
L 76.659318 318.538297 
L 78.942045 320.22259 
L 79.702955 323.591175 
L 80.463864 315.674995 
L 81.224773 315.674995 
L 81.985682 317.527713 
L 84.268409 317.022429 
L 85.029318 316.011854 
L 85.790227 316.685571 
L 86.551136 316.853996 
L 87.312045 319.548872 
L 89.594773 321.233165 
L 90.355682 318.538297 
L 91.116591 321.906882 
L 91.8775 323.254316 
L 92.638409 323.254316 
L 97.203864 326.791335 
L 97.964773 328.812487 
L 100.2475 327.296627 
L 101.008409 329.317778 
L 101.769318 326.959769 
L 102.530227 328.644061 
L 103.291136 328.98092 
L 105.573864 328.307203 
L 107.095682 330.833646 
L 107.856591 328.644061 
L 108.6175 324.938609 
L 110.900227 325.949185 
L 111.661136 330.496787 
L 112.422045 334.033798 
L 113.182955 334.370657 
L 113.943864 330.496787 
L 116.9875 328.644061 
L 117.748409 330.159921 
L 118.509318 336.223383 
L 119.270227 336.223383 
L 121.552955 337.402392 
L 122.313864 338.244534 
L 123.074773 336.223383 
L 123.835682 335.38124 
L 124.596591 335.38124 
L 126.879318 332.012647 
L 127.640227 336.560241 
L 128.401136 333.191656 
L 129.162045 331.33893 
L 132.205682 333.191656 
L 133.7275 329.317778 
L 134.488409 326.117618 
L 135.249318 326.62291 
L 137.532045 306.916665 
L 138.292955 284.85241 
L 139.053864 293.273882 
L 139.814773 291.25273 
L 140.575682 291.589581 
L 142.858409 293.273882 
L 143.619318 294.452882 
L 144.380227 295.295033 
L 145.141136 297.147759 
L 145.902045 293.947599 
L 148.184773 293.610732 
L 148.945682 295.295033 
L 149.706591 298.832052 
L 150.4675 296.642467 
L 153.511136 297.989901 
L 155.032955 300.011052 
L 155.793864 303.548071 
L 156.554773 297.316184 
L 159.598409 302.36907 
L 160.359318 293.779165 
L 161.120227 295.463466 
L 161.881136 298.495193 
L 164.163864 299.000477 
L 164.924773 297.821476 
L 165.685682 295.463466 
L 166.446591 299.505769 
L 167.2075 298.663618 
L 169.490227 302.200637 
L 170.251136 298.32676 
L 171.012045 288.220995 
L 171.772955 290.74743 
L 172.533864 292.431731 
L 174.816591 295.463466 
L 175.5775 295.1266 
L 176.338409 298.158334 
L 177.860227 296.979326 
L 180.142955 294.958166 
L 180.903864 296.642467 
L 181.664773 294.958166 
L 182.425682 295.96875 
L 183.186591 290.915864 
L 185.469318 293.442315 
L 186.230227 289.063146 
L 186.991136 288.220995 
L 187.752045 289.736863 
L 188.512955 292.768598 
L 190.795682 293.273882 
L 191.556591 294.284449 
L 192.3175 296.642467 
L 193.078409 300.011052 
L 193.839318 296.979326 
L 196.122045 295.1266 
L 196.882955 297.484617 
L 197.643864 296.474034 
L 198.404773 294.789749 
L 199.165682 294.284449 
L 201.448409 293.779165 
L 202.209318 293.105448 
L 202.970227 285.862977 
L 203.731136 286.873561 
L 204.492045 291.084297 
L 207.535682 290.915864 
L 208.296591 292.937015 
L 209.0575 293.610732 
L 209.818409 295.800317 
L 212.101136 298.158334 
L 212.862045 292.600164 
L 213.622955 295.800317 
L 214.383864 296.474034 
L 215.144773 294.621316 
L 217.4275 297.316184 
L 218.188409 296.642467 
L 218.949318 293.947599 
L 219.710227 297.484617 
L 220.471136 298.32676 
L 222.753864 294.284449 
L 223.514773 293.273882 
L 224.275682 294.452882 
L 225.036591 294.621316 
L 225.7975 292.768598 
L 228.080227 294.958166 
L 230.362955 310.622109 
L 231.123864 310.622109 
L 233.406591 305.400797 
L 234.1675 310.790542 
L 234.928409 318.538297 
L 235.689318 315.506562 
L 236.450227 326.286051 
L 238.732955 322.580599 
L 239.493864 322.917458 
L 240.254773 322.580599 
L 241.015682 324.433325 
L 241.776591 325.275468 
L 244.059318 327.128194 
L 244.820227 331.33893 
L 245.581136 330.328354 
L 246.342045 333.528514 
L 247.102955 335.044382 
L 249.385682 337.065533 
L 250.146591 334.875948 
L 250.9075 336.391816 
L 251.668409 335.38124 
L 254.712045 335.886524 
L 255.472955 338.749826 
L 256.233864 340.434119 
L 256.994773 345.150146 
L 257.755682 345.318572 
L 260.038409 343.465854 
L 260.799318 343.128995 
L 261.560227 344.644854 
L 262.321136 345.487005 
L 263.082045 342.792128 
L 265.364773 344.644854 
L 266.125682 344.139571 
L 266.886591 343.465854 
L 267.6475 340.602552 
L 268.408409 342.118411 
L 270.691136 343.802712 
L 271.452045 342.45527 
L 272.973864 344.139571 
L 273.734773 344.307996 
L 276.0175 340.434119 
L 276.778409 333.528514 
L 278.300227 337.570817 
L 281.343864 336.560241 
L 282.104773 332.517939 
L 282.865682 327.801911 
L 283.626591 329.823062 
L 284.3875 329.654637 
L 286.670227 327.296627 
L 287.431136 326.117618 
L 288.192045 326.791335 
L 288.952955 327.128194 
L 289.713864 324.938609 
L 291.996591 326.959769 
L 292.7575 324.096467 
L 293.518409 323.42275 
L 294.279318 321.906882 
L 297.322955 320.559448 
L 298.083864 319.212014 
L 299.605682 324.264892 
L 300.366591 325.275468 
L 302.649318 325.107043 
L 303.410227 327.296627 
L 304.171136 325.949185 
L 305.692955 324.770184 
L 307.975682 326.454477 
L 309.4975 326.62291 
L 310.258409 323.928034 
L 311.019318 325.78076 
L 313.302045 328.98092 
L 314.062955 328.138769 
L 314.823864 326.959769 
L 316.345682 326.959769 
L 318.628409 324.264892 
L 319.389318 326.117618 
L 320.150227 324.770184 
L 320.911136 324.601751 
L 321.672045 325.949185 
L 323.954773 331.675788 
L 324.715682 332.18108 
L 325.476591 333.69694 
L 326.2375 333.528514 
L 326.998409 334.370657 
L 329.281136 337.570817 
L 330.042045 339.591976 
L 330.802955 341.107836 
L 331.563864 342.118411 
L 332.324773 341.444694 
L 336.129318 337.73925 
L 336.890227 339.591976 
L 337.651136 339.423543 
L 342.216591 335.549666 
L 342.9775 335.718099 
L 345.260227 337.402392 
L 346.021136 337.73925 
L 346.782045 337.233958 
L 347.542955 338.581393 
L 348.303864 337.907675 
L 350.586591 335.044382 
L 351.3475 335.044382 
L 352.108409 336.223383 
L 352.869318 334.033798 
L 353.630227 329.823062 
L 355.912955 329.823062 
L 356.673864 335.38124 
L 357.434773 335.044382 
L 358.195682 332.517939 
L 361.239318 333.69694 
L 362.000227 331.844222 
L 362.761136 326.117618 
L 363.522045 328.98092 
L 364.282955 323.591175 
L 366.565682 320.22259 
L 367.326591 318.706722 
L 368.0875 325.949185 
L 368.848409 329.823062 
L 369.609318 331.507363 
L 371.892045 335.212807 
L 372.652955 337.402392 
L 373.413864 336.8971 
L 374.174773 337.402392 
L 374.935682 333.69694 
L 377.218409 336.223383 
L 377.979318 335.718099 
L 378.740227 336.728675 
L 379.501136 337.402392 
L 380.262045 339.086684 
L 382.544773 338.918259 
L 383.305682 339.591976 
L 384.066591 340.770977 
L 384.8275 338.749826 
L 385.588409 337.233958 
L 390.153864 336.054957 
L 390.914773 336.560241 
L 393.1975 336.560241 
L 393.958409 330.496787 
L 394.719318 331.844222 
L 395.480227 331.844222 
L 396.241136 330.328354 
L 398.523864 326.286051 
L 399.284773 328.307203 
L 400.045682 328.644061 
L 400.806591 331.33893 
L 401.5675 335.044382 
L 403.850227 333.023222 
L 404.611136 330.833646 
L 405.372045 334.875948 
L 406.132955 330.665213 
L 406.893864 330.665213 
L 409.176591 329.486204 
L 409.9375 331.844222 
L 410.698409 332.012647 
L 411.459318 326.454477 
L 412.220227 319.212014 
L 414.502955 316.853996 
L 415.263864 317.359288 
L 416.024773 316.853996 
L 416.785682 318.201438 
L 417.546591 321.738449 
L 419.829318 317.86458 
L 420.590227 309.443108 
L 421.351136 311.632684 
L 422.112045 314.664419 
L 425.155682 312.980119 
L 425.916591 304.72708 
L 426.6775 312.137976 
L 427.438409 305.906089 
L 428.199318 310.116825 
L 430.482045 310.116825 
L 431.242955 308.095666 
L 432.764773 310.790542 
L 433.525682 311.632684 
L 435.808409 313.485411 
L 436.569318 316.517137 
L 437.330227 317.696146 
L 438.091136 321.906882 
L 438.852045 324.096467 
L 441.134773 324.938609 
L 441.895682 322.075316 
L 442.656591 324.433325 
L 443.4175 316.011854 
L 444.178409 317.696146 
L 446.461136 310.453684 
L 447.222045 312.811693 
L 447.982955 316.348712 
L 448.743864 317.022429 
L 449.504773 313.316977 
L 451.7875 312.137976 
L 453.309318 317.190855 
L 454.070227 317.190855 
L 454.831136 316.348712 
L 457.113864 321.233165 
L 457.874773 317.359288 
L 458.635682 320.391015 
L 459.396591 320.391015 
L 460.1575 320.896307 
L 462.440227 320.727873 
L 463.201136 321.570024 
L 463.962045 321.738449 
L 464.722955 316.853996 
L 465.483864 318.369864 
L 467.766591 318.201438 
L 468.5275 320.054156 
L 469.288409 321.570024 
L 470.810227 321.064732 
L 473.092955 319.885731 
L 473.853864 321.40159 
L 474.614773 322.243741 
L 475.375682 324.433325 
L 476.136591 325.443901 
L 478.419318 322.243741 
L 479.180227 322.749033 
L 479.941136 322.075316 
L 480.702045 319.380439 
L 481.462955 318.538297 
L 483.745682 318.875155 
L 485.2675 315.506562 
L 486.028409 317.022429 
L 486.789318 317.022429 
L 489.072045 319.380439 
L 489.832955 321.906882 
L 490.593864 320.727873 
L 491.354773 321.233165 
L 492.115682 322.749033 
L 494.398409 324.264892 
L 495.159318 323.254316 
L 495.920227 321.906882 
L 496.681136 321.064732 
L 497.442045 320.391015 
L 499.724773 320.727873 
L 500.485682 318.706722 
L 501.246591 319.717298 
L 502.0075 318.706722 
L 502.768409 316.685571 
L 505.051136 315.506562 
L 505.812045 306.916665 
L 506.572955 304.895505 
L 507.333864 302.032212 
L 508.094773 300.011052 
L 510.3775 295.295033 
L 511.138409 298.32676 
L 511.899318 299.674194 
L 512.660227 300.516344 
L 515.703864 302.537496 
L 516.464773 302.705929 
L 517.225682 299.000477 
L 517.986591 293.610732 
L 518.7475 296.979326 
L 521.030227 300.011052 
L 521.791136 301.863779 
L 522.552045 302.200637 
L 523.312955 293.442315 
L 524.073864 290.74743 
L 526.356591 290.915864 
L 527.1175 288.220995 
L 527.878409 287.884129 
L 528.639318 287.041994 
L 529.400227 287.041994 
L 531.682955 281.483824 
L 532.443864 281.483824 
L 533.204773 280.304807 
L 533.965682 279.63109 
L 534.726591 269.862184 
L 537.770227 264.304014 
L 538.531136 265.314598 
L 539.292045 254.029824 
L 540.052955 246.113636 
L 542.335682 245.439919 
L 543.096591 240.387033 
L 543.8575 241.902901 
L 544.618409 247.12422 
L 545.379318 246.28207 
L 547.662045 245.77677 
L 548.422955 235.16573 
L 549.183864 234.997296 
L 549.944773 235.671013 
L 550.705682 231.460277 
L 552.988409 231.965561 
L 553.749318 238.197448 
L 554.510227 237.860598 
L 555.271136 238.534315 
L 556.032045 234.997296 
L 558.314773 237.523731 
L 559.075682 238.871166 
L 559.836591 238.871166 
L 560.5975 236.513164 
L 561.358409 235.16573 
L 563.641136 236.850014 
L 564.402045 231.628711 
L 565.162955 237.860598 
L 565.923864 241.902901 
L 566.684773 239.713316 
L 568.9675 244.260918 
L 569.728409 244.429336 
L 570.489318 245.439919 
L 571.250227 250.324372 
L 572.011136 248.808505 
L 574.293864 246.61892 
L 575.054773 247.461071 
L 575.815682 247.797937 
L 576.576591 240.387033 
L 577.3375 245.271486 
L 579.620227 242.071334 
L 580.381136 249.650655 
L 581.142045 251.671806 
L 581.902955 255.545692 
L 584.946591 245.77677 
L 585.7075 241.229183 
L 587.229318 248.640072 
L 587.990227 251.334956 
L 590.272955 241.734467 
L 591.033864 250.492806 
L 591.794773 249.987506 
L 592.555682 249.650655 
L 593.316591 251.166523 
L 595.599318 248.640072 
L 596.360227 241.566034 
L 597.121136 246.450503 
L 597.882045 244.934636 
L 598.642955 244.429336 
L 600.925682 248.303221 
L 601.686591 242.913484 
L 602.4475 244.429336 
L 603.208409 246.61892 
L 603.969318 247.629504 
L 606.252045 248.303221 
L 607.012955 251.166523 
L 607.773864 258.745844 
L 608.534773 267.6726 
L 609.295682 271.546485 
L 611.578409 273.062352 
L 613.861136 268.1779 
L 616.904773 263.630297 
L 619.1875 261.945996 
L 619.948409 258.24056 
L 622.231136 261.440712 
L 622.992045 256.219409 
L 624.513864 247.629504 
L 625.274773 250.324372 
L 627.5575 245.271486 
L 628.318409 240.050183 
L 629.079318 230.78656 
L 629.840227 227.586392 
L 630.601136 227.586392 
L 632.883864 224.72309 
L 633.644773 223.375656 
L 634.405682 227.586392 
L 635.166591 226.912675 
L 635.9275 227.586392 
L 638.210227 242.408184 
L 638.971136 236.513164 
L 639.732045 244.429336 
L 640.492955 249.145371 
L 641.253864 246.61892 
L 643.536591 241.902901 
L 644.2975 241.06075 
L 645.058409 235.50258 
L 645.819318 238.702748 
L 646.580227 244.597769 
L 648.862955 257.566843 
L 649.623864 247.629504 
L 650.384773 249.819088 
L 651.145682 241.06075 
L 651.906591 235.16573 
L 654.189318 220.175504 
L 654.950227 204.679995 
L 655.711136 199.795542 
L 656.472045 199.458675 
L 657.232955 195.753239 
L 661.798409 228.428543 
L 662.559318 228.091692 
L 664.842045 214.11205 
L 665.602955 224.217807 
L 666.363864 216.975352 
L 667.124773 232.133995 
L 667.885682 241.734467 
L 670.168409 287.041994 
L 670.929318 264.304014 
L 671.690227 277.273088 
L 672.451136 307.758807 
L 672.451136 307.758807 
" style="fill:none;stroke:#ff7f0e;stroke-linecap:square;stroke-width:1.5;"/>
   </g>
   <g id="line2d_19">
    <path clip-path="url(#pf9de69b44f)" d="M 63.723864 308.432524 
L 64.484773 309.323254 
L 65.245682 308.003652 
L 66.006591 301.933503 
L 69.050227 299.921127 
L 69.811136 302.428357 
L 70.572045 301.537627 
L 71.332955 300.877826 
L 73.615682 300.976804 
L 74.376591 300.415969 
L 75.1375 302.164444 
L 75.898409 306.881993 
L 76.659318 307.706742 
L 78.942045 309.785111 
L 79.702955 313.414012 
L 80.463864 311.269661 
L 81.224773 311.269661 
L 81.985682 309.29027 
L 84.268409 308.99336 
L 85.029318 310.972751 
L 85.790227 314.766598 
L 86.551136 311.962446 
L 87.312045 315.723297 
L 89.594773 321.001694 
L 90.355682 321.859427 
L 91.116591 323.937796 
L 91.8775 328.193495 
L 92.638409 331.26156 
L 97.203864 330.766712 
L 97.964773 333.405904 
L 100.2475 332.845075 
L 101.008409 333.07601 
L 101.769318 331.59146 
L 102.530227 329.183197 
L 103.291136 337.6946 
L 106.334773 336.869851 
L 107.095682 332.680128 
L 107.856591 331.921361 
L 108.6175 329.645054 
L 110.900227 349.735925 
L 111.661136 351.748313 
L 112.422045 348.383338 
L 113.182955 348.812204 
L 113.943864 343.764748 
L 116.226591 342.577109 
L 116.9875 342.412162 
L 117.748409 344.259596 
L 118.509318 348.020447 
L 119.270227 348.911177 
L 121.552955 348.911177 
L 122.313864 350.560673 
L 123.074773 351.28645 
L 123.835682 350.494692 
L 124.596591 352.639037 
L 126.879318 354.750397 
L 127.640227 354.816378 
L 128.401136 358.280319 
L 129.162045 356.069993 
L 132.205682 355.773083 
L 132.966591 355.014316 
L 133.7275 355.311226 
L 134.488409 358.64321 
L 135.249318 357.620518 
L 137.532045 360.919511 
L 138.292955 360.754564 
L 139.053864 357.026698 
L 139.814773 356.465875 
L 140.575682 359.896825 
L 142.858409 362.041169 
L 143.619318 361.975188 
L 144.380227 355.377201 
L 145.902045 347.690546 
L 148.184773 347.822509 
L 148.945682 346.107031 
L 149.706591 346.206003 
L 150.4675 345.711155 
L 151.228409 346.535903 
L 153.511136 349.570978 
L 155.032955 350.230773 
L 155.793864 351.220475 
L 156.554773 350.890574 
L 158.8375 351.880269 
L 159.598409 352.606052 
L 160.359318 351.02253 
L 161.120227 352.21017 
L 161.881136 352.540071 
L 164.163864 349.999844 
L 164.924773 352.375117 
L 165.685682 354.321524 
L 166.446591 358.808157 
L 167.2075 359.962806 
L 169.490227 360.028788 
L 170.251136 358.379291 
L 171.012045 360.721573 
L 171.772955 356.201949 
L 172.533864 357.851446 
L 174.816591 358.808157 
L 175.5775 361.44735 
L 176.338409 360.721573 
L 177.860227 354.222558 
L 180.142955 350.923565 
L 180.903864 350.329745 
L 181.664773 352.738009 
L 182.425682 354.717406 
L 183.186591 360.457654 
L 185.469318 360.424663 
L 186.991136 364.746343 
L 187.752045 362.536017 
L 188.512955 364.449433 
L 190.795682 365.406144 
L 191.556591 365.142225 
L 193.078409 368.342247 
L 193.839318 367.220588 
L 196.882955 370.354635 
L 197.643864 371.443302 
L 198.404773 372.301041 
L 199.165682 372.004131 
L 201.448409 364.713359 
L 202.209318 364.020567 
L 202.970227 363.096846 
L 203.731136 360.622601 
L 204.492045 356.168965 
L 207.535682 355.278235 
L 208.296591 356.102984 
L 209.0575 355.014316 
L 209.818409 356.23494 
L 212.101136 356.82876 
L 212.862045 354.519468 
L 213.622955 354.849362 
L 214.383864 354.255549 
L 215.144773 353.4308 
L 217.4275 353.529766 
L 218.188409 353.331828 
L 218.949318 353.595748 
L 219.710227 355.575145 
L 220.471136 355.872055 
L 222.753864 355.905046 
L 223.514773 356.663813 
L 224.275682 356.564841 
L 225.036591 357.026698 
L 225.7975 354.552453 
L 228.080227 354.354515 
L 228.841136 356.037002 
L 229.602045 357.059688 
L 230.362955 359.335996 
L 231.123864 363.954585 
L 233.406591 364.746343 
L 234.1675 364.746343 
L 234.928409 365.703054 
L 235.689318 364.482424 
L 236.450227 364.977278 
L 238.732955 365.109234 
L 239.493864 366.659759 
L 240.254773 365.966973 
L 241.015682 367.385542 
L 241.776591 367.385542 
L 244.059318 365.604082 
L 244.820227 365.966973 
L 245.581136 364.647377 
L 246.342045 366.263883 
L 247.102955 364.977278 
L 249.385682 364.086548 
L 250.146591 362.008179 
L 250.9075 361.282402 
L 251.668409 360.391673 
L 254.712045 359.962806 
L 255.472955 360.028788 
L 256.233864 362.601999 
L 256.994773 363.393756 
L 257.755682 363.789638 
L 260.038409 359.303005 
L 260.799318 358.676194 
L 261.560227 359.599915 
L 262.321136 360.127753 
L 263.082045 359.039086 
L 265.364773 361.18343 
L 266.125682 361.744259 
L 266.886591 358.115372 
L 267.6475 358.3463 
L 268.408409 358.907129 
L 270.691136 359.237024 
L 271.452045 358.148356 
L 272.212955 357.488561 
L 272.973864 359.368986 
L 273.734773 357.191651 
L 276.0175 357.257633 
L 276.778409 359.962806 
L 277.539318 363.624685 
L 278.300227 363.954585 
L 281.343864 364.911297 
L 282.104773 364.15253 
L 282.865682 363.789638 
L 283.626591 364.713359 
L 284.3875 364.185514 
L 286.670227 363.360766 
L 287.431136 363.624685 
L 288.192045 364.977278 
L 288.952955 364.911297 
L 289.713864 363.822629 
L 291.996591 364.713359 
L 292.7575 361.546322 
L 293.518409 359.138058 
L 294.279318 358.115372 
L 298.083864 358.808157 
L 298.844773 358.0164 
L 299.605682 362.107151 
L 300.366591 363.525719 
L 303.410227 366.164911 
L 304.171136 365.109234 
L 305.692955 364.416449 
L 307.975682 364.878306 
L 309.4975 361.612303 
L 310.258409 357.15866 
L 311.019318 359.995797 
L 313.302045 359.467958 
L 314.062955 358.610219 
L 314.823864 358.544238 
L 315.584773 357.15866 
L 316.345682 358.247328 
L 318.628409 356.993713 
L 319.389318 357.488561 
L 320.150227 354.354515 
L 321.672045 356.168965 
L 323.954773 359.665896 
L 324.715682 360.457654 
L 325.476591 358.181347 
L 326.2375 356.564841 
L 326.998409 355.509164 
L 329.281136 355.509164 
L 330.042045 354.519468 
L 330.802955 356.333912 
L 331.563864 357.15866 
L 332.324773 358.577229 
L 336.129318 359.138058 
L 336.890227 360.028788 
L 337.651136 359.039086 
L 341.455682 357.554542 
L 342.216591 360.490645 
L 342.9775 360.622601 
L 345.260227 360.160744 
L 346.021136 355.740092 
L 346.782045 353.69472 
L 347.542955 354.024614 
L 348.303864 355.674111 
L 350.586591 356.597831 
L 352.108409 358.082381 
L 352.869318 353.331828 
L 353.630227 352.045223 
L 355.912955 350.593664 
L 356.673864 354.651425 
L 358.195682 351.58336 
L 361.239318 350.725621 
L 362.000227 352.705018 
L 363.522045 353.727704 
L 364.282955 352.573061 
L 366.565682 353.199866 
L 367.326591 347.8555 
L 368.0875 351.61635 
L 368.848409 354.816378 
L 369.609318 353.859667 
L 371.892045 355.113282 
L 372.652955 354.519468 
L 373.413864 356.993713 
L 374.174773 356.102984 
L 374.935682 356.630822 
L 377.979318 358.280319 
L 378.740227 356.630822 
L 379.501136 358.577229 
L 380.262045 357.851446 
L 382.544773 358.0164 
L 383.305682 359.204039 
L 384.066591 360.127753 
L 384.8275 363.525719 
L 385.588409 363.690666 
L 390.153864 367.088632 
L 390.914773 365.868001 
L 393.1975 364.317477 
L 393.958409 365.241197 
L 394.719318 364.416449 
L 395.480227 362.931899 
L 396.241136 358.082381 
L 398.523864 354.552453 
L 399.284773 355.311226 
L 400.045682 355.674111 
L 400.806591 356.498859 
L 401.5675 358.148356 
L 403.850227 359.303005 
L 404.611136 357.686499 
L 405.372045 359.006095 
L 406.132955 356.82876 
L 406.893864 356.663813 
L 409.176591 355.509164 
L 409.9375 355.674111 
L 410.698409 355.509164 
L 411.459318 353.661729 
L 412.220227 352.80399 
L 414.502955 351.946251 
L 415.263864 350.659645 
L 416.024773 348.977158 
L 416.785682 348.251375 
L 417.546591 346.832813 
L 419.829318 345.447236 
L 420.590227 340.069873 
L 421.351136 338.255429 
L 422.112045 340.300801 
L 425.155682 339.014196 
L 425.916591 332.680128 
L 426.6775 333.010029 
L 427.438409 330.040936 
L 428.199318 330.766712 
L 430.482045 330.832693 
L 431.242955 328.952268 
L 432.764773 329.908973 
L 433.525682 330.040936 
L 435.808409 328.952268 
L 436.569318 328.952268 
L 437.330227 331.129603 
L 438.091136 330.007945 
L 438.852045 332.812091 
L 441.134773 332.48219 
L 441.895682 328.259476 
L 442.656591 327.368746 
L 443.4175 325.587293 
L 444.178409 326.972871 
L 446.461136 326.412042 
L 447.222045 332.284246 
L 447.982955 330.469802 
L 448.743864 329.447116 
L 449.504773 326.31307 
L 451.7875 327.467719 
L 452.548409 331.096613 
L 453.309318 336.605932 
L 454.070227 335.682212 
L 454.831136 340.003891 
L 457.113864 340.333792 
L 457.874773 338.816258 
L 458.635682 341.983289 
L 459.396591 340.960603 
L 460.1575 345.084345 
L 462.440227 341.653388 
L 463.201136 342.313189 
L 463.962045 342.313189 
L 464.722955 337.133771 
L 465.483864 335.385302 
L 467.766591 336.704898 
L 468.5275 338.354395 
L 469.288409 337.034799 
L 470.810227 336.836861 
L 473.092955 336.078094 
L 473.853864 336.539951 
L 474.614773 337.298718 
L 475.375682 335.385302 
L 476.136591 333.999724 
L 478.419318 325.554296 
L 479.180227 321.859427 
L 479.941136 319.220235 
L 480.702045 318.461468 
L 481.462955 318.560433 
L 483.745682 317.999611 
L 485.2675 315.987222 
L 486.028409 319.451163 
L 486.789318 320.704784 
L 489.072045 321.034679 
L 489.832955 323.442942 
L 490.593864 322.750157 
L 491.354773 322.651191 
L 492.115682 321.034679 
L 494.398409 317.405791 
L 495.159318 320.044983 
L 495.920227 319.022291 
L 496.681136 321.364585 
L 497.442045 319.220235 
L 499.724773 320.20993 
L 500.485682 320.374877 
L 501.246591 321.166641 
L 502.0075 318.725381 
L 502.768409 318.89034 
L 505.051136 320.341893 
L 505.812045 317.372794 
L 506.572955 317.207847 
L 508.094773 305.496422 
L 510.3775 303.945891 
L 511.138409 302.725267 
L 511.899318 306.02426 
L 512.660227 305.496422 
L 513.421136 304.143835 
L 515.703864 305.166528 
L 516.464773 306.387152 
L 517.225682 304.836621 
L 517.986591 300.877826 
L 518.7475 304.077854 
L 521.030227 306.420136 
L 521.791136 305.991276 
L 522.552045 302.428357 
L 523.312955 303.15414 
L 524.073864 305.562403 
L 526.356591 304.671674 
L 527.1175 306.947975 
L 528.639318 305.826316 
L 529.400227 308.069633 
L 531.682955 309.488201 
L 532.443864 306.354155 
L 533.204773 304.539711 
L 533.965682 305.925295 
L 534.726591 306.02426 
L 537.770227 305.496422 
L 538.531136 304.737655 
L 539.292045 306.947975 
L 540.052955 304.473729 
L 542.335682 303.550015 
L 543.096591 299.954112 
L 543.8575 297.776777 
L 544.618409 299.690199 
L 545.379318 303.714962 
L 547.662045 305.364459 
L 548.422955 306.057245 
L 549.183864 307.541794 
L 549.944773 310.939766 
L 550.705682 308.069633 
L 552.988409 310.180987 
L 553.749318 308.630468 
L 554.510227 310.642856 
L 556.032045 308.99336 
L 558.314773 311.368626 
L 559.075682 312.655232 
L 559.836591 311.698533 
L 560.5975 312.853176 
L 561.358409 312.127394 
L 563.641136 306.849009 
L 564.402045 307.574791 
L 565.162955 309.983055 
L 565.923864 308.630468 
L 566.684773 310.741822 
L 568.9675 313.94185 
L 569.728409 313.611943 
L 570.489318 313.743906 
L 571.250227 314.23876 
L 572.011136 315.26144 
L 574.293864 311.632552 
L 575.054773 310.741822 
L 575.815682 314.205763 
L 576.576591 312.75421 
L 577.3375 317.735685 
L 579.620227 317.009915 
L 580.381136 321.859427 
L 581.142045 322.88212 
L 581.902955 322.651191 
L 584.946591 321.595514 
L 585.7075 320.671787 
L 587.229318 320.275912 
L 587.990227 318.923325 
L 591.033864 309.983055 
L 591.794773 310.576875 
L 592.555682 311.962446 
L 593.316591 310.642856 
L 595.599318 311.236676 
L 596.360227 313.282049 
L 597.121136 311.302645 
L 597.882045 311.632552 
L 598.642955 309.653148 
L 601.686591 309.983055 
L 602.4475 313.018123 
L 603.208409 314.23876 
L 603.969318 319.385182 
L 606.252045 316.778974 
L 607.012955 320.440859 
L 607.773864 318.131561 
L 608.534773 317.999611 
L 609.295682 316.548045 
L 611.578409 317.471772 
L 613.861136 315.327421 
L 614.622045 315.129477 
L 616.904773 315.26144 
L 619.1875 313.018123 
L 619.948409 312.820192 
L 622.231136 314.040816 
L 622.992045 315.393403 
L 623.752955 310.939766 
L 624.513864 309.851092 
L 625.274773 311.500589 
L 627.5575 310.31295 
L 628.318409 310.807804 
L 629.079318 311.071717 
L 629.840227 313.05112 
L 630.601136 313.446996 
L 632.883864 312.4573 
L 633.644773 314.502673 
L 634.405682 313.94185 
L 635.166591 316.44908 
L 635.9275 319.781058 
L 638.210227 326.543998 
L 638.971136 327.929576 
L 639.732045 328.787315 
L 640.492955 330.436811 
L 641.253864 330.601765 
L 643.536591 327.23679 
L 644.2975 325.224402 
L 645.058409 325.587293 
L 645.819318 326.31307 
L 646.580227 327.335756 
L 648.862955 329.645054 
L 649.623864 329.447116 
L 650.384773 328.292467 
L 651.145682 328.028548 
L 651.906591 329.447116 
L 654.189318 329.117215 
L 654.950227 329.612063 
L 655.711136 328.589377 
L 656.472045 330.172892 
L 657.232955 331.228569 
L 662.559318 342.181227 
L 664.842045 338.354395 
L 665.602955 345.117335 
L 666.363864 343.434848 
L 667.124773 346.931779 
L 667.885682 355.146272 
L 670.168409 365.406144 
L 670.929318 362.634989 
L 671.690227 370.354635 
L 672.451136 381.076364 
L 672.451136 381.076364 
" style="fill:none;stroke:#2ca02c;stroke-linecap:square;stroke-width:1.5;"/>
   </g>
   <g id="line2d_20">
    <path clip-path="url(#pf9de69b44f)" d="M 63.723864 308.432524 
L 64.484773 309.336181 
L 65.245682 309.787435 
L 66.006591 308.432524 
L 68.289318 312.609781 
L 69.050227 312.835983 
L 70.572045 312.835983 
L 71.332955 315.09455 
L 73.615682 315.09455 
L 74.376591 315.319602 
L 75.1375 317.465183 
L 75.898409 318.481256 
L 76.659318 317.465183 
L 78.942045 317.352197 
L 80.463864 320.739364 
L 81.224773 320.739364 
L 81.985682 321.755546 
L 84.268409 321.64267 
L 85.029318 321.755546 
L 85.790227 322.658743 
L 86.551136 321.078091 
L 87.312045 320.965215 
L 89.594773 321.078091 
L 90.355682 324.126519 
L 91.8775 328.191129 
L 92.638409 328.529748 
L 97.203864 324.239395 
L 97.964773 325.142702 
L 100.2475 324.578123 
L 101.008409 326.723354 
L 101.769318 326.384626 
L 102.530227 327.626551 
L 103.291136 325.707171 
L 105.573864 327.400809 
L 106.334773 327.400809 
L 107.095682 328.868475 
L 107.856591 328.642733 
L 108.6175 325.933022 
L 110.900227 326.384626 
L 111.661136 333.158948 
L 112.422045 334.513738 
L 113.182955 333.610541 
L 113.943864 331.804037 
L 116.226591 335.191193 
L 116.9875 332.707234 
L 117.748409 334.852465 
L 118.509318 336.545994 
L 119.270227 336.545994 
L 121.552955 337.4493 
L 122.313864 338.804101 
L 123.074773 340.497733 
L 123.835682 338.578359 
L 124.596591 340.497733 
L 126.879318 340.384747 
L 127.640227 341.062203 
L 128.401136 344.449363 
L 129.162045 345.917145 
L 132.205682 347.27194 
L 132.966591 340.384747 
L 133.7275 341.40093 
L 134.488409 336.207266 
L 135.249318 340.949332 
L 138.292955 335.755662 
L 139.053864 338.013769 
L 140.575682 338.578359 
L 142.858409 339.707407 
L 143.619318 341.062203 
L 144.380227 341.626787 
L 145.141136 341.40093 
L 145.902045 339.594421 
L 148.184773 340.046135 
L 148.945682 337.675042 
L 149.706591 338.013769 
L 150.4675 339.36868 
L 151.228409 338.804101 
L 153.511136 338.804101 
L 155.032955 341.062203 
L 155.793864 344.110636 
L 156.554773 343.997765 
L 158.8375 341.626787 
L 159.598409 343.32031 
L 160.359318 342.642855 
L 161.120227 347.27194 
L 161.881136 350.094632 
L 164.163864 351.223685 
L 164.924773 351.901025 
L 165.685682 351.223685 
L 166.446591 351.675284 
L 167.2075 352.804337 
L 169.490227 352.917208 
L 170.251136 348.965578 
L 171.012045 351.110699 
L 171.772955 349.530047 
L 172.533864 344.223622 
L 174.816591 346.5946 
L 176.338409 351.449427 
L 177.860227 349.530047 
L 180.142955 345.013948 
L 180.903864 341.062203 
L 181.664773 341.175188 
L 182.425682 345.578417 
L 183.186591 343.32031 
L 185.469318 345.804274 
L 186.230227 347.836524 
L 186.991136 352.46561 
L 187.752045 352.46561 
L 188.512955 356.078512 
L 191.556591 359.014075 
L 192.3175 356.755967 
L 193.078409 358.336619 
L 193.839318 353.820405 
L 196.122045 355.739785 
L 197.643864 357.997892 
L 198.404773 359.917271 
L 199.165682 360.594727 
L 201.448409 358.675347 
L 202.209318 353.030079 
L 202.970227 352.917208 
L 203.731136 350.094632 
L 204.492045 350.997828 
L 207.535682 350.320373 
L 208.296591 350.659101 
L 209.0575 352.352739 
L 209.818409 354.949459 
L 212.101136 354.610846 
L 212.862045 354.046262 
L 213.622955 355.739785 
L 215.144773 352.126882 
L 217.4275 352.014011 
L 218.188409 351.675284 
L 218.949318 350.094632 
L 219.710227 349.19132 
L 220.471136 347.836524 
L 222.753864 349.530047 
L 223.514773 346.255872 
L 224.275682 346.5946 
L 225.036591 347.949395 
L 225.7975 348.400994 
L 228.080227 347.27194 
L 228.841136 349.981761 
L 229.602045 356.078512 
L 230.362955 358.562476 
L 231.123864 358.562476 
L 233.406591 356.643096 
L 234.1675 357.997892 
L 234.928409 360.707598 
L 235.689318 362.626977 
L 236.450227 362.626977 
L 238.732955 363.417418 
L 239.493864 357.320552 
L 240.254773 359.465673 
L 241.015682 362.626977 
L 241.776591 363.078691 
L 244.059318 363.417418 
L 244.820227 362.288365 
L 245.581136 361.72378 
L 246.342045 363.869017 
L 247.102955 365.67552 
L 249.385682 368.046498 
L 250.146591 367.70777 
L 250.9075 368.385226 
L 251.668409 367.820641 
L 254.712045 364.885084 
L 255.472955 366.239989 
L 256.233864 371.320673 
L 256.994773 374.820705 
L 257.755682 376.062744 
L 260.038409 376.175615 
L 260.799318 375.611031 
L 261.560227 376.740084 
L 262.321136 378.207866 
L 263.082045 376.175615 
L 265.364773 376.062744 
L 266.125682 376.175615 
L 266.886591 376.062744 
L 267.6475 375.159432 
L 268.408409 374.820705 
L 270.691136 376.627213 
L 271.452045 375.385289 
L 272.212955 374.594963 
L 272.973864 374.820705 
L 273.734773 375.385289 
L 276.0175 371.885257 
L 276.778409 369.288422 
L 277.539318 372.449727 
L 278.300227 372.449727 
L 281.343864 373.804637 
L 282.104773 371.885257 
L 282.865682 371.433659 
L 283.626591 373.127182 
L 284.3875 373.353038 
L 286.670227 373.691651 
L 287.431136 373.353038 
L 288.192045 373.691651 
L 289.713864 373.353038 
L 291.996591 375.49816 
L 292.7575 374.143364 
L 293.518409 369.401293 
L 294.279318 368.949695 
L 297.322955 368.159369 
L 298.083864 369.288422 
L 298.844773 369.514279 
L 299.605682 369.514279 
L 300.366591 369.062566 
L 302.649318 368.723838 
L 303.410227 368.159369 
L 304.171136 366.239989 
L 305.692955 364.772213 
L 307.975682 365.67552 
L 309.4975 367.481914 
L 310.258409 366.917444 
L 311.019318 369.288422 
L 313.302045 371.207802 
L 314.062955 370.304605 
L 314.823864 370.078748 
L 315.584773 368.949695 
L 316.345682 369.175552 
L 318.628409 368.610967 
L 319.389318 370.191619 
L 320.150227 370.304605 
L 321.672045 369.514279 
L 323.954773 370.756204 
L 324.715682 372.223985 
L 325.476591 372.336856 
L 326.2375 373.353038 
L 326.998409 373.353038 
L 330.042045 374.707834 
L 331.563864 375.724017 
L 332.324773 375.272418 
L 336.890227 376.175615 
L 337.651136 375.046561 
L 341.455682 374.030379 
L 342.216591 372.675583 
L 342.9775 370.417476 
L 345.260227 370.756204 
L 346.021136 371.433659 
L 346.782045 370.417476 
L 347.542955 369.965878 
L 348.303864 370.417476 
L 351.3475 369.740021 
L 352.108409 370.078748 
L 352.869318 367.5949 
L 353.630227 366.691588 
L 355.912955 367.369043 
L 356.673864 369.401293 
L 357.434773 369.965878 
L 358.195682 368.723838 
L 361.239318 368.836824 
L 362.000227 366.465846 
L 362.761136 361.949637 
L 363.522045 362.514106 
L 364.282955 362.288365 
L 366.565682 361.836651 
L 367.326591 361.836651 
L 368.0875 364.772213 
L 368.848409 366.578717 
L 369.609318 364.546357 
L 372.652955 366.917444 
L 373.413864 365.901262 
L 374.174773 364.094758 
L 374.935682 364.207744 
L 377.218409 363.191561 
L 377.979318 359.126945 
L 378.740227 361.385053 
L 380.262045 362.514106 
L 382.544773 359.69153 
L 383.305682 360.820583 
L 384.8275 359.352802 
L 385.588409 359.239931 
L 390.153864 359.126945 
L 390.914773 358.336619 
L 393.1975 355.175315 
L 393.958409 354.384989 
L 394.719318 354.836588 
L 395.480227 354.159133 
L 396.241136 355.514043 
L 398.523864 350.884958 
L 399.284773 350.997828 
L 400.045682 349.19132 
L 400.806591 350.54623 
L 401.5675 352.917208 
L 403.850227 353.594663 
L 404.611136 351.223685 
L 405.372045 354.384989 
L 406.132955 352.46561 
L 406.893864 352.014011 
L 409.176591 351.336556 
L 409.9375 349.868775 
L 410.698409 351.223685 
L 411.459318 350.54623 
L 412.220227 346.933327 
L 414.502955 347.046198 
L 415.263864 347.27194 
L 416.024773 346.707471 
L 416.785682 346.933327 
L 417.546591 350.54623 
L 419.829318 351.110699 
L 420.590227 348.852707 
L 421.351136 348.965578 
L 422.112045 350.094632 
L 425.155682 348.513979 
L 425.916591 341.175188 
L 426.6775 341.626787 
L 427.438409 339.255694 
L 428.199318 341.852529 
L 431.242955 336.545994 
L 433.525682 332.368507 
L 435.808409 331.239568 
L 436.569318 333.158948 
L 437.330227 333.045962 
L 438.091136 333.723417 
L 441.134773 343.884894 
L 441.895682 339.933149 
L 442.656591 340.497733 
L 443.4175 342.417113 
L 444.178409 342.529984 
L 446.461136 341.626787 
L 447.222045 342.868711 
L 447.982955 345.013948 
L 448.743864 341.513801 
L 449.504773 342.417113 
L 451.7875 340.949332 
L 452.548409 342.191256 
L 453.309318 340.497733 
L 454.070227 341.175188 
L 454.831136 338.804101 
L 457.113864 342.755841 
L 457.874773 339.707407 
L 458.635682 340.046135 
L 459.396591 340.949332 
L 460.1575 340.271877 
L 462.440227 340.384747 
L 463.201136 341.062203 
L 464.722955 340.836461 
L 465.483864 339.142828 
L 467.766591 338.013769 
L 468.5275 338.804101 
L 469.288409 340.836461 
L 470.810227 341.626787 
L 473.092955 341.626787 
L 473.853864 341.739658 
L 474.614773 341.40093 
L 475.375682 342.078385 
L 476.136591 341.626787 
L 478.419318 339.933149 
L 479.180227 338.804101 
L 479.941136 338.239632 
L 480.702045 337.4493 
L 481.462955 335.191193 
L 483.745682 335.078327 
L 485.2675 333.271813 
L 486.028409 334.400872 
L 486.789318 336.771845 
L 489.072045 336.771845 
L 489.832955 338.013769 
L 490.593864 336.433117 
L 491.354773 336.433117 
L 492.115682 335.52992 
L 494.398409 334.7396 
L 495.159318 334.626614 
L 495.920227 334.17501 
L 496.681136 333.949268 
L 497.442045 335.191193 
L 499.724773 333.38469 
L 500.485682 332.25563 
L 501.246591 334.062145 
L 502.768409 335.52992 
L 505.051136 335.417055 
L 505.812045 331.804037 
L 506.572955 331.691161 
L 507.333864 328.868475 
L 508.094773 329.207203 
L 511.138409 333.836283 
L 511.899318 337.788028 
L 512.660227 338.352497 
L 513.421136 338.465373 
L 515.703864 338.465373 
L 516.464773 340.046135 
L 517.225682 339.707407 
L 517.986591 336.545994 
L 518.7475 341.062203 
L 521.791136 339.594421 
L 522.552045 338.465373 
L 523.312955 335.52992 
L 524.073864 335.52992 
L 526.356591 339.933149 
L 527.1175 342.868711 
L 527.878409 341.965515 
L 528.639318 341.513801 
L 529.400227 342.529984 
L 531.682955 337.675042 
L 532.443864 336.771845 
L 533.204773 332.933086 
L 533.965682 333.045962 
L 534.726591 331.916903 
L 537.009318 331.352434 
L 537.770227 327.965278 
L 538.531136 327.174947 
L 539.292045 327.400809 
L 540.052955 323.56205 
L 542.335682 323.223322 
L 543.096591 319.610304 
L 543.8575 318.932849 
L 545.379318 319.158712 
L 547.662045 320.852229 
L 548.422955 319.045835 
L 549.183864 314.755822 
L 549.944773 314.190893 
L 550.705682 310.916143 
L 552.988409 312.271054 
L 553.749318 314.190893 
L 554.510227 315.09455 
L 555.271136 314.868348 
L 556.032045 314.078367 
L 558.314773 310.238688 
L 559.075682 311.707274 
L 559.836591 312.271054 
L 560.5975 313.287236 
L 561.358409 315.09455 
L 563.641136 312.835983 
L 564.402045 310.352364 
L 565.923864 310.126162 
L 566.684773 310.46489 
L 568.9675 313.17471 
L 569.728409 316.223259 
L 571.250227 314.642147 
L 572.011136 314.190893 
L 574.293864 309.562383 
L 575.054773 304.367793 
L 575.815682 301.545447 
L 576.576591 298.158182 
L 577.3375 297.933119 
L 579.620227 296.352018 
L 580.381136 299.626757 
L 581.142045 299.174365 
L 581.902955 297.029473 
L 584.946591 294.884582 
L 585.7075 292.061085 
L 587.229318 286.981321 
L 587.990227 288.787485 
L 590.272955 279.303113 
L 591.033864 275.01333 
L 591.794773 272.867289 
L 592.555682 263.947846 
L 593.316591 265.416432 
L 596.360227 254.689675 
L 597.121136 267.561323 
L 597.882045 261.238025 
L 598.642955 261.125499 
L 600.925682 259.20681 
L 601.686591 261.576753 
L 602.4475 264.400249 
L 603.208409 269.932416 
L 603.969318 276.36824 
L 606.252045 279.303113 
L 607.012955 288.222556 
L 607.773864 285.400209 
L 608.534773 291.722358 
L 609.295682 294.997108 
L 611.578409 295.109634 
L 613.861136 288.674959 
L 614.622045 287.545101 
L 616.904773 286.416392 
L 619.1875 289.46494 
L 619.948409 285.738937 
L 622.231136 285.851463 
L 622.992045 279.190587 
L 623.752955 277.496949 
L 624.513864 279.868042 
L 625.274773 280.545497 
L 627.5575 266.996394 
L 628.318409 268.238779 
L 629.079318 266.041074 
L 629.840227 259.266522 
L 630.601136 260.874035 
L 632.883864 260.644395 
L 633.644773 256.62559 
L 634.405682 270.059868 
L 635.166591 267.533761 
L 635.9275 280.968039 
L 638.210227 293.254095 
L 638.971136 291.876221 
L 639.732045 294.402317 
L 640.492955 300.258286 
L 641.253864 294.402317 
L 643.536591 290.039046 
L 644.2975 293.139269 
L 645.058409 292.450327 
L 645.819318 294.746793 
L 646.580227 303.128858 
L 648.862955 308.755177 
L 649.623864 300.602752 
L 650.384773 297.50254 
L 651.145682 295.435724 
L 651.906591 296.009841 
L 654.189318 290.727988 
L 654.950227 287.857416 
L 655.711136 287.2833 
L 656.472045 288.890824 
L 657.232955 284.872019 
L 661.798409 297.73218 
L 662.559318 297.961831 
L 664.842045 292.679978 
L 665.602955 293.943026 
L 666.363864 291.302105 
L 667.885682 311.970225 
L 670.168409 333.327277 
L 670.929318 329.767763 
L 671.690227 334.819976 
L 672.451136 351.354471 
L 672.451136 351.354471 
" style="fill:none;stroke:#d62728;stroke-linecap:square;stroke-width:1.5;"/>
   </g>
   <g id="patch_3">
    <path d="M 33.2875 398.88 
L 33.2875 7.2 
" style="fill:none;stroke:#000000;stroke-linecap:square;stroke-linejoin:miter;stroke-width:0.8;"/>
   </g>
   <g id="patch_4">
    <path d="M 702.8875 398.88 
L 702.8875 7.2 
" style="fill:none;stroke:#000000;stroke-linecap:square;stroke-linejoin:miter;stroke-width:0.8;"/>
   </g>
   <g id="patch_5">
    <path d="M 33.2875 398.88 
L 702.8875 398.88 
" style="fill:none;stroke:#000000;stroke-linecap:square;stroke-linejoin:miter;stroke-width:0.8;"/>
   </g>
   <g id="patch_6">
    <path d="M 33.2875 7.2 
L 702.8875 7.2 
" style="fill:none;stroke:#000000;stroke-linecap:square;stroke-linejoin:miter;stroke-width:0.8;"/>
   </g>
   <g id="legend_1">
    <g id="patch_7">
     <path d="M 40.2875 73.9125 
L 124.095313 73.9125 
Q 126.095313 73.9125 126.095313 71.9125 
L 126.095313 14.2 
Q 126.095313 12.2 124.095313 12.2 
L 40.2875 12.2 
Q 38.2875 12.2 38.2875 14.2 
L 38.2875 71.9125 
Q 38.2875 73.9125 40.2875 73.9125 
z
" style="fill:#ffffff;opacity:0.8;stroke:#cccccc;stroke-linejoin:miter;"/>
    </g>
    <g id="line2d_21">
     <path d="M 42.2875 20.298437 
L 62.2875 20.298437 
" style="fill:none;stroke:#1f77b4;stroke-linecap:square;stroke-width:1.5;"/>
    </g>
    <g id="line2d_22"/>
    <g id="text_18">
     <!-- JBSS3.SA -->
     <defs>
      <path d="M 9.8125 72.90625 
L 19.671875 72.90625 
L 19.671875 5.078125 
Q 19.671875 -8.109375 14.671875 -14.0625 
Q 9.671875 -20.015625 -1.421875 -20.015625 
L -5.171875 -20.015625 
L -5.171875 -11.71875 
L -2.09375 -11.71875 
Q 4.4375 -11.71875 7.125 -8.046875 
Q 9.8125 -4.390625 9.8125 5.078125 
z
" id="DejaVuSans-74"/>
      <path d="M 19.671875 34.8125 
L 19.671875 8.109375 
L 35.5 8.109375 
Q 43.453125 8.109375 47.28125 11.40625 
Q 51.125 14.703125 51.125 21.484375 
Q 51.125 28.328125 47.28125 31.5625 
Q 43.453125 34.8125 35.5 34.8125 
z
M 19.671875 64.796875 
L 19.671875 42.828125 
L 34.28125 42.828125 
Q 41.5 42.828125 45.03125 45.53125 
Q 48.578125 48.25 48.578125 53.8125 
Q 48.578125 59.328125 45.03125 62.0625 
Q 41.5 64.796875 34.28125 64.796875 
z
M 9.8125 72.90625 
L 35.015625 72.90625 
Q 46.296875 72.90625 52.390625 68.21875 
Q 58.5 63.53125 58.5 54.890625 
Q 58.5 48.1875 55.375 44.234375 
Q 52.25 40.28125 46.1875 39.3125 
Q 53.46875 37.75 57.5 32.78125 
Q 61.53125 27.828125 61.53125 20.40625 
Q 61.53125 10.640625 54.890625 5.3125 
Q 48.25 0 35.984375 0 
L 9.8125 0 
z
" id="DejaVuSans-66"/>
      <path d="M 53.515625 70.515625 
L 53.515625 60.890625 
Q 47.90625 63.578125 42.921875 64.890625 
Q 37.9375 66.21875 33.296875 66.21875 
Q 25.25 66.21875 20.875 63.09375 
Q 16.5 59.96875 16.5 54.203125 
Q 16.5 49.359375 19.40625 46.890625 
Q 22.3125 44.4375 30.421875 42.921875 
L 36.375 41.703125 
Q 47.40625 39.59375 52.65625 34.296875 
Q 57.90625 29 57.90625 20.125 
Q 57.90625 9.515625 50.796875 4.046875 
Q 43.703125 -1.421875 29.984375 -1.421875 
Q 24.8125 -1.421875 18.96875 -0.25 
Q 13.140625 0.921875 6.890625 3.21875 
L 6.890625 13.375 
Q 12.890625 10.015625 18.65625 8.296875 
Q 24.421875 6.59375 29.984375 6.59375 
Q 38.421875 6.59375 43.015625 9.90625 
Q 47.609375 13.234375 47.609375 19.390625 
Q 47.609375 24.75 44.3125 27.78125 
Q 41.015625 30.8125 33.5 32.328125 
L 27.484375 33.5 
Q 16.453125 35.6875 11.515625 40.375 
Q 6.59375 45.0625 6.59375 53.421875 
Q 6.59375 63.09375 13.40625 68.65625 
Q 20.21875 74.21875 32.171875 74.21875 
Q 37.3125 74.21875 42.625 73.28125 
Q 47.953125 72.359375 53.515625 70.515625 
z
" id="DejaVuSans-83"/>
      <path d="M 10.6875 12.40625 
L 21 12.40625 
L 21 0 
L 10.6875 0 
z
" id="DejaVuSans-46"/>
      <path d="M 34.1875 63.1875 
L 20.796875 26.90625 
L 47.609375 26.90625 
z
M 28.609375 72.90625 
L 39.796875 72.90625 
L 67.578125 0 
L 57.328125 0 
L 50.6875 18.703125 
L 17.828125 18.703125 
L 11.1875 0 
L 0.78125 0 
z
" id="DejaVuSans-65"/>
     </defs>
     <g transform="translate(70.2875 23.798437)scale(0.1 -0.1)">
      <use xlink:href="#DejaVuSans-74"/>
      <use x="29.492188" xlink:href="#DejaVuSans-66"/>
      <use x="98.080078" xlink:href="#DejaVuSans-83"/>
      <use x="161.556641" xlink:href="#DejaVuSans-83"/>
      <use x="225.033203" xlink:href="#DejaVuSans-51"/>
      <use x="288.65625" xlink:href="#DejaVuSans-46"/>
      <use x="320.443359" xlink:href="#DejaVuSans-83"/>
      <use x="383.935547" xlink:href="#DejaVuSans-65"/>
     </g>
    </g>
    <g id="line2d_23">
     <path d="M 42.2875 34.976562 
L 62.2875 34.976562 
" style="fill:none;stroke:#ff7f0e;stroke-linecap:square;stroke-width:1.5;"/>
    </g>
    <g id="line2d_24"/>
    <g id="text_19">
     <!-- MRFG3.SA -->
     <defs>
      <path d="M 9.8125 72.90625 
L 24.515625 72.90625 
L 43.109375 23.296875 
L 61.8125 72.90625 
L 76.515625 72.90625 
L 76.515625 0 
L 66.890625 0 
L 66.890625 64.015625 
L 48.09375 14.015625 
L 38.1875 14.015625 
L 19.390625 64.015625 
L 19.390625 0 
L 9.8125 0 
z
" id="DejaVuSans-77"/>
      <path d="M 44.390625 34.1875 
Q 47.5625 33.109375 50.5625 29.59375 
Q 53.5625 26.078125 56.59375 19.921875 
L 66.609375 0 
L 56 0 
L 46.6875 18.703125 
Q 43.0625 26.03125 39.671875 28.421875 
Q 36.28125 30.8125 30.421875 30.8125 
L 19.671875 30.8125 
L 19.671875 0 
L 9.8125 0 
L 9.8125 72.90625 
L 32.078125 72.90625 
Q 44.578125 72.90625 50.734375 67.671875 
Q 56.890625 62.453125 56.890625 51.90625 
Q 56.890625 45.015625 53.6875 40.46875 
Q 50.484375 35.9375 44.390625 34.1875 
z
M 19.671875 64.796875 
L 19.671875 38.921875 
L 32.078125 38.921875 
Q 39.203125 38.921875 42.84375 42.21875 
Q 46.484375 45.515625 46.484375 51.90625 
Q 46.484375 58.296875 42.84375 61.546875 
Q 39.203125 64.796875 32.078125 64.796875 
z
" id="DejaVuSans-82"/>
      <path d="M 9.8125 72.90625 
L 51.703125 72.90625 
L 51.703125 64.59375 
L 19.671875 64.59375 
L 19.671875 43.109375 
L 48.578125 43.109375 
L 48.578125 34.8125 
L 19.671875 34.8125 
L 19.671875 0 
L 9.8125 0 
z
" id="DejaVuSans-70"/>
      <path d="M 59.515625 10.40625 
L 59.515625 29.984375 
L 43.40625 29.984375 
L 43.40625 38.09375 
L 69.28125 38.09375 
L 69.28125 6.78125 
Q 63.578125 2.734375 56.6875 0.65625 
Q 49.8125 -1.421875 42 -1.421875 
Q 24.90625 -1.421875 15.25 8.5625 
Q 5.609375 18.5625 5.609375 36.375 
Q 5.609375 54.25 15.25 64.234375 
Q 24.90625 74.21875 42 74.21875 
Q 49.125 74.21875 55.546875 72.453125 
Q 61.96875 70.703125 67.390625 67.28125 
L 67.390625 56.78125 
Q 61.921875 61.421875 55.765625 63.765625 
Q 49.609375 66.109375 42.828125 66.109375 
Q 29.4375 66.109375 22.71875 58.640625 
Q 16.015625 51.171875 16.015625 36.375 
Q 16.015625 21.625 22.71875 14.15625 
Q 29.4375 6.6875 42.828125 6.6875 
Q 48.046875 6.6875 52.140625 7.59375 
Q 56.25 8.5 59.515625 10.40625 
z
" id="DejaVuSans-71"/>
     </defs>
     <g transform="translate(70.2875 38.476562)scale(0.1 -0.1)">
      <use xlink:href="#DejaVuSans-77"/>
      <use x="86.279297" xlink:href="#DejaVuSans-82"/>
      <use x="155.761719" xlink:href="#DejaVuSans-70"/>
      <use x="213.28125" xlink:href="#DejaVuSans-71"/>
      <use x="290.771484" xlink:href="#DejaVuSans-51"/>
      <use x="354.394531" xlink:href="#DejaVuSans-46"/>
      <use x="386.181641" xlink:href="#DejaVuSans-83"/>
      <use x="449.673828" xlink:href="#DejaVuSans-65"/>
     </g>
    </g>
    <g id="line2d_25">
     <path d="M 42.2875 49.654687 
L 62.2875 49.654687 
" style="fill:none;stroke:#2ca02c;stroke-linecap:square;stroke-width:1.5;"/>
    </g>
    <g id="line2d_26"/>
    <g id="text_20">
     <!-- BRFS3.SA -->
     <g transform="translate(70.2875 53.154687)scale(0.1 -0.1)">
      <use xlink:href="#DejaVuSans-66"/>
      <use x="68.603516" xlink:href="#DejaVuSans-82"/>
      <use x="138.085938" xlink:href="#DejaVuSans-70"/>
      <use x="195.589844" xlink:href="#DejaVuSans-83"/>
      <use x="259.066406" xlink:href="#DejaVuSans-51"/>
      <use x="322.689453" xlink:href="#DejaVuSans-46"/>
      <use x="354.476562" xlink:href="#DejaVuSans-83"/>
      <use x="417.96875" xlink:href="#DejaVuSans-65"/>
     </g>
    </g>
    <g id="line2d_27">
     <path d="M 42.2875 64.332812 
L 62.2875 64.332812 
" style="fill:none;stroke:#d62728;stroke-linecap:square;stroke-width:1.5;"/>
    </g>
    <g id="line2d_28"/>
    <g id="text_21">
     <!-- BEEF3.SA -->
     <defs>
      <path d="M 9.8125 72.90625 
L 55.90625 72.90625 
L 55.90625 64.59375 
L 19.671875 64.59375 
L 19.671875 43.015625 
L 54.390625 43.015625 
L 54.390625 34.71875 
L 19.671875 34.71875 
L 19.671875 8.296875 
L 56.78125 8.296875 
L 56.78125 0 
L 9.8125 0 
z
" id="DejaVuSans-69"/>
     </defs>
     <g transform="translate(70.2875 67.832812)scale(0.1 -0.1)">
      <use xlink:href="#DejaVuSans-66"/>
      <use x="68.603516" xlink:href="#DejaVuSans-69"/>
      <use x="131.787109" xlink:href="#DejaVuSans-69"/>
      <use x="194.970703" xlink:href="#DejaVuSans-70"/>
      <use x="252.490234" xlink:href="#DejaVuSans-51"/>
      <use x="316.113281" xlink:href="#DejaVuSans-46"/>
      <use x="347.900391" xlink:href="#DejaVuSans-83"/>
      <use x="411.392578" xlink:href="#DejaVuSans-65"/>
     </g>
    </g>
   </g>
  </g>
 </g>
 <defs>
  <clipPath id="pf9de69b44f">
   <rect height="391.68" width="669.6" x="33.2875" y="7.2"/>
  </clipPath>
 </defs>
</svg>
