<?xml version="1.0" encoding="utf-8" standalone="no"?>
<!DOCTYPE svg PUBLIC "-//W3C//DTD SVG 1.1//EN"
  "http://www.w3.org/Graphics/SVG/1.1/DTD/svg11.dtd">
<!-- Created with matplotlib (https://matplotlib.org/) -->
<svg height="535.581719pt" version="1.1" viewBox="0 0 902.723438 535.581719" width="902.723438pt" xmlns="http://www.w3.org/2000/svg" xmlns:xlink="http://www.w3.org/1999/xlink">
 <defs>
  <style type="text/css">
*{stroke-linecap:butt;stroke-linejoin:round;}
  </style>
 </defs>
 <g id="figure_1">
  <g id="patch_1">
   <path d="M -0 535.581719 
L 902.723438 535.581719 
L 902.723438 0 
L -0 0 
z
" style="fill:none;"/>
  </g>
  <g id="axes_1">
   <g id="patch_2">
    <path d="M 58.523438 498.025469 
L 895.523438 498.025469 
L 895.523438 8.785469 
L 58.523438 8.785469 
z
" style="fill:#ffffff;"/>
   </g>
   <g id="PathCollection_1">
    <defs>
     <path d="M 0 -5 
L -1.12257 -1.545085 
L -4.755283 -1.545085 
L -1.816356 0.59017 
L -2.938926 4.045085 
L -0 1.90983 
L 2.938926 4.045085 
L 1.816356 0.59017 
L 4.755283 -1.545085 
L 1.12257 -1.545085 
z
" id="ma1137a7b61" style="stroke:#0000ff;"/>
    </defs>
    <g clip-path="url(#pbe5eef7f6a)">
     <use style="fill:#0000ff;stroke:#0000ff;" x="312.797241" xlink:href="#ma1137a7b61" y="402.100115"/>
     <use style="fill:#0000ff;stroke:#0000ff;" x="306.859564" xlink:href="#ma1137a7b61" y="393.50784"/>
     <use style="fill:#0000ff;stroke:#0000ff;" x="304.242289" xlink:href="#ma1137a7b61" y="389.132309"/>
     <use style="fill:#0000ff;stroke:#0000ff;" x="304.141357" xlink:href="#ma1137a7b61" y="388.953835"/>
     <use style="fill:#0000ff;stroke:#0000ff;" x="302.258632" xlink:href="#ma1137a7b61" y="385.462264"/>
     <use style="fill:#0000ff;stroke:#0000ff;" x="299.036804" xlink:href="#ma1137a7b61" y="378.525324"/>
     <use style="fill:#0000ff;stroke:#0000ff;" x="298.514402" xlink:href="#ma1137a7b61" y="377.236871"/>
     <use style="fill:#0000ff;stroke:#0000ff;" x="297.824379" xlink:href="#ma1137a7b61" y="375.436608"/>
     <use style="fill:#0000ff;stroke:#0000ff;" x="297.58835" xlink:href="#ma1137a7b61" y="374.791267"/>
     <use style="fill:#0000ff;stroke:#0000ff;" x="297.303669" xlink:href="#ma1137a7b61" y="373.990174"/>
     <use style="fill:#0000ff;stroke:#0000ff;" x="297.191483" xlink:href="#ma1137a7b61" y="373.667149"/>
     <use style="fill:#0000ff;stroke:#0000ff;" x="295.630549" xlink:href="#ma1137a7b61" y="368.610559"/>
     <use style="fill:#0000ff;stroke:#0000ff;" x="294.617369" xlink:href="#ma1137a7b61" y="364.430771"/>
     <use style="fill:#0000ff;stroke:#0000ff;" x="294.363266" xlink:href="#ma1137a7b61" y="363.181665"/>
     <use style="fill:#0000ff;stroke:#0000ff;" x="293.131215" xlink:href="#ma1137a7b61" y="353.073495"/>
     <use style="fill:#0000ff;stroke:#0000ff;" x="293.052158" xlink:href="#ma1137a7b61" y="350.522289"/>
     <use style="fill:#0000ff;stroke:#0000ff;" x="293.04671" xlink:href="#ma1137a7b61" y="349.779828"/>
     <use style="fill:#0000ff;stroke:#0000ff;" x="293.051874" xlink:href="#ma1137a7b61" y="348.780706"/>
     <use style="fill:#0000ff;stroke:#0000ff;" x="293.076079" xlink:href="#ma1137a7b61" y="347.61295"/>
     <use style="fill:#0000ff;stroke:#0000ff;" x="293.347953" xlink:href="#ma1137a7b61" y="343.161593"/>
     <use style="fill:#0000ff;stroke:#0000ff;" x="293.705041" xlink:href="#ma1137a7b61" y="340.064035"/>
     <use style="fill:#0000ff;stroke:#0000ff;" x="294.859616" xlink:href="#ma1137a7b61" y="333.749839"/>
     <use style="fill:#0000ff;stroke:#0000ff;" x="294.948715" xlink:href="#ma1137a7b61" y="333.36405"/>
     <use style="fill:#0000ff;stroke:#0000ff;" x="297.958528" xlink:href="#ma1137a7b61" y="323.483984"/>
     <use style="fill:#0000ff;stroke:#0000ff;" x="299.435683" xlink:href="#ma1137a7b61" y="319.808583"/>
     <use style="fill:#0000ff;stroke:#0000ff;" x="301.860981" xlink:href="#ma1137a7b61" y="314.599899"/>
     <use style="fill:#0000ff;stroke:#0000ff;" x="303.167904" xlink:href="#ma1137a7b61" y="312.091235"/>
     <use style="fill:#0000ff;stroke:#0000ff;" x="304.115768" xlink:href="#ma1137a7b61" y="310.371826"/>
     <use style="fill:#0000ff;stroke:#0000ff;" x="305.370191" xlink:href="#ma1137a7b61" y="308.205745"/>
     <use style="fill:#0000ff;stroke:#0000ff;" x="305.605513" xlink:href="#ma1137a7b61" y="307.811879"/>
     <use style="fill:#0000ff;stroke:#0000ff;" x="307.225764" xlink:href="#ma1137a7b61" y="305.194524"/>
     <use style="fill:#0000ff;stroke:#0000ff;" x="310.370159" xlink:href="#ma1137a7b61" y="300.510762"/>
     <use style="fill:#0000ff;stroke:#0000ff;" x="310.846916" xlink:href="#ma1137a7b61" y="299.838981"/>
     <use style="fill:#0000ff;stroke:#0000ff;" x="310.895202" xlink:href="#ma1137a7b61" y="299.771446"/>
     <use style="fill:#0000ff;stroke:#0000ff;" x="311.017994" xlink:href="#ma1137a7b61" y="299.600115"/>
     <use style="fill:#0000ff;stroke:#0000ff;" x="313.479779" xlink:href="#ma1137a7b61" y="296.280907"/>
     <use style="fill:#0000ff;stroke:#0000ff;" x="315.067291" xlink:href="#ma1137a7b61" y="294.245628"/>
     <use style="fill:#0000ff;stroke:#0000ff;" x="315.571022" xlink:href="#ma1137a7b61" y="293.615232"/>
     <use style="fill:#0000ff;stroke:#0000ff;" x="318.957996" xlink:href="#ma1137a7b61" y="289.54763"/>
     <use style="fill:#0000ff;stroke:#0000ff;" x="324.584198" xlink:href="#ma1137a7b61" y="283.338617"/>
     <use style="fill:#0000ff;stroke:#0000ff;" x="324.707077" xlink:href="#ma1137a7b61" y="283.209465"/>
     <use style="fill:#0000ff;stroke:#0000ff;" x="332.287743" xlink:href="#ma1137a7b61" y="275.675025"/>
     <use style="fill:#0000ff;stroke:#0000ff;" x="333.131382" xlink:href="#ma1137a7b61" y="274.883287"/>
     <use style="fill:#0000ff;stroke:#0000ff;" x="336.639138" xlink:href="#ma1137a7b61" y="271.677114"/>
     <use style="fill:#0000ff;stroke:#0000ff;" x="336.915429" xlink:href="#ma1137a7b61" y="271.430135"/>
     <use style="fill:#0000ff;stroke:#0000ff;" x="337.684655" xlink:href="#ma1137a7b61" y="270.74657"/>
     <use style="fill:#0000ff;stroke:#0000ff;" x="340.268708" xlink:href="#ma1137a7b61" y="268.492218"/>
     <use style="fill:#0000ff;stroke:#0000ff;" x="341.736567" xlink:href="#ma1137a7b61" y="267.238967"/>
     <use style="fill:#0000ff;stroke:#0000ff;" x="342.219104" xlink:href="#ma1137a7b61" y="266.831099"/>
     <use style="fill:#0000ff;stroke:#0000ff;" x="342.950068" xlink:href="#ma1137a7b61" y="266.217024"/>
     <use style="fill:#0000ff;stroke:#0000ff;" x="344.093107" xlink:href="#ma1137a7b61" y="265.265678"/>
     <use style="fill:#0000ff;stroke:#0000ff;" x="345.616443" xlink:href="#ma1137a7b61" y="264.014147"/>
     <use style="fill:#0000ff;stroke:#0000ff;" x="348.809291" xlink:href="#ma1137a7b61" y="261.448263"/>
     <use style="fill:#0000ff;stroke:#0000ff;" x="352.199274" xlink:href="#ma1137a7b61" y="258.802768"/>
     <use style="fill:#0000ff;stroke:#0000ff;" x="353.167249" xlink:href="#ma1137a7b61" y="258.06131"/>
     <use style="fill:#0000ff;stroke:#0000ff;" x="354.319652" xlink:href="#ma1137a7b61" y="257.186283"/>
     <use style="fill:#0000ff;stroke:#0000ff;" x="354.479367" xlink:href="#ma1137a7b61" y="257.065658"/>
     <use style="fill:#0000ff;stroke:#0000ff;" x="355.432905" xlink:href="#ma1137a7b61" y="256.348723"/>
     <use style="fill:#0000ff;stroke:#0000ff;" x="361.721341" xlink:href="#ma1137a7b61" y="251.751148"/>
     <use style="fill:#0000ff;stroke:#0000ff;" x="365.210762" xlink:href="#ma1137a7b61" y="249.290141"/>
     <use style="fill:#0000ff;stroke:#0000ff;" x="368.588153" xlink:href="#ma1137a7b61" y="246.963866"/>
     <use style="fill:#0000ff;stroke:#0000ff;" x="371.209765" xlink:href="#ma1137a7b61" y="245.193573"/>
     <use style="fill:#0000ff;stroke:#0000ff;" x="374.393715" xlink:href="#ma1137a7b61" y="243.082754"/>
     <use style="fill:#0000ff;stroke:#0000ff;" x="377.521265" xlink:href="#ma1137a7b61" y="241.048909"/>
     <use style="fill:#0000ff;stroke:#0000ff;" x="377.94194" xlink:href="#ma1137a7b61" y="240.778217"/>
     <use style="fill:#0000ff;stroke:#0000ff;" x="379.070518" xlink:href="#ma1137a7b61" y="240.055281"/>
     <use style="fill:#0000ff;stroke:#0000ff;" x="392.585347" xlink:href="#ma1137a7b61" y="231.73866"/>
     <use style="fill:#0000ff;stroke:#0000ff;" x="395.947997" xlink:href="#ma1137a7b61" y="229.758062"/>
     <use style="fill:#0000ff;stroke:#0000ff;" x="400.794619" xlink:href="#ma1137a7b61" y="226.959014"/>
     <use style="fill:#0000ff;stroke:#0000ff;" x="404.158233" xlink:href="#ma1137a7b61" y="225.052968"/>
     <use style="fill:#0000ff;stroke:#0000ff;" x="407.169996" xlink:href="#ma1137a7b61" y="223.370419"/>
     <use style="fill:#0000ff;stroke:#0000ff;" x="412.049499" xlink:href="#ma1137a7b61" y="220.690445"/>
     <use style="fill:#0000ff;stroke:#0000ff;" x="425.933437" xlink:href="#ma1137a7b61" y="213.349217"/>
     <use style="fill:#0000ff;stroke:#0000ff;" x="426.517725" xlink:href="#ma1137a7b61" y="213.048801"/>
     <use style="fill:#0000ff;stroke:#0000ff;" x="428.903262" xlink:href="#ma1137a7b61" y="211.828954"/>
     <use style="fill:#0000ff;stroke:#0000ff;" x="429.207427" xlink:href="#ma1137a7b61" y="211.674182"/>
     <use style="fill:#0000ff;stroke:#0000ff;" x="433.39609" xlink:href="#ma1137a7b61" y="209.559949"/>
     <use style="fill:#0000ff;stroke:#0000ff;" x="443.771627" xlink:href="#ma1137a7b61" y="204.453375"/>
     <use style="fill:#0000ff;stroke:#0000ff;" x="454.523923" xlink:href="#ma1137a7b61" y="199.34137"/>
     <use style="fill:#0000ff;stroke:#0000ff;" x="457.139209" xlink:href="#ma1137a7b61" y="198.123599"/>
     <use style="fill:#0000ff;stroke:#0000ff;" x="460.681553" xlink:href="#ma1137a7b61" y="196.489316"/>
     <use style="fill:#0000ff;stroke:#0000ff;" x="465.148833" xlink:href="#ma1137a7b61" y="194.452393"/>
     <use style="fill:#0000ff;stroke:#0000ff;" x="474.651982" xlink:href="#ma1137a7b61" y="190.204202"/>
     <use style="fill:#0000ff;stroke:#0000ff;" x="477.216558" xlink:href="#ma1137a7b61" y="189.07664"/>
     <use style="fill:#0000ff;stroke:#0000ff;" x="484.325224" xlink:href="#ma1137a7b61" y="185.990976"/>
     <use style="fill:#0000ff;stroke:#0000ff;" x="501.667975" xlink:href="#ma1137a7b61" y="178.691682"/>
     <use style="fill:#0000ff;stroke:#0000ff;" x="519.069278" xlink:href="#ma1137a7b61" y="171.661733"/>
     <use style="fill:#0000ff;stroke:#0000ff;" x="524.183853" xlink:href="#ma1137a7b61" y="169.646449"/>
     <use style="fill:#0000ff;stroke:#0000ff;" x="526.034438" xlink:href="#ma1137a7b61" y="168.922664"/>
     <use style="fill:#0000ff;stroke:#0000ff;" x="546.125356" xlink:href="#ma1137a7b61" y="161.239179"/>
     <use style="fill:#0000ff;stroke:#0000ff;" x="564.570313" xlink:href="#ma1137a7b61" y="154.444165"/>
     <use style="fill:#0000ff;stroke:#0000ff;" x="568.852891" xlink:href="#ma1137a7b61" y="152.899088"/>
     <use style="fill:#0000ff;stroke:#0000ff;" x="573.05406" xlink:href="#ma1137a7b61" y="151.394731"/>
     <use style="fill:#0000ff;stroke:#0000ff;" x="578.703312" xlink:href="#ma1137a7b61" y="149.389115"/>
     <use style="fill:#0000ff;stroke:#0000ff;" x="579.926087" xlink:href="#ma1137a7b61" y="148.957558"/>
     <use style="fill:#0000ff;stroke:#0000ff;" x="583.709214" xlink:href="#ma1137a7b61" y="147.628025"/>
     <use style="fill:#0000ff;stroke:#0000ff;" x="590.304663" xlink:href="#ma1137a7b61" y="145.330171"/>
     <use style="fill:#0000ff;stroke:#0000ff;" x="656.187787" xlink:href="#ma1137a7b61" y="123.61396"/>
     <use style="fill:#0000ff;stroke:#0000ff;" x="659.469882" xlink:href="#ma1137a7b61" y="122.584475"/>
     <use style="fill:#0000ff;stroke:#0000ff;" x="661.000165" xlink:href="#ma1137a7b61" y="122.106004"/>
    </g>
   </g>
   <g id="matplotlib.axis_1">
    <g id="xtick_1">
     <g id="line2d_1">
      <defs>
       <path d="M 0 0 
L 0 3.5 
" id="md06644cf94" style="stroke:#000000;stroke-width:0.8;"/>
      </defs>
      <g>
       <use style="stroke:#000000;stroke-width:0.8;" x="134.386806" xlink:href="#md06644cf94" y="498.025469"/>
      </g>
     </g>
     <g id="text_1">
      <!-- 0.510 -->
      <defs>
       <path d="M 31.78125 66.40625 
Q 24.171875 66.40625 20.328125 58.90625 
Q 16.5 51.421875 16.5 36.375 
Q 16.5 21.390625 20.328125 13.890625 
Q 24.171875 6.390625 31.78125 6.390625 
Q 39.453125 6.390625 43.28125 13.890625 
Q 47.125 21.390625 47.125 36.375 
Q 47.125 51.421875 43.28125 58.90625 
Q 39.453125 66.40625 31.78125 66.40625 
z
M 31.78125 74.21875 
Q 44.046875 74.21875 50.515625 64.515625 
Q 56.984375 54.828125 56.984375 36.375 
Q 56.984375 17.96875 50.515625 8.265625 
Q 44.046875 -1.421875 31.78125 -1.421875 
Q 19.53125 -1.421875 13.0625 8.265625 
Q 6.59375 17.96875 6.59375 36.375 
Q 6.59375 54.828125 13.0625 64.515625 
Q 19.53125 74.21875 31.78125 74.21875 
z
" id="DejaVuSans-48"/>
       <path d="M 10.6875 12.40625 
L 21 12.40625 
L 21 0 
L 10.6875 0 
z
" id="DejaVuSans-46"/>
       <path d="M 10.796875 72.90625 
L 49.515625 72.90625 
L 49.515625 64.59375 
L 19.828125 64.59375 
L 19.828125 46.734375 
Q 21.96875 47.46875 24.109375 47.828125 
Q 26.265625 48.1875 28.421875 48.1875 
Q 40.625 48.1875 47.75 41.5 
Q 54.890625 34.8125 54.890625 23.390625 
Q 54.890625 11.625 47.5625 5.09375 
Q 40.234375 -1.421875 26.90625 -1.421875 
Q 22.3125 -1.421875 17.546875 -0.640625 
Q 12.796875 0.140625 7.71875 1.703125 
L 7.71875 11.625 
Q 12.109375 9.234375 16.796875 8.0625 
Q 21.484375 6.890625 26.703125 6.890625 
Q 35.15625 6.890625 40.078125 11.328125 
Q 45.015625 15.765625 45.015625 23.390625 
Q 45.015625 31 40.078125 35.4375 
Q 35.15625 39.890625 26.703125 39.890625 
Q 22.75 39.890625 18.8125 39.015625 
Q 14.890625 38.140625 10.796875 36.28125 
z
" id="DejaVuSans-53"/>
       <path d="M 12.40625 8.296875 
L 28.515625 8.296875 
L 28.515625 63.921875 
L 10.984375 60.40625 
L 10.984375 69.390625 
L 28.421875 72.90625 
L 38.28125 72.90625 
L 38.28125 8.296875 
L 54.390625 8.296875 
L 54.390625 0 
L 12.40625 0 
z
" id="DejaVuSans-49"/>
      </defs>
      <g transform="translate(120.072743 512.623906)scale(0.1 -0.1)">
       <use xlink:href="#DejaVuSans-48"/>
       <use x="63.623047" xlink:href="#DejaVuSans-46"/>
       <use x="95.410156" xlink:href="#DejaVuSans-53"/>
       <use x="159.033203" xlink:href="#DejaVuSans-49"/>
       <use x="222.65625" xlink:href="#DejaVuSans-48"/>
      </g>
     </g>
    </g>
    <g id="xtick_2">
     <g id="line2d_2">
      <g>
       <use style="stroke:#000000;stroke-width:0.8;" x="307.301802" xlink:href="#md06644cf94" y="498.025469"/>
      </g>
     </g>
     <g id="text_2">
      <!-- 0.515 -->
      <g transform="translate(292.987739 512.623906)scale(0.1 -0.1)">
       <use xlink:href="#DejaVuSans-48"/>
       <use x="63.623047" xlink:href="#DejaVuSans-46"/>
       <use x="95.410156" xlink:href="#DejaVuSans-53"/>
       <use x="159.033203" xlink:href="#DejaVuSans-49"/>
       <use x="222.65625" xlink:href="#DejaVuSans-53"/>
      </g>
     </g>
    </g>
    <g id="xtick_3">
     <g id="line2d_3">
      <g>
       <use style="stroke:#000000;stroke-width:0.8;" x="480.216797" xlink:href="#md06644cf94" y="498.025469"/>
      </g>
     </g>
     <g id="text_3">
      <!-- 0.520 -->
      <defs>
       <path d="M 19.1875 8.296875 
L 53.609375 8.296875 
L 53.609375 0 
L 7.328125 0 
L 7.328125 8.296875 
Q 12.9375 14.109375 22.625 23.890625 
Q 32.328125 33.6875 34.8125 36.53125 
Q 39.546875 41.84375 41.421875 45.53125 
Q 43.3125 49.21875 43.3125 52.78125 
Q 43.3125 58.59375 39.234375 62.25 
Q 35.15625 65.921875 28.609375 65.921875 
Q 23.96875 65.921875 18.8125 64.3125 
Q 13.671875 62.703125 7.8125 59.421875 
L 7.8125 69.390625 
Q 13.765625 71.78125 18.9375 73 
Q 24.125 74.21875 28.421875 74.21875 
Q 39.75 74.21875 46.484375 68.546875 
Q 53.21875 62.890625 53.21875 53.421875 
Q 53.21875 48.921875 51.53125 44.890625 
Q 49.859375 40.875 45.40625 35.40625 
Q 44.1875 33.984375 37.640625 27.21875 
Q 31.109375 20.453125 19.1875 8.296875 
z
" id="DejaVuSans-50"/>
      </defs>
      <g transform="translate(465.902735 512.623906)scale(0.1 -0.1)">
       <use xlink:href="#DejaVuSans-48"/>
       <use x="63.623047" xlink:href="#DejaVuSans-46"/>
       <use x="95.410156" xlink:href="#DejaVuSans-53"/>
       <use x="159.033203" xlink:href="#DejaVuSans-50"/>
       <use x="222.65625" xlink:href="#DejaVuSans-48"/>
      </g>
     </g>
    </g>
    <g id="xtick_4">
     <g id="line2d_4">
      <g>
       <use style="stroke:#000000;stroke-width:0.8;" x="653.131793" xlink:href="#md06644cf94" y="498.025469"/>
      </g>
     </g>
     <g id="text_4">
      <!-- 0.525 -->
      <g transform="translate(638.817731 512.623906)scale(0.1 -0.1)">
       <use xlink:href="#DejaVuSans-48"/>
       <use x="63.623047" xlink:href="#DejaVuSans-46"/>
       <use x="95.410156" xlink:href="#DejaVuSans-53"/>
       <use x="159.033203" xlink:href="#DejaVuSans-50"/>
       <use x="222.65625" xlink:href="#DejaVuSans-53"/>
      </g>
     </g>
    </g>
    <g id="xtick_5">
     <g id="line2d_5">
      <g>
       <use style="stroke:#000000;stroke-width:0.8;" x="826.046789" xlink:href="#md06644cf94" y="498.025469"/>
      </g>
     </g>
     <g id="text_5">
      <!-- 0.530 -->
      <defs>
       <path d="M 40.578125 39.3125 
Q 47.65625 37.796875 51.625 33 
Q 55.609375 28.21875 55.609375 21.1875 
Q 55.609375 10.40625 48.1875 4.484375 
Q 40.765625 -1.421875 27.09375 -1.421875 
Q 22.515625 -1.421875 17.65625 -0.515625 
Q 12.796875 0.390625 7.625 2.203125 
L 7.625 11.71875 
Q 11.71875 9.328125 16.59375 8.109375 
Q 21.484375 6.890625 26.8125 6.890625 
Q 36.078125 6.890625 40.9375 10.546875 
Q 45.796875 14.203125 45.796875 21.1875 
Q 45.796875 27.640625 41.28125 31.265625 
Q 36.765625 34.90625 28.71875 34.90625 
L 20.21875 34.90625 
L 20.21875 43.015625 
L 29.109375 43.015625 
Q 36.375 43.015625 40.234375 45.921875 
Q 44.09375 48.828125 44.09375 54.296875 
Q 44.09375 59.90625 40.109375 62.90625 
Q 36.140625 65.921875 28.71875 65.921875 
Q 24.65625 65.921875 20.015625 65.03125 
Q 15.375 64.15625 9.8125 62.3125 
L 9.8125 71.09375 
Q 15.4375 72.65625 20.34375 73.4375 
Q 25.25 74.21875 29.59375 74.21875 
Q 40.828125 74.21875 47.359375 69.109375 
Q 53.90625 64.015625 53.90625 55.328125 
Q 53.90625 49.265625 50.4375 45.09375 
Q 46.96875 40.921875 40.578125 39.3125 
z
" id="DejaVuSans-51"/>
      </defs>
      <g transform="translate(811.732727 512.623906)scale(0.1 -0.1)">
       <use xlink:href="#DejaVuSans-48"/>
       <use x="63.623047" xlink:href="#DejaVuSans-46"/>
       <use x="95.410156" xlink:href="#DejaVuSans-53"/>
       <use x="159.033203" xlink:href="#DejaVuSans-51"/>
       <use x="222.65625" xlink:href="#DejaVuSans-48"/>
      </g>
     </g>
    </g>
    <g id="text_6">
     <!-- Volatility -->
     <defs>
      <path d="M 28.609375 0 
L 0.78125 72.90625 
L 11.078125 72.90625 
L 34.1875 11.53125 
L 57.328125 72.90625 
L 67.578125 72.90625 
L 39.796875 0 
z
" id="DejaVuSans-86"/>
      <path d="M 30.609375 48.390625 
Q 23.390625 48.390625 19.1875 42.75 
Q 14.984375 37.109375 14.984375 27.296875 
Q 14.984375 17.484375 19.15625 11.84375 
Q 23.34375 6.203125 30.609375 6.203125 
Q 37.796875 6.203125 41.984375 11.859375 
Q 46.1875 17.53125 46.1875 27.296875 
Q 46.1875 37.015625 41.984375 42.703125 
Q 37.796875 48.390625 30.609375 48.390625 
z
M 30.609375 56 
Q 42.328125 56 49.015625 48.375 
Q 55.71875 40.765625 55.71875 27.296875 
Q 55.71875 13.875 49.015625 6.21875 
Q 42.328125 -1.421875 30.609375 -1.421875 
Q 18.84375 -1.421875 12.171875 6.21875 
Q 5.515625 13.875 5.515625 27.296875 
Q 5.515625 40.765625 12.171875 48.375 
Q 18.84375 56 30.609375 56 
z
" id="DejaVuSans-111"/>
      <path d="M 9.421875 75.984375 
L 18.40625 75.984375 
L 18.40625 0 
L 9.421875 0 
z
" id="DejaVuSans-108"/>
      <path d="M 34.28125 27.484375 
Q 23.390625 27.484375 19.1875 25 
Q 14.984375 22.515625 14.984375 16.5 
Q 14.984375 11.71875 18.140625 8.90625 
Q 21.296875 6.109375 26.703125 6.109375 
Q 34.1875 6.109375 38.703125 11.40625 
Q 43.21875 16.703125 43.21875 25.484375 
L 43.21875 27.484375 
z
M 52.203125 31.203125 
L 52.203125 0 
L 43.21875 0 
L 43.21875 8.296875 
Q 40.140625 3.328125 35.546875 0.953125 
Q 30.953125 -1.421875 24.3125 -1.421875 
Q 15.921875 -1.421875 10.953125 3.296875 
Q 6 8.015625 6 15.921875 
Q 6 25.140625 12.171875 29.828125 
Q 18.359375 34.515625 30.609375 34.515625 
L 43.21875 34.515625 
L 43.21875 35.40625 
Q 43.21875 41.609375 39.140625 45 
Q 35.0625 48.390625 27.6875 48.390625 
Q 23 48.390625 18.546875 47.265625 
Q 14.109375 46.140625 10.015625 43.890625 
L 10.015625 52.203125 
Q 14.9375 54.109375 19.578125 55.046875 
Q 24.21875 56 28.609375 56 
Q 40.484375 56 46.34375 49.84375 
Q 52.203125 43.703125 52.203125 31.203125 
z
" id="DejaVuSans-97"/>
      <path d="M 18.3125 70.21875 
L 18.3125 54.6875 
L 36.8125 54.6875 
L 36.8125 47.703125 
L 18.3125 47.703125 
L 18.3125 18.015625 
Q 18.3125 11.328125 20.140625 9.421875 
Q 21.96875 7.515625 27.59375 7.515625 
L 36.8125 7.515625 
L 36.8125 0 
L 27.59375 0 
Q 17.1875 0 13.234375 3.875 
Q 9.28125 7.765625 9.28125 18.015625 
L 9.28125 47.703125 
L 2.6875 47.703125 
L 2.6875 54.6875 
L 9.28125 54.6875 
L 9.28125 70.21875 
z
" id="DejaVuSans-116"/>
      <path d="M 9.421875 54.6875 
L 18.40625 54.6875 
L 18.40625 0 
L 9.421875 0 
z
M 9.421875 75.984375 
L 18.40625 75.984375 
L 18.40625 64.59375 
L 9.421875 64.59375 
z
" id="DejaVuSans-105"/>
      <path d="M 32.171875 -5.078125 
Q 28.375 -14.84375 24.75 -17.8125 
Q 21.140625 -20.796875 15.09375 -20.796875 
L 7.90625 -20.796875 
L 7.90625 -13.28125 
L 13.1875 -13.28125 
Q 16.890625 -13.28125 18.9375 -11.515625 
Q 21 -9.765625 23.484375 -3.21875 
L 25.09375 0.875 
L 2.984375 54.6875 
L 12.5 54.6875 
L 29.59375 11.921875 
L 46.6875 54.6875 
L 56.203125 54.6875 
z
" id="DejaVuSans-121"/>
     </defs>
     <g transform="translate(455.049219 526.302031)scale(0.1 -0.1)">
      <use xlink:href="#DejaVuSans-86"/>
      <use x="68.298828" xlink:href="#DejaVuSans-111"/>
      <use x="129.480469" xlink:href="#DejaVuSans-108"/>
      <use x="157.263672" xlink:href="#DejaVuSans-97"/>
      <use x="218.542969" xlink:href="#DejaVuSans-116"/>
      <use x="257.751953" xlink:href="#DejaVuSans-105"/>
      <use x="285.535156" xlink:href="#DejaVuSans-108"/>
      <use x="313.318359" xlink:href="#DejaVuSans-105"/>
      <use x="341.101562" xlink:href="#DejaVuSans-116"/>
      <use x="380.310547" xlink:href="#DejaVuSans-121"/>
     </g>
    </g>
   </g>
   <g id="matplotlib.axis_2">
    <g id="ytick_1">
     <g id="line2d_6">
      <defs>
       <path d="M 0 0 
L -3.5 0 
" id="m6e85c9b6f6" style="stroke:#000000;stroke-width:0.8;"/>
      </defs>
      <g>
       <use style="stroke:#000000;stroke-width:0.8;" x="58.523438" xlink:href="#m6e85c9b6f6" y="456.610525"/>
      </g>
     </g>
     <g id="text_7">
      <!-- −0.13 -->
      <defs>
       <path d="M 10.59375 35.5 
L 73.1875 35.5 
L 73.1875 27.203125 
L 10.59375 27.203125 
z
" id="DejaVuSans-8722"/>
      </defs>
      <g transform="translate(20.878125 460.409744)scale(0.1 -0.1)">
       <use xlink:href="#DejaVuSans-8722"/>
       <use x="83.789062" xlink:href="#DejaVuSans-48"/>
       <use x="147.412109" xlink:href="#DejaVuSans-46"/>
       <use x="179.199219" xlink:href="#DejaVuSans-49"/>
       <use x="242.822266" xlink:href="#DejaVuSans-51"/>
      </g>
     </g>
    </g>
    <g id="ytick_2">
     <g id="line2d_7">
      <g>
       <use style="stroke:#000000;stroke-width:0.8;" x="58.523438" xlink:href="#m6e85c9b6f6" y="367.488264"/>
      </g>
     </g>
     <g id="text_8">
      <!-- −0.12 -->
      <g transform="translate(20.878125 371.287482)scale(0.1 -0.1)">
       <use xlink:href="#DejaVuSans-8722"/>
       <use x="83.789062" xlink:href="#DejaVuSans-48"/>
       <use x="147.412109" xlink:href="#DejaVuSans-46"/>
       <use x="179.199219" xlink:href="#DejaVuSans-49"/>
       <use x="242.822266" xlink:href="#DejaVuSans-50"/>
      </g>
     </g>
    </g>
    <g id="ytick_3">
     <g id="line2d_8">
      <g>
       <use style="stroke:#000000;stroke-width:0.8;" x="58.523438" xlink:href="#m6e85c9b6f6" y="278.366002"/>
      </g>
     </g>
     <g id="text_9">
      <!-- −0.11 -->
      <g transform="translate(20.878125 282.165221)scale(0.1 -0.1)">
       <use xlink:href="#DejaVuSans-8722"/>
       <use x="83.789062" xlink:href="#DejaVuSans-48"/>
       <use x="147.412109" xlink:href="#DejaVuSans-46"/>
       <use x="179.199219" xlink:href="#DejaVuSans-49"/>
       <use x="242.822266" xlink:href="#DejaVuSans-49"/>
      </g>
     </g>
    </g>
    <g id="ytick_4">
     <g id="line2d_9">
      <g>
       <use style="stroke:#000000;stroke-width:0.8;" x="58.523438" xlink:href="#m6e85c9b6f6" y="189.243741"/>
      </g>
     </g>
     <g id="text_10">
      <!-- −0.10 -->
      <g transform="translate(20.878125 193.04296)scale(0.1 -0.1)">
       <use xlink:href="#DejaVuSans-8722"/>
       <use x="83.789062" xlink:href="#DejaVuSans-48"/>
       <use x="147.412109" xlink:href="#DejaVuSans-46"/>
       <use x="179.199219" xlink:href="#DejaVuSans-49"/>
       <use x="242.822266" xlink:href="#DejaVuSans-48"/>
      </g>
     </g>
    </g>
    <g id="ytick_5">
     <g id="line2d_10">
      <g>
       <use style="stroke:#000000;stroke-width:0.8;" x="58.523438" xlink:href="#m6e85c9b6f6" y="100.12148"/>
      </g>
     </g>
     <g id="text_11">
      <!-- −0.09 -->
      <defs>
       <path d="M 10.984375 1.515625 
L 10.984375 10.5 
Q 14.703125 8.734375 18.5 7.8125 
Q 22.3125 6.890625 25.984375 6.890625 
Q 35.75 6.890625 40.890625 13.453125 
Q 46.046875 20.015625 46.78125 33.40625 
Q 43.953125 29.203125 39.59375 26.953125 
Q 35.25 24.703125 29.984375 24.703125 
Q 19.046875 24.703125 12.671875 31.3125 
Q 6.296875 37.9375 6.296875 49.421875 
Q 6.296875 60.640625 12.9375 67.421875 
Q 19.578125 74.21875 30.609375 74.21875 
Q 43.265625 74.21875 49.921875 64.515625 
Q 56.59375 54.828125 56.59375 36.375 
Q 56.59375 19.140625 48.40625 8.859375 
Q 40.234375 -1.421875 26.421875 -1.421875 
Q 22.703125 -1.421875 18.890625 -0.6875 
Q 15.09375 0.046875 10.984375 1.515625 
z
M 30.609375 32.421875 
Q 37.25 32.421875 41.125 36.953125 
Q 45.015625 41.5 45.015625 49.421875 
Q 45.015625 57.28125 41.125 61.84375 
Q 37.25 66.40625 30.609375 66.40625 
Q 23.96875 66.40625 20.09375 61.84375 
Q 16.21875 57.28125 16.21875 49.421875 
Q 16.21875 41.5 20.09375 36.953125 
Q 23.96875 32.421875 30.609375 32.421875 
z
" id="DejaVuSans-57"/>
      </defs>
      <g transform="translate(20.878125 103.920699)scale(0.1 -0.1)">
       <use xlink:href="#DejaVuSans-8722"/>
       <use x="83.789062" xlink:href="#DejaVuSans-48"/>
       <use x="147.412109" xlink:href="#DejaVuSans-46"/>
       <use x="179.199219" xlink:href="#DejaVuSans-48"/>
       <use x="242.822266" xlink:href="#DejaVuSans-57"/>
      </g>
     </g>
    </g>
    <g id="ytick_6">
     <g id="line2d_11">
      <g>
       <use style="stroke:#000000;stroke-width:0.8;" x="58.523438" xlink:href="#m6e85c9b6f6" y="10.999219"/>
      </g>
     </g>
     <g id="text_12">
      <!-- −0.08 -->
      <defs>
       <path d="M 31.78125 34.625 
Q 24.75 34.625 20.71875 30.859375 
Q 16.703125 27.09375 16.703125 20.515625 
Q 16.703125 13.921875 20.71875 10.15625 
Q 24.75 6.390625 31.78125 6.390625 
Q 38.8125 6.390625 42.859375 10.171875 
Q 46.921875 13.96875 46.921875 20.515625 
Q 46.921875 27.09375 42.890625 30.859375 
Q 38.875 34.625 31.78125 34.625 
z
M 21.921875 38.8125 
Q 15.578125 40.375 12.03125 44.71875 
Q 8.5 49.078125 8.5 55.328125 
Q 8.5 64.0625 14.71875 69.140625 
Q 20.953125 74.21875 31.78125 74.21875 
Q 42.671875 74.21875 48.875 69.140625 
Q 55.078125 64.0625 55.078125 55.328125 
Q 55.078125 49.078125 51.53125 44.71875 
Q 48 40.375 41.703125 38.8125 
Q 48.828125 37.15625 52.796875 32.3125 
Q 56.78125 27.484375 56.78125 20.515625 
Q 56.78125 9.90625 50.3125 4.234375 
Q 43.84375 -1.421875 31.78125 -1.421875 
Q 19.734375 -1.421875 13.25 4.234375 
Q 6.78125 9.90625 6.78125 20.515625 
Q 6.78125 27.484375 10.78125 32.3125 
Q 14.796875 37.15625 21.921875 38.8125 
z
M 18.3125 54.390625 
Q 18.3125 48.734375 21.84375 45.5625 
Q 25.390625 42.390625 31.78125 42.390625 
Q 38.140625 42.390625 41.71875 45.5625 
Q 45.3125 48.734375 45.3125 54.390625 
Q 45.3125 60.0625 41.71875 63.234375 
Q 38.140625 66.40625 31.78125 66.40625 
Q 25.390625 66.40625 21.84375 63.234375 
Q 18.3125 60.0625 18.3125 54.390625 
z
" id="DejaVuSans-56"/>
      </defs>
      <g transform="translate(20.878125 14.798437)scale(0.1 -0.1)">
       <use xlink:href="#DejaVuSans-8722"/>
       <use x="83.789062" xlink:href="#DejaVuSans-48"/>
       <use x="147.412109" xlink:href="#DejaVuSans-46"/>
       <use x="179.199219" xlink:href="#DejaVuSans-48"/>
       <use x="242.822266" xlink:href="#DejaVuSans-56"/>
      </g>
     </g>
    </g>
    <g id="text_13">
     <!-- Return -->
     <defs>
      <path d="M 44.390625 34.1875 
Q 47.5625 33.109375 50.5625 29.59375 
Q 53.5625 26.078125 56.59375 19.921875 
L 66.609375 0 
L 56 0 
L 46.6875 18.703125 
Q 43.0625 26.03125 39.671875 28.421875 
Q 36.28125 30.8125 30.421875 30.8125 
L 19.671875 30.8125 
L 19.671875 0 
L 9.8125 0 
L 9.8125 72.90625 
L 32.078125 72.90625 
Q 44.578125 72.90625 50.734375 67.671875 
Q 56.890625 62.453125 56.890625 51.90625 
Q 56.890625 45.015625 53.6875 40.46875 
Q 50.484375 35.9375 44.390625 34.1875 
z
M 19.671875 64.796875 
L 19.671875 38.921875 
L 32.078125 38.921875 
Q 39.203125 38.921875 42.84375 42.21875 
Q 46.484375 45.515625 46.484375 51.90625 
Q 46.484375 58.296875 42.84375 61.546875 
Q 39.203125 64.796875 32.078125 64.796875 
z
" id="DejaVuSans-82"/>
      <path d="M 56.203125 29.59375 
L 56.203125 25.203125 
L 14.890625 25.203125 
Q 15.484375 15.921875 20.484375 11.0625 
Q 25.484375 6.203125 34.421875 6.203125 
Q 39.59375 6.203125 44.453125 7.46875 
Q 49.3125 8.734375 54.109375 11.28125 
L 54.109375 2.78125 
Q 49.265625 0.734375 44.1875 -0.34375 
Q 39.109375 -1.421875 33.890625 -1.421875 
Q 20.796875 -1.421875 13.15625 6.1875 
Q 5.515625 13.8125 5.515625 26.8125 
Q 5.515625 40.234375 12.765625 48.109375 
Q 20.015625 56 32.328125 56 
Q 43.359375 56 49.78125 48.890625 
Q 56.203125 41.796875 56.203125 29.59375 
z
M 47.21875 32.234375 
Q 47.125 39.59375 43.09375 43.984375 
Q 39.0625 48.390625 32.421875 48.390625 
Q 24.90625 48.390625 20.390625 44.140625 
Q 15.875 39.890625 15.1875 32.171875 
z
" id="DejaVuSans-101"/>
      <path d="M 8.5 21.578125 
L 8.5 54.6875 
L 17.484375 54.6875 
L 17.484375 21.921875 
Q 17.484375 14.15625 20.5 10.265625 
Q 23.53125 6.390625 29.59375 6.390625 
Q 36.859375 6.390625 41.078125 11.03125 
Q 45.3125 15.671875 45.3125 23.6875 
L 45.3125 54.6875 
L 54.296875 54.6875 
L 54.296875 0 
L 45.3125 0 
L 45.3125 8.40625 
Q 42.046875 3.421875 37.71875 1 
Q 33.40625 -1.421875 27.6875 -1.421875 
Q 18.265625 -1.421875 13.375 4.4375 
Q 8.5 10.296875 8.5 21.578125 
z
M 31.109375 56 
z
" id="DejaVuSans-117"/>
      <path d="M 41.109375 46.296875 
Q 39.59375 47.171875 37.8125 47.578125 
Q 36.03125 48 33.890625 48 
Q 26.265625 48 22.1875 43.046875 
Q 18.109375 38.09375 18.109375 28.8125 
L 18.109375 0 
L 9.078125 0 
L 9.078125 54.6875 
L 18.109375 54.6875 
L 18.109375 46.1875 
Q 20.953125 51.171875 25.484375 53.578125 
Q 30.03125 56 36.53125 56 
Q 37.453125 56 38.578125 55.875 
Q 39.703125 55.765625 41.0625 55.515625 
z
" id="DejaVuSans-114"/>
      <path d="M 54.890625 33.015625 
L 54.890625 0 
L 45.90625 0 
L 45.90625 32.71875 
Q 45.90625 40.484375 42.875 44.328125 
Q 39.84375 48.1875 33.796875 48.1875 
Q 26.515625 48.1875 22.3125 43.546875 
Q 18.109375 38.921875 18.109375 30.90625 
L 18.109375 0 
L 9.078125 0 
L 9.078125 54.6875 
L 18.109375 54.6875 
L 18.109375 46.1875 
Q 21.34375 51.125 25.703125 53.5625 
Q 30.078125 56 35.796875 56 
Q 45.21875 56 50.046875 50.171875 
Q 54.890625 44.34375 54.890625 33.015625 
z
" id="DejaVuSans-110"/>
     </defs>
     <g transform="translate(14.798438 270.305469)rotate(-90)scale(0.1 -0.1)">
      <use xlink:href="#DejaVuSans-82"/>
      <use x="69.419922" xlink:href="#DejaVuSans-101"/>
      <use x="130.943359" xlink:href="#DejaVuSans-116"/>
      <use x="170.152344" xlink:href="#DejaVuSans-117"/>
      <use x="233.53125" xlink:href="#DejaVuSans-114"/>
      <use x="274.628906" xlink:href="#DejaVuSans-110"/>
     </g>
    </g>
   </g>
   <g id="patch_3">
    <path d="M 58.523438 498.025469 
L 58.523438 8.785469 
" style="fill:none;stroke:#000000;stroke-linecap:square;stroke-linejoin:miter;stroke-width:0.8;"/>
   </g>
   <g id="patch_4">
    <path d="M 895.523438 498.025469 
L 895.523438 8.785469 
" style="fill:none;stroke:#000000;stroke-linecap:square;stroke-linejoin:miter;stroke-width:0.8;"/>
   </g>
   <g id="patch_5">
    <path d="M 58.523438 498.025469 
L 895.523438 498.025469 
" style="fill:none;stroke:#000000;stroke-linecap:square;stroke-linejoin:miter;stroke-width:0.8;"/>
   </g>
   <g id="patch_6">
    <path d="M 58.523438 8.785469 
L 895.523438 8.785469 
" style="fill:none;stroke:#000000;stroke-linecap:square;stroke-linejoin:miter;stroke-width:0.8;"/>
   </g>
  </g>
 </g>
 <defs>
  <clipPath id="pbe5eef7f6a">
   <rect height="489.24" width="837" x="58.523438" y="8.785469"/>
  </clipPath>
 </defs>
</svg>
