<?xml version="1.0" encoding="utf-8" standalone="no"?>
<!DOCTYPE svg PUBLIC "-//W3C//DTD SVG 1.1//EN"
  "http://www.w3.org/Graphics/SVG/1.1/DTD/svg11.dtd">
<!-- Created with matplotlib (https://matplotlib.org/) -->
<svg height="533.99625pt" version="1.1" viewBox="0 0 902.723438 533.99625" width="902.723438pt" xmlns="http://www.w3.org/2000/svg" xmlns:xlink="http://www.w3.org/1999/xlink">
 <defs>
  <style type="text/css">
*{stroke-linecap:butt;stroke-linejoin:round;}
  </style>
 </defs>
 <g id="figure_1">
  <g id="patch_1">
   <path d="M -0 533.99625 
L 902.723438 533.99625 
L 902.723438 0 
L -0 0 
z
" style="fill:none;"/>
  </g>
  <g id="axes_1">
   <g id="patch_2">
    <path d="M 58.523438 496.44 
L 895.523438 496.44 
L 895.523438 7.2 
L 58.523438 7.2 
z
" style="fill:#ffffff;"/>
   </g>
   <g id="PathCollection_1">
    <defs>
     <path d="M 0 -5 
L -1.12257 -1.545085 
L -4.755283 -1.545085 
L -1.816356 0.59017 
L -2.938926 4.045085 
L -0 1.90983 
L 2.938926 4.045085 
L 1.816356 0.59017 
L 4.755283 -1.545085 
L 1.12257 -1.545085 
z
" id="mec97e1192b" style="stroke:#0000ff;"/>
    </defs>
    <g clip-path="url(#p7c116db281)">
     <use style="fill:#0000ff;stroke:#0000ff;" x="587.814851" xlink:href="#mec97e1192b" y="445.59053"/>
     <use style="fill:#0000ff;stroke:#0000ff;" x="795.87795" xlink:href="#mec97e1192b" y="442.956565"/>
     <use style="fill:#0000ff;stroke:#0000ff;" x="418.884189" xlink:href="#mec97e1192b" y="404.676001"/>
     <use style="fill:#0000ff;stroke:#0000ff;" x="591.068603" xlink:href="#mec97e1192b" y="398.894231"/>
     <use style="fill:#0000ff;stroke:#0000ff;" x="602.368557" xlink:href="#mec97e1192b" y="384.222435"/>
     <use style="fill:#0000ff;stroke:#0000ff;" x="653.060885" xlink:href="#mec97e1192b" y="380.293435"/>
     <use style="fill:#0000ff;stroke:#0000ff;" x="392.263888" xlink:href="#mec97e1192b" y="378.751499"/>
     <use style="fill:#0000ff;stroke:#0000ff;" x="364.047492" xlink:href="#mec97e1192b" y="376.144006"/>
     <use style="fill:#0000ff;stroke:#0000ff;" x="689.47753" xlink:href="#mec97e1192b" y="374.242863"/>
     <use style="fill:#0000ff;stroke:#0000ff;" x="547.722836" xlink:href="#mec97e1192b" y="374.175535"/>
     <use style="fill:#0000ff;stroke:#0000ff;" x="292.491109" xlink:href="#mec97e1192b" y="367.788147"/>
     <use style="fill:#0000ff;stroke:#0000ff;" x="343.468388" xlink:href="#mec97e1192b" y="363.6923"/>
     <use style="fill:#0000ff;stroke:#0000ff;" x="338.150755" xlink:href="#mec97e1192b" y="359.700896"/>
     <use style="fill:#0000ff;stroke:#0000ff;" x="495.319176" xlink:href="#mec97e1192b" y="359.675584"/>
     <use style="fill:#0000ff;stroke:#0000ff;" x="464.765799" xlink:href="#mec97e1192b" y="359.43741"/>
     <use style="fill:#0000ff;stroke:#0000ff;" x="316.799923" xlink:href="#mec97e1192b" y="356.134712"/>
     <use style="fill:#0000ff;stroke:#0000ff;" x="432.992047" xlink:href="#mec97e1192b" y="350.677969"/>
     <use style="fill:#0000ff;stroke:#0000ff;" x="348.864414" xlink:href="#mec97e1192b" y="350.537478"/>
     <use style="fill:#0000ff;stroke:#0000ff;" x="405.74236" xlink:href="#mec97e1192b" y="348.377126"/>
     <use style="fill:#0000ff;stroke:#0000ff;" x="527.538887" xlink:href="#mec97e1192b" y="347.922938"/>
     <use style="fill:#0000ff;stroke:#0000ff;" x="349.731" xlink:href="#mec97e1192b" y="344.692611"/>
     <use style="fill:#0000ff;stroke:#0000ff;" x="425.583653" xlink:href="#mec97e1192b" y="343.937092"/>
     <use style="fill:#0000ff;stroke:#0000ff;" x="430.284959" xlink:href="#mec97e1192b" y="342.389895"/>
     <use style="fill:#0000ff;stroke:#0000ff;" x="357.072771" xlink:href="#mec97e1192b" y="341.726787"/>
     <use style="fill:#0000ff;stroke:#0000ff;" x="427.109723" xlink:href="#mec97e1192b" y="339.014771"/>
     <use style="fill:#0000ff;stroke:#0000ff;" x="370.97404" xlink:href="#mec97e1192b" y="336.525456"/>
     <use style="fill:#0000ff;stroke:#0000ff;" x="554.387815" xlink:href="#mec97e1192b" y="335.651378"/>
     <use style="fill:#0000ff;stroke:#0000ff;" x="344.319733" xlink:href="#mec97e1192b" y="333.201868"/>
     <use style="fill:#0000ff;stroke:#0000ff;" x="654.644529" xlink:href="#mec97e1192b" y="331.685941"/>
     <use style="fill:#0000ff;stroke:#0000ff;" x="417.052144" xlink:href="#mec97e1192b" y="329.909067"/>
     <use style="fill:#0000ff;stroke:#0000ff;" x="171.418546" xlink:href="#mec97e1192b" y="324.780957"/>
     <use style="fill:#0000ff;stroke:#0000ff;" x="390.848441" xlink:href="#mec97e1192b" y="322.882968"/>
     <use style="fill:#0000ff;stroke:#0000ff;" x="503.553108" xlink:href="#mec97e1192b" y="322.142996"/>
     <use style="fill:#0000ff;stroke:#0000ff;" x="429.475067" xlink:href="#mec97e1192b" y="319.351898"/>
     <use style="fill:#0000ff;stroke:#0000ff;" x="370.707529" xlink:href="#mec97e1192b" y="318.500568"/>
     <use style="fill:#0000ff;stroke:#0000ff;" x="353.097279" xlink:href="#mec97e1192b" y="317.248029"/>
     <use style="fill:#0000ff;stroke:#0000ff;" x="550.52683" xlink:href="#mec97e1192b" y="316.828722"/>
     <use style="fill:#0000ff;stroke:#0000ff;" x="273.216421" xlink:href="#mec97e1192b" y="311.360548"/>
     <use style="fill:#0000ff;stroke:#0000ff;" x="381.244854" xlink:href="#mec97e1192b" y="310.816179"/>
     <use style="fill:#0000ff;stroke:#0000ff;" x="474.899852" xlink:href="#mec97e1192b" y="308.321237"/>
     <use style="fill:#0000ff;stroke:#0000ff;" x="543.630399" xlink:href="#mec97e1192b" y="306.599648"/>
     <use style="fill:#0000ff;stroke:#0000ff;" x="458.414405" xlink:href="#mec97e1192b" y="305.641349"/>
     <use style="fill:#0000ff;stroke:#0000ff;" x="417.153569" xlink:href="#mec97e1192b" y="305.62191"/>
     <use style="fill:#0000ff;stroke:#0000ff;" x="439.243184" xlink:href="#mec97e1192b" y="305.618091"/>
     <use style="fill:#0000ff;stroke:#0000ff;" x="465.658215" xlink:href="#mec97e1192b" y="304.319429"/>
     <use style="fill:#0000ff;stroke:#0000ff;" x="222.981908" xlink:href="#mec97e1192b" y="299.804924"/>
     <use style="fill:#0000ff;stroke:#0000ff;" x="478.944799" xlink:href="#mec97e1192b" y="296.22193"/>
     <use style="fill:#0000ff;stroke:#0000ff;" x="438.173236" xlink:href="#mec97e1192b" y="291.847449"/>
     <use style="fill:#0000ff;stroke:#0000ff;" x="430.233594" xlink:href="#mec97e1192b" y="283.798756"/>
     <use style="fill:#0000ff;stroke:#0000ff;" x="352.769128" xlink:href="#mec97e1192b" y="278.251357"/>
     <use style="fill:#0000ff;stroke:#0000ff;" x="421.190059" xlink:href="#mec97e1192b" y="276.601792"/>
     <use style="fill:#0000ff;stroke:#0000ff;" x="301.441423" xlink:href="#mec97e1192b" y="271.977131"/>
     <use style="fill:#0000ff;stroke:#0000ff;" x="528.762912" xlink:href="#mec97e1192b" y="268.170015"/>
     <use style="fill:#0000ff;stroke:#0000ff;" x="482.417713" xlink:href="#mec97e1192b" y="268.139335"/>
     <use style="fill:#0000ff;stroke:#0000ff;" x="312.396269" xlink:href="#mec97e1192b" y="268.086186"/>
     <use style="fill:#0000ff;stroke:#0000ff;" x="296.949165" xlink:href="#mec97e1192b" y="265.700169"/>
     <use style="fill:#0000ff;stroke:#0000ff;" x="564.652602" xlink:href="#mec97e1192b" y="263.860068"/>
     <use style="fill:#0000ff;stroke:#0000ff;" x="269.477891" xlink:href="#mec97e1192b" y="263.564022"/>
     <use style="fill:#0000ff;stroke:#0000ff;" x="188.922875" xlink:href="#mec97e1192b" y="262.844557"/>
     <use style="fill:#0000ff;stroke:#0000ff;" x="158.168925" xlink:href="#mec97e1192b" y="261.808647"/>
     <use style="fill:#0000ff;stroke:#0000ff;" x="210.371426" xlink:href="#mec97e1192b" y="261.179985"/>
     <use style="fill:#0000ff;stroke:#0000ff;" x="417.242641" xlink:href="#mec97e1192b" y="260.480438"/>
     <use style="fill:#0000ff;stroke:#0000ff;" x="448.796619" xlink:href="#mec97e1192b" y="255.314044"/>
     <use style="fill:#0000ff;stroke:#0000ff;" x="299.173157" xlink:href="#mec97e1192b" y="254.593265"/>
     <use style="fill:#0000ff;stroke:#0000ff;" x="462.326591" xlink:href="#mec97e1192b" y="253.008976"/>
     <use style="fill:#0000ff;stroke:#0000ff;" x="438.324458" xlink:href="#mec97e1192b" y="250.842217"/>
     <use style="fill:#0000ff;stroke:#0000ff;" x="353.326115" xlink:href="#mec97e1192b" y="249.778085"/>
     <use style="fill:#0000ff;stroke:#0000ff;" x="219.098802" xlink:href="#mec97e1192b" y="243.892119"/>
     <use style="fill:#0000ff;stroke:#0000ff;" x="507.971223" xlink:href="#mec97e1192b" y="239.675109"/>
     <use style="fill:#0000ff;stroke:#0000ff;" x="418.071903" xlink:href="#mec97e1192b" y="238.18455"/>
     <use style="fill:#0000ff;stroke:#0000ff;" x="453.833555" xlink:href="#mec97e1192b" y="237.694389"/>
     <use style="fill:#0000ff;stroke:#0000ff;" x="410.232566" xlink:href="#mec97e1192b" y="229.896187"/>
     <use style="fill:#0000ff;stroke:#0000ff;" x="257.478157" xlink:href="#mec97e1192b" y="229.507325"/>
     <use style="fill:#0000ff;stroke:#0000ff;" x="263.951081" xlink:href="#mec97e1192b" y="225.527532"/>
     <use style="fill:#0000ff;stroke:#0000ff;" x="243.596594" xlink:href="#mec97e1192b" y="225.501032"/>
     <use style="fill:#0000ff;stroke:#0000ff;" x="472.859166" xlink:href="#mec97e1192b" y="223.596594"/>
     <use style="fill:#0000ff;stroke:#0000ff;" x="419.35905" xlink:href="#mec97e1192b" y="221.322903"/>
     <use style="fill:#0000ff;stroke:#0000ff;" x="376.726271" xlink:href="#mec97e1192b" y="219.848268"/>
     <use style="fill:#0000ff;stroke:#0000ff;" x="504.933651" xlink:href="#mec97e1192b" y="219.329816"/>
     <use style="fill:#0000ff;stroke:#0000ff;" x="516.99517" xlink:href="#mec97e1192b" y="219.271535"/>
     <use style="fill:#0000ff;stroke:#0000ff;" x="248.619207" xlink:href="#mec97e1192b" y="218.113936"/>
     <use style="fill:#0000ff;stroke:#0000ff;" x="544.994734" xlink:href="#mec97e1192b" y="216.013454"/>
     <use style="fill:#0000ff;stroke:#0000ff;" x="386.974928" xlink:href="#mec97e1192b" y="214.575094"/>
     <use style="fill:#0000ff;stroke:#0000ff;" x="373.466378" xlink:href="#mec97e1192b" y="213.269657"/>
     <use style="fill:#0000ff;stroke:#0000ff;" x="461.456682" xlink:href="#mec97e1192b" y="208.843714"/>
     <use style="fill:#0000ff;stroke:#0000ff;" x="315.6442" xlink:href="#mec97e1192b" y="202.725999"/>
     <use style="fill:#0000ff;stroke:#0000ff;" x="551.75057" xlink:href="#mec97e1192b" y="198.874924"/>
     <use style="fill:#0000ff;stroke:#0000ff;" x="517.335217" xlink:href="#mec97e1192b" y="197.619899"/>
     <use style="fill:#0000ff;stroke:#0000ff;" x="363.697218" xlink:href="#mec97e1192b" y="193.755948"/>
     <use style="fill:#0000ff;stroke:#0000ff;" x="386.089639" xlink:href="#mec97e1192b" y="184.533849"/>
     <use style="fill:#0000ff;stroke:#0000ff;" x="414.181966" xlink:href="#mec97e1192b" y="179.36666"/>
     <use style="fill:#0000ff;stroke:#0000ff;" x="388.349652" xlink:href="#mec97e1192b" y="172.569244"/>
     <use style="fill:#0000ff;stroke:#0000ff;" x="342.528146" xlink:href="#mec97e1192b" y="167.423521"/>
     <use style="fill:#0000ff;stroke:#0000ff;" x="400.873473" xlink:href="#mec97e1192b" y="161.451284"/>
     <use style="fill:#0000ff;stroke:#0000ff;" x="283.82102" xlink:href="#mec97e1192b" y="161.259354"/>
     <use style="fill:#0000ff;stroke:#0000ff;" x="389.587819" xlink:href="#mec97e1192b" y="153.518464"/>
     <use style="fill:#0000ff;stroke:#0000ff;" x="551.713877" xlink:href="#mec97e1192b" y="144.820817"/>
     <use style="fill:#0000ff;stroke:#0000ff;" x="207.835738" xlink:href="#mec97e1192b" y="85.810811"/>
     <use style="fill:#0000ff;stroke:#0000ff;" x="437.698918" xlink:href="#mec97e1192b" y="67.770515"/>
     <use style="fill:#0000ff;stroke:#0000ff;" x="286.886717" xlink:href="#mec97e1192b" y="64.803679"/>
    </g>
   </g>
   <g id="matplotlib.axis_1">
    <g id="xtick_1">
     <g id="line2d_1">
      <defs>
       <path d="M 0 0 
L 0 3.5 
" id="m83219e195a" style="stroke:#000000;stroke-width:0.8;"/>
      </defs>
      <g>
       <use style="stroke:#000000;stroke-width:0.8;" x="90.356451" xlink:href="#m83219e195a" y="496.44"/>
      </g>
     </g>
     <g id="text_1">
      <!-- 0.21 -->
      <defs>
       <path d="M 31.78125 66.40625 
Q 24.171875 66.40625 20.328125 58.90625 
Q 16.5 51.421875 16.5 36.375 
Q 16.5 21.390625 20.328125 13.890625 
Q 24.171875 6.390625 31.78125 6.390625 
Q 39.453125 6.390625 43.28125 13.890625 
Q 47.125 21.390625 47.125 36.375 
Q 47.125 51.421875 43.28125 58.90625 
Q 39.453125 66.40625 31.78125 66.40625 
z
M 31.78125 74.21875 
Q 44.046875 74.21875 50.515625 64.515625 
Q 56.984375 54.828125 56.984375 36.375 
Q 56.984375 17.96875 50.515625 8.265625 
Q 44.046875 -1.421875 31.78125 -1.421875 
Q 19.53125 -1.421875 13.0625 8.265625 
Q 6.59375 17.96875 6.59375 36.375 
Q 6.59375 54.828125 13.0625 64.515625 
Q 19.53125 74.21875 31.78125 74.21875 
z
" id="DejaVuSans-48"/>
       <path d="M 10.6875 12.40625 
L 21 12.40625 
L 21 0 
L 10.6875 0 
z
" id="DejaVuSans-46"/>
       <path d="M 19.1875 8.296875 
L 53.609375 8.296875 
L 53.609375 0 
L 7.328125 0 
L 7.328125 8.296875 
Q 12.9375 14.109375 22.625 23.890625 
Q 32.328125 33.6875 34.8125 36.53125 
Q 39.546875 41.84375 41.421875 45.53125 
Q 43.3125 49.21875 43.3125 52.78125 
Q 43.3125 58.59375 39.234375 62.25 
Q 35.15625 65.921875 28.609375 65.921875 
Q 23.96875 65.921875 18.8125 64.3125 
Q 13.671875 62.703125 7.8125 59.421875 
L 7.8125 69.390625 
Q 13.765625 71.78125 18.9375 73 
Q 24.125 74.21875 28.421875 74.21875 
Q 39.75 74.21875 46.484375 68.546875 
Q 53.21875 62.890625 53.21875 53.421875 
Q 53.21875 48.921875 51.53125 44.890625 
Q 49.859375 40.875 45.40625 35.40625 
Q 44.1875 33.984375 37.640625 27.21875 
Q 31.109375 20.453125 19.1875 8.296875 
z
" id="DejaVuSans-50"/>
       <path d="M 12.40625 8.296875 
L 28.515625 8.296875 
L 28.515625 63.921875 
L 10.984375 60.40625 
L 10.984375 69.390625 
L 28.421875 72.90625 
L 38.28125 72.90625 
L 38.28125 8.296875 
L 54.390625 8.296875 
L 54.390625 0 
L 12.40625 0 
z
" id="DejaVuSans-49"/>
      </defs>
      <g transform="translate(79.223639 511.038437)scale(0.1 -0.1)">
       <use xlink:href="#DejaVuSans-48"/>
       <use x="63.623047" xlink:href="#DejaVuSans-46"/>
       <use x="95.410156" xlink:href="#DejaVuSans-50"/>
       <use x="159.033203" xlink:href="#DejaVuSans-49"/>
      </g>
     </g>
    </g>
    <g id="xtick_2">
     <g id="line2d_2">
      <g>
       <use style="stroke:#000000;stroke-width:0.8;" x="198.781612" xlink:href="#m83219e195a" y="496.44"/>
      </g>
     </g>
     <g id="text_2">
      <!-- 0.22 -->
      <g transform="translate(187.6488 511.038437)scale(0.1 -0.1)">
       <use xlink:href="#DejaVuSans-48"/>
       <use x="63.623047" xlink:href="#DejaVuSans-46"/>
       <use x="95.410156" xlink:href="#DejaVuSans-50"/>
       <use x="159.033203" xlink:href="#DejaVuSans-50"/>
      </g>
     </g>
    </g>
    <g id="xtick_3">
     <g id="line2d_3">
      <g>
       <use style="stroke:#000000;stroke-width:0.8;" x="307.206773" xlink:href="#m83219e195a" y="496.44"/>
      </g>
     </g>
     <g id="text_3">
      <!-- 0.23 -->
      <defs>
       <path d="M 40.578125 39.3125 
Q 47.65625 37.796875 51.625 33 
Q 55.609375 28.21875 55.609375 21.1875 
Q 55.609375 10.40625 48.1875 4.484375 
Q 40.765625 -1.421875 27.09375 -1.421875 
Q 22.515625 -1.421875 17.65625 -0.515625 
Q 12.796875 0.390625 7.625 2.203125 
L 7.625 11.71875 
Q 11.71875 9.328125 16.59375 8.109375 
Q 21.484375 6.890625 26.8125 6.890625 
Q 36.078125 6.890625 40.9375 10.546875 
Q 45.796875 14.203125 45.796875 21.1875 
Q 45.796875 27.640625 41.28125 31.265625 
Q 36.765625 34.90625 28.71875 34.90625 
L 20.21875 34.90625 
L 20.21875 43.015625 
L 29.109375 43.015625 
Q 36.375 43.015625 40.234375 45.921875 
Q 44.09375 48.828125 44.09375 54.296875 
Q 44.09375 59.90625 40.109375 62.90625 
Q 36.140625 65.921875 28.71875 65.921875 
Q 24.65625 65.921875 20.015625 65.03125 
Q 15.375 64.15625 9.8125 62.3125 
L 9.8125 71.09375 
Q 15.4375 72.65625 20.34375 73.4375 
Q 25.25 74.21875 29.59375 74.21875 
Q 40.828125 74.21875 47.359375 69.109375 
Q 53.90625 64.015625 53.90625 55.328125 
Q 53.90625 49.265625 50.4375 45.09375 
Q 46.96875 40.921875 40.578125 39.3125 
z
" id="DejaVuSans-51"/>
      </defs>
      <g transform="translate(296.073961 511.038437)scale(0.1 -0.1)">
       <use xlink:href="#DejaVuSans-48"/>
       <use x="63.623047" xlink:href="#DejaVuSans-46"/>
       <use x="95.410156" xlink:href="#DejaVuSans-50"/>
       <use x="159.033203" xlink:href="#DejaVuSans-51"/>
      </g>
     </g>
    </g>
    <g id="xtick_4">
     <g id="line2d_4">
      <g>
       <use style="stroke:#000000;stroke-width:0.8;" x="415.631934" xlink:href="#m83219e195a" y="496.44"/>
      </g>
     </g>
     <g id="text_4">
      <!-- 0.24 -->
      <defs>
       <path d="M 37.796875 64.3125 
L 12.890625 25.390625 
L 37.796875 25.390625 
z
M 35.203125 72.90625 
L 47.609375 72.90625 
L 47.609375 25.390625 
L 58.015625 25.390625 
L 58.015625 17.1875 
L 47.609375 17.1875 
L 47.609375 0 
L 37.796875 0 
L 37.796875 17.1875 
L 4.890625 17.1875 
L 4.890625 26.703125 
z
" id="DejaVuSans-52"/>
      </defs>
      <g transform="translate(404.499122 511.038437)scale(0.1 -0.1)">
       <use xlink:href="#DejaVuSans-48"/>
       <use x="63.623047" xlink:href="#DejaVuSans-46"/>
       <use x="95.410156" xlink:href="#DejaVuSans-50"/>
       <use x="159.033203" xlink:href="#DejaVuSans-52"/>
      </g>
     </g>
    </g>
    <g id="xtick_5">
     <g id="line2d_5">
      <g>
       <use style="stroke:#000000;stroke-width:0.8;" x="524.057095" xlink:href="#m83219e195a" y="496.44"/>
      </g>
     </g>
     <g id="text_5">
      <!-- 0.25 -->
      <defs>
       <path d="M 10.796875 72.90625 
L 49.515625 72.90625 
L 49.515625 64.59375 
L 19.828125 64.59375 
L 19.828125 46.734375 
Q 21.96875 47.46875 24.109375 47.828125 
Q 26.265625 48.1875 28.421875 48.1875 
Q 40.625 48.1875 47.75 41.5 
Q 54.890625 34.8125 54.890625 23.390625 
Q 54.890625 11.625 47.5625 5.09375 
Q 40.234375 -1.421875 26.90625 -1.421875 
Q 22.3125 -1.421875 17.546875 -0.640625 
Q 12.796875 0.140625 7.71875 1.703125 
L 7.71875 11.625 
Q 12.109375 9.234375 16.796875 8.0625 
Q 21.484375 6.890625 26.703125 6.890625 
Q 35.15625 6.890625 40.078125 11.328125 
Q 45.015625 15.765625 45.015625 23.390625 
Q 45.015625 31 40.078125 35.4375 
Q 35.15625 39.890625 26.703125 39.890625 
Q 22.75 39.890625 18.8125 39.015625 
Q 14.890625 38.140625 10.796875 36.28125 
z
" id="DejaVuSans-53"/>
      </defs>
      <g transform="translate(512.924283 511.038437)scale(0.1 -0.1)">
       <use xlink:href="#DejaVuSans-48"/>
       <use x="63.623047" xlink:href="#DejaVuSans-46"/>
       <use x="95.410156" xlink:href="#DejaVuSans-50"/>
       <use x="159.033203" xlink:href="#DejaVuSans-53"/>
      </g>
     </g>
    </g>
    <g id="xtick_6">
     <g id="line2d_6">
      <g>
       <use style="stroke:#000000;stroke-width:0.8;" x="632.482256" xlink:href="#m83219e195a" y="496.44"/>
      </g>
     </g>
     <g id="text_6">
      <!-- 0.26 -->
      <defs>
       <path d="M 33.015625 40.375 
Q 26.375 40.375 22.484375 35.828125 
Q 18.609375 31.296875 18.609375 23.390625 
Q 18.609375 15.53125 22.484375 10.953125 
Q 26.375 6.390625 33.015625 6.390625 
Q 39.65625 6.390625 43.53125 10.953125 
Q 47.40625 15.53125 47.40625 23.390625 
Q 47.40625 31.296875 43.53125 35.828125 
Q 39.65625 40.375 33.015625 40.375 
z
M 52.59375 71.296875 
L 52.59375 62.3125 
Q 48.875 64.0625 45.09375 64.984375 
Q 41.3125 65.921875 37.59375 65.921875 
Q 27.828125 65.921875 22.671875 59.328125 
Q 17.53125 52.734375 16.796875 39.40625 
Q 19.671875 43.65625 24.015625 45.921875 
Q 28.375 48.1875 33.59375 48.1875 
Q 44.578125 48.1875 50.953125 41.515625 
Q 57.328125 34.859375 57.328125 23.390625 
Q 57.328125 12.15625 50.6875 5.359375 
Q 44.046875 -1.421875 33.015625 -1.421875 
Q 20.359375 -1.421875 13.671875 8.265625 
Q 6.984375 17.96875 6.984375 36.375 
Q 6.984375 53.65625 15.1875 63.9375 
Q 23.390625 74.21875 37.203125 74.21875 
Q 40.921875 74.21875 44.703125 73.484375 
Q 48.484375 72.75 52.59375 71.296875 
z
" id="DejaVuSans-54"/>
      </defs>
      <g transform="translate(621.349444 511.038437)scale(0.1 -0.1)">
       <use xlink:href="#DejaVuSans-48"/>
       <use x="63.623047" xlink:href="#DejaVuSans-46"/>
       <use x="95.410156" xlink:href="#DejaVuSans-50"/>
       <use x="159.033203" xlink:href="#DejaVuSans-54"/>
      </g>
     </g>
    </g>
    <g id="xtick_7">
     <g id="line2d_7">
      <g>
       <use style="stroke:#000000;stroke-width:0.8;" x="740.907417" xlink:href="#m83219e195a" y="496.44"/>
      </g>
     </g>
     <g id="text_7">
      <!-- 0.27 -->
      <defs>
       <path d="M 8.203125 72.90625 
L 55.078125 72.90625 
L 55.078125 68.703125 
L 28.609375 0 
L 18.3125 0 
L 43.21875 64.59375 
L 8.203125 64.59375 
z
" id="DejaVuSans-55"/>
      </defs>
      <g transform="translate(729.774605 511.038437)scale(0.1 -0.1)">
       <use xlink:href="#DejaVuSans-48"/>
       <use x="63.623047" xlink:href="#DejaVuSans-46"/>
       <use x="95.410156" xlink:href="#DejaVuSans-50"/>
       <use x="159.033203" xlink:href="#DejaVuSans-55"/>
      </g>
     </g>
    </g>
    <g id="xtick_8">
     <g id="line2d_8">
      <g>
       <use style="stroke:#000000;stroke-width:0.8;" x="849.332578" xlink:href="#m83219e195a" y="496.44"/>
      </g>
     </g>
     <g id="text_8">
      <!-- 0.28 -->
      <defs>
       <path d="M 31.78125 34.625 
Q 24.75 34.625 20.71875 30.859375 
Q 16.703125 27.09375 16.703125 20.515625 
Q 16.703125 13.921875 20.71875 10.15625 
Q 24.75 6.390625 31.78125 6.390625 
Q 38.8125 6.390625 42.859375 10.171875 
Q 46.921875 13.96875 46.921875 20.515625 
Q 46.921875 27.09375 42.890625 30.859375 
Q 38.875 34.625 31.78125 34.625 
z
M 21.921875 38.8125 
Q 15.578125 40.375 12.03125 44.71875 
Q 8.5 49.078125 8.5 55.328125 
Q 8.5 64.0625 14.71875 69.140625 
Q 20.953125 74.21875 31.78125 74.21875 
Q 42.671875 74.21875 48.875 69.140625 
Q 55.078125 64.0625 55.078125 55.328125 
Q 55.078125 49.078125 51.53125 44.71875 
Q 48 40.375 41.703125 38.8125 
Q 48.828125 37.15625 52.796875 32.3125 
Q 56.78125 27.484375 56.78125 20.515625 
Q 56.78125 9.90625 50.3125 4.234375 
Q 43.84375 -1.421875 31.78125 -1.421875 
Q 19.734375 -1.421875 13.25 4.234375 
Q 6.78125 9.90625 6.78125 20.515625 
Q 6.78125 27.484375 10.78125 32.3125 
Q 14.796875 37.15625 21.921875 38.8125 
z
M 18.3125 54.390625 
Q 18.3125 48.734375 21.84375 45.5625 
Q 25.390625 42.390625 31.78125 42.390625 
Q 38.140625 42.390625 41.71875 45.5625 
Q 45.3125 48.734375 45.3125 54.390625 
Q 45.3125 60.0625 41.71875 63.234375 
Q 38.140625 66.40625 31.78125 66.40625 
Q 25.390625 66.40625 21.84375 63.234375 
Q 18.3125 60.0625 18.3125 54.390625 
z
" id="DejaVuSans-56"/>
      </defs>
      <g transform="translate(838.199766 511.038437)scale(0.1 -0.1)">
       <use xlink:href="#DejaVuSans-48"/>
       <use x="63.623047" xlink:href="#DejaVuSans-46"/>
       <use x="95.410156" xlink:href="#DejaVuSans-50"/>
       <use x="159.033203" xlink:href="#DejaVuSans-56"/>
      </g>
     </g>
    </g>
    <g id="text_9">
     <!-- Volatility -->
     <defs>
      <path d="M 28.609375 0 
L 0.78125 72.90625 
L 11.078125 72.90625 
L 34.1875 11.53125 
L 57.328125 72.90625 
L 67.578125 72.90625 
L 39.796875 0 
z
" id="DejaVuSans-86"/>
      <path d="M 30.609375 48.390625 
Q 23.390625 48.390625 19.1875 42.75 
Q 14.984375 37.109375 14.984375 27.296875 
Q 14.984375 17.484375 19.15625 11.84375 
Q 23.34375 6.203125 30.609375 6.203125 
Q 37.796875 6.203125 41.984375 11.859375 
Q 46.1875 17.53125 46.1875 27.296875 
Q 46.1875 37.015625 41.984375 42.703125 
Q 37.796875 48.390625 30.609375 48.390625 
z
M 30.609375 56 
Q 42.328125 56 49.015625 48.375 
Q 55.71875 40.765625 55.71875 27.296875 
Q 55.71875 13.875 49.015625 6.21875 
Q 42.328125 -1.421875 30.609375 -1.421875 
Q 18.84375 -1.421875 12.171875 6.21875 
Q 5.515625 13.875 5.515625 27.296875 
Q 5.515625 40.765625 12.171875 48.375 
Q 18.84375 56 30.609375 56 
z
" id="DejaVuSans-111"/>
      <path d="M 9.421875 75.984375 
L 18.40625 75.984375 
L 18.40625 0 
L 9.421875 0 
z
" id="DejaVuSans-108"/>
      <path d="M 34.28125 27.484375 
Q 23.390625 27.484375 19.1875 25 
Q 14.984375 22.515625 14.984375 16.5 
Q 14.984375 11.71875 18.140625 8.90625 
Q 21.296875 6.109375 26.703125 6.109375 
Q 34.1875 6.109375 38.703125 11.40625 
Q 43.21875 16.703125 43.21875 25.484375 
L 43.21875 27.484375 
z
M 52.203125 31.203125 
L 52.203125 0 
L 43.21875 0 
L 43.21875 8.296875 
Q 40.140625 3.328125 35.546875 0.953125 
Q 30.953125 -1.421875 24.3125 -1.421875 
Q 15.921875 -1.421875 10.953125 3.296875 
Q 6 8.015625 6 15.921875 
Q 6 25.140625 12.171875 29.828125 
Q 18.359375 34.515625 30.609375 34.515625 
L 43.21875 34.515625 
L 43.21875 35.40625 
Q 43.21875 41.609375 39.140625 45 
Q 35.0625 48.390625 27.6875 48.390625 
Q 23 48.390625 18.546875 47.265625 
Q 14.109375 46.140625 10.015625 43.890625 
L 10.015625 52.203125 
Q 14.9375 54.109375 19.578125 55.046875 
Q 24.21875 56 28.609375 56 
Q 40.484375 56 46.34375 49.84375 
Q 52.203125 43.703125 52.203125 31.203125 
z
" id="DejaVuSans-97"/>
      <path d="M 18.3125 70.21875 
L 18.3125 54.6875 
L 36.8125 54.6875 
L 36.8125 47.703125 
L 18.3125 47.703125 
L 18.3125 18.015625 
Q 18.3125 11.328125 20.140625 9.421875 
Q 21.96875 7.515625 27.59375 7.515625 
L 36.8125 7.515625 
L 36.8125 0 
L 27.59375 0 
Q 17.1875 0 13.234375 3.875 
Q 9.28125 7.765625 9.28125 18.015625 
L 9.28125 47.703125 
L 2.6875 47.703125 
L 2.6875 54.6875 
L 9.28125 54.6875 
L 9.28125 70.21875 
z
" id="DejaVuSans-116"/>
      <path d="M 9.421875 54.6875 
L 18.40625 54.6875 
L 18.40625 0 
L 9.421875 0 
z
M 9.421875 75.984375 
L 18.40625 75.984375 
L 18.40625 64.59375 
L 9.421875 64.59375 
z
" id="DejaVuSans-105"/>
      <path d="M 32.171875 -5.078125 
Q 28.375 -14.84375 24.75 -17.8125 
Q 21.140625 -20.796875 15.09375 -20.796875 
L 7.90625 -20.796875 
L 7.90625 -13.28125 
L 13.1875 -13.28125 
Q 16.890625 -13.28125 18.9375 -11.515625 
Q 21 -9.765625 23.484375 -3.21875 
L 25.09375 0.875 
L 2.984375 54.6875 
L 12.5 54.6875 
L 29.59375 11.921875 
L 46.6875 54.6875 
L 56.203125 54.6875 
z
" id="DejaVuSans-121"/>
     </defs>
     <g transform="translate(455.049219 524.716562)scale(0.1 -0.1)">
      <use xlink:href="#DejaVuSans-86"/>
      <use x="68.298828" xlink:href="#DejaVuSans-111"/>
      <use x="129.480469" xlink:href="#DejaVuSans-108"/>
      <use x="157.263672" xlink:href="#DejaVuSans-97"/>
      <use x="218.542969" xlink:href="#DejaVuSans-116"/>
      <use x="257.751953" xlink:href="#DejaVuSans-105"/>
      <use x="285.535156" xlink:href="#DejaVuSans-108"/>
      <use x="313.318359" xlink:href="#DejaVuSans-105"/>
      <use x="341.101562" xlink:href="#DejaVuSans-116"/>
      <use x="380.310547" xlink:href="#DejaVuSans-121"/>
     </g>
    </g>
   </g>
   <g id="matplotlib.axis_2">
    <g id="ytick_1">
     <g id="line2d_9">
      <defs>
       <path d="M 0 0 
L -3.5 0 
" id="m8b136592c2" style="stroke:#000000;stroke-width:0.8;"/>
      </defs>
      <g>
       <use style="stroke:#000000;stroke-width:0.8;" x="58.523438" xlink:href="#m8b136592c2" y="429.629999"/>
      </g>
     </g>
     <g id="text_10">
      <!-- −0.06 -->
      <defs>
       <path d="M 10.59375 35.5 
L 73.1875 35.5 
L 73.1875 27.203125 
L 10.59375 27.203125 
z
" id="DejaVuSans-8722"/>
      </defs>
      <g transform="translate(20.878125 433.429217)scale(0.1 -0.1)">
       <use xlink:href="#DejaVuSans-8722"/>
       <use x="83.789062" xlink:href="#DejaVuSans-48"/>
       <use x="147.412109" xlink:href="#DejaVuSans-46"/>
       <use x="179.199219" xlink:href="#DejaVuSans-48"/>
       <use x="242.822266" xlink:href="#DejaVuSans-54"/>
      </g>
     </g>
    </g>
    <g id="ytick_2">
     <g id="line2d_10">
      <g>
       <use style="stroke:#000000;stroke-width:0.8;" x="58.523438" xlink:href="#m8b136592c2" y="360.421135"/>
      </g>
     </g>
     <g id="text_11">
      <!-- −0.04 -->
      <g transform="translate(20.878125 364.220354)scale(0.1 -0.1)">
       <use xlink:href="#DejaVuSans-8722"/>
       <use x="83.789062" xlink:href="#DejaVuSans-48"/>
       <use x="147.412109" xlink:href="#DejaVuSans-46"/>
       <use x="179.199219" xlink:href="#DejaVuSans-48"/>
       <use x="242.822266" xlink:href="#DejaVuSans-52"/>
      </g>
     </g>
    </g>
    <g id="ytick_3">
     <g id="line2d_11">
      <g>
       <use style="stroke:#000000;stroke-width:0.8;" x="58.523438" xlink:href="#m8b136592c2" y="291.212272"/>
      </g>
     </g>
     <g id="text_12">
      <!-- −0.02 -->
      <g transform="translate(20.878125 295.01149)scale(0.1 -0.1)">
       <use xlink:href="#DejaVuSans-8722"/>
       <use x="83.789062" xlink:href="#DejaVuSans-48"/>
       <use x="147.412109" xlink:href="#DejaVuSans-46"/>
       <use x="179.199219" xlink:href="#DejaVuSans-48"/>
       <use x="242.822266" xlink:href="#DejaVuSans-50"/>
      </g>
     </g>
    </g>
    <g id="ytick_4">
     <g id="line2d_12">
      <g>
       <use style="stroke:#000000;stroke-width:0.8;" x="58.523438" xlink:href="#m8b136592c2" y="222.003408"/>
      </g>
     </g>
     <g id="text_13">
      <!-- 0.00 -->
      <g transform="translate(29.257813 225.802627)scale(0.1 -0.1)">
       <use xlink:href="#DejaVuSans-48"/>
       <use x="63.623047" xlink:href="#DejaVuSans-46"/>
       <use x="95.410156" xlink:href="#DejaVuSans-48"/>
       <use x="159.033203" xlink:href="#DejaVuSans-48"/>
      </g>
     </g>
    </g>
    <g id="ytick_5">
     <g id="line2d_13">
      <g>
       <use style="stroke:#000000;stroke-width:0.8;" x="58.523438" xlink:href="#m8b136592c2" y="152.794545"/>
      </g>
     </g>
     <g id="text_14">
      <!-- 0.02 -->
      <g transform="translate(29.257813 156.593764)scale(0.1 -0.1)">
       <use xlink:href="#DejaVuSans-48"/>
       <use x="63.623047" xlink:href="#DejaVuSans-46"/>
       <use x="95.410156" xlink:href="#DejaVuSans-48"/>
       <use x="159.033203" xlink:href="#DejaVuSans-50"/>
      </g>
     </g>
    </g>
    <g id="ytick_6">
     <g id="line2d_14">
      <g>
       <use style="stroke:#000000;stroke-width:0.8;" x="58.523438" xlink:href="#m8b136592c2" y="83.585682"/>
      </g>
     </g>
     <g id="text_15">
      <!-- 0.04 -->
      <g transform="translate(29.257813 87.3849)scale(0.1 -0.1)">
       <use xlink:href="#DejaVuSans-48"/>
       <use x="63.623047" xlink:href="#DejaVuSans-46"/>
       <use x="95.410156" xlink:href="#DejaVuSans-48"/>
       <use x="159.033203" xlink:href="#DejaVuSans-52"/>
      </g>
     </g>
    </g>
    <g id="ytick_7">
     <g id="line2d_15">
      <g>
       <use style="stroke:#000000;stroke-width:0.8;" x="58.523438" xlink:href="#m8b136592c2" y="14.376818"/>
      </g>
     </g>
     <g id="text_16">
      <!-- 0.06 -->
      <g transform="translate(29.257813 18.176037)scale(0.1 -0.1)">
       <use xlink:href="#DejaVuSans-48"/>
       <use x="63.623047" xlink:href="#DejaVuSans-46"/>
       <use x="95.410156" xlink:href="#DejaVuSans-48"/>
       <use x="159.033203" xlink:href="#DejaVuSans-54"/>
      </g>
     </g>
    </g>
    <g id="text_17">
     <!-- Return -->
     <defs>
      <path d="M 44.390625 34.1875 
Q 47.5625 33.109375 50.5625 29.59375 
Q 53.5625 26.078125 56.59375 19.921875 
L 66.609375 0 
L 56 0 
L 46.6875 18.703125 
Q 43.0625 26.03125 39.671875 28.421875 
Q 36.28125 30.8125 30.421875 30.8125 
L 19.671875 30.8125 
L 19.671875 0 
L 9.8125 0 
L 9.8125 72.90625 
L 32.078125 72.90625 
Q 44.578125 72.90625 50.734375 67.671875 
Q 56.890625 62.453125 56.890625 51.90625 
Q 56.890625 45.015625 53.6875 40.46875 
Q 50.484375 35.9375 44.390625 34.1875 
z
M 19.671875 64.796875 
L 19.671875 38.921875 
L 32.078125 38.921875 
Q 39.203125 38.921875 42.84375 42.21875 
Q 46.484375 45.515625 46.484375 51.90625 
Q 46.484375 58.296875 42.84375 61.546875 
Q 39.203125 64.796875 32.078125 64.796875 
z
" id="DejaVuSans-82"/>
      <path d="M 56.203125 29.59375 
L 56.203125 25.203125 
L 14.890625 25.203125 
Q 15.484375 15.921875 20.484375 11.0625 
Q 25.484375 6.203125 34.421875 6.203125 
Q 39.59375 6.203125 44.453125 7.46875 
Q 49.3125 8.734375 54.109375 11.28125 
L 54.109375 2.78125 
Q 49.265625 0.734375 44.1875 -0.34375 
Q 39.109375 -1.421875 33.890625 -1.421875 
Q 20.796875 -1.421875 13.15625 6.1875 
Q 5.515625 13.8125 5.515625 26.8125 
Q 5.515625 40.234375 12.765625 48.109375 
Q 20.015625 56 32.328125 56 
Q 43.359375 56 49.78125 48.890625 
Q 56.203125 41.796875 56.203125 29.59375 
z
M 47.21875 32.234375 
Q 47.125 39.59375 43.09375 43.984375 
Q 39.0625 48.390625 32.421875 48.390625 
Q 24.90625 48.390625 20.390625 44.140625 
Q 15.875 39.890625 15.1875 32.171875 
z
" id="DejaVuSans-101"/>
      <path d="M 8.5 21.578125 
L 8.5 54.6875 
L 17.484375 54.6875 
L 17.484375 21.921875 
Q 17.484375 14.15625 20.5 10.265625 
Q 23.53125 6.390625 29.59375 6.390625 
Q 36.859375 6.390625 41.078125 11.03125 
Q 45.3125 15.671875 45.3125 23.6875 
L 45.3125 54.6875 
L 54.296875 54.6875 
L 54.296875 0 
L 45.3125 0 
L 45.3125 8.40625 
Q 42.046875 3.421875 37.71875 1 
Q 33.40625 -1.421875 27.6875 -1.421875 
Q 18.265625 -1.421875 13.375 4.4375 
Q 8.5 10.296875 8.5 21.578125 
z
M 31.109375 56 
z
" id="DejaVuSans-117"/>
      <path d="M 41.109375 46.296875 
Q 39.59375 47.171875 37.8125 47.578125 
Q 36.03125 48 33.890625 48 
Q 26.265625 48 22.1875 43.046875 
Q 18.109375 38.09375 18.109375 28.8125 
L 18.109375 0 
L 9.078125 0 
L 9.078125 54.6875 
L 18.109375 54.6875 
L 18.109375 46.1875 
Q 20.953125 51.171875 25.484375 53.578125 
Q 30.03125 56 36.53125 56 
Q 37.453125 56 38.578125 55.875 
Q 39.703125 55.765625 41.0625 55.515625 
z
" id="DejaVuSans-114"/>
      <path d="M 54.890625 33.015625 
L 54.890625 0 
L 45.90625 0 
L 45.90625 32.71875 
Q 45.90625 40.484375 42.875 44.328125 
Q 39.84375 48.1875 33.796875 48.1875 
Q 26.515625 48.1875 22.3125 43.546875 
Q 18.109375 38.921875 18.109375 30.90625 
L 18.109375 0 
L 9.078125 0 
L 9.078125 54.6875 
L 18.109375 54.6875 
L 18.109375 46.1875 
Q 21.34375 51.125 25.703125 53.5625 
Q 30.078125 56 35.796875 56 
Q 45.21875 56 50.046875 50.171875 
Q 54.890625 44.34375 54.890625 33.015625 
z
" id="DejaVuSans-110"/>
     </defs>
     <g transform="translate(14.798438 268.72)rotate(-90)scale(0.1 -0.1)">
      <use xlink:href="#DejaVuSans-82"/>
      <use x="69.419922" xlink:href="#DejaVuSans-101"/>
      <use x="130.943359" xlink:href="#DejaVuSans-116"/>
      <use x="170.152344" xlink:href="#DejaVuSans-117"/>
      <use x="233.53125" xlink:href="#DejaVuSans-114"/>
      <use x="274.628906" xlink:href="#DejaVuSans-110"/>
     </g>
    </g>
   </g>
   <g id="patch_3">
    <path d="M 58.523438 496.44 
L 58.523438 7.2 
" style="fill:none;stroke:#000000;stroke-linecap:square;stroke-linejoin:miter;stroke-width:0.8;"/>
   </g>
   <g id="patch_4">
    <path d="M 895.523438 496.44 
L 895.523438 7.2 
" style="fill:none;stroke:#000000;stroke-linecap:square;stroke-linejoin:miter;stroke-width:0.8;"/>
   </g>
   <g id="patch_5">
    <path d="M 58.523438 496.44 
L 895.523438 496.44 
" style="fill:none;stroke:#000000;stroke-linecap:square;stroke-linejoin:miter;stroke-width:0.8;"/>
   </g>
   <g id="patch_6">
    <path d="M 58.523438 7.2 
L 895.523438 7.2 
" style="fill:none;stroke:#000000;stroke-linecap:square;stroke-linejoin:miter;stroke-width:0.8;"/>
   </g>
  </g>
 </g>
 <defs>
  <clipPath id="p7c116db281">
   <rect height="489.24" width="837" x="58.523438" y="7.2"/>
  </clipPath>
 </defs>
</svg>
