<?xml version="1.0" encoding="utf-8" standalone="no"?>
<!DOCTYPE svg PUBLIC "-//W3C//DTD SVG 1.1//EN"
  "http://www.w3.org/Graphics/SVG/1.1/DTD/svg11.dtd">
<!-- Created with matplotlib (https://matplotlib.org/) -->
<svg height="456.031033pt" version="1.1" viewBox="0 0 715.282812 456.031033" width="715.282812pt" xmlns="http://www.w3.org/2000/svg" xmlns:xlink="http://www.w3.org/1999/xlink">
 <defs>
  <style type="text/css">
*{stroke-linecap:butt;stroke-linejoin:round;}
  </style>
 </defs>
 <g id="figure_1">
  <g id="patch_1">
   <path d="M 0 456.031033 
L 715.282812 456.031033 
L 715.282812 0 
L 0 0 
z
" style="fill:none;"/>
  </g>
  <g id="axes_1">
   <g id="patch_2">
    <path d="M 38.482813 398.88 
L 708.082813 398.88 
L 708.082813 7.2 
L 38.482813 7.2 
z
" style="fill:#ffffff;"/>
   </g>
   <g id="matplotlib.axis_1">
    <g id="xtick_1">
     <g id="line2d_1">
      <defs>
       <path d="M 0 0 
L 0 3.5 
" id="m98feefe3df" style="stroke:#000000;stroke-width:0.8;"/>
      </defs>
      <g>
       <use style="stroke:#000000;stroke-width:0.8;" x="67.395453" xlink:href="#m98feefe3df" y="398.88"/>
      </g>
     </g>
     <g id="text_1">
      <!-- 2018-01 -->
      <defs>
       <path d="M 19.1875 8.296875 
L 53.609375 8.296875 
L 53.609375 0 
L 7.328125 0 
L 7.328125 8.296875 
Q 12.9375 14.109375 22.625 23.890625 
Q 32.328125 33.6875 34.8125 36.53125 
Q 39.546875 41.84375 41.421875 45.53125 
Q 43.3125 49.21875 43.3125 52.78125 
Q 43.3125 58.59375 39.234375 62.25 
Q 35.15625 65.921875 28.609375 65.921875 
Q 23.96875 65.921875 18.8125 64.3125 
Q 13.671875 62.703125 7.8125 59.421875 
L 7.8125 69.390625 
Q 13.765625 71.78125 18.9375 73 
Q 24.125 74.21875 28.421875 74.21875 
Q 39.75 74.21875 46.484375 68.546875 
Q 53.21875 62.890625 53.21875 53.421875 
Q 53.21875 48.921875 51.53125 44.890625 
Q 49.859375 40.875 45.40625 35.40625 
Q 44.1875 33.984375 37.640625 27.21875 
Q 31.109375 20.453125 19.1875 8.296875 
z
" id="DejaVuSans-50"/>
       <path d="M 31.78125 66.40625 
Q 24.171875 66.40625 20.328125 58.90625 
Q 16.5 51.421875 16.5 36.375 
Q 16.5 21.390625 20.328125 13.890625 
Q 24.171875 6.390625 31.78125 6.390625 
Q 39.453125 6.390625 43.28125 13.890625 
Q 47.125 21.390625 47.125 36.375 
Q 47.125 51.421875 43.28125 58.90625 
Q 39.453125 66.40625 31.78125 66.40625 
z
M 31.78125 74.21875 
Q 44.046875 74.21875 50.515625 64.515625 
Q 56.984375 54.828125 56.984375 36.375 
Q 56.984375 17.96875 50.515625 8.265625 
Q 44.046875 -1.421875 31.78125 -1.421875 
Q 19.53125 -1.421875 13.0625 8.265625 
Q 6.59375 17.96875 6.59375 36.375 
Q 6.59375 54.828125 13.0625 64.515625 
Q 19.53125 74.21875 31.78125 74.21875 
z
" id="DejaVuSans-48"/>
       <path d="M 12.40625 8.296875 
L 28.515625 8.296875 
L 28.515625 63.921875 
L 10.984375 60.40625 
L 10.984375 69.390625 
L 28.421875 72.90625 
L 38.28125 72.90625 
L 38.28125 8.296875 
L 54.390625 8.296875 
L 54.390625 0 
L 12.40625 0 
z
" id="DejaVuSans-49"/>
       <path d="M 31.78125 34.625 
Q 24.75 34.625 20.71875 30.859375 
Q 16.703125 27.09375 16.703125 20.515625 
Q 16.703125 13.921875 20.71875 10.15625 
Q 24.75 6.390625 31.78125 6.390625 
Q 38.8125 6.390625 42.859375 10.171875 
Q 46.921875 13.96875 46.921875 20.515625 
Q 46.921875 27.09375 42.890625 30.859375 
Q 38.875 34.625 31.78125 34.625 
z
M 21.921875 38.8125 
Q 15.578125 40.375 12.03125 44.71875 
Q 8.5 49.078125 8.5 55.328125 
Q 8.5 64.0625 14.71875 69.140625 
Q 20.953125 74.21875 31.78125 74.21875 
Q 42.671875 74.21875 48.875 69.140625 
Q 55.078125 64.0625 55.078125 55.328125 
Q 55.078125 49.078125 51.53125 44.71875 
Q 48 40.375 41.703125 38.8125 
Q 48.828125 37.15625 52.796875 32.3125 
Q 56.78125 27.484375 56.78125 20.515625 
Q 56.78125 9.90625 50.3125 4.234375 
Q 43.84375 -1.421875 31.78125 -1.421875 
Q 19.734375 -1.421875 13.25 4.234375 
Q 6.78125 9.90625 6.78125 20.515625 
Q 6.78125 27.484375 10.78125 32.3125 
Q 14.796875 37.15625 21.921875 38.8125 
z
M 18.3125 54.390625 
Q 18.3125 48.734375 21.84375 45.5625 
Q 25.390625 42.390625 31.78125 42.390625 
Q 38.140625 42.390625 41.71875 45.5625 
Q 45.3125 48.734375 45.3125 54.390625 
Q 45.3125 60.0625 41.71875 63.234375 
Q 38.140625 66.40625 31.78125 66.40625 
Q 25.390625 66.40625 21.84375 63.234375 
Q 18.3125 60.0625 18.3125 54.390625 
z
" id="DejaVuSans-56"/>
       <path d="M 4.890625 31.390625 
L 31.203125 31.390625 
L 31.203125 23.390625 
L 4.890625 23.390625 
z
" id="DejaVuSans-45"/>
      </defs>
      <g transform="translate(30.170632 433.351846)rotate(-30)scale(0.1 -0.1)">
       <use xlink:href="#DejaVuSans-50"/>
       <use x="63.623047" xlink:href="#DejaVuSans-48"/>
       <use x="127.246094" xlink:href="#DejaVuSans-49"/>
       <use x="190.869141" xlink:href="#DejaVuSans-56"/>
       <use x="254.492188" xlink:href="#DejaVuSans-45"/>
       <use x="290.576172" xlink:href="#DejaVuSans-48"/>
       <use x="354.199219" xlink:href="#DejaVuSans-49"/>
      </g>
     </g>
    </g>
    <g id="xtick_2">
     <g id="line2d_2">
      <g>
       <use style="stroke:#000000;stroke-width:0.8;" x="135.962981" xlink:href="#m98feefe3df" y="398.88"/>
      </g>
     </g>
     <g id="text_2">
      <!-- 2018-04 -->
      <defs>
       <path d="M 37.796875 64.3125 
L 12.890625 25.390625 
L 37.796875 25.390625 
z
M 35.203125 72.90625 
L 47.609375 72.90625 
L 47.609375 25.390625 
L 58.015625 25.390625 
L 58.015625 17.1875 
L 47.609375 17.1875 
L 47.609375 0 
L 37.796875 0 
L 37.796875 17.1875 
L 4.890625 17.1875 
L 4.890625 26.703125 
z
" id="DejaVuSans-52"/>
      </defs>
      <g transform="translate(98.73816 433.351846)rotate(-30)scale(0.1 -0.1)">
       <use xlink:href="#DejaVuSans-50"/>
       <use x="63.623047" xlink:href="#DejaVuSans-48"/>
       <use x="127.246094" xlink:href="#DejaVuSans-49"/>
       <use x="190.869141" xlink:href="#DejaVuSans-56"/>
       <use x="254.492188" xlink:href="#DejaVuSans-45"/>
       <use x="290.576172" xlink:href="#DejaVuSans-48"/>
       <use x="354.199219" xlink:href="#DejaVuSans-52"/>
      </g>
     </g>
    </g>
    <g id="xtick_3">
     <g id="line2d_3">
      <g>
       <use style="stroke:#000000;stroke-width:0.8;" x="205.29237" xlink:href="#m98feefe3df" y="398.88"/>
      </g>
     </g>
     <g id="text_3">
      <!-- 2018-07 -->
      <defs>
       <path d="M 8.203125 72.90625 
L 55.078125 72.90625 
L 55.078125 68.703125 
L 28.609375 0 
L 18.3125 0 
L 43.21875 64.59375 
L 8.203125 64.59375 
z
" id="DejaVuSans-55"/>
      </defs>
      <g transform="translate(168.067549 433.351846)rotate(-30)scale(0.1 -0.1)">
       <use xlink:href="#DejaVuSans-50"/>
       <use x="63.623047" xlink:href="#DejaVuSans-48"/>
       <use x="127.246094" xlink:href="#DejaVuSans-49"/>
       <use x="190.869141" xlink:href="#DejaVuSans-56"/>
       <use x="254.492188" xlink:href="#DejaVuSans-45"/>
       <use x="290.576172" xlink:href="#DejaVuSans-48"/>
       <use x="354.199219" xlink:href="#DejaVuSans-55"/>
      </g>
     </g>
    </g>
    <g id="xtick_4">
     <g id="line2d_4">
      <g>
       <use style="stroke:#000000;stroke-width:0.8;" x="275.38362" xlink:href="#m98feefe3df" y="398.88"/>
      </g>
     </g>
     <g id="text_4">
      <!-- 2018-10 -->
      <g transform="translate(238.1588 433.351846)rotate(-30)scale(0.1 -0.1)">
       <use xlink:href="#DejaVuSans-50"/>
       <use x="63.623047" xlink:href="#DejaVuSans-48"/>
       <use x="127.246094" xlink:href="#DejaVuSans-49"/>
       <use x="190.869141" xlink:href="#DejaVuSans-56"/>
       <use x="254.492188" xlink:href="#DejaVuSans-45"/>
       <use x="290.576172" xlink:href="#DejaVuSans-49"/>
       <use x="354.199219" xlink:href="#DejaVuSans-48"/>
      </g>
     </g>
    </g>
    <g id="xtick_5">
     <g id="line2d_5">
      <g>
       <use style="stroke:#000000;stroke-width:0.8;" x="345.474871" xlink:href="#m98feefe3df" y="398.88"/>
      </g>
     </g>
     <g id="text_5">
      <!-- 2019-01 -->
      <defs>
       <path d="M 10.984375 1.515625 
L 10.984375 10.5 
Q 14.703125 8.734375 18.5 7.8125 
Q 22.3125 6.890625 25.984375 6.890625 
Q 35.75 6.890625 40.890625 13.453125 
Q 46.046875 20.015625 46.78125 33.40625 
Q 43.953125 29.203125 39.59375 26.953125 
Q 35.25 24.703125 29.984375 24.703125 
Q 19.046875 24.703125 12.671875 31.3125 
Q 6.296875 37.9375 6.296875 49.421875 
Q 6.296875 60.640625 12.9375 67.421875 
Q 19.578125 74.21875 30.609375 74.21875 
Q 43.265625 74.21875 49.921875 64.515625 
Q 56.59375 54.828125 56.59375 36.375 
Q 56.59375 19.140625 48.40625 8.859375 
Q 40.234375 -1.421875 26.421875 -1.421875 
Q 22.703125 -1.421875 18.890625 -0.6875 
Q 15.09375 0.046875 10.984375 1.515625 
z
M 30.609375 32.421875 
Q 37.25 32.421875 41.125 36.953125 
Q 45.015625 41.5 45.015625 49.421875 
Q 45.015625 57.28125 41.125 61.84375 
Q 37.25 66.40625 30.609375 66.40625 
Q 23.96875 66.40625 20.09375 61.84375 
Q 16.21875 57.28125 16.21875 49.421875 
Q 16.21875 41.5 20.09375 36.953125 
Q 23.96875 32.421875 30.609375 32.421875 
z
" id="DejaVuSans-57"/>
      </defs>
      <g transform="translate(308.25005 433.351846)rotate(-30)scale(0.1 -0.1)">
       <use xlink:href="#DejaVuSans-50"/>
       <use x="63.623047" xlink:href="#DejaVuSans-48"/>
       <use x="127.246094" xlink:href="#DejaVuSans-49"/>
       <use x="190.869141" xlink:href="#DejaVuSans-57"/>
       <use x="254.492188" xlink:href="#DejaVuSans-45"/>
       <use x="290.576172" xlink:href="#DejaVuSans-48"/>
       <use x="354.199219" xlink:href="#DejaVuSans-49"/>
      </g>
     </g>
    </g>
    <g id="xtick_6">
     <g id="line2d_6">
      <g>
       <use style="stroke:#000000;stroke-width:0.8;" x="414.042398" xlink:href="#m98feefe3df" y="398.88"/>
      </g>
     </g>
     <g id="text_6">
      <!-- 2019-04 -->
      <g transform="translate(376.817578 433.351846)rotate(-30)scale(0.1 -0.1)">
       <use xlink:href="#DejaVuSans-50"/>
       <use x="63.623047" xlink:href="#DejaVuSans-48"/>
       <use x="127.246094" xlink:href="#DejaVuSans-49"/>
       <use x="190.869141" xlink:href="#DejaVuSans-57"/>
       <use x="254.492188" xlink:href="#DejaVuSans-45"/>
       <use x="290.576172" xlink:href="#DejaVuSans-48"/>
       <use x="354.199219" xlink:href="#DejaVuSans-52"/>
      </g>
     </g>
    </g>
    <g id="xtick_7">
     <g id="line2d_7">
      <g>
       <use style="stroke:#000000;stroke-width:0.8;" x="483.371787" xlink:href="#m98feefe3df" y="398.88"/>
      </g>
     </g>
     <g id="text_7">
      <!-- 2019-07 -->
      <g transform="translate(446.146967 433.351846)rotate(-30)scale(0.1 -0.1)">
       <use xlink:href="#DejaVuSans-50"/>
       <use x="63.623047" xlink:href="#DejaVuSans-48"/>
       <use x="127.246094" xlink:href="#DejaVuSans-49"/>
       <use x="190.869141" xlink:href="#DejaVuSans-57"/>
       <use x="254.492188" xlink:href="#DejaVuSans-45"/>
       <use x="290.576172" xlink:href="#DejaVuSans-48"/>
       <use x="354.199219" xlink:href="#DejaVuSans-55"/>
      </g>
     </g>
    </g>
    <g id="xtick_8">
     <g id="line2d_8">
      <g>
       <use style="stroke:#000000;stroke-width:0.8;" x="553.463038" xlink:href="#m98feefe3df" y="398.88"/>
      </g>
     </g>
     <g id="text_8">
      <!-- 2019-10 -->
      <g transform="translate(516.238217 433.351846)rotate(-30)scale(0.1 -0.1)">
       <use xlink:href="#DejaVuSans-50"/>
       <use x="63.623047" xlink:href="#DejaVuSans-48"/>
       <use x="127.246094" xlink:href="#DejaVuSans-49"/>
       <use x="190.869141" xlink:href="#DejaVuSans-57"/>
       <use x="254.492188" xlink:href="#DejaVuSans-45"/>
       <use x="290.576172" xlink:href="#DejaVuSans-49"/>
       <use x="354.199219" xlink:href="#DejaVuSans-48"/>
      </g>
     </g>
    </g>
    <g id="xtick_9">
     <g id="line2d_9">
      <g>
       <use style="stroke:#000000;stroke-width:0.8;" x="623.554288" xlink:href="#m98feefe3df" y="398.88"/>
      </g>
     </g>
     <g id="text_9">
      <!-- 2020-01 -->
      <g transform="translate(586.329467 433.351846)rotate(-30)scale(0.1 -0.1)">
       <use xlink:href="#DejaVuSans-50"/>
       <use x="63.623047" xlink:href="#DejaVuSans-48"/>
       <use x="127.246094" xlink:href="#DejaVuSans-50"/>
       <use x="190.869141" xlink:href="#DejaVuSans-48"/>
       <use x="254.492188" xlink:href="#DejaVuSans-45"/>
       <use x="290.576172" xlink:href="#DejaVuSans-48"/>
       <use x="354.199219" xlink:href="#DejaVuSans-49"/>
      </g>
     </g>
    </g>
    <g id="xtick_10">
     <g id="line2d_10">
      <g>
       <use style="stroke:#000000;stroke-width:0.8;" x="692.883677" xlink:href="#m98feefe3df" y="398.88"/>
      </g>
     </g>
     <g id="text_10">
      <!-- 2020-04 -->
      <g transform="translate(655.658856 433.351846)rotate(-30)scale(0.1 -0.1)">
       <use xlink:href="#DejaVuSans-50"/>
       <use x="63.623047" xlink:href="#DejaVuSans-48"/>
       <use x="127.246094" xlink:href="#DejaVuSans-50"/>
       <use x="190.869141" xlink:href="#DejaVuSans-48"/>
       <use x="254.492188" xlink:href="#DejaVuSans-45"/>
       <use x="290.576172" xlink:href="#DejaVuSans-48"/>
       <use x="354.199219" xlink:href="#DejaVuSans-52"/>
      </g>
     </g>
    </g>
    <g id="text_11">
     <!-- Date -->
     <defs>
      <path d="M 19.671875 64.796875 
L 19.671875 8.109375 
L 31.59375 8.109375 
Q 46.6875 8.109375 53.6875 14.9375 
Q 60.6875 21.78125 60.6875 36.53125 
Q 60.6875 51.171875 53.6875 57.984375 
Q 46.6875 64.796875 31.59375 64.796875 
z
M 9.8125 72.90625 
L 30.078125 72.90625 
Q 51.265625 72.90625 61.171875 64.09375 
Q 71.09375 55.28125 71.09375 36.53125 
Q 71.09375 17.671875 61.125 8.828125 
Q 51.171875 0 30.078125 0 
L 9.8125 0 
z
" id="DejaVuSans-68"/>
      <path d="M 34.28125 27.484375 
Q 23.390625 27.484375 19.1875 25 
Q 14.984375 22.515625 14.984375 16.5 
Q 14.984375 11.71875 18.140625 8.90625 
Q 21.296875 6.109375 26.703125 6.109375 
Q 34.1875 6.109375 38.703125 11.40625 
Q 43.21875 16.703125 43.21875 25.484375 
L 43.21875 27.484375 
z
M 52.203125 31.203125 
L 52.203125 0 
L 43.21875 0 
L 43.21875 8.296875 
Q 40.140625 3.328125 35.546875 0.953125 
Q 30.953125 -1.421875 24.3125 -1.421875 
Q 15.921875 -1.421875 10.953125 3.296875 
Q 6 8.015625 6 15.921875 
Q 6 25.140625 12.171875 29.828125 
Q 18.359375 34.515625 30.609375 34.515625 
L 43.21875 34.515625 
L 43.21875 35.40625 
Q 43.21875 41.609375 39.140625 45 
Q 35.0625 48.390625 27.6875 48.390625 
Q 23 48.390625 18.546875 47.265625 
Q 14.109375 46.140625 10.015625 43.890625 
L 10.015625 52.203125 
Q 14.9375 54.109375 19.578125 55.046875 
Q 24.21875 56 28.609375 56 
Q 40.484375 56 46.34375 49.84375 
Q 52.203125 43.703125 52.203125 31.203125 
z
" id="DejaVuSans-97"/>
      <path d="M 18.3125 70.21875 
L 18.3125 54.6875 
L 36.8125 54.6875 
L 36.8125 47.703125 
L 18.3125 47.703125 
L 18.3125 18.015625 
Q 18.3125 11.328125 20.140625 9.421875 
Q 21.96875 7.515625 27.59375 7.515625 
L 36.8125 7.515625 
L 36.8125 0 
L 27.59375 0 
Q 17.1875 0 13.234375 3.875 
Q 9.28125 7.765625 9.28125 18.015625 
L 9.28125 47.703125 
L 2.6875 47.703125 
L 2.6875 54.6875 
L 9.28125 54.6875 
L 9.28125 70.21875 
z
" id="DejaVuSans-116"/>
      <path d="M 56.203125 29.59375 
L 56.203125 25.203125 
L 14.890625 25.203125 
Q 15.484375 15.921875 20.484375 11.0625 
Q 25.484375 6.203125 34.421875 6.203125 
Q 39.59375 6.203125 44.453125 7.46875 
Q 49.3125 8.734375 54.109375 11.28125 
L 54.109375 2.78125 
Q 49.265625 0.734375 44.1875 -0.34375 
Q 39.109375 -1.421875 33.890625 -1.421875 
Q 20.796875 -1.421875 13.15625 6.1875 
Q 5.515625 13.8125 5.515625 26.8125 
Q 5.515625 40.234375 12.765625 48.109375 
Q 20.015625 56 32.328125 56 
Q 43.359375 56 49.78125 48.890625 
Q 56.203125 41.796875 56.203125 29.59375 
z
M 47.21875 32.234375 
Q 47.125 39.59375 43.09375 43.984375 
Q 39.0625 48.390625 32.421875 48.390625 
Q 24.90625 48.390625 20.390625 44.140625 
Q 15.875 39.890625 15.1875 32.171875 
z
" id="DejaVuSans-101"/>
     </defs>
     <g transform="translate(361.332031 446.751346)scale(0.1 -0.1)">
      <use xlink:href="#DejaVuSans-68"/>
      <use x="77.001953" xlink:href="#DejaVuSans-97"/>
      <use x="138.28125" xlink:href="#DejaVuSans-116"/>
      <use x="177.490234" xlink:href="#DejaVuSans-101"/>
     </g>
    </g>
   </g>
   <g id="matplotlib.axis_2">
    <g id="ytick_1">
     <g id="line2d_11">
      <defs>
       <path d="M 0 0 
L -3.5 0 
" id="mf2e4a316fe" style="stroke:#000000;stroke-width:0.8;"/>
      </defs>
      <g>
       <use style="stroke:#000000;stroke-width:0.8;" x="38.482813" xlink:href="#mf2e4a316fe" y="340.331846"/>
      </g>
     </g>
     <g id="text_12">
      <!-- −0.3 -->
      <defs>
       <path d="M 10.59375 35.5 
L 73.1875 35.5 
L 73.1875 27.203125 
L 10.59375 27.203125 
z
" id="DejaVuSans-8722"/>
       <path d="M 10.6875 12.40625 
L 21 12.40625 
L 21 0 
L 10.6875 0 
z
" id="DejaVuSans-46"/>
       <path d="M 40.578125 39.3125 
Q 47.65625 37.796875 51.625 33 
Q 55.609375 28.21875 55.609375 21.1875 
Q 55.609375 10.40625 48.1875 4.484375 
Q 40.765625 -1.421875 27.09375 -1.421875 
Q 22.515625 -1.421875 17.65625 -0.515625 
Q 12.796875 0.390625 7.625 2.203125 
L 7.625 11.71875 
Q 11.71875 9.328125 16.59375 8.109375 
Q 21.484375 6.890625 26.8125 6.890625 
Q 36.078125 6.890625 40.9375 10.546875 
Q 45.796875 14.203125 45.796875 21.1875 
Q 45.796875 27.640625 41.28125 31.265625 
Q 36.765625 34.90625 28.71875 34.90625 
L 20.21875 34.90625 
L 20.21875 43.015625 
L 29.109375 43.015625 
Q 36.375 43.015625 40.234375 45.921875 
Q 44.09375 48.828125 44.09375 54.296875 
Q 44.09375 59.90625 40.109375 62.90625 
Q 36.140625 65.921875 28.71875 65.921875 
Q 24.65625 65.921875 20.015625 65.03125 
Q 15.375 64.15625 9.8125 62.3125 
L 9.8125 71.09375 
Q 15.4375 72.65625 20.34375 73.4375 
Q 25.25 74.21875 29.59375 74.21875 
Q 40.828125 74.21875 47.359375 69.109375 
Q 53.90625 64.015625 53.90625 55.328125 
Q 53.90625 49.265625 50.4375 45.09375 
Q 46.96875 40.921875 40.578125 39.3125 
z
" id="DejaVuSans-51"/>
      </defs>
      <g transform="translate(7.2 344.131065)scale(0.1 -0.1)">
       <use xlink:href="#DejaVuSans-8722"/>
       <use x="83.789062" xlink:href="#DejaVuSans-48"/>
       <use x="147.412109" xlink:href="#DejaVuSans-46"/>
       <use x="179.199219" xlink:href="#DejaVuSans-51"/>
      </g>
     </g>
    </g>
    <g id="ytick_2">
     <g id="line2d_12">
      <g>
       <use style="stroke:#000000;stroke-width:0.8;" x="38.482813" xlink:href="#mf2e4a316fe" y="275.595599"/>
      </g>
     </g>
     <g id="text_13">
      <!-- −0.2 -->
      <g transform="translate(7.2 279.394817)scale(0.1 -0.1)">
       <use xlink:href="#DejaVuSans-8722"/>
       <use x="83.789062" xlink:href="#DejaVuSans-48"/>
       <use x="147.412109" xlink:href="#DejaVuSans-46"/>
       <use x="179.199219" xlink:href="#DejaVuSans-50"/>
      </g>
     </g>
    </g>
    <g id="ytick_3">
     <g id="line2d_13">
      <g>
       <use style="stroke:#000000;stroke-width:0.8;" x="38.482813" xlink:href="#mf2e4a316fe" y="210.859351"/>
      </g>
     </g>
     <g id="text_14">
      <!-- −0.1 -->
      <g transform="translate(7.2 214.65857)scale(0.1 -0.1)">
       <use xlink:href="#DejaVuSans-8722"/>
       <use x="83.789062" xlink:href="#DejaVuSans-48"/>
       <use x="147.412109" xlink:href="#DejaVuSans-46"/>
       <use x="179.199219" xlink:href="#DejaVuSans-49"/>
      </g>
     </g>
    </g>
    <g id="ytick_4">
     <g id="line2d_14">
      <g>
       <use style="stroke:#000000;stroke-width:0.8;" x="38.482813" xlink:href="#mf2e4a316fe" y="146.123104"/>
      </g>
     </g>
     <g id="text_15">
      <!-- 0.0 -->
      <g transform="translate(15.579688 149.922323)scale(0.1 -0.1)">
       <use xlink:href="#DejaVuSans-48"/>
       <use x="63.623047" xlink:href="#DejaVuSans-46"/>
       <use x="95.410156" xlink:href="#DejaVuSans-48"/>
      </g>
     </g>
    </g>
    <g id="ytick_5">
     <g id="line2d_15">
      <g>
       <use style="stroke:#000000;stroke-width:0.8;" x="38.482813" xlink:href="#mf2e4a316fe" y="81.386857"/>
      </g>
     </g>
     <g id="text_16">
      <!-- 0.1 -->
      <g transform="translate(15.579688 85.186076)scale(0.1 -0.1)">
       <use xlink:href="#DejaVuSans-48"/>
       <use x="63.623047" xlink:href="#DejaVuSans-46"/>
       <use x="95.410156" xlink:href="#DejaVuSans-49"/>
      </g>
     </g>
    </g>
    <g id="ytick_6">
     <g id="line2d_16">
      <g>
       <use style="stroke:#000000;stroke-width:0.8;" x="38.482813" xlink:href="#mf2e4a316fe" y="16.65061"/>
      </g>
     </g>
     <g id="text_17">
      <!-- 0.2 -->
      <g transform="translate(15.579688 20.449829)scale(0.1 -0.1)">
       <use xlink:href="#DejaVuSans-48"/>
       <use x="63.623047" xlink:href="#DejaVuSans-46"/>
       <use x="95.410156" xlink:href="#DejaVuSans-50"/>
      </g>
     </g>
    </g>
   </g>
   <g id="line2d_17">
    <path clip-path="url(#pc9c05a5443)" d="M 68.919176 153.794258 
L 69.681038 121.539733 
L 70.442899 142.799038 
L 72.728483 144.469562 
L 73.490345 161.791755 
L 74.252206 159.645023 
L 75.014067 163.386087 
L 75.775929 145.679737 
L 78.061513 137.704267 
L 78.823375 133.875718 
L 79.585236 122.512396 
L 80.347097 127.485037 
L 81.108959 153.369711 
L 83.394543 136.75876 
L 84.156404 148.932477 
L 84.918266 108.232625 
L 85.680127 146.123104 
L 86.441989 117.562995 
L 88.727573 130.805229 
L 89.489434 151.111016 
L 90.251296 143.250728 
L 91.013157 141.476137 
L 91.775019 162.094177 
L 94.060603 165.773262 
L 94.822464 127.358975 
L 95.584326 146.123104 
L 96.346187 168.005793 
L 97.108049 168.771369 
L 101.679217 130.476821 
L 102.441079 143.449643 
L 104.726663 142.31955 
L 105.488524 147.635668 
L 106.250386 131.720458 
L 107.012247 123.876956 
L 107.774108 109.919546 
L 110.059693 128.13136 
L 110.821554 145.79281 
L 111.583416 159.657959 
L 112.345277 149.494796 
L 113.107138 148.834567 
L 115.392723 150.207438 
L 116.154584 141.327782 
L 116.916445 161.083179 
L 117.678307 120.019779 
L 118.440168 100.289209 
L 120.725753 118.628911 
L 121.487614 145.523681 
L 122.249475 167.382493 
L 123.011337 140.240789 
L 123.773198 131.703203 
L 126.058782 165.631002 
L 126.820644 148.908129 
L 127.582505 143.947628 
L 128.344367 158.512805 
L 129.106228 122.439111 
L 131.391812 133.023525 
L 132.153674 154.483894 
L 132.915535 162.155876 
L 133.677397 121.928475 
L 136.724842 155.093462 
L 137.486704 146.426325 
L 138.248565 169.784921 
L 139.010427 132.583899 
L 139.772288 56.68285 
L 142.057872 172.678774 
L 142.819734 159.12119 
L 143.581595 164.578018 
L 144.343456 140.483525 
L 145.105318 169.663535 
L 147.390902 166.887569 
L 148.152764 98.485801 
L 148.914625 125.25943 
L 149.676486 189.679174 
L 150.438348 166.267336 
L 152.723932 130.687157 
L 153.485793 162.737948 
L 154.247655 188.754303 
L 155.009516 141.72844 
L 155.771378 138.736211 
L 158.056962 148.778948 
L 159.580685 183.458146 
L 160.342546 176.545558 
L 161.104408 116.056405 
L 163.389992 181.949748 
L 164.151853 160.392083 
L 164.913715 209.861075 
L 165.675576 99.700353 
L 166.437438 166.390483 
L 168.723022 176.070779 
L 169.484883 152.575246 
L 170.246745 147.426507 
L 171.008606 177.468172 
L 171.770468 143.378085 
L 174.056052 121.978 
L 174.817913 134.704217 
L 175.579775 180.649111 
L 176.341636 148.402558 
L 177.103497 135.143071 
L 179.389082 197.408262 
L 180.150943 113.877132 
L 180.912805 165.669638 
L 182.436527 155.72076 
L 184.722112 96.925493 
L 185.483973 180.981104 
L 186.245834 181.050992 
L 187.007696 188.10051 
L 187.769557 130.980137 
L 190.055142 146.651575 
L 190.817003 140.305272 
L 191.578864 138.260422 
L 192.340726 166.838684 
L 193.102587 180.898804 
L 195.388171 165.911445 
L 196.150033 108.797737 
L 196.911894 142.814585 
L 197.673756 159.838411 
L 198.435617 171.905507 
L 200.721201 174.142428 
L 201.483063 154.665079 
L 202.244924 164.053867 
L 203.006786 116.235097 
L 203.768647 160.103675 
L 206.054231 164.761191 
L 206.816093 141.005619 
L 207.577954 127.083019 
L 208.339816 139.341233 
L 209.101677 115.00576 
L 212.149123 151.362558 
L 212.910984 167.251869 
L 213.672845 120.641166 
L 214.434707 139.118287 
L 216.720291 71.049836 
L 217.482153 126.459011 
L 218.244014 129.549826 
L 219.005875 161.793029 
L 219.767737 113.002192 
L 222.053321 144.213482 
L 222.815183 131.843086 
L 223.577044 102.810348 
L 224.338905 154.853541 
L 225.100767 138.600775 
L 227.386351 161.432368 
L 228.148212 174.795187 
L 228.910074 151.279532 
L 229.671935 150.848351 
L 230.433797 106.138991 
L 233.481242 162.803052 
L 234.243104 173.887015 
L 235.004965 162.560993 
L 235.766827 182.831769 
L 238.052411 140.8643 
L 238.814272 142.471599 
L 239.576134 138.861007 
L 240.337995 149.713847 
L 241.099857 166.240362 
L 243.385441 135.475705 
L 244.147302 210.021308 
L 244.909164 139.730856 
L 245.671025 181.799963 
L 246.432886 160.738988 
L 248.718471 122.446703 
L 249.480332 158.745773 
L 250.242194 105.662961 
L 251.004055 165.740157 
L 251.765916 126.488034 
L 254.051501 166.335157 
L 254.813362 190.234347 
L 255.575223 152.51993 
L 256.337085 144.830996 
L 259.384531 140.964842 
L 260.146392 178.747117 
L 260.908253 145.449455 
L 261.670115 166.984021 
L 262.431976 144.732457 
L 264.71756 98.941252 
L 265.479422 126.72162 
L 266.241283 134.193076 
L 267.003145 109.747489 
L 267.765006 127.443592 
L 270.05059 187.54066 
L 270.812452 141.88011 
L 271.574313 137.090162 
L 272.336175 104.549321 
L 273.098036 176.817024 
L 275.38362 171.900464 
L 276.145482 92.430449 
L 276.907343 103.303641 
L 277.669205 151.407716 
L 278.431066 132.802888 
L 280.71665 25.003636 
L 281.478512 141.285492 
L 282.240373 212.910995 
L 283.002235 134.441387 
L 286.04968 119.826983 
L 286.811542 62.963011 
L 287.573403 131.872971 
L 288.335264 148.91173 
L 289.097126 144.922852 
L 291.38271 130.548014 
L 292.144572 147.683049 
L 292.906433 170.360101 
L 294.430156 76.861292 
L 296.71574 188.071853 
L 297.477601 93.665111 
L 298.239463 146.474749 
L 299.001324 116.217759 
L 302.04877 107.449515 
L 302.810631 142.632405 
L 303.572493 155.907698 
L 304.334354 159.903602 
L 305.096216 140.556505 
L 307.3818 157.161386 
L 308.143661 147.774577 
L 308.905523 126.255189 
L 310.429246 144.195491 
L 312.71483 148.36532 
L 314.238553 117.837122 
L 315.000414 113.477821 
L 315.762275 151.400525 
L 318.04786 194.896979 
L 318.809721 134.934111 
L 319.571583 136.69552 
L 320.333444 132.184654 
L 321.095305 138.542748 
L 323.38089 153.615725 
L 324.142751 173.109213 
L 324.904612 133.783309 
L 325.666474 159.784487 
L 326.428335 165.15386 
L 328.71392 192.199884 
L 329.475781 61.684533 
L 330.237642 143.010773 
L 330.999504 112.051383 
L 331.761365 97.57093 
L 334.046949 145.028174 
L 334.808811 107.046341 
L 335.570672 159.781645 
L 336.332534 125.325393 
L 337.094395 162.447438 
L 340.903702 152.40309 
L 341.665564 148.236939 
L 342.427425 128.096623 
L 346.236732 137.096128 
L 346.998594 141.54455 
L 347.760455 162.035622 
L 350.046039 174.607063 
L 350.807901 154.519842 
L 351.569762 149.141767 
L 352.331624 152.464377 
L 353.093485 98.510664 
L 355.379069 140.935885 
L 356.140931 166.449643 
L 356.902792 158.873819 
L 357.664653 142.600383 
L 358.426515 141.002456 
L 361.473961 168.323124 
L 362.235822 134.770857 
L 362.997683 139.986933 
L 366.045129 153.306817 
L 366.80699 149.47589 
L 367.568852 117.757106 
L 368.330713 128.365035 
L 369.092575 140.885524 
L 371.378159 92.609206 
L 372.901882 164.894017 
L 373.663743 156.513774 
L 374.425605 129.668897 
L 376.711189 127.202805 
L 377.47305 129.368907 
L 378.234912 143.628044 
L 378.996773 149.512428 
L 379.758635 136.810174 
L 382.044219 160.678115 
L 382.80608 151.620869 
L 383.567942 140.80929 
L 384.329803 167.892833 
L 385.091664 139.009204 
L 387.377249 160.19621 
L 388.13911 134.13491 
L 388.900972 150.831213 
L 389.662833 161.299353 
L 390.424694 151.950818 
L 394.995863 140.977551 
L 395.757724 135.913104 
L 398.043309 162.875526 
L 398.80517 141.209565 
L 399.567031 124.666242 
L 400.328893 160.991462 
L 401.090754 126.798823 
L 403.376338 116.569595 
L 404.1382 111.130551 
L 404.900061 140.377274 
L 405.661923 178.607261 
L 406.423784 188.096164 
L 408.709368 137.098996 
L 409.47123 148.231017 
L 410.233091 202.51765 
L 410.994953 134.282652 
L 414.042398 152.371777 
L 414.80426 154.451742 
L 415.566121 144.077727 
L 416.327983 138.477061 
L 417.089844 154.183689 
L 419.375428 176.221083 
L 420.13729 159.498361 
L 420.899151 131.373101 
L 421.661013 168.556461 
L 422.422874 150.272853 
L 424.708458 161.437034 
L 425.47032 145.267594 
L 426.232181 169.19232 
L 426.994042 90.601165 
L 430.041488 164.891139 
L 430.80335 124.273605 
L 431.565211 166.717313 
L 432.327072 145.003558 
L 433.088934 150.872853 
L 435.374518 146.123104 
L 436.136379 152.315248 
L 437.660102 152.375103 
L 438.421964 113.697559 
L 440.707548 156.780436 
L 441.469409 140.566323 
L 442.231271 118.024806 
L 442.993132 137.674663 
L 443.754994 128.922656 
L 446.040578 191.565434 
L 446.802439 164.143313 
L 447.564301 157.076292 
L 448.326162 194.118213 
L 449.088024 160.934053 
L 451.373608 135.070562 
L 452.135469 101.102729 
L 452.897331 109.835969 
L 453.659192 143.649103 
L 454.421053 112.714347 
L 456.706638 129.457313 
L 457.468499 120.990214 
L 458.230361 146.123104 
L 458.992222 131.460298 
L 459.754083 148.751759 
L 462.039668 138.205033 
L 462.801529 127.159694 
L 463.56339 142.438369 
L 464.325252 123.681827 
L 465.087113 129.966718 
L 467.372698 126.905177 
L 468.134559 144.445458 
L 468.89642 151.979709 
L 469.658282 143.168088 
L 470.420143 156.418705 
L 472.705728 131.604414 
L 473.467589 126.284561 
L 474.22945 128.495416 
L 475.753173 158.352356 
L 478.038757 151.551308 
L 478.800619 156.868565 
L 479.56248 145.092249 
L 480.324342 142.829689 
L 481.086203 125.848272 
L 483.371787 159.824921 
L 484.133649 137.39963 
L 484.89551 84.069218 
L 485.657372 98.813032 
L 486.419233 105.779931 
L 488.704817 137.950981 
L 490.22854 148.971441 
L 490.990402 151.844953 
L 491.752263 166.328099 
L 494.037847 161.847851 
L 494.799709 115.926448 
L 495.56157 172.704829 
L 496.323431 132.601185 
L 497.085293 156.05703 
L 499.370877 139.397235 
L 500.132739 150.782826 
L 500.8946 140.591493 
L 501.656461 157.757359 
L 502.418323 104.996542 
L 504.703907 141.030779 
L 505.465768 145.80731 
L 506.22763 146.912174 
L 506.989491 101.5646 
L 507.751353 165.932782 
L 510.036937 172.048114 
L 510.798798 143.104749 
L 511.56066 168.893038 
L 512.322521 138.092504 
L 513.084383 136.895887 
L 515.369967 192.728125 
L 516.131828 138.211676 
L 516.89369 175.007993 
L 517.655551 158.394579 
L 518.417413 159.356773 
L 520.702997 147.603599 
L 521.464858 136.848571 
L 522.22672 147.951854 
L 522.988581 180.966935 
L 523.750442 146.123104 
L 526.036027 165.699076 
L 526.797888 137.528906 
L 527.55975 155.985421 
L 528.321611 117.280249 
L 529.083472 156.861298 
L 531.369057 157.042498 
L 532.130918 167.543185 
L 533.654641 105.460683 
L 534.416502 145.171322 
L 536.702087 171.971998 
L 537.463948 146.123104 
L 538.225809 113.853945 
L 538.987671 119.346131 
L 539.749532 164.231145 
L 542.035117 196.421785 
L 542.796978 110.169691 
L 543.558839 149.758943 
L 544.320701 137.07848 
L 545.082562 163.203937 
L 547.368146 158.40364 
L 548.130008 149.699698 
L 548.891869 124.14478 
L 549.653731 132.016408 
L 550.415592 188.297163 
L 552.701176 140.054096 
L 553.463038 156.144195 
L 554.224899 162.408937 
L 554.986761 110.622566 
L 555.748622 138.996166 
L 558.034206 159.242709 
L 558.796068 151.919205 
L 559.557929 125.956048 
L 560.319791 146.123104 
L 561.081652 115.808486 
L 563.367236 128.374407 
L 564.129098 143.395425 
L 564.890959 144.312328 
L 565.65282 143.414447 
L 566.414682 156.193212 
L 568.700266 150.872347 
L 569.462128 107.296066 
L 570.223989 151.678368 
L 570.98585 145.597811 
L 571.747712 155.221179 
L 574.033296 128.0225 
L 574.795157 133.003254 
L 575.557019 136.140251 
L 576.31888 183.615141 
L 577.080742 149.66055 
L 579.366326 160.17302 
L 580.128187 162.120848 
L 580.890049 141.090332 
L 581.65191 135.58035 
L 582.413772 175.242558 
L 584.699356 141.930638 
L 585.461217 171.305638 
L 586.223079 142.971008 
L 586.98494 123.1851 
L 590.032386 142.146854 
L 590.794247 149.886854 
L 592.31797 151.423197 
L 593.079832 130.282536 
L 595.365416 147.985989 
L 596.127277 170.971394 
L 596.889139 149.620266 
L 597.651 120.728695 
L 598.412861 153.265844 
L 600.698446 154.295918 
L 601.460307 120.136238 
L 602.222169 155.931604 
L 602.98403 148.002283 
L 603.745891 113.89627 
L 606.031476 134.813161 
L 606.793337 175.94163 
L 607.555198 140.574297 
L 608.31706 138.787524 
L 609.078921 137.419079 
L 611.364506 143.439153 
L 612.126367 163.942054 
L 612.888228 149.421305 
L 613.65009 122.365048 
L 614.411951 155.89393 
L 616.697535 135.841789 
L 618.98312 142.749532 
L 619.744981 141.354054 
L 622.030565 148.227189 
L 624.31615 139.614315 
L 625.078011 168.2417 
L 627.363595 175.876559 
L 628.125457 142.342871 
L 628.887318 120.566839 
L 629.64918 130.937833 
L 630.411041 135.701714 
L 632.696625 132.911655 
L 633.458487 146.293434 
L 634.220348 163.504257 
L 634.982209 151.901595 
L 635.744071 123.331123 
L 638.029655 148.341871 
L 638.791517 165.304197 
L 639.553378 137.298643 
L 640.315239 113.563472 
L 641.077101 166.513772 
L 643.362685 189.257788 
L 644.124546 129.801512 
L 644.886408 168.482958 
L 645.648269 144.270278 
L 646.410131 160.718336 
L 648.695715 144.233024 
L 649.457576 130.857762 
L 650.219438 127.158868 
L 650.981299 153.993748 
L 651.743161 169.482494 
L 654.028745 151.758863 
L 654.790606 107.463267 
L 655.552468 144.334837 
L 656.314329 162.173373 
L 657.076191 135.150887 
L 659.361775 139.110022 
L 660.123636 155.373689 
L 660.885498 137.46033 
L 661.647359 173.727269 
L 662.409221 164.353419 
L 666.980389 288.152366 
L 667.74225 165.74013 
L 670.027835 133.226424 
L 670.789696 170.668822 
L 671.551558 154.112087 
L 672.313419 254.669168 
L 673.07528 133.583407 
L 675.360865 258.988682 
L 676.122726 111.110383 
L 677.646449 381.076364 
L 677.646449 381.076364 
" style="fill:none;stroke:#1f77b4;stroke-linecap:square;stroke-width:1.5;"/>
   </g>
   <g id="line2d_18">
    <path clip-path="url(#pc9c05a5443)" d="M 68.919176 140.255722 
L 69.681038 144.960304 
L 70.442899 142.253667 
L 72.728483 138.430015 
L 74.252206 154.866191 
L 75.014067 128.783013 
L 75.775929 144.246766 
L 78.061513 144.252035 
L 78.823375 134.929501 
L 79.585236 120.081798 
L 80.347097 151.059585 
L 81.108959 144.701728 
L 83.394543 138.678086 
L 84.156404 154.184506 
L 84.918266 107.082625 
L 85.680127 146.123104 
L 86.441989 126.374088 
L 88.727573 148.721746 
L 89.489434 157.863685 
L 91.013157 119.176905 
L 91.775019 163.474589 
L 94.060603 176.270619 
L 94.822464 113.822936 
L 95.584326 163.934568 
L 96.346187 159.110278 
L 97.108049 155.637975 
L 101.679217 124.395061 
L 102.441079 145.455747 
L 104.726663 125.122239 
L 105.488524 133.530917 
L 106.250386 152.140618 
L 107.012247 130.458563 
L 107.774108 134.262033 
L 110.059693 133.862498 
L 110.821554 146.724718 
L 111.583416 147.327699 
L 112.345277 159.094347 
L 113.107138 131.347373 
L 115.392723 127.764539 
L 116.154584 152.561654 
L 116.916445 152.921861 
L 117.678307 145.226868 
L 118.440168 125.538851 
L 120.725753 147.857757 
L 121.487614 152.501044 
L 122.249475 138.217803 
L 123.011337 177.073875 
L 123.773198 142.477723 
L 126.058782 161.227243 
L 127.582505 118.894731 
L 128.344367 155.81138 
L 129.106228 145.228993 
L 131.391812 137.789207 
L 132.153674 163.460581 
L 132.915535 153.369783 
L 133.677397 139.710555 
L 136.724842 161.543581 
L 137.486704 152.008302 
L 138.248565 156.438368 
L 139.010427 121.664358 
L 139.772288 142.144076 
L 142.057872 168.93895 
L 142.819734 118.689807 
L 144.343456 149.686609 
L 145.105318 160.455777 
L 147.390902 163.83389 
L 148.152764 133.251263 
L 148.914625 122.420396 
L 149.676486 134.244754 
L 150.438348 141.457435 
L 152.723932 142.648966 
L 153.485793 148.426853 
L 154.247655 165.4863 
L 155.009516 119.310933 
L 155.771378 143.834567 
L 158.056962 138.711646 
L 159.580685 156.550673 
L 160.342546 150.419822 
L 161.104408 151.313569 
L 163.389992 135.076917 
L 164.151853 138.692014 
L 164.913715 93.282969 
L 165.675576 120.782485 
L 166.437438 153.916543 
L 168.723022 125.765872 
L 169.484883 132.55408 
L 170.246745 131.624585 
L 171.008606 180.157455 
L 171.770468 153.607125 
L 174.056052 161.266056 
L 174.817913 153.63263 
L 175.579775 183.848608 
L 176.341636 234.867784 
L 177.103497 155.150084 
L 179.389082 240.611887 
L 180.150943 54.627137 
L 180.912805 156.856611 
L 182.436527 242.306485 
L 184.722112 91.241572 
L 185.483973 180.836201 
L 186.245834 156.268592 
L 187.007696 168.719301 
L 187.769557 167.072099 
L 190.055142 139.331038 
L 190.817003 144.022651 
L 191.578864 158.266494 
L 192.340726 149.110192 
L 193.102587 151.696425 
L 195.388171 166.44775 
L 196.150033 105.049099 
L 196.911894 112.957392 
L 197.673756 190.451998 
L 198.435617 145.694424 
L 200.721201 120.845492 
L 201.483063 132.103733 
L 202.244924 125.539968 
L 203.006786 144.167255 
L 203.768647 123.11451 
L 206.054231 135.578499 
L 206.816093 145.011492 
L 207.577954 142.053827 
L 208.339816 136.932916 
L 209.101677 143.223412 
L 212.149123 152.979265 
L 212.910984 158.523188 
L 213.672845 126.04422 
L 214.434707 140.352723 
L 216.720291 154.344628 
L 217.482153 131.278721 
L 218.244014 154.61781 
L 219.767737 114.810393 
L 222.053321 147.130043 
L 222.815183 132.678252 
L 223.577044 136.244712 
L 224.338905 163.9614 
L 225.100767 134.116392 
L 227.386351 142.193678 
L 228.148212 151.656139 
L 228.910074 136.603049 
L 229.671935 133.182382 
L 230.433797 123.920471 
L 234.243104 163.940513 
L 235.004965 139.694376 
L 235.766827 169.993458 
L 238.052411 131.252635 
L 238.814272 146.44694 
L 239.576134 176.255563 
L 240.337995 149.521324 
L 241.099857 162.862257 
L 243.385441 149.629934 
L 244.147302 168.689317 
L 244.909164 123.107172 
L 245.671025 160.234655 
L 246.432886 133.500432 
L 248.718471 131.619398 
L 249.480332 158.578893 
L 250.242194 112.60855 
L 251.004055 162.894043 
L 251.765916 130.283538 
L 254.051501 154.862099 
L 254.813362 158.048208 
L 255.575223 142.651858 
L 256.337085 137.836986 
L 259.384531 136.91897 
L 260.146392 171.667939 
L 260.908253 130.376454 
L 261.670115 154.321981 
L 262.431976 143.35497 
L 264.71756 125.107141 
L 265.479422 117.759322 
L 266.241283 154.754602 
L 267.003145 149.687146 
L 267.765006 137.326602 
L 270.05059 150.623038 
L 270.812452 143.533648 
L 271.574313 142.576878 
L 272.336175 105.402448 
L 273.098036 157.284518 
L 275.38362 148.885549 
L 276.145482 90.018454 
L 276.907343 118.605879 
L 277.669205 139.864539 
L 278.431066 147.740126 
L 280.71665 74.794386 
L 281.478512 140.768952 
L 282.240373 164.708845 
L 283.002235 165.00966 
L 286.04968 133.836292 
L 286.811542 122.007093 
L 287.573403 152.904347 
L 288.335264 164.479297 
L 289.097126 140.581556 
L 291.38271 130.888048 
L 292.144572 154.175498 
L 292.906433 158.971477 
L 293.668294 129.98947 
L 294.430156 114.6404 
L 296.71574 173.800229 
L 297.477601 107.408808 
L 298.239463 154.908631 
L 299.001324 153.154587 
L 302.04877 126.218912 
L 302.810631 168.422125 
L 303.572493 167.313023 
L 304.334354 169.506836 
L 305.096216 143.314101 
L 307.3818 149.428545 
L 308.143661 173.98043 
L 308.905523 123.15555 
L 310.429246 128.069271 
L 312.71483 141.104751 
L 314.238553 166.78889 
L 315.000414 144.057372 
L 315.762275 166.200247 
L 318.04786 149.310869 
L 318.809721 111.952993 
L 319.571583 149.926694 
L 320.333444 151.479498 
L 321.095305 138.664391 
L 323.38089 133.918361 
L 324.142751 161.096837 
L 324.904612 140.502712 
L 325.666474 170.690387 
L 326.428335 141.384478 
L 328.71392 180.882572 
L 329.475781 150.265724 
L 330.237642 145.845181 
L 330.999504 144.456111 
L 331.761365 154.713809 
L 334.046949 151.178495 
L 334.808811 170.749577 
L 335.570672 138.766655 
L 336.332534 168.235215 
L 337.094395 144.315708 
L 340.903702 119.817706 
L 341.665564 146.421684 
L 342.427425 115.950653 
L 346.236732 106.733297 
L 346.998594 130.248488 
L 347.760455 144.28482 
L 350.046039 135.90975 
L 350.807901 149.990368 
L 351.569762 132.636341 
L 352.331624 151.712563 
L 353.093485 153.042711 
L 355.379069 149.749702 
L 356.140931 146.644138 
L 356.902792 146.383856 
L 357.664653 137.255187 
L 358.426515 139.94789 
L 360.712099 142.809745 
L 361.473961 156.265966 
L 362.235822 138.394884 
L 362.997683 143.322855 
L 366.045129 165.640376 
L 366.80699 130.442076 
L 367.568852 139.743904 
L 368.330713 147.133852 
L 369.092575 140.555496 
L 371.378159 140.352022 
L 372.14002 144.879643 
L 372.901882 160.76817 
L 373.663743 156.281784 
L 374.425605 145.091056 
L 376.711189 153.593685 
L 377.47305 123.189167 
L 378.234912 137.817125 
L 378.996773 123.757348 
L 379.758635 148.765418 
L 382.044219 148.052667 
L 382.80608 131.124395 
L 383.567942 154.161927 
L 384.329803 137.504367 
L 385.091664 152.502274 
L 387.377249 156.383494 
L 388.13911 149.0326 
L 388.900972 133.945552 
L 389.662833 146.601137 
L 390.424694 154.735471 
L 394.995863 144.425914 
L 395.757724 148.541376 
L 398.043309 119.908182 
L 398.80517 151.955187 
L 399.567031 131.998869 
L 400.328893 144.049609 
L 401.090754 144.745293 
L 403.376338 134.894569 
L 404.1382 135.761619 
L 404.900061 151.222297 
L 405.661923 155.284926 
L 406.423784 181.483177 
L 408.709368 137.97119 
L 409.47123 115.578181 
L 410.233091 175.291745 
L 410.994953 129.074775 
L 411.756814 146.123104 
L 414.042398 147.50739 
L 414.80426 139.418212 
L 415.566121 163.285385 
L 416.327983 124.262359 
L 417.089844 139.074118 
L 419.375428 135.551145 
L 420.13729 148.115034 
L 420.899151 154.559217 
L 421.661013 163.668122 
L 422.422874 196.293675 
L 425.47032 126.400196 
L 426.232181 145.396179 
L 426.994042 125.552758 
L 430.041488 149.875964 
L 430.80335 140.460991 
L 431.565211 147.994111 
L 432.327072 141.432053 
L 433.088934 158.485352 
L 435.374518 143.272319 
L 436.136379 152.272732 
L 437.660102 155.197171 
L 438.421964 143.216813 
L 440.707548 148.051972 
L 441.469409 156.279687 
L 442.231271 121.063905 
L 442.993132 158.895322 
L 443.754994 149.742333 
L 446.040578 165.049066 
L 446.802439 143.623581 
L 447.564301 149.110946 
L 448.326162 161.381632 
L 449.088024 161.237644 
L 451.373608 124.089688 
L 452.135469 121.517312 
L 452.897331 148.5761 
L 453.659192 157.203815 
L 454.421053 139.859987 
L 456.706638 142.401203 
L 457.468499 132.307461 
L 458.230361 153.369701 
L 458.992222 154.673145 
L 459.754083 160.976597 
L 462.039668 134.974728 
L 462.801529 140.892385 
L 463.56339 154.524015 
L 464.325252 135.609075 
L 465.087113 134.299149 
L 467.372698 148.784187 
L 468.134559 133.734541 
L 468.89642 153.511947 
L 469.658282 138.166712 
L 470.420143 148.981236 
L 472.705728 144.926974 
L 473.467589 138.004139 
L 474.22945 144.472314 
L 475.753173 128.245364 
L 478.038757 146.809867 
L 478.800619 163.080529 
L 479.56248 142.358006 
L 480.324342 156.417275 
L 481.086203 141.843825 
L 483.371787 149.665721 
L 484.133649 156.57215 
L 484.89551 137.433616 
L 485.657372 141.121444 
L 486.419233 145.886714 
L 490.22854 136.289729 
L 490.990402 138.512518 
L 491.752263 143.159723 
L 494.037847 154.064915 
L 494.799709 154.163464 
L 495.56157 149.612257 
L 496.323431 150.098946 
L 497.085293 147.77034 
L 499.370877 144.943538 
L 500.132739 145.416606 
L 500.8946 150.122061 
L 502.418323 164.178959 
L 504.703907 140.179463 
L 505.465768 149.558697 
L 506.22763 150.070479 
L 506.989491 141.903297 
L 507.751353 139.464498 
L 510.036937 169.801199 
L 510.798798 137.761884 
L 511.56066 153.126943 
L 512.322521 127.157403 
L 513.084383 147.842856 
L 515.369967 161.642099 
L 516.131828 137.474617 
L 516.89369 167.961263 
L 517.655551 164.047668 
L 518.417413 154.672669 
L 520.702997 142.874122 
L 521.464858 146.392492 
L 522.22672 107.583202 
L 522.988581 151.973515 
L 523.750442 170.251567 
L 526.036027 154.655114 
L 526.797888 135.856095 
L 527.55975 139.473926 
L 528.321611 122.166224 
L 529.083472 146.123104 
L 531.369057 151.200469 
L 532.130918 138.446852 
L 532.89278 129.433262 
L 533.654641 142.918409 
L 534.416502 142.9341 
L 536.702087 136.114847 
L 537.463948 142.036533 
L 538.225809 151.617309 
L 538.987671 141.545578 
L 539.749532 150.429267 
L 542.035117 117.704672 
L 542.796978 154.659202 
L 543.558839 157.111251 
L 544.320701 144.45829 
L 545.082562 153.002393 
L 547.368146 134.614439 
L 548.130008 151.070154 
L 549.653731 137.598889 
L 550.415592 147.05798 
L 552.701176 148.697572 
L 553.463038 147.062979 
L 554.224899 164.713354 
L 554.986761 145.638522 
L 555.748622 151.691278 
L 558.034206 154.425782 
L 558.796068 149.833587 
L 559.557929 133.683415 
L 560.319791 140.752834 
L 561.081652 133.534145 
L 563.367236 144.935762 
L 564.129098 139.248806 
L 564.890959 138.382956 
L 565.65282 152.38117 
L 566.414682 147.52731 
L 568.700266 142.135736 
L 569.462128 127.473892 
L 570.223989 137.512671 
L 570.98585 160.210834 
L 571.747712 124.864357 
L 574.033296 138.376912 
L 574.795157 141.311632 
L 575.557019 140.478759 
L 576.31888 139.451476 
L 577.080742 145.271062 
L 579.366326 147.612217 
L 580.128187 161.262371 
L 580.890049 144.813144 
L 581.65191 120.193715 
L 582.413772 164.559295 
L 584.699356 136.850428 
L 585.461217 151.02552 
L 586.223079 148.710882 
L 586.98494 159.113628 
L 590.032386 150.983853 
L 590.794247 152.80152 
L 592.31797 122.05509 
L 593.079832 143.303772 
L 595.365416 151.521399 
L 596.127277 157.88142 
L 596.889139 143.018264 
L 597.651 141.708777 
L 598.412861 154.453546 
L 600.698446 147.899721 
L 601.460307 148.127331 
L 602.222169 130.933102 
L 602.98403 137.610926 
L 603.745891 139.660223 
L 606.031476 149.109317 
L 606.793337 141.194457 
L 607.555198 146.973809 
L 608.31706 133.985047 
L 609.078921 166.816972 
L 611.364506 158.431207 
L 612.126367 136.437967 
L 612.888228 131.158924 
L 613.65009 144.639308 
L 614.411951 153.525162 
L 616.697535 140.988722 
L 618.98312 137.420845 
L 619.744981 145.444862 
L 622.030565 153.334878 
L 624.31615 134.969069 
L 625.078011 151.394785 
L 627.363595 138.469585 
L 628.125457 148.644455 
L 628.887318 150.130899 
L 629.64918 148.245612 
L 630.411041 148.891413 
L 632.696625 144.839939 
L 633.458487 153.166611 
L 634.220348 155.833558 
L 635.744071 138.88633 
L 638.029655 142.870035 
L 638.791517 154.323011 
L 639.553378 153.335446 
L 640.315239 138.166476 
L 641.077101 153.764828 
L 643.362685 174.182811 
L 644.124546 128.339724 
L 644.886408 144.999185 
L 645.648269 144.103599 
L 646.410131 157.08397 
L 648.695715 152.2668 
L 649.457576 135.785547 
L 650.219438 151.549819 
L 650.981299 128.109122 
L 651.743161 151.66939 
L 654.790606 138.344968 
L 655.552468 131.849516 
L 656.314329 154.932215 
L 657.076191 152.657702 
L 659.361775 147.443342 
L 660.885498 128.715054 
L 661.647359 159.472951 
L 662.409221 162.999547 
L 666.980389 231.430999 
L 667.74225 145.099583 
L 670.027835 115.722091 
L 670.789696 157.835691 
L 671.551558 125.248456 
L 672.313419 184.642219 
L 673.07528 209.093142 
L 675.360865 338.375317 
L 676.122726 85.218585 
L 676.884587 214.693378 
L 677.646449 273.946245 
L 677.646449 273.946245 
" style="fill:none;stroke:#ff7f0e;stroke-linecap:square;stroke-width:1.5;"/>
   </g>
   <g id="line2d_19">
    <path clip-path="url(#pc9c05a5443)" d="M 68.919176 147.121482 
L 69.681038 111.130459 
L 70.442899 154.185516 
L 72.728483 123.551806 
L 73.490345 142.410651 
L 74.252206 154.889911 
L 75.014067 93.267724 
L 75.775929 146.123104 
L 78.061513 152.609652 
L 78.823375 161.848489 
L 79.585236 121.947772 
L 80.347097 165.975587 
L 83.394543 154.352369 
L 84.156404 158.625845 
L 84.918266 125.819161 
L 85.680127 146.123104 
L 86.441989 109.497282 
L 88.727573 159.98885 
L 89.489434 141.695304 
L 90.251296 160.196083 
L 91.013157 136.232842 
L 94.060603 183.000937 
L 94.822464 107.017575 
L 95.584326 168.782942 
L 96.346187 159.936034 
L 97.108049 133.420465 
L 101.679217 101.366033 
L 102.441079 105.986593 
L 104.726663 113.612721 
L 105.488524 168.566096 
L 106.250386 140.110537 
L 107.012247 153.668894 
L 107.774108 125.629267 
L 110.059693 130.153385 
L 110.821554 160.568152 
L 111.583416 147.289328 
L 112.345277 125.479294 
L 113.107138 155.560065 
L 115.392723 139.611001 
L 116.154584 174.565986 
L 116.916445 129.859744 
L 117.678307 173.209417 
L 118.440168 142.084773 
L 120.725753 134.060384 
L 121.487614 150.465059 
L 122.249475 155.660817 
L 123.011337 166.693474 
L 123.773198 149.872303 
L 126.058782 163.721283 
L 126.820644 115.542427 
L 127.582505 136.252239 
L 128.344367 171.239853 
L 129.106228 157.502549 
L 131.391812 136.685024 
L 132.153674 154.579876 
L 132.915535 152.978054 
L 133.677397 122.307053 
L 136.724842 140.275953 
L 137.486704 142.397878 
L 138.248565 161.761818 
L 139.010427 102.684527 
L 139.772288 156.003418 
L 142.057872 158.96604 
L 142.819734 132.610732 
L 143.581595 150.936241 
L 144.343456 128.746956 
L 145.105318 147.697301 
L 147.390902 148.095539 
L 148.152764 128.712428 
L 148.914625 125.314898 
L 149.676486 152.469984 
L 150.438348 154.417729 
L 152.723932 154.525387 
L 153.485793 144.962342 
L 154.247655 145.736671 
L 155.009516 136.472721 
L 155.771378 159.055073 
L 158.056962 147.287424 
L 159.580685 162.064115 
L 160.342546 136.157616 
L 161.104408 132.382733 
L 163.389992 164.575291 
L 164.151853 147.310237 
L 164.913715 105.29121 
L 166.437438 149.749876 
L 168.723022 147.582044 
L 169.484883 143.564265 
L 170.246745 129.010644 
L 171.008606 156.409782 
L 171.770468 153.332077 
L 174.056052 167.629114 
L 174.817913 153.320218 
L 175.579775 160.678971 
L 176.341636 145.339398 
L 177.103497 173.129193 
L 179.389082 186.557771 
L 180.150943 136.539017 
L 180.912805 158.143041 
L 182.436527 117.254282 
L 184.722112 128.955004 
L 185.483973 134.701474 
L 186.245834 155.743391 
L 187.007696 189.660303 
L 187.769557 168.806993 
L 190.055142 151.547885 
L 190.817003 131.53473 
L 191.578864 148.35224 
L 192.340726 155.070724 
L 193.102587 156.557176 
L 195.388171 143.356598 
L 196.150033 148.877838 
L 196.911894 113.847213 
L 197.673756 179.062129 
L 198.435617 133.629379 
L 200.721201 163.828014 
L 201.483063 165.259241 
L 202.244924 141.313544 
L 203.006786 128.459052 
L 203.768647 147.052616 
L 206.054231 145.657726 
L 206.816093 128.91588 
L 207.577954 132.985572 
L 208.339816 120.370702 
L 209.101677 130.750338 
L 212.149123 157.38525 
L 212.910984 161.405062 
L 213.672845 110.907326 
L 214.434707 153.957414 
L 216.720291 136.940672 
L 217.482153 128.426623 
L 218.244014 141.7165 
L 219.005875 158.059799 
L 219.767737 134.772992 
L 222.053321 144.131206 
L 222.815183 127.059589 
L 223.577044 151.138491 
L 224.338905 161.286512 
L 225.100767 123.031428 
L 227.386351 135.359333 
L 228.148212 162.761048 
L 228.910074 156.99005 
L 229.671935 136.649507 
L 230.433797 128.616267 
L 232.719381 155.214285 
L 233.481242 152.654371 
L 234.243104 125.941435 
L 235.004965 161.554505 
L 235.766827 173.883699 
L 238.052411 152.568557 
L 238.814272 130.254381 
L 239.576134 177.101109 
L 240.337995 146.123104 
L 241.099857 140.700665 
L 243.385441 122.958723 
L 244.147302 156.506477 
L 244.909164 129.334997 
L 245.671025 162.885899 
L 246.432886 142.435584 
L 248.718471 137.160247 
L 249.480332 142.104767 
L 250.242194 142.528852 
L 251.004055 161.21499 
L 251.765916 141.243471 
L 254.051501 153.791323 
L 254.813362 155.925512 
L 255.575223 147.367157 
L 256.337085 134.488932 
L 260.146392 162.317562 
L 260.908253 142.290024 
L 261.670115 146.546551 
L 262.431976 146.970343 
L 264.71756 130.426956 
L 265.479422 103.048347 
L 266.241283 141.851441 
L 267.003145 145.35164 
L 267.765006 138.416279 
L 270.05059 162.878376 
L 270.812452 110.940471 
L 271.574313 159.099904 
L 272.336175 143.852977 
L 273.098036 145.36894 
L 275.38362 165.329494 
L 276.145482 141.077683 
L 276.907343 158.446475 
L 277.669205 157.115324 
L 278.431066 162.496828 
L 280.71665 153.907883 
L 281.478512 128.705178 
L 282.240373 165.507658 
L 283.002235 138.21325 
L 286.04968 154.760077 
L 286.811542 118.194408 
L 287.573403 150.119117 
L 288.335264 170.650559 
L 289.097126 162.004213 
L 291.38271 116.989562 
L 292.144572 150.632874 
L 292.906433 175.436198 
L 293.668294 128.825392 
L 294.430156 128.433327 
L 296.71574 152.272864 
L 298.239463 127.275804 
L 299.001324 139.752959 
L 302.04877 125.622052 
L 303.572493 164.79336 
L 304.334354 162.601401 
L 305.096216 144.512771 
L 307.3818 173.431201 
L 308.143661 152.412228 
L 308.905523 152.050605 
L 310.429246 99.974415 
L 312.71483 149.314123 
L 314.238553 178.190576 
L 315.000414 139.317694 
L 315.762275 165.485038 
L 318.04786 151.329716 
L 318.809721 150.49729 
L 319.571583 129.828927 
L 320.333444 144.834376 
L 321.095305 129.831867 
L 323.38089 118.104162 
L 324.142751 159.751828 
L 324.904612 138.343251 
L 325.666474 153.40599 
L 326.428335 152.261104 
L 328.71392 160.169299 
L 329.475781 139.78883 
L 330.237642 149.468637 
L 330.999504 148.64533 
L 331.761365 154.985258 
L 334.046949 147.406722 
L 334.808811 140.978516 
L 335.570672 149.100432 
L 336.332534 171.761233 
L 337.094395 139.004318 
L 340.903702 142.602491 
L 341.665564 162.318086 
L 342.427425 128.16576 
L 346.236732 129.52407 
L 346.998594 150.382056 
L 347.760455 128.974435 
L 350.046039 144.452455 
L 350.807901 145.28995 
L 351.569762 127.817236 
L 352.331624 162.71178 
L 353.093485 161.487081 
L 355.379069 146.973775 
L 356.140931 158.900001 
L 356.902792 144.81963 
L 357.664653 140.91998 
L 358.426515 127.196903 
L 360.712099 145.705162 
L 361.473961 147.37604 
L 362.235822 138.590789 
L 362.997683 132.058998 
L 366.045129 160.292995 
L 366.80699 146.123104 
L 367.568852 125.013457 
L 368.330713 166.165308 
L 369.092575 139.918309 
L 371.378159 138.338408 
L 372.14002 148.957059 
L 372.901882 170.114584 
L 373.663743 150.34594 
L 374.425605 141.022388 
L 376.711189 141.905812 
L 377.47305 144.028065 
L 378.234912 140.693607 
L 378.996773 141.981321 
L 379.758635 156.411756 
L 382.044219 143.195742 
L 382.80608 146.539393 
L 383.567942 135.292062 
L 384.329803 174.803758 
L 385.091664 142.693337 
L 387.377249 142.285018 
L 388.13911 137.220284 
L 389.662833 158.290022 
L 390.424694 150.826538 
L 394.995863 154.795029 
L 395.757724 147.002054 
L 398.043309 137.761557 
L 398.80517 156.115997 
L 399.567031 132.443274 
L 400.328893 155.630407 
L 401.090754 130.772447 
L 403.376338 128.557277 
L 404.1382 132.358283 
L 404.900061 155.517054 
L 405.661923 144.465326 
L 406.423784 175.886928 
L 408.709368 149.15623 
L 409.47123 130.015285 
L 410.233091 171.185002 
L 410.994953 135.959683 
L 411.756814 134.811688 
L 414.042398 105.930222 
L 414.80426 146.123104 
L 415.566121 149.343773 
L 416.327983 138.031076 
L 417.089844 163.306187 
L 419.375428 142.839045 
L 420.13729 156.333934 
L 420.899151 149.027905 
L 421.661013 160.295938 
L 422.422874 153.794263 
L 424.708458 156.042682 
L 425.47032 132.98316 
L 426.232181 150.415937 
L 426.994042 148.283849 
L 430.041488 145.255929 
L 430.80335 155.649485 
L 431.565211 151.836406 
L 432.327072 147.009966 
L 433.088934 155.447242 
L 435.374518 145.222135 
L 436.136379 156.919974 
L 437.660102 152.985569 
L 438.421964 135.487855 
L 440.707548 152.947032 
L 441.469409 139.686241 
L 442.231271 133.376168 
L 442.993132 157.731001 
L 443.754994 150.214612 
L 446.040578 161.678034 
L 446.802439 139.560439 
L 448.326162 154.494236 
L 449.088024 146.123104 
L 451.373608 140.913832 
L 452.135469 122.164181 
L 452.897331 146.123104 
L 453.659192 161.52567 
L 454.421053 150.763675 
L 456.706638 147.525359 
L 457.468499 131.133509 
L 458.230361 150.243502 
L 458.992222 150.73069 
L 459.754083 149.83557 
L 462.039668 142.855955 
L 462.801529 149.838233 
L 463.56339 153.129183 
L 464.325252 148.956251 
L 465.087113 134.266632 
L 467.372698 134.479923 
L 468.134559 126.908065 
L 468.89642 151.01051 
L 469.658282 137.616992 
L 470.420143 159.379616 
L 472.705728 152.438877 
L 473.467589 121.978019 
L 474.22945 136.460944 
L 475.753173 134.872143 
L 478.038757 149.951122 
L 478.800619 162.382061 
L 479.56248 131.200849 
L 480.324342 150.413136 
L 481.086203 137.053986 
L 483.371787 153.363323 
L 484.133649 162.920946 
L 484.89551 135.068444 
L 485.657372 128.297767 
L 486.419233 143.161316 
L 488.704817 146.965464 
L 490.22854 147.810059 
L 490.990402 161.768074 
L 494.037847 136.887594 
L 494.799709 152.193522 
L 495.56157 154.001729 
L 496.323431 151.44026 
L 497.085293 152.824614 
L 499.370877 161.020489 
L 500.132739 143.812734 
L 500.8946 155.792144 
L 501.656461 152.19948 
L 502.418323 144.235686 
L 504.703907 139.536615 
L 505.465768 137.274254 
L 506.22763 161.7443 
L 506.989491 157.893392 
L 507.751353 142.766411 
L 510.036937 168.544611 
L 510.798798 146.617315 
L 511.56066 152.057637 
L 512.322521 125.159946 
L 513.084383 150.957801 
L 515.369967 163.658872 
L 516.131828 129.100374 
L 516.89369 173.442131 
L 517.655551 168.024418 
L 518.417413 125.03637 
L 520.702997 164.091122 
L 521.464858 143.482958 
L 522.22672 133.501938 
L 522.988581 143.028128 
L 523.750442 162.551071 
L 526.036027 160.871712 
L 526.797888 159.059588 
L 527.55975 138.423004 
L 528.321611 112.423308 
L 529.083472 128.556977 
L 531.369057 156.686111 
L 532.130918 150.213851 
L 533.654641 141.491785 
L 534.416502 158.385659 
L 536.702087 110.70826 
L 537.463948 125.877593 
L 538.225809 160.008857 
L 538.987671 127.529151 
L 539.749532 148.501324 
L 542.035117 148.9876 
L 542.796978 142.286847 
L 543.558839 153.273661 
L 544.320701 147.569216 
L 545.082562 153.369668 
L 547.368146 148.077401 
L 548.130008 158.864566 
L 548.891869 138.124777 
L 549.653731 145.135497 
L 550.415592 151.053569 
L 552.701176 139.664342 
L 553.463038 149.566547 
L 554.224899 170.355917 
L 554.986761 136.87507 
L 555.748622 133.459542 
L 558.034206 158.543698 
L 558.796068 157.773607 
L 559.557929 147.670568 
L 560.319791 122.338262 
L 561.081652 130.662219 
L 563.367236 148.071472 
L 564.129098 134.397326 
L 564.890959 152.841428 
L 565.65282 143.698567 
L 566.414682 157.717624 
L 568.700266 142.679708 
L 570.223989 144.660658 
L 570.98585 161.200707 
L 571.747712 134.17183 
L 574.033296 147.589875 
L 574.795157 151.023663 
L 575.557019 132.790698 
L 576.31888 143.703957 
L 577.080742 122.985818 
L 579.366326 114.010935 
L 580.128187 139.472106 
L 580.890049 147.000902 
L 581.65191 119.753949 
L 582.413772 149.501373 
L 584.699356 144.849618 
L 585.461217 143.999248 
L 586.223079 144.852958 
L 586.98494 141.052345 
L 590.032386 153.670067 
L 590.794247 144.426206 
L 592.31797 97.465168 
L 593.079832 136.678314 
L 595.365416 141.856521 
L 596.127277 128.397637 
L 596.889139 140.122093 
L 597.651 155.413558 
L 598.412861 152.532704 
L 600.698446 128.987004 
L 601.460307 160.962388 
L 602.222169 138.14968 
L 602.98403 144.622869 
L 603.745891 134.897143 
L 606.031476 161.571543 
L 606.793337 127.659324 
L 607.555198 148.687632 
L 608.31706 134.720717 
L 609.078921 125.158839 
L 611.364506 159.427444 
L 612.126367 149.340235 
L 612.888228 152.948845 
L 613.65009 130.147737 
L 614.411951 114.942051 
L 616.697535 135.643625 
L 618.98312 131.818547 
L 619.744981 146.448601 
L 622.030565 142.215488 
L 624.31615 121.523318 
L 625.078011 156.725377 
L 627.363595 147.708165 
L 628.125457 135.953497 
L 628.887318 143.619994 
L 629.64918 149.551631 
L 630.411041 137.349527 
L 632.696625 118.299507 
L 633.458487 158.572396 
L 634.220348 155.79426 
L 634.982209 139.986955 
L 635.744071 137.917096 
L 638.029655 125.114602 
L 638.791517 159.785463 
L 639.553378 138.105307 
L 640.315239 143.483164 
L 641.077101 160.437533 
L 643.362685 197.505795 
L 644.124546 138.010777 
L 644.886408 148.046052 
L 645.648269 126.837192 
L 646.410131 167.660254 
L 649.457576 118.401431 
L 650.219438 147.029365 
L 650.981299 150.96323 
L 651.743161 176.296758 
L 654.028745 156.353038 
L 654.790606 108.444167 
L 655.552468 140.291022 
L 656.314329 149.165227 
L 657.076191 166.907163 
L 659.361775 139.80736 
L 660.123636 151.752366 
L 660.885498 148.962395 
L 661.647359 174.64127 
L 662.409221 160.376326 
L 666.980389 214.24871 
L 667.74225 152.18381 
L 670.027835 130.417941 
L 670.789696 140.513391 
L 671.551558 113.866178 
L 672.313419 177.908482 
L 673.07528 193.66323 
L 675.360865 262.367746 
L 676.122726 92.868373 
L 676.884587 220.610443 
L 677.646449 252.741472 
L 677.646449 252.741472 
" style="fill:none;stroke:#2ca02c;stroke-linecap:square;stroke-width:1.5;"/>
   </g>
   <g id="line2d_20">
    <path clip-path="url(#pc9c05a5443)" d="M 68.919176 160.224105 
L 69.681038 144.812656 
L 70.442899 140.891901 
L 72.728483 144.825787 
L 73.490345 168.133452 
L 74.252206 144.782747 
L 75.014067 139.435487 
L 75.775929 143.47541 
L 78.061513 148.100755 
L 78.823375 152.074427 
L 79.585236 142.118743 
L 80.347097 154.082465 
L 81.108959 142.093949 
L 83.394543 142.786158 
L 84.156404 159.402312 
L 84.918266 123.07562 
L 85.680127 146.123104 
L 86.441989 136.304713 
L 88.727573 137.096153 
L 89.489434 147.394873 
L 90.251296 153.131968 
L 91.013157 137.105197 
L 91.775019 158.828861 
L 94.060603 153.251238 
L 94.822464 142.19176 
L 96.346187 162.553626 
L 97.108049 142.751463 
L 101.679217 145.452296 
L 102.441079 150.143918 
L 104.726663 143.425765 
L 105.488524 136.050023 
L 107.012247 129.922902 
L 107.774108 142.32991 
L 110.059693 169.377862 
L 110.821554 149.382759 
L 111.583416 144.157464 
L 113.107138 142.870063 
L 115.392723 178.491234 
L 116.154584 148.848771 
L 117.678307 150.250807 
L 118.440168 117.043706 
L 120.725753 118.95649 
L 121.487614 132.132976 
L 122.249475 162.929572 
L 123.011337 167.211905 
L 123.773198 158.013414 
L 126.058782 136.029081 
L 126.820644 150.098774 
L 127.582505 151.456604 
L 128.344367 147.467637 
L 129.106228 158.248499 
L 131.391812 147.496087 
L 132.153674 164.009946 
L 132.915535 163.810541 
L 133.677397 113.391246 
L 136.724842 142.661312 
L 137.486704 166.783573 
L 138.248565 146.123104 
L 139.010427 158.216701 
L 139.772288 133.799282 
L 142.057872 153.948453 
L 142.819734 148.283341 
L 143.581595 130.228001 
L 144.343456 135.545339 
L 145.105318 160.693906 
L 147.390902 156.770528 
L 148.152764 142.514589 
L 148.914625 133.204655 
L 149.676486 153.159574 
L 150.438348 141.143436 
L 152.723932 144.005271 
L 153.485793 151.752266 
L 154.247655 156.770528 
L 155.009516 128.080669 
L 155.771378 165.080574 
L 158.056962 160.589279 
L 159.580685 149.338082 
L 160.342546 164.811381 
L 161.104408 158.439148 
L 163.389992 149.261885 
L 164.151853 151.642564 
L 164.913715 120.673983 
L 165.675576 110.923741 
L 166.437438 149.026056 
L 168.723022 135.187965 
L 169.484883 133.935749 
L 170.246745 130.642733 
L 171.008606 155.056955 
L 171.770468 134.973704 
L 174.056052 137.902617 
L 174.817913 148.82895 
L 175.579775 148.160926 
L 176.341636 146.804566 
L 177.103497 137.937266 
L 179.389082 156.227583 
L 180.150943 168.021185 
L 180.912805 160.996861 
L 182.436527 138.873853 
L 184.722112 150.424488 
L 185.483973 172.104241 
L 186.245834 140.859922 
L 187.007696 163.276781 
L 187.769557 119.309268 
L 190.055142 150.53698 
L 190.817003 147.604402 
L 191.578864 140.184039 
L 192.340726 146.858774 
L 193.102587 151.278368 
L 195.388171 130.532951 
L 196.150033 132.349492 
L 196.911894 146.832961 
L 197.673756 131.200365 
L 198.435617 145.428481 
L 200.721201 136.409196 
L 201.483063 155.693407 
L 202.244924 160.000088 
L 203.006786 161.013153 
L 203.768647 118.544857 
L 206.054231 146.819221 
L 206.816093 145.426238 
L 207.577954 122.456114 
L 208.339816 152.166937 
L 209.101677 160.358302 
L 212.149123 111.467757 
L 212.910984 169.149213 
L 213.672845 144.076563 
L 214.434707 154.28321 
L 216.720291 128.906032 
L 217.482153 124.656111 
L 218.244014 155.862788 
L 219.005875 145.463849 
L 219.767737 159.952824 
L 222.053321 157.563002 
L 222.815183 139.957755 
L 223.577044 125.765799 
L 224.338905 161.254538 
L 225.100767 144.775845 
L 227.386351 181.751494 
L 228.148212 151.814233 
L 228.910074 141.816952 
L 229.671935 136.854726 
L 230.433797 136.985483 
L 232.719381 166.916326 
L 233.481242 152.568144 
L 234.243104 147.569646 
L 235.004965 171.495726 
L 235.766827 167.249086 
L 238.052411 115.704959 
L 238.814272 128.989164 
L 239.576134 127.979554 
L 240.337995 166.59582 
L 241.099857 145.394062 
L 243.385441 154.861416 
L 244.909164 110.680904 
L 245.671025 161.209908 
L 246.432886 127.16566 
L 248.718471 138.619381 
L 249.480332 152.866483 
L 250.242194 146.123104 
L 251.004055 162.477546 
L 251.765916 136.335764 
L 254.051501 139.924961 
L 254.813362 159.083944 
L 255.575223 142.642651 
L 256.337085 152.354458 
L 259.384531 134.937583 
L 260.146392 145.435855 
L 260.908253 158.479954 
L 261.670115 156.620838 
L 262.431976 143.98899 
L 264.71756 133.360157 
L 265.479422 114.137434 
L 266.241283 159.375188 
L 267.003145 167.093071 
L 267.765006 143.326674 
L 270.05059 156.564464 
L 270.812452 134.095651 
L 271.574313 132.925721 
L 272.336175 142.719506 
L 273.098036 158.311985 
L 275.38362 152.334463 
L 276.145482 144.729371 
L 276.907343 148.209213 
L 277.669205 176.817012 
L 278.431066 160.037017 
L 280.71665 128.909932 
L 281.478512 144.66516 
L 282.240373 144.668297 
L 283.002235 130.156733 
L 286.04968 140.45695 
L 286.811542 136.293303 
L 287.573403 143.356616 
L 288.335264 135.10411 
L 289.097126 139.351575 
L 291.38271 132.050004 
L 292.144572 125.134669 
L 292.906433 164.5466 
L 293.668294 138.930141 
L 296.71574 162.904136 
L 297.477601 111.005195 
L 298.239463 149.265649 
L 299.001324 150.544117 
L 302.04877 129.589338 
L 302.810631 156.044362 
L 303.572493 129.120355 
L 304.334354 162.077072 
L 305.096216 166.884012 
L 307.3818 146.123104 
L 308.143661 153.272673 
L 308.905523 44.2539 
L 310.429246 156.344603 
L 312.71483 167.471061 
L 314.238553 118.080718 
L 315.000414 155.844997 
L 315.762275 162.960307 
L 318.04786 130.624544 
L 318.809721 126.911796 
L 319.571583 142.73078 
L 320.333444 132.624705 
L 321.095305 145.021165 
L 323.38089 135.672946 
L 324.142751 172.104241 
L 324.904612 110.597106 
L 325.666474 141.311994 
L 326.428335 154.082452 
L 328.71392 162.240008 
L 329.475781 168.160935 
L 330.237642 136.997296 
L 330.999504 118.563848 
L 331.761365 141.807331 
L 334.046949 155.769272 
L 334.808811 145.035055 
L 335.570672 166.760517 
L 336.332534 153.976723 
L 337.094395 125.680051 
L 340.903702 160.43555 
L 341.665564 157.381561 
L 342.427425 129.509406 
L 346.236732 120.98827 
L 346.998594 135.907241 
L 347.760455 129.184717 
L 350.046039 168.819524 
L 350.807901 135.966242 
L 351.569762 151.386279 
L 352.331624 148.24559 
L 353.093485 129.08726 
L 355.379069 135.229983 
L 356.140931 149.694056 
L 356.902792 118.93594 
L 357.664653 133.815796 
L 358.426515 139.842741 
L 360.712099 137.989193 
L 361.473961 150.848346 
L 362.235822 123.275033 
L 362.997683 128.191909 
L 366.045129 131.359473 
L 366.80699 150.497188 
L 367.568852 119.700153 
L 368.330713 155.008473 
L 369.092575 155.561104 
L 371.378159 139.592865 
L 372.14002 147.847176 
L 372.901882 187.177424 
L 373.663743 132.280717 
L 374.425605 149.73715 
L 376.711189 141.580196 
L 377.47305 137.100604 
L 378.234912 153.686803 
L 378.996773 140.720907 
L 379.758635 131.836536 
L 382.044219 138.26037 
L 383.567942 170.634467 
L 384.329803 160.225843 
L 385.091664 132.636409 
L 387.377249 157.056713 
L 388.13911 158.63479 
L 388.900972 143.287914 
L 389.662833 161.648521 
L 390.424694 112.863244 
L 394.995863 194.262674 
L 395.757724 142.160697 
L 398.043309 141.200181 
L 398.80517 124.137191 
L 399.567031 126.276951 
L 400.328893 133.285886 
L 401.090754 125.893011 
L 403.376338 115.607696 
L 404.1382 169.436523 
L 404.900061 146.554985 
L 405.661923 160.384062 
L 406.423784 162.030967 
L 408.709368 139.32786 
L 409.47123 115.637878 
L 410.233091 167.530615 
L 410.994953 108.485725 
L 411.756814 127.292248 
L 414.042398 133.517454 
L 414.80426 160.881211 
L 415.566121 156.735572 
L 416.327983 138.653587 
L 417.089844 112.483177 
L 419.375428 120.774612 
L 420.13729 159.257998 
L 420.899151 138.078953 
L 421.661013 154.446858 
L 422.422874 117.377017 
L 424.708458 135.480472 
L 425.47032 91.243541 
L 426.232181 157.772302 
L 426.994042 175.271395 
L 430.041488 119.504537 
L 430.80335 121.237711 
L 431.565211 169.102445 
L 432.327072 96.090416 
L 433.088934 183.088147 
L 436.136379 132.071823 
L 437.660102 154.236687 
L 438.421964 112.959044 
L 440.707548 153.063676 
L 441.469409 163.024648 
L 442.231271 133.352696 
L 442.993132 125.571934 
L 443.754994 170.087921 
L 446.040578 155.49583 
L 446.802439 92.012271 
L 447.564301 127.358949 
L 448.326162 126.122801 
L 449.088024 121.016078 
L 451.373608 134.038257 
L 452.135469 188.453753 
L 452.897331 140.064926 
L 453.659192 156.983908 
L 454.421053 118.507765 
L 456.706638 165.917539 
L 457.468499 143.5348 
L 458.230361 187.084543 
L 458.992222 112.485931 
L 459.754083 158.041313 
L 462.039668 165.076115 
L 462.801529 111.039793 
L 463.56339 154.804797 
L 464.325252 148.469681 
L 465.087113 156.132351 
L 467.372698 135.059609 
L 468.134559 152.590885 
L 468.89642 136.323582 
L 469.658282 163.089674 
L 470.420143 158.739916 
L 472.705728 153.782386 
L 473.467589 155.114219 
L 474.22945 125.372297 
L 475.753173 121.142538 
L 478.038757 154.336095 
L 478.800619 142.855136 
L 479.56248 165.632654 
L 480.324342 150.694861 
L 481.086203 142.13275 
L 483.371787 110.429694 
L 484.133649 125.594832 
L 484.89551 146.123104 
L 486.419233 123.790715 
L 488.704817 140.259815 
L 490.22854 123.408616 
L 490.990402 170.874479 
L 491.752263 160.715271 
L 494.037847 125.494357 
L 494.799709 166.114799 
L 495.56157 155.89463 
L 496.323431 137.579808 
L 497.085293 143.403083 
L 499.370877 120.391102 
L 500.132739 126.063974 
L 500.8946 138.037398 
L 501.656461 159.849014 
L 502.418323 150.457554 
L 504.703907 150.230079 
L 505.465768 139.92331 
L 506.22763 156.358075 
L 506.989491 114.924892 
L 507.751353 142.154602 
L 510.036937 155.983909 
L 510.798798 122.09111 
L 511.56066 148.054087 
L 512.322521 144.670546 
L 513.084383 131.146787 
L 515.369967 108.820673 
L 516.131828 169.115649 
L 516.89369 160.472909 
L 517.655551 116.062752 
L 518.417413 135.265883 
L 520.702997 150.572348 
L 521.464858 151.947132 
L 522.22672 132.334993 
L 522.988581 150.328206 
L 523.750442 177.533325 
L 526.036027 144.250086 
L 526.797888 143.32166 
L 527.55975 126.597626 
L 528.321611 128.974425 
L 529.083472 141.946602 
L 531.369057 156.606697 
L 532.130918 150.785159 
L 532.89278 124.879802 
L 533.654641 138.761788 
L 534.416502 149.976459 
L 536.702087 168.950911 
L 537.463948 146.123104 
L 538.225809 155.052233 
L 538.987671 134.805579 
L 539.749532 129.883437 
L 542.035117 148.076263 
L 542.796978 150.258922 
L 543.558839 148.09477 
L 544.320701 142.167726 
L 545.082562 118.603641 
L 547.368146 150.313129 
L 548.130008 100.154037 
L 548.891869 139.822746 
L 549.653731 153.922682 
L 550.415592 153.030905 
L 552.701176 139.340259 
L 553.463038 142.964279 
L 554.224899 174.610997 
L 554.986761 137.902636 
L 555.748622 153.225835 
L 558.034206 155.766842 
L 558.796068 155.079541 
L 559.557929 171.46843 
L 560.319791 152.717653 
L 561.081652 140.57111 
L 563.367236 154.930749 
L 564.129098 143.890811 
L 564.890959 140.784037 
L 565.65282 150.535953 
L 566.414682 148.34463 
L 568.700266 128.066519 
L 569.462128 137.448239 
L 570.223989 158.321333 
L 570.98585 158.773717 
L 571.747712 162.807704 
L 574.033296 137.217603 
L 574.795157 151.078543 
L 575.557019 136.816705 
L 576.31888 160.444279 
L 577.080742 145.43664 
L 579.366326 126.007297 
L 580.128187 171.175168 
L 580.890049 180.024864 
L 581.65191 132.737809 
L 582.413772 135.631766 
L 584.699356 140.961114 
L 585.461217 152.873715 
L 586.223079 160.23712 
L 586.98494 162.715989 
L 590.032386 133.53618 
L 590.794247 151.933383 
L 592.31797 166.643277 
L 593.079832 152.682512 
L 595.365416 83.935514 
L 596.127277 161.935126 
L 596.889139 135.635629 
L 597.651 121.495202 
L 598.412861 149.964349 
L 600.698446 152.487595 
L 601.460307 150.255212 
L 602.222169 164.374958 
L 602.98403 138.515473 
L 603.745891 148.472841 
L 606.031476 167.819771 
L 606.793337 159.055729 
L 607.555198 159.817291 
L 608.31706 151.210451 
L 609.078921 136.124254 
L 611.364506 149.657829 
L 612.126367 159.070359 
L 612.888228 123.067794 
L 614.411951 152.288461 
L 616.697535 138.155574 
L 618.98312 141.94181 
L 619.744981 148.322527 
L 622.030565 160.835897 
L 624.31615 110.994869 
L 625.078011 139.697114 
L 627.363595 161.441101 
L 628.125457 134.53721 
L 628.887318 130.235452 
L 629.64918 138.253839 
L 630.411041 149.553133 
L 632.696625 133.019538 
L 633.458487 146.799056 
L 634.220348 148.153164 
L 634.982209 141.597702 
L 635.744071 125.001234 
L 638.029655 144.599905 
L 638.791517 140.261663 
L 639.553378 146.983692 
L 640.315239 151.077949 
L 641.077101 157.411796 
L 643.362685 190.31167 
L 644.124546 125.018582 
L 644.886408 164.494538 
L 645.648269 156.522469 
L 646.410131 130.989976 
L 648.695715 133.44811 
L 649.457576 160.856846 
L 650.219438 152.248082 
L 650.981299 156.349586 
L 651.743161 173.187176 
L 654.028745 150.158083 
L 654.790606 134.703568 
L 655.552468 149.863633 
L 656.314329 134.083781 
L 657.076191 158.681301 
L 659.361775 145.369804 
L 660.123636 148.882075 
L 660.885498 118.415022 
L 661.647359 170.519934 
L 662.409221 141.353892 
L 666.980389 230.594175 
L 667.74225 142.970813 
L 670.027835 125.590042 
L 670.789696 166.577762 
L 671.551558 117.008906 
L 672.313419 187.095411 
L 673.07528 180.82408 
L 675.360865 238.867567 
L 676.122726 46.86085 
L 676.884587 211.919597 
L 677.646449 212.074229 
L 677.646449 212.074229 
" style="fill:none;stroke:#d62728;stroke-linecap:square;stroke-width:1.5;"/>
   </g>
   <g id="line2d_21">
    <path clip-path="url(#pc9c05a5443)" d="M 68.919176 155.958244 
L 69.681038 152.428275 
L 70.442899 143.46705 
L 72.728483 140.840191 
L 73.490345 135.639324 
L 74.252206 151.283037 
L 75.014067 133.641583 
L 75.775929 141.278537 
L 78.061513 141.818181 
L 78.823375 138.325353 
L 79.585236 149.85114 
L 80.347097 155.120338 
L 81.108959 137.252965 
L 83.394543 153.374856 
L 84.156404 164.834897 
L 84.918266 145.083895 
L 85.680127 146.123104 
L 86.441989 143.260417 
L 88.727573 166.830926 
L 89.489434 151.740573 
L 90.251296 154.212637 
L 91.013157 151.588044 
L 91.775019 166.782771 
L 94.060603 153.236752 
L 94.822464 126.55752 
L 95.584326 153.943331 
L 96.346187 165.063963 
L 97.108049 155.152079 
L 101.679217 102.117259 
L 102.441079 161.056394 
L 104.726663 143.293195 
L 105.488524 146.687515 
L 106.250386 149.225139 
L 107.012247 141.871177 
L 107.774108 121.904554 
L 110.059693 137.710974 
L 110.821554 155.768407 
L 111.583416 156.731205 
L 112.345277 149.717906 
L 113.107138 149.738121 
L 115.392723 157.028985 
L 116.154584 147.261976 
L 116.916445 150.397633 
L 117.678307 149.564827 
L 118.440168 130.262501 
L 120.725753 148.936802 
L 121.487614 151.779036 
L 122.249475 136.138876 
L 123.011337 144.721318 
L 123.773198 143.317719 
L 126.058782 145.847581 
L 126.820644 151.141165 
L 127.582505 142.750352 
L 128.344367 144.723444 
L 129.106228 151.426447 
L 131.391812 155.485732 
L 132.153674 157.575995 
L 132.915535 140.583519 
L 133.677397 140.055451 
L 136.724842 154.427179 
L 137.486704 146.123104 
L 138.248565 145.832692 
L 139.010427 148.731212 
L 139.772288 160.093725 
L 142.057872 159.810345 
L 142.819734 140.042376 
L 143.581595 142.811654 
L 144.343456 138.63428 
L 145.105318 140.498528 
L 147.390902 143.184169 
L 148.152764 143.201395 
L 148.914625 147.870609 
L 149.676486 138.829998 
L 150.438348 132.561853 
L 152.723932 148.668702 
L 153.485793 149.243095 
L 154.247655 159.804551 
L 155.009516 115.080079 
L 155.771378 145.762016 
L 158.056962 151.538741 
L 159.580685 137.748902 
L 160.342546 160.860427 
L 161.104408 160.835871 
L 163.389992 156.661374 
L 164.151853 148.418877 
L 164.913715 143.05143 
L 165.675576 115.168844 
L 166.437438 144.664275 
L 168.723022 142.484268 
L 169.484883 120.431296 
L 170.246745 129.416884 
L 171.008606 159.35536 
L 171.770468 159.631678 
L 174.056052 159.211766 
L 174.817913 142.151439 
L 175.579775 146.840758 
L 176.341636 117.383407 
L 177.103497 150.250836 
L 179.389082 181.433839 
L 180.150943 157.473811 
L 180.912805 153.2043 
L 182.436527 151.021584 
L 184.722112 155.615248 
L 185.483973 161.536516 
L 186.245834 122.4391 
L 187.007696 167.828755 
L 187.769557 143.365105 
L 190.055142 162.993675 
L 190.817003 153.374286 
L 191.578864 157.530368 
L 192.340726 161.052627 
L 193.102587 123.624623 
L 195.388171 167.045418 
L 196.150033 148.666782 
L 196.911894 138.03642 
L 197.673756 143.180559 
L 198.435617 147.3785 
L 200.721201 130.190659 
L 201.483063 140.394255 
L 202.244924 155.857773 
L 203.006786 130.06262 
L 203.768647 140.497382 
L 206.054231 168.119707 
L 206.816093 132.067895 
L 207.577954 150.169202 
L 208.339816 142.865948 
L 209.101677 131.539079 
L 212.149123 119.975217 
L 212.910984 153.358164 
L 213.672845 136.880609 
L 214.434707 142.326365 
L 216.720291 135.176356 
L 217.482153 118.283582 
L 218.244014 136.158212 
L 219.005875 135.257722 
L 219.767737 150.604354 
L 222.053321 136.626083 
L 222.815183 140.625318 
L 224.338905 157.426267 
L 225.100767 150.306362 
L 227.386351 140.859954 
L 228.148212 149.255555 
L 228.910074 153.117959 
L 229.671935 158.497484 
L 230.433797 139.995446 
L 232.719381 141.838392 
L 233.481242 136.190972 
L 234.243104 160.097376 
L 235.004965 148.622606 
L 235.766827 172.290007 
L 238.052411 134.916657 
L 238.814272 148.326255 
L 239.576134 143.91243 
L 240.337995 143.552571 
L 241.099857 153.43799 
L 243.385441 148.342693 
L 244.147302 143.895879 
L 244.909164 132.436108 
L 245.671025 145.760797 
L 246.432886 153.364281 
L 249.480332 128.500362 
L 250.242194 137.020141 
L 251.004055 143.01578 
L 251.765916 135.814771 
L 254.051501 157.622735 
L 254.813362 151.288203 
L 255.575223 148.90007 
L 256.337085 114.051235 
L 259.384531 144.130143 
L 260.146392 161.024016 
L 260.908253 156.291179 
L 261.670115 148.189077 
L 262.431976 130.232777 
L 264.71756 142.751398 
L 265.479422 151.154458 
L 266.241283 151.531827 
L 267.765006 133.914981 
L 270.05059 150.148879 
L 270.812452 138.740075 
L 271.574313 140.482262 
L 272.336175 138.886322 
L 273.098036 151.002751 
L 275.38362 154.645283 
L 276.145482 137.819404 
L 276.907343 156.289334 
L 277.669205 156.784724 
L 278.431066 146.461941 
L 280.71665 147.817781 
L 281.478512 171.609779 
L 282.240373 142.585582 
L 283.002235 145.067574 
L 286.04968 150.689485 
L 286.811542 130.204324 
L 287.573403 149.575658 
L 288.335264 154.453812 
L 289.097126 139.442123 
L 291.38271 144.382736 
L 292.144572 127.032138 
L 292.906433 141.065487 
L 293.668294 157.498006 
L 294.430156 177.793166 
L 296.71574 166.89009 
L 297.477601 116.529498 
L 298.239463 156.735601 
L 299.001324 138.930073 
L 302.04877 127.982879 
L 302.810631 146.469118 
L 303.572493 140.584193 
L 304.334354 155.047511 
L 305.096216 146.123104 
L 307.3818 151.343735 
L 308.143661 157.351101 
L 308.905523 135.768109 
L 310.429246 141.554449 
L 312.71483 158.337231 
L 314.238553 154.65979 
L 315.000414 158.378357 
L 315.762275 143.918664 
L 318.04786 143.926216 
L 318.809721 134.810739 
L 319.571583 142.895252 
L 320.333444 143.62497 
L 321.095305 159.987612 
L 323.38089 141.037044 
L 324.142751 143.23954 
L 324.904612 152.941391 
L 325.666474 146.848262 
L 328.71392 163.688772 
L 329.475781 138.976058 
L 330.237642 149.843674 
L 330.999504 143.5036 
L 331.761365 146.868518 
L 334.046949 162.167245 
L 335.570672 135.73759 
L 336.332534 140.444451 
L 337.094395 142.7457 
L 340.903702 156.929141 
L 341.665564 141.172621 
L 342.427425 130.628701 
L 346.236732 129.883742 
L 346.998594 131.361264 
L 347.760455 138.730699 
L 350.046039 156.216422 
L 350.807901 151.426435 
L 351.569762 138.993544 
L 352.331624 141.186736 
L 353.093485 139.474494 
L 355.379069 138.849425 
L 356.140931 158.796389 
L 356.902792 132.498124 
L 357.664653 150.228862 
L 358.426515 149.566596 
L 360.712099 141.968843 
L 361.473961 155.066457 
L 362.235822 138.798478 
L 362.997683 144.398606 
L 366.045129 135.803805 
L 366.80699 143.075948 
L 367.568852 139.046187 
L 368.330713 165.457365 
L 369.092575 118.977857 
L 371.378159 143.814604 
L 372.14002 134.621809 
L 372.901882 169.047149 
L 373.663743 151.813436 
L 374.425605 151.863963 
L 376.711189 149.870995 
L 377.47305 146.808495 
L 378.234912 153.327467 
L 378.996773 139.878421 
L 379.758635 144.061475 
L 382.044219 139.957653 
L 382.80608 135.60534 
L 383.567942 166.154808 
L 384.329803 143.022432 
L 385.091664 140.294131 
L 387.377249 166.172707 
L 388.900972 137.293911 
L 389.662833 151.697781 
L 390.424694 148.93462 
L 394.995863 139.769463 
L 395.757724 136.335798 
L 398.043309 139.924991 
L 398.80517 145.099893 
L 399.567031 140.333927 
L 400.328893 149.160794 
L 401.090754 140.358253 
L 403.376338 151.837072 
L 404.1382 146.123104 
L 404.900061 157.313767 
L 405.661923 153.024573 
L 406.423784 157.982183 
L 409.47123 147.556899 
L 410.233091 166.600085 
L 410.994953 123.864367 
L 411.756814 147.916254 
L 414.042398 143.605582 
L 414.80426 139.674564 
L 415.566121 138.319299 
L 416.327983 134.206282 
L 417.089844 137.175069 
L 419.375428 156.985961 
L 420.13729 154.409357 
L 420.899151 152.418357 
L 421.661013 149.654894 
L 422.422874 145.767947 
L 424.708458 140.444454 
L 425.47032 133.809138 
L 426.232181 154.409357 
L 426.994042 141.926224 
L 430.041488 141.953324 
L 430.80335 128.860182 
L 431.565211 161.256206 
L 432.327072 137.514632 
L 433.088934 145.10356 
L 435.374518 157.319603 
L 436.136379 151.992536 
L 437.660102 139.503169 
L 438.421964 150.26185 
L 440.707548 156.189317 
L 441.469409 153.880088 
L 442.231271 129.350228 
L 442.993132 148.210201 
L 443.754994 150.310934 
L 446.040578 161.227046 
L 446.802439 145.763478 
L 447.564301 146.482531 
L 448.326162 146.123104 
L 449.088024 141.447756 
L 451.373608 133.625821 
L 452.135469 134.913299 
L 452.897331 147.156139 
L 453.659192 155.435215 
L 454.421053 156.970748 
L 456.706638 142.5642 
L 457.468499 126.302264 
L 458.230361 137.880876 
L 458.992222 147.140381 
L 459.754083 146.462861 
L 462.039668 143.064669 
L 462.801529 150.181712 
L 463.56339 150.547855 
L 464.325252 146.123104 
L 465.087113 135.499353 
L 467.372698 145.11159 
L 468.134559 141.410049 
L 468.89642 135.428491 
L 469.658282 135.93093 
L 470.420143 148.388936 
L 472.705728 134.104864 
L 473.467589 135.280556 
L 474.22945 129.5 
L 475.753173 138.172464 
L 478.038757 141.591883 
L 478.800619 158.422415 
L 479.56248 146.734597 
L 480.324342 139.695448 
L 481.086203 146.123104 
L 483.371787 138.139866 
L 484.133649 146.723046 
L 484.89551 141.919385 
L 485.657372 131.206988 
L 486.419233 140.291014 
L 488.704817 142.366042 
L 490.22854 112.792394 
L 490.990402 148.582463 
L 491.752263 160.112774 
L 494.037847 165.468304 
L 494.799709 142.944078 
L 495.56157 145.547894 
L 496.323431 139.801793 
L 497.085293 144.984874 
L 499.370877 151.520138 
L 500.132739 146.696024 
L 500.8946 134.081849 
L 501.656461 152.033763 
L 502.418323 129.931893 
L 504.703907 137.524392 
L 505.465768 134.59249 
L 506.22763 150.978301 
L 506.989491 156.722209 
L 507.751353 137.557966 
L 510.036937 158.121427 
L 510.798798 129.452756 
L 511.56066 135.017761 
L 512.322521 142.661299 
L 513.084383 153.009887 
L 515.369967 157.635346 
L 516.131828 131.676682 
L 516.89369 177.851389 
L 517.655551 166.870062 
L 518.417413 133.088962 
L 520.702997 153.505251 
L 521.464858 144.399894 
L 522.22672 132.946789 
L 522.988581 155.387177 
L 523.750442 160.648149 
L 526.036027 165.643049 
L 526.797888 142.217873 
L 527.55975 133.880475 
L 528.321611 137.038453 
L 529.083472 143.233081 
L 531.369057 138.066993 
L 532.130918 162.889728 
L 532.89278 133.286796 
L 533.654641 141.832074 
L 534.416502 144.417994 
L 536.702087 153.492431 
L 537.463948 136.088658 
L 538.987671 146.964577 
L 539.749532 127.306047 
L 542.035117 159.223148 
L 542.796978 130.524084 
L 543.558839 140.683061 
L 544.320701 154.484821 
L 545.082562 126.721416 
L 547.368146 150.351746 
L 548.130008 154.683302 
L 548.891869 136.363904 
L 549.653731 146.123104 
L 550.415592 149.060777 
L 552.701176 143.440304 
L 553.463038 146.123104 
L 554.224899 156.810066 
L 554.986761 150.197991 
L 555.748622 148.036694 
L 558.034206 166.961562 
L 558.796068 147.256381 
L 559.557929 144.420208 
L 560.319791 143.292553 
L 561.081652 126.395015 
L 563.367236 143.935123 
L 564.129098 145.305329 
L 564.890959 130.061551 
L 565.65282 149.576504 
L 566.414682 142.918282 
L 568.700266 143.997149 
L 569.462128 138.176741 
L 570.223989 117.339788 
L 571.747712 163.23727 
L 574.033296 141.792093 
L 574.795157 147.641501 
L 575.557019 137.752071 
L 576.31888 154.888151 
L 577.080742 136.476148 
L 579.366326 139.869655 
L 580.128187 131.010486 
L 580.890049 135.713008 
L 581.65191 124.202833 
L 582.413772 142.66624 
L 584.699356 126.638021 
L 585.461217 159.252831 
L 586.223079 129.995871 
L 586.98494 145.01497 
L 590.032386 145.238137 
L 590.794247 148.332523 
L 592.31797 153.217515 
L 593.079832 142.088246 
L 595.365416 145.232047 
L 596.127277 156.578821 
L 596.889139 136.626326 
L 597.651 137.654993 
L 598.412861 124.346386 
L 600.698446 151.656141 
L 601.460307 134.317786 
L 602.222169 122.724414 
L 602.98403 126.795765 
L 603.745891 146.715747 
L 606.031476 162.534596 
L 606.793337 144.905913 
L 607.555198 123.84912 
L 608.31706 131.832996 
L 609.078921 141.334886 
L 611.364506 156.769811 
L 612.126367 137.038076 
L 612.888228 147.266783 
L 613.65009 151.852059 
L 614.411951 140.535763 
L 616.697535 147.304207 
L 618.98312 125.815239 
L 619.744981 137.02101 
L 622.030565 158.579398 
L 624.31615 135.290173 
L 625.078011 154.389622 
L 628.125457 141.111945 
L 628.887318 170.617967 
L 629.64918 155.693776 
L 630.411041 132.911657 
L 632.696625 140.030244 
L 633.458487 133.296606 
L 634.220348 141.869009 
L 634.982209 134.362899 
L 635.744071 129.33894 
L 638.029655 126.244844 
L 638.791517 153.632726 
L 639.553378 121.775776 
L 640.315239 133.641803 
L 641.077101 117.061211 
L 643.362685 153.310811 
L 644.124546 129.6902 
L 644.886408 140.267418 
L 645.648269 167.808726 
L 646.410131 170.772491 
L 648.695715 125.425951 
L 649.457576 148.510652 
L 650.219438 132.543239 
L 650.981299 123.120349 
L 651.743161 172.416595 
L 654.028745 139.350163 
L 654.790606 122.429642 
L 655.552468 123.416487 
L 656.314329 131.449972 
L 657.076191 146.123104 
L 659.361775 143.139856 
L 660.123636 161.3951 
L 660.885498 86.455689 
L 661.647359 163.759105 
L 662.409221 114.634256 
L 666.980389 219.976734 
L 667.74225 158.195813 
L 670.027835 88.513095 
L 670.789696 133.310914 
L 671.551558 138.828105 
L 672.313419 169.634389 
L 673.07528 183.273674 
L 675.360865 208.918152 
L 676.122726 110.945674 
L 676.884587 187.983083 
L 677.646449 248.512077 
L 677.646449 248.512077 
" style="fill:none;stroke:#9467bd;stroke-linecap:square;stroke-width:1.5;"/>
   </g>
   <g id="patch_3">
    <path d="M 38.482813 398.88 
L 38.482813 7.2 
" style="fill:none;stroke:#000000;stroke-linecap:square;stroke-linejoin:miter;stroke-width:0.8;"/>
   </g>
   <g id="patch_4">
    <path d="M 708.082813 398.88 
L 708.082813 7.2 
" style="fill:none;stroke:#000000;stroke-linecap:square;stroke-linejoin:miter;stroke-width:0.8;"/>
   </g>
   <g id="patch_5">
    <path d="M 38.482812 398.88 
L 708.082812 398.88 
" style="fill:none;stroke:#000000;stroke-linecap:square;stroke-linejoin:miter;stroke-width:0.8;"/>
   </g>
   <g id="patch_6">
    <path d="M 38.482812 7.2 
L 708.082812 7.2 
" style="fill:none;stroke:#000000;stroke-linecap:square;stroke-linejoin:miter;stroke-width:0.8;"/>
   </g>
   <g id="legend_1">
    <g id="patch_7">
     <path d="M 45.482813 88.590625 
L 130.4875 88.590625 
Q 132.4875 88.590625 132.4875 86.590625 
L 132.4875 14.2 
Q 132.4875 12.2 130.4875 12.2 
L 45.482813 12.2 
Q 43.482813 12.2 43.482813 14.2 
L 43.482813 86.590625 
Q 43.482813 88.590625 45.482813 88.590625 
z
" style="fill:#ffffff;opacity:0.8;stroke:#cccccc;stroke-linejoin:miter;"/>
    </g>
    <g id="line2d_22">
     <path d="M 47.482813 20.298437 
L 67.482813 20.298437 
" style="fill:none;stroke:#1f77b4;stroke-linecap:square;stroke-width:1.5;"/>
    </g>
    <g id="line2d_23"/>
    <g id="text_18">
     <!-- GOLL4.SA -->
     <defs>
      <path d="M 59.515625 10.40625 
L 59.515625 29.984375 
L 43.40625 29.984375 
L 43.40625 38.09375 
L 69.28125 38.09375 
L 69.28125 6.78125 
Q 63.578125 2.734375 56.6875 0.65625 
Q 49.8125 -1.421875 42 -1.421875 
Q 24.90625 -1.421875 15.25 8.5625 
Q 5.609375 18.5625 5.609375 36.375 
Q 5.609375 54.25 15.25 64.234375 
Q 24.90625 74.21875 42 74.21875 
Q 49.125 74.21875 55.546875 72.453125 
Q 61.96875 70.703125 67.390625 67.28125 
L 67.390625 56.78125 
Q 61.921875 61.421875 55.765625 63.765625 
Q 49.609375 66.109375 42.828125 66.109375 
Q 29.4375 66.109375 22.71875 58.640625 
Q 16.015625 51.171875 16.015625 36.375 
Q 16.015625 21.625 22.71875 14.15625 
Q 29.4375 6.6875 42.828125 6.6875 
Q 48.046875 6.6875 52.140625 7.59375 
Q 56.25 8.5 59.515625 10.40625 
z
" id="DejaVuSans-71"/>
      <path d="M 39.40625 66.21875 
Q 28.65625 66.21875 22.328125 58.203125 
Q 16.015625 50.203125 16.015625 36.375 
Q 16.015625 22.609375 22.328125 14.59375 
Q 28.65625 6.59375 39.40625 6.59375 
Q 50.140625 6.59375 56.421875 14.59375 
Q 62.703125 22.609375 62.703125 36.375 
Q 62.703125 50.203125 56.421875 58.203125 
Q 50.140625 66.21875 39.40625 66.21875 
z
M 39.40625 74.21875 
Q 54.734375 74.21875 63.90625 63.9375 
Q 73.09375 53.65625 73.09375 36.375 
Q 73.09375 19.140625 63.90625 8.859375 
Q 54.734375 -1.421875 39.40625 -1.421875 
Q 24.03125 -1.421875 14.8125 8.828125 
Q 5.609375 19.09375 5.609375 36.375 
Q 5.609375 53.65625 14.8125 63.9375 
Q 24.03125 74.21875 39.40625 74.21875 
z
" id="DejaVuSans-79"/>
      <path d="M 9.8125 72.90625 
L 19.671875 72.90625 
L 19.671875 8.296875 
L 55.171875 8.296875 
L 55.171875 0 
L 9.8125 0 
z
" id="DejaVuSans-76"/>
      <path d="M 53.515625 70.515625 
L 53.515625 60.890625 
Q 47.90625 63.578125 42.921875 64.890625 
Q 37.9375 66.21875 33.296875 66.21875 
Q 25.25 66.21875 20.875 63.09375 
Q 16.5 59.96875 16.5 54.203125 
Q 16.5 49.359375 19.40625 46.890625 
Q 22.3125 44.4375 30.421875 42.921875 
L 36.375 41.703125 
Q 47.40625 39.59375 52.65625 34.296875 
Q 57.90625 29 57.90625 20.125 
Q 57.90625 9.515625 50.796875 4.046875 
Q 43.703125 -1.421875 29.984375 -1.421875 
Q 24.8125 -1.421875 18.96875 -0.25 
Q 13.140625 0.921875 6.890625 3.21875 
L 6.890625 13.375 
Q 12.890625 10.015625 18.65625 8.296875 
Q 24.421875 6.59375 29.984375 6.59375 
Q 38.421875 6.59375 43.015625 9.90625 
Q 47.609375 13.234375 47.609375 19.390625 
Q 47.609375 24.75 44.3125 27.78125 
Q 41.015625 30.8125 33.5 32.328125 
L 27.484375 33.5 
Q 16.453125 35.6875 11.515625 40.375 
Q 6.59375 45.0625 6.59375 53.421875 
Q 6.59375 63.09375 13.40625 68.65625 
Q 20.21875 74.21875 32.171875 74.21875 
Q 37.3125 74.21875 42.625 73.28125 
Q 47.953125 72.359375 53.515625 70.515625 
z
" id="DejaVuSans-83"/>
      <path d="M 34.1875 63.1875 
L 20.796875 26.90625 
L 47.609375 26.90625 
z
M 28.609375 72.90625 
L 39.796875 72.90625 
L 67.578125 0 
L 57.328125 0 
L 50.6875 18.703125 
L 17.828125 18.703125 
L 11.1875 0 
L 0.78125 0 
z
" id="DejaVuSans-65"/>
     </defs>
     <g transform="translate(75.482813 23.798437)scale(0.1 -0.1)">
      <use xlink:href="#DejaVuSans-71"/>
      <use x="77.490234" xlink:href="#DejaVuSans-79"/>
      <use x="156.201172" xlink:href="#DejaVuSans-76"/>
      <use x="211.914062" xlink:href="#DejaVuSans-76"/>
      <use x="267.626953" xlink:href="#DejaVuSans-52"/>
      <use x="331.25" xlink:href="#DejaVuSans-46"/>
      <use x="363.037109" xlink:href="#DejaVuSans-83"/>
      <use x="426.529297" xlink:href="#DejaVuSans-65"/>
     </g>
    </g>
    <g id="line2d_24">
     <path d="M 47.482813 34.976562 
L 67.482813 34.976562 
" style="fill:none;stroke:#ff7f0e;stroke-linecap:square;stroke-width:1.5;"/>
    </g>
    <g id="line2d_25"/>
    <g id="text_19">
     <!-- PETR4.SA -->
     <defs>
      <path d="M 19.671875 64.796875 
L 19.671875 37.40625 
L 32.078125 37.40625 
Q 38.96875 37.40625 42.71875 40.96875 
Q 46.484375 44.53125 46.484375 51.125 
Q 46.484375 57.671875 42.71875 61.234375 
Q 38.96875 64.796875 32.078125 64.796875 
z
M 9.8125 72.90625 
L 32.078125 72.90625 
Q 44.34375 72.90625 50.609375 67.359375 
Q 56.890625 61.8125 56.890625 51.125 
Q 56.890625 40.328125 50.609375 34.8125 
Q 44.34375 29.296875 32.078125 29.296875 
L 19.671875 29.296875 
L 19.671875 0 
L 9.8125 0 
z
" id="DejaVuSans-80"/>
      <path d="M 9.8125 72.90625 
L 55.90625 72.90625 
L 55.90625 64.59375 
L 19.671875 64.59375 
L 19.671875 43.015625 
L 54.390625 43.015625 
L 54.390625 34.71875 
L 19.671875 34.71875 
L 19.671875 8.296875 
L 56.78125 8.296875 
L 56.78125 0 
L 9.8125 0 
z
" id="DejaVuSans-69"/>
      <path d="M -0.296875 72.90625 
L 61.375 72.90625 
L 61.375 64.59375 
L 35.5 64.59375 
L 35.5 0 
L 25.59375 0 
L 25.59375 64.59375 
L -0.296875 64.59375 
z
" id="DejaVuSans-84"/>
      <path d="M 44.390625 34.1875 
Q 47.5625 33.109375 50.5625 29.59375 
Q 53.5625 26.078125 56.59375 19.921875 
L 66.609375 0 
L 56 0 
L 46.6875 18.703125 
Q 43.0625 26.03125 39.671875 28.421875 
Q 36.28125 30.8125 30.421875 30.8125 
L 19.671875 30.8125 
L 19.671875 0 
L 9.8125 0 
L 9.8125 72.90625 
L 32.078125 72.90625 
Q 44.578125 72.90625 50.734375 67.671875 
Q 56.890625 62.453125 56.890625 51.90625 
Q 56.890625 45.015625 53.6875 40.46875 
Q 50.484375 35.9375 44.390625 34.1875 
z
M 19.671875 64.796875 
L 19.671875 38.921875 
L 32.078125 38.921875 
Q 39.203125 38.921875 42.84375 42.21875 
Q 46.484375 45.515625 46.484375 51.90625 
Q 46.484375 58.296875 42.84375 61.546875 
Q 39.203125 64.796875 32.078125 64.796875 
z
" id="DejaVuSans-82"/>
     </defs>
     <g transform="translate(75.482813 38.476562)scale(0.1 -0.1)">
      <use xlink:href="#DejaVuSans-80"/>
      <use x="60.302734" xlink:href="#DejaVuSans-69"/>
      <use x="123.486328" xlink:href="#DejaVuSans-84"/>
      <use x="184.570312" xlink:href="#DejaVuSans-82"/>
      <use x="254.052734" xlink:href="#DejaVuSans-52"/>
      <use x="317.675781" xlink:href="#DejaVuSans-46"/>
      <use x="349.462891" xlink:href="#DejaVuSans-83"/>
      <use x="412.955078" xlink:href="#DejaVuSans-65"/>
     </g>
    </g>
    <g id="line2d_26">
     <path d="M 47.482813 49.654687 
L 67.482813 49.654687 
" style="fill:none;stroke:#2ca02c;stroke-linecap:square;stroke-width:1.5;"/>
    </g>
    <g id="line2d_27"/>
    <g id="text_20">
     <!-- GGBR4.SA -->
     <defs>
      <path d="M 19.671875 34.8125 
L 19.671875 8.109375 
L 35.5 8.109375 
Q 43.453125 8.109375 47.28125 11.40625 
Q 51.125 14.703125 51.125 21.484375 
Q 51.125 28.328125 47.28125 31.5625 
Q 43.453125 34.8125 35.5 34.8125 
z
M 19.671875 64.796875 
L 19.671875 42.828125 
L 34.28125 42.828125 
Q 41.5 42.828125 45.03125 45.53125 
Q 48.578125 48.25 48.578125 53.8125 
Q 48.578125 59.328125 45.03125 62.0625 
Q 41.5 64.796875 34.28125 64.796875 
z
M 9.8125 72.90625 
L 35.015625 72.90625 
Q 46.296875 72.90625 52.390625 68.21875 
Q 58.5 63.53125 58.5 54.890625 
Q 58.5 48.1875 55.375 44.234375 
Q 52.25 40.28125 46.1875 39.3125 
Q 53.46875 37.75 57.5 32.78125 
Q 61.53125 27.828125 61.53125 20.40625 
Q 61.53125 10.640625 54.890625 5.3125 
Q 48.25 0 35.984375 0 
L 9.8125 0 
z
" id="DejaVuSans-66"/>
     </defs>
     <g transform="translate(75.482813 53.154687)scale(0.1 -0.1)">
      <use xlink:href="#DejaVuSans-71"/>
      <use x="77.490234" xlink:href="#DejaVuSans-71"/>
      <use x="154.980469" xlink:href="#DejaVuSans-66"/>
      <use x="223.583984" xlink:href="#DejaVuSans-82"/>
      <use x="293.066406" xlink:href="#DejaVuSans-52"/>
      <use x="356.689453" xlink:href="#DejaVuSans-46"/>
      <use x="388.476562" xlink:href="#DejaVuSans-83"/>
      <use x="451.96875" xlink:href="#DejaVuSans-65"/>
     </g>
    </g>
    <g id="line2d_28">
     <path d="M 47.482813 64.332812 
L 67.482813 64.332812 
" style="fill:none;stroke:#d62728;stroke-linecap:square;stroke-width:1.5;"/>
    </g>
    <g id="line2d_29"/>
    <g id="text_21">
     <!-- JBSS3.SA -->
     <defs>
      <path d="M 9.8125 72.90625 
L 19.671875 72.90625 
L 19.671875 5.078125 
Q 19.671875 -8.109375 14.671875 -14.0625 
Q 9.671875 -20.015625 -1.421875 -20.015625 
L -5.171875 -20.015625 
L -5.171875 -11.71875 
L -2.09375 -11.71875 
Q 4.4375 -11.71875 7.125 -8.046875 
Q 9.8125 -4.390625 9.8125 5.078125 
z
" id="DejaVuSans-74"/>
     </defs>
     <g transform="translate(75.482813 67.832812)scale(0.1 -0.1)">
      <use xlink:href="#DejaVuSans-74"/>
      <use x="29.492188" xlink:href="#DejaVuSans-66"/>
      <use x="98.080078" xlink:href="#DejaVuSans-83"/>
      <use x="161.556641" xlink:href="#DejaVuSans-83"/>
      <use x="225.033203" xlink:href="#DejaVuSans-51"/>
      <use x="288.65625" xlink:href="#DejaVuSans-46"/>
      <use x="320.443359" xlink:href="#DejaVuSans-83"/>
      <use x="383.935547" xlink:href="#DejaVuSans-65"/>
     </g>
    </g>
    <g id="line2d_30">
     <path d="M 47.482813 79.010937 
L 67.482813 79.010937 
" style="fill:none;stroke:#9467bd;stroke-linecap:square;stroke-width:1.5;"/>
    </g>
    <g id="line2d_31"/>
    <g id="text_22">
     <!-- WEGE3.SA -->
     <defs>
      <path d="M 3.328125 72.90625 
L 13.28125 72.90625 
L 28.609375 11.28125 
L 43.890625 72.90625 
L 54.984375 72.90625 
L 70.3125 11.28125 
L 85.59375 72.90625 
L 95.609375 72.90625 
L 77.296875 0 
L 64.890625 0 
L 49.515625 63.28125 
L 33.984375 0 
L 21.578125 0 
z
" id="DejaVuSans-87"/>
     </defs>
     <g transform="translate(75.482813 82.510937)scale(0.1 -0.1)">
      <use xlink:href="#DejaVuSans-87"/>
      <use x="98.876953" xlink:href="#DejaVuSans-69"/>
      <use x="162.060547" xlink:href="#DejaVuSans-71"/>
      <use x="239.550781" xlink:href="#DejaVuSans-69"/>
      <use x="302.734375" xlink:href="#DejaVuSans-51"/>
      <use x="366.357422" xlink:href="#DejaVuSans-46"/>
      <use x="398.144531" xlink:href="#DejaVuSans-83"/>
      <use x="461.636719" xlink:href="#DejaVuSans-65"/>
     </g>
    </g>
   </g>
  </g>
 </g>
 <defs>
  <clipPath id="pc9c05a5443">
   <rect height="391.68" width="669.6" x="38.482813" y="7.2"/>
  </clipPath>
 </defs>
</svg>
