<?xml version="1.0" encoding="utf-8" standalone="no"?>
<!DOCTYPE svg PUBLIC "-//W3C//DTD SVG 1.1//EN"
  "http://www.w3.org/Graphics/SVG/1.1/DTD/svg11.dtd">
<!-- Created with matplotlib (https://matplotlib.org/) -->
<svg height="456.031033pt" version="1.1" viewBox="0 0 715.282812 456.031033" width="715.282812pt" xmlns="http://www.w3.org/2000/svg" xmlns:xlink="http://www.w3.org/1999/xlink">
 <defs>
  <style type="text/css">
*{stroke-linecap:butt;stroke-linejoin:round;}
  </style>
 </defs>
 <g id="figure_1">
  <g id="patch_1">
   <path d="M 0 456.031033 
L 715.282812 456.031033 
L 715.282812 0 
L 0 0 
z
" style="fill:none;"/>
  </g>
  <g id="axes_1">
   <g id="patch_2">
    <path d="M 38.482813 398.88 
L 708.082813 398.88 
L 708.082813 7.2 
L 38.482813 7.2 
z
" style="fill:#ffffff;"/>
   </g>
   <g id="matplotlib.axis_1">
    <g id="xtick_1">
     <g id="line2d_1">
      <defs>
       <path d="M 0 0 
L 0 3.5 
" id="m878b153c12" style="stroke:#000000;stroke-width:0.8;"/>
      </defs>
      <g>
       <use style="stroke:#000000;stroke-width:0.8;" x="67.395453" xlink:href="#m878b153c12" y="398.88"/>
      </g>
     </g>
     <g id="text_1">
      <!-- 2018-01 -->
      <defs>
       <path d="M 19.1875 8.296875 
L 53.609375 8.296875 
L 53.609375 0 
L 7.328125 0 
L 7.328125 8.296875 
Q 12.9375 14.109375 22.625 23.890625 
Q 32.328125 33.6875 34.8125 36.53125 
Q 39.546875 41.84375 41.421875 45.53125 
Q 43.3125 49.21875 43.3125 52.78125 
Q 43.3125 58.59375 39.234375 62.25 
Q 35.15625 65.921875 28.609375 65.921875 
Q 23.96875 65.921875 18.8125 64.3125 
Q 13.671875 62.703125 7.8125 59.421875 
L 7.8125 69.390625 
Q 13.765625 71.78125 18.9375 73 
Q 24.125 74.21875 28.421875 74.21875 
Q 39.75 74.21875 46.484375 68.546875 
Q 53.21875 62.890625 53.21875 53.421875 
Q 53.21875 48.921875 51.53125 44.890625 
Q 49.859375 40.875 45.40625 35.40625 
Q 44.1875 33.984375 37.640625 27.21875 
Q 31.109375 20.453125 19.1875 8.296875 
z
" id="DejaVuSans-50"/>
       <path d="M 31.78125 66.40625 
Q 24.171875 66.40625 20.328125 58.90625 
Q 16.5 51.421875 16.5 36.375 
Q 16.5 21.390625 20.328125 13.890625 
Q 24.171875 6.390625 31.78125 6.390625 
Q 39.453125 6.390625 43.28125 13.890625 
Q 47.125 21.390625 47.125 36.375 
Q 47.125 51.421875 43.28125 58.90625 
Q 39.453125 66.40625 31.78125 66.40625 
z
M 31.78125 74.21875 
Q 44.046875 74.21875 50.515625 64.515625 
Q 56.984375 54.828125 56.984375 36.375 
Q 56.984375 17.96875 50.515625 8.265625 
Q 44.046875 -1.421875 31.78125 -1.421875 
Q 19.53125 -1.421875 13.0625 8.265625 
Q 6.59375 17.96875 6.59375 36.375 
Q 6.59375 54.828125 13.0625 64.515625 
Q 19.53125 74.21875 31.78125 74.21875 
z
" id="DejaVuSans-48"/>
       <path d="M 12.40625 8.296875 
L 28.515625 8.296875 
L 28.515625 63.921875 
L 10.984375 60.40625 
L 10.984375 69.390625 
L 28.421875 72.90625 
L 38.28125 72.90625 
L 38.28125 8.296875 
L 54.390625 8.296875 
L 54.390625 0 
L 12.40625 0 
z
" id="DejaVuSans-49"/>
       <path d="M 31.78125 34.625 
Q 24.75 34.625 20.71875 30.859375 
Q 16.703125 27.09375 16.703125 20.515625 
Q 16.703125 13.921875 20.71875 10.15625 
Q 24.75 6.390625 31.78125 6.390625 
Q 38.8125 6.390625 42.859375 10.171875 
Q 46.921875 13.96875 46.921875 20.515625 
Q 46.921875 27.09375 42.890625 30.859375 
Q 38.875 34.625 31.78125 34.625 
z
M 21.921875 38.8125 
Q 15.578125 40.375 12.03125 44.71875 
Q 8.5 49.078125 8.5 55.328125 
Q 8.5 64.0625 14.71875 69.140625 
Q 20.953125 74.21875 31.78125 74.21875 
Q 42.671875 74.21875 48.875 69.140625 
Q 55.078125 64.0625 55.078125 55.328125 
Q 55.078125 49.078125 51.53125 44.71875 
Q 48 40.375 41.703125 38.8125 
Q 48.828125 37.15625 52.796875 32.3125 
Q 56.78125 27.484375 56.78125 20.515625 
Q 56.78125 9.90625 50.3125 4.234375 
Q 43.84375 -1.421875 31.78125 -1.421875 
Q 19.734375 -1.421875 13.25 4.234375 
Q 6.78125 9.90625 6.78125 20.515625 
Q 6.78125 27.484375 10.78125 32.3125 
Q 14.796875 37.15625 21.921875 38.8125 
z
M 18.3125 54.390625 
Q 18.3125 48.734375 21.84375 45.5625 
Q 25.390625 42.390625 31.78125 42.390625 
Q 38.140625 42.390625 41.71875 45.5625 
Q 45.3125 48.734375 45.3125 54.390625 
Q 45.3125 60.0625 41.71875 63.234375 
Q 38.140625 66.40625 31.78125 66.40625 
Q 25.390625 66.40625 21.84375 63.234375 
Q 18.3125 60.0625 18.3125 54.390625 
z
" id="DejaVuSans-56"/>
       <path d="M 4.890625 31.390625 
L 31.203125 31.390625 
L 31.203125 23.390625 
L 4.890625 23.390625 
z
" id="DejaVuSans-45"/>
      </defs>
      <g transform="translate(30.170632 433.351846)rotate(-30)scale(0.1 -0.1)">
       <use xlink:href="#DejaVuSans-50"/>
       <use x="63.623047" xlink:href="#DejaVuSans-48"/>
       <use x="127.246094" xlink:href="#DejaVuSans-49"/>
       <use x="190.869141" xlink:href="#DejaVuSans-56"/>
       <use x="254.492188" xlink:href="#DejaVuSans-45"/>
       <use x="290.576172" xlink:href="#DejaVuSans-48"/>
       <use x="354.199219" xlink:href="#DejaVuSans-49"/>
      </g>
     </g>
    </g>
    <g id="xtick_2">
     <g id="line2d_2">
      <g>
       <use style="stroke:#000000;stroke-width:0.8;" x="135.962981" xlink:href="#m878b153c12" y="398.88"/>
      </g>
     </g>
     <g id="text_2">
      <!-- 2018-04 -->
      <defs>
       <path d="M 37.796875 64.3125 
L 12.890625 25.390625 
L 37.796875 25.390625 
z
M 35.203125 72.90625 
L 47.609375 72.90625 
L 47.609375 25.390625 
L 58.015625 25.390625 
L 58.015625 17.1875 
L 47.609375 17.1875 
L 47.609375 0 
L 37.796875 0 
L 37.796875 17.1875 
L 4.890625 17.1875 
L 4.890625 26.703125 
z
" id="DejaVuSans-52"/>
      </defs>
      <g transform="translate(98.73816 433.351846)rotate(-30)scale(0.1 -0.1)">
       <use xlink:href="#DejaVuSans-50"/>
       <use x="63.623047" xlink:href="#DejaVuSans-48"/>
       <use x="127.246094" xlink:href="#DejaVuSans-49"/>
       <use x="190.869141" xlink:href="#DejaVuSans-56"/>
       <use x="254.492188" xlink:href="#DejaVuSans-45"/>
       <use x="290.576172" xlink:href="#DejaVuSans-48"/>
       <use x="354.199219" xlink:href="#DejaVuSans-52"/>
      </g>
     </g>
    </g>
    <g id="xtick_3">
     <g id="line2d_3">
      <g>
       <use style="stroke:#000000;stroke-width:0.8;" x="205.29237" xlink:href="#m878b153c12" y="398.88"/>
      </g>
     </g>
     <g id="text_3">
      <!-- 2018-07 -->
      <defs>
       <path d="M 8.203125 72.90625 
L 55.078125 72.90625 
L 55.078125 68.703125 
L 28.609375 0 
L 18.3125 0 
L 43.21875 64.59375 
L 8.203125 64.59375 
z
" id="DejaVuSans-55"/>
      </defs>
      <g transform="translate(168.067549 433.351846)rotate(-30)scale(0.1 -0.1)">
       <use xlink:href="#DejaVuSans-50"/>
       <use x="63.623047" xlink:href="#DejaVuSans-48"/>
       <use x="127.246094" xlink:href="#DejaVuSans-49"/>
       <use x="190.869141" xlink:href="#DejaVuSans-56"/>
       <use x="254.492188" xlink:href="#DejaVuSans-45"/>
       <use x="290.576172" xlink:href="#DejaVuSans-48"/>
       <use x="354.199219" xlink:href="#DejaVuSans-55"/>
      </g>
     </g>
    </g>
    <g id="xtick_4">
     <g id="line2d_4">
      <g>
       <use style="stroke:#000000;stroke-width:0.8;" x="275.38362" xlink:href="#m878b153c12" y="398.88"/>
      </g>
     </g>
     <g id="text_4">
      <!-- 2018-10 -->
      <g transform="translate(238.1588 433.351846)rotate(-30)scale(0.1 -0.1)">
       <use xlink:href="#DejaVuSans-50"/>
       <use x="63.623047" xlink:href="#DejaVuSans-48"/>
       <use x="127.246094" xlink:href="#DejaVuSans-49"/>
       <use x="190.869141" xlink:href="#DejaVuSans-56"/>
       <use x="254.492188" xlink:href="#DejaVuSans-45"/>
       <use x="290.576172" xlink:href="#DejaVuSans-49"/>
       <use x="354.199219" xlink:href="#DejaVuSans-48"/>
      </g>
     </g>
    </g>
    <g id="xtick_5">
     <g id="line2d_5">
      <g>
       <use style="stroke:#000000;stroke-width:0.8;" x="345.474871" xlink:href="#m878b153c12" y="398.88"/>
      </g>
     </g>
     <g id="text_5">
      <!-- 2019-01 -->
      <defs>
       <path d="M 10.984375 1.515625 
L 10.984375 10.5 
Q 14.703125 8.734375 18.5 7.8125 
Q 22.3125 6.890625 25.984375 6.890625 
Q 35.75 6.890625 40.890625 13.453125 
Q 46.046875 20.015625 46.78125 33.40625 
Q 43.953125 29.203125 39.59375 26.953125 
Q 35.25 24.703125 29.984375 24.703125 
Q 19.046875 24.703125 12.671875 31.3125 
Q 6.296875 37.9375 6.296875 49.421875 
Q 6.296875 60.640625 12.9375 67.421875 
Q 19.578125 74.21875 30.609375 74.21875 
Q 43.265625 74.21875 49.921875 64.515625 
Q 56.59375 54.828125 56.59375 36.375 
Q 56.59375 19.140625 48.40625 8.859375 
Q 40.234375 -1.421875 26.421875 -1.421875 
Q 22.703125 -1.421875 18.890625 -0.6875 
Q 15.09375 0.046875 10.984375 1.515625 
z
M 30.609375 32.421875 
Q 37.25 32.421875 41.125 36.953125 
Q 45.015625 41.5 45.015625 49.421875 
Q 45.015625 57.28125 41.125 61.84375 
Q 37.25 66.40625 30.609375 66.40625 
Q 23.96875 66.40625 20.09375 61.84375 
Q 16.21875 57.28125 16.21875 49.421875 
Q 16.21875 41.5 20.09375 36.953125 
Q 23.96875 32.421875 30.609375 32.421875 
z
" id="DejaVuSans-57"/>
      </defs>
      <g transform="translate(308.25005 433.351846)rotate(-30)scale(0.1 -0.1)">
       <use xlink:href="#DejaVuSans-50"/>
       <use x="63.623047" xlink:href="#DejaVuSans-48"/>
       <use x="127.246094" xlink:href="#DejaVuSans-49"/>
       <use x="190.869141" xlink:href="#DejaVuSans-57"/>
       <use x="254.492188" xlink:href="#DejaVuSans-45"/>
       <use x="290.576172" xlink:href="#DejaVuSans-48"/>
       <use x="354.199219" xlink:href="#DejaVuSans-49"/>
      </g>
     </g>
    </g>
    <g id="xtick_6">
     <g id="line2d_6">
      <g>
       <use style="stroke:#000000;stroke-width:0.8;" x="414.042398" xlink:href="#m878b153c12" y="398.88"/>
      </g>
     </g>
     <g id="text_6">
      <!-- 2019-04 -->
      <g transform="translate(376.817578 433.351846)rotate(-30)scale(0.1 -0.1)">
       <use xlink:href="#DejaVuSans-50"/>
       <use x="63.623047" xlink:href="#DejaVuSans-48"/>
       <use x="127.246094" xlink:href="#DejaVuSans-49"/>
       <use x="190.869141" xlink:href="#DejaVuSans-57"/>
       <use x="254.492188" xlink:href="#DejaVuSans-45"/>
       <use x="290.576172" xlink:href="#DejaVuSans-48"/>
       <use x="354.199219" xlink:href="#DejaVuSans-52"/>
      </g>
     </g>
    </g>
    <g id="xtick_7">
     <g id="line2d_7">
      <g>
       <use style="stroke:#000000;stroke-width:0.8;" x="483.371787" xlink:href="#m878b153c12" y="398.88"/>
      </g>
     </g>
     <g id="text_7">
      <!-- 2019-07 -->
      <g transform="translate(446.146967 433.351846)rotate(-30)scale(0.1 -0.1)">
       <use xlink:href="#DejaVuSans-50"/>
       <use x="63.623047" xlink:href="#DejaVuSans-48"/>
       <use x="127.246094" xlink:href="#DejaVuSans-49"/>
       <use x="190.869141" xlink:href="#DejaVuSans-57"/>
       <use x="254.492188" xlink:href="#DejaVuSans-45"/>
       <use x="290.576172" xlink:href="#DejaVuSans-48"/>
       <use x="354.199219" xlink:href="#DejaVuSans-55"/>
      </g>
     </g>
    </g>
    <g id="xtick_8">
     <g id="line2d_8">
      <g>
       <use style="stroke:#000000;stroke-width:0.8;" x="553.463038" xlink:href="#m878b153c12" y="398.88"/>
      </g>
     </g>
     <g id="text_8">
      <!-- 2019-10 -->
      <g transform="translate(516.238217 433.351846)rotate(-30)scale(0.1 -0.1)">
       <use xlink:href="#DejaVuSans-50"/>
       <use x="63.623047" xlink:href="#DejaVuSans-48"/>
       <use x="127.246094" xlink:href="#DejaVuSans-49"/>
       <use x="190.869141" xlink:href="#DejaVuSans-57"/>
       <use x="254.492188" xlink:href="#DejaVuSans-45"/>
       <use x="290.576172" xlink:href="#DejaVuSans-49"/>
       <use x="354.199219" xlink:href="#DejaVuSans-48"/>
      </g>
     </g>
    </g>
    <g id="xtick_9">
     <g id="line2d_9">
      <g>
       <use style="stroke:#000000;stroke-width:0.8;" x="623.554288" xlink:href="#m878b153c12" y="398.88"/>
      </g>
     </g>
     <g id="text_9">
      <!-- 2020-01 -->
      <g transform="translate(586.329467 433.351846)rotate(-30)scale(0.1 -0.1)">
       <use xlink:href="#DejaVuSans-50"/>
       <use x="63.623047" xlink:href="#DejaVuSans-48"/>
       <use x="127.246094" xlink:href="#DejaVuSans-50"/>
       <use x="190.869141" xlink:href="#DejaVuSans-48"/>
       <use x="254.492188" xlink:href="#DejaVuSans-45"/>
       <use x="290.576172" xlink:href="#DejaVuSans-48"/>
       <use x="354.199219" xlink:href="#DejaVuSans-49"/>
      </g>
     </g>
    </g>
    <g id="xtick_10">
     <g id="line2d_10">
      <g>
       <use style="stroke:#000000;stroke-width:0.8;" x="692.883677" xlink:href="#m878b153c12" y="398.88"/>
      </g>
     </g>
     <g id="text_10">
      <!-- 2020-04 -->
      <g transform="translate(655.658856 433.351846)rotate(-30)scale(0.1 -0.1)">
       <use xlink:href="#DejaVuSans-50"/>
       <use x="63.623047" xlink:href="#DejaVuSans-48"/>
       <use x="127.246094" xlink:href="#DejaVuSans-50"/>
       <use x="190.869141" xlink:href="#DejaVuSans-48"/>
       <use x="254.492188" xlink:href="#DejaVuSans-45"/>
       <use x="290.576172" xlink:href="#DejaVuSans-48"/>
       <use x="354.199219" xlink:href="#DejaVuSans-52"/>
      </g>
     </g>
    </g>
    <g id="text_11">
     <!-- Date -->
     <defs>
      <path d="M 19.671875 64.796875 
L 19.671875 8.109375 
L 31.59375 8.109375 
Q 46.6875 8.109375 53.6875 14.9375 
Q 60.6875 21.78125 60.6875 36.53125 
Q 60.6875 51.171875 53.6875 57.984375 
Q 46.6875 64.796875 31.59375 64.796875 
z
M 9.8125 72.90625 
L 30.078125 72.90625 
Q 51.265625 72.90625 61.171875 64.09375 
Q 71.09375 55.28125 71.09375 36.53125 
Q 71.09375 17.671875 61.125 8.828125 
Q 51.171875 0 30.078125 0 
L 9.8125 0 
z
" id="DejaVuSans-68"/>
      <path d="M 34.28125 27.484375 
Q 23.390625 27.484375 19.1875 25 
Q 14.984375 22.515625 14.984375 16.5 
Q 14.984375 11.71875 18.140625 8.90625 
Q 21.296875 6.109375 26.703125 6.109375 
Q 34.1875 6.109375 38.703125 11.40625 
Q 43.21875 16.703125 43.21875 25.484375 
L 43.21875 27.484375 
z
M 52.203125 31.203125 
L 52.203125 0 
L 43.21875 0 
L 43.21875 8.296875 
Q 40.140625 3.328125 35.546875 0.953125 
Q 30.953125 -1.421875 24.3125 -1.421875 
Q 15.921875 -1.421875 10.953125 3.296875 
Q 6 8.015625 6 15.921875 
Q 6 25.140625 12.171875 29.828125 
Q 18.359375 34.515625 30.609375 34.515625 
L 43.21875 34.515625 
L 43.21875 35.40625 
Q 43.21875 41.609375 39.140625 45 
Q 35.0625 48.390625 27.6875 48.390625 
Q 23 48.390625 18.546875 47.265625 
Q 14.109375 46.140625 10.015625 43.890625 
L 10.015625 52.203125 
Q 14.9375 54.109375 19.578125 55.046875 
Q 24.21875 56 28.609375 56 
Q 40.484375 56 46.34375 49.84375 
Q 52.203125 43.703125 52.203125 31.203125 
z
" id="DejaVuSans-97"/>
      <path d="M 18.3125 70.21875 
L 18.3125 54.6875 
L 36.8125 54.6875 
L 36.8125 47.703125 
L 18.3125 47.703125 
L 18.3125 18.015625 
Q 18.3125 11.328125 20.140625 9.421875 
Q 21.96875 7.515625 27.59375 7.515625 
L 36.8125 7.515625 
L 36.8125 0 
L 27.59375 0 
Q 17.1875 0 13.234375 3.875 
Q 9.28125 7.765625 9.28125 18.015625 
L 9.28125 47.703125 
L 2.6875 47.703125 
L 2.6875 54.6875 
L 9.28125 54.6875 
L 9.28125 70.21875 
z
" id="DejaVuSans-116"/>
      <path d="M 56.203125 29.59375 
L 56.203125 25.203125 
L 14.890625 25.203125 
Q 15.484375 15.921875 20.484375 11.0625 
Q 25.484375 6.203125 34.421875 6.203125 
Q 39.59375 6.203125 44.453125 7.46875 
Q 49.3125 8.734375 54.109375 11.28125 
L 54.109375 2.78125 
Q 49.265625 0.734375 44.1875 -0.34375 
Q 39.109375 -1.421875 33.890625 -1.421875 
Q 20.796875 -1.421875 13.15625 6.1875 
Q 5.515625 13.8125 5.515625 26.8125 
Q 5.515625 40.234375 12.765625 48.109375 
Q 20.015625 56 32.328125 56 
Q 43.359375 56 49.78125 48.890625 
Q 56.203125 41.796875 56.203125 29.59375 
z
M 47.21875 32.234375 
Q 47.125 39.59375 43.09375 43.984375 
Q 39.0625 48.390625 32.421875 48.390625 
Q 24.90625 48.390625 20.390625 44.140625 
Q 15.875 39.890625 15.1875 32.171875 
z
" id="DejaVuSans-101"/>
     </defs>
     <g transform="translate(361.332031 446.751346)scale(0.1 -0.1)">
      <use xlink:href="#DejaVuSans-68"/>
      <use x="77.001953" xlink:href="#DejaVuSans-97"/>
      <use x="138.28125" xlink:href="#DejaVuSans-116"/>
      <use x="177.490234" xlink:href="#DejaVuSans-101"/>
     </g>
    </g>
   </g>
   <g id="matplotlib.axis_2">
    <g id="ytick_1">
     <g id="line2d_11">
      <defs>
       <path d="M 0 0 
L -3.5 0 
" id="maf0bd3f1c3" style="stroke:#000000;stroke-width:0.8;"/>
      </defs>
      <g>
       <use style="stroke:#000000;stroke-width:0.8;" x="38.482813" xlink:href="#maf0bd3f1c3" y="343.33154"/>
      </g>
     </g>
     <g id="text_12">
      <!-- −0.2 -->
      <defs>
       <path d="M 10.59375 35.5 
L 73.1875 35.5 
L 73.1875 27.203125 
L 10.59375 27.203125 
z
" id="DejaVuSans-8722"/>
       <path d="M 10.6875 12.40625 
L 21 12.40625 
L 21 0 
L 10.6875 0 
z
" id="DejaVuSans-46"/>
      </defs>
      <g transform="translate(7.2 347.130759)scale(0.1 -0.1)">
       <use xlink:href="#DejaVuSans-8722"/>
       <use x="83.789062" xlink:href="#DejaVuSans-48"/>
       <use x="147.412109" xlink:href="#DejaVuSans-46"/>
       <use x="179.199219" xlink:href="#DejaVuSans-50"/>
      </g>
     </g>
    </g>
    <g id="ytick_2">
     <g id="line2d_12">
      <g>
       <use style="stroke:#000000;stroke-width:0.8;" x="38.482813" xlink:href="#maf0bd3f1c3" y="260.543521"/>
      </g>
     </g>
     <g id="text_13">
      <!-- −0.1 -->
      <g transform="translate(7.2 264.34274)scale(0.1 -0.1)">
       <use xlink:href="#DejaVuSans-8722"/>
       <use x="83.789062" xlink:href="#DejaVuSans-48"/>
       <use x="147.412109" xlink:href="#DejaVuSans-46"/>
       <use x="179.199219" xlink:href="#DejaVuSans-49"/>
      </g>
     </g>
    </g>
    <g id="ytick_3">
     <g id="line2d_13">
      <g>
       <use style="stroke:#000000;stroke-width:0.8;" x="38.482813" xlink:href="#maf0bd3f1c3" y="177.755502"/>
      </g>
     </g>
     <g id="text_14">
      <!-- 0.0 -->
      <g transform="translate(15.579688 181.554721)scale(0.1 -0.1)">
       <use xlink:href="#DejaVuSans-48"/>
       <use x="63.623047" xlink:href="#DejaVuSans-46"/>
       <use x="95.410156" xlink:href="#DejaVuSans-48"/>
      </g>
     </g>
    </g>
    <g id="ytick_4">
     <g id="line2d_14">
      <g>
       <use style="stroke:#000000;stroke-width:0.8;" x="38.482813" xlink:href="#maf0bd3f1c3" y="94.967483"/>
      </g>
     </g>
     <g id="text_15">
      <!-- 0.1 -->
      <g transform="translate(15.579688 98.766702)scale(0.1 -0.1)">
       <use xlink:href="#DejaVuSans-48"/>
       <use x="63.623047" xlink:href="#DejaVuSans-46"/>
       <use x="95.410156" xlink:href="#DejaVuSans-49"/>
      </g>
     </g>
    </g>
    <g id="ytick_5">
     <g id="line2d_15">
      <g>
       <use style="stroke:#000000;stroke-width:0.8;" x="38.482813" xlink:href="#maf0bd3f1c3" y="12.179464"/>
      </g>
     </g>
     <g id="text_16">
      <!-- 0.2 -->
      <g transform="translate(15.579688 15.978682)scale(0.1 -0.1)">
       <use xlink:href="#DejaVuSans-48"/>
       <use x="63.623047" xlink:href="#DejaVuSans-46"/>
       <use x="95.410156" xlink:href="#DejaVuSans-50"/>
      </g>
     </g>
    </g>
   </g>
   <g id="line2d_16">
    <path clip-path="url(#pcd7bd89da6)" d="M 68.919176 182.71639 
L 70.442899 164.832397 
L 72.728483 159.35382 
L 73.490345 180.819483 
L 74.252206 189.288662 
L 75.014067 161.576014 
L 75.775929 172.975635 
L 78.061513 179.276236 
L 78.823375 200.037996 
L 79.585236 161.119613 
L 80.347097 183.319479 
L 81.108959 177.369159 
L 83.394543 182.196024 
L 84.156404 211.142641 
L 84.918266 160.562778 
L 85.680127 177.755502 
L 86.441989 184.690756 
L 88.727573 168.56347 
L 89.489434 186.056016 
L 91.013157 170.964737 
L 91.775019 197.36782 
L 94.060603 186.886586 
L 94.822464 134.25848 
L 95.584326 192.570331 
L 96.346187 180.137393 
L 97.108049 169.594062 
L 101.679217 99.895411 
L 102.441079 176.314124 
L 104.726663 170.201547 
L 105.488524 194.509226 
L 106.250386 190.671144 
L 107.012247 161.678341 
L 107.774108 170.323251 
L 110.059693 154.040115 
L 110.821554 178.978153 
L 111.583416 217.636565 
L 112.345277 188.781618 
L 113.107138 190.792994 
L 115.392723 178.701596 
L 116.154584 181.733861 
L 116.916445 180.672026 
L 117.678307 204.610886 
L 118.440168 164.9759 
L 120.725753 170.676245 
L 121.487614 184.189774 
L 122.249475 168.519835 
L 123.011337 181.642149 
L 123.773198 179.708031 
L 126.058782 201.241557 
L 126.820644 167.683899 
L 127.582505 159.844642 
L 128.344367 188.858857 
L 129.106228 184.271105 
L 131.391812 169.795111 
L 132.153674 200.226576 
L 132.915535 163.977694 
L 133.677397 164.402594 
L 136.724842 162.260995 
L 137.486704 180.258403 
L 138.248565 183.935142 
L 139.010427 164.135824 
L 139.772288 187.517758 
L 142.057872 173.687825 
L 142.819734 141.324937 
L 143.581595 181.448064 
L 144.343456 174.602718 
L 145.105318 174.614753 
L 147.390902 185.853942 
L 148.152764 151.919101 
L 148.914625 149.816997 
L 149.676486 171.65268 
L 150.438348 181.2173 
L 152.723932 180.015102 
L 153.485793 163.637974 
L 154.247655 183.924757 
L 155.009516 164.806369 
L 155.771378 183.70544 
L 158.056962 172.276195 
L 159.580685 177.075092 
L 160.342546 171.297017 
L 161.104408 167.468109 
L 163.389992 185.417956 
L 164.151853 178.59622 
L 164.913715 159.915411 
L 165.675576 158.808904 
L 166.437438 157.94446 
L 168.723022 151.957959 
L 169.484883 171.958631 
L 170.246745 158.819539 
L 171.008606 185.456735 
L 171.770468 186.874404 
L 174.056052 204.510161 
L 174.817913 188.064907 
L 175.579775 184.08251 
L 176.341636 169.467048 
L 177.103497 193.221118 
L 179.389082 184.348878 
L 180.150943 192.507277 
L 180.912805 169.998218 
L 182.436527 142.926756 
L 184.722112 181.521361 
L 185.483973 158.682167 
L 186.245834 141.70031 
L 187.007696 202.856262 
L 187.769557 230.744721 
L 190.055142 178.40623 
L 190.817003 163.916796 
L 191.578864 180.157453 
L 192.340726 175.185914 
L 193.102587 219.061413 
L 195.388171 176.407559 
L 196.150033 193.064787 
L 196.911894 169.013868 
L 197.673756 204.893638 
L 198.435617 163.726526 
L 200.721201 192.412827 
L 201.483063 157.040898 
L 202.244924 181.009531 
L 203.006786 161.9372 
L 203.768647 168.98241 
L 206.054231 191.611899 
L 206.816093 191.33845 
L 207.577954 176.547209 
L 208.339816 148.970113 
L 209.101677 167.094691 
L 212.149123 191.076571 
L 212.910984 188.954368 
L 213.672845 150.814697 
L 214.434707 180.052815 
L 216.720291 182.856802 
L 217.482153 166.165088 
L 218.244014 165.508805 
L 219.005875 210.259243 
L 219.767737 189.646972 
L 222.053321 162.802047 
L 222.815183 149.213544 
L 223.577044 170.656279 
L 224.338905 161.277887 
L 225.100767 167.246158 
L 227.386351 164.125275 
L 228.148212 169.98415 
L 228.910074 204.626899 
L 230.433797 158.567731 
L 232.719381 180.11859 
L 233.481242 172.225826 
L 234.243104 183.248488 
L 235.004965 186.603132 
L 235.766827 179.83159 
L 238.052411 168.62976 
L 238.814272 170.154518 
L 239.576134 214.630326 
L 240.337995 189.087321 
L 241.099857 159.772594 
L 243.385441 167.325532 
L 244.147302 173.088235 
L 244.909164 152.629415 
L 245.671025 176.97887 
L 246.432886 165.341153 
L 248.718471 154.516819 
L 249.480332 178.052837 
L 250.242194 184.152414 
L 251.004055 187.500617 
L 251.765916 192.167923 
L 254.051501 171.116409 
L 254.813362 209.155226 
L 255.575223 175.367358 
L 256.337085 156.641802 
L 260.146392 187.555693 
L 260.908253 164.217257 
L 261.670115 172.644199 
L 262.431976 155.89622 
L 264.71756 180.155136 
L 265.479422 143.16028 
L 266.241283 159.852236 
L 267.003145 167.297471 
L 267.765006 154.169629 
L 270.05059 188.746792 
L 270.812452 150.251174 
L 271.574313 206.904412 
L 272.336175 185.067183 
L 273.098036 173.023177 
L 275.38362 169.72856 
L 276.145482 166.790179 
L 276.907343 194.664861 
L 277.669205 193.636412 
L 278.431066 196.199781 
L 280.71665 184.091695 
L 281.478512 168.323039 
L 282.240373 203.725383 
L 283.002235 169.01605 
L 286.04968 160.312593 
L 286.811542 177.324799 
L 287.573403 161.972672 
L 288.335264 210.138569 
L 289.097126 177.315937 
L 291.38271 150.808792 
L 292.144572 200.732438 
L 292.906433 211.600144 
L 293.668294 175.017694 
L 294.430156 162.747248 
L 296.71574 214.980307 
L 297.477601 165.750476 
L 298.239463 134.110038 
L 299.001324 166.222686 
L 302.04877 177.323582 
L 302.810631 182.072619 
L 303.572493 172.547782 
L 304.334354 185.949496 
L 305.096216 212.165791 
L 307.3818 174.725831 
L 308.143661 156.322645 
L 308.905523 194.086506 
L 310.429246 162.896896 
L 312.71483 189.255941 
L 314.238553 190.314962 
L 315.000414 185.194691 
L 315.762275 234.285498 
L 318.04786 181.537298 
L 318.809721 181.059069 
L 319.571583 138.285264 
L 320.333444 182.504331 
L 321.095305 165.018857 
L 323.38089 157.215282 
L 324.142751 196.574458 
L 324.904612 179.007959 
L 325.666474 185.595308 
L 326.428335 193.7432 
L 328.71392 195.349375 
L 329.475781 171.158898 
L 330.237642 181.518549 
L 330.999504 173.975272 
L 331.761365 173.174318 
L 334.046949 171.735114 
L 334.808811 174.686327 
L 335.570672 200.770053 
L 337.094395 160.303689 
L 340.903702 184.592149 
L 341.665564 193.183858 
L 342.427425 152.668253 
L 346.236732 176.294532 
L 346.998594 211.622601 
L 347.760455 123.858779 
L 350.046039 182.197117 
L 351.569762 157.536365 
L 352.331624 186.853062 
L 353.093485 188.980971 
L 355.379069 174.2784 
L 356.140931 181.690279 
L 356.902792 173.011146 
L 357.664653 152.911273 
L 358.426515 169.66452 
L 360.712099 169.893908 
L 361.473961 180.750704 
L 362.235822 169.188107 
L 362.997683 170.317254 
L 366.045129 381.076364 
L 366.80699 170.328834 
L 367.568852 102.986811 
L 368.330713 197.297693 
L 369.092575 164.109106 
L 371.378159 205.858689 
L 372.14002 180.720135 
L 372.901882 216.062658 
L 373.663743 194.718665 
L 374.425605 146.50346 
L 376.711189 199.622607 
L 377.47305 132.834785 
L 378.234912 155.516705 
L 378.996773 174.661721 
L 379.758635 173.766516 
L 382.044219 189.123552 
L 382.80608 173.364498 
L 383.567942 172.113821 
L 384.329803 185.347393 
L 385.091664 148.383811 
L 387.377249 175.465203 
L 388.13911 176.349875 
L 388.900972 184.245208 
L 389.662833 172.982384 
L 390.424694 184.0832 
L 394.995863 140.205109 
L 395.757724 177.924957 
L 398.043309 160.299705 
L 398.80517 176.261728 
L 399.567031 165.661142 
L 400.328893 177.592261 
L 401.090754 180.367606 
L 403.376338 179.229477 
L 404.1382 154.129898 
L 404.900061 199.130434 
L 405.661923 172.352038 
L 406.423784 191.420672 
L 408.709368 186.026002 
L 409.47123 165.558692 
L 410.233091 188.952015 
L 410.994953 182.762836 
L 411.756814 150.383362 
L 414.042398 150.609259 
L 414.80426 193.022454 
L 415.566121 175.350306 
L 416.327983 171.679857 
L 417.089844 180.612459 
L 419.375428 155.298608 
L 420.13729 193.882029 
L 420.899151 187.085994 
L 421.661013 177.275621 
L 422.422874 182.710963 
L 424.708458 180.167706 
L 425.47032 149.207924 
L 426.232181 191.007796 
L 426.994042 172.52681 
L 430.041488 197.909329 
L 430.80335 167.749914 
L 431.565211 202.630172 
L 432.327072 178.248659 
L 433.088934 176.275148 
L 435.374518 180.546778 
L 436.136379 180.226815 
L 437.660102 196.924032 
L 438.421964 153.0577 
L 440.707548 189.910952 
L 441.469409 177.088603 
L 442.231271 189.415859 
L 442.993132 185.527412 
L 443.754994 162.064311 
L 446.040578 211.734393 
L 446.802439 174.962759 
L 447.564301 171.492888 
L 448.326162 204.516989 
L 449.088024 154.203781 
L 451.373608 194.583769 
L 452.135469 166.067767 
L 452.897331 176.882384 
L 453.659192 171.475734 
L 454.421053 169.272394 
L 456.706638 145.538313 
L 457.468499 176.765782 
L 458.230361 186.816856 
L 458.992222 172.591718 
L 459.754083 194.475355 
L 462.039668 180.627668 
L 462.801529 173.008325 
L 463.56339 189.893063 
L 464.325252 170.740988 
L 465.087113 180.130583 
L 467.372698 183.199802 
L 468.134559 124.835554 
L 468.89642 176.789645 
L 469.658282 171.967362 
L 470.420143 184.940474 
L 472.705728 197.083483 
L 473.467589 148.07059 
L 474.22945 172.979276 
L 475.753173 175.539365 
L 478.038757 178.386923 
L 478.800619 193.870757 
L 479.56248 174.532886 
L 480.324342 175.829531 
L 481.086203 175.833938 
L 483.371787 148.519212 
L 484.133649 212.62992 
L 484.89551 179.366433 
L 485.657372 171.621876 
L 486.419233 198.744927 
L 488.704817 168.056312 
L 490.22854 158.581819 
L 490.990402 179.02604 
L 491.752263 181.572788 
L 494.037847 163.693889 
L 494.799709 172.099062 
L 495.56157 183.373557 
L 497.085293 175.709022 
L 499.370877 181.995418 
L 500.8946 195.509413 
L 501.656461 180.3707 
L 502.418323 182.018763 
L 504.703907 177.261068 
L 505.465768 181.873474 
L 506.22763 181.066335 
L 506.989491 201.190743 
L 507.751353 187.334341 
L 510.036937 209.597006 
L 510.798798 166.597168 
L 511.56066 180.241644 
L 512.322521 165.287418 
L 513.084383 207.410315 
L 515.369967 183.76127 
L 516.131828 153.190422 
L 516.89369 206.597732 
L 517.655551 196.017622 
L 518.417413 181.52807 
L 520.702997 178.513381 
L 521.464858 174.151946 
L 522.22672 171.901338 
L 522.988581 182.630973 
L 523.750442 189.261701 
L 526.036027 186.937172 
L 526.797888 167.697146 
L 527.55975 174.697796 
L 528.321611 146.909895 
L 529.083472 169.127938 
L 531.369057 169.761916 
L 532.130918 186.572259 
L 532.89278 159.568326 
L 533.654641 177.755502 
L 534.416502 179.00128 
L 536.702087 152.090313 
L 537.463948 171.705006 
L 538.225809 182.732372 
L 538.987671 147.713615 
L 539.749532 176.089327 
L 542.035117 197.708469 
L 542.796978 172.473689 
L 543.558839 186.220502 
L 544.320701 179.123955 
L 545.082562 176.042221 
L 547.368146 183.226787 
L 548.130008 197.893125 
L 548.891869 161.349579 
L 549.653731 177.755502 
L 550.415592 181.215134 
L 552.701176 176.192148 
L 553.463038 178.449009 
L 554.224899 223.04512 
L 554.986761 171.514289 
L 555.748622 156.803393 
L 558.034206 187.528694 
L 558.796068 190.702409 
L 560.319791 149.295409 
L 561.081652 153.220509 
L 563.367236 188.818866 
L 564.129098 179.135579 
L 564.890959 196.936233 
L 565.65282 179.347584 
L 566.414682 189.807684 
L 568.700266 156.532475 
L 569.462128 176.177246 
L 570.223989 181.080982 
L 570.98585 184.081926 
L 571.747712 145.702766 
L 574.033296 175.368683 
L 574.795157 178.605492 
L 575.557019 178.776551 
L 576.31888 201.438431 
L 577.080742 156.006138 
L 579.366326 154.170092 
L 580.128187 176.924686 
L 580.890049 180.743649 
L 581.65191 170.757879 
L 582.413772 193.120298 
L 584.699356 195.430808 
L 585.461217 181.711733 
L 586.223079 191.236706 
L 586.98494 179.863771 
L 590.032386 167.010671 
L 590.794247 168.017856 
L 592.31797 173.458859 
L 593.079832 150.22788 
L 595.365416 164.020858 
L 596.127277 171.895537 
L 596.889139 188.099947 
L 597.651 181.19278 
L 598.412861 184.165532 
L 600.698446 155.228129 
L 601.460307 192.590983 
L 602.222169 169.545629 
L 602.98403 177.267705 
L 603.745891 171.256002 
L 606.031476 176.30449 
L 606.793337 181.618055 
L 607.555198 167.568663 
L 608.31706 159.865764 
L 609.078921 165.091129 
L 611.364506 184.223236 
L 612.126367 176.513907 
L 612.888228 176.980554 
L 613.65009 169.549519 
L 614.411951 165.643909 
L 616.697535 180.928605 
L 618.98312 174.57019 
L 619.744981 174.275615 
L 622.030565 182.389148 
L 624.31615 161.757026 
L 625.078011 183.850722 
L 627.363595 182.667822 
L 628.125457 171.73288 
L 628.887318 177.602217 
L 629.64918 188.638564 
L 630.411041 176.823533 
L 632.696625 147.656431 
L 633.458487 172.665459 
L 634.220348 180.433767 
L 634.982209 182.084496 
L 635.744071 150.294521 
L 638.029655 172.526776 
L 638.791517 196.951495 
L 639.553378 173.766067 
L 641.077101 203.114006 
L 643.362685 228.382391 
L 644.124546 166.446071 
L 644.886408 185.031805 
L 645.648269 165.520819 
L 646.410131 197.528167 
L 649.457576 155.639659 
L 650.219438 166.351738 
L 650.981299 173.224782 
L 651.743161 196.090692 
L 654.028745 208.105811 
L 654.790606 147.074934 
L 655.552468 161.531906 
L 656.314329 192.2633 
L 657.076191 195.85644 
L 659.361775 138.634107 
L 660.123636 187.210799 
L 660.885498 177.598673 
L 661.647359 187.318225 
L 662.409221 210.585228 
L 666.980389 271.228505 
L 667.74225 180.734155 
L 670.027835 139.453681 
L 670.789696 177.934117 
L 671.551558 138.102965 
L 672.313419 207.073084 
L 673.07528 217.338211 
L 675.360865 303.579905 
L 676.122726 25.003636 
L 676.884587 259.231766 
L 677.646449 281.240585 
L 677.646449 281.240585 
" style="fill:none;stroke:#1f77b4;stroke-linecap:square;stroke-width:1.5;"/>
   </g>
   <g id="line2d_17">
    <path clip-path="url(#pcd7bd89da6)" d="M 68.919176 179.032278 
L 69.681038 133.00512 
L 70.442899 188.066126 
L 72.728483 148.890174 
L 73.490345 173.007827 
L 74.252206 188.966942 
L 75.014067 110.161342 
L 75.775929 177.755502 
L 78.061513 186.05083 
L 78.823375 197.865928 
L 79.585236 146.838853 
L 80.347097 203.143871 
L 83.394543 188.279506 
L 84.156404 193.744645 
L 84.918266 151.789782 
L 85.680127 177.755502 
L 86.441989 130.91653 
L 88.727573 195.487726 
L 89.489434 172.093005 
L 90.251296 195.752746 
L 91.013157 165.10733 
L 94.060603 224.916758 
L 94.822464 127.745354 
L 95.584326 206.73406 
L 96.346187 195.420182 
L 97.108049 161.510718 
L 101.679217 120.517873 
L 102.441079 126.426881 
L 104.726663 136.179563 
L 105.488524 206.456746 
L 106.250386 170.066324 
L 107.012247 187.405443 
L 107.774108 151.546936 
L 110.059693 157.332609 
L 110.821554 196.228567 
L 111.583416 179.246928 
L 112.345277 151.355143 
L 113.107138 189.823969 
L 115.392723 169.427492 
L 116.154584 214.129712 
L 116.916445 156.957086 
L 117.678307 212.394862 
L 118.440168 172.591078 
L 120.725753 162.32908 
L 121.487614 183.308215 
L 122.249475 189.952816 
L 123.011337 204.061941 
L 123.773198 182.550168 
L 126.058782 200.260952 
L 126.820644 138.64737 
L 127.582505 165.132135 
L 128.344367 209.876084 
L 129.106228 192.308117 
L 131.391812 165.685603 
L 132.153674 188.570453 
L 132.915535 186.521961 
L 133.677397 147.298319 
L 136.724842 170.277867 
L 137.486704 172.991492 
L 138.248565 197.755088 
L 139.010427 122.204031 
L 139.772288 190.390952 
L 142.057872 194.179704 
L 142.819734 160.47519 
L 143.581595 183.910787 
L 144.343456 155.533996 
L 145.105318 179.768665 
L 147.390902 180.277952 
L 148.152764 155.48984 
L 148.914625 151.144906 
L 149.676486 185.872216 
L 150.438348 188.363092 
L 152.723932 188.500771 
L 153.485793 176.27106 
L 154.247655 177.261311 
L 155.009516 165.414099 
L 155.771378 194.293565 
L 158.056962 179.244493 
L 159.580685 198.141681 
L 160.342546 165.011126 
L 161.104408 160.183613 
L 163.389992 201.353101 
L 164.151853 179.273668 
L 164.913715 125.537591 
L 166.437438 182.393603 
L 168.723022 179.621269 
L 169.484883 174.483128 
L 170.246745 155.871215 
L 171.008606 190.910631 
L 171.770468 186.974705 
L 174.056052 205.258486 
L 174.817913 186.959539 
L 175.579775 196.370288 
L 176.341636 176.753259 
L 177.103497 212.292267 
L 179.389082 229.465418 
L 180.150943 165.498882 
L 180.912805 193.127211 
L 182.436527 140.836578 
L 184.722112 155.800058 
L 185.483973 163.148937 
L 186.245834 190.058417 
L 187.007696 233.433095 
L 187.769557 206.764817 
L 190.055142 184.692988 
L 190.817003 159.099144 
L 191.578864 180.606235 
L 192.340726 189.198175 
L 193.102587 191.099126 
L 195.388171 174.217552 
L 196.150033 181.278396 
L 196.911894 136.479444 
L 197.673756 219.879609 
L 198.435617 161.777888 
L 200.721201 200.397445 
L 201.483063 202.22777 
L 202.244924 171.604791 
L 203.006786 155.16581 
L 203.768647 178.94421 
L 206.054231 177.160353 
L 206.816093 155.750025 
L 207.577954 160.954555 
L 208.339816 144.822015 
L 209.101677 158.096023 
L 212.149123 192.158109 
L 212.910984 197.29885 
L 213.672845 132.719766 
L 214.434707 187.774417 
L 216.720291 166.012538 
L 217.482153 155.124338 
L 218.244014 172.120111 
L 219.005875 193.020756 
L 219.767737 163.240399 
L 222.053321 175.208161 
L 222.815183 153.376105 
L 223.577044 184.169435 
L 224.338905 197.147242 
L 225.100767 148.224687 
L 227.386351 163.990241 
L 228.148212 199.032955 
L 228.910074 191.652707 
L 229.671935 165.640182 
L 230.433797 155.366865 
L 232.719381 189.381768 
L 233.481242 186.108019 
L 234.243104 151.946153 
L 235.004965 197.489966 
L 235.766827 213.257168 
L 238.052411 185.998276 
L 238.814272 157.461768 
L 239.576134 217.371757 
L 240.337995 177.755502 
L 241.099857 170.821009 
L 243.385441 148.131708 
L 244.147302 191.034289 
L 244.909164 156.286013 
L 245.671025 199.19262 
L 246.432886 173.039713 
L 248.718471 166.293342 
L 249.480332 172.616648 
L 250.242194 173.158989 
L 251.004055 197.055777 
L 251.765916 171.515177 
L 254.051501 187.562012 
L 254.813362 190.291321 
L 255.575223 179.346461 
L 256.337085 162.877128 
L 260.146392 198.465801 
L 260.908253 172.853563 
L 261.670115 178.297027 
L 262.431976 178.838994 
L 264.71756 157.682466 
L 265.479422 122.669303 
L 266.241283 172.292681 
L 267.003145 176.768914 
L 267.765006 167.899621 
L 270.05059 199.182999 
L 270.812452 132.762153 
L 271.574313 194.350896 
L 272.336175 174.852347 
L 273.098036 176.791039 
L 275.38362 202.317615 
L 276.145482 171.303159 
L 276.907343 193.515258 
L 277.669205 191.812914 
L 278.431066 198.695056 
L 280.71665 187.711075 
L 281.478512 155.480568 
L 282.240373 202.545459 
L 283.002235 167.639977 
L 286.04968 188.800904 
L 286.811542 142.038859 
L 287.573403 182.865807 
L 288.335264 209.122463 
L 289.097126 198.065075 
L 291.38271 140.49804 
L 292.144572 183.522826 
L 292.906433 215.242584 
L 293.668294 155.634304 
L 294.430156 155.132911 
L 296.71574 185.620128 
L 298.239463 153.652612 
L 299.001324 169.609035 
L 302.04877 151.53771 
L 303.572493 201.631979 
L 304.334354 198.82879 
L 305.096216 175.696125 
L 307.3818 212.678491 
L 308.143661 185.798355 
L 308.905523 185.335892 
L 310.429246 118.738201 
L 312.71483 181.83634 
L 314.238553 218.765023 
L 315.000414 169.052396 
L 315.762275 202.516531 
L 318.04786 184.413983 
L 318.809721 183.349434 
L 319.571583 156.917676 
L 320.333444 176.10741 
L 321.095305 156.921435 
L 323.38089 141.923447 
L 324.142751 195.18461 
L 324.904612 167.806228 
L 325.666474 187.069229 
L 326.428335 185.60509 
L 328.71392 195.718494 
L 329.475781 169.654909 
L 330.237642 182.033941 
L 330.999504 180.981053 
L 331.761365 189.088876 
L 334.046949 179.397058 
L 334.808811 171.17634 
L 335.570672 181.563061 
L 336.332534 210.542851 
L 337.094395 168.651635 
L 340.903702 173.253162 
L 341.665564 198.466471 
L 342.427425 154.790733 
L 346.236732 156.527809 
L 346.998594 183.202067 
L 347.760455 155.824908 
L 350.046039 175.618991 
L 350.807901 176.690022 
L 351.569762 154.345022 
L 352.331624 198.969948 
L 353.093485 197.40374 
L 355.379069 178.843384 
L 356.140931 194.095251 
L 356.902792 176.088552 
L 357.664653 171.101481 
L 358.426515 153.551709 
L 360.712099 177.221016 
L 361.473961 179.35782 
L 362.235822 168.122792 
L 362.997683 159.769605 
L 366.045129 195.876682 
L 366.80699 177.755502 
L 367.568852 150.759407 
L 368.330713 203.386496 
L 369.092575 169.820493 
L 371.378159 167.800034 
L 372.14002 181.379708 
L 372.901882 208.437032 
L 373.663743 183.15588 
L 374.425605 171.232445 
L 376.711189 172.362213 
L 377.47305 175.076259 
L 378.234912 170.811984 
L 378.996773 172.458778 
L 379.758635 190.913155 
L 382.044219 174.011842 
L 382.80608 178.287873 
L 383.567942 163.904212 
L 384.329803 214.433787 
L 385.091664 173.369341 
L 387.377249 172.847162 
L 388.13911 166.370121 
L 389.662833 193.315177 
L 390.424694 183.770494 
L 394.995863 188.845602 
L 395.757724 178.879548 
L 398.043309 167.062329 
L 398.80517 190.534924 
L 399.567031 160.261037 
L 400.328893 189.913926 
L 401.090754 158.124298 
L 403.376338 155.291425 
L 404.1382 160.152346 
L 404.900061 189.768964 
L 405.661923 175.635451 
L 406.423784 215.819 
L 408.709368 181.634418 
L 409.47123 157.156001 
L 410.233091 209.805936 
L 410.994953 164.758 
L 411.756814 163.289885 
L 414.042398 126.354792 
L 414.80426 177.755502 
L 415.566121 181.874258 
L 416.327983 167.407003 
L 417.089844 199.730105 
L 419.375428 173.55568 
L 420.13729 190.813633 
L 420.899151 181.47031 
L 421.661013 195.880446 
L 422.422874 187.565772 
L 424.708458 190.441165 
L 425.47032 160.951471 
L 426.232181 183.245396 
L 426.994042 180.518773 
L 430.041488 176.646514 
L 430.80335 189.938324 
L 431.565211 185.061964 
L 432.327072 178.889666 
L 433.088934 189.679686 
L 435.374518 176.603296 
L 436.136379 191.563091 
L 437.660102 186.531573 
L 438.421964 164.154603 
L 440.707548 186.48229 
L 441.469409 169.523713 
L 442.231271 161.454069 
L 442.993132 192.600273 
L 443.754994 182.987932 
L 446.040578 197.64794 
L 446.802439 169.362831 
L 448.326162 188.460933 
L 449.088024 177.755502 
L 451.373608 171.093619 
L 452.135469 147.115607 
L 452.897331 177.755502 
L 453.659192 197.45309 
L 454.421053 183.690101 
L 456.706638 179.548777 
L 457.468499 158.586042 
L 458.230361 183.024877 
L 458.992222 183.647918 
L 459.754083 182.503193 
L 462.039668 173.577305 
L 462.801529 182.506598 
L 463.56339 186.715234 
L 464.325252 181.378675 
L 465.087113 162.592839 
L 467.372698 162.865607 
L 468.134559 153.182328 
L 468.89642 184.005766 
L 469.658282 166.877451 
L 470.420143 194.708606 
L 472.705728 185.832435 
L 473.467589 146.877534 
L 474.22945 165.399038 
L 475.753173 163.367199 
L 478.038757 182.650966 
L 478.800619 198.548287 
L 479.56248 158.67216 
L 480.324342 183.241814 
L 481.086203 166.15745 
L 483.371787 187.014664 
L 484.133649 199.23744 
L 484.89551 163.618238 
L 485.657372 154.959551 
L 486.419233 173.967816 
L 488.704817 178.832755 
L 490.22854 179.912866 
L 490.990402 197.763089 
L 494.037847 165.94466 
L 494.799709 185.518663 
L 495.56157 187.83109 
L 496.323431 184.555353 
L 497.085293 186.325735 
L 499.370877 196.807039 
L 500.132739 174.800882 
L 500.8946 190.120763 
L 501.656461 185.526282 
L 502.418323 175.341775 
L 504.703907 169.332363 
L 505.465768 166.43914 
L 506.22763 197.732685 
L 506.989491 192.807947 
L 507.751353 173.462791 
L 510.036937 206.42927 
L 510.798798 178.387524 
L 511.56066 185.344886 
L 512.322521 150.946745 
L 513.084383 183.938359 
L 515.369967 200.181137 
L 516.131828 155.985965 
L 516.89369 212.692469 
L 517.655551 205.764021 
L 518.417413 150.78871 
L 520.702997 200.733921 
L 521.464858 174.379149 
L 522.22672 161.61491 
L 522.988581 173.797488 
L 523.750442 198.764425 
L 526.036027 196.616775 
L 526.797888 194.299339 
L 527.55975 167.90822 
L 528.321611 134.658481 
L 529.083472 155.291041 
L 531.369057 191.264015 
L 532.130918 182.986958 
L 533.654641 171.832734 
L 534.416502 193.437484 
L 536.702087 132.465191 
L 537.463948 151.864508 
L 538.225809 195.513311 
L 538.987671 153.976605 
L 539.749532 180.796891 
L 542.035117 181.418766 
L 542.796978 172.8495 
L 543.558839 186.9 
L 544.320701 179.604864 
L 545.082562 187.022778 
L 547.368146 180.254756 
L 548.130008 194.049934 
L 548.891869 167.526833 
L 549.653731 176.4925 
L 550.415592 184.060832 
L 552.701176 169.495707 
L 553.463038 182.159153 
L 554.224899 208.745661 
L 554.986761 165.928643 
L 555.748622 161.560691 
L 558.034206 193.639592 
L 558.796068 192.65476 
L 559.557929 179.734477 
L 560.319791 147.338231 
L 561.081652 157.983332 
L 563.367236 180.247174 
L 564.129098 162.759978 
L 564.890959 186.347238 
L 565.65282 174.65488 
L 566.414682 192.583167 
L 568.700266 173.351911 
L 570.223989 175.885251 
L 570.98585 197.03751 
L 571.747712 162.471602 
L 574.033296 179.631284 
L 574.795157 184.022586 
L 575.557019 160.70534 
L 576.31888 174.661773 
L 577.080742 148.166359 
L 579.366326 136.68882 
L 580.128187 169.249866 
L 580.890049 178.878075 
L 581.65191 144.03328 
L 582.413772 182.075804 
L 584.699356 176.126903 
L 585.461217 175.039406 
L 586.223079 176.131174 
L 586.98494 171.270757 
L 590.032386 187.406943 
L 590.794247 175.585421 
L 592.31797 115.529248 
L 593.079832 165.677021 
L 595.365416 172.299178 
L 596.127277 155.08727 
L 596.889139 170.081102 
L 597.651 189.636609 
L 598.412861 185.952425 
L 600.698446 155.840982 
L 601.460307 196.732736 
L 602.222169 167.558679 
L 602.98403 175.836925 
L 603.745891 163.39917 
L 606.031476 197.511754 
L 606.793337 154.143077 
L 607.555198 181.035152 
L 608.31706 163.173547 
L 609.078921 150.945329 
L 611.364506 194.769771 
L 612.126367 181.869733 
L 612.888228 186.484608 
L 613.65009 157.325386 
L 614.411951 137.879579 
L 616.697535 164.353809 
L 618.98312 159.462104 
L 619.744981 178.171764 
L 622.030565 172.758243 
L 624.31615 146.296039 
L 625.078011 191.31423 
L 627.363595 179.782559 
L 628.125457 164.750089 
L 628.887318 174.554397 
L 629.64918 182.140077 
L 630.411041 166.535404 
L 632.696625 142.173265 
L 633.458487 193.676292 
L 634.220348 190.12347 
L 634.982209 169.908281 
L 635.744071 167.26124 
L 638.029655 150.888757 
L 638.791517 195.227624 
L 639.553378 167.501934 
L 640.315239 174.379412 
L 641.077101 196.061524 
L 643.362685 243.466311 
L 644.124546 167.381044 
L 644.886408 180.214666 
L 645.648269 153.091692 
L 646.410131 205.298309 
L 649.457576 142.30361 
L 650.219438 178.914474 
L 650.981299 183.945302 
L 651.743161 216.343112 
L 654.028745 190.838063 
L 654.790606 129.569752 
L 655.552468 170.297137 
L 656.314329 181.645924 
L 657.076191 204.335217 
L 659.361775 169.678606 
L 660.123636 184.954489 
L 660.885498 181.386532 
L 661.647359 214.225989 
L 662.409221 195.983249 
L 666.980389 264.878005 
L 667.74225 185.506242 
L 670.027835 157.670937 
L 670.789696 170.581515 
L 671.551558 136.503698 
L 672.313419 218.404267 
L 673.07528 238.552243 
L 675.360865 326.415087 
L 676.122726 109.650631 
L 676.884587 273.013715 
L 677.646449 314.104516 
L 677.646449 314.104516 
" style="fill:none;stroke:#ff7f0e;stroke-linecap:square;stroke-width:1.5;"/>
   </g>
   <g id="patch_3">
    <path d="M 38.482813 398.88 
L 38.482813 7.2 
" style="fill:none;stroke:#000000;stroke-linecap:square;stroke-linejoin:miter;stroke-width:0.8;"/>
   </g>
   <g id="patch_4">
    <path d="M 708.082813 398.88 
L 708.082813 7.2 
" style="fill:none;stroke:#000000;stroke-linecap:square;stroke-linejoin:miter;stroke-width:0.8;"/>
   </g>
   <g id="patch_5">
    <path d="M 38.482812 398.88 
L 708.082812 398.88 
" style="fill:none;stroke:#000000;stroke-linecap:square;stroke-linejoin:miter;stroke-width:0.8;"/>
   </g>
   <g id="patch_6">
    <path d="M 38.482812 7.2 
L 708.082812 7.2 
" style="fill:none;stroke:#000000;stroke-linecap:square;stroke-linejoin:miter;stroke-width:0.8;"/>
   </g>
   <g id="legend_1">
    <g id="patch_7">
     <path d="M 45.482813 44.55625 
L 129.520312 44.55625 
Q 131.520312 44.55625 131.520312 42.55625 
L 131.520312 14.2 
Q 131.520312 12.2 129.520312 12.2 
L 45.482813 12.2 
Q 43.482813 12.2 43.482813 14.2 
L 43.482813 42.55625 
Q 43.482813 44.55625 45.482813 44.55625 
z
" style="fill:#ffffff;opacity:0.8;stroke:#cccccc;stroke-linejoin:miter;"/>
    </g>
    <g id="line2d_18">
     <path d="M 47.482813 20.298437 
L 67.482813 20.298437 
" style="fill:none;stroke:#1f77b4;stroke-linecap:square;stroke-width:1.5;"/>
    </g>
    <g id="line2d_19"/>
    <g id="text_17">
     <!-- VALE3.SA -->
     <defs>
      <path d="M 28.609375 0 
L 0.78125 72.90625 
L 11.078125 72.90625 
L 34.1875 11.53125 
L 57.328125 72.90625 
L 67.578125 72.90625 
L 39.796875 0 
z
" id="DejaVuSans-86"/>
      <path d="M 34.1875 63.1875 
L 20.796875 26.90625 
L 47.609375 26.90625 
z
M 28.609375 72.90625 
L 39.796875 72.90625 
L 67.578125 0 
L 57.328125 0 
L 50.6875 18.703125 
L 17.828125 18.703125 
L 11.1875 0 
L 0.78125 0 
z
" id="DejaVuSans-65"/>
      <path d="M 9.8125 72.90625 
L 19.671875 72.90625 
L 19.671875 8.296875 
L 55.171875 8.296875 
L 55.171875 0 
L 9.8125 0 
z
" id="DejaVuSans-76"/>
      <path d="M 9.8125 72.90625 
L 55.90625 72.90625 
L 55.90625 64.59375 
L 19.671875 64.59375 
L 19.671875 43.015625 
L 54.390625 43.015625 
L 54.390625 34.71875 
L 19.671875 34.71875 
L 19.671875 8.296875 
L 56.78125 8.296875 
L 56.78125 0 
L 9.8125 0 
z
" id="DejaVuSans-69"/>
      <path d="M 40.578125 39.3125 
Q 47.65625 37.796875 51.625 33 
Q 55.609375 28.21875 55.609375 21.1875 
Q 55.609375 10.40625 48.1875 4.484375 
Q 40.765625 -1.421875 27.09375 -1.421875 
Q 22.515625 -1.421875 17.65625 -0.515625 
Q 12.796875 0.390625 7.625 2.203125 
L 7.625 11.71875 
Q 11.71875 9.328125 16.59375 8.109375 
Q 21.484375 6.890625 26.8125 6.890625 
Q 36.078125 6.890625 40.9375 10.546875 
Q 45.796875 14.203125 45.796875 21.1875 
Q 45.796875 27.640625 41.28125 31.265625 
Q 36.765625 34.90625 28.71875 34.90625 
L 20.21875 34.90625 
L 20.21875 43.015625 
L 29.109375 43.015625 
Q 36.375 43.015625 40.234375 45.921875 
Q 44.09375 48.828125 44.09375 54.296875 
Q 44.09375 59.90625 40.109375 62.90625 
Q 36.140625 65.921875 28.71875 65.921875 
Q 24.65625 65.921875 20.015625 65.03125 
Q 15.375 64.15625 9.8125 62.3125 
L 9.8125 71.09375 
Q 15.4375 72.65625 20.34375 73.4375 
Q 25.25 74.21875 29.59375 74.21875 
Q 40.828125 74.21875 47.359375 69.109375 
Q 53.90625 64.015625 53.90625 55.328125 
Q 53.90625 49.265625 50.4375 45.09375 
Q 46.96875 40.921875 40.578125 39.3125 
z
" id="DejaVuSans-51"/>
      <path d="M 53.515625 70.515625 
L 53.515625 60.890625 
Q 47.90625 63.578125 42.921875 64.890625 
Q 37.9375 66.21875 33.296875 66.21875 
Q 25.25 66.21875 20.875 63.09375 
Q 16.5 59.96875 16.5 54.203125 
Q 16.5 49.359375 19.40625 46.890625 
Q 22.3125 44.4375 30.421875 42.921875 
L 36.375 41.703125 
Q 47.40625 39.59375 52.65625 34.296875 
Q 57.90625 29 57.90625 20.125 
Q 57.90625 9.515625 50.796875 4.046875 
Q 43.703125 -1.421875 29.984375 -1.421875 
Q 24.8125 -1.421875 18.96875 -0.25 
Q 13.140625 0.921875 6.890625 3.21875 
L 6.890625 13.375 
Q 12.890625 10.015625 18.65625 8.296875 
Q 24.421875 6.59375 29.984375 6.59375 
Q 38.421875 6.59375 43.015625 9.90625 
Q 47.609375 13.234375 47.609375 19.390625 
Q 47.609375 24.75 44.3125 27.78125 
Q 41.015625 30.8125 33.5 32.328125 
L 27.484375 33.5 
Q 16.453125 35.6875 11.515625 40.375 
Q 6.59375 45.0625 6.59375 53.421875 
Q 6.59375 63.09375 13.40625 68.65625 
Q 20.21875 74.21875 32.171875 74.21875 
Q 37.3125 74.21875 42.625 73.28125 
Q 47.953125 72.359375 53.515625 70.515625 
z
" id="DejaVuSans-83"/>
     </defs>
     <g transform="translate(75.482813 23.798437)scale(0.1 -0.1)">
      <use xlink:href="#DejaVuSans-86"/>
      <use x="68.314453" xlink:href="#DejaVuSans-65"/>
      <use x="136.722656" xlink:href="#DejaVuSans-76"/>
      <use x="192.435547" xlink:href="#DejaVuSans-69"/>
      <use x="255.619141" xlink:href="#DejaVuSans-51"/>
      <use x="319.242188" xlink:href="#DejaVuSans-46"/>
      <use x="351.029297" xlink:href="#DejaVuSans-83"/>
      <use x="414.521484" xlink:href="#DejaVuSans-65"/>
     </g>
    </g>
    <g id="line2d_20">
     <path d="M 47.482813 34.976562 
L 67.482813 34.976562 
" style="fill:none;stroke:#ff7f0e;stroke-linecap:square;stroke-width:1.5;"/>
    </g>
    <g id="line2d_21"/>
    <g id="text_18">
     <!-- GGBR4.SA -->
     <defs>
      <path d="M 59.515625 10.40625 
L 59.515625 29.984375 
L 43.40625 29.984375 
L 43.40625 38.09375 
L 69.28125 38.09375 
L 69.28125 6.78125 
Q 63.578125 2.734375 56.6875 0.65625 
Q 49.8125 -1.421875 42 -1.421875 
Q 24.90625 -1.421875 15.25 8.5625 
Q 5.609375 18.5625 5.609375 36.375 
Q 5.609375 54.25 15.25 64.234375 
Q 24.90625 74.21875 42 74.21875 
Q 49.125 74.21875 55.546875 72.453125 
Q 61.96875 70.703125 67.390625 67.28125 
L 67.390625 56.78125 
Q 61.921875 61.421875 55.765625 63.765625 
Q 49.609375 66.109375 42.828125 66.109375 
Q 29.4375 66.109375 22.71875 58.640625 
Q 16.015625 51.171875 16.015625 36.375 
Q 16.015625 21.625 22.71875 14.15625 
Q 29.4375 6.6875 42.828125 6.6875 
Q 48.046875 6.6875 52.140625 7.59375 
Q 56.25 8.5 59.515625 10.40625 
z
" id="DejaVuSans-71"/>
      <path d="M 19.671875 34.8125 
L 19.671875 8.109375 
L 35.5 8.109375 
Q 43.453125 8.109375 47.28125 11.40625 
Q 51.125 14.703125 51.125 21.484375 
Q 51.125 28.328125 47.28125 31.5625 
Q 43.453125 34.8125 35.5 34.8125 
z
M 19.671875 64.796875 
L 19.671875 42.828125 
L 34.28125 42.828125 
Q 41.5 42.828125 45.03125 45.53125 
Q 48.578125 48.25 48.578125 53.8125 
Q 48.578125 59.328125 45.03125 62.0625 
Q 41.5 64.796875 34.28125 64.796875 
z
M 9.8125 72.90625 
L 35.015625 72.90625 
Q 46.296875 72.90625 52.390625 68.21875 
Q 58.5 63.53125 58.5 54.890625 
Q 58.5 48.1875 55.375 44.234375 
Q 52.25 40.28125 46.1875 39.3125 
Q 53.46875 37.75 57.5 32.78125 
Q 61.53125 27.828125 61.53125 20.40625 
Q 61.53125 10.640625 54.890625 5.3125 
Q 48.25 0 35.984375 0 
L 9.8125 0 
z
" id="DejaVuSans-66"/>
      <path d="M 44.390625 34.1875 
Q 47.5625 33.109375 50.5625 29.59375 
Q 53.5625 26.078125 56.59375 19.921875 
L 66.609375 0 
L 56 0 
L 46.6875 18.703125 
Q 43.0625 26.03125 39.671875 28.421875 
Q 36.28125 30.8125 30.421875 30.8125 
L 19.671875 30.8125 
L 19.671875 0 
L 9.8125 0 
L 9.8125 72.90625 
L 32.078125 72.90625 
Q 44.578125 72.90625 50.734375 67.671875 
Q 56.890625 62.453125 56.890625 51.90625 
Q 56.890625 45.015625 53.6875 40.46875 
Q 50.484375 35.9375 44.390625 34.1875 
z
M 19.671875 64.796875 
L 19.671875 38.921875 
L 32.078125 38.921875 
Q 39.203125 38.921875 42.84375 42.21875 
Q 46.484375 45.515625 46.484375 51.90625 
Q 46.484375 58.296875 42.84375 61.546875 
Q 39.203125 64.796875 32.078125 64.796875 
z
" id="DejaVuSans-82"/>
     </defs>
     <g transform="translate(75.482813 38.476562)scale(0.1 -0.1)">
      <use xlink:href="#DejaVuSans-71"/>
      <use x="77.490234" xlink:href="#DejaVuSans-71"/>
      <use x="154.980469" xlink:href="#DejaVuSans-66"/>
      <use x="223.583984" xlink:href="#DejaVuSans-82"/>
      <use x="293.066406" xlink:href="#DejaVuSans-52"/>
      <use x="356.689453" xlink:href="#DejaVuSans-46"/>
      <use x="388.476562" xlink:href="#DejaVuSans-83"/>
      <use x="451.96875" xlink:href="#DejaVuSans-65"/>
     </g>
    </g>
   </g>
  </g>
 </g>
 <defs>
  <clipPath id="pcd7bd89da6">
   <rect height="391.68" width="669.6" x="38.482813" y="7.2"/>
  </clipPath>
 </defs>
</svg>
