<?xml version="1.0" encoding="utf-8" standalone="no"?>
<!DOCTYPE svg PUBLIC "-//W3C//DTD SVG 1.1//EN"
  "http://www.w3.org/Graphics/SVG/1.1/DTD/svg11.dtd">
<!-- Created with matplotlib (https://matplotlib.org/) -->
<svg height="456.031033pt" version="1.1" viewBox="0 0 710.0875 456.031033" width="710.0875pt" xmlns="http://www.w3.org/2000/svg" xmlns:xlink="http://www.w3.org/1999/xlink">
 <defs>
  <style type="text/css">
*{stroke-linecap:butt;stroke-linejoin:round;}
  </style>
 </defs>
 <g id="figure_1">
  <g id="patch_1">
   <path d="M 0 456.031033 
L 710.0875 456.031033 
L 710.0875 0 
L 0 0 
z
" style="fill:none;"/>
  </g>
  <g id="axes_1">
   <g id="patch_2">
    <path d="M 33.2875 398.88 
L 702.8875 398.88 
L 702.8875 7.2 
L 33.2875 7.2 
z
" style="fill:#ffffff;"/>
   </g>
   <g id="matplotlib.axis_1">
    <g id="xtick_1">
     <g id="line2d_1">
      <defs>
       <path d="M 0 0 
L 0 3.5 
" id="m532f6aab80" style="stroke:#000000;stroke-width:0.8;"/>
      </defs>
      <g>
       <use style="stroke:#000000;stroke-width:0.8;" x="62.962955" xlink:href="#m532f6aab80" y="398.88"/>
      </g>
     </g>
     <g id="text_1">
      <!-- 2018-01 -->
      <defs>
       <path d="M 19.1875 8.296875 
L 53.609375 8.296875 
L 53.609375 0 
L 7.328125 0 
L 7.328125 8.296875 
Q 12.9375 14.109375 22.625 23.890625 
Q 32.328125 33.6875 34.8125 36.53125 
Q 39.546875 41.84375 41.421875 45.53125 
Q 43.3125 49.21875 43.3125 52.78125 
Q 43.3125 58.59375 39.234375 62.25 
Q 35.15625 65.921875 28.609375 65.921875 
Q 23.96875 65.921875 18.8125 64.3125 
Q 13.671875 62.703125 7.8125 59.421875 
L 7.8125 69.390625 
Q 13.765625 71.78125 18.9375 73 
Q 24.125 74.21875 28.421875 74.21875 
Q 39.75 74.21875 46.484375 68.546875 
Q 53.21875 62.890625 53.21875 53.421875 
Q 53.21875 48.921875 51.53125 44.890625 
Q 49.859375 40.875 45.40625 35.40625 
Q 44.1875 33.984375 37.640625 27.21875 
Q 31.109375 20.453125 19.1875 8.296875 
z
" id="DejaVuSans-50"/>
       <path d="M 31.78125 66.40625 
Q 24.171875 66.40625 20.328125 58.90625 
Q 16.5 51.421875 16.5 36.375 
Q 16.5 21.390625 20.328125 13.890625 
Q 24.171875 6.390625 31.78125 6.390625 
Q 39.453125 6.390625 43.28125 13.890625 
Q 47.125 21.390625 47.125 36.375 
Q 47.125 51.421875 43.28125 58.90625 
Q 39.453125 66.40625 31.78125 66.40625 
z
M 31.78125 74.21875 
Q 44.046875 74.21875 50.515625 64.515625 
Q 56.984375 54.828125 56.984375 36.375 
Q 56.984375 17.96875 50.515625 8.265625 
Q 44.046875 -1.421875 31.78125 -1.421875 
Q 19.53125 -1.421875 13.0625 8.265625 
Q 6.59375 17.96875 6.59375 36.375 
Q 6.59375 54.828125 13.0625 64.515625 
Q 19.53125 74.21875 31.78125 74.21875 
z
" id="DejaVuSans-48"/>
       <path d="M 12.40625 8.296875 
L 28.515625 8.296875 
L 28.515625 63.921875 
L 10.984375 60.40625 
L 10.984375 69.390625 
L 28.421875 72.90625 
L 38.28125 72.90625 
L 38.28125 8.296875 
L 54.390625 8.296875 
L 54.390625 0 
L 12.40625 0 
z
" id="DejaVuSans-49"/>
       <path d="M 31.78125 34.625 
Q 24.75 34.625 20.71875 30.859375 
Q 16.703125 27.09375 16.703125 20.515625 
Q 16.703125 13.921875 20.71875 10.15625 
Q 24.75 6.390625 31.78125 6.390625 
Q 38.8125 6.390625 42.859375 10.171875 
Q 46.921875 13.96875 46.921875 20.515625 
Q 46.921875 27.09375 42.890625 30.859375 
Q 38.875 34.625 31.78125 34.625 
z
M 21.921875 38.8125 
Q 15.578125 40.375 12.03125 44.71875 
Q 8.5 49.078125 8.5 55.328125 
Q 8.5 64.0625 14.71875 69.140625 
Q 20.953125 74.21875 31.78125 74.21875 
Q 42.671875 74.21875 48.875 69.140625 
Q 55.078125 64.0625 55.078125 55.328125 
Q 55.078125 49.078125 51.53125 44.71875 
Q 48 40.375 41.703125 38.8125 
Q 48.828125 37.15625 52.796875 32.3125 
Q 56.78125 27.484375 56.78125 20.515625 
Q 56.78125 9.90625 50.3125 4.234375 
Q 43.84375 -1.421875 31.78125 -1.421875 
Q 19.734375 -1.421875 13.25 4.234375 
Q 6.78125 9.90625 6.78125 20.515625 
Q 6.78125 27.484375 10.78125 32.3125 
Q 14.796875 37.15625 21.921875 38.8125 
z
M 18.3125 54.390625 
Q 18.3125 48.734375 21.84375 45.5625 
Q 25.390625 42.390625 31.78125 42.390625 
Q 38.140625 42.390625 41.71875 45.5625 
Q 45.3125 48.734375 45.3125 54.390625 
Q 45.3125 60.0625 41.71875 63.234375 
Q 38.140625 66.40625 31.78125 66.40625 
Q 25.390625 66.40625 21.84375 63.234375 
Q 18.3125 60.0625 18.3125 54.390625 
z
" id="DejaVuSans-56"/>
       <path d="M 4.890625 31.390625 
L 31.203125 31.390625 
L 31.203125 23.390625 
L 4.890625 23.390625 
z
" id="DejaVuSans-45"/>
      </defs>
      <g transform="translate(25.738134 433.351846)rotate(-30)scale(0.1 -0.1)">
       <use xlink:href="#DejaVuSans-50"/>
       <use x="63.623047" xlink:href="#DejaVuSans-48"/>
       <use x="127.246094" xlink:href="#DejaVuSans-49"/>
       <use x="190.869141" xlink:href="#DejaVuSans-56"/>
       <use x="254.492188" xlink:href="#DejaVuSans-45"/>
       <use x="290.576172" xlink:href="#DejaVuSans-48"/>
       <use x="354.199219" xlink:href="#DejaVuSans-49"/>
      </g>
     </g>
    </g>
    <g id="xtick_2">
     <g id="line2d_2">
      <g>
       <use style="stroke:#000000;stroke-width:0.8;" x="131.444773" xlink:href="#m532f6aab80" y="398.88"/>
      </g>
     </g>
     <g id="text_2">
      <!-- 2018-04 -->
      <defs>
       <path d="M 37.796875 64.3125 
L 12.890625 25.390625 
L 37.796875 25.390625 
z
M 35.203125 72.90625 
L 47.609375 72.90625 
L 47.609375 25.390625 
L 58.015625 25.390625 
L 58.015625 17.1875 
L 47.609375 17.1875 
L 47.609375 0 
L 37.796875 0 
L 37.796875 17.1875 
L 4.890625 17.1875 
L 4.890625 26.703125 
z
" id="DejaVuSans-52"/>
      </defs>
      <g transform="translate(94.219952 433.351846)rotate(-30)scale(0.1 -0.1)">
       <use xlink:href="#DejaVuSans-50"/>
       <use x="63.623047" xlink:href="#DejaVuSans-48"/>
       <use x="127.246094" xlink:href="#DejaVuSans-49"/>
       <use x="190.869141" xlink:href="#DejaVuSans-56"/>
       <use x="254.492188" xlink:href="#DejaVuSans-45"/>
       <use x="290.576172" xlink:href="#DejaVuSans-48"/>
       <use x="354.199219" xlink:href="#DejaVuSans-52"/>
      </g>
     </g>
    </g>
    <g id="xtick_3">
     <g id="line2d_3">
      <g>
       <use style="stroke:#000000;stroke-width:0.8;" x="200.6875" xlink:href="#m532f6aab80" y="398.88"/>
      </g>
     </g>
     <g id="text_3">
      <!-- 2018-07 -->
      <defs>
       <path d="M 8.203125 72.90625 
L 55.078125 72.90625 
L 55.078125 68.703125 
L 28.609375 0 
L 18.3125 0 
L 43.21875 64.59375 
L 8.203125 64.59375 
z
" id="DejaVuSans-55"/>
      </defs>
      <g transform="translate(163.462679 433.351846)rotate(-30)scale(0.1 -0.1)">
       <use xlink:href="#DejaVuSans-50"/>
       <use x="63.623047" xlink:href="#DejaVuSans-48"/>
       <use x="127.246094" xlink:href="#DejaVuSans-49"/>
       <use x="190.869141" xlink:href="#DejaVuSans-56"/>
       <use x="254.492188" xlink:href="#DejaVuSans-45"/>
       <use x="290.576172" xlink:href="#DejaVuSans-48"/>
       <use x="354.199219" xlink:href="#DejaVuSans-55"/>
      </g>
     </g>
    </g>
    <g id="xtick_4">
     <g id="line2d_4">
      <g>
       <use style="stroke:#000000;stroke-width:0.8;" x="270.691136" xlink:href="#m532f6aab80" y="398.88"/>
      </g>
     </g>
     <g id="text_4">
      <!-- 2018-10 -->
      <g transform="translate(233.466316 433.351846)rotate(-30)scale(0.1 -0.1)">
       <use xlink:href="#DejaVuSans-50"/>
       <use x="63.623047" xlink:href="#DejaVuSans-48"/>
       <use x="127.246094" xlink:href="#DejaVuSans-49"/>
       <use x="190.869141" xlink:href="#DejaVuSans-56"/>
       <use x="254.492188" xlink:href="#DejaVuSans-45"/>
       <use x="290.576172" xlink:href="#DejaVuSans-49"/>
       <use x="354.199219" xlink:href="#DejaVuSans-48"/>
      </g>
     </g>
    </g>
    <g id="xtick_5">
     <g id="line2d_5">
      <g>
       <use style="stroke:#000000;stroke-width:0.8;" x="340.694773" xlink:href="#m532f6aab80" y="398.88"/>
      </g>
     </g>
     <g id="text_5">
      <!-- 2019-01 -->
      <defs>
       <path d="M 10.984375 1.515625 
L 10.984375 10.5 
Q 14.703125 8.734375 18.5 7.8125 
Q 22.3125 6.890625 25.984375 6.890625 
Q 35.75 6.890625 40.890625 13.453125 
Q 46.046875 20.015625 46.78125 33.40625 
Q 43.953125 29.203125 39.59375 26.953125 
Q 35.25 24.703125 29.984375 24.703125 
Q 19.046875 24.703125 12.671875 31.3125 
Q 6.296875 37.9375 6.296875 49.421875 
Q 6.296875 60.640625 12.9375 67.421875 
Q 19.578125 74.21875 30.609375 74.21875 
Q 43.265625 74.21875 49.921875 64.515625 
Q 56.59375 54.828125 56.59375 36.375 
Q 56.59375 19.140625 48.40625 8.859375 
Q 40.234375 -1.421875 26.421875 -1.421875 
Q 22.703125 -1.421875 18.890625 -0.6875 
Q 15.09375 0.046875 10.984375 1.515625 
z
M 30.609375 32.421875 
Q 37.25 32.421875 41.125 36.953125 
Q 45.015625 41.5 45.015625 49.421875 
Q 45.015625 57.28125 41.125 61.84375 
Q 37.25 66.40625 30.609375 66.40625 
Q 23.96875 66.40625 20.09375 61.84375 
Q 16.21875 57.28125 16.21875 49.421875 
Q 16.21875 41.5 20.09375 36.953125 
Q 23.96875 32.421875 30.609375 32.421875 
z
" id="DejaVuSans-57"/>
      </defs>
      <g transform="translate(303.469952 433.351846)rotate(-30)scale(0.1 -0.1)">
       <use xlink:href="#DejaVuSans-50"/>
       <use x="63.623047" xlink:href="#DejaVuSans-48"/>
       <use x="127.246094" xlink:href="#DejaVuSans-49"/>
       <use x="190.869141" xlink:href="#DejaVuSans-57"/>
       <use x="254.492188" xlink:href="#DejaVuSans-45"/>
       <use x="290.576172" xlink:href="#DejaVuSans-48"/>
       <use x="354.199219" xlink:href="#DejaVuSans-49"/>
      </g>
     </g>
    </g>
    <g id="xtick_6">
     <g id="line2d_6">
      <g>
       <use style="stroke:#000000;stroke-width:0.8;" x="409.176591" xlink:href="#m532f6aab80" y="398.88"/>
      </g>
     </g>
     <g id="text_6">
      <!-- 2019-04 -->
      <g transform="translate(371.95177 433.351846)rotate(-30)scale(0.1 -0.1)">
       <use xlink:href="#DejaVuSans-50"/>
       <use x="63.623047" xlink:href="#DejaVuSans-48"/>
       <use x="127.246094" xlink:href="#DejaVuSans-49"/>
       <use x="190.869141" xlink:href="#DejaVuSans-57"/>
       <use x="254.492188" xlink:href="#DejaVuSans-45"/>
       <use x="290.576172" xlink:href="#DejaVuSans-48"/>
       <use x="354.199219" xlink:href="#DejaVuSans-52"/>
      </g>
     </g>
    </g>
    <g id="xtick_7">
     <g id="line2d_7">
      <g>
       <use style="stroke:#000000;stroke-width:0.8;" x="478.419318" xlink:href="#m532f6aab80" y="398.88"/>
      </g>
     </g>
     <g id="text_7">
      <!-- 2019-07 -->
      <g transform="translate(441.194497 433.351846)rotate(-30)scale(0.1 -0.1)">
       <use xlink:href="#DejaVuSans-50"/>
       <use x="63.623047" xlink:href="#DejaVuSans-48"/>
       <use x="127.246094" xlink:href="#DejaVuSans-49"/>
       <use x="190.869141" xlink:href="#DejaVuSans-57"/>
       <use x="254.492188" xlink:href="#DejaVuSans-45"/>
       <use x="290.576172" xlink:href="#DejaVuSans-48"/>
       <use x="354.199219" xlink:href="#DejaVuSans-55"/>
      </g>
     </g>
    </g>
    <g id="xtick_8">
     <g id="line2d_8">
      <g>
       <use style="stroke:#000000;stroke-width:0.8;" x="548.422955" xlink:href="#m532f6aab80" y="398.88"/>
      </g>
     </g>
     <g id="text_8">
      <!-- 2019-10 -->
      <g transform="translate(511.198134 433.351846)rotate(-30)scale(0.1 -0.1)">
       <use xlink:href="#DejaVuSans-50"/>
       <use x="63.623047" xlink:href="#DejaVuSans-48"/>
       <use x="127.246094" xlink:href="#DejaVuSans-49"/>
       <use x="190.869141" xlink:href="#DejaVuSans-57"/>
       <use x="254.492188" xlink:href="#DejaVuSans-45"/>
       <use x="290.576172" xlink:href="#DejaVuSans-49"/>
       <use x="354.199219" xlink:href="#DejaVuSans-48"/>
      </g>
     </g>
    </g>
    <g id="xtick_9">
     <g id="line2d_9">
      <g>
       <use style="stroke:#000000;stroke-width:0.8;" x="618.426591" xlink:href="#m532f6aab80" y="398.88"/>
      </g>
     </g>
     <g id="text_9">
      <!-- 2020-01 -->
      <g transform="translate(581.20177 433.351846)rotate(-30)scale(0.1 -0.1)">
       <use xlink:href="#DejaVuSans-50"/>
       <use x="63.623047" xlink:href="#DejaVuSans-48"/>
       <use x="127.246094" xlink:href="#DejaVuSans-50"/>
       <use x="190.869141" xlink:href="#DejaVuSans-48"/>
       <use x="254.492188" xlink:href="#DejaVuSans-45"/>
       <use x="290.576172" xlink:href="#DejaVuSans-48"/>
       <use x="354.199219" xlink:href="#DejaVuSans-49"/>
      </g>
     </g>
    </g>
    <g id="xtick_10">
     <g id="line2d_10">
      <g>
       <use style="stroke:#000000;stroke-width:0.8;" x="687.669318" xlink:href="#m532f6aab80" y="398.88"/>
      </g>
     </g>
     <g id="text_10">
      <!-- 2020-04 -->
      <g transform="translate(650.444497 433.351846)rotate(-30)scale(0.1 -0.1)">
       <use xlink:href="#DejaVuSans-50"/>
       <use x="63.623047" xlink:href="#DejaVuSans-48"/>
       <use x="127.246094" xlink:href="#DejaVuSans-50"/>
       <use x="190.869141" xlink:href="#DejaVuSans-48"/>
       <use x="254.492188" xlink:href="#DejaVuSans-45"/>
       <use x="290.576172" xlink:href="#DejaVuSans-48"/>
       <use x="354.199219" xlink:href="#DejaVuSans-52"/>
      </g>
     </g>
    </g>
    <g id="text_11">
     <!-- Date -->
     <defs>
      <path d="M 19.671875 64.796875 
L 19.671875 8.109375 
L 31.59375 8.109375 
Q 46.6875 8.109375 53.6875 14.9375 
Q 60.6875 21.78125 60.6875 36.53125 
Q 60.6875 51.171875 53.6875 57.984375 
Q 46.6875 64.796875 31.59375 64.796875 
z
M 9.8125 72.90625 
L 30.078125 72.90625 
Q 51.265625 72.90625 61.171875 64.09375 
Q 71.09375 55.28125 71.09375 36.53125 
Q 71.09375 17.671875 61.125 8.828125 
Q 51.171875 0 30.078125 0 
L 9.8125 0 
z
" id="DejaVuSans-68"/>
      <path d="M 34.28125 27.484375 
Q 23.390625 27.484375 19.1875 25 
Q 14.984375 22.515625 14.984375 16.5 
Q 14.984375 11.71875 18.140625 8.90625 
Q 21.296875 6.109375 26.703125 6.109375 
Q 34.1875 6.109375 38.703125 11.40625 
Q 43.21875 16.703125 43.21875 25.484375 
L 43.21875 27.484375 
z
M 52.203125 31.203125 
L 52.203125 0 
L 43.21875 0 
L 43.21875 8.296875 
Q 40.140625 3.328125 35.546875 0.953125 
Q 30.953125 -1.421875 24.3125 -1.421875 
Q 15.921875 -1.421875 10.953125 3.296875 
Q 6 8.015625 6 15.921875 
Q 6 25.140625 12.171875 29.828125 
Q 18.359375 34.515625 30.609375 34.515625 
L 43.21875 34.515625 
L 43.21875 35.40625 
Q 43.21875 41.609375 39.140625 45 
Q 35.0625 48.390625 27.6875 48.390625 
Q 23 48.390625 18.546875 47.265625 
Q 14.109375 46.140625 10.015625 43.890625 
L 10.015625 52.203125 
Q 14.9375 54.109375 19.578125 55.046875 
Q 24.21875 56 28.609375 56 
Q 40.484375 56 46.34375 49.84375 
Q 52.203125 43.703125 52.203125 31.203125 
z
" id="DejaVuSans-97"/>
      <path d="M 18.3125 70.21875 
L 18.3125 54.6875 
L 36.8125 54.6875 
L 36.8125 47.703125 
L 18.3125 47.703125 
L 18.3125 18.015625 
Q 18.3125 11.328125 20.140625 9.421875 
Q 21.96875 7.515625 27.59375 7.515625 
L 36.8125 7.515625 
L 36.8125 0 
L 27.59375 0 
Q 17.1875 0 13.234375 3.875 
Q 9.28125 7.765625 9.28125 18.015625 
L 9.28125 47.703125 
L 2.6875 47.703125 
L 2.6875 54.6875 
L 9.28125 54.6875 
L 9.28125 70.21875 
z
" id="DejaVuSans-116"/>
      <path d="M 56.203125 29.59375 
L 56.203125 25.203125 
L 14.890625 25.203125 
Q 15.484375 15.921875 20.484375 11.0625 
Q 25.484375 6.203125 34.421875 6.203125 
Q 39.59375 6.203125 44.453125 7.46875 
Q 49.3125 8.734375 54.109375 11.28125 
L 54.109375 2.78125 
Q 49.265625 0.734375 44.1875 -0.34375 
Q 39.109375 -1.421875 33.890625 -1.421875 
Q 20.796875 -1.421875 13.15625 6.1875 
Q 5.515625 13.8125 5.515625 26.8125 
Q 5.515625 40.234375 12.765625 48.109375 
Q 20.015625 56 32.328125 56 
Q 43.359375 56 49.78125 48.890625 
Q 56.203125 41.796875 56.203125 29.59375 
z
M 47.21875 32.234375 
Q 47.125 39.59375 43.09375 43.984375 
Q 39.0625 48.390625 32.421875 48.390625 
Q 24.90625 48.390625 20.390625 44.140625 
Q 15.875 39.890625 15.1875 32.171875 
z
" id="DejaVuSans-101"/>
     </defs>
     <g transform="translate(356.136719 446.751346)scale(0.1 -0.1)">
      <use xlink:href="#DejaVuSans-68"/>
      <use x="77.001953" xlink:href="#DejaVuSans-97"/>
      <use x="138.28125" xlink:href="#DejaVuSans-116"/>
      <use x="177.490234" xlink:href="#DejaVuSans-101"/>
     </g>
    </g>
   </g>
   <g id="matplotlib.axis_2">
    <g id="ytick_1">
     <g id="line2d_11">
      <defs>
       <path d="M 0 0 
L -3.5 0 
" id="m0a117445a3" style="stroke:#000000;stroke-width:0.8;"/>
      </defs>
      <g>
       <use style="stroke:#000000;stroke-width:0.8;" x="33.2875" xlink:href="#m0a117445a3" y="326.205727"/>
      </g>
     </g>
     <g id="text_12">
      <!-- 100 -->
      <g transform="translate(7.2 330.004946)scale(0.1 -0.1)">
       <use xlink:href="#DejaVuSans-49"/>
       <use x="63.623047" xlink:href="#DejaVuSans-48"/>
       <use x="127.246094" xlink:href="#DejaVuSans-48"/>
      </g>
     </g>
    </g>
    <g id="ytick_2">
     <g id="line2d_12">
      <g>
       <use style="stroke:#000000;stroke-width:0.8;" x="33.2875" xlink:href="#m0a117445a3" y="250.327099"/>
      </g>
     </g>
     <g id="text_13">
      <!-- 120 -->
      <g transform="translate(7.2 254.126317)scale(0.1 -0.1)">
       <use xlink:href="#DejaVuSans-49"/>
       <use x="63.623047" xlink:href="#DejaVuSans-50"/>
       <use x="127.246094" xlink:href="#DejaVuSans-48"/>
      </g>
     </g>
    </g>
    <g id="ytick_3">
     <g id="line2d_13">
      <g>
       <use style="stroke:#000000;stroke-width:0.8;" x="33.2875" xlink:href="#m0a117445a3" y="174.44847"/>
      </g>
     </g>
     <g id="text_14">
      <!-- 140 -->
      <g transform="translate(7.2 178.247689)scale(0.1 -0.1)">
       <use xlink:href="#DejaVuSans-49"/>
       <use x="63.623047" xlink:href="#DejaVuSans-52"/>
       <use x="127.246094" xlink:href="#DejaVuSans-48"/>
      </g>
     </g>
    </g>
    <g id="ytick_4">
     <g id="line2d_14">
      <g>
       <use style="stroke:#000000;stroke-width:0.8;" x="33.2875" xlink:href="#m0a117445a3" y="98.569841"/>
      </g>
     </g>
     <g id="text_15">
      <!-- 160 -->
      <defs>
       <path d="M 33.015625 40.375 
Q 26.375 40.375 22.484375 35.828125 
Q 18.609375 31.296875 18.609375 23.390625 
Q 18.609375 15.53125 22.484375 10.953125 
Q 26.375 6.390625 33.015625 6.390625 
Q 39.65625 6.390625 43.53125 10.953125 
Q 47.40625 15.53125 47.40625 23.390625 
Q 47.40625 31.296875 43.53125 35.828125 
Q 39.65625 40.375 33.015625 40.375 
z
M 52.59375 71.296875 
L 52.59375 62.3125 
Q 48.875 64.0625 45.09375 64.984375 
Q 41.3125 65.921875 37.59375 65.921875 
Q 27.828125 65.921875 22.671875 59.328125 
Q 17.53125 52.734375 16.796875 39.40625 
Q 19.671875 43.65625 24.015625 45.921875 
Q 28.375 48.1875 33.59375 48.1875 
Q 44.578125 48.1875 50.953125 41.515625 
Q 57.328125 34.859375 57.328125 23.390625 
Q 57.328125 12.15625 50.6875 5.359375 
Q 44.046875 -1.421875 33.015625 -1.421875 
Q 20.359375 -1.421875 13.671875 8.265625 
Q 6.984375 17.96875 6.984375 36.375 
Q 6.984375 53.65625 15.1875 63.9375 
Q 23.390625 74.21875 37.203125 74.21875 
Q 40.921875 74.21875 44.703125 73.484375 
Q 48.484375 72.75 52.59375 71.296875 
z
" id="DejaVuSans-54"/>
      </defs>
      <g transform="translate(7.2 102.36906)scale(0.1 -0.1)">
       <use xlink:href="#DejaVuSans-49"/>
       <use x="63.623047" xlink:href="#DejaVuSans-54"/>
       <use x="127.246094" xlink:href="#DejaVuSans-48"/>
      </g>
     </g>
    </g>
    <g id="ytick_5">
     <g id="line2d_15">
      <g>
       <use style="stroke:#000000;stroke-width:0.8;" x="33.2875" xlink:href="#m0a117445a3" y="22.691212"/>
      </g>
     </g>
     <g id="text_16">
      <!-- 180 -->
      <g transform="translate(7.2 26.490431)scale(0.1 -0.1)">
       <use xlink:href="#DejaVuSans-49"/>
       <use x="63.623047" xlink:href="#DejaVuSans-56"/>
       <use x="127.246094" xlink:href="#DejaVuSans-48"/>
      </g>
     </g>
    </g>
   </g>
   <g id="line2d_16">
    <path clip-path="url(#p69358065cc)" d="M 63.723864 326.205727 
L 64.484773 328.479157 
L 65.245682 326.933204 
L 66.006591 321.022281 
L 68.289318 312.474116 
L 69.050227 313.929069 
L 69.811136 319.385403 
L 70.572045 311.837528 
L 71.332955 309.564099 
L 73.615682 310.291576 
L 74.376591 320.931319 
L 75.1375 313.201593 
L 75.898409 315.838797 
L 76.659318 315.65691 
L 78.942045 317.748451 
L 79.702955 333.389864 
L 80.463864 325.660139 
L 81.224773 325.660139 
L 81.985682 328.842932 
L 84.268409 324.659775 
L 85.029318 328.479157 
L 85.790227 328.661044 
L 86.551136 325.569176 
L 87.312045 334.572004 
L 89.594773 338.664236 
L 90.355682 319.385403 
L 91.116591 326.296653 
L 91.8775 327.387942 
L 92.638409 323.659448 
L 97.203864 287.738987 
L 97.964773 287.011473 
L 100.2475 283.192092 
L 101.008409 291.740293 
L 101.769318 298.196842 
L 102.530227 290.285229 
L 103.291136 286.556773 
L 105.573864 274.552928 
L 106.334773 275.189516 
L 107.095682 295.923413 
L 107.856591 301.379673 
L 108.6175 307.745333 
L 110.900227 308.199997 
L 111.661136 310.109688 
L 112.422045 311.50295 
L 113.182955 324.286922 
L 113.943864 318.400786 
L 116.226591 315.089831 
L 116.9875 318.124861 
L 117.748409 313.802278 
L 118.509318 315.641644 
L 119.270227 316.561346 
L 121.552955 327.597915 
L 122.313864 322.999332 
L 123.074773 314.721943 
L 123.835682 319.964302 
L 124.596591 322.999332 
L 126.879318 319.320488 
L 127.640227 329.805206 
L 129.162045 317.389085 
L 132.205682 310.123397 
L 132.966591 311.319024 
L 133.7275 314.262092 
L 134.488409 307.824106 
L 135.249318 312.514614 
L 137.532045 310.583248 
L 138.292955 293.20073 
L 139.053864 295.040133 
L 140.575682 291.91314 
L 142.858409 295.959872 
L 144.380227 268.920375 
L 145.141136 265.701345 
L 145.902045 267.540786 
L 148.184773 268.736413 
L 148.945682 261.286762 
L 149.706591 264.597718 
L 150.4675 257.699881 
L 151.228409 260.918911 
L 153.511136 257.975807 
L 155.032955 257.607919 
L 155.793864 254.113037 
L 156.554773 248.50279 
L 158.8375 252.733448 
L 159.598409 253.193336 
L 161.120227 232.867676 
L 161.881136 221.555293 
L 164.163864 206.47203 
L 164.924773 202.977111 
L 165.685682 191.480729 
L 166.446591 196.263237 
L 170.251136 224.222435 
L 171.012045 227.901316 
L 171.772955 223.118771 
L 172.533864 232.131974 
L 174.816591 235.902743 
L 175.5775 244.272133 
L 176.338409 239.949475 
L 177.860227 220.359703 
L 180.142955 222.566958 
L 180.903864 211.4385 
L 181.664773 189.917214 
L 182.425682 205.552328 
L 183.186591 237.558258 
L 185.469318 237.926146 
L 186.230227 230.108608 
L 186.991136 231.48816 
L 187.752045 230.016608 
L 188.512955 253.745112 
L 190.795682 253.00941 
L 191.556591 261.378762 
L 192.3175 256.688217 
L 193.078409 271.403629 
L 193.839318 264.045905 
L 196.122045 271.863443 
L 196.882955 261.010837 
L 197.643864 262.758315 
L 198.404773 254.296963 
L 199.165682 249.514492 
L 201.448409 257.148068 
L 202.209318 264.505755 
L 202.970227 263.861979 
L 203.731136 248.50279 
L 204.492045 242.616655 
L 207.535682 250.066305 
L 208.296591 256.228366 
L 209.0575 241.60499 
L 209.818409 242.892543 
L 212.101136 245.743685 
L 213.622955 232.407862 
L 214.383864 250.986007 
L 215.144773 257.515956 
L 217.4275 249.422529 
L 218.188409 233.695415 
L 218.949318 229.648757 
L 219.710227 220.175741 
L 220.471136 214.013643 
L 222.753864 205.920179 
L 223.514773 201.229671 
L 224.275682 217.600524 
L 225.036591 219.62389 
L 225.7975 208.360453 
L 228.080227 209.779762 
L 228.841136 206.468028 
L 229.602045 209.779762 
L 230.362955 215.078625 
L 231.123864 216.30871 
L 233.406591 210.915254 
L 234.1675 206.373435 
L 234.928409 228.609563 
L 235.689318 235.138474 
L 236.450227 224.919307 
L 238.732955 218.863511 
L 239.493864 216.119486 
L 240.254773 201.263832 
L 241.015682 200.790717 
L 241.776591 193.220944 
L 244.059318 178.838443 
L 244.820227 179.02763 
L 245.581136 183.096371 
L 246.342045 189.246834 
L 247.102955 198.235916 
L 249.385682 194.167175 
L 250.146591 213.564685 
L 250.9075 212.145339 
L 251.668409 199.560632 
L 254.712045 202.020765 
L 255.472955 207.981968 
L 256.233864 199.844486 
L 256.994773 196.721976 
L 257.755682 183.285632 
L 260.038409 184.799571 
L 260.799318 163.036558 
L 261.560227 151.303414 
L 262.321136 144.301388 
L 263.082045 128.310316 
L 265.364773 135.974645 
L 266.125682 117.05025 
L 266.886591 137.772513 
L 267.6475 142.787448 
L 268.408409 139.570307 
L 270.691136 134.08222 
L 271.452045 126.512448 
L 273.734773 161.617212 
L 276.0175 165.780583 
L 276.778409 159.630157 
L 277.539318 176.75672 
L 278.300227 171.17404 
L 281.343864 159.914048 
L 282.104773 159.630157 
L 282.865682 149.221729 
L 283.626591 170.984779 
L 284.3875 170.700924 
L 286.670227 153.290506 
L 287.431136 168.619239 
L 288.192045 190.57155 
L 288.952955 188.868349 
L 289.713864 179.500782 
L 291.996591 203.156257 
L 292.7575 195.870376 
L 293.518409 168.997724 
L 294.279318 161.522581 
L 297.322955 161.238727 
L 298.083864 164.077383 
L 298.844773 160.670981 
L 299.605682 166.064438 
L 300.366591 188.489827 
L 302.649318 186.59744 
L 303.410227 173.161095 
L 304.171136 183.664117 
L 305.692955 174.29655 
L 307.975682 181.677098 
L 309.4975 189.625319 
L 310.258409 194.261769 
L 311.019318 229.177309 
L 313.302045 231.353625 
L 314.062955 233.24605 
L 314.823864 210.72603 
L 315.584773 213.564685 
L 316.345682 205.994913 
L 318.628409 193.599429 
L 319.389318 205.237943 
L 320.150227 205.994913 
L 320.911136 210.72603 
L 321.672045 220.28282 
L 323.954773 230.596618 
L 324.715682 226.811769 
L 325.476591 228.988048 
L 326.2375 226.811769 
L 326.998409 224.162337 
L 329.281136 220.661305 
L 330.042045 218.863511 
L 330.802955 232.394449 
L 331.563864 234.286874 
L 332.324773 224.351561 
L 336.129318 228.325709 
L 336.890227 237.22016 
L 337.651136 223.026883 
L 341.455682 222.175282 
L 342.216591 241.951277 
L 342.9775 211.766854 
L 345.260227 214.416286 
L 346.021136 209.685168 
L 346.782045 197.573577 
L 347.542955 203.156257 
L 348.303864 209.969023 
L 350.586591 207.887374 
L 351.3475 210.252914 
L 352.108409 207.414222 
L 352.869318 192.463974 
L 353.630227 187.44904 
L 355.912955 182.528662 
L 356.673864 184.421086 
L 358.195682 174.29655 
L 361.239318 304.78022 
L 362.000227 301.184595 
L 362.761136 264.660558 
L 363.522045 275.068949 
L 364.282955 267.972292 
L 366.565682 282.827946 
L 367.326591 284.341886 
L 368.0875 303.834026 
L 368.848409 312.066138 
L 369.609318 297.210484 
L 371.892045 307.997397 
L 372.652955 286.423571 
L 373.413864 275.163543 
L 374.174773 273.55501 
L 374.935682 271.473287 
L 377.218409 277.434489 
L 377.979318 275.163543 
L 378.740227 272.230294 
L 379.501136 276.204404 
L 380.262045 260.970265 
L 382.544773 259.740217 
L 383.305682 258.98321 
L 384.066591 262.484205 
L 384.8275 259.929441 
L 385.588409 263.335805 
L 390.153864 243.275956 
L 390.914773 243.370586 
L 393.1975 233.624535 
L 393.958409 232.772934 
L 394.719318 225.865501 
L 395.480227 225.770908 
L 396.241136 227.284847 
L 398.523864 228.136448 
L 399.284773 214.510879 
L 400.045682 227.190217 
L 400.806591 224.067707 
L 401.5675 232.015964 
L 403.850227 236.747045 
L 404.611136 229.839648 
L 405.372045 236.273966 
L 406.132955 239.112622 
L 406.893864 223.689222 
L 409.176591 207.887374 
L 409.9375 217.06568 
L 410.698409 215.646371 
L 411.459318 212.050708 
L 412.220227 213.753909 
L 414.502955 200.412232 
L 415.263864 210.252914 
L 416.024773 215.835632 
L 416.785682 215.55174 
L 417.546591 218.485026 
L 419.829318 219.904336 
L 420.590227 203.156257 
L 421.351136 211.199108 
L 422.112045 208.076598 
L 425.155682 220.188227 
L 425.916591 214.321655 
L 426.6775 229.082678 
L 427.438409 229.366533 
L 428.199318 228.51497 
L 430.482045 230.123503 
L 431.242955 231.542849 
L 432.764773 242.519023 
L 433.525682 228.704156 
L 435.808409 235.70622 
L 436.569318 235.327698 
L 437.330227 241.951277 
L 438.091136 246.303872 
L 438.852045 237.598645 
L 441.134773 256.806894 
L 441.895682 255.292954 
L 442.656591 251.886553 
L 443.4175 266.552946 
L 444.178409 254.062869 
L 446.461136 263.241212 
L 447.222045 256.996155 
L 447.982955 256.52304 
L 448.743864 253.116638 
L 449.504773 248.480151 
L 451.7875 230.691249 
L 452.548409 230.123503 
L 453.309318 235.327698 
L 454.070227 232.394449 
L 454.831136 241.951277 
L 457.113864 243.55981 
L 457.874773 240.910416 
L 458.635682 247.723219 
L 459.396591 243.843702 
L 460.1575 245.168418 
L 462.440227 248.196297 
L 463.201136 218.958105 
L 463.962045 218.390359 
L 464.722955 214.984031 
L 465.483864 219.241959 
L 467.766591 230.596618 
L 468.5275 213.564685 
L 469.288409 210.72603 
L 470.810227 209.401314 
L 473.092955 209.779762 
L 473.853864 219.43122 
L 474.614773 217.538758 
L 476.136591 215.267886 
L 478.419318 197.952024 
L 479.180227 219.336627 
L 479.941136 220.28282 
L 480.702045 216.687195 
L 481.462955 229.082678 
L 483.745682 223.499961 
L 485.2675 212.334563 
L 486.028409 213.09157 
L 486.789318 215.362479 
L 489.072045 207.035774 
L 489.832955 203.629372 
L 490.593864 207.035774 
L 491.354773 207.981968 
L 492.115682 206.751882 
L 494.398409 209.306683 
L 495.159318 215.835632 
L 495.920227 226.338616 
L 496.681136 227.852556 
L 497.442045 230.312764 
L 499.724773 230.028909 
L 500.485682 232.394449 
L 501.246591 234.286874 
L 502.0075 247.628551 
L 502.768409 252.927414 
L 505.051136 270.337832 
L 505.812045 264.471297 
L 506.572955 265.796013 
L 507.333864 259.172471 
L 508.094773 275.163543 
L 510.3775 278.28609 
L 511.138409 265.606752 
L 511.899318 280.935484 
L 512.660227 290.303088 
L 513.421136 292.19555 
L 515.703864 292.573998 
L 516.464773 290.776203 
L 517.225682 287.84288 
L 517.986591 290.303088 
L 518.7475 296.075029 
L 521.030227 300.616886 
L 521.791136 295.696545 
L 522.552045 294.182605 
L 523.312955 278.853836 
L 524.073864 274.40661 
L 526.356591 270.243239 
L 527.1175 274.879688 
L 527.878409 265.417491 
L 528.639318 265.417491 
L 529.400227 266.079867 
L 531.682955 252.454299 
L 532.443864 249.142528 
L 533.204773 251.886553 
L 533.965682 235.422366 
L 534.726591 234.476098 
L 537.009318 245.830757 
L 537.770227 242.897471 
L 538.531136 247.628551 
L 539.292045 248.385558 
L 540.052955 247.439364 
L 542.335682 250.467244 
L 543.096591 261.538011 
L 543.8575 252.738153 
L 544.618409 252.738153 
L 545.379318 254.630615 
L 547.662045 253.779015 
L 548.422955 254.157499 
L 549.183864 278.853836 
L 549.944773 275.636695 
L 550.705682 264.755152 
L 552.988409 269.959347 
L 553.749318 276.77215 
L 554.510227 273.460379 
L 556.032045 245.357642 
L 558.314773 251.508068 
L 559.075682 252.265038 
L 559.836591 262.768096 
L 560.5975 263.619697 
L 561.358409 270.053978 
L 563.641136 258.888617 
L 564.402045 258.037016 
L 565.162955 259.83481 
L 565.923864 263.241212 
L 566.684773 246.114611 
L 568.9675 244.789896 
L 570.489318 245.830757 
L 571.250227 258.98321 
L 572.011136 247.250103 
L 574.293864 234.192243 
L 575.054773 233.719165 
L 575.815682 235.422366 
L 576.576591 231.448219 
L 577.3375 240.248076 
L 579.620227 250.183352 
L 580.381136 252.359668 
L 581.142045 259.740217 
L 581.902955 260.875635 
L 584.946591 255.103693 
L 585.7075 249.804904 
L 587.229318 247.439364 
L 587.990227 232.205225 
L 590.272955 224.351561 
L 591.033864 220.94516 
L 591.794773 227.000956 
L 592.555682 228.988048 
L 593.316591 232.678304 
L 595.599318 219.809705 
L 596.360227 228.51497 
L 597.121136 223.783852 
L 597.882045 223.499961 
L 598.642955 219.715112 
L 600.925682 218.863511 
L 601.686591 221.134421 
L 602.4475 215.173218 
L 603.208409 204.575566 
L 603.969318 196.911237 
L 606.252045 200.88531 
L 607.012955 200.128378 
L 607.773864 199.655225 
L 608.534773 194.640291 
L 609.295682 187.165148 
L 611.578409 189.152204 
L 613.861136 187.165148 
L 614.622045 184.985979 
L 616.904773 187.89985 
L 619.1875 177.89551 
L 619.948409 181.780695 
L 622.231136 184.888829 
L 622.992045 181.100794 
L 623.752955 181.003681 
L 624.513864 187.89985 
L 625.274773 187.317061 
L 627.5575 168.473995 
L 628.318409 165.171599 
L 629.079318 166.919928 
L 629.840227 169.736686 
L 630.601136 151.962011 
L 632.883864 148.465352 
L 633.644773 161.383563 
L 634.405682 158.761068 
L 635.166591 166.531402 
L 635.9275 183.043386 
L 638.210227 214.998926 
L 638.971136 208.296983 
L 639.732045 212.667807 
L 640.492955 205.383112 
L 641.253864 217.330008 
L 643.536591 211.113741 
L 644.2975 197.904153 
L 645.058409 190.910834 
L 645.819318 188.094113 
L 646.580227 199.55537 
L 648.862955 218.10706 
L 649.623864 200.041009 
L 650.384773 190.133819 
L 651.145682 199.166844 
L 651.906591 210.239576 
L 654.189318 186.831422 
L 654.950227 192.756314 
L 655.711136 192.659164 
L 656.472045 198.584055 
L 657.232955 218.689812 
L 661.798409 273.664979 
L 662.559318 275.219046 
L 664.842045 255.307553 
L 665.602955 255.404703 
L 666.363864 233.841992 
L 667.124773 250.548239 
L 670.168409 338.158811 
L 670.929318 270.362583 
L 672.451136 362.246904 
L 672.451136 362.246904 
" style="fill:none;stroke:#1f77b4;stroke-linecap:square;stroke-width:1.5;"/>
   </g>
   <g id="line2d_17">
    <path clip-path="url(#p69358065cc)" d="M 63.723864 326.205727 
L 64.484773 326.790836 
L 65.245682 306.31468 
L 66.006591 311.287464 
L 68.289318 297.539184 
L 69.050227 295.199069 
L 69.811136 300.756845 
L 70.572045 267.702598 
L 71.332955 267.702598 
L 73.615682 272.090302 
L 74.376591 282.620862 
L 75.1375 266.825022 
L 75.898409 280.280776 
L 76.659318 291.396328 
L 78.942045 296.661667 
L 79.702955 304.559616 
L 80.463864 291.981379 
L 81.224773 291.981379 
L 81.985682 268.580145 
L 84.268409 277.940574 
L 85.029318 275.015497 
L 85.790227 284.375926 
L 86.551136 277.940574 
L 87.312045 279.40323 
L 89.594773 303.682011 
L 90.355682 279.40323 
L 91.116591 294.321494 
L 91.8775 303.097018 
L 92.638409 295.199069 
L 97.203864 266.825022 
L 97.964773 239.621018 
L 100.2475 216.219725 
L 101.008409 233.185695 
L 101.769318 228.79802 
L 102.530227 234.355709 
L 103.291136 219.437357 
L 105.573864 207.444288 
L 106.334773 218.559957 
L 107.095682 219.437357 
L 107.856591 203.934101 
L 108.6175 211.247146 
L 110.900227 206.274245 
L 111.661136 228.212853 
L 112.422045 216.219725 
L 113.182955 236.695853 
L 116.226591 224.9789 
L 116.9875 228.202488 
L 117.748409 235.236058 
L 118.509318 250.182147 
L 119.270227 252.819692 
L 121.552955 265.128236 
L 122.313864 244.320897 
L 123.074773 237.287414 
L 123.835682 255.457237 
L 124.596591 263.369901 
L 126.879318 256.92252 
L 127.640227 262.78377 
L 128.401136 267.472759 
L 129.162045 251.354379 
L 132.205682 247.251522 
L 132.966591 244.613977 
L 133.7275 255.750259 
L 134.488409 225.565031 
L 135.249318 232.891506 
L 137.532045 242.269483 
L 138.292955 232.598426 
L 139.053864 236.115182 
L 139.814773 223.513558 
L 140.575682 224.685849 
L 142.858409 226.151132 
L 143.619318 213.256487 
L 144.380227 197.4311 
L 145.141136 202.413285 
L 145.902045 208.860579 
L 148.184773 215.307872 
L 148.945682 214.428749 
L 149.706591 214.135552 
L 150.4675 206.809194 
L 151.228409 216.773214 
L 153.511136 217.652395 
L 155.032955 229.667859 
L 155.793864 222.341384 
L 156.554773 212.084167 
L 158.8375 226.151132 
L 159.598409 227.030343 
L 160.359318 196.844998 
L 161.120227 182.485011 
L 161.881136 185.415695 
L 164.163864 186.588015 
L 164.924773 184.536513 
L 165.685682 170.762686 
L 166.446591 179.261306 
L 170.251136 208.007499 
L 171.012045 219.195781 
L 171.772955 218.606935 
L 172.533864 238.922829 
L 174.816591 268.071707 
L 175.5775 261.594195 
L 176.338409 269.838275 
L 177.860227 250.405738 
L 180.142955 238.333983 
L 180.903864 230.089873 
L 181.664773 237.15629 
L 182.425682 268.660553 
L 183.186591 283.97108 
L 185.469318 287.504244 
L 186.230227 278.082443 
L 186.991136 279.554558 
L 187.752045 285.443195 
L 188.512955 292.215189 
L 190.795682 290.448592 
L 191.556591 292.215189 
L 192.3175 271.604901 
L 193.078409 293.687334 
L 193.839318 285.737677 
L 196.122045 297.220586 
L 196.882955 309.292312 
L 197.643864 306.347964 
L 198.404773 295.453931 
L 199.165682 296.042835 
L 201.448409 295.748412 
L 202.209318 284.854378 
L 202.970227 276.315817 
L 203.731136 259.238723 
L 204.492045 248.639112 
L 207.535682 256.588827 
L 208.296591 267.18838 
L 209.0575 243.33935 
L 209.818409 248.933564 
L 212.101136 242.456052 
L 212.862045 229.79545 
L 213.622955 226.55665 
L 214.383864 235.389693 
L 215.144773 227.145584 
L 217.4275 225.67341 
L 218.188409 211.540576 
L 218.949318 215.368252 
L 219.710227 226.851102 
L 220.471136 209.773979 
L 222.753864 201.529841 
L 223.514773 214.484982 
L 224.275682 222.729062 
L 225.036591 215.662675 
L 225.7975 202.413168 
L 228.080227 209.479615 
L 228.841136 214.484982 
L 229.602045 199.174398 
L 230.362955 211.246212 
L 231.123864 232.445346 
L 233.406591 237.15629 
L 234.1675 225.67341 
L 234.928409 248.639112 
L 235.689318 248.639112 
L 236.450227 244.811524 
L 238.732955 228.323305 
L 239.493864 235.978569 
L 240.254773 223.799864 
L 241.015682 236.275561 
L 241.776591 233.602191 
L 244.059318 227.067307 
L 245.581136 221.423575 
L 246.342045 232.711097 
L 247.102955 229.146604 
L 249.385682 234.790336 
L 250.146591 241.919352 
L 250.9075 242.810416 
L 251.668409 234.493344 
L 254.712045 242.513395 
L 255.472955 254.097968 
L 256.233864 251.424598 
L 256.994773 251.721678 
L 257.755682 252.315692 
L 260.038409 241.32525 
L 260.799318 210.433015 
L 261.560227 207.165631 
L 262.321136 206.571646 
L 263.082045 200.630747 
L 265.364773 213.700516 
L 266.125682 186.966993 
L 266.886591 197.363304 
L 267.6475 195.581058 
L 268.408409 194.986898 
L 270.691136 210.136081 
L 271.452045 206.274537 
L 272.973864 224.096944 
L 273.734773 236.275561 
L 276.0175 241.919352 
L 276.778409 229.443596 
L 277.539318 243.70154 
L 278.300227 238.057808 
L 281.343864 244.295641 
L 282.104773 224.393966 
L 282.865682 227.364328 
L 283.626591 245.483815 
L 284.3875 256.771367 
L 286.670227 236.572583 
L 287.431136 239.839996 
L 288.192045 260.929933 
L 289.713864 236.572583 
L 291.996591 241.028199 
L 292.7575 236.275561 
L 293.518409 222.61169 
L 294.279318 217.859023 
L 297.322955 202.412993 
L 298.083864 200.927798 
L 299.605682 227.95843 
L 300.366591 226.770285 
L 302.649318 246.969011 
L 304.171136 255.583193 
L 305.692955 223.502814 
L 307.975682 225.879191 
L 309.4975 249.642381 
L 310.258409 244.84913 
L 311.019318 258.629672 
L 313.302045 262.224559 
L 314.062955 265.220411 
L 314.823864 254.136041 
L 315.584773 253.237297 
L 316.345682 241.853366 
L 318.628409 221.781676 
L 319.389318 231.967331 
L 320.150227 226.275337 
L 320.911136 231.66777 
L 321.672045 236.161371 
L 323.954773 246.347026 
L 324.715682 241.853366 
L 325.476591 244.249977 
L 326.2375 246.047465 
L 326.998409 252.338554 
L 329.281136 253.237297 
L 330.042045 249.642381 
L 330.802955 251.739401 
L 331.563864 269.714042 
L 332.324773 264.92079 
L 336.129318 262.524209 
L 336.890227 273.608549 
L 337.651136 261.625465 
L 341.455682 250.241534 
L 342.216591 253.237297 
L 342.9775 241.254213 
L 345.260227 240.055879 
L 346.021136 239.456726 
L 346.782045 226.275337 
L 348.303864 249.642381 
L 350.586591 250.241534 
L 351.3475 259.228854 
L 352.108409 258.330081 
L 352.869318 254.735194 
L 353.630227 241.553804 
L 355.912955 241.254213 
L 356.673864 242.152928 
L 357.434773 236.760553 
L 358.195682 226.574928 
L 361.239318 237.060115 
L 362.000227 237.060115 
L 362.761136 221.781676 
L 363.522045 236.760553 
L 364.282955 232.266864 
L 366.565682 226.574928 
L 367.326591 228.671947 
L 368.0875 246.347026 
L 368.848409 249.34279 
L 369.609318 245.747844 
L 371.892045 242.75211 
L 372.652955 241.254213 
L 373.413864 237.359706 
L 374.174773 234.363942 
L 374.935682 241.853366 
L 377.218409 239.756317 
L 377.979318 240.055879 
L 378.740227 232.266864 
L 379.501136 253.237297 
L 380.262045 250.840657 
L 382.544773 248.144485 
L 383.305682 241.853366 
L 384.066591 243.351233 
L 384.8275 252.038992 
L 385.588409 255.334347 
L 390.153864 261.365991 
L 390.914773 261.969143 
L 393.1975 256.239076 
L 393.958409 263.175537 
L 394.719318 253.826406 
L 395.480227 260.461232 
L 396.241136 249.905855 
L 398.523864 237.540874 
L 399.284773 227.588591 
L 400.045682 234.525052 
L 400.806591 233.318717 
L 401.5675 255.03277 
L 403.850227 257.143834 
L 404.611136 245.985275 
L 405.372045 263.778689 
L 406.893864 249.001068 
L 409.176591 220.652218 
L 409.9375 220.652218 
L 410.698409 223.064858 
L 411.459318 217.033184 
L 412.220227 230.001289 
L 414.502955 227.588591 
L 415.263864 235.128234 
L 416.024773 237.239297 
L 416.785682 247.493186 
L 417.546591 252.921677 
L 419.829318 259.85808 
L 420.590227 250.810584 
L 421.351136 253.826406 
L 422.112045 255.334317 
L 425.155682 254.731165 
L 425.916591 261.365991 
L 426.6775 265.286571 
L 427.438409 265.889782 
L 428.199318 272.223032 
L 430.482045 271.619879 
L 431.242955 278.857887 
L 432.764773 283.38162 
L 433.525682 276.445189 
L 435.808409 280.968951 
L 436.569318 276.746765 
L 437.330227 268.302422 
L 438.091136 276.143612 
L 438.852045 278.857887 
L 441.134773 289.111688 
L 441.895682 284.889531 
L 442.656591 285.79429 
L 443.4175 291.22284 
L 444.178409 291.22284 
L 446.461136 287.88839 
L 447.222045 272.4289 
L 447.982955 272.4289 
L 448.743864 282.735227 
L 449.504773 285.766494 
L 451.7875 286.675895 
L 452.548409 276.975787 
L 454.831136 285.160246 
L 457.113864 283.038351 
L 457.874773 285.46337 
L 458.635682 290.010286 
L 459.396591 291.829087 
L 460.1575 284.250875 
L 462.440227 276.672692 
L 463.201136 263.941288 
L 463.962045 267.275679 
L 464.722955 261.516268 
L 465.483864 270.61007 
L 467.766591 274.853891 
L 468.5275 258.788124 
L 469.288409 252.119284 
L 470.810227 244.237948 
L 473.092955 246.966091 
L 473.853864 258.484971 
L 474.614773 248.178616 
L 475.375682 251.209912 
L 476.136591 244.844225 
L 478.419318 249.997388 
L 479.180227 261.819392 
L 479.941136 254.241209 
L 480.702045 241.812928 
L 481.462955 239.691032 
L 483.745682 240.29728 
L 485.2675 241.509804 
L 486.028409 252.725561 
L 486.789318 259.394372 
L 489.072045 253.028655 
L 489.832955 257.272476 
L 490.593864 262.728763 
L 491.354773 266.366307 
L 492.115682 270.913252 
L 494.398409 280.916426 
L 495.159318 279.400777 
L 495.920227 285.766494 
L 496.681136 289.707191 
L 497.442045 288.494638 
L 499.724773 284.250875 
L 500.485682 278.491435 
L 501.246591 288.797761 
L 502.0075 296.376003 
L 502.768409 294.254107 
L 505.051136 308.501101 
L 505.812045 308.804254 
L 506.572955 312.441769 
L 507.333864 299.710394 
L 508.094773 302.74169 
L 510.3775 313.654294 
L 511.138409 303.347909 
L 511.899318 320.323105 
L 512.660227 333.357604 
L 513.421136 321.232476 
L 515.703864 331.900846 
L 516.464773 330.376789 
L 517.225682 323.061351 
L 517.986591 321.232476 
L 518.7475 330.986453 
L 521.030227 339.521102 
L 521.791136 346.83657 
L 522.552045 342.569245 
L 523.312955 323.670985 
L 524.073864 313.307403 
L 527.1175 322.146899 
L 527.878409 322.146899 
L 528.639318 319.403631 
L 529.400227 326.71907 
L 531.682955 305.991936 
L 532.443864 293.494691 
L 533.204773 302.334216 
L 533.965682 290.751395 
L 534.726591 292.275422 
L 537.009318 294.104326 
L 537.770227 291.665817 
L 538.531136 296.237988 
L 539.292045 297.15244 
L 540.052955 301.724582 
L 542.335682 302.943822 
L 543.096591 310.868924 
L 543.8575 305.991936 
L 544.618409 305.382301 
L 545.379318 308.430444 
L 547.662045 304.467879 
L 548.422955 306.60157 
L 549.183864 321.537294 
L 549.944773 316.0507 
L 550.705682 308.430444 
L 552.988409 316.0507 
L 553.749318 323.061351 
L 554.510227 323.975773 
L 555.271136 309.954501 
L 556.032045 300.505371 
L 558.314773 301.724582 
L 559.075682 294.409143 
L 559.836591 298.676468 
L 560.5975 297.15244 
L 561.358409 304.467879 
L 563.641136 302.334216 
L 564.402045 300.810159 
L 565.162955 299.895708 
L 565.923864 309.344867 
L 566.684773 302.029428 
L 568.9675 302.943822 
L 569.728409 305.991936 
L 570.489318 297.762045 
L 571.250227 296.237988 
L 572.011136 281.607082 
L 574.293864 260.57513 
L 575.054773 256.002959 
L 575.815682 256.612594 
L 576.576591 238.323939 
L 577.3375 240.762418 
L 579.620227 239.847996 
L 580.381136 238.319968 
L 581.142045 237.403151 
L 581.902955 233.735797 
L 584.946591 239.236785 
L 585.7075 238.014333 
L 587.229318 202.86911 
L 587.990227 195.534459 
L 590.272955 192.172769 
L 591.033864 178.114621 
L 591.794773 173.224874 
L 592.555682 180.8651 
L 593.316591 186.060541 
L 595.599318 172.308028 
L 596.360227 184.532484 
L 597.121136 178.114621 
L 597.882045 176.892199 
L 598.642955 167.723857 
L 600.925682 180.559524 
L 601.686591 165.584589 
L 602.4475 167.723857 
L 603.208409 158.249939 
L 603.969318 140.524524 
L 606.252045 152.137711 
L 607.012955 154.88819 
L 607.773864 160.694841 
L 608.534773 147.247905 
L 609.295682 120.354207 
L 611.578409 110.880288 
L 613.861136 97.738986 
L 614.622045 98.044621 
L 616.904773 94.377296 
L 619.1875 71.150864 
L 619.948409 81.541629 
L 622.231136 83.069627 
L 622.992045 73.290133 
L 623.752955 70.84523 
L 624.513864 74.206978 
L 625.274773 65.649848 
L 627.5575 38.14488 
L 628.318409 50.980547 
L 629.079318 60.7601 
L 629.840227 54.647872 
L 630.601136 46.396376 
L 632.883864 25.003636 
L 633.644773 39.367361 
L 634.405682 31.115864 
L 635.166591 28.365327 
L 635.9275 43.340262 
L 638.210227 95.905295 
L 638.971136 88.265009 
L 639.732045 90.09876 
L 640.492955 71.762076 
L 641.253864 92.849239 
L 643.536591 77.568727 
L 644.2975 50.674912 
L 645.058409 51.591758 
L 645.819318 56.481564 
L 646.580227 86.737011 
L 648.862955 96.516564 
L 649.623864 61.065677 
L 650.384773 55.259083 
L 651.145682 58.315197 
L 651.906591 79.096726 
L 654.189318 72.984498 
L 654.950227 78.485515 
L 655.711136 81.235994 
L 656.472045 108.740962 
L 657.232955 121.882205 
L 661.798409 183.310003 
L 662.559318 188.199751 
L 665.602955 171.055241 
L 666.363864 144.419878 
L 667.124773 171.973663 
L 667.885682 211.161306 
L 670.168409 299.945751 
L 670.929318 266.575037 
L 671.690227 317.090349 
L 672.451136 381.076364 
L 672.451136 381.076364 
" style="fill:none;stroke:#ff7f0e;stroke-linecap:square;stroke-width:1.5;"/>
   </g>
   <g id="patch_3">
    <path d="M 33.2875 398.88 
L 33.2875 7.2 
" style="fill:none;stroke:#000000;stroke-linecap:square;stroke-linejoin:miter;stroke-width:0.8;"/>
   </g>
   <g id="patch_4">
    <path d="M 702.8875 398.88 
L 702.8875 7.2 
" style="fill:none;stroke:#000000;stroke-linecap:square;stroke-linejoin:miter;stroke-width:0.8;"/>
   </g>
   <g id="patch_5">
    <path d="M 33.2875 398.88 
L 702.8875 398.88 
" style="fill:none;stroke:#000000;stroke-linecap:square;stroke-linejoin:miter;stroke-width:0.8;"/>
   </g>
   <g id="patch_6">
    <path d="M 33.2875 7.2 
L 702.8875 7.2 
" style="fill:none;stroke:#000000;stroke-linecap:square;stroke-linejoin:miter;stroke-width:0.8;"/>
   </g>
   <g id="legend_1">
    <g id="patch_7">
     <path d="M 40.2875 44.55625 
L 124.325 44.55625 
Q 126.325 44.55625 126.325 42.55625 
L 126.325 14.2 
Q 126.325 12.2 124.325 12.2 
L 40.2875 12.2 
Q 38.2875 12.2 38.2875 14.2 
L 38.2875 42.55625 
Q 38.2875 44.55625 40.2875 44.55625 
z
" style="fill:#ffffff;opacity:0.8;stroke:#cccccc;stroke-linejoin:miter;"/>
    </g>
    <g id="line2d_18">
     <path d="M 42.2875 20.298437 
L 62.2875 20.298437 
" style="fill:none;stroke:#1f77b4;stroke-linecap:square;stroke-width:1.5;"/>
    </g>
    <g id="line2d_19"/>
    <g id="text_17">
     <!-- VALE3.SA -->
     <defs>
      <path d="M 28.609375 0 
L 0.78125 72.90625 
L 11.078125 72.90625 
L 34.1875 11.53125 
L 57.328125 72.90625 
L 67.578125 72.90625 
L 39.796875 0 
z
" id="DejaVuSans-86"/>
      <path d="M 34.1875 63.1875 
L 20.796875 26.90625 
L 47.609375 26.90625 
z
M 28.609375 72.90625 
L 39.796875 72.90625 
L 67.578125 0 
L 57.328125 0 
L 50.6875 18.703125 
L 17.828125 18.703125 
L 11.1875 0 
L 0.78125 0 
z
" id="DejaVuSans-65"/>
      <path d="M 9.8125 72.90625 
L 19.671875 72.90625 
L 19.671875 8.296875 
L 55.171875 8.296875 
L 55.171875 0 
L 9.8125 0 
z
" id="DejaVuSans-76"/>
      <path d="M 9.8125 72.90625 
L 55.90625 72.90625 
L 55.90625 64.59375 
L 19.671875 64.59375 
L 19.671875 43.015625 
L 54.390625 43.015625 
L 54.390625 34.71875 
L 19.671875 34.71875 
L 19.671875 8.296875 
L 56.78125 8.296875 
L 56.78125 0 
L 9.8125 0 
z
" id="DejaVuSans-69"/>
      <path d="M 40.578125 39.3125 
Q 47.65625 37.796875 51.625 33 
Q 55.609375 28.21875 55.609375 21.1875 
Q 55.609375 10.40625 48.1875 4.484375 
Q 40.765625 -1.421875 27.09375 -1.421875 
Q 22.515625 -1.421875 17.65625 -0.515625 
Q 12.796875 0.390625 7.625 2.203125 
L 7.625 11.71875 
Q 11.71875 9.328125 16.59375 8.109375 
Q 21.484375 6.890625 26.8125 6.890625 
Q 36.078125 6.890625 40.9375 10.546875 
Q 45.796875 14.203125 45.796875 21.1875 
Q 45.796875 27.640625 41.28125 31.265625 
Q 36.765625 34.90625 28.71875 34.90625 
L 20.21875 34.90625 
L 20.21875 43.015625 
L 29.109375 43.015625 
Q 36.375 43.015625 40.234375 45.921875 
Q 44.09375 48.828125 44.09375 54.296875 
Q 44.09375 59.90625 40.109375 62.90625 
Q 36.140625 65.921875 28.71875 65.921875 
Q 24.65625 65.921875 20.015625 65.03125 
Q 15.375 64.15625 9.8125 62.3125 
L 9.8125 71.09375 
Q 15.4375 72.65625 20.34375 73.4375 
Q 25.25 74.21875 29.59375 74.21875 
Q 40.828125 74.21875 47.359375 69.109375 
Q 53.90625 64.015625 53.90625 55.328125 
Q 53.90625 49.265625 50.4375 45.09375 
Q 46.96875 40.921875 40.578125 39.3125 
z
" id="DejaVuSans-51"/>
      <path d="M 10.6875 12.40625 
L 21 12.40625 
L 21 0 
L 10.6875 0 
z
" id="DejaVuSans-46"/>
      <path d="M 53.515625 70.515625 
L 53.515625 60.890625 
Q 47.90625 63.578125 42.921875 64.890625 
Q 37.9375 66.21875 33.296875 66.21875 
Q 25.25 66.21875 20.875 63.09375 
Q 16.5 59.96875 16.5 54.203125 
Q 16.5 49.359375 19.40625 46.890625 
Q 22.3125 44.4375 30.421875 42.921875 
L 36.375 41.703125 
Q 47.40625 39.59375 52.65625 34.296875 
Q 57.90625 29 57.90625 20.125 
Q 57.90625 9.515625 50.796875 4.046875 
Q 43.703125 -1.421875 29.984375 -1.421875 
Q 24.8125 -1.421875 18.96875 -0.25 
Q 13.140625 0.921875 6.890625 3.21875 
L 6.890625 13.375 
Q 12.890625 10.015625 18.65625 8.296875 
Q 24.421875 6.59375 29.984375 6.59375 
Q 38.421875 6.59375 43.015625 9.90625 
Q 47.609375 13.234375 47.609375 19.390625 
Q 47.609375 24.75 44.3125 27.78125 
Q 41.015625 30.8125 33.5 32.328125 
L 27.484375 33.5 
Q 16.453125 35.6875 11.515625 40.375 
Q 6.59375 45.0625 6.59375 53.421875 
Q 6.59375 63.09375 13.40625 68.65625 
Q 20.21875 74.21875 32.171875 74.21875 
Q 37.3125 74.21875 42.625 73.28125 
Q 47.953125 72.359375 53.515625 70.515625 
z
" id="DejaVuSans-83"/>
     </defs>
     <g transform="translate(70.2875 23.798437)scale(0.1 -0.1)">
      <use xlink:href="#DejaVuSans-86"/>
      <use x="68.314453" xlink:href="#DejaVuSans-65"/>
      <use x="136.722656" xlink:href="#DejaVuSans-76"/>
      <use x="192.435547" xlink:href="#DejaVuSans-69"/>
      <use x="255.619141" xlink:href="#DejaVuSans-51"/>
      <use x="319.242188" xlink:href="#DejaVuSans-46"/>
      <use x="351.029297" xlink:href="#DejaVuSans-83"/>
      <use x="414.521484" xlink:href="#DejaVuSans-65"/>
     </g>
    </g>
    <g id="line2d_20">
     <path d="M 42.2875 34.976562 
L 62.2875 34.976562 
" style="fill:none;stroke:#ff7f0e;stroke-linecap:square;stroke-width:1.5;"/>
    </g>
    <g id="line2d_21"/>
    <g id="text_18">
     <!-- GGBR4.SA -->
     <defs>
      <path d="M 59.515625 10.40625 
L 59.515625 29.984375 
L 43.40625 29.984375 
L 43.40625 38.09375 
L 69.28125 38.09375 
L 69.28125 6.78125 
Q 63.578125 2.734375 56.6875 0.65625 
Q 49.8125 -1.421875 42 -1.421875 
Q 24.90625 -1.421875 15.25 8.5625 
Q 5.609375 18.5625 5.609375 36.375 
Q 5.609375 54.25 15.25 64.234375 
Q 24.90625 74.21875 42 74.21875 
Q 49.125 74.21875 55.546875 72.453125 
Q 61.96875 70.703125 67.390625 67.28125 
L 67.390625 56.78125 
Q 61.921875 61.421875 55.765625 63.765625 
Q 49.609375 66.109375 42.828125 66.109375 
Q 29.4375 66.109375 22.71875 58.640625 
Q 16.015625 51.171875 16.015625 36.375 
Q 16.015625 21.625 22.71875 14.15625 
Q 29.4375 6.6875 42.828125 6.6875 
Q 48.046875 6.6875 52.140625 7.59375 
Q 56.25 8.5 59.515625 10.40625 
z
" id="DejaVuSans-71"/>
      <path d="M 19.671875 34.8125 
L 19.671875 8.109375 
L 35.5 8.109375 
Q 43.453125 8.109375 47.28125 11.40625 
Q 51.125 14.703125 51.125 21.484375 
Q 51.125 28.328125 47.28125 31.5625 
Q 43.453125 34.8125 35.5 34.8125 
z
M 19.671875 64.796875 
L 19.671875 42.828125 
L 34.28125 42.828125 
Q 41.5 42.828125 45.03125 45.53125 
Q 48.578125 48.25 48.578125 53.8125 
Q 48.578125 59.328125 45.03125 62.0625 
Q 41.5 64.796875 34.28125 64.796875 
z
M 9.8125 72.90625 
L 35.015625 72.90625 
Q 46.296875 72.90625 52.390625 68.21875 
Q 58.5 63.53125 58.5 54.890625 
Q 58.5 48.1875 55.375 44.234375 
Q 52.25 40.28125 46.1875 39.3125 
Q 53.46875 37.75 57.5 32.78125 
Q 61.53125 27.828125 61.53125 20.40625 
Q 61.53125 10.640625 54.890625 5.3125 
Q 48.25 0 35.984375 0 
L 9.8125 0 
z
" id="DejaVuSans-66"/>
      <path d="M 44.390625 34.1875 
Q 47.5625 33.109375 50.5625 29.59375 
Q 53.5625 26.078125 56.59375 19.921875 
L 66.609375 0 
L 56 0 
L 46.6875 18.703125 
Q 43.0625 26.03125 39.671875 28.421875 
Q 36.28125 30.8125 30.421875 30.8125 
L 19.671875 30.8125 
L 19.671875 0 
L 9.8125 0 
L 9.8125 72.90625 
L 32.078125 72.90625 
Q 44.578125 72.90625 50.734375 67.671875 
Q 56.890625 62.453125 56.890625 51.90625 
Q 56.890625 45.015625 53.6875 40.46875 
Q 50.484375 35.9375 44.390625 34.1875 
z
M 19.671875 64.796875 
L 19.671875 38.921875 
L 32.078125 38.921875 
Q 39.203125 38.921875 42.84375 42.21875 
Q 46.484375 45.515625 46.484375 51.90625 
Q 46.484375 58.296875 42.84375 61.546875 
Q 39.203125 64.796875 32.078125 64.796875 
z
" id="DejaVuSans-82"/>
     </defs>
     <g transform="translate(70.2875 38.476562)scale(0.1 -0.1)">
      <use xlink:href="#DejaVuSans-71"/>
      <use x="77.490234" xlink:href="#DejaVuSans-71"/>
      <use x="154.980469" xlink:href="#DejaVuSans-66"/>
      <use x="223.583984" xlink:href="#DejaVuSans-82"/>
      <use x="293.066406" xlink:href="#DejaVuSans-52"/>
      <use x="356.689453" xlink:href="#DejaVuSans-46"/>
      <use x="388.476562" xlink:href="#DejaVuSans-83"/>
      <use x="451.96875" xlink:href="#DejaVuSans-65"/>
     </g>
    </g>
   </g>
  </g>
 </g>
 <defs>
  <clipPath id="p69358065cc">
   <rect height="391.68" width="669.6" x="33.2875" y="7.2"/>
  </clipPath>
 </defs>
</svg>
