<?xml version="1.0" encoding="utf-8" standalone="no"?>
<!DOCTYPE svg PUBLIC "-//W3C//DTD SVG 1.1//EN"
  "http://www.w3.org/Graphics/SVG/1.1/DTD/svg11.dtd">
<!-- Created with matplotlib (https://matplotlib.org/) -->
<svg height="456.031033pt" version="1.1" viewBox="0 0 715.282812 456.031033" width="715.282812pt" xmlns="http://www.w3.org/2000/svg" xmlns:xlink="http://www.w3.org/1999/xlink">
 <defs>
  <style type="text/css">
*{stroke-linecap:butt;stroke-linejoin:round;}
  </style>
 </defs>
 <g id="figure_1">
  <g id="patch_1">
   <path d="M 0 456.031033 
L 715.282812 456.031033 
L 715.282812 0 
L 0 0 
z
" style="fill:none;"/>
  </g>
  <g id="axes_1">
   <g id="patch_2">
    <path d="M 38.482813 398.88 
L 708.082813 398.88 
L 708.082813 7.2 
L 38.482813 7.2 
z
" style="fill:#ffffff;"/>
   </g>
   <g id="matplotlib.axis_1">
    <g id="xtick_1">
     <g id="line2d_1">
      <defs>
       <path d="M 0 0 
L 0 3.5 
" id="md7778c5487" style="stroke:#000000;stroke-width:0.8;"/>
      </defs>
      <g>
       <use style="stroke:#000000;stroke-width:0.8;" x="67.395453" xlink:href="#md7778c5487" y="398.88"/>
      </g>
     </g>
     <g id="text_1">
      <!-- 2018-01 -->
      <defs>
       <path d="M 19.1875 8.296875 
L 53.609375 8.296875 
L 53.609375 0 
L 7.328125 0 
L 7.328125 8.296875 
Q 12.9375 14.109375 22.625 23.890625 
Q 32.328125 33.6875 34.8125 36.53125 
Q 39.546875 41.84375 41.421875 45.53125 
Q 43.3125 49.21875 43.3125 52.78125 
Q 43.3125 58.59375 39.234375 62.25 
Q 35.15625 65.921875 28.609375 65.921875 
Q 23.96875 65.921875 18.8125 64.3125 
Q 13.671875 62.703125 7.8125 59.421875 
L 7.8125 69.390625 
Q 13.765625 71.78125 18.9375 73 
Q 24.125 74.21875 28.421875 74.21875 
Q 39.75 74.21875 46.484375 68.546875 
Q 53.21875 62.890625 53.21875 53.421875 
Q 53.21875 48.921875 51.53125 44.890625 
Q 49.859375 40.875 45.40625 35.40625 
Q 44.1875 33.984375 37.640625 27.21875 
Q 31.109375 20.453125 19.1875 8.296875 
z
" id="DejaVuSans-50"/>
       <path d="M 31.78125 66.40625 
Q 24.171875 66.40625 20.328125 58.90625 
Q 16.5 51.421875 16.5 36.375 
Q 16.5 21.390625 20.328125 13.890625 
Q 24.171875 6.390625 31.78125 6.390625 
Q 39.453125 6.390625 43.28125 13.890625 
Q 47.125 21.390625 47.125 36.375 
Q 47.125 51.421875 43.28125 58.90625 
Q 39.453125 66.40625 31.78125 66.40625 
z
M 31.78125 74.21875 
Q 44.046875 74.21875 50.515625 64.515625 
Q 56.984375 54.828125 56.984375 36.375 
Q 56.984375 17.96875 50.515625 8.265625 
Q 44.046875 -1.421875 31.78125 -1.421875 
Q 19.53125 -1.421875 13.0625 8.265625 
Q 6.59375 17.96875 6.59375 36.375 
Q 6.59375 54.828125 13.0625 64.515625 
Q 19.53125 74.21875 31.78125 74.21875 
z
" id="DejaVuSans-48"/>
       <path d="M 12.40625 8.296875 
L 28.515625 8.296875 
L 28.515625 63.921875 
L 10.984375 60.40625 
L 10.984375 69.390625 
L 28.421875 72.90625 
L 38.28125 72.90625 
L 38.28125 8.296875 
L 54.390625 8.296875 
L 54.390625 0 
L 12.40625 0 
z
" id="DejaVuSans-49"/>
       <path d="M 31.78125 34.625 
Q 24.75 34.625 20.71875 30.859375 
Q 16.703125 27.09375 16.703125 20.515625 
Q 16.703125 13.921875 20.71875 10.15625 
Q 24.75 6.390625 31.78125 6.390625 
Q 38.8125 6.390625 42.859375 10.171875 
Q 46.921875 13.96875 46.921875 20.515625 
Q 46.921875 27.09375 42.890625 30.859375 
Q 38.875 34.625 31.78125 34.625 
z
M 21.921875 38.8125 
Q 15.578125 40.375 12.03125 44.71875 
Q 8.5 49.078125 8.5 55.328125 
Q 8.5 64.0625 14.71875 69.140625 
Q 20.953125 74.21875 31.78125 74.21875 
Q 42.671875 74.21875 48.875 69.140625 
Q 55.078125 64.0625 55.078125 55.328125 
Q 55.078125 49.078125 51.53125 44.71875 
Q 48 40.375 41.703125 38.8125 
Q 48.828125 37.15625 52.796875 32.3125 
Q 56.78125 27.484375 56.78125 20.515625 
Q 56.78125 9.90625 50.3125 4.234375 
Q 43.84375 -1.421875 31.78125 -1.421875 
Q 19.734375 -1.421875 13.25 4.234375 
Q 6.78125 9.90625 6.78125 20.515625 
Q 6.78125 27.484375 10.78125 32.3125 
Q 14.796875 37.15625 21.921875 38.8125 
z
M 18.3125 54.390625 
Q 18.3125 48.734375 21.84375 45.5625 
Q 25.390625 42.390625 31.78125 42.390625 
Q 38.140625 42.390625 41.71875 45.5625 
Q 45.3125 48.734375 45.3125 54.390625 
Q 45.3125 60.0625 41.71875 63.234375 
Q 38.140625 66.40625 31.78125 66.40625 
Q 25.390625 66.40625 21.84375 63.234375 
Q 18.3125 60.0625 18.3125 54.390625 
z
" id="DejaVuSans-56"/>
       <path d="M 4.890625 31.390625 
L 31.203125 31.390625 
L 31.203125 23.390625 
L 4.890625 23.390625 
z
" id="DejaVuSans-45"/>
      </defs>
      <g transform="translate(30.170632 433.351846)rotate(-30)scale(0.1 -0.1)">
       <use xlink:href="#DejaVuSans-50"/>
       <use x="63.623047" xlink:href="#DejaVuSans-48"/>
       <use x="127.246094" xlink:href="#DejaVuSans-49"/>
       <use x="190.869141" xlink:href="#DejaVuSans-56"/>
       <use x="254.492188" xlink:href="#DejaVuSans-45"/>
       <use x="290.576172" xlink:href="#DejaVuSans-48"/>
       <use x="354.199219" xlink:href="#DejaVuSans-49"/>
      </g>
     </g>
    </g>
    <g id="xtick_2">
     <g id="line2d_2">
      <g>
       <use style="stroke:#000000;stroke-width:0.8;" x="135.962981" xlink:href="#md7778c5487" y="398.88"/>
      </g>
     </g>
     <g id="text_2">
      <!-- 2018-04 -->
      <defs>
       <path d="M 37.796875 64.3125 
L 12.890625 25.390625 
L 37.796875 25.390625 
z
M 35.203125 72.90625 
L 47.609375 72.90625 
L 47.609375 25.390625 
L 58.015625 25.390625 
L 58.015625 17.1875 
L 47.609375 17.1875 
L 47.609375 0 
L 37.796875 0 
L 37.796875 17.1875 
L 4.890625 17.1875 
L 4.890625 26.703125 
z
" id="DejaVuSans-52"/>
      </defs>
      <g transform="translate(98.73816 433.351846)rotate(-30)scale(0.1 -0.1)">
       <use xlink:href="#DejaVuSans-50"/>
       <use x="63.623047" xlink:href="#DejaVuSans-48"/>
       <use x="127.246094" xlink:href="#DejaVuSans-49"/>
       <use x="190.869141" xlink:href="#DejaVuSans-56"/>
       <use x="254.492188" xlink:href="#DejaVuSans-45"/>
       <use x="290.576172" xlink:href="#DejaVuSans-48"/>
       <use x="354.199219" xlink:href="#DejaVuSans-52"/>
      </g>
     </g>
    </g>
    <g id="xtick_3">
     <g id="line2d_3">
      <g>
       <use style="stroke:#000000;stroke-width:0.8;" x="205.29237" xlink:href="#md7778c5487" y="398.88"/>
      </g>
     </g>
     <g id="text_3">
      <!-- 2018-07 -->
      <defs>
       <path d="M 8.203125 72.90625 
L 55.078125 72.90625 
L 55.078125 68.703125 
L 28.609375 0 
L 18.3125 0 
L 43.21875 64.59375 
L 8.203125 64.59375 
z
" id="DejaVuSans-55"/>
      </defs>
      <g transform="translate(168.067549 433.351846)rotate(-30)scale(0.1 -0.1)">
       <use xlink:href="#DejaVuSans-50"/>
       <use x="63.623047" xlink:href="#DejaVuSans-48"/>
       <use x="127.246094" xlink:href="#DejaVuSans-49"/>
       <use x="190.869141" xlink:href="#DejaVuSans-56"/>
       <use x="254.492188" xlink:href="#DejaVuSans-45"/>
       <use x="290.576172" xlink:href="#DejaVuSans-48"/>
       <use x="354.199219" xlink:href="#DejaVuSans-55"/>
      </g>
     </g>
    </g>
    <g id="xtick_4">
     <g id="line2d_4">
      <g>
       <use style="stroke:#000000;stroke-width:0.8;" x="275.38362" xlink:href="#md7778c5487" y="398.88"/>
      </g>
     </g>
     <g id="text_4">
      <!-- 2018-10 -->
      <g transform="translate(238.1588 433.351846)rotate(-30)scale(0.1 -0.1)">
       <use xlink:href="#DejaVuSans-50"/>
       <use x="63.623047" xlink:href="#DejaVuSans-48"/>
       <use x="127.246094" xlink:href="#DejaVuSans-49"/>
       <use x="190.869141" xlink:href="#DejaVuSans-56"/>
       <use x="254.492188" xlink:href="#DejaVuSans-45"/>
       <use x="290.576172" xlink:href="#DejaVuSans-49"/>
       <use x="354.199219" xlink:href="#DejaVuSans-48"/>
      </g>
     </g>
    </g>
    <g id="xtick_5">
     <g id="line2d_5">
      <g>
       <use style="stroke:#000000;stroke-width:0.8;" x="345.474871" xlink:href="#md7778c5487" y="398.88"/>
      </g>
     </g>
     <g id="text_5">
      <!-- 2019-01 -->
      <defs>
       <path d="M 10.984375 1.515625 
L 10.984375 10.5 
Q 14.703125 8.734375 18.5 7.8125 
Q 22.3125 6.890625 25.984375 6.890625 
Q 35.75 6.890625 40.890625 13.453125 
Q 46.046875 20.015625 46.78125 33.40625 
Q 43.953125 29.203125 39.59375 26.953125 
Q 35.25 24.703125 29.984375 24.703125 
Q 19.046875 24.703125 12.671875 31.3125 
Q 6.296875 37.9375 6.296875 49.421875 
Q 6.296875 60.640625 12.9375 67.421875 
Q 19.578125 74.21875 30.609375 74.21875 
Q 43.265625 74.21875 49.921875 64.515625 
Q 56.59375 54.828125 56.59375 36.375 
Q 56.59375 19.140625 48.40625 8.859375 
Q 40.234375 -1.421875 26.421875 -1.421875 
Q 22.703125 -1.421875 18.890625 -0.6875 
Q 15.09375 0.046875 10.984375 1.515625 
z
M 30.609375 32.421875 
Q 37.25 32.421875 41.125 36.953125 
Q 45.015625 41.5 45.015625 49.421875 
Q 45.015625 57.28125 41.125 61.84375 
Q 37.25 66.40625 30.609375 66.40625 
Q 23.96875 66.40625 20.09375 61.84375 
Q 16.21875 57.28125 16.21875 49.421875 
Q 16.21875 41.5 20.09375 36.953125 
Q 23.96875 32.421875 30.609375 32.421875 
z
" id="DejaVuSans-57"/>
      </defs>
      <g transform="translate(308.25005 433.351846)rotate(-30)scale(0.1 -0.1)">
       <use xlink:href="#DejaVuSans-50"/>
       <use x="63.623047" xlink:href="#DejaVuSans-48"/>
       <use x="127.246094" xlink:href="#DejaVuSans-49"/>
       <use x="190.869141" xlink:href="#DejaVuSans-57"/>
       <use x="254.492188" xlink:href="#DejaVuSans-45"/>
       <use x="290.576172" xlink:href="#DejaVuSans-48"/>
       <use x="354.199219" xlink:href="#DejaVuSans-49"/>
      </g>
     </g>
    </g>
    <g id="xtick_6">
     <g id="line2d_6">
      <g>
       <use style="stroke:#000000;stroke-width:0.8;" x="414.042398" xlink:href="#md7778c5487" y="398.88"/>
      </g>
     </g>
     <g id="text_6">
      <!-- 2019-04 -->
      <g transform="translate(376.817578 433.351846)rotate(-30)scale(0.1 -0.1)">
       <use xlink:href="#DejaVuSans-50"/>
       <use x="63.623047" xlink:href="#DejaVuSans-48"/>
       <use x="127.246094" xlink:href="#DejaVuSans-49"/>
       <use x="190.869141" xlink:href="#DejaVuSans-57"/>
       <use x="254.492188" xlink:href="#DejaVuSans-45"/>
       <use x="290.576172" xlink:href="#DejaVuSans-48"/>
       <use x="354.199219" xlink:href="#DejaVuSans-52"/>
      </g>
     </g>
    </g>
    <g id="xtick_7">
     <g id="line2d_7">
      <g>
       <use style="stroke:#000000;stroke-width:0.8;" x="483.371787" xlink:href="#md7778c5487" y="398.88"/>
      </g>
     </g>
     <g id="text_7">
      <!-- 2019-07 -->
      <g transform="translate(446.146967 433.351846)rotate(-30)scale(0.1 -0.1)">
       <use xlink:href="#DejaVuSans-50"/>
       <use x="63.623047" xlink:href="#DejaVuSans-48"/>
       <use x="127.246094" xlink:href="#DejaVuSans-49"/>
       <use x="190.869141" xlink:href="#DejaVuSans-57"/>
       <use x="254.492188" xlink:href="#DejaVuSans-45"/>
       <use x="290.576172" xlink:href="#DejaVuSans-48"/>
       <use x="354.199219" xlink:href="#DejaVuSans-55"/>
      </g>
     </g>
    </g>
    <g id="xtick_8">
     <g id="line2d_8">
      <g>
       <use style="stroke:#000000;stroke-width:0.8;" x="553.463038" xlink:href="#md7778c5487" y="398.88"/>
      </g>
     </g>
     <g id="text_8">
      <!-- 2019-10 -->
      <g transform="translate(516.238217 433.351846)rotate(-30)scale(0.1 -0.1)">
       <use xlink:href="#DejaVuSans-50"/>
       <use x="63.623047" xlink:href="#DejaVuSans-48"/>
       <use x="127.246094" xlink:href="#DejaVuSans-49"/>
       <use x="190.869141" xlink:href="#DejaVuSans-57"/>
       <use x="254.492188" xlink:href="#DejaVuSans-45"/>
       <use x="290.576172" xlink:href="#DejaVuSans-49"/>
       <use x="354.199219" xlink:href="#DejaVuSans-48"/>
      </g>
     </g>
    </g>
    <g id="xtick_9">
     <g id="line2d_9">
      <g>
       <use style="stroke:#000000;stroke-width:0.8;" x="623.554288" xlink:href="#md7778c5487" y="398.88"/>
      </g>
     </g>
     <g id="text_9">
      <!-- 2020-01 -->
      <g transform="translate(586.329467 433.351846)rotate(-30)scale(0.1 -0.1)">
       <use xlink:href="#DejaVuSans-50"/>
       <use x="63.623047" xlink:href="#DejaVuSans-48"/>
       <use x="127.246094" xlink:href="#DejaVuSans-50"/>
       <use x="190.869141" xlink:href="#DejaVuSans-48"/>
       <use x="254.492188" xlink:href="#DejaVuSans-45"/>
       <use x="290.576172" xlink:href="#DejaVuSans-48"/>
       <use x="354.199219" xlink:href="#DejaVuSans-49"/>
      </g>
     </g>
    </g>
    <g id="xtick_10">
     <g id="line2d_10">
      <g>
       <use style="stroke:#000000;stroke-width:0.8;" x="692.883677" xlink:href="#md7778c5487" y="398.88"/>
      </g>
     </g>
     <g id="text_10">
      <!-- 2020-04 -->
      <g transform="translate(655.658856 433.351846)rotate(-30)scale(0.1 -0.1)">
       <use xlink:href="#DejaVuSans-50"/>
       <use x="63.623047" xlink:href="#DejaVuSans-48"/>
       <use x="127.246094" xlink:href="#DejaVuSans-50"/>
       <use x="190.869141" xlink:href="#DejaVuSans-48"/>
       <use x="254.492188" xlink:href="#DejaVuSans-45"/>
       <use x="290.576172" xlink:href="#DejaVuSans-48"/>
       <use x="354.199219" xlink:href="#DejaVuSans-52"/>
      </g>
     </g>
    </g>
    <g id="text_11">
     <!-- Date -->
     <defs>
      <path d="M 19.671875 64.796875 
L 19.671875 8.109375 
L 31.59375 8.109375 
Q 46.6875 8.109375 53.6875 14.9375 
Q 60.6875 21.78125 60.6875 36.53125 
Q 60.6875 51.171875 53.6875 57.984375 
Q 46.6875 64.796875 31.59375 64.796875 
z
M 9.8125 72.90625 
L 30.078125 72.90625 
Q 51.265625 72.90625 61.171875 64.09375 
Q 71.09375 55.28125 71.09375 36.53125 
Q 71.09375 17.671875 61.125 8.828125 
Q 51.171875 0 30.078125 0 
L 9.8125 0 
z
" id="DejaVuSans-68"/>
      <path d="M 34.28125 27.484375 
Q 23.390625 27.484375 19.1875 25 
Q 14.984375 22.515625 14.984375 16.5 
Q 14.984375 11.71875 18.140625 8.90625 
Q 21.296875 6.109375 26.703125 6.109375 
Q 34.1875 6.109375 38.703125 11.40625 
Q 43.21875 16.703125 43.21875 25.484375 
L 43.21875 27.484375 
z
M 52.203125 31.203125 
L 52.203125 0 
L 43.21875 0 
L 43.21875 8.296875 
Q 40.140625 3.328125 35.546875 0.953125 
Q 30.953125 -1.421875 24.3125 -1.421875 
Q 15.921875 -1.421875 10.953125 3.296875 
Q 6 8.015625 6 15.921875 
Q 6 25.140625 12.171875 29.828125 
Q 18.359375 34.515625 30.609375 34.515625 
L 43.21875 34.515625 
L 43.21875 35.40625 
Q 43.21875 41.609375 39.140625 45 
Q 35.0625 48.390625 27.6875 48.390625 
Q 23 48.390625 18.546875 47.265625 
Q 14.109375 46.140625 10.015625 43.890625 
L 10.015625 52.203125 
Q 14.9375 54.109375 19.578125 55.046875 
Q 24.21875 56 28.609375 56 
Q 40.484375 56 46.34375 49.84375 
Q 52.203125 43.703125 52.203125 31.203125 
z
" id="DejaVuSans-97"/>
      <path d="M 18.3125 70.21875 
L 18.3125 54.6875 
L 36.8125 54.6875 
L 36.8125 47.703125 
L 18.3125 47.703125 
L 18.3125 18.015625 
Q 18.3125 11.328125 20.140625 9.421875 
Q 21.96875 7.515625 27.59375 7.515625 
L 36.8125 7.515625 
L 36.8125 0 
L 27.59375 0 
Q 17.1875 0 13.234375 3.875 
Q 9.28125 7.765625 9.28125 18.015625 
L 9.28125 47.703125 
L 2.6875 47.703125 
L 2.6875 54.6875 
L 9.28125 54.6875 
L 9.28125 70.21875 
z
" id="DejaVuSans-116"/>
      <path d="M 56.203125 29.59375 
L 56.203125 25.203125 
L 14.890625 25.203125 
Q 15.484375 15.921875 20.484375 11.0625 
Q 25.484375 6.203125 34.421875 6.203125 
Q 39.59375 6.203125 44.453125 7.46875 
Q 49.3125 8.734375 54.109375 11.28125 
L 54.109375 2.78125 
Q 49.265625 0.734375 44.1875 -0.34375 
Q 39.109375 -1.421875 33.890625 -1.421875 
Q 20.796875 -1.421875 13.15625 6.1875 
Q 5.515625 13.8125 5.515625 26.8125 
Q 5.515625 40.234375 12.765625 48.109375 
Q 20.015625 56 32.328125 56 
Q 43.359375 56 49.78125 48.890625 
Q 56.203125 41.796875 56.203125 29.59375 
z
M 47.21875 32.234375 
Q 47.125 39.59375 43.09375 43.984375 
Q 39.0625 48.390625 32.421875 48.390625 
Q 24.90625 48.390625 20.390625 44.140625 
Q 15.875 39.890625 15.1875 32.171875 
z
" id="DejaVuSans-101"/>
     </defs>
     <g transform="translate(361.332031 446.751346)scale(0.1 -0.1)">
      <use xlink:href="#DejaVuSans-68"/>
      <use x="77.001953" xlink:href="#DejaVuSans-97"/>
      <use x="138.28125" xlink:href="#DejaVuSans-116"/>
      <use x="177.490234" xlink:href="#DejaVuSans-101"/>
     </g>
    </g>
   </g>
   <g id="matplotlib.axis_2">
    <g id="ytick_1">
     <g id="line2d_11">
      <defs>
       <path d="M 0 0 
L -3.5 0 
" id="m6e0f57fcae" style="stroke:#000000;stroke-width:0.8;"/>
      </defs>
      <g>
       <use style="stroke:#000000;stroke-width:0.8;" x="38.482813" xlink:href="#m6e0f57fcae" y="366.287952"/>
      </g>
     </g>
     <g id="text_12">
      <!-- −0.3 -->
      <defs>
       <path d="M 10.59375 35.5 
L 73.1875 35.5 
L 73.1875 27.203125 
L 10.59375 27.203125 
z
" id="DejaVuSans-8722"/>
       <path d="M 10.6875 12.40625 
L 21 12.40625 
L 21 0 
L 10.6875 0 
z
" id="DejaVuSans-46"/>
       <path d="M 40.578125 39.3125 
Q 47.65625 37.796875 51.625 33 
Q 55.609375 28.21875 55.609375 21.1875 
Q 55.609375 10.40625 48.1875 4.484375 
Q 40.765625 -1.421875 27.09375 -1.421875 
Q 22.515625 -1.421875 17.65625 -0.515625 
Q 12.796875 0.390625 7.625 2.203125 
L 7.625 11.71875 
Q 11.71875 9.328125 16.59375 8.109375 
Q 21.484375 6.890625 26.8125 6.890625 
Q 36.078125 6.890625 40.9375 10.546875 
Q 45.796875 14.203125 45.796875 21.1875 
Q 45.796875 27.640625 41.28125 31.265625 
Q 36.765625 34.90625 28.71875 34.90625 
L 20.21875 34.90625 
L 20.21875 43.015625 
L 29.109375 43.015625 
Q 36.375 43.015625 40.234375 45.921875 
Q 44.09375 48.828125 44.09375 54.296875 
Q 44.09375 59.90625 40.109375 62.90625 
Q 36.140625 65.921875 28.71875 65.921875 
Q 24.65625 65.921875 20.015625 65.03125 
Q 15.375 64.15625 9.8125 62.3125 
L 9.8125 71.09375 
Q 15.4375 72.65625 20.34375 73.4375 
Q 25.25 74.21875 29.59375 74.21875 
Q 40.828125 74.21875 47.359375 69.109375 
Q 53.90625 64.015625 53.90625 55.328125 
Q 53.90625 49.265625 50.4375 45.09375 
Q 46.96875 40.921875 40.578125 39.3125 
z
" id="DejaVuSans-51"/>
      </defs>
      <g transform="translate(7.2 370.087171)scale(0.1 -0.1)">
       <use xlink:href="#DejaVuSans-8722"/>
       <use x="83.789062" xlink:href="#DejaVuSans-48"/>
       <use x="147.412109" xlink:href="#DejaVuSans-46"/>
       <use x="179.199219" xlink:href="#DejaVuSans-51"/>
      </g>
     </g>
    </g>
    <g id="ytick_2">
     <g id="line2d_12">
      <g>
       <use style="stroke:#000000;stroke-width:0.8;" x="38.482813" xlink:href="#m6e0f57fcae" y="291.001599"/>
      </g>
     </g>
     <g id="text_13">
      <!-- −0.2 -->
      <g transform="translate(7.2 294.800818)scale(0.1 -0.1)">
       <use xlink:href="#DejaVuSans-8722"/>
       <use x="83.789062" xlink:href="#DejaVuSans-48"/>
       <use x="147.412109" xlink:href="#DejaVuSans-46"/>
       <use x="179.199219" xlink:href="#DejaVuSans-50"/>
      </g>
     </g>
    </g>
    <g id="ytick_3">
     <g id="line2d_13">
      <g>
       <use style="stroke:#000000;stroke-width:0.8;" x="38.482813" xlink:href="#m6e0f57fcae" y="215.715247"/>
      </g>
     </g>
     <g id="text_14">
      <!-- −0.1 -->
      <g transform="translate(7.2 219.514465)scale(0.1 -0.1)">
       <use xlink:href="#DejaVuSans-8722"/>
       <use x="83.789062" xlink:href="#DejaVuSans-48"/>
       <use x="147.412109" xlink:href="#DejaVuSans-46"/>
       <use x="179.199219" xlink:href="#DejaVuSans-49"/>
      </g>
     </g>
    </g>
    <g id="ytick_4">
     <g id="line2d_14">
      <g>
       <use style="stroke:#000000;stroke-width:0.8;" x="38.482813" xlink:href="#m6e0f57fcae" y="140.428894"/>
      </g>
     </g>
     <g id="text_15">
      <!-- 0.0 -->
      <g transform="translate(15.579688 144.228112)scale(0.1 -0.1)">
       <use xlink:href="#DejaVuSans-48"/>
       <use x="63.623047" xlink:href="#DejaVuSans-46"/>
       <use x="95.410156" xlink:href="#DejaVuSans-48"/>
      </g>
     </g>
    </g>
    <g id="ytick_5">
     <g id="line2d_15">
      <g>
       <use style="stroke:#000000;stroke-width:0.8;" x="38.482813" xlink:href="#m6e0f57fcae" y="65.142541"/>
      </g>
     </g>
     <g id="text_16">
      <!-- 0.1 -->
      <g transform="translate(15.579688 68.94176)scale(0.1 -0.1)">
       <use xlink:href="#DejaVuSans-48"/>
       <use x="63.623047" xlink:href="#DejaVuSans-46"/>
       <use x="95.410156" xlink:href="#DejaVuSans-49"/>
      </g>
     </g>
    </g>
   </g>
   <g id="line2d_16">
    <path clip-path="url(#pe37842560d)" d="M 68.919176 129.803117 
L 69.681038 139.812654 
L 70.442899 131.807266 
L 72.728483 132.208988 
L 73.490345 153.980616 
L 74.252206 151.162049 
L 75.014067 141.051131 
L 75.775929 142.919762 
L 78.061513 151.36253 
L 78.823375 117.288255 
L 79.585236 109.059624 
L 80.347097 115.33351 
L 81.108959 131.857278 
L 83.394543 119.806438 
L 84.156404 143.728397 
L 84.918266 147.609651 
L 85.680127 140.428894 
L 86.441989 152.418888 
L 88.727573 156.863314 
L 89.489434 129.131458 
L 90.251296 126.15944 
L 91.013157 137.908188 
L 91.775019 161.364933 
L 94.060603 167.70666 
L 94.822464 144.897736 
L 95.584326 132.037018 
L 96.346187 172.440541 
L 97.108049 146.000981 
L 101.679217 118.285894 
L 102.441079 155.274137 
L 104.726663 142.901287 
L 105.488524 133.917416 
L 106.250386 134.895138 
L 107.012247 160.265306 
L 107.774108 120.682732 
L 110.059693 151.729453 
L 110.821554 143.219597 
L 111.583416 140.428894 
L 112.345277 140.117646 
L 113.107138 150.073015 
L 115.392723 135.386612 
L 116.154584 153.889592 
L 116.916445 131.504378 
L 117.678307 142.0038 
L 118.440168 167.891945 
L 120.725753 144.687792 
L 121.487614 125.602363 
L 122.249475 151.73808 
L 123.011337 161.784183 
L 123.773198 131.842373 
L 126.820644 126.072828 
L 127.582505 162.706855 
L 128.344367 153.595444 
L 129.106228 161.045826 
L 131.391812 151.38096 
L 132.153674 147.59919 
L 132.915535 141.152617 
L 133.677397 143.689829 
L 136.724842 149.161848 
L 137.486704 138.956347 
L 138.248565 156.595611 
L 139.010427 139.302451 
L 139.772288 135.180014 
L 142.057872 131.865107 
L 142.819734 165.094866 
L 143.581595 143.473829 
L 144.343456 148.072188 
L 145.105318 169.771185 
L 147.390902 136.009969 
L 148.152764 133.23962 
L 148.914625 140.428894 
L 149.676486 149.52811 
L 150.438348 134.421929 
L 152.723932 150.360988 
L 153.485793 116.273089 
L 154.247655 144.32979 
L 155.009516 132.586467 
L 155.771378 157.89218 
L 158.056962 130.4968 
L 159.580685 141.212927 
L 160.342546 187.139514 
L 161.104408 164.701327 
L 163.389992 127.023509 
L 164.151853 122.159462 
L 164.913715 152.873025 
L 165.675576 129.884503 
L 166.437438 141.26076 
L 168.723022 137.514048 
L 169.484883 157.850751 
L 170.246745 149.345963 
L 171.008606 162.774301 
L 171.770468 142.642881 
L 174.056052 151.089107 
L 174.817913 138.176082 
L 175.579775 138.182853 
L 176.341636 117.139891 
L 177.103497 148.248538 
L 179.389082 151.84264 
L 180.150943 157.81304 
L 180.912805 119.895996 
L 182.436527 125.3273 
L 184.722112 155.233524 
L 185.483973 162.637329 
L 186.245834 151.870678 
L 187.007696 149.723413 
L 187.769557 120.66634 
L 190.055142 168.856196 
L 190.817003 159.012169 
L 191.578864 180.978921 
L 192.340726 101.701387 
L 193.102587 146.813214 
L 195.388171 147.858614 
L 196.150033 95.407149 
L 196.911894 123.908171 
L 197.673756 159.827924 
L 198.435617 166.504147 
L 200.721201 136.991217 
L 201.483063 124.784989 
L 202.244924 124.624481 
L 203.006786 124.011314 
L 203.768647 134.92016 
L 206.054231 149.830997 
L 206.816093 148.329237 
L 207.577954 141.837863 
L 208.339816 140.428894 
L 209.101677 142.311129 
L 212.149123 100.332645 
L 212.910984 154.760657 
L 213.672845 144.53794 
L 214.434707 117.475794 
L 216.720291 104.790311 
L 217.482153 140.428894 
L 218.244014 170.203356 
L 219.005875 142.200116 
L 219.767737 133.326463 
L 222.053321 143.946945 
L 222.815183 145.730867 
L 224.338905 165.872663 
L 225.100767 140.89912 
L 227.386351 145.134404 
L 228.148212 213.821142 
L 228.910074 129.411381 
L 229.671935 146.116839 
L 230.433797 142.512915 
L 232.719381 170.731512 
L 233.481242 170.369177 
L 234.243104 99.611026 
L 235.004965 113.540976 
L 235.766827 160.159082 
L 238.052411 128.165464 
L 238.814272 102.129967 
L 239.576134 153.908639 
L 240.337995 131.786834 
L 241.099857 156.009021 
L 243.385441 151.205969 
L 244.147302 143.032162 
L 244.909164 121.620294 
L 245.671025 134.312229 
L 246.432886 136.383962 
L 248.718471 126.347261 
L 249.480332 140.428894 
L 250.242194 137.466824 
L 251.004055 143.87119 
L 251.765916 147.34489 
L 254.051501 151.896473 
L 254.813362 141.947665 
L 255.575223 147.024005 
L 256.337085 170.625404 
L 259.384531 120.167724 
L 260.146392 148.217038 
L 260.908253 132.559341 
L 261.670115 156.00547 
L 262.431976 145.730527 
L 264.71756 106.05363 
L 265.479422 157.937433 
L 266.241283 164.8724 
L 267.003145 181.412636 
L 267.765006 129.147784 
L 270.05059 153.298316 
L 270.812452 146.975544 
L 271.574313 137.426953 
L 272.336175 139.83089 
L 273.098036 158.063272 
L 275.38362 146.574883 
L 276.145482 100.152106 
L 276.907343 171.014037 
L 277.669205 139.202712 
L 278.431066 140.428894 
L 280.71665 109.824638 
L 281.478512 168.07324 
L 282.240373 136.154594 
L 286.04968 148.302642 
L 286.811542 126.350987 
L 287.573403 130.214488 
L 288.335264 142.800156 
L 289.097126 141.618019 
L 291.38271 127.921052 
L 292.144572 153.318349 
L 292.906433 160.099918 
L 293.668294 158.791395 
L 294.430156 131.018212 
L 296.71574 126.177053 
L 297.477601 125.225681 
L 298.239463 106.451756 
L 299.001324 156.969047 
L 302.04877 115.936013 
L 302.810631 165.279651 
L 303.572493 180.145483 
L 304.334354 212.570615 
L 305.096216 170.434239 
L 307.3818 145.40079 
L 308.143661 151.868377 
L 308.905523 179.632849 
L 310.429246 146.556143 
L 312.71483 178.265001 
L 314.238553 131.485616 
L 315.000414 148.46377 
L 315.762275 142.053136 
L 318.04786 181.124369 
L 318.809721 153.335066 
L 319.571583 94.906811 
L 320.333444 157.764676 
L 321.095305 88.886002 
L 323.38089 129.357356 
L 324.142751 150.560517 
L 324.904612 160.968802 
L 325.666474 111.191338 
L 326.428335 152.155848 
L 328.71392 172.195304 
L 329.475781 134.624872 
L 330.237642 123.972851 
L 330.999504 147.675657 
L 331.761365 125.794416 
L 334.046949 117.762998 
L 334.808811 148.395773 
L 335.570672 125.130002 
L 336.332534 174.503926 
L 337.094395 136.269324 
L 340.903702 158.629964 
L 341.665564 155.689548 
L 342.427425 123.987282 
L 346.236732 77.76069 
L 346.998594 158.410068 
L 347.760455 80.360238 
L 350.046039 147.104379 
L 350.807901 165.873586 
L 351.569762 108.672297 
L 352.331624 69.081484 
L 353.093485 166.225824 
L 355.379069 127.07296 
L 356.140931 168.056823 
L 356.902792 159.071191 
L 357.664653 122.783685 
L 358.426515 144.739082 
L 360.712099 123.811049 
L 361.473961 158.101821 
L 362.235822 154.183087 
L 362.997683 105.772119 
L 366.045129 125.625161 
L 366.80699 103.788346 
L 367.568852 129.221475 
L 368.330713 117.693759 
L 369.092575 134.754109 
L 371.378159 159.829348 
L 372.14002 175.117005 
L 372.901882 196.321303 
L 373.663743 114.969858 
L 374.425605 147.465032 
L 376.711189 107.757432 
L 377.47305 139.748015 
L 378.234912 146.549802 
L 378.996773 118.487508 
L 379.758635 163.081492 
L 382.044219 161.03649 
L 382.80608 129.128873 
L 383.567942 120.946262 
L 384.329803 153.994129 
L 385.091664 109.347164 
L 387.377249 153.234124 
L 388.13911 108.656603 
L 388.900972 155.671827 
L 389.662833 158.01592 
L 390.424694 145.277163 
L 394.995863 149.491201 
L 395.757724 128.433814 
L 398.043309 120.982215 
L 398.80517 150.584454 
L 399.567031 152.782148 
L 400.328893 147.406355 
L 401.090754 151.697139 
L 403.376338 121.124735 
L 404.1382 118.121804 
L 404.900061 162.771072 
L 405.661923 170.431843 
L 406.423784 170.223699 
L 408.709368 166.911502 
L 409.47123 140.428894 
L 410.233091 160.81893 
L 410.994953 121.889469 
L 411.756814 142.448826 
L 414.042398 130.908774 
L 414.80426 177.249545 
L 415.566121 165.140005 
L 416.327983 96.994411 
L 417.089844 144.454831 
L 419.375428 147.714734 
L 420.899151 111.472503 
L 421.661013 166.763655 
L 422.422874 150.863076 
L 424.708458 159.148723 
L 425.47032 139.594198 
L 426.232181 151.267502 
L 426.994042 195.41327 
L 430.041488 161.417747 
L 430.80335 109.450679 
L 431.565211 173.789367 
L 432.327072 145.146188 
L 433.088934 162.26476 
L 435.374518 118.918428 
L 436.136379 163.243047 
L 437.660102 159.054332 
L 438.421964 151.485599 
L 440.707548 119.006012 
L 441.469409 149.356159 
L 442.231271 108.306662 
L 442.993132 152.944527 
L 443.754994 155.114123 
L 446.040578 158.401724 
L 446.802439 137.360231 
L 447.564301 138.39139 
L 448.326162 166.845158 
L 449.088024 173.070541 
L 451.373608 128.321422 
L 452.135469 125.263306 
L 452.897331 118.129651 
L 453.659192 119.802552 
L 454.421053 132.398361 
L 456.706638 173.205272 
L 457.468499 160.159012 
L 458.230361 172.420332 
L 458.992222 140.428894 
L 459.754083 147.111063 
L 462.039668 137.057945 
L 462.801529 154.971633 
L 464.325252 113.298714 
L 465.087113 162.250914 
L 467.372698 155.036804 
L 468.134559 136.991187 
L 468.89642 154.289792 
L 469.658282 109.843929 
L 470.420143 147.211372 
L 472.705728 138.147515 
L 473.467589 125.644564 
L 474.22945 129.275321 
L 475.753173 93.168843 
L 478.038757 143.570059 
L 478.800619 163.529371 
L 479.56248 141.512166 
L 480.324342 145.852952 
L 481.086203 153.699956 
L 483.371787 144.910292 
L 484.133649 155.080382 
L 484.89551 103.647769 
L 485.657372 126.182509 
L 486.419233 154.410701 
L 488.704817 125.086674 
L 490.22854 109.283371 
L 490.990402 123.927723 
L 491.752263 163.640516 
L 494.037847 160.213689 
L 494.799709 143.637116 
L 495.56157 146.872799 
L 496.323431 167.510361 
L 497.085293 142.676282 
L 499.370877 104.363458 
L 500.132739 167.31687 
L 500.8946 43.39324 
L 501.656461 151.296978 
L 502.418323 153.461157 
L 504.703907 148.590042 
L 505.465768 131.147022 
L 506.22763 155.71023 
L 506.989491 25.003636 
L 507.751353 172.887737 
L 510.036937 159.274098 
L 510.798798 126.898592 
L 511.56066 142.327604 
L 512.322521 163.271808 
L 513.084383 136.502652 
L 515.369967 158.981951 
L 516.131828 129.416191 
L 516.89369 152.26951 
L 517.655551 151.456164 
L 518.417413 147.550586 
L 520.702997 147.618547 
L 521.464858 106.207856 
L 522.22672 104.720031 
L 522.988581 171.679808 
L 523.750442 177.973222 
L 526.036027 134.189749 
L 526.797888 148.679479 
L 527.55975 136.257791 
L 528.321611 116.577884 
L 529.083472 114.294818 
L 531.369057 155.971839 
L 532.130918 129.517901 
L 532.89278 119.896174 
L 533.654641 155.657533 
L 534.416502 140.428894 
L 536.702087 165.686214 
L 537.463948 137.41347 
L 538.225809 122.408239 
L 538.987671 139.451134 
L 539.749532 146.936079 
L 542.035117 95.0994 
L 542.796978 129.275442 
L 543.558839 72.65288 
L 544.320701 179.080306 
L 545.082562 150.171705 
L 547.368146 120.687801 
L 548.130008 143.052009 
L 548.891869 156.382912 
L 549.653731 146.725268 
L 550.415592 173.990293 
L 552.701176 133.783162 
L 554.224899 173.953298 
L 554.986761 109.351976 
L 555.748622 151.019113 
L 558.034206 147.26421 
L 558.796068 154.224829 
L 559.557929 125.371558 
L 560.319791 158.143424 
L 561.081652 112.209047 
L 563.367236 137.514552 
L 564.129098 159.782733 
L 564.890959 133.476301 
L 565.65282 145.349623 
L 566.414682 135.475791 
L 568.700266 135.508306 
L 569.462128 121.851729 
L 570.223989 146.154062 
L 570.98585 158.697624 
L 571.747712 115.793326 
L 574.033296 148.062436 
L 574.795157 127.897239 
L 575.557019 167.926404 
L 576.31888 149.286112 
L 577.080742 156.36254 
L 579.366326 128.220312 
L 580.128187 152.442658 
L 580.890049 142.928534 
L 581.65191 112.810267 
L 582.413772 129.575093 
L 584.699356 113.193409 
L 585.461217 147.000093 
L 586.223079 134.746856 
L 586.98494 151.707799 
L 590.032386 163.329609 
L 590.794247 140.428894 
L 592.31797 141.4131 
L 593.079832 151.268488 
L 595.365416 111.434158 
L 596.127277 163.534739 
L 596.889139 152.347538 
L 597.651 112.171362 
L 598.412861 134.592692 
L 600.698446 143.324548 
L 601.460307 134.615272 
L 602.222169 154.851507 
L 602.98403 101.217277 
L 603.745891 141.360723 
L 606.031476 133.898363 
L 606.793337 144.128471 
L 607.555198 126.487036 
L 608.31706 126.740523 
L 609.078921 106.370801 
L 611.364506 179.015218 
L 612.126367 98.854215 
L 612.888228 144.711376 
L 613.65009 157.656902 
L 614.411951 146.599847 
L 616.697535 135.09578 
L 618.98312 125.424592 
L 619.744981 154.274668 
L 622.030565 155.415627 
L 624.31615 120.495998 
L 625.078011 150.092222 
L 628.125457 162.330343 
L 628.887318 157.347226 
L 629.64918 186.581466 
L 630.411041 135.307314 
L 632.696625 137.376768 
L 633.458487 134.349288 
L 634.220348 162.542353 
L 634.982209 137.322141 
L 635.744071 147.648128 
L 638.029655 159.172391 
L 638.791517 156.447247 
L 639.553378 112.060183 
L 640.315239 144.634804 
L 641.077101 153.11761 
L 643.362685 140.428894 
L 644.124546 113.540909 
L 644.886408 170.543405 
L 645.648269 126.366791 
L 646.410131 141.607762 
L 648.695715 130.845093 
L 649.457576 161.458582 
L 650.981299 105.138424 
L 651.743161 141.450393 
L 654.028745 152.703879 
L 654.790606 151.867393 
L 655.552468 120.366606 
L 656.314329 152.770956 
L 657.076191 131.018083 
L 659.361775 145.592587 
L 660.123636 123.790991 
L 660.885498 135.342007 
L 661.647359 165.692771 
L 662.409221 156.113511 
L 666.980389 200.230863 
L 667.74225 98.667572 
L 670.027835 115.150262 
L 670.789696 127.668507 
L 671.551558 122.652941 
L 672.313419 190.48357 
L 673.07528 175.44582 
L 675.360865 202.402412 
L 676.122726 100.409548 
L 676.884587 187.92818 
L 677.646449 298.859769 
L 677.646449 298.859769 
" style="fill:none;stroke:#1f77b4;stroke-linecap:square;stroke-width:1.5;"/>
   </g>
   <g id="line2d_17">
    <path clip-path="url(#pe37842560d)" d="M 68.919176 127.612806 
L 69.681038 135.582101 
L 70.442899 129.51313 
L 72.728483 136.947826 
L 73.490345 151.139131 
L 74.252206 147.139418 
L 75.014067 128.176698 
L 75.775929 144.236054 
L 78.061513 138.196833 
L 78.823375 135.341983 
L 79.585236 134.112819 
L 80.347097 131.660158 
L 81.108959 123.093333 
L 83.394543 144.36246 
L 84.156404 145.600221 
L 84.918266 100.917293 
L 85.680127 140.428894 
L 86.441989 126.460104 
L 88.727573 139.285985 
L 89.489434 145.849295 
L 90.251296 143.877018 
L 91.013157 134.94418 
L 91.775019 148.166603 
L 94.060603 171.99131 
L 94.822464 138.011059 
L 95.584326 150.069454 
L 96.346187 146.837547 
L 97.108049 154.895034 
L 101.679217 105.280724 
L 102.441079 127.536333 
L 104.726663 141.60799 
L 105.488524 130.095526 
L 106.250386 116.838258 
L 107.012247 150.312649 
L 107.774108 120.398303 
L 110.059693 134.854268 
L 110.821554 160.073608 
L 111.583416 165.429591 
L 112.345277 141.310544 
L 113.107138 131.897115 
L 115.392723 131.119807 
L 116.154584 138.992064 
L 116.916445 143.296964 
L 117.678307 142.156282 
L 118.440168 114.16955 
L 120.725753 141.265482 
L 121.487614 142.103818 
L 122.249475 153.578089 
L 123.011337 152.957522 
L 123.773198 147.668071 
L 126.058782 145.984016 
L 126.820644 125.70148 
L 129.106228 156.3671 
L 131.391812 133.619672 
L 132.153674 142.482752 
L 132.915535 125.424576 
L 133.677397 123.410051 
L 136.724842 146.07047 
L 137.486704 141.565705 
L 138.248565 148.398721 
L 139.010427 123.167984 
L 139.772288 139.30403 
L 142.057872 157.55854 
L 142.819734 138.130105 
L 143.581595 132.693955 
L 144.343456 130.787721 
L 145.105318 153.587869 
L 147.390902 170.0647 
L 148.152764 131.826402 
L 148.914625 123.418339 
L 149.676486 145.878204 
L 150.438348 150.82919 
L 152.723932 139.257078 
L 153.485793 150.472365 
L 154.247655 147.570709 
L 155.009516 122.102873 
L 155.771378 135.736271 
L 158.056962 155.876888 
L 159.580685 160.961456 
L 160.342546 154.195204 
L 161.104408 144.168202 
L 163.389992 142.30807 
L 164.151853 143.254426 
L 164.913715 135.071459 
L 165.675576 121.02844 
L 166.437438 173.374326 
L 168.723022 150.318225 
L 169.484883 156.268538 
L 170.246745 131.183155 
L 171.008606 172.069995 
L 171.770468 134.64022 
L 174.056052 144.821811 
L 174.817913 99.64162 
L 175.579775 180.732078 
L 176.341636 157.462073 
L 177.103497 160.644638 
L 179.389082 157.978954 
L 180.150943 133.09475 
L 180.912805 102.658511 
L 182.436527 123.829247 
L 184.722112 121.14199 
L 185.483973 163.522878 
L 186.245834 164.594025 
L 187.007696 190.010419 
L 187.769557 108.808543 
L 190.055142 155.601805 
L 190.817003 119.044953 
L 191.578864 152.259498 
L 192.340726 159.368938 
L 193.102587 153.879419 
L 195.388171 162.493803 
L 196.150033 112.211179 
L 196.911894 146.095005 
L 197.673756 148.422017 
L 198.435617 125.040825 
L 200.721201 113.284989 
L 201.483063 142.248416 
L 202.244924 156.478138 
L 203.006786 120.036994 
L 203.768647 142.997037 
L 206.054231 133.434045 
L 206.816093 131.309958 
L 207.577954 131.419088 
L 208.339816 145.058576 
L 209.101677 113.912023 
L 212.149123 118.967925 
L 212.910984 140.092501 
L 213.672845 117.553588 
L 214.434707 115.616418 
L 216.720291 150.542859 
L 217.482153 126.332745 
L 218.244014 163.071467 
L 219.005875 144.319586 
L 219.767737 135.540248 
L 222.053321 148.848011 
L 222.815183 132.241949 
L 223.577044 122.935493 
L 224.338905 147.710648 
L 225.100767 137.231987 
L 227.386351 137.245569 
L 228.148212 139.160938 
L 228.910074 144.226429 
L 229.671935 126.752028 
L 230.433797 113.875648 
L 232.719381 147.36906 
L 233.481242 162.357017 
L 234.243104 158.309228 
L 235.004965 145.891481 
L 235.766827 155.96522 
L 238.052411 136.462987 
L 238.814272 126.292217 
L 239.576134 144.946665 
L 240.337995 139.455011 
L 241.099857 162.152265 
L 243.385441 139.093463 
L 244.147302 153.426567 
L 244.909164 132.628888 
L 245.671025 184.063547 
L 246.432886 140.785099 
L 248.718471 117.971309 
L 249.480332 142.159633 
L 250.242194 121.347038 
L 251.004055 160.054156 
L 251.765916 137.302035 
L 254.051501 155.652354 
L 254.813362 154.907022 
L 255.575223 107.664431 
L 256.337085 139.738805 
L 259.384531 139.049912 
L 260.146392 168.644105 
L 260.908253 135.424165 
L 261.670115 140.428894 
L 262.431976 125.158544 
L 264.71756 123.373734 
L 265.479422 137.706045 
L 266.241283 135.681096 
L 267.003145 129.307843 
L 267.765006 126.148659 
L 270.05059 145.153976 
L 270.812452 150.343727 
L 271.574313 136.410021 
L 272.336175 114.778157 
L 273.098036 139.462486 
L 275.38362 154.906997 
L 276.145482 109.264656 
L 276.907343 128.77366 
L 277.669205 134.224865 
L 278.431066 147.197627 
L 280.71665 126.458147 
L 281.478512 128.236787 
L 283.002235 170.179068 
L 286.04968 131.263021 
L 286.811542 112.637609 
L 287.573403 131.394557 
L 288.335264 171.079025 
L 289.097126 147.253466 
L 291.38271 123.211544 
L 292.144572 128.187226 
L 292.906433 153.378153 
L 293.668294 142.573794 
L 294.430156 113.387237 
L 296.71574 148.734736 
L 297.477601 101.435996 
L 298.239463 136.436398 
L 299.001324 114.898498 
L 302.04877 145.641884 
L 302.810631 151.203801 
L 303.572493 165.935484 
L 305.096216 136.3034 
L 307.3818 134.567848 
L 308.143661 144.500036 
L 308.905523 133.119482 
L 310.429246 103.075261 
L 312.71483 168.84411 
L 314.238553 129.247772 
L 315.000414 142.123824 
L 315.762275 145.808527 
L 318.04786 140.714076 
L 318.809721 92.786589 
L 319.571583 136.672537 
L 320.333444 128.415149 
L 321.095305 152.253942 
L 323.38089 141.76379 
L 324.142751 147.115069 
L 324.904612 132.06376 
L 325.666474 130.287545 
L 326.428335 142.798773 
L 328.71392 166.581034 
L 329.475781 138.239598 
L 330.237642 125.147829 
L 330.999504 152.463925 
L 331.761365 149.941671 
L 334.046949 155.568829 
L 334.808811 144.642671 
L 335.570672 154.271348 
L 336.332534 142.155686 
L 337.094395 121.967894 
L 340.903702 154.135901 
L 342.427425 121.722433 
L 346.236732 112.909018 
L 346.998594 107.648621 
L 347.760455 167.687746 
L 350.046039 144.469284 
L 350.807901 138.262506 
L 351.569762 136.918296 
L 352.331624 133.44055 
L 353.093485 124.450169 
L 355.379069 123.739153 
L 356.140931 147.827439 
L 356.902792 124.196702 
L 357.664653 136.645681 
L 358.426515 130.390753 
L 360.712099 137.952318 
L 361.473961 158.448224 
L 362.235822 116.404077 
L 362.997683 117.637099 
L 366.045129 126.632395 
L 366.80699 156.313074 
L 367.568852 142.337881 
L 368.330713 140.428894 
L 369.092575 129.18493 
L 371.378159 132.650346 
L 372.14002 123.864633 
L 372.901882 158.234552 
L 373.663743 168.485991 
L 374.425605 132.414432 
L 376.711189 153.645493 
L 377.47305 132.112664 
L 378.234912 142.364258 
L 378.996773 108.412838 
L 379.758635 141.359496 
L 382.044219 148.581794 
L 382.80608 120.883149 
L 383.567942 146.167256 
L 384.329803 145.054788 
L 385.091664 120.880031 
L 387.377249 134.531183 
L 388.13911 131.426121 
L 388.900972 151.994156 
L 389.662833 152.626549 
L 390.424694 161.322687 
L 394.995863 159.085113 
L 395.757724 127.836742 
L 398.043309 109.70473 
L 398.80517 136.996269 
L 399.567031 135.189771 
L 400.328893 142.691062 
L 401.090754 124.772659 
L 403.376338 129.537044 
L 404.1382 133.417335 
L 404.900061 154.105583 
L 405.661923 153.252867 
L 406.423784 161.123161 
L 408.709368 142.047998 
L 409.47123 121.421833 
L 410.233091 182.20384 
L 410.994953 121.167978 
L 411.756814 139.255107 
L 414.042398 129.646869 
L 414.80426 138.580279 
L 415.566121 165.785609 
L 416.327983 112.279982 
L 417.089844 136.749554 
L 419.375428 138.140724 
L 420.13729 162.786574 
L 420.899151 137.607453 
L 421.661013 157.294559 
L 422.422874 158.160223 
L 424.708458 128.895409 
L 425.47032 133.178267 
L 426.232181 148.807284 
L 426.994042 119.852297 
L 430.041488 140.428894 
L 430.80335 119.457161 
L 431.565211 125.298289 
L 432.327072 111.887424 
L 433.088934 154.503148 
L 435.374518 134.250535 
L 436.136379 139.334739 
L 437.660102 152.448322 
L 438.421964 136.653587 
L 440.707548 148.604891 
L 441.469409 141.322591 
L 442.231271 124.995843 
L 442.993132 150.291646 
L 443.754994 153.754051 
L 446.040578 162.13298 
L 446.802439 134.3763 
L 447.564301 142.738256 
L 448.326162 154.327924 
L 451.373608 116.441801 
L 452.135469 103.372615 
L 452.897331 147.887363 
L 453.659192 132.452673 
L 454.421053 143.498239 
L 456.706638 129.201892 
L 457.468499 118.088124 
L 458.230361 132.634931 
L 458.992222 128.127792 
L 459.754083 143.095764 
L 462.039668 141.870024 
L 462.801529 143.522907 
L 463.56339 149.334761 
L 464.325252 111.50473 
L 465.087113 144.667592 
L 467.372698 137.181154 
L 468.134559 124.866401 
L 468.89642 147.953522 
L 469.658282 138.028681 
L 470.420143 180.504644 
L 472.705728 145.693655 
L 473.467589 85.077412 
L 474.22945 154.652637 
L 475.753173 92.909169 
L 478.038757 141.375785 
L 478.800619 179.115158 
L 480.324342 126.350895 
L 481.086203 143.032678 
L 483.371787 126.561272 
L 484.133649 152.269578 
L 484.89551 123.386661 
L 485.657372 114.157048 
L 486.419233 125.932575 
L 488.704817 142.29248 
L 490.22854 106.802268 
L 490.990402 157.238668 
L 491.752263 167.133882 
L 494.037847 139.670404 
L 494.799709 116.558529 
L 495.56157 135.103775 
L 496.323431 145.169579 
L 497.085293 152.355816 
L 499.370877 122.343815 
L 500.132739 151.353096 
L 500.8946 107.543079 
L 501.656461 151.581084 
L 502.418323 136.116558 
L 504.703907 131.853412 
L 505.465768 131.419961 
L 506.22763 156.837229 
L 506.989491 128.651467 
L 507.751353 135.685047 
L 510.036937 169.237363 
L 510.798798 116.283626 
L 511.56066 129.171099 
L 512.322521 107.673049 
L 513.084383 137.605489 
L 515.369967 161.277428 
L 516.131828 112.860176 
L 516.89369 175.888657 
L 518.417413 120.456706 
L 520.702997 123.510636 
L 521.464858 136.126852 
L 522.22672 139.441702 
L 522.988581 146.179676 
L 523.750442 167.582974 
L 526.036027 166.709637 
L 526.797888 127.970086 
L 527.55975 129.398599 
L 528.321611 129.040179 
L 529.083472 131.759586 
L 531.369057 154.881224 
L 532.130918 143.684331 
L 532.89278 125.285635 
L 533.654641 129.126618 
L 534.416502 130.45718 
L 536.702087 174.54562 
L 537.463948 139.054409 
L 538.225809 129.624733 
L 538.987671 141.274233 
L 539.749532 165.479169 
L 542.035117 139.203336 
L 542.796978 122.074925 
L 543.558839 126.777702 
L 544.320701 146.127245 
L 545.082562 127.931886 
L 547.368146 148.070439 
L 548.130008 149.827103 
L 548.891869 139.956361 
L 549.653731 127.427832 
L 550.415592 146.987213 
L 552.701176 153.151914 
L 553.463038 138.013101 
L 554.224899 151.953247 
L 554.986761 131.694955 
L 555.748622 124.024761 
L 558.034206 166.622783 
L 558.796068 135.17633 
L 559.557929 129.996618 
L 560.319791 137.684949 
L 561.081652 123.512564 
L 563.367236 138.590628 
L 564.129098 151.265031 
L 564.890959 128.757894 
L 565.65282 124.605439 
L 566.414682 135.698054 
L 568.700266 133.133667 
L 569.462128 130.153123 
L 570.223989 129.182581 
L 570.98585 134.498463 
L 571.747712 143.680615 
L 574.033296 135.141276 
L 574.795157 153.555713 
L 575.557019 130.998526 
L 576.31888 142.291635 
L 577.080742 127.668493 
L 579.366326 139.357745 
L 580.128187 139.970516 
L 580.890049 146.537254 
L 581.65191 132.730883 
L 582.413772 151.097016 
L 584.699356 118.786028 
L 585.461217 153.9534 
L 586.223079 135.379209 
L 586.98494 136.324855 
L 590.032386 151.918328 
L 590.794247 157.316193 
L 592.31797 125.666815 
L 593.079832 131.033505 
L 595.365416 166.5943 
L 596.127277 160.444293 
L 596.889139 125.047815 
L 597.651 129.322355 
L 598.412861 147.152304 
L 600.698446 142.322142 
L 601.460307 132.362469 
L 602.222169 120.554886 
L 602.98403 142.410969 
L 603.745891 142.721891 
L 606.031476 162.662093 
L 606.793337 154.016754 
L 607.555198 149.922191 
L 608.31706 132.443966 
L 609.078921 145.105019 
L 611.364506 143.349525 
L 612.126367 114.855639 
L 613.65009 140.428894 
L 614.411951 132.056917 
L 616.697535 174.62207 
L 618.98312 143.962663 
L 619.744981 179.807013 
L 622.030565 161.545122 
L 624.31615 96.372282 
L 625.078011 162.125236 
L 627.363595 147.646519 
L 628.125457 116.13735 
L 628.887318 142.445989 
L 629.64918 140.765915 
L 630.411041 146.330438 
L 632.696625 139.579174 
L 633.458487 135.336191 
L 634.220348 160.66264 
L 634.982209 131.765332 
L 635.744071 116.618204 
L 638.029655 137.772122 
L 638.791517 153.666042 
L 639.553378 93.269671 
L 640.315239 121.409171 
L 641.077101 135.945709 
L 643.362685 161.021611 
L 644.124546 117.835084 
L 644.886408 147.791913 
L 645.648269 137.330678 
L 646.410131 149.685389 
L 648.695715 110.907906 
L 649.457576 142.382838 
L 650.219438 149.621192 
L 650.981299 150.497583 
L 651.743161 146.459215 
L 654.028745 135.285077 
L 654.790606 136.248892 
L 655.552468 125.340839 
L 656.314329 144.956931 
L 657.076191 131.01432 
L 659.361775 118.082977 
L 660.123636 148.585244 
L 660.885498 110.9799 
L 661.647359 152.048466 
L 662.409221 144.170934 
L 666.980389 227.358934 
L 667.74225 108.378247 
L 670.027835 109.05958 
L 670.789696 146.30122 
L 671.551558 137.697274 
L 672.313419 180.952582 
L 673.07528 150.496922 
L 675.360865 230.81136 
L 676.122726 46.551077 
L 676.884587 213.914948 
L 677.646449 224.221446 
L 677.646449 224.221446 
" style="fill:none;stroke:#ff7f0e;stroke-linecap:square;stroke-width:1.5;"/>
   </g>
   <g id="line2d_18">
    <path clip-path="url(#pe37842560d)" d="M 68.919176 140.428894 
L 69.681038 133.956602 
L 70.442899 130.683797 
L 72.728483 128.185021 
L 73.490345 141.506541 
L 74.252206 140.642179 
L 75.014067 117.590907 
L 75.775929 119.72514 
L 78.061513 130.048827 
L 78.823375 135.206928 
L 79.585236 145.614889 
L 80.347097 140.428894 
L 81.108959 140.428894 
L 83.394543 127.377272 
L 84.156404 139.446108 
L 84.918266 140.428894 
L 85.680127 140.428894 
L 86.441989 142.397777 
L 88.727573 157.223003 
L 89.489434 140.428894 
L 90.251296 134.365615 
L 91.013157 134.414056 
L 91.775019 137.648182 
L 94.060603 122.39102 
L 94.822464 143.912591 
L 95.584326 142.76209 
L 96.346187 134.969717 
L 97.108049 163.276196 
L 101.679217 128.249355 
L 104.726663 146.45763 
L 105.488524 134.939723 
L 106.250386 135.949158 
L 107.012247 138.495451 
L 107.774108 141.778223 
L 110.059693 140.817616 
L 110.821554 136.75457 
L 111.583416 148.12895 
L 112.345277 144.321637 
L 113.107138 132.602943 
L 115.392723 148.174331 
L 116.154584 127.90973 
L 116.916445 127.156704 
L 117.678307 127.7665 
L 118.440168 107.899602 
L 120.725753 124.033441 
L 121.487614 132.931587 
L 122.249475 154.239483 
L 123.011337 162.592583 
L 123.773198 158.371439 
L 126.058782 115.364531 
L 126.820644 129.647998 
L 127.582505 135.826744 
L 128.344367 50.928141 
L 129.106228 145.762058 
L 131.391812 134.166105 
L 132.153674 147.88648 
L 132.915535 143.296584 
L 133.677397 139.710577 
L 136.724842 145.101443 
L 137.486704 141.5148 
L 138.248565 135.720319 
L 139.010427 120.436568 
L 139.772288 147.797896 
L 142.057872 134.050111 
L 142.819734 139.374765 
L 143.581595 132.880895 
L 144.343456 156.761187 
L 145.105318 140.428894 
L 147.390902 136.875908 
L 148.152764 113.034193 
L 148.914625 115.535799 
L 149.676486 114.183453 
L 150.438348 139.629772 
L 152.723932 157.794987 
L 153.485793 136.842313 
L 154.247655 127.280567 
L 155.009516 123.519358 
L 155.771378 146.982294 
L 158.056962 148.768238 
L 159.580685 137.406326 
L 160.342546 129.333354 
L 161.104408 107.461475 
L 163.389992 151.807172 
L 164.151853 153.95127 
L 164.913715 144.30072 
L 165.675576 155.5158 
L 166.437438 128.20495 
L 168.723022 143.554374 
L 169.484883 102.785741 
L 170.246745 129.525792 
L 171.008606 150.438606 
L 171.770468 165.65166 
L 174.056052 149.072317 
L 174.817913 126.371383 
L 175.579775 153.616921 
L 176.341636 136.528825 
L 177.103497 149.586298 
L 179.389082 143.573857 
L 180.150943 142.005656 
L 180.912805 130.625889 
L 182.436527 128.250674 
L 184.722112 110.468034 
L 185.483973 152.247059 
L 186.245834 125.566783 
L 187.007696 137.487589 
L 187.769557 139.839427 
L 190.055142 156.988007 
L 190.817003 159.454926 
L 191.578864 132.898783 
L 192.340726 135.40663 
L 193.102587 134.229184 
L 195.388171 147.779161 
L 196.150033 153.148185 
L 196.911894 149.360709 
L 197.673756 154.144184 
L 198.435617 146.939801 
L 200.721201 134.504948 
L 201.483063 132.959025 
L 202.244924 143.577242 
L 203.006786 147.851659 
L 203.768647 121.758972 
L 206.816093 147.608132 
L 207.577954 150.035 
L 208.339816 125.113208 
L 209.101677 141.990781 
L 212.149123 119.436629 
L 212.910984 134.634977 
L 213.672845 114.257838 
L 214.434707 125.811652 
L 216.720291 145.449394 
L 217.482153 135.231773 
L 218.244014 137.701919 
L 219.005875 126.573084 
L 219.767737 133.413684 
L 222.053321 137.652028 
L 222.815183 140.703138 
L 223.577044 129.34984 
L 224.338905 162.953506 
L 225.100767 161.3937 
L 227.386351 133.046493 
L 228.148212 127.815697 
L 228.910074 141.135274 
L 229.671935 118.8378 
L 230.433797 132.333635 
L 232.719381 131.743918 
L 233.481242 129.290953 
L 234.243104 117.025699 
L 235.004965 148.250083 
L 235.766827 144.31617 
L 238.052411 143.687909 
L 238.814272 120.935503 
L 239.576134 136.477113 
L 240.337995 138.52611 
L 241.099857 146.122854 
L 243.385441 130.227922 
L 244.147302 147.346102 
L 244.909164 144.237657 
L 245.671025 165.185336 
L 246.432886 141.220505 
L 248.718471 130.392075 
L 249.480332 134.563482 
L 250.242194 130.728652 
L 251.004055 139.789125 
L 251.765916 134.9442 
L 254.051501 139.668903 
L 254.813362 136.758183 
L 255.575223 103.662147 
L 256.337085 106.213149 
L 259.384531 146.974559 
L 260.146392 153.982587 
L 260.908253 148.331484 
L 261.670115 145.675718 
L 262.431976 136.946079 
L 264.71756 140.428894 
L 265.479422 156.203231 
L 266.241283 132.618184 
L 267.003145 133.057383 
L 267.765006 136.003556 
L 270.05059 132.104645 
L 270.812452 130.310993 
L 271.574313 133.001272 
L 272.336175 142.725433 
L 273.098036 127.171411 
L 275.38362 145.527315 
L 276.145482 126.16888 
L 276.907343 166.178476 
L 277.669205 151.441993 
L 278.431066 141.134666 
L 280.71665 168.567672 
L 281.478512 152.050261 
L 282.240373 127.633905 
L 283.002235 121.005734 
L 286.04968 139.47496 
L 286.811542 101.536879 
L 287.573403 112.719903 
L 288.335264 136.502011 
L 289.097126 144.553465 
L 291.38271 143.594276 
L 292.144572 106.022374 
L 292.906433 165.366091 
L 293.668294 136.312942 
L 294.430156 148.512594 
L 296.71574 152.084589 
L 297.477601 104.021914 
L 298.239463 128.395045 
L 299.001324 172.222369 
L 302.04877 150.192373 
L 302.810631 143.726125 
L 303.572493 170.343603 
L 304.334354 99.632563 
L 305.096216 134.489936 
L 308.143661 120.845727 
L 308.905523 136.719741 
L 310.429246 126.184055 
L 312.71483 138.459243 
L 314.238553 131.960333 
L 315.000414 138.590431 
L 315.762275 139.00139 
L 318.04786 134.226449 
L 318.809721 121.767631 
L 319.571583 145.253758 
L 320.333444 144.390286 
L 321.095305 147.897869 
L 323.38089 152.197102 
L 324.142751 130.619608 
L 324.904612 142.849674 
L 325.666474 134.864403 
L 326.428335 130.885211 
L 328.71392 147.371328 
L 329.475781 138.428489 
L 330.237642 137.930765 
L 330.999504 136.947674 
L 331.761365 132.60105 
L 334.046949 146.311448 
L 334.808811 108.513943 
L 335.570672 135.782074 
L 336.332534 133.83485 
L 337.094395 138.655323 
L 340.903702 141.359751 
L 341.665564 134.831348 
L 342.427425 120.426694 
L 346.236732 141.871242 
L 346.998594 149.286968 
L 347.760455 148.843725 
L 350.046039 132.842995 
L 350.807901 133.286662 
L 351.569762 142.426219 
L 352.331624 155.888178 
L 353.093485 155.566023 
L 355.379069 143.743564 
L 356.140931 131.862804 
L 356.902792 112.196581 
L 357.664653 134.98652 
L 358.426515 116.924413 
L 360.712099 141.827952 
L 361.473961 135.704282 
L 362.235822 141.122771 
L 362.997683 128.0721 
L 366.045129 138.289171 
L 366.80699 155.540817 
L 367.568852 145.742775 
L 368.330713 145.167215 
L 369.092575 126.741166 
L 371.378159 134.44484 
L 372.14002 146.882032 
L 372.901882 146.937773 
L 373.663743 142.180611 
L 374.425605 110.50654 
L 376.711189 140.175681 
L 377.47305 109.551751 
L 378.234912 158.582716 
L 378.996773 129.300354 
L 379.758635 147.386331 
L 382.044219 135.884468 
L 382.80608 137.145599 
L 383.567942 135.114749 
L 384.329803 123.302619 
L 385.091664 152.017051 
L 387.377249 139.621241 
L 388.13911 138.416688 
L 388.900972 170.543433 
L 389.662833 148.793246 
L 390.424694 131.379241 
L 394.995863 170.269327 
L 395.757724 100.390483 
L 398.043309 141.256983 
L 398.80517 147.460272 
L 399.567031 148.112853 
L 400.328893 142.36783 
L 401.090754 148.128374 
L 403.376338 125.89892 
L 404.1382 130.284276 
L 404.900061 140.428894 
L 405.661923 143.655392 
L 406.423784 150.961908 
L 408.709368 129.617429 
L 409.47123 139.42951 
L 410.233091 150.74128 
L 410.994953 142.789183 
L 411.756814 121.395853 
L 414.80426 138.793936 
L 415.566121 129.812007 
L 416.327983 152.265321 
L 417.089844 115.479619 
L 419.375428 128.630033 
L 420.13729 151.11021 
L 420.899151 154.504782 
L 421.661013 131.725256 
L 422.422874 132.462886 
L 424.708458 142.162428 
L 425.47032 142.72114 
L 426.232181 140.348058 
L 426.994042 157.230448 
L 430.041488 126.00138 
L 430.80335 115.137269 
L 431.565211 144.58412 
L 432.327072 135.011105 
L 433.088934 166.089137 
L 435.374518 138.520122 
L 436.136379 148.361334 
L 437.660102 119.58206 
L 438.421964 112.342811 
L 440.707548 152.464103 
L 441.469409 132.784128 
L 442.231271 140.428894 
L 442.993132 140.428894 
L 443.754994 128.475454 
L 446.040578 164.485055 
L 446.802439 135.505407 
L 447.564301 151.819365 
L 448.326162 142.212503 
L 449.088024 119.189694 
L 451.373608 104.790941 
L 452.135469 142.669831 
L 452.897331 145.354807 
L 453.659192 143.492234 
L 454.421053 161.668024 
L 456.706638 145.251267 
L 457.468499 118.964805 
L 458.230361 134.382527 
L 458.992222 130.258533 
L 459.754083 157.897792 
L 462.039668 155.060511 
L 462.801529 129.802809 
L 463.56339 171.120947 
L 464.325252 158.478089 
L 465.087113 111.139891 
L 467.372698 140.19961 
L 468.134559 153.184865 
L 468.89642 141.361283 
L 469.658282 146.496584 
L 470.420143 159.250474 
L 472.705728 117.90814 
L 473.467589 126.136927 
L 474.22945 139.81501 
L 475.753173 131.468984 
L 478.038757 128.547873 
L 478.800619 157.042659 
L 479.56248 131.439715 
L 480.324342 144.946067 
L 481.086203 147.245553 
L 483.371787 119.409153 
L 484.133649 172.031298 
L 484.89551 146.326786 
L 485.657372 141.994254 
L 486.419233 135.019978 
L 488.704817 153.892177 
L 490.22854 89.313484 
L 490.990402 179.611862 
L 491.752263 157.183385 
L 494.037847 150.27707 
L 494.799709 140.995954 
L 495.56157 151.226213 
L 496.323431 151.961529 
L 497.085293 152.140938 
L 499.370877 109.412759 
L 500.132739 116.026295 
L 500.8946 138.375236 
L 502.418323 142.476965 
L 504.703907 144.541077 
L 505.465768 148.774555 
L 506.22763 129.737557 
L 506.989491 165.551539 
L 507.751353 143.134365 
L 510.036937 139.360069 
L 510.798798 96.307104 
L 512.322521 156.630275 
L 513.084383 118.274321 
L 515.369967 151.529277 
L 516.131828 122.494463 
L 516.89369 140.72766 
L 517.655551 147.544104 
L 518.417413 123.039247 
L 520.702997 149.888409 
L 522.22672 129.358068 
L 522.988581 150.160492 
L 523.750442 142.669467 
L 526.036027 155.411986 
L 526.797888 127.434542 
L 527.55975 145.687712 
L 528.321611 106.379832 
L 529.083472 107.853107 
L 531.369057 166.797085 
L 532.89278 137.288783 
L 533.654641 148.867498 
L 534.416502 148.667355 
L 536.702087 123.024258 
L 537.463948 138.684207 
L 538.225809 127.01005 
L 538.987671 145.061484 
L 539.749532 154.769853 
L 542.035117 111.1901 
L 542.796978 100.11199 
L 543.558839 148.64337 
L 544.320701 136.108147 
L 545.082562 146.672597 
L 547.368146 135.89387 
L 548.130008 150.387433 
L 548.891869 141.314779 
L 549.653731 135.035797 
L 550.415592 131.074099 
L 552.701176 136.813215 
L 553.463038 148.6252 
L 554.224899 152.7577 
L 554.986761 161.79837 
L 555.748622 124.568009 
L 558.034206 164.247108 
L 558.796068 134.440207 
L 559.557929 130.45579 
L 560.319791 142.941906 
L 561.081652 129.292537 
L 563.367236 130.075934 
L 564.129098 137.977923 
L 564.890959 144.093459 
L 565.65282 126.721804 
L 566.414682 144.648362 
L 568.700266 112.342997 
L 569.462128 129.715434 
L 570.223989 141.389139 
L 570.98585 145.236474 
L 574.033296 141.596151 
L 574.795157 156.795491 
L 575.557019 149.391568 
L 576.31888 131.559797 
L 577.080742 129.272486 
L 579.366326 134.735726 
L 580.128187 139.259824 
L 580.890049 153.852085 
L 581.65191 173.308504 
L 582.413772 166.318333 
L 584.699356 111.47256 
L 585.461217 137.950353 
L 586.223079 141.664137 
L 586.98494 121.045316 
L 590.032386 160.934126 
L 590.794247 128.308123 
L 592.31797 125.494382 
L 593.079832 138.422817 
L 595.365416 142.829789 
L 596.127277 152.270792 
L 596.889139 138.389672 
L 597.651 128.633666 
L 598.412861 149.839636 
L 600.698446 139.00955 
L 601.460307 140.024119 
L 602.222169 146.901653 
L 602.98403 134.308068 
L 603.745891 143.05989 
L 606.031476 145.506204 
L 606.793337 139.815505 
L 607.555198 142.676182 
L 608.31706 124.035583 
L 609.078921 157.676179 
L 611.364506 139.197355 
L 612.126367 130.592908 
L 612.888228 120.40382 
L 613.65009 139.640743 
L 614.411951 126.650984 
L 616.697535 137.143004 
L 618.98312 124.070618 
L 619.744981 148.90498 
L 622.030565 151.287496 
L 624.31615 122.259685 
L 625.078011 146.27963 
L 627.363595 147.466831 
L 628.125457 135.436644 
L 628.887318 137.567789 
L 629.64918 111.355618 
L 630.411041 140.063043 
L 632.696625 134.028506 
L 633.458487 145.505986 
L 634.220348 122.720949 
L 634.982209 147.741709 
L 635.744071 115.03326 
L 638.029655 129.277952 
L 638.791517 154.850912 
L 639.553378 107.345552 
L 640.315239 157.531814 
L 641.077101 158.615684 
L 643.362685 156.604351 
L 644.124546 97.125769 
L 644.886408 145.696073 
L 646.410131 129.179342 
L 648.695715 208.611513 
L 649.457576 130.826505 
L 650.219438 118.366308 
L 650.981299 137.771701 
L 651.743161 195.503599 
L 654.028745 264.604727 
L 654.790606 103.025117 
L 655.552468 161.070189 
L 656.314329 160.535075 
L 657.076191 97.965501 
L 659.361775 98.060019 
L 660.123636 146.599891 
L 660.885498 132.7551 
L 661.647359 187.239039 
L 662.409221 181.366783 
L 666.980389 103.156116 
L 667.74225 159.840575 
L 670.027835 206.09217 
L 670.789696 198.723113 
L 671.551558 381.076364 
L 672.313419 262.151675 
L 673.07528 121.571922 
L 675.360865 260.463968 
L 676.122726 143.711752 
L 676.884587 195.931985 
L 677.646449 350.447566 
L 677.646449 350.447566 
" style="fill:none;stroke:#2ca02c;stroke-linecap:square;stroke-width:1.5;"/>
   </g>
   <g id="patch_3">
    <path d="M 38.482813 398.88 
L 38.482813 7.2 
" style="fill:none;stroke:#000000;stroke-linecap:square;stroke-linejoin:miter;stroke-width:0.8;"/>
   </g>
   <g id="patch_4">
    <path d="M 708.082813 398.88 
L 708.082813 7.2 
" style="fill:none;stroke:#000000;stroke-linecap:square;stroke-linejoin:miter;stroke-width:0.8;"/>
   </g>
   <g id="patch_5">
    <path d="M 38.482812 398.88 
L 708.082812 398.88 
" style="fill:none;stroke:#000000;stroke-linecap:square;stroke-linejoin:miter;stroke-width:0.8;"/>
   </g>
   <g id="patch_6">
    <path d="M 38.482812 7.2 
L 708.082812 7.2 
" style="fill:none;stroke:#000000;stroke-linecap:square;stroke-linejoin:miter;stroke-width:0.8;"/>
   </g>
   <g id="legend_1">
    <g id="patch_7">
     <path d="M 45.482813 393.88 
L 126.628125 393.88 
Q 128.628125 393.88 128.628125 391.88 
L 128.628125 348.845625 
Q 128.628125 346.845625 126.628125 346.845625 
L 45.482813 346.845625 
Q 43.482813 346.845625 43.482813 348.845625 
L 43.482813 391.88 
Q 43.482813 393.88 45.482813 393.88 
z
" style="fill:#ffffff;opacity:0.8;stroke:#cccccc;stroke-linejoin:miter;"/>
    </g>
    <g id="line2d_19">
     <path d="M 47.482813 354.944062 
L 67.482813 354.944062 
" style="fill:none;stroke:#1f77b4;stroke-linecap:square;stroke-width:1.5;"/>
    </g>
    <g id="line2d_20"/>
    <g id="text_17">
     <!-- CIEL3.SA -->
     <defs>
      <path d="M 64.40625 67.28125 
L 64.40625 56.890625 
Q 59.421875 61.53125 53.78125 63.8125 
Q 48.140625 66.109375 41.796875 66.109375 
Q 29.296875 66.109375 22.65625 58.46875 
Q 16.015625 50.828125 16.015625 36.375 
Q 16.015625 21.96875 22.65625 14.328125 
Q 29.296875 6.6875 41.796875 6.6875 
Q 48.140625 6.6875 53.78125 8.984375 
Q 59.421875 11.28125 64.40625 15.921875 
L 64.40625 5.609375 
Q 59.234375 2.09375 53.4375 0.328125 
Q 47.65625 -1.421875 41.21875 -1.421875 
Q 24.65625 -1.421875 15.125 8.703125 
Q 5.609375 18.84375 5.609375 36.375 
Q 5.609375 53.953125 15.125 64.078125 
Q 24.65625 74.21875 41.21875 74.21875 
Q 47.75 74.21875 53.53125 72.484375 
Q 59.328125 70.75 64.40625 67.28125 
z
" id="DejaVuSans-67"/>
      <path d="M 9.8125 72.90625 
L 19.671875 72.90625 
L 19.671875 0 
L 9.8125 0 
z
" id="DejaVuSans-73"/>
      <path d="M 9.8125 72.90625 
L 55.90625 72.90625 
L 55.90625 64.59375 
L 19.671875 64.59375 
L 19.671875 43.015625 
L 54.390625 43.015625 
L 54.390625 34.71875 
L 19.671875 34.71875 
L 19.671875 8.296875 
L 56.78125 8.296875 
L 56.78125 0 
L 9.8125 0 
z
" id="DejaVuSans-69"/>
      <path d="M 9.8125 72.90625 
L 19.671875 72.90625 
L 19.671875 8.296875 
L 55.171875 8.296875 
L 55.171875 0 
L 9.8125 0 
z
" id="DejaVuSans-76"/>
      <path d="M 53.515625 70.515625 
L 53.515625 60.890625 
Q 47.90625 63.578125 42.921875 64.890625 
Q 37.9375 66.21875 33.296875 66.21875 
Q 25.25 66.21875 20.875 63.09375 
Q 16.5 59.96875 16.5 54.203125 
Q 16.5 49.359375 19.40625 46.890625 
Q 22.3125 44.4375 30.421875 42.921875 
L 36.375 41.703125 
Q 47.40625 39.59375 52.65625 34.296875 
Q 57.90625 29 57.90625 20.125 
Q 57.90625 9.515625 50.796875 4.046875 
Q 43.703125 -1.421875 29.984375 -1.421875 
Q 24.8125 -1.421875 18.96875 -0.25 
Q 13.140625 0.921875 6.890625 3.21875 
L 6.890625 13.375 
Q 12.890625 10.015625 18.65625 8.296875 
Q 24.421875 6.59375 29.984375 6.59375 
Q 38.421875 6.59375 43.015625 9.90625 
Q 47.609375 13.234375 47.609375 19.390625 
Q 47.609375 24.75 44.3125 27.78125 
Q 41.015625 30.8125 33.5 32.328125 
L 27.484375 33.5 
Q 16.453125 35.6875 11.515625 40.375 
Q 6.59375 45.0625 6.59375 53.421875 
Q 6.59375 63.09375 13.40625 68.65625 
Q 20.21875 74.21875 32.171875 74.21875 
Q 37.3125 74.21875 42.625 73.28125 
Q 47.953125 72.359375 53.515625 70.515625 
z
" id="DejaVuSans-83"/>
      <path d="M 34.1875 63.1875 
L 20.796875 26.90625 
L 47.609375 26.90625 
z
M 28.609375 72.90625 
L 39.796875 72.90625 
L 67.578125 0 
L 57.328125 0 
L 50.6875 18.703125 
L 17.828125 18.703125 
L 11.1875 0 
L 0.78125 0 
z
" id="DejaVuSans-65"/>
     </defs>
     <g transform="translate(75.482813 358.444062)scale(0.1 -0.1)">
      <use xlink:href="#DejaVuSans-67"/>
      <use x="69.824219" xlink:href="#DejaVuSans-73"/>
      <use x="99.316406" xlink:href="#DejaVuSans-69"/>
      <use x="162.5" xlink:href="#DejaVuSans-76"/>
      <use x="218.212891" xlink:href="#DejaVuSans-51"/>
      <use x="281.835938" xlink:href="#DejaVuSans-46"/>
      <use x="313.623047" xlink:href="#DejaVuSans-83"/>
      <use x="377.115234" xlink:href="#DejaVuSans-65"/>
     </g>
    </g>
    <g id="line2d_21">
     <path d="M 47.482813 369.622187 
L 67.482813 369.622187 
" style="fill:none;stroke:#ff7f0e;stroke-linecap:square;stroke-width:1.5;"/>
    </g>
    <g id="line2d_22"/>
    <g id="text_18">
     <!-- B3SA3.SA -->
     <defs>
      <path d="M 19.671875 34.8125 
L 19.671875 8.109375 
L 35.5 8.109375 
Q 43.453125 8.109375 47.28125 11.40625 
Q 51.125 14.703125 51.125 21.484375 
Q 51.125 28.328125 47.28125 31.5625 
Q 43.453125 34.8125 35.5 34.8125 
z
M 19.671875 64.796875 
L 19.671875 42.828125 
L 34.28125 42.828125 
Q 41.5 42.828125 45.03125 45.53125 
Q 48.578125 48.25 48.578125 53.8125 
Q 48.578125 59.328125 45.03125 62.0625 
Q 41.5 64.796875 34.28125 64.796875 
z
M 9.8125 72.90625 
L 35.015625 72.90625 
Q 46.296875 72.90625 52.390625 68.21875 
Q 58.5 63.53125 58.5 54.890625 
Q 58.5 48.1875 55.375 44.234375 
Q 52.25 40.28125 46.1875 39.3125 
Q 53.46875 37.75 57.5 32.78125 
Q 61.53125 27.828125 61.53125 20.40625 
Q 61.53125 10.640625 54.890625 5.3125 
Q 48.25 0 35.984375 0 
L 9.8125 0 
z
" id="DejaVuSans-66"/>
     </defs>
     <g transform="translate(75.482813 373.122187)scale(0.1 -0.1)">
      <use xlink:href="#DejaVuSans-66"/>
      <use x="68.603516" xlink:href="#DejaVuSans-51"/>
      <use x="132.226562" xlink:href="#DejaVuSans-83"/>
      <use x="195.71875" xlink:href="#DejaVuSans-65"/>
      <use x="264.126953" xlink:href="#DejaVuSans-51"/>
      <use x="327.75" xlink:href="#DejaVuSans-46"/>
      <use x="359.537109" xlink:href="#DejaVuSans-83"/>
      <use x="423.029297" xlink:href="#DejaVuSans-65"/>
     </g>
    </g>
    <g id="line2d_23">
     <path d="M 47.482813 384.300312 
L 67.482813 384.300312 
" style="fill:none;stroke:#2ca02c;stroke-linecap:square;stroke-width:1.5;"/>
    </g>
    <g id="line2d_24"/>
    <g id="text_19">
     <!-- IRBR3.SA -->
     <defs>
      <path d="M 44.390625 34.1875 
Q 47.5625 33.109375 50.5625 29.59375 
Q 53.5625 26.078125 56.59375 19.921875 
L 66.609375 0 
L 56 0 
L 46.6875 18.703125 
Q 43.0625 26.03125 39.671875 28.421875 
Q 36.28125 30.8125 30.421875 30.8125 
L 19.671875 30.8125 
L 19.671875 0 
L 9.8125 0 
L 9.8125 72.90625 
L 32.078125 72.90625 
Q 44.578125 72.90625 50.734375 67.671875 
Q 56.890625 62.453125 56.890625 51.90625 
Q 56.890625 45.015625 53.6875 40.46875 
Q 50.484375 35.9375 44.390625 34.1875 
z
M 19.671875 64.796875 
L 19.671875 38.921875 
L 32.078125 38.921875 
Q 39.203125 38.921875 42.84375 42.21875 
Q 46.484375 45.515625 46.484375 51.90625 
Q 46.484375 58.296875 42.84375 61.546875 
Q 39.203125 64.796875 32.078125 64.796875 
z
" id="DejaVuSans-82"/>
     </defs>
     <g transform="translate(75.482813 387.800312)scale(0.1 -0.1)">
      <use xlink:href="#DejaVuSans-73"/>
      <use x="29.492188" xlink:href="#DejaVuSans-82"/>
      <use x="98.974609" xlink:href="#DejaVuSans-66"/>
      <use x="167.578125" xlink:href="#DejaVuSans-82"/>
      <use x="237.060547" xlink:href="#DejaVuSans-51"/>
      <use x="300.683594" xlink:href="#DejaVuSans-46"/>
      <use x="332.470703" xlink:href="#DejaVuSans-83"/>
      <use x="395.962891" xlink:href="#DejaVuSans-65"/>
     </g>
    </g>
   </g>
  </g>
 </g>
 <defs>
  <clipPath id="pe37842560d">
   <rect height="391.68" width="669.6" x="38.482813" y="7.2"/>
  </clipPath>
 </defs>
</svg>
