<?xml version="1.0" encoding="utf-8" standalone="no"?>
<!DOCTYPE svg PUBLIC "-//W3C//DTD SVG 1.1//EN"
  "http://www.w3.org/Graphics/SVG/1.1/DTD/svg11.dtd">
<!-- Created with matplotlib (https://matplotlib.org/) -->
<svg height="456.031033pt" version="1.1" viewBox="0 0 710.0875 456.031033" width="710.0875pt" xmlns="http://www.w3.org/2000/svg" xmlns:xlink="http://www.w3.org/1999/xlink">
 <defs>
  <style type="text/css">
*{stroke-linecap:butt;stroke-linejoin:round;}
  </style>
 </defs>
 <g id="figure_1">
  <g id="patch_1">
   <path d="M 0 456.031033 
L 710.0875 456.031033 
L 710.0875 0 
L 0 0 
z
" style="fill:none;"/>
  </g>
  <g id="axes_1">
   <g id="patch_2">
    <path d="M 33.2875 398.88 
L 702.8875 398.88 
L 702.8875 7.2 
L 33.2875 7.2 
z
" style="fill:#ffffff;"/>
   </g>
   <g id="matplotlib.axis_1">
    <g id="xtick_1">
     <g id="line2d_1">
      <defs>
       <path d="M 0 0 
L 0 3.5 
" id="m2316e2df59" style="stroke:#000000;stroke-width:0.8;"/>
      </defs>
      <g>
       <use style="stroke:#000000;stroke-width:0.8;" x="62.962955" xlink:href="#m2316e2df59" y="398.88"/>
      </g>
     </g>
     <g id="text_1">
      <!-- 2018-01 -->
      <defs>
       <path d="M 19.1875 8.296875 
L 53.609375 8.296875 
L 53.609375 0 
L 7.328125 0 
L 7.328125 8.296875 
Q 12.9375 14.109375 22.625 23.890625 
Q 32.328125 33.6875 34.8125 36.53125 
Q 39.546875 41.84375 41.421875 45.53125 
Q 43.3125 49.21875 43.3125 52.78125 
Q 43.3125 58.59375 39.234375 62.25 
Q 35.15625 65.921875 28.609375 65.921875 
Q 23.96875 65.921875 18.8125 64.3125 
Q 13.671875 62.703125 7.8125 59.421875 
L 7.8125 69.390625 
Q 13.765625 71.78125 18.9375 73 
Q 24.125 74.21875 28.421875 74.21875 
Q 39.75 74.21875 46.484375 68.546875 
Q 53.21875 62.890625 53.21875 53.421875 
Q 53.21875 48.921875 51.53125 44.890625 
Q 49.859375 40.875 45.40625 35.40625 
Q 44.1875 33.984375 37.640625 27.21875 
Q 31.109375 20.453125 19.1875 8.296875 
z
" id="DejaVuSans-50"/>
       <path d="M 31.78125 66.40625 
Q 24.171875 66.40625 20.328125 58.90625 
Q 16.5 51.421875 16.5 36.375 
Q 16.5 21.390625 20.328125 13.890625 
Q 24.171875 6.390625 31.78125 6.390625 
Q 39.453125 6.390625 43.28125 13.890625 
Q 47.125 21.390625 47.125 36.375 
Q 47.125 51.421875 43.28125 58.90625 
Q 39.453125 66.40625 31.78125 66.40625 
z
M 31.78125 74.21875 
Q 44.046875 74.21875 50.515625 64.515625 
Q 56.984375 54.828125 56.984375 36.375 
Q 56.984375 17.96875 50.515625 8.265625 
Q 44.046875 -1.421875 31.78125 -1.421875 
Q 19.53125 -1.421875 13.0625 8.265625 
Q 6.59375 17.96875 6.59375 36.375 
Q 6.59375 54.828125 13.0625 64.515625 
Q 19.53125 74.21875 31.78125 74.21875 
z
" id="DejaVuSans-48"/>
       <path d="M 12.40625 8.296875 
L 28.515625 8.296875 
L 28.515625 63.921875 
L 10.984375 60.40625 
L 10.984375 69.390625 
L 28.421875 72.90625 
L 38.28125 72.90625 
L 38.28125 8.296875 
L 54.390625 8.296875 
L 54.390625 0 
L 12.40625 0 
z
" id="DejaVuSans-49"/>
       <path d="M 31.78125 34.625 
Q 24.75 34.625 20.71875 30.859375 
Q 16.703125 27.09375 16.703125 20.515625 
Q 16.703125 13.921875 20.71875 10.15625 
Q 24.75 6.390625 31.78125 6.390625 
Q 38.8125 6.390625 42.859375 10.171875 
Q 46.921875 13.96875 46.921875 20.515625 
Q 46.921875 27.09375 42.890625 30.859375 
Q 38.875 34.625 31.78125 34.625 
z
M 21.921875 38.8125 
Q 15.578125 40.375 12.03125 44.71875 
Q 8.5 49.078125 8.5 55.328125 
Q 8.5 64.0625 14.71875 69.140625 
Q 20.953125 74.21875 31.78125 74.21875 
Q 42.671875 74.21875 48.875 69.140625 
Q 55.078125 64.0625 55.078125 55.328125 
Q 55.078125 49.078125 51.53125 44.71875 
Q 48 40.375 41.703125 38.8125 
Q 48.828125 37.15625 52.796875 32.3125 
Q 56.78125 27.484375 56.78125 20.515625 
Q 56.78125 9.90625 50.3125 4.234375 
Q 43.84375 -1.421875 31.78125 -1.421875 
Q 19.734375 -1.421875 13.25 4.234375 
Q 6.78125 9.90625 6.78125 20.515625 
Q 6.78125 27.484375 10.78125 32.3125 
Q 14.796875 37.15625 21.921875 38.8125 
z
M 18.3125 54.390625 
Q 18.3125 48.734375 21.84375 45.5625 
Q 25.390625 42.390625 31.78125 42.390625 
Q 38.140625 42.390625 41.71875 45.5625 
Q 45.3125 48.734375 45.3125 54.390625 
Q 45.3125 60.0625 41.71875 63.234375 
Q 38.140625 66.40625 31.78125 66.40625 
Q 25.390625 66.40625 21.84375 63.234375 
Q 18.3125 60.0625 18.3125 54.390625 
z
" id="DejaVuSans-56"/>
       <path d="M 4.890625 31.390625 
L 31.203125 31.390625 
L 31.203125 23.390625 
L 4.890625 23.390625 
z
" id="DejaVuSans-45"/>
      </defs>
      <g transform="translate(25.738134 433.351846)rotate(-30)scale(0.1 -0.1)">
       <use xlink:href="#DejaVuSans-50"/>
       <use x="63.623047" xlink:href="#DejaVuSans-48"/>
       <use x="127.246094" xlink:href="#DejaVuSans-49"/>
       <use x="190.869141" xlink:href="#DejaVuSans-56"/>
       <use x="254.492188" xlink:href="#DejaVuSans-45"/>
       <use x="290.576172" xlink:href="#DejaVuSans-48"/>
       <use x="354.199219" xlink:href="#DejaVuSans-49"/>
      </g>
     </g>
    </g>
    <g id="xtick_2">
     <g id="line2d_2">
      <g>
       <use style="stroke:#000000;stroke-width:0.8;" x="131.444773" xlink:href="#m2316e2df59" y="398.88"/>
      </g>
     </g>
     <g id="text_2">
      <!-- 2018-04 -->
      <defs>
       <path d="M 37.796875 64.3125 
L 12.890625 25.390625 
L 37.796875 25.390625 
z
M 35.203125 72.90625 
L 47.609375 72.90625 
L 47.609375 25.390625 
L 58.015625 25.390625 
L 58.015625 17.1875 
L 47.609375 17.1875 
L 47.609375 0 
L 37.796875 0 
L 37.796875 17.1875 
L 4.890625 17.1875 
L 4.890625 26.703125 
z
" id="DejaVuSans-52"/>
      </defs>
      <g transform="translate(94.219952 433.351846)rotate(-30)scale(0.1 -0.1)">
       <use xlink:href="#DejaVuSans-50"/>
       <use x="63.623047" xlink:href="#DejaVuSans-48"/>
       <use x="127.246094" xlink:href="#DejaVuSans-49"/>
       <use x="190.869141" xlink:href="#DejaVuSans-56"/>
       <use x="254.492188" xlink:href="#DejaVuSans-45"/>
       <use x="290.576172" xlink:href="#DejaVuSans-48"/>
       <use x="354.199219" xlink:href="#DejaVuSans-52"/>
      </g>
     </g>
    </g>
    <g id="xtick_3">
     <g id="line2d_3">
      <g>
       <use style="stroke:#000000;stroke-width:0.8;" x="200.6875" xlink:href="#m2316e2df59" y="398.88"/>
      </g>
     </g>
     <g id="text_3">
      <!-- 2018-07 -->
      <defs>
       <path d="M 8.203125 72.90625 
L 55.078125 72.90625 
L 55.078125 68.703125 
L 28.609375 0 
L 18.3125 0 
L 43.21875 64.59375 
L 8.203125 64.59375 
z
" id="DejaVuSans-55"/>
      </defs>
      <g transform="translate(163.462679 433.351846)rotate(-30)scale(0.1 -0.1)">
       <use xlink:href="#DejaVuSans-50"/>
       <use x="63.623047" xlink:href="#DejaVuSans-48"/>
       <use x="127.246094" xlink:href="#DejaVuSans-49"/>
       <use x="190.869141" xlink:href="#DejaVuSans-56"/>
       <use x="254.492188" xlink:href="#DejaVuSans-45"/>
       <use x="290.576172" xlink:href="#DejaVuSans-48"/>
       <use x="354.199219" xlink:href="#DejaVuSans-55"/>
      </g>
     </g>
    </g>
    <g id="xtick_4">
     <g id="line2d_4">
      <g>
       <use style="stroke:#000000;stroke-width:0.8;" x="270.691136" xlink:href="#m2316e2df59" y="398.88"/>
      </g>
     </g>
     <g id="text_4">
      <!-- 2018-10 -->
      <g transform="translate(233.466316 433.351846)rotate(-30)scale(0.1 -0.1)">
       <use xlink:href="#DejaVuSans-50"/>
       <use x="63.623047" xlink:href="#DejaVuSans-48"/>
       <use x="127.246094" xlink:href="#DejaVuSans-49"/>
       <use x="190.869141" xlink:href="#DejaVuSans-56"/>
       <use x="254.492188" xlink:href="#DejaVuSans-45"/>
       <use x="290.576172" xlink:href="#DejaVuSans-49"/>
       <use x="354.199219" xlink:href="#DejaVuSans-48"/>
      </g>
     </g>
    </g>
    <g id="xtick_5">
     <g id="line2d_5">
      <g>
       <use style="stroke:#000000;stroke-width:0.8;" x="340.694773" xlink:href="#m2316e2df59" y="398.88"/>
      </g>
     </g>
     <g id="text_5">
      <!-- 2019-01 -->
      <defs>
       <path d="M 10.984375 1.515625 
L 10.984375 10.5 
Q 14.703125 8.734375 18.5 7.8125 
Q 22.3125 6.890625 25.984375 6.890625 
Q 35.75 6.890625 40.890625 13.453125 
Q 46.046875 20.015625 46.78125 33.40625 
Q 43.953125 29.203125 39.59375 26.953125 
Q 35.25 24.703125 29.984375 24.703125 
Q 19.046875 24.703125 12.671875 31.3125 
Q 6.296875 37.9375 6.296875 49.421875 
Q 6.296875 60.640625 12.9375 67.421875 
Q 19.578125 74.21875 30.609375 74.21875 
Q 43.265625 74.21875 49.921875 64.515625 
Q 56.59375 54.828125 56.59375 36.375 
Q 56.59375 19.140625 48.40625 8.859375 
Q 40.234375 -1.421875 26.421875 -1.421875 
Q 22.703125 -1.421875 18.890625 -0.6875 
Q 15.09375 0.046875 10.984375 1.515625 
z
M 30.609375 32.421875 
Q 37.25 32.421875 41.125 36.953125 
Q 45.015625 41.5 45.015625 49.421875 
Q 45.015625 57.28125 41.125 61.84375 
Q 37.25 66.40625 30.609375 66.40625 
Q 23.96875 66.40625 20.09375 61.84375 
Q 16.21875 57.28125 16.21875 49.421875 
Q 16.21875 41.5 20.09375 36.953125 
Q 23.96875 32.421875 30.609375 32.421875 
z
" id="DejaVuSans-57"/>
      </defs>
      <g transform="translate(303.469952 433.351846)rotate(-30)scale(0.1 -0.1)">
       <use xlink:href="#DejaVuSans-50"/>
       <use x="63.623047" xlink:href="#DejaVuSans-48"/>
       <use x="127.246094" xlink:href="#DejaVuSans-49"/>
       <use x="190.869141" xlink:href="#DejaVuSans-57"/>
       <use x="254.492188" xlink:href="#DejaVuSans-45"/>
       <use x="290.576172" xlink:href="#DejaVuSans-48"/>
       <use x="354.199219" xlink:href="#DejaVuSans-49"/>
      </g>
     </g>
    </g>
    <g id="xtick_6">
     <g id="line2d_6">
      <g>
       <use style="stroke:#000000;stroke-width:0.8;" x="409.176591" xlink:href="#m2316e2df59" y="398.88"/>
      </g>
     </g>
     <g id="text_6">
      <!-- 2019-04 -->
      <g transform="translate(371.95177 433.351846)rotate(-30)scale(0.1 -0.1)">
       <use xlink:href="#DejaVuSans-50"/>
       <use x="63.623047" xlink:href="#DejaVuSans-48"/>
       <use x="127.246094" xlink:href="#DejaVuSans-49"/>
       <use x="190.869141" xlink:href="#DejaVuSans-57"/>
       <use x="254.492188" xlink:href="#DejaVuSans-45"/>
       <use x="290.576172" xlink:href="#DejaVuSans-48"/>
       <use x="354.199219" xlink:href="#DejaVuSans-52"/>
      </g>
     </g>
    </g>
    <g id="xtick_7">
     <g id="line2d_7">
      <g>
       <use style="stroke:#000000;stroke-width:0.8;" x="478.419318" xlink:href="#m2316e2df59" y="398.88"/>
      </g>
     </g>
     <g id="text_7">
      <!-- 2019-07 -->
      <g transform="translate(441.194497 433.351846)rotate(-30)scale(0.1 -0.1)">
       <use xlink:href="#DejaVuSans-50"/>
       <use x="63.623047" xlink:href="#DejaVuSans-48"/>
       <use x="127.246094" xlink:href="#DejaVuSans-49"/>
       <use x="190.869141" xlink:href="#DejaVuSans-57"/>
       <use x="254.492188" xlink:href="#DejaVuSans-45"/>
       <use x="290.576172" xlink:href="#DejaVuSans-48"/>
       <use x="354.199219" xlink:href="#DejaVuSans-55"/>
      </g>
     </g>
    </g>
    <g id="xtick_8">
     <g id="line2d_8">
      <g>
       <use style="stroke:#000000;stroke-width:0.8;" x="548.422955" xlink:href="#m2316e2df59" y="398.88"/>
      </g>
     </g>
     <g id="text_8">
      <!-- 2019-10 -->
      <g transform="translate(511.198134 433.351846)rotate(-30)scale(0.1 -0.1)">
       <use xlink:href="#DejaVuSans-50"/>
       <use x="63.623047" xlink:href="#DejaVuSans-48"/>
       <use x="127.246094" xlink:href="#DejaVuSans-49"/>
       <use x="190.869141" xlink:href="#DejaVuSans-57"/>
       <use x="254.492188" xlink:href="#DejaVuSans-45"/>
       <use x="290.576172" xlink:href="#DejaVuSans-49"/>
       <use x="354.199219" xlink:href="#DejaVuSans-48"/>
      </g>
     </g>
    </g>
    <g id="xtick_9">
     <g id="line2d_9">
      <g>
       <use style="stroke:#000000;stroke-width:0.8;" x="618.426591" xlink:href="#m2316e2df59" y="398.88"/>
      </g>
     </g>
     <g id="text_9">
      <!-- 2020-01 -->
      <g transform="translate(581.20177 433.351846)rotate(-30)scale(0.1 -0.1)">
       <use xlink:href="#DejaVuSans-50"/>
       <use x="63.623047" xlink:href="#DejaVuSans-48"/>
       <use x="127.246094" xlink:href="#DejaVuSans-50"/>
       <use x="190.869141" xlink:href="#DejaVuSans-48"/>
       <use x="254.492188" xlink:href="#DejaVuSans-45"/>
       <use x="290.576172" xlink:href="#DejaVuSans-48"/>
       <use x="354.199219" xlink:href="#DejaVuSans-49"/>
      </g>
     </g>
    </g>
    <g id="xtick_10">
     <g id="line2d_10">
      <g>
       <use style="stroke:#000000;stroke-width:0.8;" x="687.669318" xlink:href="#m2316e2df59" y="398.88"/>
      </g>
     </g>
     <g id="text_10">
      <!-- 2020-04 -->
      <g transform="translate(650.444497 433.351846)rotate(-30)scale(0.1 -0.1)">
       <use xlink:href="#DejaVuSans-50"/>
       <use x="63.623047" xlink:href="#DejaVuSans-48"/>
       <use x="127.246094" xlink:href="#DejaVuSans-50"/>
       <use x="190.869141" xlink:href="#DejaVuSans-48"/>
       <use x="254.492188" xlink:href="#DejaVuSans-45"/>
       <use x="290.576172" xlink:href="#DejaVuSans-48"/>
       <use x="354.199219" xlink:href="#DejaVuSans-52"/>
      </g>
     </g>
    </g>
    <g id="text_11">
     <!-- Date -->
     <defs>
      <path d="M 19.671875 64.796875 
L 19.671875 8.109375 
L 31.59375 8.109375 
Q 46.6875 8.109375 53.6875 14.9375 
Q 60.6875 21.78125 60.6875 36.53125 
Q 60.6875 51.171875 53.6875 57.984375 
Q 46.6875 64.796875 31.59375 64.796875 
z
M 9.8125 72.90625 
L 30.078125 72.90625 
Q 51.265625 72.90625 61.171875 64.09375 
Q 71.09375 55.28125 71.09375 36.53125 
Q 71.09375 17.671875 61.125 8.828125 
Q 51.171875 0 30.078125 0 
L 9.8125 0 
z
" id="DejaVuSans-68"/>
      <path d="M 34.28125 27.484375 
Q 23.390625 27.484375 19.1875 25 
Q 14.984375 22.515625 14.984375 16.5 
Q 14.984375 11.71875 18.140625 8.90625 
Q 21.296875 6.109375 26.703125 6.109375 
Q 34.1875 6.109375 38.703125 11.40625 
Q 43.21875 16.703125 43.21875 25.484375 
L 43.21875 27.484375 
z
M 52.203125 31.203125 
L 52.203125 0 
L 43.21875 0 
L 43.21875 8.296875 
Q 40.140625 3.328125 35.546875 0.953125 
Q 30.953125 -1.421875 24.3125 -1.421875 
Q 15.921875 -1.421875 10.953125 3.296875 
Q 6 8.015625 6 15.921875 
Q 6 25.140625 12.171875 29.828125 
Q 18.359375 34.515625 30.609375 34.515625 
L 43.21875 34.515625 
L 43.21875 35.40625 
Q 43.21875 41.609375 39.140625 45 
Q 35.0625 48.390625 27.6875 48.390625 
Q 23 48.390625 18.546875 47.265625 
Q 14.109375 46.140625 10.015625 43.890625 
L 10.015625 52.203125 
Q 14.9375 54.109375 19.578125 55.046875 
Q 24.21875 56 28.609375 56 
Q 40.484375 56 46.34375 49.84375 
Q 52.203125 43.703125 52.203125 31.203125 
z
" id="DejaVuSans-97"/>
      <path d="M 18.3125 70.21875 
L 18.3125 54.6875 
L 36.8125 54.6875 
L 36.8125 47.703125 
L 18.3125 47.703125 
L 18.3125 18.015625 
Q 18.3125 11.328125 20.140625 9.421875 
Q 21.96875 7.515625 27.59375 7.515625 
L 36.8125 7.515625 
L 36.8125 0 
L 27.59375 0 
Q 17.1875 0 13.234375 3.875 
Q 9.28125 7.765625 9.28125 18.015625 
L 9.28125 47.703125 
L 2.6875 47.703125 
L 2.6875 54.6875 
L 9.28125 54.6875 
L 9.28125 70.21875 
z
" id="DejaVuSans-116"/>
      <path d="M 56.203125 29.59375 
L 56.203125 25.203125 
L 14.890625 25.203125 
Q 15.484375 15.921875 20.484375 11.0625 
Q 25.484375 6.203125 34.421875 6.203125 
Q 39.59375 6.203125 44.453125 7.46875 
Q 49.3125 8.734375 54.109375 11.28125 
L 54.109375 2.78125 
Q 49.265625 0.734375 44.1875 -0.34375 
Q 39.109375 -1.421875 33.890625 -1.421875 
Q 20.796875 -1.421875 13.15625 6.1875 
Q 5.515625 13.8125 5.515625 26.8125 
Q 5.515625 40.234375 12.765625 48.109375 
Q 20.015625 56 32.328125 56 
Q 43.359375 56 49.78125 48.890625 
Q 56.203125 41.796875 56.203125 29.59375 
z
M 47.21875 32.234375 
Q 47.125 39.59375 43.09375 43.984375 
Q 39.0625 48.390625 32.421875 48.390625 
Q 24.90625 48.390625 20.390625 44.140625 
Q 15.875 39.890625 15.1875 32.171875 
z
" id="DejaVuSans-101"/>
     </defs>
     <g transform="translate(356.136719 446.751346)scale(0.1 -0.1)">
      <use xlink:href="#DejaVuSans-68"/>
      <use x="77.001953" xlink:href="#DejaVuSans-97"/>
      <use x="138.28125" xlink:href="#DejaVuSans-116"/>
      <use x="177.490234" xlink:href="#DejaVuSans-101"/>
     </g>
    </g>
   </g>
   <g id="matplotlib.axis_2">
    <g id="ytick_1">
     <g id="line2d_11">
      <defs>
       <path d="M 0 0 
L -3.5 0 
" id="m6ae8c7783c" style="stroke:#000000;stroke-width:0.8;"/>
      </defs>
      <g>
       <use style="stroke:#000000;stroke-width:0.8;" x="33.2875" xlink:href="#m6ae8c7783c" y="383.297182"/>
      </g>
     </g>
     <g id="text_12">
      <!-- 0 -->
      <g transform="translate(19.925 387.096401)scale(0.1 -0.1)">
       <use xlink:href="#DejaVuSans-48"/>
      </g>
     </g>
    </g>
    <g id="ytick_2">
     <g id="line2d_12">
      <g>
       <use style="stroke:#000000;stroke-width:0.8;" x="33.2875" xlink:href="#m6ae8c7783c" y="303.676394"/>
      </g>
     </g>
     <g id="text_13">
      <!-- 200 -->
      <g transform="translate(7.2 307.475613)scale(0.1 -0.1)">
       <use xlink:href="#DejaVuSans-50"/>
       <use x="63.623047" xlink:href="#DejaVuSans-48"/>
       <use x="127.246094" xlink:href="#DejaVuSans-48"/>
      </g>
     </g>
    </g>
    <g id="ytick_3">
     <g id="line2d_13">
      <g>
       <use style="stroke:#000000;stroke-width:0.8;" x="33.2875" xlink:href="#m6ae8c7783c" y="224.055606"/>
      </g>
     </g>
     <g id="text_14">
      <!-- 400 -->
      <g transform="translate(7.2 227.854825)scale(0.1 -0.1)">
       <use xlink:href="#DejaVuSans-52"/>
       <use x="63.623047" xlink:href="#DejaVuSans-48"/>
       <use x="127.246094" xlink:href="#DejaVuSans-48"/>
      </g>
     </g>
    </g>
    <g id="ytick_4">
     <g id="line2d_14">
      <g>
       <use style="stroke:#000000;stroke-width:0.8;" x="33.2875" xlink:href="#m6ae8c7783c" y="144.434818"/>
      </g>
     </g>
     <g id="text_15">
      <!-- 600 -->
      <defs>
       <path d="M 33.015625 40.375 
Q 26.375 40.375 22.484375 35.828125 
Q 18.609375 31.296875 18.609375 23.390625 
Q 18.609375 15.53125 22.484375 10.953125 
Q 26.375 6.390625 33.015625 6.390625 
Q 39.65625 6.390625 43.53125 10.953125 
Q 47.40625 15.53125 47.40625 23.390625 
Q 47.40625 31.296875 43.53125 35.828125 
Q 39.65625 40.375 33.015625 40.375 
z
M 52.59375 71.296875 
L 52.59375 62.3125 
Q 48.875 64.0625 45.09375 64.984375 
Q 41.3125 65.921875 37.59375 65.921875 
Q 27.828125 65.921875 22.671875 59.328125 
Q 17.53125 52.734375 16.796875 39.40625 
Q 19.671875 43.65625 24.015625 45.921875 
Q 28.375 48.1875 33.59375 48.1875 
Q 44.578125 48.1875 50.953125 41.515625 
Q 57.328125 34.859375 57.328125 23.390625 
Q 57.328125 12.15625 50.6875 5.359375 
Q 44.046875 -1.421875 33.015625 -1.421875 
Q 20.359375 -1.421875 13.671875 8.265625 
Q 6.984375 17.96875 6.984375 36.375 
Q 6.984375 53.65625 15.1875 63.9375 
Q 23.390625 74.21875 37.203125 74.21875 
Q 40.921875 74.21875 44.703125 73.484375 
Q 48.484375 72.75 52.59375 71.296875 
z
" id="DejaVuSans-54"/>
      </defs>
      <g transform="translate(7.2 148.234037)scale(0.1 -0.1)">
       <use xlink:href="#DejaVuSans-54"/>
       <use x="63.623047" xlink:href="#DejaVuSans-48"/>
       <use x="127.246094" xlink:href="#DejaVuSans-48"/>
      </g>
     </g>
    </g>
    <g id="ytick_5">
     <g id="line2d_15">
      <g>
       <use style="stroke:#000000;stroke-width:0.8;" x="33.2875" xlink:href="#m6ae8c7783c" y="64.81403"/>
      </g>
     </g>
     <g id="text_16">
      <!-- 800 -->
      <g transform="translate(7.2 68.613249)scale(0.1 -0.1)">
       <use xlink:href="#DejaVuSans-56"/>
       <use x="63.623047" xlink:href="#DejaVuSans-48"/>
       <use x="127.246094" xlink:href="#DejaVuSans-48"/>
      </g>
     </g>
    </g>
   </g>
   <g id="line2d_16">
    <path clip-path="url(#p23048c4870)" d="M 63.723864 379.841401 
L 79.702955 379.803004 
L 80.463864 379.649416 
L 81.985682 379.649416 
L 84.268409 379.975793 
L 85.029318 379.898999 
L 87.312045 380.087147 
L 89.594773 380.087147 
L 90.355682 380.225376 
L 91.8775 380.148582 
L 92.638409 380.217697 
L 101.769318 380.244577 
L 102.530227 380.225376 
L 103.291136 380.340572 
L 110.900227 380.395471 
L 113.182955 380.427144 
L 118.509318 380.486521 
L 119.270227 380.450894 
L 127.640227 380.494439 
L 128.401136 380.347969 
L 129.162045 380.387556 
L 139.814773 380.391513 
L 140.575682 380.288587 
L 142.858409 380.169829 
L 143.619318 379.595819 
L 144.380227 379.932309 
L 145.141136 379.928347 
L 145.902045 380.066903 
L 148.945682 379.659157 
L 151.228409 379.773959 
L 153.511136 379.983771 
L 156.554773 380.003565 
L 164.163864 380.011479 
L 164.924773 380.237125 
L 167.2075 380.221292 
L 171.012045 380.249 
L 172.533864 380.446937 
L 182.425682 380.597365 
L 183.186591 380.46277 
L 193.078409 380.466727 
L 204.492045 380.510276 
L 207.535682 379.865009 
L 208.296591 380.003565 
L 212.101136 380.007522 
L 212.862045 380.130242 
L 214.383864 380.043148 
L 215.144773 380.106491 
L 222.753864 380.031273 
L 225.036591 380.066903 
L 229.602045 380.122323 
L 230.362955 379.857095 
L 231.123864 379.952102 
L 233.406591 379.932309 
L 234.1675 380.062942 
L 250.9075 380.181705 
L 251.668409 380.276712 
L 257.755682 380.197537 
L 260.038409 379.880845 
L 270.691136 379.963978 
L 271.452045 379.825421 
L 272.212955 380.011479 
L 273.734773 380.011479 
L 277.539318 379.83334 
L 278.300227 380.047109 
L 281.343864 379.876884 
L 282.104773 380.07086 
L 284.3875 380.169829 
L 288.952955 379.857095 
L 289.713864 379.536438 
L 291.996591 379.872927 
L 292.7575 379.853134 
L 293.518409 380.031273 
L 294.279318 379.932309 
L 298.083864 379.932309 
L 298.844773 379.813546 
L 300.366591 380.130242 
L 302.649318 380.074818 
L 303.410227 379.940223 
L 304.171136 380.055028 
L 307.975682 380.058985 
L 309.4975 379.746251 
L 310.258409 379.960016 
L 311.019318 379.77792 
L 314.062955 379.975853 
L 318.628409 379.932309 
L 319.389318 379.773959 
L 320.911136 379.928347 
L 342.9775 379.995647 
L 346.021136 379.963978 
L 348.303864 380.086697 
L 350.586591 380.011479 
L 352.108409 380.114405 
L 353.630227 380.090654 
L 357.434773 380.130242 
L 358.195682 380.209413 
L 366.565682 380.320257 
L 368.848409 380.549859 
L 369.609318 380.415264 
L 372.652955 380.51819 
L 374.174773 380.545902 
L 374.935682 380.130242 
L 377.979318 380.530065 
L 380.262045 380.589447 
L 385.588409 380.684454 
L 396.241136 380.759672 
L 398.523864 380.605283 
L 399.284773 380.696333 
L 400.045682 380.585489 
L 401.5675 380.842804 
L 403.850227 380.842804 
L 404.611136 380.605283 
L 405.372045 380.759672 
L 406.893864 380.617159 
L 410.698409 380.783423 
L 411.459318 380.66466 
L 412.220227 380.708209 
L 416.024773 380.700291 
L 417.546591 380.890306 
L 419.829318 380.735917 
L 421.351136 380.838843 
L 435.808409 380.957605 
L 443.4175 381.028862 
L 444.178409 381.076364 
L 446.461136 380.66466 
L 447.222045 380.898224 
L 447.982955 380.807174 
L 449.504773 380.898224 
L 454.831136 380.910099 
L 457.874773 380.763629 
L 458.635682 380.842804 
L 459.396591 380.728003 
L 460.1575 380.747796 
L 462.440227 380.644871 
L 464.722955 380.779466 
L 465.483864 380.652785 
L 473.092955 380.902181 
L 474.614773 380.648828 
L 475.375682 380.367762 
L 476.136591 380.367762 
L 481.462955 379.944184 
L 485.2675 379.952102 
L 486.028409 379.900639 
L 486.789318 380.011479 
L 492.115682 379.845215 
L 497.442045 379.821464 
L 500.485682 379.932309 
L 501.246591 380.027316 
L 502.768409 379.971896 
L 511.138409 380.324218 
L 511.899318 380.252961 
L 513.421136 380.363801 
L 517.225682 380.328175 
L 518.7475 380.34005 
L 522.552045 380.506315 
L 523.312955 380.474645 
L 524.073864 380.256918 
L 527.878409 380.403389 
L 529.400227 380.249 
L 531.682955 380.090654 
L 532.443864 380.260879 
L 533.204773 380.165868 
L 533.965682 379.908554 
L 534.726591 380.130242 
L 538.531136 380.114405 
L 540.052955 380.126284 
L 549.944773 380.023355 
L 550.705682 380.153993 
L 558.314773 380.144199 
L 559.836591 380.096427 
L 560.5975 379.853583 
L 561.358409 379.758038 
L 566.684773 379.84164 
L 575.054773 380.040692 
L 575.815682 379.714247 
L 576.576591 379.519176 
L 577.3375 379.674436 
L 579.620227 379.363915 
L 580.381136 379.121072 
L 581.902955 379.371878 
L 587.229318 379.256428 
L 587.990227 379.555006 
L 591.794773 379.45548 
L 592.555682 379.65055 
L 595.599318 379.654531 
L 596.360227 379.539081 
L 597.882045 379.654531 
L 598.642955 379.395764 
L 602.4475 379.451498 
L 603.208409 379.248465 
L 603.969318 378.918039 
L 606.252045 378.480125 
L 608.534773 378.718987 
L 611.578409 378.571689 
L 614.622045 378.34477 
L 616.904773 378.360694 
L 619.1875 378.19349 
L 619.948409 378.006381 
L 622.231136 377.564486 
L 622.992045 376.561264 
L 623.752955 376.242781 
L 624.513864 376.628941 
L 627.5575 376.73643 
L 628.318409 376.688657 
L 629.840227 376.768278 
L 638.210227 377.285813 
L 639.732045 377.126571 
L 641.253864 377.226097 
L 645.058409 377.114628 
L 645.819318 377.054912 
L 646.580227 377.138514 
L 654.950227 377.130552 
L 656.472045 377.285813 
L 657.232955 377.249984 
L 661.798409 377.600315 
L 662.559318 377.882969 
L 665.602955 377.405244 
L 667.124773 377.445055 
L 667.885682 377.648088 
L 670.168409 378.519935 
L 670.929318 378.289035 
L 671.690227 378.201452 
L 672.451136 378.718987 
L 672.451136 378.718987 
" style="fill:none;stroke:#1f77b4;stroke-linecap:square;stroke-width:1.5;"/>
   </g>
   <g id="line2d_17">
    <path clip-path="url(#p23048c4870)" d="M 63.723864 375.147995 
L 64.484773 375.315199 
L 65.245682 375.335104 
L 66.006591 375.534156 
L 68.289318 375.872544 
L 71.332955 375.852638 
L 75.1375 375.892449 
L 76.659318 376.151216 
L 78.942045 376.191027 
L 79.702955 376.350268 
L 81.224773 376.290553 
L 81.985682 375.796904 
L 85.029318 376.031785 
L 85.790227 375.812829 
L 86.551136 375.952164 
L 89.594773 375.991975 
L 100.2475 376.290553 
L 102.530227 376.907614 
L 106.334773 376.947425 
L 107.856591 376.899652 
L 108.6175 376.991216 
L 112.422045 376.796145 
L 113.182955 376.907614 
L 113.943864 376.656809 
L 116.9875 376.493586 
L 117.748409 377.293775 
L 118.509318 377.604296 
L 119.270227 377.496808 
L 121.552955 377.50477 
L 123.074773 377.126571 
L 124.596591 377.12259 
L 129.162045 377.046951 
L 134.488409 377.397282 
L 135.249318 377.226097 
L 139.814773 377.226097 
L 140.575682 377.445055 
L 144.380227 377.365434 
L 145.141136 377.548562 
L 145.902045 377.604296 
L 151.228409 377.667993 
L 153.511136 377.922779 
L 158.8375 377.922779 
L 161.120227 377.357472 
L 161.881136 377.683917 
L 167.2075 378.133774 
L 170.251136 378.320883 
L 171.012045 378.480125 
L 171.772955 378.320883 
L 174.816591 378.643348 
L 176.338409 378.599556 
L 177.860227 378.738892 
L 180.142955 378.663252 
L 180.903864 378.906096 
L 181.664773 379.316143 
L 182.425682 379.555006 
L 183.186591 379.391783 
L 186.230227 379.511214 
L 186.991136 379.324105 
L 187.752045 379.316143 
L 188.512955 379.45548 
L 193.078409 379.355954 
L 193.839318 379.316143 
L 196.882955 379.375858 
L 199.165682 379.435574 
L 217.4275 379.515195 
L 219.710227 379.642588 
L 225.036591 379.793868 
L 230.362955 379.722209 
L 231.123864 380.03273 
L 233.406591 380.112351 
L 234.1675 380.012825 
L 234.928409 379.328086 
L 235.689318 378.918039 
L 238.732955 378.699082 
L 241.776591 378.918039 
L 244.059318 378.758798 
L 244.820227 378.531878 
L 245.581136 378.579651 
L 247.102955 378.838418 
L 250.9075 379.117091 
L 251.668409 379.308181 
L 255.472955 379.714247 
L 256.233864 379.543062 
L 256.994773 379.754057 
L 260.799318 379.766 
L 261.560227 379.694342 
L 262.321136 379.805811 
L 263.082045 379.714247 
L 266.886591 379.789887 
L 268.408409 379.674436 
L 276.0175 379.005622 
L 277.539318 379.216617 
L 278.300227 379.236522 
L 283.626591 379.200693 
L 284.3875 379.220598 
L 288.952955 379.164863 
L 289.713864 379.3042 
L 291.996591 379.256428 
L 294.279318 379.634626 
L 297.322955 379.694342 
L 298.083864 379.909318 
L 298.844773 379.881451 
L 299.605682 379.698323 
L 300.366591 379.65055 
L 315.584773 379.714247 
L 316.345682 379.638607 
L 318.628409 379.602778 
L 320.150227 379.722209 
L 320.911136 379.817754 
L 321.672045 379.793868 
L 326.2375 379.980977 
L 326.998409 380.06856 
L 332.324773 380.112351 
L 341.455682 379.905337 
L 342.9775 380.044673 
L 350.586591 380.116332 
L 352.869318 380.335289 
L 353.630227 380.191972 
L 362.761136 379.953109 
L 363.522045 379.813773 
L 364.282955 379.865526 
L 369.609318 379.813773 
L 372.652955 379.72619 
L 374.174773 379.654531 
L 374.935682 379.622683 
L 380.262045 379.833678 
L 384.066591 379.754057 
L 385.588409 379.833678 
L 390.914773 379.821735 
L 401.5675 379.642588 
L 404.611136 379.694342 
L 406.132955 379.913299 
L 417.546591 380.22382 
L 425.155682 380.168085 
L 427.438409 380.03273 
L 428.199318 380.132256 
L 438.091136 380.351213 
L 438.852045 380.259649 
L 444.178409 380.474625 
L 447.222045 380.371118 
L 448.743864 380.303441 
L 449.504773 380.410929 
L 457.874773 380.331308 
L 460.1575 380.355194 
L 463.962045 380.478607 
L 465.483864 380.391024 
L 479.180227 380.33927 
L 481.462955 379.873488 
L 483.745682 379.634626 
L 485.2675 379.694342 
L 486.028409 379.84164 
L 489.832955 379.658512 
L 490.593864 379.272352 
L 491.354773 379.105148 
L 494.398409 379.144958 
L 497.442045 379.415669 
L 501.246591 379.463441 
L 502.0075 379.403726 
L 502.768409 379.57093 
L 506.572955 379.718228 
L 511.138409 379.714247 
L 512.660227 379.797849 
L 513.421136 379.754057 
L 517.225682 379.833678 
L 518.7475 379.781925 
L 521.030227 379.793868 
L 521.791136 379.674436 
L 527.1175 380.012825 
L 527.878409 380.152161 
L 532.443864 380.096427 
L 534.726591 380.112351 
L 545.379318 380.172067 
L 549.944773 380.219839 
L 552.988409 379.714247 
L 553.749318 379.714247 
L 554.510227 379.45946 
L 556.032045 379.375858 
L 561.358409 379.395764 
L 564.402045 379.196712 
L 568.9675 379.22856 
L 569.728409 379.754057 
L 571.250227 379.793868 
L 593.316591 379.730171 
L 598.642955 379.698323 
L 608.534773 379.634626 
L 609.295682 379.614721 
L 611.578409 379.399745 
L 667.124773 379.34401 
L 667.885682 379.415669 
L 671.690227 379.5351 
L 672.451136 379.674436 
L 672.451136 379.674436 
" style="fill:none;stroke:#ff7f0e;stroke-linecap:square;stroke-width:1.5;"/>
   </g>
   <g id="line2d_18">
    <path clip-path="url(#p23048c4870)" d="M 63.723864 222.322418 
L 65.245682 222.322418 
L 66.006591 224.365204 
L 68.289318 224.07004 
L 69.050227 222.128238 
L 69.811136 222.423414 
L 70.572045 222.423414 
L 71.332955 225.813761 
L 73.615682 224.066152 
L 74.376591 224.066152 
L 75.1375 222.128238 
L 79.702955 222.124362 
L 80.463864 224.07004 
L 81.985682 224.07004 
L 84.268409 222.128238 
L 85.029318 222.128238 
L 85.790227 221.701037 
L 97.964773 221.701037 
L 100.2475 220.186449 
L 101.769318 220.186449 
L 102.530227 225.619581 
L 103.291136 226.007941 
L 105.573864 216.407717 
L 106.334773 216.407717 
L 107.095682 212.850356 
L 107.856591 210.477477 
L 108.6175 224.458376 
L 110.900227 224.454512 
L 111.661136 224.066152 
L 112.422045 222.128238 
L 116.9875 222.136001 
L 117.748409 223.681691 
L 118.509318 222.128238 
L 119.270227 236.885881 
L 121.552955 239.600503 
L 123.074773 239.600503 
L 124.596591 231.448849 
L 126.879318 231.060501 
L 127.640227 235.7208 
L 128.401136 231.448849 
L 129.162045 227.953618 
L 132.205682 229.89542 
L 133.7275 229.89542 
L 134.488409 231.448849 
L 138.292955 231.444973 
L 139.053864 230.866321 
L 139.814773 230.866321 
L 140.575682 231.837209 
L 155.793864 231.841109 
L 156.554773 243.099622 
L 160.359318 243.099622 
L 161.120227 243.297702 
L 161.881136 239.604391 
L 164.163864 240.381112 
L 164.924773 240.381112 
L 165.685682 243.487982 
L 166.446591 240.384999 
L 169.490227 240.384999 
L 170.251136 239.604391 
L 171.012045 235.837299 
L 175.5775 235.837299 
L 176.338409 236.105285 
L 180.142955 236.105285 
L 180.903864 239.992751 
L 181.664773 235.7208 
L 185.469318 235.7208 
L 186.230227 239.604391 
L 187.752045 239.608279 
L 188.512955 240.781111 
L 191.556591 240.885983 
L 192.3175 241.165584 
L 193.839318 241.165584 
L 196.122045 241.550068 
L 212.862045 241.550068 
L 214.383864 245.623952 
L 215.144773 247.371561 
L 222.753864 247.371561 
L 223.514773 251.259039 
L 236.450227 251.259039 
L 238.732955 255.142643 
L 239.493864 264.847726 
L 240.254773 264.847726 
L 241.015682 266.789515 
L 241.776591 266.137883 
L 244.059318 266.133958 
L 244.820227 267.110326 
L 246.342045 267.110326 
L 247.102955 269.648859 
L 250.9075 269.648859 
L 251.668409 268.086682 
L 262.321136 268.086682 
L 263.082045 265.743411 
L 265.364773 264.962329 
L 266.125682 261.798929 
L 266.886591 261.798929 
L 267.6475 262.228523 
L 270.691136 262.228523 
L 271.452045 260.353907 
L 272.212955 260.353907 
L 272.973864 258.323076 
L 276.0175 258.280141 
L 276.778409 254.417629 
L 277.539318 254.413741 
L 278.300227 250.648896 
L 281.343864 248.168935 
L 282.104773 247.778388 
L 282.865682 254.417629 
L 283.626591 252.461017 
L 287.431136 252.461017 
L 288.192045 254.417629 
L 288.952955 254.417629 
L 289.713864 263.404065 
L 291.996591 263.404065 
L 292.7575 252.464929 
L 294.279318 252.464929 
L 297.322955 244.657947 
L 300.366591 244.657947 
L 302.649318 247.391753 
L 303.410227 250.512206 
L 304.171136 250.512206 
L 305.692955 248.559482 
L 307.975682 248.559482 
L 309.4975 250.512206 
L 310.258409 247.805748 
L 311.019318 250.512206 
L 313.302045 255.983742 
L 314.062955 260.2758 
L 318.628409 260.2758 
L 319.389318 263.404065 
L 323.954773 263.400153 
L 324.715682 262.619071 
L 325.476591 262.228523 
L 326.2375 261.447441 
L 326.998409 261.056894 
L 329.281136 259.49863 
L 331.563864 259.49863 
L 332.324773 258.436367 
L 336.129318 261.189697 
L 336.890227 262.371373 
L 337.651136 261.193633 
L 345.260227 261.189697 
L 346.021136 259.220207 
L 346.782045 259.220207 
L 347.542955 264.340851 
L 348.303864 257.459501 
L 350.586591 257.459501 
L 351.3475 257.294066 
L 352.108409 253.315724 
L 352.869318 253.315724 
L 353.630227 251.342322 
L 357.434773 251.342322 
L 358.195682 250.36152 
L 361.239318 245.437826 
L 362.761136 245.43389 
L 363.522045 241.494935 
L 364.282955 241.494935 
L 366.565682 243.468349 
L 368.848409 243.468349 
L 369.609318 241.455548 
L 371.892045 241.459484 
L 372.652955 240.313234 
L 373.413864 240.313234 
L 374.174773 238.737657 
L 374.935682 237.555969 
L 379.501136 237.555969 
L 380.262045 236.374292 
L 382.544773 236.374292 
L 383.305682 237.555969 
L 384.066591 235.980391 
L 398.523864 235.988264 
L 399.284773 235.661342 
L 404.611136 235.661342 
L 405.372045 229.68988 
L 406.132955 233.617026 
L 406.893864 228.894231 
L 409.176591 231.639688 
L 409.9375 230.469808 
L 410.698409 235.027156 
L 411.459318 231.651497 
L 412.220227 233.617026 
L 414.502955 233.61309 
L 415.263864 229.68202 
L 416.024773 229.68202 
L 416.785682 227.747982 
L 417.546591 227.747982 
L 419.829318 228.106443 
L 438.852045 228.114315 
L 441.134773 229.678083 
L 441.895682 230.469808 
L 444.178409 230.438293 
L 446.461136 230.438293 
L 447.222045 229.355086 
L 447.982955 228.520025 
L 454.070227 228.520025 
L 454.831136 226.133017 
L 457.874773 226.133017 
L 458.635682 225.345241 
L 462.440227 225.345241 
L 463.201136 224.163552 
L 467.766591 224.163552 
L 468.5275 229.678083 
L 469.288409 224.222621 
L 473.092955 224.191118 
L 473.853864 223.456251 
L 474.614773 223.828223 
L 478.419318 223.828223 
L 479.180227 223.032829 
L 479.941136 224.773975 
L 485.2675 224.773975 
L 486.028409 223.626401 
L 486.789318 223.428551 
L 489.072045 223.428551 
L 489.832955 238.267849 
L 490.593864 236.491082 
L 491.354773 236.882844 
L 492.115682 236.487133 
L 496.681136 236.487133 
L 497.442045 234.112834 
L 499.724773 234.112834 
L 500.485682 232.92569 
L 501.246591 230.551414 
L 502.0075 228.96856 
L 510.3775 228.96856 
L 511.899318 226.594272 
L 515.703864 226.594272 
L 516.464773 228.572837 
L 517.225682 228.572837 
L 517.986591 225.411077 
L 518.7475 228.177127 
L 521.030227 228.177127 
L 521.791136 228.96856 
L 527.1175 228.96856 
L 527.878409 225.003497 
L 528.639318 225.407116 
L 529.400227 223.032829 
L 531.682955 217.085252 
L 532.443864 217.085252 
L 533.204773 205.225684 
L 539.292045 205.225684 
L 540.052955 206.017117 
L 542.335682 205.225684 
L 544.618409 205.225684 
L 545.379318 203.247119 
L 547.662045 204.03854 
L 548.422955 207.204249 
L 549.183864 207.204249 
L 549.944773 212.719752 
L 550.705682 214.703213 
L 552.988409 216.686674 
L 556.032045 216.726341 
L 558.314773 214.703213 
L 559.075682 208.752842 
L 563.641136 208.752842 
L 564.402045 205.178642 
L 565.162955 204.781947 
L 565.923864 203.004779 
L 568.9675 203.004779 
L 569.728409 201.255372 
L 570.489318 198.776043 
L 572.011136 198.807776 
L 574.293864 190.112301 
L 575.054773 189.79494 
L 575.815682 165.910125 
L 576.576591 165.910125 
L 577.3375 171.027476 
L 587.229318 171.023491 
L 587.990227 169.075737 
L 593.316591 169.075737 
L 595.599318 165.11676 
L 601.686591 165.11676 
L 602.4475 155.401775 
L 606.252045 155.401775 
L 607.012955 157.163089 
L 609.295682 157.182916 
L 611.578409 149.645767 
L 613.861136 149.641806 
L 614.622045 148.813962 
L 622.231136 148.813962 
L 622.992045 144.832922 
L 627.5575 144.741366 
L 628.318409 136.480709 
L 629.079318 144.434818 
L 630.601136 144.430833 
L 632.883864 144.63387 
L 633.644773 140.453779 
L 635.166591 140.453779 
L 635.9275 140.055675 
L 638.971136 140.055675 
L 639.732045 136.47274 
L 640.492955 138.463259 
L 641.253864 138.463259 
L 643.536591 134.48222 
L 644.2975 129.306869 
L 645.058409 132.4917 
L 648.862955 132.4917 
L 649.623864 128.510661 
L 650.384773 122.539102 
L 651.145682 122.539102 
L 651.906591 108.605464 
L 654.189318 108.605464 
L 654.950227 100.643385 
L 655.711136 84.719227 
L 656.472045 44.904848 
L 657.232955 44.912818 
L 661.798409 64.81403 
L 664.842045 64.81403 
L 665.602955 60.832991 
L 666.363864 25.003636 
L 667.885682 40.927794 
L 670.168409 60.832991 
L 670.929318 60.832991 
L 671.690227 74.710888 
L 672.451136 120.548582 
L 672.451136 120.548582 
" style="fill:none;stroke:#2ca02c;stroke-linecap:square;stroke-width:1.5;"/>
   </g>
   <g id="line2d_19">
    <path clip-path="url(#p23048c4870)" d="M 63.723864 251.681648 
L 64.484773 252.471332 
L 71.332955 252.471332 
L 73.615682 249.777983 
L 81.985682 249.777983 
L 84.268409 247.866688 
L 85.029318 247.866688 
L 85.790227 241.381304 
L 103.291136 241.385119 
L 105.573864 249.774168 
L 107.095682 249.774168 
L 107.856591 244.05174 
L 108.6175 244.05174 
L 110.900227 249.774168 
L 111.661136 249.774168 
L 112.422045 244.433248 
L 117.748409 244.433248 
L 118.509318 247.107523 
L 122.313864 247.107523 
L 123.074773 250.155652 
L 139.053864 250.155652 
L 139.814773 257.407879 
L 164.924773 257.407879 
L 165.685682 274.571288 
L 185.469318 274.571288 
L 186.230227 287.923595 
L 191.556591 287.923595 
L 192.3175 282.964171 
L 209.0575 282.964171 
L 209.818409 287.923595 
L 217.4275 287.923595 
L 218.188409 283.536421 
L 235.689318 283.536421 
L 236.450227 283.727163 
L 241.015682 283.727163 
L 241.776591 283.017749 
L 244.059318 283.017749 
L 244.820227 283.620955 
L 250.146591 283.620955 
L 250.9075 291.086199 
L 276.0175 291.086199 
L 276.778409 291.282153 
L 277.539318 296.845549 
L 278.300227 290.701994 
L 288.952955 290.701994 
L 289.713864 298.770457 
L 291.996591 293.391486 
L 292.7575 293.007262 
L 293.518409 291.086199 
L 313.302045 291.086199 
L 314.062955 292.046737 
L 314.823864 292.054415 
L 315.584773 293.775691 
L 316.345682 294.928331 
L 326.2375 294.928331 
L 326.998409 298.770457 
L 331.563864 298.770457 
L 332.324773 297.619007 
L 350.586591 297.61122 
L 351.3475 293.720473 
L 352.108409 295.278331 
L 358.195682 295.278331 
L 361.239318 289.825839 
L 362.000227 289.825839 
L 362.761136 286.710124 
L 372.652955 286.710124 
L 373.413864 289.825839 
L 405.372045 289.825839 
L 406.132955 280.089234 
L 406.893864 287.878521 
L 409.9375 287.878521 
L 410.698409 280.089234 
L 416.785682 280.089234 
L 417.546591 278.141917 
L 419.829318 285.152266 
L 436.569318 285.152266 
L 437.330227 283.983881 
L 473.092955 283.983881 
L 473.853864 283.181872 
L 479.180227 283.181872 
L 479.941136 289.071005 
L 489.832955 289.071005 
L 490.593864 285.14491 
L 491.354773 282.569396 
L 492.115682 279.25184 
L 494.398409 279.255777 
L 495.920227 275.329688 
L 496.681136 275.329688 
L 497.442045 274.348157 
L 500.485682 274.151851 
L 502.768409 274.151851 
L 505.051136 269.833161 
L 510.3775 269.833161 
L 511.138409 267.477511 
L 511.899318 267.477511 
L 512.660227 265.51446 
L 513.421136 265.51446 
L 515.703864 269.440549 
L 516.464773 265.51446 
L 521.030227 265.51446 
L 521.791136 263.55141 
L 527.1175 263.55141 
L 527.878409 251.773144 
L 528.639318 249.849359 
L 529.400227 249.810105 
L 531.682955 241.957916 
L 532.443864 241.957916 
L 533.204773 238.424427 
L 533.965682 241.957916 
L 538.531136 241.957916 
L 539.292045 237.639215 
L 540.052955 234.105738 
L 542.335682 236.068777 
L 543.096591 235.676164 
L 545.379318 235.676164 
L 547.662045 245.884005 
L 548.422955 249.810105 
L 549.183864 249.810105 
L 549.944773 249.334976 
L 550.705682 265.09128 
L 552.988409 262.144123 
L 554.510227 262.144123 
L 555.271136 263.519202 
L 556.032045 255.245072 
L 558.314773 253.275036 
L 559.075682 253.275036 
L 559.836591 252.093019 
L 561.358409 252.093019 
L 563.641136 251.308948 
L 569.728409 251.308948 
L 570.489318 249.728973 
L 571.250227 249.728973 
L 572.011136 245.398852 
L 574.293864 246.182923 
L 575.054773 243.424867 
L 575.815682 235.544747 
L 581.142045 235.544747 
L 581.902955 233.614122 
L 587.229318 233.614122 
L 587.990227 230.028648 
L 601.686591 230.028648 
L 603.208409 221.754517 
L 608.534773 221.754517 
L 609.295682 215.844421 
L 611.578409 206.388262 
L 613.861136 208.250243 
L 614.622045 212.108503 
L 616.904773 208.131449 
L 619.1875 208.131449 
L 619.948409 200.16937 
L 622.231136 199.373162 
L 622.992045 200.16937 
L 623.752955 200.16937 
L 624.513864 198.17885 
L 627.5575 198.17885 
L 628.318409 192.207291 
L 629.079318 195.790227 
L 629.840227 195.790227 
L 630.601136 192.605395 
L 632.883864 192.207291 
L 634.405682 192.207291 
L 635.166591 186.235732 
L 635.9275 184.245212 
L 638.210227 182.254693 
L 638.971136 178.273653 
L 644.2975 178.273653 
L 645.058409 170.319544 
L 651.145682 170.311574 
L 651.906591 169.316315 
L 654.189318 164.340015 
L 654.950227 161.354236 
L 655.711136 138.463259 
L 656.472045 138.463259 
L 657.232955 128.510661 
L 665.602955 128.510661 
L 666.363864 105.022528 
L 667.124773 88.700267 
L 667.885682 98.652865 
L 671.690227 98.652865 
L 671.690227 98.652865 
" style="fill:none;stroke:#d62728;stroke-linecap:square;stroke-width:1.5;"/>
   </g>
   <g id="line2d_20">
    <path clip-path="url(#p23048c4870)" d="M 63.723864 369.913126 
L 64.484773 370.121612 
L 66.006591 369.901958 
L 68.289318 370.039705 
L 69.050227 369.968971 
L 70.572045 369.965244 
L 71.332955 369.708364 
L 79.702955 369.980138 
L 80.463864 369.71581 
L 81.224773 369.71581 
L 81.985682 369.894512 
L 85.029318 369.968971 
L 85.790227 369.767931 
L 86.551136 369.447755 
L 87.312045 369.59295 
L 90.355682 369.968971 
L 91.116591 369.913126 
L 91.8775 370.132777 
L 92.638409 369.950358 
L 97.203864 369.522213 
L 97.964773 369.585502 
L 101.008409 369.525935 
L 103.291136 369.537108 
L 106.334773 370.304036 
L 107.095682 370.445507 
L 108.6175 370.114167 
L 110.900227 369.790267 
L 111.661136 370.043432 
L 113.182955 369.470093 
L 113.943864 369.522213 
L 117.748409 369.272777 
L 118.509318 369.537108 
L 119.270227 369.298837 
L 121.552955 369.54083 
L 122.313864 369.838665 
L 123.835682 369.931738 
L 124.596591 370.136502 
L 126.879318 369.987585 
L 127.640227 370.151394 
L 129.162045 369.834944 
L 132.966591 370.136502 
L 134.488409 369.637628 
L 135.249318 369.741722 
L 137.532045 369.741722 
L 138.292955 370.183588 
L 139.053864 370.045035 
L 139.814773 369.764191 
L 142.858409 369.827848 
L 143.619318 369.678065 
L 145.141136 369.854058 
L 145.902045 370.715319 
L 148.184773 371.419304 
L 148.945682 371.314456 
L 149.706591 371.018632 
L 150.4675 371.509176 
L 151.228409 371.449261 
L 153.511136 371.501686 
L 156.554773 371.876146 
L 159.598409 372.007208 
L 160.359318 372.085844 
L 161.120227 371.97725 
L 161.881136 372.168225 
L 164.924773 372.621321 
L 165.685682 372.531451 
L 166.446591 373.018249 
L 169.490227 372.999526 
L 170.251136 372.718682 
L 171.772955 372.849742 
L 172.533864 372.812296 
L 174.816591 373.190501 
L 175.5775 372.898422 
L 176.338409 372.737405 
L 177.860227 372.542685 
L 180.142955 372.475284 
L 180.903864 372.898422 
L 181.664773 373.186757 
L 182.425682 373.617386 
L 183.186591 373.463857 
L 185.469318 373.452623 
L 186.991136 373.119354 
L 188.512955 373.388966 
L 190.795682 373.4002 
L 191.556591 373.1568 
L 192.3175 372.628811 
L 193.839318 372.887189 
L 196.122045 372.887189 
L 196.882955 372.703703 
L 197.643864 372.96208 
L 198.404773 372.789829 
L 199.165682 372.958336 
L 201.448409 372.744893 
L 202.209318 372.812296 
L 202.970227 372.734803 
L 203.731136 372.791387 
L 204.492045 372.531099 
L 208.296591 372.757436 
L 209.0575 373.036584 
L 209.818409 373.108258 
L 212.101136 372.870605 
L 212.862045 372.621634 
L 213.622955 372.802704 
L 214.383864 372.414158 
L 215.144773 372.338714 
L 218.188409 372.602773 
L 219.710227 372.734803 
L 220.471136 372.674447 
L 224.275682 372.866832 
L 225.036591 372.531099 
L 225.7975 372.466972 
L 229.602045 372.561278 
L 231.123864 373.017724 
L 233.406591 372.561278 
L 239.493864 372.802704 
L 240.254773 372.580138 
L 241.015682 372.580138 
L 241.776591 372.410387 
L 244.059318 372.387753 
L 244.820227 372.557506 
L 245.581136 372.553734 
L 246.342045 372.863061 
L 247.102955 372.961139 
L 249.385682 372.715941 
L 250.9075 372.885694 
L 251.668409 372.802704 
L 255.472955 373.081853 
L 256.994773 373.225199 
L 257.755682 372.829109 
L 260.799318 372.708397 
L 261.560227 372.870605 
L 263.082045 372.372664 
L 265.364773 372.621634 
L 266.886591 372.659357 
L 267.6475 372.361346 
L 268.408409 372.538644 
L 270.691136 372.640496 
L 271.452045 372.406614 
L 272.212955 371.806574 
L 273.734773 371.863551 
L 276.0175 371.810372 
L 276.778409 371.559668 
L 277.539318 371.673623 
L 278.300227 371.552071 
L 281.343864 371.723006 
L 282.104773 371.950917 
L 282.865682 371.901537 
L 283.626591 371.981306 
L 284.3875 371.863551 
L 287.431136 371.749596 
L 288.192045 371.954716 
L 288.952955 371.844559 
L 289.713864 372.053478 
L 291.996591 372.357363 
L 292.7575 371.97371 
L 293.518409 371.985105 
L 294.279318 371.825566 
L 297.322955 371.681221 
L 298.083864 371.905335 
L 298.844773 371.920529 
L 299.605682 372.04968 
L 300.366591 371.901537 
L 304.171136 372.068673 
L 305.692955 371.890141 
L 307.975682 371.996501 
L 310.258409 371.688817 
L 311.019318 371.426718 
L 313.302045 371.479897 
L 314.823864 371.198805 
L 316.345682 371.103842 
L 318.628409 371.069655 
L 319.389318 371.346949 
L 320.911136 371.202604 
L 321.672045 371.312762 
L 323.954773 371.130431 
L 326.2375 371.320359 
L 326.998409 371.533078 
L 329.281136 371.681221 
L 330.042045 371.616646 
L 330.802955 371.905335 
L 331.563864 371.692617 
L 332.324773 371.738199 
L 336.890227 371.787707 
L 337.651136 371.691635 
L 342.9775 371.211273 
L 346.782045 371.537918 
L 347.542955 371.422633 
L 348.303864 370.623308 
L 353.630227 370.607938 
L 358.195682 370.819297 
L 361.239318 370.604096 
L 362.761136 370.999914 
L 363.522045 371.057557 
L 364.282955 371.257387 
L 367.326591 370.903842 
L 368.0875 371.20743 
L 369.609318 371.153629 
L 371.892045 371.472589 
L 372.652955 371.741592 
L 374.174773 371.726221 
L 374.935682 371.795393 
L 377.979318 371.741592 
L 379.501136 372.191212 
L 380.262045 372.621616 
L 383.305682 372.998219 
L 384.066591 372.740746 
L 384.8275 372.959792 
L 390.914773 373.232636 
L 393.1975 373.140407 
L 394.719318 372.537072 
L 395.480227 372.633144 
L 396.241136 372.483272 
L 398.523864 372.498643 
L 399.284773 372.882932 
L 400.806591 373.040492 
L 401.5675 373.248008 
L 405.372045 373.470896 
L 406.132955 373.344081 
L 406.893864 373.344081 
L 409.176591 373.194207 
L 410.698409 373.29028 
L 412.220227 373.113507 
L 415.263864 373.420938 
L 416.024773 373.578497 
L 420.590227 373.584233 
L 421.351136 373.553176 
L 422.112045 373.642464 
L 425.916591 373.591997 
L 426.6775 373.591997 
L 428.199318 372.932044 
L 430.482045 372.314794 
L 431.242955 372.396319 
L 433.525682 372.396319 
L 435.808409 372.287621 
L 437.330227 371.938234 
L 438.091136 372.105163 
L 438.852045 371.806243 
L 442.656591 372.143984 
L 443.4175 372.279857 
L 444.178409 372.244919 
L 446.461136 371.980937 
L 447.222045 371.650961 
L 447.982955 371.779069 
L 448.743864 371.616022 
L 449.504773 371.833418 
L 451.7875 371.654842 
L 452.548409 371.371451 
L 454.831136 371.565555 
L 457.113864 371.612139 
L 457.874773 371.961526 
L 459.396591 372.050814 
L 460.1575 372.407966 
L 463.201136 372.008112 
L 463.962045 372.039168 
L 464.722955 371.872239 
L 465.483864 372.039168 
L 469.288409 372.039168 
L 470.810227 371.767423 
L 473.092955 371.565555 
L 473.853864 372.00423 
L 475.375682 371.903295 
L 476.136591 371.654842 
L 478.419318 371.992583 
L 481.462955 371.744274 
L 483.745682 371.900924 
L 485.2675 371.697279 
L 486.789318 371.900924 
L 489.072045 371.822599 
L 489.832955 372.096736 
L 491.354773 371.763855 
L 492.115682 371.994913 
L 494.398409 371.987081 
L 495.159318 372.096736 
L 499.724773 370.765215 
L 501.246591 371.47797 
L 502.0075 371.074598 
L 502.768409 371.000189 
L 505.051136 371.27041 
L 505.812045 370.953193 
L 506.572955 370.808293 
L 507.333864 371.01977 
L 508.094773 370.784795 
L 510.3775 371.149005 
L 511.138409 371.098094 
L 512.660227 371.517132 
L 513.421136 370.816125 
L 516.464773 370.980607 
L 517.225682 370.639895 
L 517.986591 370.921864 
L 518.7475 371.055015 
L 521.791136 371.246912 
L 522.552045 371.156838 
L 523.312955 370.624229 
L 524.073864 370.698639 
L 527.1175 370.459747 
L 527.878409 370.260019 
L 528.639318 370.193444 
L 529.400227 370.357925 
L 532.443864 370.538071 
L 533.204773 370.436251 
L 537.770227 370.46758 
L 538.531136 370.451916 
L 539.292045 370.295264 
L 540.052955 369.997632 
L 543.8575 370.240438 
L 545.379318 370.138616 
L 547.662045 370.166029 
L 548.422955 370.287433 
L 549.183864 370.530241 
L 550.705682 370.200505 
L 553.749318 370.204454 
L 555.271136 370.113668 
L 556.032045 369.876839 
L 559.075682 369.762371 
L 559.836591 369.521595 
L 561.358409 369.537382 
L 565.162955 369.758424 
L 566.684773 369.683428 
L 571.250227 369.75053 
L 572.011136 369.324236 
L 575.815682 369.245294 
L 577.3375 369.426863 
L 579.620227 369.316343 
L 580.381136 369.561067 
L 581.902955 369.65185 
L 585.7075 369.991307 
L 587.990227 369.659746 
L 591.033864 369.730794 
L 591.794773 370.014989 
L 593.316591 370.15314 
L 595.599318 370.038672 
L 597.121136 370.567592 
L 597.882045 370.618905 
L 598.642955 370.551803 
L 600.925682 370.646535 
L 601.686591 370.492597 
L 602.4475 370.543909 
L 603.969318 370.22419 
L 607.012955 370.026831 
L 607.773864 369.517648 
L 608.534773 369.29266 
L 609.295682 369.324236 
L 613.861136 369.04108 
L 614.622045 369.164493 
L 619.1875 368.965441 
L 619.948409 368.670843 
L 623.752955 369.327715 
L 624.513864 369.029137 
L 625.274773 368.953498 
L 628.318409 368.244872 
L 629.079318 368.439943 
L 630.601136 368.400134 
L 632.883864 368.268759 
L 634.405682 369.124683 
L 635.166591 369.172455 
L 635.9275 369.351602 
L 638.971136 369.837288 
L 640.492955 369.184397 
L 641.253864 369.136625 
L 643.536591 368.762408 
L 644.2975 368.272739 
L 645.058409 368.053782 
L 645.819318 368.149328 
L 646.580227 367.918427 
L 648.862955 368.149328 
L 650.384773 367.771129 
L 651.145682 367.970181 
L 651.906591 368.435962 
L 654.189318 368.376247 
L 654.950227 368.81018 
L 655.711136 368.706672 
L 656.472045 368.877857 
L 657.232955 368.885819 
L 661.798409 369.737762 
L 662.559318 369.642218 
L 664.842045 367.373025 
L 665.602955 366.955016 
L 666.363864 366.6644 
L 667.885682 367.524305 
L 670.168409 369.164493 
L 670.929318 368.483735 
L 671.690227 369.443166 
L 672.451136 370.928093 
L 672.451136 370.928093 
" style="fill:none;stroke:#9467bd;stroke-linecap:square;stroke-width:1.5;"/>
   </g>
   <g id="line2d_21">
    <path clip-path="url(#p23048c4870)" d="M 63.723864 374.109524 
L 64.484773 374.148804 
L 65.245682 374.305926 
L 76.659318 374.341279 
L 78.942045 374.360918 
L 79.702955 374.730152 
L 80.463864 374.57696 
L 81.985682 374.65552 
L 85.029318 374.989404 
L 85.790227 374.738008 
L 86.551136 375.05225 
L 87.312045 375.079746 
L 90.355682 375.107244 
L 91.8775 375.166163 
L 92.638409 375.523614 
L 97.203864 375.323285 
L 97.964773 375.837856 
L 101.769318 375.932129 
L 102.530227 373.516391 
L 103.291136 374.027036 
L 106.334773 373.728505 
L 107.095682 373.987755 
L 108.6175 373.626376 
L 112.422045 373.673513 
L 113.182955 373.398551 
L 113.943864 372.499032 
L 116.226591 371.611298 
L 116.9875 372.726858 
L 117.748409 372.357623 
L 119.270227 372.451896 
L 121.552955 372.652226 
L 122.313864 372.377263 
L 123.074773 372.408688 
L 123.835682 372.730786 
L 124.596591 372.671866 
L 132.205682 372.832916 
L 132.966591 373.257142 
L 133.7275 373.202149 
L 134.488409 373.359271 
L 135.249318 373.123589 
L 139.053864 373.202149 
L 142.858409 373.686205 
L 143.619318 373.66651 
L 144.380227 373.843762 
L 148.945682 373.981625 
L 149.706591 373.808312 
L 156.554773 374.040708 
L 158.8375 374.040708 
L 159.598409 373.646816 
L 160.359318 374.060403 
L 161.881136 374.119487 
L 164.924773 374.375517 
L 167.2075 375.068768 
L 170.251136 375.24602 
L 171.012045 375.222386 
L 171.772955 375.320859 
L 172.533864 375.852614 
L 174.816591 376.163788 
L 176.338409 375.419332 
L 177.860227 375.222386 
L 180.903864 375.159363 
L 181.664773 375.616279 
L 182.425682 375.57689 
L 183.186591 375.813224 
L 186.991136 375.553256 
L 187.752045 375.230264 
L 188.512955 375.557194 
L 193.839318 375.446904 
L 197.643864 375.57689 
L 198.404773 375.403576 
L 204.492045 375.458721 
L 207.535682 375.439026 
L 208.296591 375.57689 
L 209.818409 375.360249 
L 213.622955 375.02544 
L 214.383864 375.210569 
L 215.144773 375.029378 
L 218.188409 374.808799 
L 218.949318 374.296738 
L 222.753864 374.202204 
L 223.514773 374.351884 
L 224.275682 374.280983 
L 225.036591 374.359761 
L 225.7975 374.158876 
L 228.841136 373.619243 
L 229.602045 373.603487 
L 231.123864 374.355821 
L 235.689318 374.359761 
L 236.450227 374.481868 
L 238.732955 374.647303 
L 239.493864 374.828493 
L 240.254773 374.631547 
L 241.015682 375.02544 
L 241.776591 375.029378 
L 244.059318 374.670937 
L 244.820227 374.828493 
L 246.342045 374.631547 
L 247.102955 374.277044 
L 250.146591 374.552769 
L 250.9075 374.670937 
L 251.668409 374.631547 
L 256.233864 374.982112 
L 256.994773 374.749715 
L 257.755682 374.966356 
L 263.082045 374.903334 
L 266.125682 374.915149 
L 268.408409 374.651241 
L 270.691136 374.714264 
L 271.452045 374.47399 
L 272.212955 374.080098 
L 272.973864 373.954052 
L 273.734773 374.084037 
L 277.539318 373.764984 
L 278.300227 373.74135 
L 281.343864 373.883152 
L 282.104773 373.694084 
L 283.626591 373.587732 
L 284.3875 373.071733 
L 286.670227 373.292313 
L 289.713864 373.095366 
L 291.996591 372.859031 
L 293.518409 372.992954 
L 294.279318 372.811763 
L 298.083864 372.339093 
L 298.844773 372.272131 
L 299.605682 372.425749 
L 300.366591 372.264253 
L 303.410227 372.764497 
L 304.171136 373.036283 
L 305.692955 372.93781 
L 307.975682 373.422297 
L 310.258409 373.441991 
L 311.019318 373.154451 
L 313.302045 372.981138 
L 316.345682 372.228802 
L 318.628409 372.071246 
L 319.389318 371.8743 
L 321.672045 371.559185 
L 325.476591 371.480407 
L 326.2375 371.086514 
L 326.998409 370.932897 
L 330.042045 370.041714 
L 330.802955 370.239557 
L 332.324773 370.279124 
L 336.890227 370.283082 
L 337.651136 369.962576 
L 342.216591 369.843871 
L 342.9775 370.148548 
L 346.021136 370.314736 
L 347.542955 371.030927 
L 348.303864 370.567976 
L 351.3475 370.239557 
L 352.108409 370.484882 
L 352.869318 370.168333 
L 353.630227 370.247471 
L 355.912955 370.366176 
L 356.673864 370.247471 
L 357.434773 370.287039 
L 358.195682 370.211859 
L 363.522045 370.203945 
L 364.282955 370.382003 
L 368.848409 370.306823 
L 369.609318 370.544236 
L 371.892045 370.785602 
L 372.652955 370.6392 
L 374.174773 370.635242 
L 374.935682 370.441355 
L 377.218409 370.682725 
L 377.979318 370.540278 
L 379.501136 370.734164 
L 380.262045 370.437399 
L 390.153864 370.476967 
L 390.914773 370.651069 
L 395.480227 370.441355 
L 396.241136 370.603587 
L 398.523864 370.496752 
L 401.5675 370.73812 
L 403.850227 370.773732 
L 404.611136 370.655026 
L 405.372045 371.082367 
L 406.132955 371.070497 
L 406.893864 370.932007 
L 409.176591 370.960985 
L 409.9375 370.634674 
L 410.698409 370.491414 
L 412.220227 370.682426 
L 414.502955 370.706303 
L 415.263864 370.945068 
L 417.546591 371.060471 
L 421.351136 371.171895 
L 422.112045 370.964965 
L 425.916591 371.163937 
L 426.6775 371.358928 
L 427.438409 371.259442 
L 428.199318 371.398722 
L 430.482045 371.438516 
L 431.242955 371.247504 
L 435.808409 370.972924 
L 436.569318 371.084347 
L 437.330227 371.358928 
L 442.656591 371.358928 
L 443.4175 371.54596 
L 444.178409 371.358928 
L 454.831136 371.319133 
L 457.113864 371.100266 
L 457.874773 370.853541 
L 459.396591 371.279339 
L 460.1575 370.769974 
L 462.440227 370.929151 
L 463.201136 370.777933 
L 465.483864 370.821706 
L 468.5275 370.523251 
L 470.810227 369.767161 
L 473.853864 369.647779 
L 474.614773 369.846749 
L 475.375682 369.512478 
L 476.136591 368.971277 
L 478.419318 368.573335 
L 479.180227 369.170248 
L 480.702045 368.573335 
L 481.462955 368.227126 
L 483.745682 367.817245 
L 485.2675 367.399407 
L 486.789318 367.280024 
L 489.072045 367.260127 
L 489.832955 367.379509 
L 492.115682 365.588771 
L 494.398409 366.297107 
L 495.159318 366.945752 
L 495.920227 367.335736 
L 496.681136 367.383488 
L 497.442045 367.658069 
L 499.724773 367.670007 
L 500.485682 367.264106 
L 501.246591 367.303901 
L 502.0075 367.578481 
L 502.768409 367.482973 
L 505.051136 367.598377 
L 505.812045 367.284003 
L 507.333864 367.379509 
L 508.094773 367.29992 
L 511.138409 367.379509 
L 511.899318 367.658069 
L 513.421136 367.586439 
L 516.464773 368.056012 
L 517.225682 367.829184 
L 517.986591 367.467058 
L 518.7475 367.888874 
L 522.552045 368.254982 
L 524.073864 367.379509 
L 528.639318 367.29992 
L 529.400227 367.264106 
L 537.009318 367.379509 
L 537.770227 367.634192 
L 540.052955 367.650109 
L 543.096591 367.892854 
L 545.379318 368.19927 
L 547.662045 368.016215 
L 549.183864 368.223146 
L 550.705682 367.658069 
L 555.271136 367.478994 
L 556.032045 367.395428 
L 558.314773 367.602357 
L 559.075682 367.538686 
L 560.5975 367.777451 
L 561.358409 367.658069 
L 563.641136 367.654088 
L 565.923864 367.29992 
L 566.684773 367.260127 
L 568.9675 367.411345 
L 569.728409 367.339716 
L 570.489318 367.976422 
L 572.011136 367.506851 
L 575.054773 367.415324 
L 575.815682 367.777451 
L 576.576591 367.689904 
L 577.3375 367.904792 
L 580.381136 368.075907 
L 581.142045 368.33059 
L 581.902955 368.243042 
L 584.946591 368.553438 
L 585.7075 368.334571 
L 587.990227 368.358445 
L 590.272955 368.052031 
L 591.033864 367.777451 
L 591.794773 368.020196 
L 592.555682 367.777451 
L 593.316591 367.697863 
L 595.599318 367.85704 
L 596.360227 367.741637 
L 597.121136 367.777451 
L 598.642955 367.152683 
L 600.925682 366.794535 
L 601.686591 366.985547 
L 602.4475 367.379509 
L 603.208409 366.587604 
L 603.969318 366.981568 
L 607.773864 366.464244 
L 608.534773 366.185684 
L 616.904773 366.178713 
L 619.1875 365.939851 
L 619.948409 365.720893 
L 625.274773 365.581557 
L 627.5575 365.820419 
L 629.079318 365.581557 
L 630.601136 365.541747 
L 632.883864 365.374543 
L 634.405682 365.581557 
L 635.166591 365.581557 
L 635.9275 365.872173 
L 638.210227 366.377765 
L 639.732045 365.661178 
L 641.253864 366.580797 
L 643.536591 366.576817 
L 644.2975 366.795774 
L 645.819318 366.716153 
L 646.580227 366.978901 
L 648.862955 367.39293 
L 649.623864 367.173973 
L 650.384773 366.377765 
L 651.145682 366.6644 
L 651.906591 366.178713 
L 654.189318 366.51312 
L 655.711136 366.2026 
L 657.232955 366.823641 
L 661.798409 368.165252 
L 662.559318 368.567337 
L 664.842045 368.169233 
L 665.602955 367.436721 
L 666.363864 367.293404 
L 667.124773 368.149328 
L 667.885682 369.363544 
L 670.168409 370.657382 
L 670.929318 369.379469 
L 671.690227 370.18762 
L 672.451136 373.225153 
L 672.451136 373.225153 
" style="fill:none;stroke:#8c564b;stroke-linecap:square;stroke-width:1.5;"/>
   </g>
   <g id="line2d_22">
    <path clip-path="url(#p23048c4870)" d="M 63.723864 347.899837 
L 64.484773 348.776451 
L 65.245682 348.510333 
L 66.006591 347.899837 
L 68.289318 348.349879 
L 69.050227 348.839065 
L 69.811136 349.89179 
L 70.572045 349.426082 
L 71.332955 349.445652 
L 73.615682 349.390868 
L 74.376591 349.942662 
L 75.1375 349.429997 
L 76.659318 349.915269 
L 78.942045 349.899614 
L 79.702955 350.866242 
L 80.463864 350.232265 
L 81.224773 350.232265 
L 81.985682 349.754821 
L 84.268409 350.22835 
L 85.029318 350.032672 
L 85.790227 350.25574 
L 86.551136 350.940604 
L 87.312045 351.386736 
L 89.594773 351.441523 
L 90.355682 351.625455 
L 91.116591 351.461092 
L 91.8775 351.65677 
L 92.638409 352.048113 
L 97.203864 351.069743 
L 97.964773 351.226288 
L 100.2475 351.241936 
L 101.008409 351.108879 
L 101.769318 351.245849 
L 102.530227 351.20671 
L 103.291136 351.660682 
L 105.573864 352.169434 
L 106.334773 353.022564 
L 107.095682 352.873855 
L 107.856591 352.298571 
L 108.6175 352.341625 
L 110.900227 352.654696 
L 111.661136 353.089093 
L 112.422045 352.114642 
L 113.182955 352.459028 
L 113.943864 352.067676 
L 116.226591 352.513812 
L 116.9875 352.13812 
L 117.748409 352.376839 
L 119.270227 353.366954 
L 121.552955 353.006916 
L 122.313864 353.014737 
L 123.074773 353.319991 
L 123.835682 353.280858 
L 124.596591 353.828743 
L 126.879318 353.437394 
L 127.640227 354.164878 
L 128.401136 354.737404 
L 129.162045 353.964884 
L 132.966591 354.200171 
L 135.249318 356.670668 
L 137.532045 357.023601 
L 138.292955 356.239318 
L 139.053864 355.964819 
L 139.814773 355.415817 
L 140.575682 355.945204 
L 142.858409 356.043242 
L 143.619318 355.635413 
L 144.380227 356.102068 
L 145.141136 356.145201 
L 145.902045 356.545182 
L 148.184773 356.827529 
L 149.706591 356.466759 
L 150.4675 355.843249 
L 151.228409 356.043242 
L 153.511136 356.325589 
L 155.032955 357.415743 
L 155.793864 357.658872 
L 156.554773 358.592173 
L 158.8375 359.235284 
L 160.359318 358.513745 
L 161.120227 356.866743 
L 161.881136 356.004025 
L 164.163864 355.753062 
L 164.924773 355.886387 
L 165.685682 355.384444 
L 166.446591 356.14128 
L 167.2075 357.313781 
L 169.490227 357.768673 
L 170.251136 357.176538 
L 171.012045 358.258851 
L 172.533864 359.015688 
L 175.5775 359.180385 
L 176.338409 358.878436 
L 177.860227 357.87455 
L 180.142955 356.541261 
L 180.903864 357.023601 
L 181.664773 357.807888 
L 182.425682 358.105916 
L 183.186591 357.690241 
L 185.469318 357.937296 
L 186.230227 357.768673 
L 187.752045 356.690276 
L 188.512955 356.172652 
L 191.556591 355.333463 
L 192.3175 355.592277 
L 193.078409 356.541261 
L 193.839318 356.682437 
L 196.122045 356.525579 
L 196.882955 356.588321 
L 197.643864 357.416299 
L 198.404773 357.754307 
L 199.165682 357.200128 
L 201.448409 356.665617 
L 202.209318 355.789161 
L 202.970227 355.867769 
L 203.731136 356.453377 
L 204.492045 356.818891 
L 207.535682 356.590936 
L 208.296591 355.828466 
L 209.0575 355.352902 
L 209.818409 353.918347 
L 212.101136 353.741491 
L 212.862045 352.5231 
L 213.622955 353.544972 
L 214.383864 353.427068 
L 215.144773 352.621356 
L 217.4275 353.191249 
L 218.188409 353.151947 
L 218.949318 353.309154 
L 219.710227 353.82009 
L 220.471136 353.82009 
L 222.753864 354.169889 
L 223.514773 354.071633 
L 225.036591 353.018315 
L 225.7975 352.94364 
L 228.080227 353.273785 
L 228.841136 353.721837 
L 230.362955 353.230549 
L 233.406591 353.313087 
L 234.928409 353.753279 
L 238.732955 353.348459 
L 239.493864 353.501739 
L 240.254773 352.483797 
L 241.776591 351.383322 
L 244.059318 351.721327 
L 244.820227 352.990806 
L 245.581136 352.21654 
L 246.342045 352.405195 
L 247.102955 353.034036 
L 249.385682 353.328808 
L 250.146591 353.76507 
L 250.9075 354.688683 
L 251.668409 354.114865 
L 254.712045 353.556766 
L 255.472955 354.43321 
L 256.994773 354.232773 
L 257.755682 353.049763 
L 260.799318 352.754988 
L 261.560227 353.034036 
L 262.321136 353.022245 
L 263.082045 352.758918 
L 266.125682 354.43321 
L 266.886591 354.724061 
L 267.6475 354.07104 
L 268.408409 354.768211 
L 270.691136 355.213302 
L 272.212955 354.149822 
L 272.973864 354.086792 
L 273.734773 354.642173 
L 276.0175 354.05135 
L 276.778409 354.433417 
L 277.539318 355.028176 
L 278.300227 356.717937 
L 281.343864 356.713998 
L 282.104773 356.90306 
L 282.865682 357.659321 
L 283.626591 357.182719 
L 284.3875 357.182719 
L 287.431136 356.985781 
L 288.192045 358.025626 
L 289.713864 357.316642 
L 291.996591 358.403757 
L 292.7575 357.694767 
L 293.518409 358.553432 
L 294.279318 358.423449 
L 297.322955 357.103944 
L 298.844773 356.907002 
L 299.605682 357.300882 
L 300.366591 357.300882 
L 302.649318 357.482068 
L 303.410227 356.94639 
L 305.692955 357.202413 
L 307.975682 358.285593 
L 309.4975 358.443146 
L 310.258409 358.403757 
L 311.019318 358.596762 
L 313.302045 358.809456 
L 314.062955 358.561312 
L 315.584773 358.805518 
L 316.345682 358.825212 
L 319.389318 358.088652 
L 320.150227 358.604639 
L 320.911136 358.561312 
L 321.672045 359.100931 
L 323.954773 359.30969 
L 324.715682 358.502228 
L 325.476591 358.068956 
L 326.2375 358.42739 
L 329.281136 359.244378 
L 330.042045 360.010591 
L 330.802955 359.793367 
L 331.563864 360.484539 
L 332.324773 359.955299 
L 336.129318 360.468741 
L 336.890227 360.721512 
L 337.651136 360.72546 
L 342.216591 360.954536 
L 342.9775 360.634621 
L 345.260227 361.140166 
L 346.021136 360.330506 
L 346.782045 359.161437 
L 347.542955 358.209594 
L 348.303864 358.020015 
L 350.586591 358.110856 
L 351.3475 357.735646 
L 352.108409 357.941026 
L 352.869318 358.407071 
L 353.630227 358.268838 
L 355.912955 358.659843 
L 356.673864 359.027152 
L 358.195682 358.695389 
L 361.239318 357.581615 
L 362.000227 358.375475 
L 362.761136 358.667742 
L 363.522045 358.809927 
L 364.282955 358.632196 
L 366.565682 358.612448 
L 367.326591 359.078498 
L 368.0875 359.706475 
L 368.848409 359.501097 
L 369.609318 359.508997 
L 371.892045 359.896055 
L 372.652955 359.888155 
L 373.413864 360.366053 
L 374.174773 360.081683 
L 377.218409 360.55563 
L 377.979318 359.900003 
L 378.740227 360.330506 
L 379.501136 360.014542 
L 380.262045 359.868408 
L 382.544773 359.994792 
L 383.305682 359.228581 
L 384.066591 357.431531 
L 384.8275 357.463125 
L 385.588409 358.079257 
L 390.153864 358.501862 
L 390.914773 356.91414 
L 393.958409 356.799604 
L 394.719318 355.610786 
L 395.480227 356.025486 
L 396.241136 356.179519 
L 398.523864 356.471792 
L 399.284773 356.242713 
L 400.045682 357.2301 
L 400.806591 357.032625 
L 401.5675 357.068173 
L 404.611136 357.16691 
L 405.372045 357.823098 
L 406.132955 357.557782 
L 406.893864 357.438984 
L 409.176591 357.72014 
L 409.9375 357.288511 
L 410.698409 357.35979 
L 412.220227 356.033222 
L 414.502955 356.373772 
L 416.785682 357.161792 
L 419.829318 357.209316 
L 420.590227 356.844999 
L 421.351136 357.656779 
L 422.112045 357.5261 
L 425.155682 357.161792 
L 425.916591 356.765802 
L 426.6775 356.916275 
L 427.438409 356.389612 
L 428.199318 356.468809 
L 430.482045 356.270814 
L 431.242955 355.918382 
L 433.525682 355.870861 
L 435.808409 356.152014 
L 436.569318 356.357933 
L 437.330227 355.9263 
L 438.091136 356.235175 
L 438.852045 356.34209 
L 441.895682 356.548007 
L 442.656591 357.035076 
L 443.4175 357.819136 
L 444.178409 358.044853 
L 446.461136 357.557782 
L 447.222045 356.765802 
L 449.504773 357.32019 
L 451.7875 357.272668 
L 453.309318 355.815424 
L 454.070227 355.676826 
L 454.831136 355.807503 
L 457.113864 355.736224 
L 457.874773 355.411516 
L 458.635682 355.894624 
L 459.396591 355.736224 
L 460.1575 354.964044 
L 463.201136 354.441335 
L 463.962045 353.993869 
L 464.722955 354.136424 
L 465.483864 353.875065 
L 468.5275 353.605794 
L 469.288409 353.201886 
L 470.810227 353.815674 
L 473.092955 353.47116 
L 473.853864 354.389859 
L 474.614773 354.231461 
L 475.375682 353.162969 
L 476.136591 353.095505 
L 478.419318 352.658949 
L 479.180227 353.059783 
L 479.941136 352.738322 
L 480.702045 351.309595 
L 481.462955 351.02385 
L 483.745682 350.952416 
L 485.2675 350.158677 
L 486.028409 350.099146 
L 486.789318 351.496124 
L 489.072045 351.392938 
L 489.832955 352.297796 
L 490.593864 352.520044 
L 491.354773 352.341454 
L 492.115682 352.539887 
L 495.159318 352.512108 
L 495.920227 351.59931 
L 496.681136 351.623123 
L 497.442045 350.555545 
L 499.724773 349.920557 
L 501.246591 350.353143 
L 502.0075 349.634811 
L 502.768409 348.372768 
L 505.051136 349.960245 
L 505.812045 348.968074 
L 506.572955 345.793126 
L 507.333864 346.844828 
L 508.094773 346.785297 
L 510.3775 347.61872 
L 511.138409 347.424255 
L 511.899318 348.368801 
L 512.660227 348.690265 
L 513.421136 348.154493 
L 515.703864 347.860811 
L 516.464773 347.614751 
L 517.986591 347.856841 
L 521.030227 348.380707 
L 521.791136 347.856841 
L 522.552045 346.158245 
L 523.312955 346.741642 
L 524.073864 346.769424 
L 526.356591 347.499662 
L 527.1175 347.301229 
L 527.878409 346.983732 
L 528.639318 347.194074 
L 529.400227 347.257571 
L 531.682955 347.253602 
L 533.204773 345.812968 
L 534.726591 346.547176 
L 537.009318 346.535273 
L 537.770227 345.963782 
L 538.531136 346.721799 
L 539.292045 346.364617 
L 540.052955 346.146342 
L 542.335682 346.070935 
L 543.096591 345.039075 
L 543.8575 345.229574 
L 545.379318 345.075544 
L 548.422955 345.162997 
L 549.183864 345.453189 
L 549.944773 345.310081 
L 550.705682 342.948805 
L 552.988409 342.698368 
L 553.749318 343.54111 
L 554.510227 342.964708 
L 555.271136 343.262849 
L 556.032045 343.155517 
L 559.075682 343.099865 
L 559.836591 342.400228 
L 560.5975 342.968684 
L 561.358409 342.102087 
L 564.402045 341.076485 
L 565.162955 342.201467 
L 565.923864 341.358722 
L 566.684773 340.742565 
L 568.9675 340.762441 
L 569.728409 339.808391 
L 570.489318 339.848143 
L 571.250227 339.569878 
L 572.011136 338.38924 
L 574.293864 338.059296 
L 575.054773 338.818565 
L 575.815682 338.520424 
L 577.3375 338.973597 
L 579.620227 338.774837 
L 580.381136 339.573854 
L 581.142045 340.170135 
L 581.902955 338.695333 
L 584.946591 339.033225 
L 587.229318 338.496572 
L 587.990227 338.079175 
L 590.272955 338.957697 
L 591.033864 338.814589 
L 591.794773 338.158677 
L 592.555682 337.741283 
L 593.316591 338.381292 
L 595.599318 339.569878 
L 596.360227 339.375094 
L 597.121136 340.663061 
L 597.882045 341.346797 
L 598.642955 341.589286 
L 600.925682 342.436004 
L 601.686591 341.994755 
L 602.4475 342.948805 
L 603.208409 342.045651 
L 603.969318 340.696079 
L 606.252045 341.364894 
L 607.012955 341.094183 
L 607.773864 341.524136 
L 608.534773 341.193709 
L 609.295682 340.592574 
L 611.578409 340.158639 
L 613.861136 339.605275 
L 614.622045 339.537598 
L 616.904773 338.852859 
L 619.1875 337.582906 
L 619.948409 338.602054 
L 622.231136 339.481864 
L 622.992045 340.082998 
L 623.752955 339.505749 
L 624.513864 338.188026 
L 625.274773 339.585369 
L 627.5575 338.562242 
L 628.318409 337.893427 
L 629.079318 337.758073 
L 629.840227 337.984992 
L 630.601136 337.244518 
L 632.883864 335.879022 
L 633.644773 333.335138 
L 634.405682 333.235612 
L 635.166591 334.135328 
L 635.9275 333.932294 
L 638.210227 333.53419 
L 638.971136 333.585942 
L 639.732045 332.104998 
L 640.492955 333.414757 
L 641.253864 333.84471 
L 643.536591 334.007935 
L 644.2975 334.282624 
L 645.058409 334.804142 
L 646.580227 335.325658 
L 648.862955 335.636178 
L 649.623864 335.011155 
L 650.384773 334.664804 
L 651.145682 335.52471 
L 651.906591 334.656843 
L 654.189318 335.226132 
L 654.950227 335.564519 
L 655.711136 335.429165 
L 656.472045 335.886986 
L 657.232955 334.461773 
L 661.798409 338.207929 
L 662.559318 335.564519 
L 664.842045 333.705375 
L 665.602955 333.577982 
L 666.363864 333.574 
L 667.124773 333.848692 
L 667.885682 334.270682 
L 670.168409 337.160917 
L 670.929318 336.798641 
L 671.690227 337.515229 
L 672.451136 343.391244 
L 672.451136 343.391244 
" style="fill:none;stroke:#e377c2;stroke-linecap:square;stroke-width:1.5;"/>
   </g>
   <g id="patch_3">
    <path d="M 33.2875 398.88 
L 33.2875 7.2 
" style="fill:none;stroke:#000000;stroke-linecap:square;stroke-linejoin:miter;stroke-width:0.8;"/>
   </g>
   <g id="patch_4">
    <path d="M 702.8875 398.88 
L 702.8875 7.2 
" style="fill:none;stroke:#000000;stroke-linecap:square;stroke-linejoin:miter;stroke-width:0.8;"/>
   </g>
   <g id="patch_5">
    <path d="M 33.2875 398.88 
L 702.8875 398.88 
" style="fill:none;stroke:#000000;stroke-linecap:square;stroke-linejoin:miter;stroke-width:0.8;"/>
   </g>
   <g id="patch_6">
    <path d="M 33.2875 7.2 
L 702.8875 7.2 
" style="fill:none;stroke:#000000;stroke-linecap:square;stroke-linejoin:miter;stroke-width:0.8;"/>
   </g>
   <g id="legend_1">
    <g id="patch_7">
     <path d="M 40.2875 117.946875 
L 126.8125 117.946875 
Q 128.8125 117.946875 128.8125 115.946875 
L 128.8125 14.2 
Q 128.8125 12.2 126.8125 12.2 
L 40.2875 12.2 
Q 38.2875 12.2 38.2875 14.2 
L 38.2875 115.946875 
Q 38.2875 117.946875 40.2875 117.946875 
z
" style="fill:#ffffff;opacity:0.8;stroke:#cccccc;stroke-linejoin:miter;"/>
    </g>
    <g id="line2d_23">
     <path d="M 42.2875 20.298437 
L 62.2875 20.298437 
" style="fill:none;stroke:#1f77b4;stroke-linecap:square;stroke-width:1.5;"/>
    </g>
    <g id="line2d_24"/>
    <g id="text_17">
     <!-- BIOM3.SA -->
     <defs>
      <path d="M 19.671875 34.8125 
L 19.671875 8.109375 
L 35.5 8.109375 
Q 43.453125 8.109375 47.28125 11.40625 
Q 51.125 14.703125 51.125 21.484375 
Q 51.125 28.328125 47.28125 31.5625 
Q 43.453125 34.8125 35.5 34.8125 
z
M 19.671875 64.796875 
L 19.671875 42.828125 
L 34.28125 42.828125 
Q 41.5 42.828125 45.03125 45.53125 
Q 48.578125 48.25 48.578125 53.8125 
Q 48.578125 59.328125 45.03125 62.0625 
Q 41.5 64.796875 34.28125 64.796875 
z
M 9.8125 72.90625 
L 35.015625 72.90625 
Q 46.296875 72.90625 52.390625 68.21875 
Q 58.5 63.53125 58.5 54.890625 
Q 58.5 48.1875 55.375 44.234375 
Q 52.25 40.28125 46.1875 39.3125 
Q 53.46875 37.75 57.5 32.78125 
Q 61.53125 27.828125 61.53125 20.40625 
Q 61.53125 10.640625 54.890625 5.3125 
Q 48.25 0 35.984375 0 
L 9.8125 0 
z
" id="DejaVuSans-66"/>
      <path d="M 9.8125 72.90625 
L 19.671875 72.90625 
L 19.671875 0 
L 9.8125 0 
z
" id="DejaVuSans-73"/>
      <path d="M 39.40625 66.21875 
Q 28.65625 66.21875 22.328125 58.203125 
Q 16.015625 50.203125 16.015625 36.375 
Q 16.015625 22.609375 22.328125 14.59375 
Q 28.65625 6.59375 39.40625 6.59375 
Q 50.140625 6.59375 56.421875 14.59375 
Q 62.703125 22.609375 62.703125 36.375 
Q 62.703125 50.203125 56.421875 58.203125 
Q 50.140625 66.21875 39.40625 66.21875 
z
M 39.40625 74.21875 
Q 54.734375 74.21875 63.90625 63.9375 
Q 73.09375 53.65625 73.09375 36.375 
Q 73.09375 19.140625 63.90625 8.859375 
Q 54.734375 -1.421875 39.40625 -1.421875 
Q 24.03125 -1.421875 14.8125 8.828125 
Q 5.609375 19.09375 5.609375 36.375 
Q 5.609375 53.65625 14.8125 63.9375 
Q 24.03125 74.21875 39.40625 74.21875 
z
" id="DejaVuSans-79"/>
      <path d="M 9.8125 72.90625 
L 24.515625 72.90625 
L 43.109375 23.296875 
L 61.8125 72.90625 
L 76.515625 72.90625 
L 76.515625 0 
L 66.890625 0 
L 66.890625 64.015625 
L 48.09375 14.015625 
L 38.1875 14.015625 
L 19.390625 64.015625 
L 19.390625 0 
L 9.8125 0 
z
" id="DejaVuSans-77"/>
      <path d="M 40.578125 39.3125 
Q 47.65625 37.796875 51.625 33 
Q 55.609375 28.21875 55.609375 21.1875 
Q 55.609375 10.40625 48.1875 4.484375 
Q 40.765625 -1.421875 27.09375 -1.421875 
Q 22.515625 -1.421875 17.65625 -0.515625 
Q 12.796875 0.390625 7.625 2.203125 
L 7.625 11.71875 
Q 11.71875 9.328125 16.59375 8.109375 
Q 21.484375 6.890625 26.8125 6.890625 
Q 36.078125 6.890625 40.9375 10.546875 
Q 45.796875 14.203125 45.796875 21.1875 
Q 45.796875 27.640625 41.28125 31.265625 
Q 36.765625 34.90625 28.71875 34.90625 
L 20.21875 34.90625 
L 20.21875 43.015625 
L 29.109375 43.015625 
Q 36.375 43.015625 40.234375 45.921875 
Q 44.09375 48.828125 44.09375 54.296875 
Q 44.09375 59.90625 40.109375 62.90625 
Q 36.140625 65.921875 28.71875 65.921875 
Q 24.65625 65.921875 20.015625 65.03125 
Q 15.375 64.15625 9.8125 62.3125 
L 9.8125 71.09375 
Q 15.4375 72.65625 20.34375 73.4375 
Q 25.25 74.21875 29.59375 74.21875 
Q 40.828125 74.21875 47.359375 69.109375 
Q 53.90625 64.015625 53.90625 55.328125 
Q 53.90625 49.265625 50.4375 45.09375 
Q 46.96875 40.921875 40.578125 39.3125 
z
" id="DejaVuSans-51"/>
      <path d="M 10.6875 12.40625 
L 21 12.40625 
L 21 0 
L 10.6875 0 
z
" id="DejaVuSans-46"/>
      <path d="M 53.515625 70.515625 
L 53.515625 60.890625 
Q 47.90625 63.578125 42.921875 64.890625 
Q 37.9375 66.21875 33.296875 66.21875 
Q 25.25 66.21875 20.875 63.09375 
Q 16.5 59.96875 16.5 54.203125 
Q 16.5 49.359375 19.40625 46.890625 
Q 22.3125 44.4375 30.421875 42.921875 
L 36.375 41.703125 
Q 47.40625 39.59375 52.65625 34.296875 
Q 57.90625 29 57.90625 20.125 
Q 57.90625 9.515625 50.796875 4.046875 
Q 43.703125 -1.421875 29.984375 -1.421875 
Q 24.8125 -1.421875 18.96875 -0.25 
Q 13.140625 0.921875 6.890625 3.21875 
L 6.890625 13.375 
Q 12.890625 10.015625 18.65625 8.296875 
Q 24.421875 6.59375 29.984375 6.59375 
Q 38.421875 6.59375 43.015625 9.90625 
Q 47.609375 13.234375 47.609375 19.390625 
Q 47.609375 24.75 44.3125 27.78125 
Q 41.015625 30.8125 33.5 32.328125 
L 27.484375 33.5 
Q 16.453125 35.6875 11.515625 40.375 
Q 6.59375 45.0625 6.59375 53.421875 
Q 6.59375 63.09375 13.40625 68.65625 
Q 20.21875 74.21875 32.171875 74.21875 
Q 37.3125 74.21875 42.625 73.28125 
Q 47.953125 72.359375 53.515625 70.515625 
z
" id="DejaVuSans-83"/>
      <path d="M 34.1875 63.1875 
L 20.796875 26.90625 
L 47.609375 26.90625 
z
M 28.609375 72.90625 
L 39.796875 72.90625 
L 67.578125 0 
L 57.328125 0 
L 50.6875 18.703125 
L 17.828125 18.703125 
L 11.1875 0 
L 0.78125 0 
z
" id="DejaVuSans-65"/>
     </defs>
     <g transform="translate(70.2875 23.798437)scale(0.1 -0.1)">
      <use xlink:href="#DejaVuSans-66"/>
      <use x="68.603516" xlink:href="#DejaVuSans-73"/>
      <use x="98.095703" xlink:href="#DejaVuSans-79"/>
      <use x="176.806641" xlink:href="#DejaVuSans-77"/>
      <use x="263.085938" xlink:href="#DejaVuSans-51"/>
      <use x="326.708984" xlink:href="#DejaVuSans-46"/>
      <use x="358.496094" xlink:href="#DejaVuSans-83"/>
      <use x="421.988281" xlink:href="#DejaVuSans-65"/>
     </g>
    </g>
    <g id="line2d_25">
     <path d="M 42.2875 34.976562 
L 62.2875 34.976562 
" style="fill:none;stroke:#ff7f0e;stroke-linecap:square;stroke-width:1.5;"/>
    </g>
    <g id="line2d_26"/>
    <g id="text_18">
     <!-- GBIO33.SA -->
     <defs>
      <path d="M 59.515625 10.40625 
L 59.515625 29.984375 
L 43.40625 29.984375 
L 43.40625 38.09375 
L 69.28125 38.09375 
L 69.28125 6.78125 
Q 63.578125 2.734375 56.6875 0.65625 
Q 49.8125 -1.421875 42 -1.421875 
Q 24.90625 -1.421875 15.25 8.5625 
Q 5.609375 18.5625 5.609375 36.375 
Q 5.609375 54.25 15.25 64.234375 
Q 24.90625 74.21875 42 74.21875 
Q 49.125 74.21875 55.546875 72.453125 
Q 61.96875 70.703125 67.390625 67.28125 
L 67.390625 56.78125 
Q 61.921875 61.421875 55.765625 63.765625 
Q 49.609375 66.109375 42.828125 66.109375 
Q 29.4375 66.109375 22.71875 58.640625 
Q 16.015625 51.171875 16.015625 36.375 
Q 16.015625 21.625 22.71875 14.15625 
Q 29.4375 6.6875 42.828125 6.6875 
Q 48.046875 6.6875 52.140625 7.59375 
Q 56.25 8.5 59.515625 10.40625 
z
" id="DejaVuSans-71"/>
     </defs>
     <g transform="translate(70.2875 38.476562)scale(0.1 -0.1)">
      <use xlink:href="#DejaVuSans-71"/>
      <use x="77.490234" xlink:href="#DejaVuSans-66"/>
      <use x="146.09375" xlink:href="#DejaVuSans-73"/>
      <use x="175.585938" xlink:href="#DejaVuSans-79"/>
      <use x="254.296875" xlink:href="#DejaVuSans-51"/>
      <use x="317.919922" xlink:href="#DejaVuSans-51"/>
      <use x="381.542969" xlink:href="#DejaVuSans-46"/>
      <use x="413.330078" xlink:href="#DejaVuSans-83"/>
      <use x="476.822266" xlink:href="#DejaVuSans-65"/>
     </g>
    </g>
    <g id="line2d_27">
     <path d="M 42.2875 49.654687 
L 62.2875 49.654687 
" style="fill:none;stroke:#2ca02c;stroke-linecap:square;stroke-width:1.5;"/>
    </g>
    <g id="line2d_28"/>
    <g id="text_19">
     <!-- PNVL3.SA -->
     <defs>
      <path d="M 19.671875 64.796875 
L 19.671875 37.40625 
L 32.078125 37.40625 
Q 38.96875 37.40625 42.71875 40.96875 
Q 46.484375 44.53125 46.484375 51.125 
Q 46.484375 57.671875 42.71875 61.234375 
Q 38.96875 64.796875 32.078125 64.796875 
z
M 9.8125 72.90625 
L 32.078125 72.90625 
Q 44.34375 72.90625 50.609375 67.359375 
Q 56.890625 61.8125 56.890625 51.125 
Q 56.890625 40.328125 50.609375 34.8125 
Q 44.34375 29.296875 32.078125 29.296875 
L 19.671875 29.296875 
L 19.671875 0 
L 9.8125 0 
z
" id="DejaVuSans-80"/>
      <path d="M 9.8125 72.90625 
L 23.09375 72.90625 
L 55.421875 11.921875 
L 55.421875 72.90625 
L 64.984375 72.90625 
L 64.984375 0 
L 51.703125 0 
L 19.390625 60.984375 
L 19.390625 0 
L 9.8125 0 
z
" id="DejaVuSans-78"/>
      <path d="M 28.609375 0 
L 0.78125 72.90625 
L 11.078125 72.90625 
L 34.1875 11.53125 
L 57.328125 72.90625 
L 67.578125 72.90625 
L 39.796875 0 
z
" id="DejaVuSans-86"/>
      <path d="M 9.8125 72.90625 
L 19.671875 72.90625 
L 19.671875 8.296875 
L 55.171875 8.296875 
L 55.171875 0 
L 9.8125 0 
z
" id="DejaVuSans-76"/>
     </defs>
     <g transform="translate(70.2875 53.154687)scale(0.1 -0.1)">
      <use xlink:href="#DejaVuSans-80"/>
      <use x="60.302734" xlink:href="#DejaVuSans-78"/>
      <use x="135.107422" xlink:href="#DejaVuSans-86"/>
      <use x="203.515625" xlink:href="#DejaVuSans-76"/>
      <use x="259.228516" xlink:href="#DejaVuSans-51"/>
      <use x="322.851562" xlink:href="#DejaVuSans-46"/>
      <use x="354.638672" xlink:href="#DejaVuSans-83"/>
      <use x="418.130859" xlink:href="#DejaVuSans-65"/>
     </g>
    </g>
    <g id="line2d_29">
     <path d="M 42.2875 64.332812 
L 62.2875 64.332812 
" style="fill:none;stroke:#d62728;stroke-linecap:square;stroke-width:1.5;"/>
    </g>
    <g id="line2d_30"/>
    <g id="text_20">
     <!-- PNVL4.SA -->
     <g transform="translate(70.2875 67.832812)scale(0.1 -0.1)">
      <use xlink:href="#DejaVuSans-80"/>
      <use x="60.302734" xlink:href="#DejaVuSans-78"/>
      <use x="135.107422" xlink:href="#DejaVuSans-86"/>
      <use x="203.515625" xlink:href="#DejaVuSans-76"/>
      <use x="259.228516" xlink:href="#DejaVuSans-52"/>
      <use x="322.851562" xlink:href="#DejaVuSans-46"/>
      <use x="354.638672" xlink:href="#DejaVuSans-83"/>
      <use x="418.130859" xlink:href="#DejaVuSans-65"/>
     </g>
    </g>
    <g id="line2d_31">
     <path d="M 42.2875 79.010937 
L 62.2875 79.010937 
" style="fill:none;stroke:#9467bd;stroke-linecap:square;stroke-width:1.5;"/>
    </g>
    <g id="line2d_32"/>
    <g id="text_21">
     <!-- HYPE3.SA -->
     <defs>
      <path d="M 9.8125 72.90625 
L 19.671875 72.90625 
L 19.671875 43.015625 
L 55.515625 43.015625 
L 55.515625 72.90625 
L 65.375 72.90625 
L 65.375 0 
L 55.515625 0 
L 55.515625 34.71875 
L 19.671875 34.71875 
L 19.671875 0 
L 9.8125 0 
z
" id="DejaVuSans-72"/>
      <path d="M -0.203125 72.90625 
L 10.40625 72.90625 
L 30.609375 42.921875 
L 50.6875 72.90625 
L 61.28125 72.90625 
L 35.5 34.71875 
L 35.5 0 
L 25.59375 0 
L 25.59375 34.71875 
z
" id="DejaVuSans-89"/>
      <path d="M 9.8125 72.90625 
L 55.90625 72.90625 
L 55.90625 64.59375 
L 19.671875 64.59375 
L 19.671875 43.015625 
L 54.390625 43.015625 
L 54.390625 34.71875 
L 19.671875 34.71875 
L 19.671875 8.296875 
L 56.78125 8.296875 
L 56.78125 0 
L 9.8125 0 
z
" id="DejaVuSans-69"/>
     </defs>
     <g transform="translate(70.2875 82.510937)scale(0.1 -0.1)">
      <use xlink:href="#DejaVuSans-72"/>
      <use x="75.195312" xlink:href="#DejaVuSans-89"/>
      <use x="136.279297" xlink:href="#DejaVuSans-80"/>
      <use x="196.582031" xlink:href="#DejaVuSans-69"/>
      <use x="259.765625" xlink:href="#DejaVuSans-51"/>
      <use x="323.388672" xlink:href="#DejaVuSans-46"/>
      <use x="355.175781" xlink:href="#DejaVuSans-83"/>
      <use x="418.667969" xlink:href="#DejaVuSans-65"/>
     </g>
    </g>
    <g id="line2d_33">
     <path d="M 42.2875 93.689062 
L 62.2875 93.689062 
" style="fill:none;stroke:#8c564b;stroke-linecap:square;stroke-width:1.5;"/>
    </g>
    <g id="line2d_34"/>
    <g id="text_22">
     <!-- OFSA3.SA -->
     <defs>
      <path d="M 9.8125 72.90625 
L 51.703125 72.90625 
L 51.703125 64.59375 
L 19.671875 64.59375 
L 19.671875 43.109375 
L 48.578125 43.109375 
L 48.578125 34.8125 
L 19.671875 34.8125 
L 19.671875 0 
L 9.8125 0 
z
" id="DejaVuSans-70"/>
     </defs>
     <g transform="translate(70.2875 97.189062)scale(0.1 -0.1)">
      <use xlink:href="#DejaVuSans-79"/>
      <use x="78.710938" xlink:href="#DejaVuSans-70"/>
      <use x="136.214844" xlink:href="#DejaVuSans-83"/>
      <use x="199.707031" xlink:href="#DejaVuSans-65"/>
      <use x="268.115234" xlink:href="#DejaVuSans-51"/>
      <use x="331.738281" xlink:href="#DejaVuSans-46"/>
      <use x="363.525391" xlink:href="#DejaVuSans-83"/>
      <use x="427.017578" xlink:href="#DejaVuSans-65"/>
     </g>
    </g>
    <g id="line2d_35">
     <path d="M 42.2875 108.367187 
L 62.2875 108.367187 
" style="fill:none;stroke:#e377c2;stroke-linecap:square;stroke-width:1.5;"/>
    </g>
    <g id="line2d_36"/>
    <g id="text_23">
     <!-- RADL3.SA -->
     <defs>
      <path d="M 44.390625 34.1875 
Q 47.5625 33.109375 50.5625 29.59375 
Q 53.5625 26.078125 56.59375 19.921875 
L 66.609375 0 
L 56 0 
L 46.6875 18.703125 
Q 43.0625 26.03125 39.671875 28.421875 
Q 36.28125 30.8125 30.421875 30.8125 
L 19.671875 30.8125 
L 19.671875 0 
L 9.8125 0 
L 9.8125 72.90625 
L 32.078125 72.90625 
Q 44.578125 72.90625 50.734375 67.671875 
Q 56.890625 62.453125 56.890625 51.90625 
Q 56.890625 45.015625 53.6875 40.46875 
Q 50.484375 35.9375 44.390625 34.1875 
z
M 19.671875 64.796875 
L 19.671875 38.921875 
L 32.078125 38.921875 
Q 39.203125 38.921875 42.84375 42.21875 
Q 46.484375 45.515625 46.484375 51.90625 
Q 46.484375 58.296875 42.84375 61.546875 
Q 39.203125 64.796875 32.078125 64.796875 
z
" id="DejaVuSans-82"/>
     </defs>
     <g transform="translate(70.2875 111.867187)scale(0.1 -0.1)">
      <use xlink:href="#DejaVuSans-82"/>
      <use x="69.419922" xlink:href="#DejaVuSans-65"/>
      <use x="137.828125" xlink:href="#DejaVuSans-68"/>
      <use x="214.830078" xlink:href="#DejaVuSans-76"/>
      <use x="270.542969" xlink:href="#DejaVuSans-51"/>
      <use x="334.166016" xlink:href="#DejaVuSans-46"/>
      <use x="365.953125" xlink:href="#DejaVuSans-83"/>
      <use x="429.445312" xlink:href="#DejaVuSans-65"/>
     </g>
    </g>
   </g>
  </g>
 </g>
 <defs>
  <clipPath id="p23048c4870">
   <rect height="391.68" width="669.6" x="33.2875" y="7.2"/>
  </clipPath>
 </defs>
</svg>
