<?xml version="1.0" encoding="utf-8" standalone="no"?>
<!DOCTYPE svg PUBLIC "-//W3C//DTD SVG 1.1//EN"
  "http://www.w3.org/Graphics/SVG/1.1/DTD/svg11.dtd">
<!-- Created with matplotlib (https://matplotlib.org/) -->
<svg height="456.031033pt" version="1.1" viewBox="0 0 703.725 456.031033" width="703.725pt" xmlns="http://www.w3.org/2000/svg" xmlns:xlink="http://www.w3.org/1999/xlink">
 <defs>
  <style type="text/css">
*{stroke-linecap:butt;stroke-linejoin:round;}
  </style>
 </defs>
 <g id="figure_1">
  <g id="patch_1">
   <path d="M 0 456.031033 
L 703.725 456.031033 
L 703.725 0 
L 0 0 
z
" style="fill:none;"/>
  </g>
  <g id="axes_1">
   <g id="patch_2">
    <path d="M 26.925 398.88 
L 696.525 398.88 
L 696.525 7.2 
L 26.925 7.2 
z
" style="fill:#ffffff;"/>
   </g>
   <g id="matplotlib.axis_1">
    <g id="xtick_1">
     <g id="line2d_1">
      <defs>
       <path d="M 0 0 
L 0 3.5 
" id="m560acf6f74" style="stroke:#000000;stroke-width:0.8;"/>
      </defs>
      <g>
       <use style="stroke:#000000;stroke-width:0.8;" x="56.600455" xlink:href="#m560acf6f74" y="398.88"/>
      </g>
     </g>
     <g id="text_1">
      <!-- 2018-01 -->
      <defs>
       <path d="M 19.1875 8.296875 
L 53.609375 8.296875 
L 53.609375 0 
L 7.328125 0 
L 7.328125 8.296875 
Q 12.9375 14.109375 22.625 23.890625 
Q 32.328125 33.6875 34.8125 36.53125 
Q 39.546875 41.84375 41.421875 45.53125 
Q 43.3125 49.21875 43.3125 52.78125 
Q 43.3125 58.59375 39.234375 62.25 
Q 35.15625 65.921875 28.609375 65.921875 
Q 23.96875 65.921875 18.8125 64.3125 
Q 13.671875 62.703125 7.8125 59.421875 
L 7.8125 69.390625 
Q 13.765625 71.78125 18.9375 73 
Q 24.125 74.21875 28.421875 74.21875 
Q 39.75 74.21875 46.484375 68.546875 
Q 53.21875 62.890625 53.21875 53.421875 
Q 53.21875 48.921875 51.53125 44.890625 
Q 49.859375 40.875 45.40625 35.40625 
Q 44.1875 33.984375 37.640625 27.21875 
Q 31.109375 20.453125 19.1875 8.296875 
z
" id="DejaVuSans-50"/>
       <path d="M 31.78125 66.40625 
Q 24.171875 66.40625 20.328125 58.90625 
Q 16.5 51.421875 16.5 36.375 
Q 16.5 21.390625 20.328125 13.890625 
Q 24.171875 6.390625 31.78125 6.390625 
Q 39.453125 6.390625 43.28125 13.890625 
Q 47.125 21.390625 47.125 36.375 
Q 47.125 51.421875 43.28125 58.90625 
Q 39.453125 66.40625 31.78125 66.40625 
z
M 31.78125 74.21875 
Q 44.046875 74.21875 50.515625 64.515625 
Q 56.984375 54.828125 56.984375 36.375 
Q 56.984375 17.96875 50.515625 8.265625 
Q 44.046875 -1.421875 31.78125 -1.421875 
Q 19.53125 -1.421875 13.0625 8.265625 
Q 6.59375 17.96875 6.59375 36.375 
Q 6.59375 54.828125 13.0625 64.515625 
Q 19.53125 74.21875 31.78125 74.21875 
z
" id="DejaVuSans-48"/>
       <path d="M 12.40625 8.296875 
L 28.515625 8.296875 
L 28.515625 63.921875 
L 10.984375 60.40625 
L 10.984375 69.390625 
L 28.421875 72.90625 
L 38.28125 72.90625 
L 38.28125 8.296875 
L 54.390625 8.296875 
L 54.390625 0 
L 12.40625 0 
z
" id="DejaVuSans-49"/>
       <path d="M 31.78125 34.625 
Q 24.75 34.625 20.71875 30.859375 
Q 16.703125 27.09375 16.703125 20.515625 
Q 16.703125 13.921875 20.71875 10.15625 
Q 24.75 6.390625 31.78125 6.390625 
Q 38.8125 6.390625 42.859375 10.171875 
Q 46.921875 13.96875 46.921875 20.515625 
Q 46.921875 27.09375 42.890625 30.859375 
Q 38.875 34.625 31.78125 34.625 
z
M 21.921875 38.8125 
Q 15.578125 40.375 12.03125 44.71875 
Q 8.5 49.078125 8.5 55.328125 
Q 8.5 64.0625 14.71875 69.140625 
Q 20.953125 74.21875 31.78125 74.21875 
Q 42.671875 74.21875 48.875 69.140625 
Q 55.078125 64.0625 55.078125 55.328125 
Q 55.078125 49.078125 51.53125 44.71875 
Q 48 40.375 41.703125 38.8125 
Q 48.828125 37.15625 52.796875 32.3125 
Q 56.78125 27.484375 56.78125 20.515625 
Q 56.78125 9.90625 50.3125 4.234375 
Q 43.84375 -1.421875 31.78125 -1.421875 
Q 19.734375 -1.421875 13.25 4.234375 
Q 6.78125 9.90625 6.78125 20.515625 
Q 6.78125 27.484375 10.78125 32.3125 
Q 14.796875 37.15625 21.921875 38.8125 
z
M 18.3125 54.390625 
Q 18.3125 48.734375 21.84375 45.5625 
Q 25.390625 42.390625 31.78125 42.390625 
Q 38.140625 42.390625 41.71875 45.5625 
Q 45.3125 48.734375 45.3125 54.390625 
Q 45.3125 60.0625 41.71875 63.234375 
Q 38.140625 66.40625 31.78125 66.40625 
Q 25.390625 66.40625 21.84375 63.234375 
Q 18.3125 60.0625 18.3125 54.390625 
z
" id="DejaVuSans-56"/>
       <path d="M 4.890625 31.390625 
L 31.203125 31.390625 
L 31.203125 23.390625 
L 4.890625 23.390625 
z
" id="DejaVuSans-45"/>
      </defs>
      <g transform="translate(19.375634 433.351846)rotate(-30)scale(0.1 -0.1)">
       <use xlink:href="#DejaVuSans-50"/>
       <use x="63.623047" xlink:href="#DejaVuSans-48"/>
       <use x="127.246094" xlink:href="#DejaVuSans-49"/>
       <use x="190.869141" xlink:href="#DejaVuSans-56"/>
       <use x="254.492188" xlink:href="#DejaVuSans-45"/>
       <use x="290.576172" xlink:href="#DejaVuSans-48"/>
       <use x="354.199219" xlink:href="#DejaVuSans-49"/>
      </g>
     </g>
    </g>
    <g id="xtick_2">
     <g id="line2d_2">
      <g>
       <use style="stroke:#000000;stroke-width:0.8;" x="125.082273" xlink:href="#m560acf6f74" y="398.88"/>
      </g>
     </g>
     <g id="text_2">
      <!-- 2018-04 -->
      <defs>
       <path d="M 37.796875 64.3125 
L 12.890625 25.390625 
L 37.796875 25.390625 
z
M 35.203125 72.90625 
L 47.609375 72.90625 
L 47.609375 25.390625 
L 58.015625 25.390625 
L 58.015625 17.1875 
L 47.609375 17.1875 
L 47.609375 0 
L 37.796875 0 
L 37.796875 17.1875 
L 4.890625 17.1875 
L 4.890625 26.703125 
z
" id="DejaVuSans-52"/>
      </defs>
      <g transform="translate(87.857452 433.351846)rotate(-30)scale(0.1 -0.1)">
       <use xlink:href="#DejaVuSans-50"/>
       <use x="63.623047" xlink:href="#DejaVuSans-48"/>
       <use x="127.246094" xlink:href="#DejaVuSans-49"/>
       <use x="190.869141" xlink:href="#DejaVuSans-56"/>
       <use x="254.492188" xlink:href="#DejaVuSans-45"/>
       <use x="290.576172" xlink:href="#DejaVuSans-48"/>
       <use x="354.199219" xlink:href="#DejaVuSans-52"/>
      </g>
     </g>
    </g>
    <g id="xtick_3">
     <g id="line2d_3">
      <g>
       <use style="stroke:#000000;stroke-width:0.8;" x="194.325" xlink:href="#m560acf6f74" y="398.88"/>
      </g>
     </g>
     <g id="text_3">
      <!-- 2018-07 -->
      <defs>
       <path d="M 8.203125 72.90625 
L 55.078125 72.90625 
L 55.078125 68.703125 
L 28.609375 0 
L 18.3125 0 
L 43.21875 64.59375 
L 8.203125 64.59375 
z
" id="DejaVuSans-55"/>
      </defs>
      <g transform="translate(157.100179 433.351846)rotate(-30)scale(0.1 -0.1)">
       <use xlink:href="#DejaVuSans-50"/>
       <use x="63.623047" xlink:href="#DejaVuSans-48"/>
       <use x="127.246094" xlink:href="#DejaVuSans-49"/>
       <use x="190.869141" xlink:href="#DejaVuSans-56"/>
       <use x="254.492188" xlink:href="#DejaVuSans-45"/>
       <use x="290.576172" xlink:href="#DejaVuSans-48"/>
       <use x="354.199219" xlink:href="#DejaVuSans-55"/>
      </g>
     </g>
    </g>
    <g id="xtick_4">
     <g id="line2d_4">
      <g>
       <use style="stroke:#000000;stroke-width:0.8;" x="264.328636" xlink:href="#m560acf6f74" y="398.88"/>
      </g>
     </g>
     <g id="text_4">
      <!-- 2018-10 -->
      <g transform="translate(227.103816 433.351846)rotate(-30)scale(0.1 -0.1)">
       <use xlink:href="#DejaVuSans-50"/>
       <use x="63.623047" xlink:href="#DejaVuSans-48"/>
       <use x="127.246094" xlink:href="#DejaVuSans-49"/>
       <use x="190.869141" xlink:href="#DejaVuSans-56"/>
       <use x="254.492188" xlink:href="#DejaVuSans-45"/>
       <use x="290.576172" xlink:href="#DejaVuSans-49"/>
       <use x="354.199219" xlink:href="#DejaVuSans-48"/>
      </g>
     </g>
    </g>
    <g id="xtick_5">
     <g id="line2d_5">
      <g>
       <use style="stroke:#000000;stroke-width:0.8;" x="334.332273" xlink:href="#m560acf6f74" y="398.88"/>
      </g>
     </g>
     <g id="text_5">
      <!-- 2019-01 -->
      <defs>
       <path d="M 10.984375 1.515625 
L 10.984375 10.5 
Q 14.703125 8.734375 18.5 7.8125 
Q 22.3125 6.890625 25.984375 6.890625 
Q 35.75 6.890625 40.890625 13.453125 
Q 46.046875 20.015625 46.78125 33.40625 
Q 43.953125 29.203125 39.59375 26.953125 
Q 35.25 24.703125 29.984375 24.703125 
Q 19.046875 24.703125 12.671875 31.3125 
Q 6.296875 37.9375 6.296875 49.421875 
Q 6.296875 60.640625 12.9375 67.421875 
Q 19.578125 74.21875 30.609375 74.21875 
Q 43.265625 74.21875 49.921875 64.515625 
Q 56.59375 54.828125 56.59375 36.375 
Q 56.59375 19.140625 48.40625 8.859375 
Q 40.234375 -1.421875 26.421875 -1.421875 
Q 22.703125 -1.421875 18.890625 -0.6875 
Q 15.09375 0.046875 10.984375 1.515625 
z
M 30.609375 32.421875 
Q 37.25 32.421875 41.125 36.953125 
Q 45.015625 41.5 45.015625 49.421875 
Q 45.015625 57.28125 41.125 61.84375 
Q 37.25 66.40625 30.609375 66.40625 
Q 23.96875 66.40625 20.09375 61.84375 
Q 16.21875 57.28125 16.21875 49.421875 
Q 16.21875 41.5 20.09375 36.953125 
Q 23.96875 32.421875 30.609375 32.421875 
z
" id="DejaVuSans-57"/>
      </defs>
      <g transform="translate(297.107452 433.351846)rotate(-30)scale(0.1 -0.1)">
       <use xlink:href="#DejaVuSans-50"/>
       <use x="63.623047" xlink:href="#DejaVuSans-48"/>
       <use x="127.246094" xlink:href="#DejaVuSans-49"/>
       <use x="190.869141" xlink:href="#DejaVuSans-57"/>
       <use x="254.492188" xlink:href="#DejaVuSans-45"/>
       <use x="290.576172" xlink:href="#DejaVuSans-48"/>
       <use x="354.199219" xlink:href="#DejaVuSans-49"/>
      </g>
     </g>
    </g>
    <g id="xtick_6">
     <g id="line2d_6">
      <g>
       <use style="stroke:#000000;stroke-width:0.8;" x="402.814091" xlink:href="#m560acf6f74" y="398.88"/>
      </g>
     </g>
     <g id="text_6">
      <!-- 2019-04 -->
      <g transform="translate(365.58927 433.351846)rotate(-30)scale(0.1 -0.1)">
       <use xlink:href="#DejaVuSans-50"/>
       <use x="63.623047" xlink:href="#DejaVuSans-48"/>
       <use x="127.246094" xlink:href="#DejaVuSans-49"/>
       <use x="190.869141" xlink:href="#DejaVuSans-57"/>
       <use x="254.492188" xlink:href="#DejaVuSans-45"/>
       <use x="290.576172" xlink:href="#DejaVuSans-48"/>
       <use x="354.199219" xlink:href="#DejaVuSans-52"/>
      </g>
     </g>
    </g>
    <g id="xtick_7">
     <g id="line2d_7">
      <g>
       <use style="stroke:#000000;stroke-width:0.8;" x="472.056818" xlink:href="#m560acf6f74" y="398.88"/>
      </g>
     </g>
     <g id="text_7">
      <!-- 2019-07 -->
      <g transform="translate(434.831997 433.351846)rotate(-30)scale(0.1 -0.1)">
       <use xlink:href="#DejaVuSans-50"/>
       <use x="63.623047" xlink:href="#DejaVuSans-48"/>
       <use x="127.246094" xlink:href="#DejaVuSans-49"/>
       <use x="190.869141" xlink:href="#DejaVuSans-57"/>
       <use x="254.492188" xlink:href="#DejaVuSans-45"/>
       <use x="290.576172" xlink:href="#DejaVuSans-48"/>
       <use x="354.199219" xlink:href="#DejaVuSans-55"/>
      </g>
     </g>
    </g>
    <g id="xtick_8">
     <g id="line2d_8">
      <g>
       <use style="stroke:#000000;stroke-width:0.8;" x="542.060455" xlink:href="#m560acf6f74" y="398.88"/>
      </g>
     </g>
     <g id="text_8">
      <!-- 2019-10 -->
      <g transform="translate(504.835634 433.351846)rotate(-30)scale(0.1 -0.1)">
       <use xlink:href="#DejaVuSans-50"/>
       <use x="63.623047" xlink:href="#DejaVuSans-48"/>
       <use x="127.246094" xlink:href="#DejaVuSans-49"/>
       <use x="190.869141" xlink:href="#DejaVuSans-57"/>
       <use x="254.492188" xlink:href="#DejaVuSans-45"/>
       <use x="290.576172" xlink:href="#DejaVuSans-49"/>
       <use x="354.199219" xlink:href="#DejaVuSans-48"/>
      </g>
     </g>
    </g>
    <g id="xtick_9">
     <g id="line2d_9">
      <g>
       <use style="stroke:#000000;stroke-width:0.8;" x="612.064091" xlink:href="#m560acf6f74" y="398.88"/>
      </g>
     </g>
     <g id="text_9">
      <!-- 2020-01 -->
      <g transform="translate(574.83927 433.351846)rotate(-30)scale(0.1 -0.1)">
       <use xlink:href="#DejaVuSans-50"/>
       <use x="63.623047" xlink:href="#DejaVuSans-48"/>
       <use x="127.246094" xlink:href="#DejaVuSans-50"/>
       <use x="190.869141" xlink:href="#DejaVuSans-48"/>
       <use x="254.492188" xlink:href="#DejaVuSans-45"/>
       <use x="290.576172" xlink:href="#DejaVuSans-48"/>
       <use x="354.199219" xlink:href="#DejaVuSans-49"/>
      </g>
     </g>
    </g>
    <g id="xtick_10">
     <g id="line2d_10">
      <g>
       <use style="stroke:#000000;stroke-width:0.8;" x="681.306818" xlink:href="#m560acf6f74" y="398.88"/>
      </g>
     </g>
     <g id="text_10">
      <!-- 2020-04 -->
      <g transform="translate(644.081997 433.351846)rotate(-30)scale(0.1 -0.1)">
       <use xlink:href="#DejaVuSans-50"/>
       <use x="63.623047" xlink:href="#DejaVuSans-48"/>
       <use x="127.246094" xlink:href="#DejaVuSans-50"/>
       <use x="190.869141" xlink:href="#DejaVuSans-48"/>
       <use x="254.492188" xlink:href="#DejaVuSans-45"/>
       <use x="290.576172" xlink:href="#DejaVuSans-48"/>
       <use x="354.199219" xlink:href="#DejaVuSans-52"/>
      </g>
     </g>
    </g>
    <g id="text_11">
     <!-- Date -->
     <defs>
      <path d="M 19.671875 64.796875 
L 19.671875 8.109375 
L 31.59375 8.109375 
Q 46.6875 8.109375 53.6875 14.9375 
Q 60.6875 21.78125 60.6875 36.53125 
Q 60.6875 51.171875 53.6875 57.984375 
Q 46.6875 64.796875 31.59375 64.796875 
z
M 9.8125 72.90625 
L 30.078125 72.90625 
Q 51.265625 72.90625 61.171875 64.09375 
Q 71.09375 55.28125 71.09375 36.53125 
Q 71.09375 17.671875 61.125 8.828125 
Q 51.171875 0 30.078125 0 
L 9.8125 0 
z
" id="DejaVuSans-68"/>
      <path d="M 34.28125 27.484375 
Q 23.390625 27.484375 19.1875 25 
Q 14.984375 22.515625 14.984375 16.5 
Q 14.984375 11.71875 18.140625 8.90625 
Q 21.296875 6.109375 26.703125 6.109375 
Q 34.1875 6.109375 38.703125 11.40625 
Q 43.21875 16.703125 43.21875 25.484375 
L 43.21875 27.484375 
z
M 52.203125 31.203125 
L 52.203125 0 
L 43.21875 0 
L 43.21875 8.296875 
Q 40.140625 3.328125 35.546875 0.953125 
Q 30.953125 -1.421875 24.3125 -1.421875 
Q 15.921875 -1.421875 10.953125 3.296875 
Q 6 8.015625 6 15.921875 
Q 6 25.140625 12.171875 29.828125 
Q 18.359375 34.515625 30.609375 34.515625 
L 43.21875 34.515625 
L 43.21875 35.40625 
Q 43.21875 41.609375 39.140625 45 
Q 35.0625 48.390625 27.6875 48.390625 
Q 23 48.390625 18.546875 47.265625 
Q 14.109375 46.140625 10.015625 43.890625 
L 10.015625 52.203125 
Q 14.9375 54.109375 19.578125 55.046875 
Q 24.21875 56 28.609375 56 
Q 40.484375 56 46.34375 49.84375 
Q 52.203125 43.703125 52.203125 31.203125 
z
" id="DejaVuSans-97"/>
      <path d="M 18.3125 70.21875 
L 18.3125 54.6875 
L 36.8125 54.6875 
L 36.8125 47.703125 
L 18.3125 47.703125 
L 18.3125 18.015625 
Q 18.3125 11.328125 20.140625 9.421875 
Q 21.96875 7.515625 27.59375 7.515625 
L 36.8125 7.515625 
L 36.8125 0 
L 27.59375 0 
Q 17.1875 0 13.234375 3.875 
Q 9.28125 7.765625 9.28125 18.015625 
L 9.28125 47.703125 
L 2.6875 47.703125 
L 2.6875 54.6875 
L 9.28125 54.6875 
L 9.28125 70.21875 
z
" id="DejaVuSans-116"/>
      <path d="M 56.203125 29.59375 
L 56.203125 25.203125 
L 14.890625 25.203125 
Q 15.484375 15.921875 20.484375 11.0625 
Q 25.484375 6.203125 34.421875 6.203125 
Q 39.59375 6.203125 44.453125 7.46875 
Q 49.3125 8.734375 54.109375 11.28125 
L 54.109375 2.78125 
Q 49.265625 0.734375 44.1875 -0.34375 
Q 39.109375 -1.421875 33.890625 -1.421875 
Q 20.796875 -1.421875 13.15625 6.1875 
Q 5.515625 13.8125 5.515625 26.8125 
Q 5.515625 40.234375 12.765625 48.109375 
Q 20.015625 56 32.328125 56 
Q 43.359375 56 49.78125 48.890625 
Q 56.203125 41.796875 56.203125 29.59375 
z
M 47.21875 32.234375 
Q 47.125 39.59375 43.09375 43.984375 
Q 39.0625 48.390625 32.421875 48.390625 
Q 24.90625 48.390625 20.390625 44.140625 
Q 15.875 39.890625 15.1875 32.171875 
z
" id="DejaVuSans-101"/>
     </defs>
     <g transform="translate(349.774219 446.751346)scale(0.1 -0.1)">
      <use xlink:href="#DejaVuSans-68"/>
      <use x="77.001953" xlink:href="#DejaVuSans-97"/>
      <use x="138.28125" xlink:href="#DejaVuSans-116"/>
      <use x="177.490234" xlink:href="#DejaVuSans-101"/>
     </g>
    </g>
   </g>
   <g id="matplotlib.axis_2">
    <g id="ytick_1">
     <g id="line2d_11">
      <defs>
       <path d="M 0 0 
L -3.5 0 
" id="m6c348fc374" style="stroke:#000000;stroke-width:0.8;"/>
      </defs>
      <g>
       <use style="stroke:#000000;stroke-width:0.8;" x="26.925" xlink:href="#m6c348fc374" y="385.349721"/>
      </g>
     </g>
     <g id="text_12">
      <!-- 10 -->
      <g transform="translate(7.2 389.14894)scale(0.1 -0.1)">
       <use xlink:href="#DejaVuSans-49"/>
       <use x="63.623047" xlink:href="#DejaVuSans-48"/>
      </g>
     </g>
    </g>
    <g id="ytick_2">
     <g id="line2d_12">
      <g>
       <use style="stroke:#000000;stroke-width:0.8;" x="26.925" xlink:href="#m6c348fc374" y="314.127142"/>
      </g>
     </g>
     <g id="text_13">
      <!-- 20 -->
      <g transform="translate(7.2 317.92636)scale(0.1 -0.1)">
       <use xlink:href="#DejaVuSans-50"/>
       <use x="63.623047" xlink:href="#DejaVuSans-48"/>
      </g>
     </g>
    </g>
    <g id="ytick_3">
     <g id="line2d_13">
      <g>
       <use style="stroke:#000000;stroke-width:0.8;" x="26.925" xlink:href="#m6c348fc374" y="242.904562"/>
      </g>
     </g>
     <g id="text_14">
      <!-- 30 -->
      <defs>
       <path d="M 40.578125 39.3125 
Q 47.65625 37.796875 51.625 33 
Q 55.609375 28.21875 55.609375 21.1875 
Q 55.609375 10.40625 48.1875 4.484375 
Q 40.765625 -1.421875 27.09375 -1.421875 
Q 22.515625 -1.421875 17.65625 -0.515625 
Q 12.796875 0.390625 7.625 2.203125 
L 7.625 11.71875 
Q 11.71875 9.328125 16.59375 8.109375 
Q 21.484375 6.890625 26.8125 6.890625 
Q 36.078125 6.890625 40.9375 10.546875 
Q 45.796875 14.203125 45.796875 21.1875 
Q 45.796875 27.640625 41.28125 31.265625 
Q 36.765625 34.90625 28.71875 34.90625 
L 20.21875 34.90625 
L 20.21875 43.015625 
L 29.109375 43.015625 
Q 36.375 43.015625 40.234375 45.921875 
Q 44.09375 48.828125 44.09375 54.296875 
Q 44.09375 59.90625 40.109375 62.90625 
Q 36.140625 65.921875 28.71875 65.921875 
Q 24.65625 65.921875 20.015625 65.03125 
Q 15.375 64.15625 9.8125 62.3125 
L 9.8125 71.09375 
Q 15.4375 72.65625 20.34375 73.4375 
Q 25.25 74.21875 29.59375 74.21875 
Q 40.828125 74.21875 47.359375 69.109375 
Q 53.90625 64.015625 53.90625 55.328125 
Q 53.90625 49.265625 50.4375 45.09375 
Q 46.96875 40.921875 40.578125 39.3125 
z
" id="DejaVuSans-51"/>
      </defs>
      <g transform="translate(7.2 246.703781)scale(0.1 -0.1)">
       <use xlink:href="#DejaVuSans-51"/>
       <use x="63.623047" xlink:href="#DejaVuSans-48"/>
      </g>
     </g>
    </g>
    <g id="ytick_4">
     <g id="line2d_14">
      <g>
       <use style="stroke:#000000;stroke-width:0.8;" x="26.925" xlink:href="#m6c348fc374" y="171.681983"/>
      </g>
     </g>
     <g id="text_15">
      <!-- 40 -->
      <g transform="translate(7.2 175.481202)scale(0.1 -0.1)">
       <use xlink:href="#DejaVuSans-52"/>
       <use x="63.623047" xlink:href="#DejaVuSans-48"/>
      </g>
     </g>
    </g>
    <g id="ytick_5">
     <g id="line2d_15">
      <g>
       <use style="stroke:#000000;stroke-width:0.8;" x="26.925" xlink:href="#m6c348fc374" y="100.459404"/>
      </g>
     </g>
     <g id="text_16">
      <!-- 50 -->
      <defs>
       <path d="M 10.796875 72.90625 
L 49.515625 72.90625 
L 49.515625 64.59375 
L 19.828125 64.59375 
L 19.828125 46.734375 
Q 21.96875 47.46875 24.109375 47.828125 
Q 26.265625 48.1875 28.421875 48.1875 
Q 40.625 48.1875 47.75 41.5 
Q 54.890625 34.8125 54.890625 23.390625 
Q 54.890625 11.625 47.5625 5.09375 
Q 40.234375 -1.421875 26.90625 -1.421875 
Q 22.3125 -1.421875 17.546875 -0.640625 
Q 12.796875 0.140625 7.71875 1.703125 
L 7.71875 11.625 
Q 12.109375 9.234375 16.796875 8.0625 
Q 21.484375 6.890625 26.703125 6.890625 
Q 35.15625 6.890625 40.078125 11.328125 
Q 45.015625 15.765625 45.015625 23.390625 
Q 45.015625 31 40.078125 35.4375 
Q 35.15625 39.890625 26.703125 39.890625 
Q 22.75 39.890625 18.8125 39.015625 
Q 14.890625 38.140625 10.796875 36.28125 
z
" id="DejaVuSans-53"/>
      </defs>
      <g transform="translate(7.2 104.258622)scale(0.1 -0.1)">
       <use xlink:href="#DejaVuSans-53"/>
       <use x="63.623047" xlink:href="#DejaVuSans-48"/>
      </g>
     </g>
    </g>
    <g id="ytick_6">
     <g id="line2d_16">
      <g>
       <use style="stroke:#000000;stroke-width:0.8;" x="26.925" xlink:href="#m6c348fc374" y="29.236824"/>
      </g>
     </g>
     <g id="text_17">
      <!-- 60 -->
      <defs>
       <path d="M 33.015625 40.375 
Q 26.375 40.375 22.484375 35.828125 
Q 18.609375 31.296875 18.609375 23.390625 
Q 18.609375 15.53125 22.484375 10.953125 
Q 26.375 6.390625 33.015625 6.390625 
Q 39.65625 6.390625 43.53125 10.953125 
Q 47.40625 15.53125 47.40625 23.390625 
Q 47.40625 31.296875 43.53125 35.828125 
Q 39.65625 40.375 33.015625 40.375 
z
M 52.59375 71.296875 
L 52.59375 62.3125 
Q 48.875 64.0625 45.09375 64.984375 
Q 41.3125 65.921875 37.59375 65.921875 
Q 27.828125 65.921875 22.671875 59.328125 
Q 17.53125 52.734375 16.796875 39.40625 
Q 19.671875 43.65625 24.015625 45.921875 
Q 28.375 48.1875 33.59375 48.1875 
Q 44.578125 48.1875 50.953125 41.515625 
Q 57.328125 34.859375 57.328125 23.390625 
Q 57.328125 12.15625 50.6875 5.359375 
Q 44.046875 -1.421875 33.015625 -1.421875 
Q 20.359375 -1.421875 13.671875 8.265625 
Q 6.984375 17.96875 6.984375 36.375 
Q 6.984375 53.65625 15.1875 63.9375 
Q 23.390625 74.21875 37.203125 74.21875 
Q 40.921875 74.21875 44.703125 73.484375 
Q 48.484375 72.75 52.59375 71.296875 
z
" id="DejaVuSans-54"/>
      </defs>
      <g transform="translate(7.2 33.036043)scale(0.1 -0.1)">
       <use xlink:href="#DejaVuSans-54"/>
       <use x="63.623047" xlink:href="#DejaVuSans-48"/>
      </g>
     </g>
    </g>
   </g>
   <g id="line2d_17">
    <path clip-path="url(#p273dbde5e2)" d="M 57.361364 178.372358 
L 58.122273 180.03941 
L 58.883182 178.9058 
L 59.644091 174.571461 
L 61.926818 168.303296 
L 62.687727 169.370178 
L 63.448636 173.371177 
L 64.209545 167.8365 
L 64.970455 166.169449 
L 67.253182 166.70289 
L 68.014091 174.50476 
L 68.775 168.836737 
L 69.535909 170.770536 
L 70.296818 170.637162 
L 72.579545 172.170839 
L 73.340455 183.640314 
L 74.101364 177.972291 
L 74.862273 177.972291 
L 75.623182 180.306157 
L 77.905909 177.238748 
L 78.666818 180.03941 
L 79.427727 180.172784 
L 80.188636 177.90559 
L 80.949545 184.50715 
L 83.232273 187.507885 
L 83.993182 173.371177 
L 84.754091 178.439032 
L 85.515 179.239248 
L 86.275909 176.505233 
L 90.841364 150.165615 
L 91.602273 149.632147 
L 93.885 146.831485 
L 94.645909 153.099678 
L 95.406818 157.834111 
L 96.167727 152.032714 
L 96.928636 149.298726 
L 99.211364 140.496592 
L 99.972273 140.963388 
L 100.733182 156.16706 
L 101.494091 160.168005 
L 102.255 164.835792 
L 104.537727 165.169186 
L 105.298636 166.569516 
L 106.059545 167.591162 
L 106.820455 176.965344 
L 107.581364 172.649181 
L 109.864091 170.221336 
L 110.625 172.446852 
L 111.385909 169.277205 
L 112.146818 170.625968 
L 112.907727 171.300364 
L 115.190455 179.393216 
L 115.951364 176.021185 
L 116.712273 169.951573 
L 117.473182 173.79567 
L 118.234091 176.021185 
L 120.516818 173.323577 
L 121.277727 181.01177 
L 122.799545 171.907325 
L 125.843182 166.579569 
L 126.604091 167.456294 
L 127.365 169.614375 
L 128.125909 164.893554 
L 128.886818 168.332992 
L 131.169545 166.916767 
L 131.930455 154.170581 
L 132.691364 155.519372 
L 134.213182 153.226422 
L 136.495909 156.193794 
L 138.017727 136.366376 
L 138.778636 134.005938 
L 139.539545 135.354756 
L 141.822273 136.231481 
L 142.583182 130.76883 
L 143.344091 133.196675 
L 144.105 128.138656 
L 144.865909 130.499093 
L 147.148636 128.340985 
L 148.670455 128.071221 
L 149.431364 125.508508 
L 150.192273 121.394648 
L 152.475 124.496888 
L 153.235909 124.834113 
L 154.757727 109.929792 
L 155.518636 101.634691 
L 157.801364 90.574494 
L 158.562273 88.011754 
L 159.323182 79.581731 
L 160.084091 83.08863 
L 163.888636 103.590443 
L 164.649545 106.288079 
L 165.410455 102.781152 
L 166.171364 109.390319 
L 168.454091 112.155334 
L 169.215 118.292408 
L 169.975909 115.122706 
L 171.497727 100.757994 
L 173.780455 102.376521 
L 174.541364 94.216288 
L 175.302273 78.435242 
L 176.063182 89.900099 
L 176.824091 113.369284 
L 179.106818 113.639047 
L 179.867727 107.906633 
L 180.628636 108.918226 
L 181.389545 107.839172 
L 182.150455 125.238718 
L 184.433182 124.699245 
L 185.194091 130.836291 
L 185.955 127.396826 
L 186.715909 138.187287 
L 187.476818 132.792043 
L 189.759545 138.524458 
L 190.520455 130.5665 
L 191.281364 131.847884 
L 192.042273 125.643377 
L 192.803182 122.136505 
L 195.085909 127.734024 
L 195.846818 133.129241 
L 196.607727 132.657175 
L 197.368636 121.394648 
L 198.129545 117.078485 
L 201.173182 122.541136 
L 201.934091 127.059628 
L 202.695 116.336656 
L 203.455909 117.280788 
L 205.738636 119.371462 
L 207.260455 109.592621 
L 208.021364 123.215532 
L 208.782273 128.003787 
L 211.065 122.06907 
L 211.825909 110.536753 
L 212.586818 107.569435 
L 213.347727 100.623098 
L 214.108636 96.104579 
L 216.391364 90.169835 
L 217.152273 86.730397 
L 217.913182 98.734753 
L 218.674091 100.218439 
L 219.435 91.959229 
L 221.717727 92.999975 
L 222.478636 90.57156 
L 223.239545 92.999975 
L 224.000455 96.885505 
L 224.761364 97.787497 
L 227.044091 93.832604 
L 227.805 90.502197 
L 228.565909 106.807419 
L 229.326818 111.594914 
L 230.087727 104.101443 
L 232.370455 99.660872 
L 233.131364 97.648744 
L 233.892273 86.755447 
L 234.653182 86.408523 
L 235.414091 80.857789 
L 237.696818 70.311444 
L 238.457727 70.45017 
L 239.218636 73.433681 
L 239.979545 77.943669 
L 240.740455 84.535148 
L 243.023182 81.551638 
L 243.784091 95.775369 
L 244.545 94.734596 
L 245.305909 85.506531 
L 248.349545 87.310488 
L 249.110455 91.681696 
L 249.871364 85.714674 
L 250.632273 83.425012 
L 251.393182 73.572461 
L 253.675909 74.682597 
L 254.436818 58.724299 
L 255.197727 50.120664 
L 255.958636 44.986245 
L 256.719545 33.260374 
L 259.002273 38.880444 
L 259.763182 25.003636 
L 260.524091 40.198777 
L 261.285 43.876109 
L 262.045909 41.517057 
L 264.328636 37.492774 
L 265.089545 31.94204 
L 267.372273 57.683526 
L 269.655 60.736427 
L 270.415909 56.226466 
L 271.176818 68.784966 
L 271.937727 64.69132 
L 274.981364 56.434637 
L 275.742273 56.226466 
L 276.503182 48.594214 
L 277.264091 64.552539 
L 278.025 64.344396 
L 280.307727 51.577752 
L 281.068636 62.817945 
L 281.829545 78.915051 
L 282.590455 77.666135 
L 283.351364 70.797122 
L 285.634091 88.143117 
L 286.395 82.800554 
L 287.155909 63.095479 
L 287.916818 57.614136 
L 290.960455 57.405992 
L 291.721364 59.487511 
L 292.482273 56.989678 
L 293.243182 60.944571 
L 294.004091 77.388574 
L 296.286818 76.000931 
L 297.047727 66.14838 
L 297.808636 73.849995 
L 299.330455 66.980982 
L 301.613182 72.392962 
L 303.135 78.221203 
L 303.895909 81.621001 
L 304.656818 107.223734 
L 306.939545 108.819574 
L 307.700455 110.207244 
L 308.461364 93.693851 
L 309.222273 95.775369 
L 309.983182 90.224635 
L 312.265909 81.135323 
L 313.026818 89.669567 
L 313.787727 90.224635 
L 314.548636 93.693851 
L 315.309545 100.701617 
L 317.592273 108.264479 
L 318.353182 105.48914 
L 319.114091 107.084953 
L 319.875 105.48914 
L 320.635909 103.546375 
L 322.918636 100.979151 
L 323.679545 99.660872 
L 324.440455 109.582786 
L 325.201364 110.970456 
L 325.962273 103.685128 
L 329.766818 106.599275 
L 330.527727 113.121364 
L 331.288636 102.713773 
L 335.093182 102.089314 
L 335.854091 116.59058 
L 336.615 94.457062 
L 338.897727 96.399827 
L 339.658636 92.930612 
L 340.419545 84.049471 
L 341.180455 88.143117 
L 341.941364 93.138756 
L 344.224091 91.612332 
L 344.985 93.346926 
L 345.745909 91.265381 
L 346.506818 80.302721 
L 347.267727 76.625389 
L 349.550455 73.017393 
L 350.311364 74.405063 
L 351.833182 66.980982 
L 354.876818 162.661545 
L 355.637727 160.024958 
L 356.398636 133.242754 
L 357.159545 140.874979 
L 357.920455 135.671169 
L 360.203182 146.564466 
L 360.964091 147.674602 
L 361.725 161.967723 
L 362.485909 168.004135 
L 363.246818 157.110838 
L 365.529545 165.020624 
L 366.290455 149.201052 
L 367.051364 140.944342 
L 367.812273 139.764843 
L 368.573182 138.238365 
L 370.855909 142.609573 
L 371.616818 140.944342 
L 372.377727 138.79346 
L 373.138636 141.707581 
L 373.899545 130.53675 
L 376.182273 129.634785 
L 376.943182 129.07969 
L 377.704091 131.646886 
L 378.465 129.773538 
L 379.225909 132.271344 
L 383.791364 117.561935 
L 384.552273 117.631325 
L 386.835 110.484778 
L 387.595909 109.86032 
L 388.356818 104.795264 
L 389.117727 104.725901 
L 389.878636 105.836037 
L 392.161364 106.460495 
L 392.922273 96.46919 
L 393.683182 105.766646 
L 394.444091 103.476984 
L 395.205 109.305252 
L 397.487727 112.77444 
L 398.248636 107.709411 
L 399.009545 112.427543 
L 399.770455 114.509061 
L 400.531364 103.19945 
L 402.814091 91.612332 
L 403.575 98.342565 
L 404.335909 97.30182 
L 405.096818 94.665206 
L 405.857727 95.914123 
L 408.140455 86.130989 
L 408.901364 93.346926 
L 409.662273 97.4406 
L 410.423182 97.232429 
L 411.184091 99.383338 
L 413.466818 100.424083 
L 414.227727 88.143117 
L 414.988636 94.040748 
L 415.749545 91.751086 
L 418.793182 100.632254 
L 419.554091 96.330437 
L 420.315 107.154343 
L 421.075909 107.362487 
L 421.836818 106.738056 
L 424.119545 107.917555 
L 424.880455 108.958328 
L 426.402273 117.006894 
L 427.163182 106.876782 
L 429.445909 112.011229 
L 430.206818 111.733667 
L 430.967727 116.59058 
L 431.728636 119.782234 
L 432.489545 113.398898 
L 434.772273 127.483849 
L 435.533182 126.373713 
L 436.294091 123.87588 
L 437.055 134.630397 
L 437.815909 125.471721 
L 440.098636 132.201981 
L 440.859545 127.62263 
L 441.620455 127.275706 
L 442.381364 124.777873 
L 443.142273 121.378048 
L 445.425 108.33387 
L 446.185909 107.917555 
L 446.946818 111.733667 
L 447.707727 109.582786 
L 448.468636 116.59058 
L 450.751364 117.770079 
L 451.512273 115.827341 
L 452.273182 120.823007 
L 453.034091 117.97825 
L 453.795 118.949632 
L 456.077727 121.169904 
L 456.838636 99.730235 
L 457.599545 99.31392 
L 458.360455 96.816142 
L 459.121364 99.938379 
L 461.404091 108.264479 
L 462.165 95.775369 
L 462.925909 93.693851 
L 464.447727 92.722468 
L 466.730455 92.999975 
L 467.491364 100.077159 
L 468.252273 98.689462 
L 469.774091 97.024286 
L 472.056818 84.326977 
L 472.817727 100.007796 
L 473.578636 100.701617 
L 474.339545 98.065031 
L 475.100455 107.154343 
L 477.383182 103.06067 
L 478.905 94.87335 
L 479.665909 95.428445 
L 480.426818 97.093649 
L 482.709545 90.987874 
L 483.470455 88.490041 
L 484.231364 90.987874 
L 484.992273 91.681696 
L 485.753182 90.779703 
L 488.035909 92.653078 
L 488.796818 97.4406 
L 489.557727 105.142188 
L 490.318636 106.252324 
L 491.079545 108.056336 
L 493.362273 107.848192 
L 494.123182 109.582786 
L 494.884091 110.970456 
L 495.645 120.753589 
L 496.405909 124.639119 
L 498.688636 137.405763 
L 499.449545 133.103973 
L 500.210455 134.075356 
L 500.971364 129.218471 
L 501.732273 140.944342 
L 504.015 143.234031 
L 504.775909 133.936575 
L 505.536818 145.176769 
L 506.297727 152.045809 
L 507.058636 153.433506 
L 509.341364 153.711013 
L 510.102273 152.392734 
L 510.863182 150.241798 
L 511.624091 152.045809 
L 512.385 156.278236 
L 514.667727 159.608671 
L 515.428636 156.000702 
L 516.189545 154.890566 
L 516.950455 143.650346 
L 517.711364 140.389301 
L 519.994091 137.3364 
L 520.755 140.736198 
L 521.515909 133.797795 
L 522.276818 133.797795 
L 523.037727 134.283499 
L 525.320455 124.292195 
L 526.081364 121.863752 
L 526.842273 123.87588 
L 527.603182 111.803085 
L 528.364091 111.109209 
L 530.646818 119.43531 
L 531.407727 117.284401 
L 532.168636 120.753589 
L 532.929545 121.308684 
L 533.690455 120.614863 
L 535.973182 122.835135 
L 536.734091 130.953065 
L 537.495 124.500339 
L 538.255909 124.500339 
L 539.016818 125.888036 
L 541.299545 125.263577 
L 542.060455 125.541111 
L 542.821364 143.650346 
L 543.582273 141.291293 
L 544.343182 133.312117 
L 546.625909 137.128229 
L 547.386818 142.123895 
L 548.147727 139.695453 
L 549.669545 119.088386 
L 551.952273 123.598347 
L 552.713182 124.153414 
L 553.474091 131.855057 
L 554.235 132.479515 
L 554.995909 137.19762 
L 557.278636 129.010327 
L 558.039545 128.385869 
L 558.800455 129.704148 
L 559.561364 132.201981 
L 560.322273 119.643453 
L 562.605 118.672071 
L 564.126818 119.43531 
L 564.887727 129.07969 
L 565.648636 120.476083 
L 567.931364 110.901066 
L 568.692273 110.554168 
L 569.453182 111.803085 
L 570.214091 108.888937 
L 570.975 115.341663 
L 573.257727 122.626964 
L 574.018636 124.222805 
L 574.779545 129.634785 
L 575.540455 130.46736 
L 578.584091 126.234933 
L 579.345 122.349457 
L 580.866818 120.614863 
L 581.627727 109.444033 
L 583.910455 103.685128 
L 584.671364 101.187295 
L 585.432273 105.627866 
L 586.193182 107.084953 
L 586.954091 109.79093 
L 589.236818 100.354693 
L 589.997727 106.738056 
L 590.758636 103.268841 
L 591.519545 103.06067 
L 592.280455 100.28533 
L 594.563182 99.660872 
L 595.324091 101.326076 
L 596.085 96.954868 
L 596.845909 89.183863 
L 597.606818 83.563793 
L 599.889545 86.477886 
L 600.650455 85.922845 
L 601.411364 85.575894 
L 602.172273 81.898562 
L 602.933182 76.417219 
L 605.215909 77.874279 
L 607.498636 76.417219 
L 608.259545 74.819286 
L 610.542273 76.955958 
L 612.825 69.620014 
L 613.585909 72.468928 
L 615.868636 74.748048 
L 616.629545 71.970372 
L 617.390455 71.899161 
L 618.151364 76.955958 
L 618.912273 76.528612 
L 621.195 62.711442 
L 621.955909 60.289873 
L 622.716818 61.571882 
L 623.477727 63.637343 
L 624.238636 50.603598 
L 626.521364 48.039581 
L 627.282273 57.512197 
L 628.043182 55.589184 
L 628.804091 61.286985 
L 629.565 73.394829 
L 631.847727 96.827064 
L 632.608636 91.912689 
L 633.369545 95.11771 
L 634.130455 89.776017 
L 634.891364 98.536391 
L 637.174091 93.97815 
L 637.935 84.291875 
L 638.695909 79.16384 
L 639.456818 77.098406 
L 640.217727 85.502673 
L 642.500455 99.106184 
L 643.261364 85.85878 
L 644.022273 78.594074 
L 644.783182 85.217776 
L 645.544091 93.337146 
L 647.826818 76.172505 
L 648.587727 80.517087 
L 649.348636 80.445849 
L 650.109545 84.790431 
L 650.870455 99.533502 
L 655.435909 139.845481 
L 656.196818 140.985041 
L 658.479545 126.384418 
L 659.240455 126.455656 
L 660.001364 110.644235 
L 660.762273 122.894527 
L 663.805909 187.13727 
L 664.566818 137.423912 
L 666.088636 204.800493 
L 666.088636 204.800493 
" style="fill:none;stroke:#1f77b4;stroke-linecap:square;stroke-width:1.5;"/>
   </g>
   <g id="line2d_18">
    <path clip-path="url(#p273dbde5e2)" d="M 57.361364 368.311424 
L 58.122273 368.447542 
L 58.883182 363.684031 
L 59.644091 364.840885 
L 61.926818 361.642526 
L 62.687727 361.098129 
L 63.448636 362.391073 
L 64.209545 354.701433 
L 64.970455 354.701433 
L 67.253182 355.722175 
L 68.014091 358.171973 
L 68.775 354.497276 
L 69.535909 357.627582 
L 70.296818 360.213471 
L 72.579545 361.438383 
L 73.340455 363.275738 
L 74.101364 360.349575 
L 74.862273 360.349575 
L 75.623182 354.905583 
L 77.905909 357.083165 
L 78.666818 356.402684 
L 79.427727 358.580266 
L 80.188636 357.083165 
L 80.949545 357.423433 
L 83.232273 363.071575 
L 83.993182 357.423433 
L 84.754091 360.893972 
L 85.515 362.935484 
L 86.275909 361.098129 
L 90.841364 354.497276 
L 91.602273 348.168619 
L 93.885 342.724613 
L 94.645909 346.671525 
L 95.406818 345.650789 
L 96.167727 346.943713 
L 96.928636 343.473153 
L 99.211364 340.683122 
L 99.972273 343.269037 
L 100.733182 343.473153 
L 101.494091 339.866522 
L 102.255 341.567807 
L 104.537727 340.410926 
L 105.298636 345.514658 
L 106.059545 342.724613 
L 106.820455 347.488117 
L 109.864091 344.762321 
L 110.625 345.512247 
L 111.385909 347.148515 
L 112.146818 350.625528 
L 112.907727 351.239119 
L 115.190455 354.102541 
L 115.951364 349.261985 
L 116.712273 347.625736 
L 117.473182 351.852709 
L 118.234091 353.693487 
L 120.516818 352.193588 
L 121.277727 353.557132 
L 122.038636 354.647964 
L 122.799545 350.898233 
L 125.843182 349.943756 
L 126.604091 349.330166 
L 127.365 351.920877 
L 128.125909 344.898676 
L 128.886818 346.603085 
L 131.169545 348.78475 
L 131.930455 346.534904 
L 132.691364 347.353032 
L 133.452273 344.421428 
L 134.213182 344.694146 
L 136.495909 345.035025 
L 137.256818 342.035254 
L 138.017727 338.353684 
L 138.778636 339.512724 
L 139.539545 341.012603 
L 141.822273 342.512482 
L 142.583182 342.307965 
L 143.344091 342.239757 
L 144.105 340.535375 
L 144.865909 342.853375 
L 147.148636 343.057905 
L 148.670455 345.853146 
L 149.431364 344.148737 
L 150.192273 341.762529 
L 152.475 345.035025 
L 153.235909 345.239562 
L 153.996818 338.217335 
L 154.757727 334.876671 
L 155.518636 335.558456 
L 157.801364 335.831181 
L 158.562273 335.353926 
L 159.323182 332.149624 
L 160.084091 334.126718 
L 163.888636 340.814145 
L 164.649545 343.416953 
L 165.410455 343.279966 
L 166.171364 348.006194 
L 168.454091 354.787301 
L 169.215 353.280392 
L 169.975909 355.19827 
L 171.497727 350.677544 
L 173.780455 347.869207 
L 174.541364 345.951322 
L 175.302273 347.595232 
L 176.063182 354.924289 
L 176.824091 358.486083 
L 179.106818 359.308028 
L 179.867727 357.116169 
L 180.628636 357.458637 
L 182.150455 360.403968 
L 184.433182 359.992992 
L 185.194091 360.403968 
L 185.955 355.609253 
L 186.715909 360.746443 
L 187.476818 358.897059 
L 189.759545 361.568409 
L 190.520455 364.376739 
L 191.281364 363.691774 
L 192.042273 361.157419 
L 192.803182 361.29442 
L 195.085909 361.225926 
L 195.846818 358.691571 
L 196.607727 356.705186 
L 197.368636 352.732423 
L 198.129545 350.266561 
L 201.173182 352.115959 
L 201.934091 354.581807 
L 202.695 349.03364 
L 203.455909 350.335062 
L 205.738636 348.828153 
L 206.499545 345.882828 
L 207.260455 345.129364 
L 208.021364 347.184256 
L 208.782273 345.266372 
L 211.065 344.923889 
L 211.825909 341.63607 
L 212.586818 342.526529 
L 213.347727 345.197864 
L 214.108636 341.225094 
L 216.391364 339.307202 
L 217.152273 342.321047 
L 217.913182 344.238925 
L 218.674091 342.595022 
L 219.435 339.512697 
L 221.717727 341.156614 
L 222.478636 342.321047 
L 223.239545 338.759239 
L 224.000455 341.56759 
L 224.761364 346.499292 
L 227.044091 347.595232 
L 227.805 344.923889 
L 228.565909 350.266561 
L 229.326818 350.266561 
L 230.087727 349.376123 
L 232.370455 345.540353 
L 233.131364 347.32125 
L 233.892273 344.488033 
L 234.653182 347.390342 
L 235.414091 346.768417 
L 237.696818 345.248161 
L 239.218636 343.935221 
L 239.979545 346.561116 
L 240.740455 345.731883 
L 243.023182 347.044824 
L 243.784091 348.703296 
L 244.545 348.910591 
L 245.305909 346.975732 
L 248.349545 348.841493 
L 249.110455 351.536493 
L 249.871364 350.914568 
L 251.393182 351.12187 
L 253.675909 348.565086 
L 254.436818 341.37841 
L 255.197727 340.618296 
L 255.958636 340.480113 
L 256.719545 339.09804 
L 259.002273 342.138552 
L 259.763182 335.919345 
L 260.524091 338.337912 
L 261.285 337.923295 
L 262.045909 337.785072 
L 264.328636 341.309332 
L 265.089545 340.410994 
L 266.611364 344.557145 
L 267.372273 347.390342 
L 269.655 348.703296 
L 270.415909 345.800974 
L 271.176818 349.117899 
L 271.937727 347.804958 
L 274.981364 349.256109 
L 275.742273 344.626243 
L 276.503182 345.31726 
L 277.264091 349.532522 
L 278.025 352.158424 
L 280.307727 347.45944 
L 281.068636 348.219561 
L 281.829545 353.125861 
L 283.351364 347.45944 
L 285.634091 348.495981 
L 286.395 347.390342 
L 287.155909 344.21162 
L 287.916818 343.105974 
L 290.960455 339.512656 
L 291.721364 339.167145 
L 293.243182 345.45547 
L 294.004091 345.179063 
L 296.286818 349.878034 
L 297.808636 351.882011 
L 299.330455 344.418928 
L 301.613182 344.971762 
L 303.135 350.499959 
L 303.895909 349.384871 
L 304.656818 352.590735 
L 306.939545 353.427039 
L 307.700455 354.123984 
L 308.461364 351.54535 
L 309.222273 351.336269 
L 309.983182 348.687946 
L 312.265909 344.018528 
L 313.026818 346.388088 
L 313.787727 345.06392 
L 315.309545 347.363777 
L 317.592273 349.733337 
L 318.353182 348.687946 
L 319.114091 349.245486 
L 319.875 349.663648 
L 320.635909 351.127188 
L 322.918636 351.336269 
L 323.679545 350.499959 
L 324.440455 350.987803 
L 325.201364 355.169369 
L 325.962273 354.054282 
L 329.766818 353.496748 
L 330.527727 356.075376 
L 331.288636 353.287667 
L 335.093182 350.639344 
L 335.854091 351.336269 
L 336.615 348.548561 
L 339.658636 348.130399 
L 340.419545 345.06392 
L 341.941364 350.499959 
L 344.224091 350.639344 
L 344.985 352.730127 
L 345.745909 352.521039 
L 346.506818 351.684735 
L 347.267727 348.618256 
L 349.550455 348.548561 
L 350.311364 348.757635 
L 351.072273 347.503169 
L 351.833182 345.133616 
L 354.876818 347.572858 
L 355.637727 347.572858 
L 356.398636 344.018528 
L 357.159545 347.503169 
L 357.920455 346.457771 
L 360.203182 345.133616 
L 360.964091 345.62146 
L 361.725 349.733337 
L 362.485909 350.430263 
L 363.246818 349.593945 
L 366.290455 348.548561 
L 367.051364 347.642554 
L 367.812273 346.945629 
L 368.573182 348.687946 
L 370.855909 348.200094 
L 371.616818 348.269784 
L 372.377727 346.457771 
L 373.138636 351.336269 
L 373.899545 350.778722 
L 376.182273 350.151492 
L 376.943182 348.687946 
L 377.704091 349.036405 
L 378.465 351.057499 
L 379.225909 351.82412 
L 384.552273 353.367619 
L 386.835 352.034594 
L 387.595909 353.648271 
L 388.356818 351.473318 
L 389.117727 353.016824 
L 389.878636 350.561252 
L 392.161364 347.6847 
L 392.922273 345.369431 
L 393.683182 346.983109 
L 394.444091 346.702471 
L 395.205 351.753962 
L 397.487727 352.245074 
L 398.248636 349.64918 
L 399.009545 353.788587 
L 400.531364 350.350765 
L 402.814091 343.755774 
L 403.575 343.755774 
L 404.335909 344.317044 
L 405.096818 342.913853 
L 405.857727 345.930714 
L 408.140455 345.369431 
L 408.901364 347.123431 
L 409.662273 347.614543 
L 410.423182 349.999976 
L 411.184091 351.262844 
L 413.466818 352.876508 
L 414.227727 350.771726 
L 414.988636 351.473318 
L 415.749545 351.824113 
L 418.793182 351.683798 
L 419.554091 353.227304 
L 420.315 354.139376 
L 421.075909 354.279705 
L 421.836818 355.753053 
L 424.119545 355.612737 
L 424.880455 357.296566 
L 426.402273 358.348953 
L 427.163182 356.735283 
L 429.445909 357.787677 
L 430.206818 356.805441 
L 430.967727 354.840974 
L 431.728636 356.665125 
L 432.489545 357.296566 
L 434.772273 359.681979 
L 435.533182 358.699749 
L 436.294091 358.910229 
L 437.055 360.173111 
L 437.815909 360.173111 
L 440.098636 359.397395 
L 440.859545 355.800946 
L 441.620455 355.800946 
L 442.381364 358.198578 
L 443.142273 358.903763 
L 445.425 359.115323 
L 446.185909 356.85872 
L 448.468636 358.762728 
L 450.751364 358.269096 
L 451.512273 358.833245 
L 452.273182 359.891026 
L 453.034091 360.314147 
L 453.795 358.551174 
L 456.077727 356.788209 
L 456.838636 353.826413 
L 457.599545 354.602116 
L 458.360455 353.262264 
L 459.121364 355.377818 
L 461.404091 356.365088 
L 462.165 352.627597 
L 462.925909 351.076178 
L 464.447727 349.242688 
L 466.730455 349.877355 
L 467.491364 352.557072 
L 468.252273 350.159433 
L 469.013182 350.864624 
L 469.774091 349.38373 
L 472.056818 350.582546 
L 472.817727 353.332782 
L 473.578636 351.569816 
L 474.339545 348.678538 
L 475.100455 348.184907 
L 477.383182 348.325942 
L 478.905 348.60802 
L 479.665909 351.21722 
L 480.426818 352.768632 
L 482.709545 351.287731 
L 483.470455 352.275001 
L 484.231364 353.544335 
L 484.992273 354.390562 
L 485.753182 355.44835 
L 488.035909 357.775458 
L 488.796818 357.422862 
L 489.557727 358.903763 
L 490.318636 359.820515 
L 491.079545 359.53843 
L 493.362273 358.551174 
L 494.123182 357.211315 
L 494.884091 359.608948 
L 495.645 361.371927 
L 496.405909 360.878296 
L 498.688636 364.192674 
L 499.449545 364.263198 
L 500.210455 365.109419 
L 500.971364 362.14763 
L 501.732273 362.852822 
L 504.015 365.391497 
L 504.775909 362.99385 
L 505.536818 366.942909 
L 506.297727 369.975215 
L 507.058636 367.154462 
L 509.341364 369.63632 
L 510.102273 369.281768 
L 510.863182 367.579926 
L 511.624091 367.154462 
L 512.385 369.423598 
L 514.667727 371.409073 
L 515.428636 373.110921 
L 516.189545 372.118184 
L 516.950455 367.72175 
L 517.711364 365.310797 
L 520.755 367.367191 
L 521.515909 367.367191 
L 522.276818 366.729005 
L 523.037727 368.430847 
L 525.320455 363.608949 
L 526.081364 360.701628 
L 526.842273 362.758028 
L 527.603182 360.063435 
L 528.364091 360.417981 
L 530.646818 360.843451 
L 531.407727 360.276164 
L 532.168636 361.33982 
L 532.929545 361.552555 
L 533.690455 362.616205 
L 535.973182 362.899845 
L 536.734091 364.743517 
L 537.495 363.608949 
L 538.255909 363.467125 
L 539.016818 364.176236 
L 541.299545 363.254397 
L 542.060455 363.750772 
L 542.821364 367.225374 
L 543.582273 365.94899 
L 544.343182 364.176236 
L 546.625909 365.94899 
L 547.386818 367.579926 
L 548.147727 367.792655 
L 548.908636 364.530788 
L 549.669545 362.332571 
L 551.952273 362.616205 
L 552.713182 360.914363 
L 553.474091 361.907101 
L 554.235 361.552555 
L 554.995909 363.254397 
L 557.278636 362.758028 
L 558.039545 362.403476 
L 558.800455 362.190741 
L 559.561364 364.388965 
L 560.322273 362.687123 
L 562.605 362.899845 
L 563.365909 363.608949 
L 564.126818 361.694372 
L 564.887727 361.33982 
L 565.648636 357.93613 
L 567.931364 353.04332 
L 568.692273 351.979664 
L 569.453182 352.121488 
L 570.214091 347.86687 
L 570.975 348.434151 
L 573.257727 348.221422 
L 574.018636 347.865947 
L 574.779545 347.652661 
L 575.540455 346.799499 
L 578.584091 348.079232 
L 579.345 347.794845 
L 580.866818 339.618766 
L 581.627727 337.912455 
L 583.910455 337.130401 
L 584.671364 333.859956 
L 585.432273 332.72242 
L 586.193182 334.49982 
L 586.954091 335.708471 
L 589.236818 332.509128 
L 589.997727 335.352989 
L 590.758636 333.859956 
L 591.519545 333.575576 
L 592.280455 331.44268 
L 594.563182 334.428731 
L 595.324091 330.945007 
L 596.085 331.44268 
L 596.845909 329.238697 
L 597.606818 325.11511 
L 599.889545 327.816766 
L 600.650455 328.456629 
L 601.411364 329.807471 
L 602.172273 326.679217 
L 602.933182 320.422748 
L 605.215909 318.218764 
L 607.498636 315.161611 
L 608.259545 315.232713 
L 610.542273 314.379558 
L 612.825 308.976231 
L 613.585909 311.393507 
L 615.868636 311.748976 
L 616.629545 309.473904 
L 617.390455 308.905129 
L 618.151364 309.687196 
L 618.912273 307.696491 
L 621.195 301.297818 
L 621.955909 304.283869 
L 622.716818 306.558955 
L 623.477727 305.137024 
L 624.238636 303.217421 
L 626.521364 298.240679 
L 627.282273 301.582212 
L 628.043182 299.662609 
L 628.804091 299.022732 
L 629.565 302.506456 
L 631.847727 314.735027 
L 632.608636 312.957614 
L 633.369545 313.384212 
L 634.130455 309.118421 
L 634.891364 314.024075 
L 637.174091 310.469263 
L 637.935 304.212767 
L 638.695909 304.426059 
L 639.456818 305.563609 
L 640.217727 312.602145 
L 642.500455 314.877231 
L 643.261364 306.630043 
L 644.022273 305.279215 
L 644.783182 305.99018 
L 645.544091 310.824732 
L 647.826818 309.402802 
L 648.587727 310.682542 
L 649.348636 311.322405 
L 650.109545 317.721078 
L 650.870455 320.778217 
L 655.435909 335.068594 
L 656.196818 336.20613 
L 659.240455 332.217683 
L 660.001364 326.021313 
L 660.762273 332.431342 
L 661.523182 341.547838 
L 663.805909 362.202383 
L 664.566818 354.439121 
L 665.327727 366.19085 
L 666.088636 381.076364 
L 666.088636 381.076364 
" style="fill:none;stroke:#ff7f0e;stroke-linecap:square;stroke-width:1.5;"/>
   </g>
   <g id="patch_3">
    <path d="M 26.925 398.88 
L 26.925 7.2 
" style="fill:none;stroke:#000000;stroke-linecap:square;stroke-linejoin:miter;stroke-width:0.8;"/>
   </g>
   <g id="patch_4">
    <path d="M 696.525 398.88 
L 696.525 7.2 
" style="fill:none;stroke:#000000;stroke-linecap:square;stroke-linejoin:miter;stroke-width:0.8;"/>
   </g>
   <g id="patch_5">
    <path d="M 26.925 398.88 
L 696.525 398.88 
" style="fill:none;stroke:#000000;stroke-linecap:square;stroke-linejoin:miter;stroke-width:0.8;"/>
   </g>
   <g id="patch_6">
    <path d="M 26.925 7.2 
L 696.525 7.2 
" style="fill:none;stroke:#000000;stroke-linecap:square;stroke-linejoin:miter;stroke-width:0.8;"/>
   </g>
   <g id="legend_1">
    <g id="patch_7">
     <path d="M 605.4875 44.55625 
L 689.525 44.55625 
Q 691.525 44.55625 691.525 42.55625 
L 691.525 14.2 
Q 691.525 12.2 689.525 12.2 
L 605.4875 12.2 
Q 603.4875 12.2 603.4875 14.2 
L 603.4875 42.55625 
Q 603.4875 44.55625 605.4875 44.55625 
z
" style="fill:#ffffff;opacity:0.8;stroke:#cccccc;stroke-linejoin:miter;"/>
    </g>
    <g id="line2d_19">
     <path d="M 607.4875 20.298437 
L 627.4875 20.298437 
" style="fill:none;stroke:#1f77b4;stroke-linecap:square;stroke-width:1.5;"/>
    </g>
    <g id="line2d_20"/>
    <g id="text_18">
     <!-- VALE3.SA -->
     <defs>
      <path d="M 28.609375 0 
L 0.78125 72.90625 
L 11.078125 72.90625 
L 34.1875 11.53125 
L 57.328125 72.90625 
L 67.578125 72.90625 
L 39.796875 0 
z
" id="DejaVuSans-86"/>
      <path d="M 34.1875 63.1875 
L 20.796875 26.90625 
L 47.609375 26.90625 
z
M 28.609375 72.90625 
L 39.796875 72.90625 
L 67.578125 0 
L 57.328125 0 
L 50.6875 18.703125 
L 17.828125 18.703125 
L 11.1875 0 
L 0.78125 0 
z
" id="DejaVuSans-65"/>
      <path d="M 9.8125 72.90625 
L 19.671875 72.90625 
L 19.671875 8.296875 
L 55.171875 8.296875 
L 55.171875 0 
L 9.8125 0 
z
" id="DejaVuSans-76"/>
      <path d="M 9.8125 72.90625 
L 55.90625 72.90625 
L 55.90625 64.59375 
L 19.671875 64.59375 
L 19.671875 43.015625 
L 54.390625 43.015625 
L 54.390625 34.71875 
L 19.671875 34.71875 
L 19.671875 8.296875 
L 56.78125 8.296875 
L 56.78125 0 
L 9.8125 0 
z
" id="DejaVuSans-69"/>
      <path d="M 10.6875 12.40625 
L 21 12.40625 
L 21 0 
L 10.6875 0 
z
" id="DejaVuSans-46"/>
      <path d="M 53.515625 70.515625 
L 53.515625 60.890625 
Q 47.90625 63.578125 42.921875 64.890625 
Q 37.9375 66.21875 33.296875 66.21875 
Q 25.25 66.21875 20.875 63.09375 
Q 16.5 59.96875 16.5 54.203125 
Q 16.5 49.359375 19.40625 46.890625 
Q 22.3125 44.4375 30.421875 42.921875 
L 36.375 41.703125 
Q 47.40625 39.59375 52.65625 34.296875 
Q 57.90625 29 57.90625 20.125 
Q 57.90625 9.515625 50.796875 4.046875 
Q 43.703125 -1.421875 29.984375 -1.421875 
Q 24.8125 -1.421875 18.96875 -0.25 
Q 13.140625 0.921875 6.890625 3.21875 
L 6.890625 13.375 
Q 12.890625 10.015625 18.65625 8.296875 
Q 24.421875 6.59375 29.984375 6.59375 
Q 38.421875 6.59375 43.015625 9.90625 
Q 47.609375 13.234375 47.609375 19.390625 
Q 47.609375 24.75 44.3125 27.78125 
Q 41.015625 30.8125 33.5 32.328125 
L 27.484375 33.5 
Q 16.453125 35.6875 11.515625 40.375 
Q 6.59375 45.0625 6.59375 53.421875 
Q 6.59375 63.09375 13.40625 68.65625 
Q 20.21875 74.21875 32.171875 74.21875 
Q 37.3125 74.21875 42.625 73.28125 
Q 47.953125 72.359375 53.515625 70.515625 
z
" id="DejaVuSans-83"/>
     </defs>
     <g transform="translate(635.4875 23.798437)scale(0.1 -0.1)">
      <use xlink:href="#DejaVuSans-86"/>
      <use x="68.314453" xlink:href="#DejaVuSans-65"/>
      <use x="136.722656" xlink:href="#DejaVuSans-76"/>
      <use x="192.435547" xlink:href="#DejaVuSans-69"/>
      <use x="255.619141" xlink:href="#DejaVuSans-51"/>
      <use x="319.242188" xlink:href="#DejaVuSans-46"/>
      <use x="351.029297" xlink:href="#DejaVuSans-83"/>
      <use x="414.521484" xlink:href="#DejaVuSans-65"/>
     </g>
    </g>
    <g id="line2d_21">
     <path d="M 607.4875 34.976562 
L 627.4875 34.976562 
" style="fill:none;stroke:#ff7f0e;stroke-linecap:square;stroke-width:1.5;"/>
    </g>
    <g id="line2d_22"/>
    <g id="text_19">
     <!-- GGBR4.SA -->
     <defs>
      <path d="M 59.515625 10.40625 
L 59.515625 29.984375 
L 43.40625 29.984375 
L 43.40625 38.09375 
L 69.28125 38.09375 
L 69.28125 6.78125 
Q 63.578125 2.734375 56.6875 0.65625 
Q 49.8125 -1.421875 42 -1.421875 
Q 24.90625 -1.421875 15.25 8.5625 
Q 5.609375 18.5625 5.609375 36.375 
Q 5.609375 54.25 15.25 64.234375 
Q 24.90625 74.21875 42 74.21875 
Q 49.125 74.21875 55.546875 72.453125 
Q 61.96875 70.703125 67.390625 67.28125 
L 67.390625 56.78125 
Q 61.921875 61.421875 55.765625 63.765625 
Q 49.609375 66.109375 42.828125 66.109375 
Q 29.4375 66.109375 22.71875 58.640625 
Q 16.015625 51.171875 16.015625 36.375 
Q 16.015625 21.625 22.71875 14.15625 
Q 29.4375 6.6875 42.828125 6.6875 
Q 48.046875 6.6875 52.140625 7.59375 
Q 56.25 8.5 59.515625 10.40625 
z
" id="DejaVuSans-71"/>
      <path d="M 19.671875 34.8125 
L 19.671875 8.109375 
L 35.5 8.109375 
Q 43.453125 8.109375 47.28125 11.40625 
Q 51.125 14.703125 51.125 21.484375 
Q 51.125 28.328125 47.28125 31.5625 
Q 43.453125 34.8125 35.5 34.8125 
z
M 19.671875 64.796875 
L 19.671875 42.828125 
L 34.28125 42.828125 
Q 41.5 42.828125 45.03125 45.53125 
Q 48.578125 48.25 48.578125 53.8125 
Q 48.578125 59.328125 45.03125 62.0625 
Q 41.5 64.796875 34.28125 64.796875 
z
M 9.8125 72.90625 
L 35.015625 72.90625 
Q 46.296875 72.90625 52.390625 68.21875 
Q 58.5 63.53125 58.5 54.890625 
Q 58.5 48.1875 55.375 44.234375 
Q 52.25 40.28125 46.1875 39.3125 
Q 53.46875 37.75 57.5 32.78125 
Q 61.53125 27.828125 61.53125 20.40625 
Q 61.53125 10.640625 54.890625 5.3125 
Q 48.25 0 35.984375 0 
L 9.8125 0 
z
" id="DejaVuSans-66"/>
      <path d="M 44.390625 34.1875 
Q 47.5625 33.109375 50.5625 29.59375 
Q 53.5625 26.078125 56.59375 19.921875 
L 66.609375 0 
L 56 0 
L 46.6875 18.703125 
Q 43.0625 26.03125 39.671875 28.421875 
Q 36.28125 30.8125 30.421875 30.8125 
L 19.671875 30.8125 
L 19.671875 0 
L 9.8125 0 
L 9.8125 72.90625 
L 32.078125 72.90625 
Q 44.578125 72.90625 50.734375 67.671875 
Q 56.890625 62.453125 56.890625 51.90625 
Q 56.890625 45.015625 53.6875 40.46875 
Q 50.484375 35.9375 44.390625 34.1875 
z
M 19.671875 64.796875 
L 19.671875 38.921875 
L 32.078125 38.921875 
Q 39.203125 38.921875 42.84375 42.21875 
Q 46.484375 45.515625 46.484375 51.90625 
Q 46.484375 58.296875 42.84375 61.546875 
Q 39.203125 64.796875 32.078125 64.796875 
z
" id="DejaVuSans-82"/>
     </defs>
     <g transform="translate(635.4875 38.476562)scale(0.1 -0.1)">
      <use xlink:href="#DejaVuSans-71"/>
      <use x="77.490234" xlink:href="#DejaVuSans-71"/>
      <use x="154.980469" xlink:href="#DejaVuSans-66"/>
      <use x="223.583984" xlink:href="#DejaVuSans-82"/>
      <use x="293.066406" xlink:href="#DejaVuSans-52"/>
      <use x="356.689453" xlink:href="#DejaVuSans-46"/>
      <use x="388.476562" xlink:href="#DejaVuSans-83"/>
      <use x="451.96875" xlink:href="#DejaVuSans-65"/>
     </g>
    </g>
   </g>
  </g>
 </g>
 <defs>
  <clipPath id="p273dbde5e2">
   <rect height="391.68" width="669.6" x="26.925" y="7.2"/>
  </clipPath>
 </defs>
</svg>
