<?xml version="1.0" encoding="utf-8" standalone="no"?>
<!DOCTYPE svg PUBLIC "-//W3C//DTD SVG 1.1//EN"
  "http://www.w3.org/Graphics/SVG/1.1/DTD/svg11.dtd">
<!-- Created with matplotlib (https://matplotlib.org/) -->
<svg height="456.031033pt" version="1.1" viewBox="0 0 703.725 456.031033" width="703.725pt" xmlns="http://www.w3.org/2000/svg" xmlns:xlink="http://www.w3.org/1999/xlink">
 <defs>
  <style type="text/css">
*{stroke-linecap:butt;stroke-linejoin:round;}
  </style>
 </defs>
 <g id="figure_1">
  <g id="patch_1">
   <path d="M 0 456.031033 
L 703.725 456.031033 
L 703.725 0 
L 0 0 
z
" style="fill:none;"/>
  </g>
  <g id="axes_1">
   <g id="patch_2">
    <path d="M 26.925 398.88 
L 696.525 398.88 
L 696.525 7.2 
L 26.925 7.2 
z
" style="fill:#ffffff;"/>
   </g>
   <g id="matplotlib.axis_1">
    <g id="xtick_1">
     <g id="line2d_1">
      <defs>
       <path d="M 0 0 
L 0 3.5 
" id="ma2ce11609a" style="stroke:#000000;stroke-width:0.8;"/>
      </defs>
      <g>
       <use style="stroke:#000000;stroke-width:0.8;" x="56.600455" xlink:href="#ma2ce11609a" y="398.88"/>
      </g>
     </g>
     <g id="text_1">
      <!-- 2018-01 -->
      <defs>
       <path d="M 19.1875 8.296875 
L 53.609375 8.296875 
L 53.609375 0 
L 7.328125 0 
L 7.328125 8.296875 
Q 12.9375 14.109375 22.625 23.890625 
Q 32.328125 33.6875 34.8125 36.53125 
Q 39.546875 41.84375 41.421875 45.53125 
Q 43.3125 49.21875 43.3125 52.78125 
Q 43.3125 58.59375 39.234375 62.25 
Q 35.15625 65.921875 28.609375 65.921875 
Q 23.96875 65.921875 18.8125 64.3125 
Q 13.671875 62.703125 7.8125 59.421875 
L 7.8125 69.390625 
Q 13.765625 71.78125 18.9375 73 
Q 24.125 74.21875 28.421875 74.21875 
Q 39.75 74.21875 46.484375 68.546875 
Q 53.21875 62.890625 53.21875 53.421875 
Q 53.21875 48.921875 51.53125 44.890625 
Q 49.859375 40.875 45.40625 35.40625 
Q 44.1875 33.984375 37.640625 27.21875 
Q 31.109375 20.453125 19.1875 8.296875 
z
" id="DejaVuSans-50"/>
       <path d="M 31.78125 66.40625 
Q 24.171875 66.40625 20.328125 58.90625 
Q 16.5 51.421875 16.5 36.375 
Q 16.5 21.390625 20.328125 13.890625 
Q 24.171875 6.390625 31.78125 6.390625 
Q 39.453125 6.390625 43.28125 13.890625 
Q 47.125 21.390625 47.125 36.375 
Q 47.125 51.421875 43.28125 58.90625 
Q 39.453125 66.40625 31.78125 66.40625 
z
M 31.78125 74.21875 
Q 44.046875 74.21875 50.515625 64.515625 
Q 56.984375 54.828125 56.984375 36.375 
Q 56.984375 17.96875 50.515625 8.265625 
Q 44.046875 -1.421875 31.78125 -1.421875 
Q 19.53125 -1.421875 13.0625 8.265625 
Q 6.59375 17.96875 6.59375 36.375 
Q 6.59375 54.828125 13.0625 64.515625 
Q 19.53125 74.21875 31.78125 74.21875 
z
" id="DejaVuSans-48"/>
       <path d="M 12.40625 8.296875 
L 28.515625 8.296875 
L 28.515625 63.921875 
L 10.984375 60.40625 
L 10.984375 69.390625 
L 28.421875 72.90625 
L 38.28125 72.90625 
L 38.28125 8.296875 
L 54.390625 8.296875 
L 54.390625 0 
L 12.40625 0 
z
" id="DejaVuSans-49"/>
       <path d="M 31.78125 34.625 
Q 24.75 34.625 20.71875 30.859375 
Q 16.703125 27.09375 16.703125 20.515625 
Q 16.703125 13.921875 20.71875 10.15625 
Q 24.75 6.390625 31.78125 6.390625 
Q 38.8125 6.390625 42.859375 10.171875 
Q 46.921875 13.96875 46.921875 20.515625 
Q 46.921875 27.09375 42.890625 30.859375 
Q 38.875 34.625 31.78125 34.625 
z
M 21.921875 38.8125 
Q 15.578125 40.375 12.03125 44.71875 
Q 8.5 49.078125 8.5 55.328125 
Q 8.5 64.0625 14.71875 69.140625 
Q 20.953125 74.21875 31.78125 74.21875 
Q 42.671875 74.21875 48.875 69.140625 
Q 55.078125 64.0625 55.078125 55.328125 
Q 55.078125 49.078125 51.53125 44.71875 
Q 48 40.375 41.703125 38.8125 
Q 48.828125 37.15625 52.796875 32.3125 
Q 56.78125 27.484375 56.78125 20.515625 
Q 56.78125 9.90625 50.3125 4.234375 
Q 43.84375 -1.421875 31.78125 -1.421875 
Q 19.734375 -1.421875 13.25 4.234375 
Q 6.78125 9.90625 6.78125 20.515625 
Q 6.78125 27.484375 10.78125 32.3125 
Q 14.796875 37.15625 21.921875 38.8125 
z
M 18.3125 54.390625 
Q 18.3125 48.734375 21.84375 45.5625 
Q 25.390625 42.390625 31.78125 42.390625 
Q 38.140625 42.390625 41.71875 45.5625 
Q 45.3125 48.734375 45.3125 54.390625 
Q 45.3125 60.0625 41.71875 63.234375 
Q 38.140625 66.40625 31.78125 66.40625 
Q 25.390625 66.40625 21.84375 63.234375 
Q 18.3125 60.0625 18.3125 54.390625 
z
" id="DejaVuSans-56"/>
       <path d="M 4.890625 31.390625 
L 31.203125 31.390625 
L 31.203125 23.390625 
L 4.890625 23.390625 
z
" id="DejaVuSans-45"/>
      </defs>
      <g transform="translate(19.375634 433.351846)rotate(-30)scale(0.1 -0.1)">
       <use xlink:href="#DejaVuSans-50"/>
       <use x="63.623047" xlink:href="#DejaVuSans-48"/>
       <use x="127.246094" xlink:href="#DejaVuSans-49"/>
       <use x="190.869141" xlink:href="#DejaVuSans-56"/>
       <use x="254.492188" xlink:href="#DejaVuSans-45"/>
       <use x="290.576172" xlink:href="#DejaVuSans-48"/>
       <use x="354.199219" xlink:href="#DejaVuSans-49"/>
      </g>
     </g>
    </g>
    <g id="xtick_2">
     <g id="line2d_2">
      <g>
       <use style="stroke:#000000;stroke-width:0.8;" x="125.082273" xlink:href="#ma2ce11609a" y="398.88"/>
      </g>
     </g>
     <g id="text_2">
      <!-- 2018-04 -->
      <defs>
       <path d="M 37.796875 64.3125 
L 12.890625 25.390625 
L 37.796875 25.390625 
z
M 35.203125 72.90625 
L 47.609375 72.90625 
L 47.609375 25.390625 
L 58.015625 25.390625 
L 58.015625 17.1875 
L 47.609375 17.1875 
L 47.609375 0 
L 37.796875 0 
L 37.796875 17.1875 
L 4.890625 17.1875 
L 4.890625 26.703125 
z
" id="DejaVuSans-52"/>
      </defs>
      <g transform="translate(87.857452 433.351846)rotate(-30)scale(0.1 -0.1)">
       <use xlink:href="#DejaVuSans-50"/>
       <use x="63.623047" xlink:href="#DejaVuSans-48"/>
       <use x="127.246094" xlink:href="#DejaVuSans-49"/>
       <use x="190.869141" xlink:href="#DejaVuSans-56"/>
       <use x="254.492188" xlink:href="#DejaVuSans-45"/>
       <use x="290.576172" xlink:href="#DejaVuSans-48"/>
       <use x="354.199219" xlink:href="#DejaVuSans-52"/>
      </g>
     </g>
    </g>
    <g id="xtick_3">
     <g id="line2d_3">
      <g>
       <use style="stroke:#000000;stroke-width:0.8;" x="194.325" xlink:href="#ma2ce11609a" y="398.88"/>
      </g>
     </g>
     <g id="text_3">
      <!-- 2018-07 -->
      <defs>
       <path d="M 8.203125 72.90625 
L 55.078125 72.90625 
L 55.078125 68.703125 
L 28.609375 0 
L 18.3125 0 
L 43.21875 64.59375 
L 8.203125 64.59375 
z
" id="DejaVuSans-55"/>
      </defs>
      <g transform="translate(157.100179 433.351846)rotate(-30)scale(0.1 -0.1)">
       <use xlink:href="#DejaVuSans-50"/>
       <use x="63.623047" xlink:href="#DejaVuSans-48"/>
       <use x="127.246094" xlink:href="#DejaVuSans-49"/>
       <use x="190.869141" xlink:href="#DejaVuSans-56"/>
       <use x="254.492188" xlink:href="#DejaVuSans-45"/>
       <use x="290.576172" xlink:href="#DejaVuSans-48"/>
       <use x="354.199219" xlink:href="#DejaVuSans-55"/>
      </g>
     </g>
    </g>
    <g id="xtick_4">
     <g id="line2d_4">
      <g>
       <use style="stroke:#000000;stroke-width:0.8;" x="264.328636" xlink:href="#ma2ce11609a" y="398.88"/>
      </g>
     </g>
     <g id="text_4">
      <!-- 2018-10 -->
      <g transform="translate(227.103816 433.351846)rotate(-30)scale(0.1 -0.1)">
       <use xlink:href="#DejaVuSans-50"/>
       <use x="63.623047" xlink:href="#DejaVuSans-48"/>
       <use x="127.246094" xlink:href="#DejaVuSans-49"/>
       <use x="190.869141" xlink:href="#DejaVuSans-56"/>
       <use x="254.492188" xlink:href="#DejaVuSans-45"/>
       <use x="290.576172" xlink:href="#DejaVuSans-49"/>
       <use x="354.199219" xlink:href="#DejaVuSans-48"/>
      </g>
     </g>
    </g>
    <g id="xtick_5">
     <g id="line2d_5">
      <g>
       <use style="stroke:#000000;stroke-width:0.8;" x="334.332273" xlink:href="#ma2ce11609a" y="398.88"/>
      </g>
     </g>
     <g id="text_5">
      <!-- 2019-01 -->
      <defs>
       <path d="M 10.984375 1.515625 
L 10.984375 10.5 
Q 14.703125 8.734375 18.5 7.8125 
Q 22.3125 6.890625 25.984375 6.890625 
Q 35.75 6.890625 40.890625 13.453125 
Q 46.046875 20.015625 46.78125 33.40625 
Q 43.953125 29.203125 39.59375 26.953125 
Q 35.25 24.703125 29.984375 24.703125 
Q 19.046875 24.703125 12.671875 31.3125 
Q 6.296875 37.9375 6.296875 49.421875 
Q 6.296875 60.640625 12.9375 67.421875 
Q 19.578125 74.21875 30.609375 74.21875 
Q 43.265625 74.21875 49.921875 64.515625 
Q 56.59375 54.828125 56.59375 36.375 
Q 56.59375 19.140625 48.40625 8.859375 
Q 40.234375 -1.421875 26.421875 -1.421875 
Q 22.703125 -1.421875 18.890625 -0.6875 
Q 15.09375 0.046875 10.984375 1.515625 
z
M 30.609375 32.421875 
Q 37.25 32.421875 41.125 36.953125 
Q 45.015625 41.5 45.015625 49.421875 
Q 45.015625 57.28125 41.125 61.84375 
Q 37.25 66.40625 30.609375 66.40625 
Q 23.96875 66.40625 20.09375 61.84375 
Q 16.21875 57.28125 16.21875 49.421875 
Q 16.21875 41.5 20.09375 36.953125 
Q 23.96875 32.421875 30.609375 32.421875 
z
" id="DejaVuSans-57"/>
      </defs>
      <g transform="translate(297.107452 433.351846)rotate(-30)scale(0.1 -0.1)">
       <use xlink:href="#DejaVuSans-50"/>
       <use x="63.623047" xlink:href="#DejaVuSans-48"/>
       <use x="127.246094" xlink:href="#DejaVuSans-49"/>
       <use x="190.869141" xlink:href="#DejaVuSans-57"/>
       <use x="254.492188" xlink:href="#DejaVuSans-45"/>
       <use x="290.576172" xlink:href="#DejaVuSans-48"/>
       <use x="354.199219" xlink:href="#DejaVuSans-49"/>
      </g>
     </g>
    </g>
    <g id="xtick_6">
     <g id="line2d_6">
      <g>
       <use style="stroke:#000000;stroke-width:0.8;" x="402.814091" xlink:href="#ma2ce11609a" y="398.88"/>
      </g>
     </g>
     <g id="text_6">
      <!-- 2019-04 -->
      <g transform="translate(365.58927 433.351846)rotate(-30)scale(0.1 -0.1)">
       <use xlink:href="#DejaVuSans-50"/>
       <use x="63.623047" xlink:href="#DejaVuSans-48"/>
       <use x="127.246094" xlink:href="#DejaVuSans-49"/>
       <use x="190.869141" xlink:href="#DejaVuSans-57"/>
       <use x="254.492188" xlink:href="#DejaVuSans-45"/>
       <use x="290.576172" xlink:href="#DejaVuSans-48"/>
       <use x="354.199219" xlink:href="#DejaVuSans-52"/>
      </g>
     </g>
    </g>
    <g id="xtick_7">
     <g id="line2d_7">
      <g>
       <use style="stroke:#000000;stroke-width:0.8;" x="472.056818" xlink:href="#ma2ce11609a" y="398.88"/>
      </g>
     </g>
     <g id="text_7">
      <!-- 2019-07 -->
      <g transform="translate(434.831997 433.351846)rotate(-30)scale(0.1 -0.1)">
       <use xlink:href="#DejaVuSans-50"/>
       <use x="63.623047" xlink:href="#DejaVuSans-48"/>
       <use x="127.246094" xlink:href="#DejaVuSans-49"/>
       <use x="190.869141" xlink:href="#DejaVuSans-57"/>
       <use x="254.492188" xlink:href="#DejaVuSans-45"/>
       <use x="290.576172" xlink:href="#DejaVuSans-48"/>
       <use x="354.199219" xlink:href="#DejaVuSans-55"/>
      </g>
     </g>
    </g>
    <g id="xtick_8">
     <g id="line2d_8">
      <g>
       <use style="stroke:#000000;stroke-width:0.8;" x="542.060455" xlink:href="#ma2ce11609a" y="398.88"/>
      </g>
     </g>
     <g id="text_8">
      <!-- 2019-10 -->
      <g transform="translate(504.835634 433.351846)rotate(-30)scale(0.1 -0.1)">
       <use xlink:href="#DejaVuSans-50"/>
       <use x="63.623047" xlink:href="#DejaVuSans-48"/>
       <use x="127.246094" xlink:href="#DejaVuSans-49"/>
       <use x="190.869141" xlink:href="#DejaVuSans-57"/>
       <use x="254.492188" xlink:href="#DejaVuSans-45"/>
       <use x="290.576172" xlink:href="#DejaVuSans-49"/>
       <use x="354.199219" xlink:href="#DejaVuSans-48"/>
      </g>
     </g>
    </g>
    <g id="xtick_9">
     <g id="line2d_9">
      <g>
       <use style="stroke:#000000;stroke-width:0.8;" x="612.064091" xlink:href="#ma2ce11609a" y="398.88"/>
      </g>
     </g>
     <g id="text_9">
      <!-- 2020-01 -->
      <g transform="translate(574.83927 433.351846)rotate(-30)scale(0.1 -0.1)">
       <use xlink:href="#DejaVuSans-50"/>
       <use x="63.623047" xlink:href="#DejaVuSans-48"/>
       <use x="127.246094" xlink:href="#DejaVuSans-50"/>
       <use x="190.869141" xlink:href="#DejaVuSans-48"/>
       <use x="254.492188" xlink:href="#DejaVuSans-45"/>
       <use x="290.576172" xlink:href="#DejaVuSans-48"/>
       <use x="354.199219" xlink:href="#DejaVuSans-49"/>
      </g>
     </g>
    </g>
    <g id="xtick_10">
     <g id="line2d_10">
      <g>
       <use style="stroke:#000000;stroke-width:0.8;" x="681.306818" xlink:href="#ma2ce11609a" y="398.88"/>
      </g>
     </g>
     <g id="text_10">
      <!-- 2020-04 -->
      <g transform="translate(644.081997 433.351846)rotate(-30)scale(0.1 -0.1)">
       <use xlink:href="#DejaVuSans-50"/>
       <use x="63.623047" xlink:href="#DejaVuSans-48"/>
       <use x="127.246094" xlink:href="#DejaVuSans-50"/>
       <use x="190.869141" xlink:href="#DejaVuSans-48"/>
       <use x="254.492188" xlink:href="#DejaVuSans-45"/>
       <use x="290.576172" xlink:href="#DejaVuSans-48"/>
       <use x="354.199219" xlink:href="#DejaVuSans-52"/>
      </g>
     </g>
    </g>
    <g id="text_11">
     <!-- Date -->
     <defs>
      <path d="M 19.671875 64.796875 
L 19.671875 8.109375 
L 31.59375 8.109375 
Q 46.6875 8.109375 53.6875 14.9375 
Q 60.6875 21.78125 60.6875 36.53125 
Q 60.6875 51.171875 53.6875 57.984375 
Q 46.6875 64.796875 31.59375 64.796875 
z
M 9.8125 72.90625 
L 30.078125 72.90625 
Q 51.265625 72.90625 61.171875 64.09375 
Q 71.09375 55.28125 71.09375 36.53125 
Q 71.09375 17.671875 61.125 8.828125 
Q 51.171875 0 30.078125 0 
L 9.8125 0 
z
" id="DejaVuSans-68"/>
      <path d="M 34.28125 27.484375 
Q 23.390625 27.484375 19.1875 25 
Q 14.984375 22.515625 14.984375 16.5 
Q 14.984375 11.71875 18.140625 8.90625 
Q 21.296875 6.109375 26.703125 6.109375 
Q 34.1875 6.109375 38.703125 11.40625 
Q 43.21875 16.703125 43.21875 25.484375 
L 43.21875 27.484375 
z
M 52.203125 31.203125 
L 52.203125 0 
L 43.21875 0 
L 43.21875 8.296875 
Q 40.140625 3.328125 35.546875 0.953125 
Q 30.953125 -1.421875 24.3125 -1.421875 
Q 15.921875 -1.421875 10.953125 3.296875 
Q 6 8.015625 6 15.921875 
Q 6 25.140625 12.171875 29.828125 
Q 18.359375 34.515625 30.609375 34.515625 
L 43.21875 34.515625 
L 43.21875 35.40625 
Q 43.21875 41.609375 39.140625 45 
Q 35.0625 48.390625 27.6875 48.390625 
Q 23 48.390625 18.546875 47.265625 
Q 14.109375 46.140625 10.015625 43.890625 
L 10.015625 52.203125 
Q 14.9375 54.109375 19.578125 55.046875 
Q 24.21875 56 28.609375 56 
Q 40.484375 56 46.34375 49.84375 
Q 52.203125 43.703125 52.203125 31.203125 
z
" id="DejaVuSans-97"/>
      <path d="M 18.3125 70.21875 
L 18.3125 54.6875 
L 36.8125 54.6875 
L 36.8125 47.703125 
L 18.3125 47.703125 
L 18.3125 18.015625 
Q 18.3125 11.328125 20.140625 9.421875 
Q 21.96875 7.515625 27.59375 7.515625 
L 36.8125 7.515625 
L 36.8125 0 
L 27.59375 0 
Q 17.1875 0 13.234375 3.875 
Q 9.28125 7.765625 9.28125 18.015625 
L 9.28125 47.703125 
L 2.6875 47.703125 
L 2.6875 54.6875 
L 9.28125 54.6875 
L 9.28125 70.21875 
z
" id="DejaVuSans-116"/>
      <path d="M 56.203125 29.59375 
L 56.203125 25.203125 
L 14.890625 25.203125 
Q 15.484375 15.921875 20.484375 11.0625 
Q 25.484375 6.203125 34.421875 6.203125 
Q 39.59375 6.203125 44.453125 7.46875 
Q 49.3125 8.734375 54.109375 11.28125 
L 54.109375 2.78125 
Q 49.265625 0.734375 44.1875 -0.34375 
Q 39.109375 -1.421875 33.890625 -1.421875 
Q 20.796875 -1.421875 13.15625 6.1875 
Q 5.515625 13.8125 5.515625 26.8125 
Q 5.515625 40.234375 12.765625 48.109375 
Q 20.015625 56 32.328125 56 
Q 43.359375 56 49.78125 48.890625 
Q 56.203125 41.796875 56.203125 29.59375 
z
M 47.21875 32.234375 
Q 47.125 39.59375 43.09375 43.984375 
Q 39.0625 48.390625 32.421875 48.390625 
Q 24.90625 48.390625 20.390625 44.140625 
Q 15.875 39.890625 15.1875 32.171875 
z
" id="DejaVuSans-101"/>
     </defs>
     <g transform="translate(349.774219 446.751346)scale(0.1 -0.1)">
      <use xlink:href="#DejaVuSans-68"/>
      <use x="77.001953" xlink:href="#DejaVuSans-97"/>
      <use x="138.28125" xlink:href="#DejaVuSans-116"/>
      <use x="177.490234" xlink:href="#DejaVuSans-101"/>
     </g>
    </g>
   </g>
   <g id="matplotlib.axis_2">
    <g id="ytick_1">
     <g id="line2d_11">
      <defs>
       <path d="M 0 0 
L -3.5 0 
" id="m4bbfa5e26d" style="stroke:#000000;stroke-width:0.8;"/>
      </defs>
      <g>
       <use style="stroke:#000000;stroke-width:0.8;" x="26.925" xlink:href="#m4bbfa5e26d" y="377.416433"/>
      </g>
     </g>
     <g id="text_12">
      <!-- 5 -->
      <defs>
       <path d="M 10.796875 72.90625 
L 49.515625 72.90625 
L 49.515625 64.59375 
L 19.828125 64.59375 
L 19.828125 46.734375 
Q 21.96875 47.46875 24.109375 47.828125 
Q 26.265625 48.1875 28.421875 48.1875 
Q 40.625 48.1875 47.75 41.5 
Q 54.890625 34.8125 54.890625 23.390625 
Q 54.890625 11.625 47.5625 5.09375 
Q 40.234375 -1.421875 26.90625 -1.421875 
Q 22.3125 -1.421875 17.546875 -0.640625 
Q 12.796875 0.140625 7.71875 1.703125 
L 7.71875 11.625 
Q 12.109375 9.234375 16.796875 8.0625 
Q 21.484375 6.890625 26.703125 6.890625 
Q 35.15625 6.890625 40.078125 11.328125 
Q 45.015625 15.765625 45.015625 23.390625 
Q 45.015625 31 40.078125 35.4375 
Q 35.15625 39.890625 26.703125 39.890625 
Q 22.75 39.890625 18.8125 39.015625 
Q 14.890625 38.140625 10.796875 36.28125 
z
" id="DejaVuSans-53"/>
      </defs>
      <g transform="translate(13.5625 381.215651)scale(0.1 -0.1)">
       <use xlink:href="#DejaVuSans-53"/>
      </g>
     </g>
    </g>
    <g id="ytick_2">
     <g id="line2d_12">
      <g>
       <use style="stroke:#000000;stroke-width:0.8;" x="26.925" xlink:href="#m4bbfa5e26d" y="327.780828"/>
      </g>
     </g>
     <g id="text_13">
      <!-- 10 -->
      <g transform="translate(7.2 331.580046)scale(0.1 -0.1)">
       <use xlink:href="#DejaVuSans-49"/>
       <use x="63.623047" xlink:href="#DejaVuSans-48"/>
      </g>
     </g>
    </g>
    <g id="ytick_3">
     <g id="line2d_13">
      <g>
       <use style="stroke:#000000;stroke-width:0.8;" x="26.925" xlink:href="#m4bbfa5e26d" y="278.145222"/>
      </g>
     </g>
     <g id="text_14">
      <!-- 15 -->
      <g transform="translate(7.2 281.944441)scale(0.1 -0.1)">
       <use xlink:href="#DejaVuSans-49"/>
       <use x="63.623047" xlink:href="#DejaVuSans-53"/>
      </g>
     </g>
    </g>
    <g id="ytick_4">
     <g id="line2d_14">
      <g>
       <use style="stroke:#000000;stroke-width:0.8;" x="26.925" xlink:href="#m4bbfa5e26d" y="228.509617"/>
      </g>
     </g>
     <g id="text_15">
      <!-- 20 -->
      <g transform="translate(7.2 232.308836)scale(0.1 -0.1)">
       <use xlink:href="#DejaVuSans-50"/>
       <use x="63.623047" xlink:href="#DejaVuSans-48"/>
      </g>
     </g>
    </g>
    <g id="ytick_5">
     <g id="line2d_15">
      <g>
       <use style="stroke:#000000;stroke-width:0.8;" x="26.925" xlink:href="#m4bbfa5e26d" y="178.874012"/>
      </g>
     </g>
     <g id="text_16">
      <!-- 25 -->
      <g transform="translate(7.2 182.673231)scale(0.1 -0.1)">
       <use xlink:href="#DejaVuSans-50"/>
       <use x="63.623047" xlink:href="#DejaVuSans-53"/>
      </g>
     </g>
    </g>
    <g id="ytick_6">
     <g id="line2d_16">
      <g>
       <use style="stroke:#000000;stroke-width:0.8;" x="26.925" xlink:href="#m4bbfa5e26d" y="129.238407"/>
      </g>
     </g>
     <g id="text_17">
      <!-- 30 -->
      <defs>
       <path d="M 40.578125 39.3125 
Q 47.65625 37.796875 51.625 33 
Q 55.609375 28.21875 55.609375 21.1875 
Q 55.609375 10.40625 48.1875 4.484375 
Q 40.765625 -1.421875 27.09375 -1.421875 
Q 22.515625 -1.421875 17.65625 -0.515625 
Q 12.796875 0.390625 7.625 2.203125 
L 7.625 11.71875 
Q 11.71875 9.328125 16.59375 8.109375 
Q 21.484375 6.890625 26.8125 6.890625 
Q 36.078125 6.890625 40.9375 10.546875 
Q 45.796875 14.203125 45.796875 21.1875 
Q 45.796875 27.640625 41.28125 31.265625 
Q 36.765625 34.90625 28.71875 34.90625 
L 20.21875 34.90625 
L 20.21875 43.015625 
L 29.109375 43.015625 
Q 36.375 43.015625 40.234375 45.921875 
Q 44.09375 48.828125 44.09375 54.296875 
Q 44.09375 59.90625 40.109375 62.90625 
Q 36.140625 65.921875 28.71875 65.921875 
Q 24.65625 65.921875 20.015625 65.03125 
Q 15.375 64.15625 9.8125 62.3125 
L 9.8125 71.09375 
Q 15.4375 72.65625 20.34375 73.4375 
Q 25.25 74.21875 29.59375 74.21875 
Q 40.828125 74.21875 47.359375 69.109375 
Q 53.90625 64.015625 53.90625 55.328125 
Q 53.90625 49.265625 50.4375 45.09375 
Q 46.96875 40.921875 40.578125 39.3125 
z
" id="DejaVuSans-51"/>
      </defs>
      <g transform="translate(7.2 133.037626)scale(0.1 -0.1)">
       <use xlink:href="#DejaVuSans-51"/>
       <use x="63.623047" xlink:href="#DejaVuSans-48"/>
      </g>
     </g>
    </g>
    <g id="ytick_7">
     <g id="line2d_17">
      <g>
       <use style="stroke:#000000;stroke-width:0.8;" x="26.925" xlink:href="#m4bbfa5e26d" y="79.602802"/>
      </g>
     </g>
     <g id="text_18">
      <!-- 35 -->
      <g transform="translate(7.2 83.402021)scale(0.1 -0.1)">
       <use xlink:href="#DejaVuSans-51"/>
       <use x="63.623047" xlink:href="#DejaVuSans-53"/>
      </g>
     </g>
    </g>
    <g id="ytick_8">
     <g id="line2d_18">
      <g>
       <use style="stroke:#000000;stroke-width:0.8;" x="26.925" xlink:href="#m4bbfa5e26d" y="29.967197"/>
      </g>
     </g>
     <g id="text_19">
      <!-- 40 -->
      <g transform="translate(7.2 33.766416)scale(0.1 -0.1)">
       <use xlink:href="#DejaVuSans-52"/>
       <use x="63.623047" xlink:href="#DejaVuSans-48"/>
      </g>
     </g>
    </g>
   </g>
   <g id="line2d_19">
    <path clip-path="url(#pb19b6613e3)" d="M 57.361364 327.335451 
L 58.122273 329.507501 
L 58.883182 329.310042 
L 59.644091 328.52021 
L 61.926818 328.322751 
L 62.687727 331.679551 
L 63.448636 331.482083 
L 64.209545 330.494792 
L 64.970455 330.099875 
L 67.253182 330.396058 
L 68.014091 331.284634 
L 68.775 330.69225 
L 69.535909 331.876999 
L 70.296818 331.284634 
L 72.579545 330.790984 
L 73.340455 332.765566 
L 74.101364 329.408767 
L 74.862273 329.408767 
L 75.623182 327.927835 
L 77.905909 326.545627 
L 78.666818 326.743076 
L 79.427727 327.829101 
L 80.188636 326.446903 
L 80.949545 328.421476 
L 83.232273 329.507501 
L 83.993182 328.915126 
L 84.754091 329.803683 
L 85.515 332.271916 
L 86.275909 331.778275 
L 90.841364 331.679551 
L 91.602273 332.271916 
L 93.885 331.876999 
L 94.645909 330.396058 
L 95.406818 328.421476 
L 96.167727 325.953253 
L 96.928636 325.360868 
L 99.211364 329.01385 
L 99.972273 329.507501 
L 101.494091 328.816392 
L 102.255 328.322751 
L 104.537727 333.259217 
L 106.059545 334.147774 
L 106.820455 334.740149 
L 107.581364 330.593516 
L 109.864091 326.545627 
L 110.625 324.373587 
L 111.385909 327.039268 
L 112.146818 330.297334 
L 112.907727 332.074458 
L 115.190455 330.593516 
L 115.951364 331.1859 
L 116.712273 331.975724 
L 117.473182 332.173192 
L 118.234091 333.950316 
L 120.516818 334.147774 
L 122.038636 339.182973 
L 122.799545 334.740149 
L 125.843182 334.246508 
L 126.604091 337.208381 
L 127.365 337.208381 
L 128.125909 338.886781 
L 128.886818 337.208381 
L 131.930455 338.590598 
L 132.691364 336.418548 
L 133.452273 334.937616 
L 134.213182 337.010923 
L 136.495909 338.491864 
L 137.256818 337.998214 
L 138.017727 336.2211 
L 138.778636 337.208381 
L 139.539545 336.517282 
L 141.822273 336.2211 
L 142.583182 337.010923 
L 143.344091 338.491864 
L 144.105 336.023632 
L 144.865909 338.689323 
L 147.148636 340.663905 
L 148.670455 341.092932 
L 149.431364 343.574428 
L 150.192273 345.162586 
L 152.475 345.559633 
L 153.235909 346.254443 
L 153.996818 343.078127 
L 154.757727 338.512172 
L 155.518636 338.909209 
L 157.801364 337.420315 
L 158.562273 335.732893 
L 159.323182 333.549179 
L 160.084091 334.839555 
L 160.845 333.251397 
L 163.127727 332.060276 
L 164.649545 332.755096 
L 165.410455 332.85436 
L 166.171364 331.663239 
L 168.454091 333.152133 
L 169.215 336.328449 
L 169.975909 338.412908 
L 171.497727 337.420315 
L 173.780455 338.015871 
L 174.541364 341.589233 
L 175.302273 340.894404 
L 176.063182 343.177391 
L 176.824091 339.703293 
L 179.867727 340.497367 
L 180.628636 339.703293 
L 181.389545 339.802557 
L 182.150455 340.497367 
L 184.433182 338.412908 
L 185.194091 336.526977 
L 185.955 336.626241 
L 186.715909 334.541782 
L 187.476818 334.442517 
L 189.759545 333.052878 
L 190.520455 334.442517 
L 192.042273 338.512172 
L 192.803182 334.740291 
L 195.085909 334.839555 
L 195.846818 334.740291 
L 196.607727 331.365456 
L 197.368636 332.258794 
L 198.129545 334.343253 
L 201.173182 329.380261 
L 201.934091 332.85436 
L 202.695 332.556567 
L 203.455909 333.747698 
L 205.738636 331.266202 
L 206.499545 328.089876 
L 207.260455 329.57878 
L 208.021364 329.479516 
L 208.782273 331.563975 
L 211.065 333.251397 
L 211.825909 332.358058 
L 212.586818 329.380261 
L 213.347727 331.663239 
L 214.108636 331.46472 
L 216.391364 336.725486 
L 217.152273 337.519569 
L 217.913182 336.924014 
L 219.435 334.343253 
L 222.478636 338.214399 
L 223.239545 338.412908 
L 224.000455 341.887016 
L 224.761364 344.666285 
L 227.044091 340.795159 
L 228.565909 336.030675 
L 229.326818 338.909209 
L 230.087727 338.809945 
L 232.370455 340.001066 
L 233.131364 338.214399 
L 233.892273 333.350661 
L 234.653182 335.534374 
L 235.414091 332.85436 
L 237.696818 331.762493 
L 238.457727 332.755096 
L 239.218636 332.755096 
L 239.979545 335.137337 
L 240.740455 333.747698 
L 243.023182 332.85436 
L 243.784091 334.740291 
L 244.545 334.243989 
L 245.305909 335.137337 
L 248.349545 333.549179 
L 249.110455 333.449915 
L 249.871364 335.236592 
L 250.632273 336.725486 
L 251.393182 336.427713 
L 253.675909 334.641027 
L 254.436818 330.075071 
L 255.197727 332.060276 
L 255.958636 335.137337 
L 256.719545 334.740291 
L 259.002273 336.229194 
L 260.524091 332.655831 
L 261.285 332.15953 
L 262.045909 333.946216 
L 264.328636 334.839555 
L 265.089545 334.641027 
L 265.850455 334.938819 
L 266.611364 339.306255 
L 267.372273 341.192196 
L 269.655 338.909209 
L 271.176818 338.512172 
L 271.937727 336.328449 
L 274.981364 335.534374 
L 275.742273 334.144735 
L 276.503182 333.747698 
L 277.264091 332.15953 
L 278.025 331.166938 
L 280.307727 329.082478 
L 281.068636 325.906162 
L 281.829545 328.784705 
L 282.590455 327.692839 
L 283.351364 327.49432 
L 285.634091 330.075071 
L 286.395 324.814296 
L 287.155909 325.310597 
L 287.916818 326.005417 
L 290.960455 323.424666 
L 291.721364 325.012824 
L 292.482273 322.3328 
L 293.243182 324.91356 
L 294.004091 328.18914 
L 296.286818 328.18914 
L 297.047727 329.280997 
L 297.808636 313.895709 
L 299.330455 315.682385 
L 301.613182 319.355003 
L 303.135 314.689793 
L 303.895909 316.377215 
L 304.656818 319.255748 
L 306.939545 316.674988 
L 307.700455 313.399408 
L 308.461364 312.803843 
L 309.222273 310.42161 
L 309.983182 310.223082 
L 312.265909 308.337151 
L 313.026818 313.101635 
L 313.787727 306.848257 
L 314.548636 305.954919 
L 315.309545 307.443813 
L 317.592273 310.42161 
L 318.353182 314.392001 
L 319.114091 312.803843 
L 319.875 307.940114 
L 320.635909 307.14603 
L 322.918636 308.932716 
L 323.679545 308.734188 
L 324.440455 312.50607 
L 325.201364 313.895709 
L 325.962273 310.322346 
L 329.766818 312.903107 
L 330.527727 314.888302 
L 331.288636 312.009768 
L 335.093182 307.543077 
L 335.854091 305.657137 
L 336.615 302.480811 
L 338.897727 306.848257 
L 339.658636 304.962307 
L 340.419545 305.954919 
L 341.180455 306.351956 
L 341.941364 303.17564 
L 344.224091 301.091181 
L 344.985 301.786001 
L 345.745909 296.525226 
L 346.506818 294.04372 
L 347.267727 292.753345 
L 349.550455 291.065923 
L 350.311364 292.058516 
L 351.072273 287.294042 
L 351.833182 283.422906 
L 354.876818 280.147326 
L 355.637727 281.139928 
L 356.398636 275.184334 
L 357.920455 279.452506 
L 360.203182 277.963603 
L 360.964091 278.360659 
L 361.725 287.790343 
L 362.485909 284.812545 
L 363.246818 285.606629 
L 365.529545 284.614027 
L 366.290455 282.628822 
L 367.051364 284.316244 
L 367.812273 283.125123 
L 368.573182 279.948817 
L 370.855909 278.162131 
L 371.616818 280.24659 
L 372.377727 285.805148 
L 373.138636 288.8822 
L 373.899545 286.003666 
L 376.182273 288.385898 
L 376.943182 291.065923 
L 377.704091 290.470358 
L 378.465 293.745938 
L 379.225909 286.897004 
L 383.791364 297.3193 
L 384.552273 296.525226 
L 386.835 295.532624 
L 388.356818 286.897004 
L 389.117727 284.117726 
L 389.878636 279.651025 
L 392.161364 272.702828 
L 392.922273 278.261395 
L 393.683182 278.360659 
L 395.205 285.209583 
L 397.487727 283.720689 
L 398.248636 276.97101 
L 399.009545 281.934012 
L 399.770455 273.496912 
L 400.531364 269.030211 
L 402.814091 265.953159 
L 403.575 269.625776 
L 404.335909 272.206527 
L 405.096818 270.41986 
L 405.857727 262.280532 
L 408.140455 255.828646 
L 408.901364 259.302744 
L 409.662273 257.218285 
L 410.423182 259.401999 
L 411.184091 251.95751 
L 413.466818 249.078958 
L 414.227727 233.991452 
L 414.988636 237.465551 
L 415.749545 246.001915 
L 418.793182 238.557408 
L 419.554091 231.311447 
L 420.315 238.259625 
L 421.075909 223.66843 
L 421.836818 235.281837 
L 424.119545 234.984055 
L 424.880455 230.815136 
L 426.402273 233.274631 
L 427.163182 223.34751 
L 429.445909 225.531489 
L 430.206818 230.792851 
L 430.967727 226.921279 
L 431.728636 220.567928 
L 432.489545 228.211797 
L 434.772273 231.090671 
L 435.533182 214.710925 
L 437.055 201.805656 
L 437.815909 193.069798 
L 440.098636 188.70186 
L 440.859545 204.287437 
L 441.620455 202.20275 
L 442.381364 205.975048 
L 443.142273 196.544294 
L 445.425 203.592541 
L 446.185909 202.699099 
L 446.946818 216.894885 
L 447.707727 205.975048 
L 448.468636 210.045166 
L 450.751364 216.398536 
L 451.512273 204.982332 
L 452.273182 207.96048 
L 453.034091 208.754649 
L 453.795 212.129871 
L 456.077727 208.456828 
L 456.838636 210.640807 
L 457.599545 207.364858 
L 458.360455 213.122587 
L 459.121364 217.291979 
L 461.404091 219.773759 
L 462.165 222.652614 
L 462.925909 216.100716 
L 464.447727 207.96048 
L 466.730455 210.740062 
L 467.491364 209.648091 
L 468.252273 216.19999 
L 469.013182 217.689054 
L 469.774091 216.398536 
L 472.056818 204.783804 
L 472.817727 197.735538 
L 473.578636 197.735538 
L 474.339545 193.963241 
L 475.100455 185.922259 
L 477.383182 183.738299 
L 478.905 175.200969 
L 479.665909 184.830289 
L 480.426818 190.290198 
L 482.709545 182.745583 
L 483.470455 190.290198 
L 484.231364 193.863967 
L 484.992273 190.786565 
L 485.753182 189.793849 
L 488.035909 180.363077 
L 488.796818 172.719189 
L 489.557727 169.542513 
L 490.318636 175.002441 
L 491.079545 176.690052 
L 493.362273 178.27839 
L 494.123182 175.895883 
L 494.884091 179.866728 
L 495.645 167.954175 
L 496.405909 166.365837 
L 498.688636 170.336682 
L 499.449545 160.806655 
L 500.210455 161.600824 
L 500.971364 161.005202 
L 501.732273 154.850379 
L 504.015 139.165528 
L 504.775909 149.39047 
L 505.536818 155.545274 
L 506.297727 142.937826 
L 507.058636 138.172812 
L 509.341364 140.158244 
L 510.102273 142.739298 
L 510.863182 136.683748 
L 511.624091 138.569906 
L 512.385 152.567145 
L 514.667727 151.772976 
L 515.428636 150.581714 
L 516.950455 134.698316 
L 517.711364 132.812177 
L 519.994091 137.57719 
L 520.755 139.661877 
L 521.515909 130.231123 
L 522.276818 126.8559 
L 523.037727 128.642785 
L 525.320455 139.165528 
L 526.081364 139.165528 
L 526.842273 143.136373 
L 527.603182 138.172812 
L 528.364091 130.926018 
L 530.646818 131.819461 
L 531.407727 133.705619 
L 532.168636 134.599062 
L 532.929545 132.812177 
L 533.690455 120.304002 
L 535.973182 122.289415 
L 536.734091 100.648288 
L 537.495 97.471612 
L 539.016818 104.916953 
L 541.299545 101.54173 
L 542.060455 99.953393 
L 542.821364 114.347726 
L 543.582273 110.376881 
L 544.343182 113.851377 
L 546.625909 118.517117 
L 547.386818 122.785782 
L 548.147727 134.698316 
L 548.908636 137.676464 
L 549.669545 135.194683 
L 551.952273 139.165528 
L 552.713182 138.172812 
L 553.474091 135.790305 
L 554.235 137.775737 
L 554.995909 138.768434 
L 557.278636 130.727471 
L 558.039545 126.756627 
L 559.561364 138.172812 
L 560.322273 145.618153 
L 562.605 141.746582 
L 563.365909 143.930542 
L 564.126818 139.860424 
L 564.887727 146.213775 
L 565.648636 145.915973 
L 567.931364 137.180096 
L 568.692273 148.397754 
L 569.453182 162.990615 
L 570.214091 157.530706 
L 570.975 153.162767 
L 573.257727 150.978807 
L 574.018636 153.857663 
L 574.779545 159.813939 
L 575.540455 166.663658 
L 578.584091 161.600824 
L 579.345 163.983331 
L 580.866818 172.322114 
L 581.627727 174.903168 
L 583.910455 150.680987 
L 584.671364 157.431432 
L 585.432273 153.063494 
L 586.193182 142.640024 
L 586.954091 144.327636 
L 589.236818 147.107217 
L 589.997727 148.894102 
L 590.758636 156.736537 
L 591.519545 153.559861 
L 592.280455 154.552558 
L 594.563182 163.68551 
L 596.085 174.4068 
L 596.845909 176.392232 
L 597.606818 172.520661 
L 599.889545 173.910452 
L 600.650455 178.973286 
L 601.411364 170.138154 
L 602.172273 166.465111 
L 602.933182 168.946891 
L 605.215909 165.770215 
L 607.498636 164.082604 
L 608.259545 164.976047 
L 610.542273 170.932323 
L 612.825 157.034338 
L 613.585909 154.35403 
L 615.868636 160.806655 
L 616.629545 156.041641 
L 617.390455 149.39047 
L 618.151364 146.015247 
L 618.912273 147.504311 
L 621.195 141.845855 
L 621.955909 142.143657 
L 622.716818 143.037099 
L 623.477727 141.051686 
L 624.238636 131.720187 
L 626.521364 131.025292 
L 627.282273 128.344965 
L 628.043182 128.742059 
L 628.804091 131.025292 
L 629.565 136.187399 
L 631.847727 156.041641 
L 632.608636 147.206491 
L 633.369545 155.148199 
L 634.130455 159.516119 
L 634.891364 153.262041 
L 637.174091 147.901386 
L 637.935 154.254757 
L 638.695909 156.83581 
L 639.456818 161.104456 
L 640.217727 172.22284 
L 642.500455 173.811178 
L 643.261364 169.343985 
L 644.022273 170.833049 
L 644.783182 166.068017 
L 645.544091 171.130851 
L 647.826818 170.833049 
L 648.587727 171.92502 
L 649.348636 161.005202 
L 650.109545 171.031578 
L 650.870455 169.145438 
L 655.435909 202.798372 
L 656.196818 201.706383 
L 658.479545 194.558863 
L 659.240455 201.90493 
L 660.001364 191.779262 
L 660.762273 206.669943 
L 661.523182 218.483223 
L 663.805909 248.363859 
L 664.566818 220.965003 
L 666.088636 260.772761 
L 666.088636 260.772761 
" style="fill:none;stroke:#1f77b4;stroke-linecap:square;stroke-width:1.5;"/>
   </g>
   <g id="line2d_20">
    <path clip-path="url(#pb19b6613e3)" d="M 57.361364 354.584052 
L 58.122273 355.378226 
L 58.883182 355.378226 
L 59.644091 354.782595 
L 61.926818 356.073122 
L 62.687727 356.966564 
L 63.448636 357.065833 
L 64.209545 356.966564 
L 64.970455 358.753444 
L 67.253182 359.150528 
L 68.014091 360.441055 
L 68.775 359.05126 
L 69.535909 360.639598 
L 70.296818 360.540329 
L 72.579545 361.53304 
L 73.340455 363.518462 
L 74.101364 358.852717 
L 74.862273 358.852717 
L 75.623182 359.944697 
L 77.905909 359.646886 
L 78.666818 359.05126 
L 79.427727 359.448344 
L 80.188636 359.547613 
L 80.949545 361.135956 
L 83.232273 362.128667 
L 83.993182 360.540329 
L 84.754091 362.525751 
L 85.515 363.31992 
L 86.275909 363.31992 
L 90.841364 365.404616 
L 91.602273 366.595869 
L 93.885 365.702432 
L 94.645909 366.893685 
L 95.406818 365.503889 
L 96.167727 366.4966 
L 96.928636 366.695143 
L 99.211364 366.298058 
L 100.733182 367.787127 
L 101.494091 366.4966 
L 102.255 364.312631 
L 104.537727 364.908258 
L 105.298636 367.588585 
L 106.059545 369.673276 
L 106.820455 369.871818 
L 107.581364 367.588585 
L 110.625 366.4966 
L 111.385909 367.390038 
L 112.146818 370.963803 
L 112.907727 370.963803 
L 115.190455 371.658703 
L 115.951364 372.155056 
L 116.712273 370.963803 
L 117.473182 370.46745 
L 118.234091 370.46745 
L 120.516818 368.482023 
L 121.277727 371.162345 
L 122.038636 369.176923 
L 122.799545 368.084938 
L 125.843182 369.176923 
L 127.365 366.893685 
L 128.125909 365.007531 
L 128.886818 365.305347 
L 131.169545 353.690615 
L 131.930455 340.686087 
L 132.691364 345.649647 
L 133.452273 344.458394 
L 134.213182 344.656931 
L 136.495909 345.649647 
L 137.256818 346.344543 
L 138.017727 346.840901 
L 138.778636 347.932885 
L 139.539545 346.046732 
L 141.822273 345.848185 
L 142.583182 346.840901 
L 143.344091 348.925596 
L 144.105 347.63507 
L 147.148636 348.429239 
L 148.670455 349.620492 
L 149.431364 351.705188 
L 150.192273 348.032154 
L 153.235909 351.010292 
L 153.996818 345.947458 
L 154.757727 346.940174 
L 155.518636 348.727054 
L 157.801364 349.024865 
L 158.562273 348.32997 
L 159.323182 346.940174 
L 160.084091 349.322681 
L 160.845 348.826323 
L 163.127727 350.911019 
L 163.888636 348.627781 
L 164.649545 342.671509 
L 165.410455 344.160573 
L 166.171364 345.153289 
L 168.454091 346.940174 
L 169.215 346.741627 
L 169.975909 348.528512 
L 171.497727 347.833612 
L 173.780455 346.642354 
L 174.541364 347.63507 
L 175.302273 346.642354 
L 176.063182 347.237985 
L 176.824091 344.259847 
L 179.106818 345.748921 
L 179.867727 343.167867 
L 180.628636 342.671509 
L 181.389545 343.564951 
L 182.150455 345.351836 
L 184.433182 345.649647 
L 185.194091 346.245269 
L 185.955 347.63507 
L 186.715909 349.620492 
L 187.476818 347.833612 
L 189.759545 346.741627 
L 190.520455 348.131428 
L 191.281364 347.535796 
L 192.042273 346.54309 
L 192.803182 346.245269 
L 195.085909 345.947458 
L 195.846818 345.550374 
L 196.607727 341.281709 
L 197.368636 341.87734 
L 198.129545 344.35912 
L 201.173182 344.259847 
L 201.934091 345.4511 
L 202.695 345.848185 
L 203.455909 347.138712 
L 205.738636 348.528512 
L 206.499545 345.252563 
L 207.260455 347.138712 
L 208.021364 347.535796 
L 208.782273 346.443816 
L 211.065 348.032154 
L 211.825909 347.63507 
L 212.586818 346.046732 
L 213.347727 348.131428 
L 214.108636 348.627781 
L 216.391364 346.245269 
L 217.152273 345.649647 
L 217.913182 346.344543 
L 218.674091 346.443816 
L 219.435 345.351836 
L 221.717727 346.642354 
L 224.000455 355.874579 
L 224.761364 355.874579 
L 227.044091 352.797172 
L 227.805 355.973853 
L 228.565909 360.540329 
L 229.326818 358.753444 
L 230.087727 365.106805 
L 232.370455 362.922836 
L 233.131364 363.121378 
L 233.892273 362.922836 
L 234.653182 364.01482 
L 235.414091 364.511173 
L 237.696818 365.603158 
L 238.457727 368.084938 
L 239.218636 367.489312 
L 239.979545 369.375465 
L 240.740455 370.268908 
L 243.023182 371.460161 
L 243.784091 370.169634 
L 244.545 371.063077 
L 245.305909 370.46745 
L 248.349545 370.765261 
L 249.110455 372.452872 
L 249.871364 373.445583 
L 250.632273 376.225179 
L 251.393182 376.324448 
L 253.675909 375.232468 
L 254.436818 375.033926 
L 255.197727 375.927364 
L 255.958636 376.423721 
L 256.719545 374.835379 
L 259.002273 375.927364 
L 260.524091 375.232468 
L 261.285 373.544857 
L 262.045909 374.438294 
L 264.328636 375.43101 
L 265.089545 374.636837 
L 266.611364 375.629553 
L 267.372273 375.728821 
L 269.655 373.445583 
L 270.415909 369.375465 
L 271.937727 371.757972 
L 274.981364 371.162345 
L 275.742273 368.779839 
L 276.503182 366.000243 
L 277.264091 367.191496 
L 278.025 367.092227 
L 280.307727 365.702432 
L 281.068636 365.007531 
L 281.829545 365.404616 
L 282.590455 365.603158 
L 283.351364 364.312631 
L 285.634091 365.503889 
L 286.395 363.816278 
L 287.155909 363.419194 
L 287.916818 362.525751 
L 290.960455 361.731582 
L 291.721364 360.937413 
L 293.243182 363.915547 
L 294.004091 364.511173 
L 296.286818 364.411905 
L 297.047727 365.702432 
L 297.808636 364.908258 
L 299.330455 364.213362 
L 301.613182 365.206074 
L 303.135 365.305347 
L 303.895909 363.717005 
L 304.656818 364.808989 
L 306.939545 366.695143 
L 307.700455 366.198785 
L 308.461364 365.503889 
L 309.983182 365.503889 
L 312.265909 363.915547 
L 313.026818 365.007531 
L 313.787727 364.213362 
L 314.548636 364.114089 
L 315.309545 364.908258 
L 317.592273 368.283481 
L 318.353182 368.581296 
L 319.114091 369.474734 
L 319.875 369.375465 
L 320.635909 369.871818 
L 322.918636 371.757972 
L 323.679545 372.94923 
L 324.440455 373.842668 
L 325.201364 374.438294 
L 325.962273 374.04121 
L 329.766818 371.857245 
L 330.527727 372.94923 
L 331.288636 372.849957 
L 335.854091 370.566719 
L 336.615 370.665992 
L 338.897727 371.658703 
L 339.658636 371.857245 
L 340.419545 371.55943 
L 341.180455 372.353599 
L 341.941364 371.956514 
L 344.224091 370.268908 
L 344.985 370.268908 
L 345.745909 370.963803 
L 346.506818 369.673276 
L 347.267727 367.191496 
L 349.550455 367.191496 
L 350.311364 370.46745 
L 351.072273 370.268908 
L 351.833182 368.779839 
L 354.876818 369.474734 
L 355.637727 368.382754 
L 356.398636 365.007531 
L 357.159545 366.695143 
L 357.920455 363.518462 
L 360.203182 361.53304 
L 360.964091 360.639598 
L 361.725 364.908258 
L 362.485909 367.191496 
L 363.246818 368.184212 
L 365.529545 370.368176 
L 366.290455 371.658703 
L 367.051364 371.360888 
L 367.812273 371.658703 
L 368.573182 369.474734 
L 370.855909 370.963803 
L 371.616818 370.665992 
L 372.377727 371.261619 
L 373.138636 371.658703 
L 373.899545 372.651414 
L 376.182273 372.552146 
L 376.943182 372.94923 
L 377.704091 373.644126 
L 378.465 372.452872 
L 379.225909 371.55943 
L 383.791364 370.864534 
L 384.552273 371.162345 
L 386.835 371.162345 
L 387.595909 367.588585 
L 388.356818 368.382754 
L 389.117727 368.382754 
L 389.878636 367.489312 
L 392.161364 365.106805 
L 392.922273 366.298058 
L 393.683182 366.4966 
L 394.444091 368.084938 
L 395.205 370.268908 
L 397.487727 369.077649 
L 398.248636 367.787127 
L 399.009545 370.169634 
L 399.770455 367.687854 
L 400.531364 367.687854 
L 402.814091 366.992954 
L 403.575 368.382754 
L 404.335909 368.482023 
L 405.096818 365.206074 
L 405.857727 360.937413 
L 408.140455 359.547613 
L 408.901364 359.845429 
L 409.662273 359.547613 
L 410.423182 360.341787 
L 411.184091 362.426478 
L 413.466818 360.143244 
L 414.227727 355.179684 
L 414.988636 356.470206 
L 415.749545 358.257091 
L 418.793182 357.264375 
L 419.554091 352.400088 
L 420.315 356.768022 
L 421.075909 353.094988 
L 421.836818 355.576768 
L 424.119545 355.576768 
L 424.880455 354.38551 
L 426.402273 355.973853 
L 427.163182 356.470206 
L 429.445909 357.562191 
L 430.206818 359.349071 
L 430.967727 360.043971 
L 431.728636 362.525751 
L 432.489545 363.816278 
L 434.772273 364.312631 
L 435.533182 362.625025 
L 436.294091 364.01482 
L 437.055 359.05126 
L 437.815909 360.043971 
L 440.098636 355.775311 
L 440.859545 357.165106 
L 441.620455 359.249802 
L 442.381364 359.646886 
L 443.142273 357.462917 
L 445.425 356.768022 
L 446.946818 359.746155 
L 447.707727 359.746155 
L 448.468636 359.249802 
L 450.751364 362.128667 
L 451.512273 359.845429 
L 452.273182 361.632309 
L 453.034091 361.632309 
L 453.795 361.930124 
L 456.077727 361.830851 
L 456.838636 362.327209 
L 457.599545 362.426478 
L 458.360455 359.547613 
L 459.121364 360.441055 
L 461.404091 360.341787 
L 462.165 361.433766 
L 462.925909 362.327209 
L 464.447727 362.029393 
L 466.730455 361.334498 
L 467.491364 362.227935 
L 468.252273 362.724293 
L 469.013182 364.01482 
L 469.774091 364.610447 
L 472.056818 362.724293 
L 472.817727 363.022109 
L 473.578636 362.625025 
L 474.339545 361.036682 
L 475.100455 360.540329 
L 477.383182 360.738871 
L 478.905 358.753444 
L 479.665909 359.646886 
L 480.426818 359.646886 
L 482.709545 361.036682 
L 483.470455 362.525751 
L 484.231364 361.830851 
L 484.992273 362.128667 
L 485.753182 363.022109 
L 488.035909 363.915547 
L 488.796818 363.31992 
L 489.557727 362.525751 
L 491.079545 361.632309 
L 493.362273 361.830851 
L 494.123182 360.639598 
L 494.884091 361.235224 
L 495.645 360.639598 
L 496.405909 359.448344 
L 498.688636 358.753444 
L 499.449545 353.690615 
L 500.210455 352.499357 
L 500.971364 350.81175 
L 501.732273 349.620492 
L 504.015 346.840901 
L 504.775909 348.627781 
L 505.536818 349.42195 
L 506.297727 349.918308 
L 509.341364 351.109561 
L 510.102273 351.208834 
L 510.863182 349.024865 
L 511.624091 345.848185 
L 512.385 347.833612 
L 514.667727 349.620492 
L 515.428636 350.712477 
L 516.189545 350.911019 
L 516.950455 345.748921 
L 517.711364 344.160573 
L 519.994091 344.259847 
L 520.755 342.671509 
L 521.515909 342.472962 
L 522.276818 341.976614 
L 523.037727 341.976614 
L 525.320455 338.700664 
L 526.081364 338.700664 
L 526.842273 338.00576 
L 527.603182 337.608675 
L 528.364091 331.850946 
L 531.407727 328.574996 
L 532.168636 329.170628 
L 532.929545 322.519456 
L 533.690455 317.853707 
L 535.973182 317.456622 
L 536.734091 314.478484 
L 537.495 315.371926 
L 538.255909 318.449338 
L 539.016818 317.95298 
L 541.299545 317.65516 
L 542.060455 311.401082 
L 542.821364 311.301808 
L 543.582273 311.698893 
L 544.343182 309.217112 
L 546.625909 309.514923 
L 547.386818 313.187957 
L 548.147727 312.989419 
L 548.908636 313.386504 
L 549.669545 311.301808 
L 551.952273 312.790873 
L 552.713182 313.585041 
L 553.474091 313.585041 
L 554.235 312.195251 
L 554.995909 311.401082 
L 557.278636 312.393788 
L 558.039545 309.316386 
L 558.800455 312.989419 
L 559.561364 315.371926 
L 560.322273 314.081399 
L 562.605 316.761727 
L 563.365909 316.860991 
L 564.126818 317.456622 
L 564.887727 320.335487 
L 565.648636 319.442044 
L 567.931364 318.151518 
L 568.692273 318.647875 
L 569.453182 318.846422 
L 570.214091 314.478484 
L 570.975 317.357349 
L 573.257727 315.4712 
L 574.018636 319.938402 
L 574.779545 321.129656 
L 575.540455 323.412898 
L 578.584091 317.65516 
L 579.345 314.974842 
L 580.866818 319.342771 
L 581.627727 320.931118 
L 583.910455 315.272653 
L 584.671364 320.43476 
L 586.193182 319.938402 
L 586.954091 320.831845 
L 589.236818 319.342771 
L 589.997727 315.173379 
L 590.758636 318.052253 
L 591.519545 317.158811 
L 592.280455 316.860991 
L 594.563182 319.144233 
L 595.324091 315.967558 
L 596.085 316.860991 
L 596.845909 318.151518 
L 597.606818 318.747149 
L 599.889545 319.144233 
L 600.650455 320.831845 
L 601.411364 325.299047 
L 602.172273 330.560419 
L 602.933182 332.843662 
L 605.215909 333.737104 
L 607.498636 330.858239 
L 610.542273 328.177912 
L 612.825 327.185196 
L 613.585909 325.001236 
L 615.868636 326.887385 
L 616.629545 323.809983 
L 618.151364 318.747149 
L 618.912273 320.335487 
L 621.195 317.357349 
L 621.955909 314.279946 
L 622.716818 308.820028 
L 623.477727 306.93387 
L 624.238636 306.93387 
L 626.521364 305.246258 
L 627.282273 304.452089 
L 628.043182 306.93387 
L 628.804091 306.536785 
L 629.565 306.93387 
L 631.847727 315.669737 
L 632.608636 312.195251 
L 633.369545 316.860991 
L 634.130455 319.640591 
L 634.891364 318.151518 
L 637.174091 315.371926 
L 637.935 314.875568 
L 638.695909 311.599619 
L 639.456818 313.485777 
L 640.217727 316.960264 
L 642.500455 324.604152 
L 643.261364 318.747149 
L 644.022273 320.037676 
L 644.783182 314.875568 
L 645.544091 311.401082 
L 647.826818 302.565941 
L 648.587727 293.432988 
L 649.348636 290.554124 
L 650.109545 290.355577 
L 650.870455 288.171617 
L 655.435909 307.430228 
L 656.196818 307.23169 
L 658.479545 298.99218 
L 659.240455 304.948447 
L 660.001364 300.679792 
L 660.762273 309.614197 
L 661.523182 315.272653 
L 663.805909 341.976614 
L 664.566818 328.574996 
L 665.327727 336.218884 
L 666.088636 354.186968 
L 666.088636 354.186968 
" style="fill:none;stroke:#ff7f0e;stroke-linecap:square;stroke-width:1.5;"/>
   </g>
   <g id="line2d_21">
    <path clip-path="url(#pb19b6613e3)" d="M 57.361364 57.068233 
L 58.122273 59.74856 
L 58.883182 55.777696 
L 59.644091 37.511792 
L 62.687727 31.45628 
L 63.448636 39.000875 
L 64.209545 36.320548 
L 64.970455 34.335116 
L 67.253182 34.632956 
L 68.014091 32.945326 
L 68.775 38.206726 
L 69.535909 52.402474 
L 70.296818 54.884254 
L 72.579545 61.138351 
L 73.340455 72.058207 
L 74.101364 65.605563 
L 74.862273 65.605563 
L 75.623182 59.649305 
L 77.905909 58.755863 
L 78.666818 64.71212 
L 79.427727 76.128325 
L 80.188636 67.690249 
L 80.949545 79.007161 
L 83.232273 94.890577 
L 83.993182 97.471612 
L 84.754091 103.725709 
L 85.515 116.531685 
L 86.275909 125.763911 
L 90.841364 124.274847 
L 91.602273 132.216536 
L 93.885 130.528924 
L 94.645909 131.223839 
L 95.406818 126.756627 
L 96.167727 119.509833 
L 96.928636 145.121805 
L 99.211364 143.136373 
L 99.972273 142.640024 
L 100.733182 130.032576 
L 101.494091 127.749343 
L 102.255 120.899624 
L 104.537727 181.355792 
L 105.298636 187.411342 
L 106.059545 177.285674 
L 106.820455 178.576192 
L 107.581364 163.387709 
L 109.864091 159.813939 
L 110.625 159.317591 
L 111.385909 164.876773 
L 112.146818 176.193685 
L 112.907727 178.874012 
L 115.190455 178.874012 
L 115.951364 183.837573 
L 116.712273 186.021533 
L 117.473182 183.639026 
L 118.234091 190.091651 
L 120.516818 196.445021 
L 121.277727 196.643568 
L 122.038636 207.067037 
L 122.799545 200.415866 
L 125.843182 199.522423 
L 126.604091 197.23919 
L 127.365 198.132632 
L 128.125909 208.159027 
L 128.886818 205.081606 
L 131.169545 215.008727 
L 131.930455 214.512378 
L 132.691364 203.294721 
L 133.452273 201.607128 
L 134.213182 211.931324 
L 136.495909 218.383949 
L 137.256818 218.185402 
L 138.017727 198.33116 
L 139.539545 175.200969 
L 141.822273 175.598063 
L 142.583182 170.435956 
L 143.344091 170.733776 
L 144.105 169.244712 
L 144.865909 171.726492 
L 147.148636 180.859444 
L 148.670455 182.844857 
L 149.431364 185.823004 
L 150.192273 184.830289 
L 152.475 187.808417 
L 153.235909 189.992396 
L 153.996818 185.227364 
L 154.757727 188.801133 
L 155.518636 189.793849 
L 157.801364 182.149961 
L 158.562273 189.297482 
L 159.323182 195.154485 
L 160.084091 208.655375 
L 160.845 212.129871 
L 163.127727 212.328418 
L 163.888636 207.364858 
L 164.649545 214.413105 
L 165.410455 200.812941 
L 166.171364 205.776501 
L 168.454091 208.655375 
L 169.215 216.597065 
L 169.975909 214.413105 
L 171.497727 194.856683 
L 173.780455 184.929562 
L 174.541364 183.142677 
L 175.302273 190.389471 
L 176.063182 196.345747 
L 176.824091 213.618936 
L 179.106818 213.519662 
L 180.628636 226.524186 
L 181.389545 219.873014 
L 182.150455 225.630743 
L 184.433182 228.509617 
L 185.194091 227.715448 
L 186.715909 237.344749 
L 187.476818 233.969526 
L 189.759545 240.719972 
L 190.520455 243.400299 
L 191.281364 246.676248 
L 192.042273 249.257302 
L 192.803182 248.363859 
L 195.085909 226.424931 
L 195.846818 224.340226 
L 196.607727 221.560625 
L 197.368636 214.115284 
L 198.129545 200.713686 
L 201.173182 198.033359 
L 201.934091 200.515139 
L 202.695 197.23919 
L 203.455909 200.912214 
L 205.738636 202.699099 
L 206.499545 195.750126 
L 207.260455 196.742822 
L 208.021364 194.955957 
L 208.782273 192.474176 
L 211.065 192.771978 
L 211.825909 192.176356 
L 212.586818 192.970525 
L 213.347727 198.926801 
L 214.108636 199.820244 
L 216.391364 199.919517 
L 217.152273 202.20275 
L 217.913182 201.90493 
L 218.674091 203.294721 
L 219.435 195.84938 
L 221.717727 195.253758 
L 222.478636 200.316592 
L 223.239545 203.393994 
L 224.000455 210.243713 
L 224.761364 224.141679 
L 227.044091 226.524186 
L 227.805 226.524186 
L 228.565909 229.40306 
L 229.326818 225.730017 
L 230.087727 227.2191 
L 232.370455 227.616175 
L 233.131364 232.281915 
L 233.892273 230.197229 
L 234.653182 234.465894 
L 235.414091 234.465894 
L 237.696818 229.105239 
L 238.457727 230.197229 
L 239.218636 226.226384 
L 239.979545 231.090671 
L 240.740455 227.2191 
L 243.023182 224.538773 
L 243.784091 218.284676 
L 244.545 216.100716 
L 245.305909 213.420389 
L 248.349545 212.129871 
L 249.110455 212.328418 
L 249.871364 220.071561 
L 250.632273 222.454067 
L 251.393182 223.64533 
L 253.675909 210.14444 
L 254.436818 208.258281 
L 255.197727 211.037882 
L 255.958636 212.62622 
L 256.719545 209.350271 
L 259.002273 215.802896 
L 259.763182 217.490507 
L 260.524091 206.570689 
L 261.285 207.265584 
L 262.045909 208.953196 
L 264.328636 209.945893 
L 265.089545 206.669943 
L 265.850455 204.684531 
L 266.611364 210.342987 
L 267.372273 203.791088 
L 269.655 203.989635 
L 270.415909 212.129871 
L 271.176818 223.148963 
L 271.937727 224.141679 
L 274.981364 227.020553 
L 275.742273 224.73732 
L 276.503182 223.64533 
L 277.264091 226.424931 
L 278.025 224.836574 
L 280.307727 222.354794 
L 281.068636 223.148963 
L 281.829545 227.2191 
L 282.590455 227.020553 
L 283.351364 223.744604 
L 285.634091 226.424931 
L 286.395 216.894885 
L 287.155909 209.648091 
L 287.916818 206.570689 
L 290.960455 208.456828 
L 291.721364 208.655375 
L 292.482273 206.272869 
L 293.243182 218.582496 
L 294.004091 222.851161 
L 297.047727 230.792851 
L 297.808636 227.616175 
L 299.330455 225.531489 
L 301.613182 226.921279 
L 303.135 217.093432 
L 303.895909 203.691815 
L 304.656818 212.229145 
L 306.939545 210.640807 
L 307.700455 208.059753 
L 308.461364 207.861206 
L 309.222273 203.691815 
L 309.983182 206.967764 
L 312.265909 203.195466 
L 313.026818 204.684531 
L 313.787727 195.253758 
L 315.309545 200.713686 
L 317.592273 211.236429 
L 318.353182 213.618936 
L 319.114091 206.769217 
L 319.875 201.90493 
L 320.635909 198.728254 
L 322.918636 198.728254 
L 323.679545 195.750126 
L 324.440455 201.210035 
L 325.201364 203.691815 
L 325.962273 207.96048 
L 329.766818 209.648091 
L 330.527727 212.328418 
L 331.288636 209.350271 
L 335.093182 204.883078 
L 335.854091 213.718209 
L 336.615 214.115284 
L 338.897727 212.725493 
L 339.658636 199.42315 
L 340.419545 193.268345 
L 341.180455 194.261042 
L 341.941364 199.224603 
L 344.224091 202.004203 
L 345.745909 206.471415 
L 346.506818 192.176356 
L 347.267727 188.304785 
L 349.550455 183.936846 
L 350.311364 196.147201 
L 351.833182 186.914975 
L 354.876818 184.333921 
L 355.637727 190.290198 
L 356.398636 191.977809 
L 357.159545 193.3676 
L 357.920455 189.893123 
L 360.203182 191.779262 
L 360.964091 175.697337 
L 361.725 187.014248 
L 362.485909 196.643568 
L 363.246818 193.764694 
L 365.529545 197.536991 
L 366.290455 195.750126 
L 367.051364 203.195466 
L 367.812273 200.515139 
L 368.573182 202.103477 
L 370.855909 206.074322 
L 371.616818 207.067037 
L 372.377727 202.103477 
L 373.138636 207.96048 
L 373.899545 205.776501 
L 376.182273 206.272869 
L 376.943182 209.846638 
L 377.704091 212.62622 
L 378.465 222.851161 
L 379.225909 223.34751 
L 383.791364 233.572451 
L 384.552273 229.899408 
L 386.835 225.233668 
L 387.595909 228.013269 
L 388.356818 225.531489 
L 389.117727 221.064277 
L 389.878636 206.471415 
L 392.161364 195.84938 
L 392.922273 198.132632 
L 393.683182 199.224603 
L 394.444091 201.706383 
L 395.205 206.669943 
L 397.487727 210.14444 
L 398.248636 205.280153 
L 399.009545 209.250997 
L 399.770455 202.699099 
L 400.531364 202.20275 
L 402.814091 198.728254 
L 403.575 199.224603 
L 404.335909 198.728254 
L 405.096818 193.169072 
L 405.857727 190.588018 
L 408.140455 188.006964 
L 408.901364 184.135393 
L 409.662273 179.072559 
L 410.423182 176.88858 
L 411.184091 172.619934 
L 413.466818 168.450543 
L 414.227727 152.269325 
L 414.988636 146.809416 
L 415.749545 152.96422 
L 418.793182 149.092649 
L 419.554091 130.032576 
L 420.315 131.025292 
L 421.075909 122.090887 
L 421.836818 124.274847 
L 424.119545 124.473394 
L 424.880455 118.814938 
L 426.402273 121.693793 
L 427.163182 122.090887 
L 429.445909 118.814938 
L 430.206818 118.814938 
L 430.967727 125.366836 
L 431.728636 121.991613 
L 432.489545 130.42967 
L 434.772273 129.436954 
L 435.533182 116.730232 
L 436.294091 114.049905 
L 437.055 108.68927 
L 437.815909 112.858661 
L 440.098636 111.17105 
L 440.859545 128.841313 
L 441.620455 123.381404 
L 442.381364 120.304002 
L 443.142273 110.873229 
L 445.425 114.347726 
L 446.185909 125.267562 
L 446.946818 141.845855 
L 447.707727 139.066255 
L 448.468636 152.070778 
L 450.751364 153.063494 
L 451.512273 148.497027 
L 452.273182 158.027054 
L 453.034091 154.949652 
L 453.795 167.358553 
L 456.077727 157.034338 
L 456.838636 159.01977 
L 457.599545 159.01977 
L 458.360455 143.434193 
L 459.121364 138.172812 
L 461.404091 142.143657 
L 462.165 147.107217 
L 462.925909 143.136373 
L 464.447727 142.540751 
L 466.730455 140.257517 
L 467.491364 141.647308 
L 468.252273 143.930542 
L 469.013182 138.172812 
L 469.774091 134.003421 
L 472.056818 108.589977 
L 472.817727 97.471612 
L 473.578636 89.529923 
L 474.339545 87.24669 
L 475.100455 87.544491 
L 477.383182 85.856899 
L 478.905 79.801349 
L 479.665909 90.224818 
L 480.426818 93.997135 
L 482.709545 94.989832 
L 483.470455 102.236626 
L 484.231364 100.151939 
L 484.992273 99.854138 
L 485.753182 94.989832 
L 488.035909 84.070014 
L 488.796818 92.011703 
L 489.557727 88.934282 
L 490.318636 95.982567 
L 491.079545 89.529923 
L 493.362273 92.508052 
L 494.123182 93.0044 
L 494.884091 95.386926 
L 495.645 88.04084 
L 496.405909 88.537226 
L 498.688636 92.905146 
L 499.449545 83.970722 
L 500.210455 83.474373 
L 501.732273 48.233101 
L 504.015 43.567342 
L 504.775909 39.894318 
L 505.536818 49.821439 
L 506.297727 48.233101 
L 507.058636 44.162983 
L 509.341364 47.240404 
L 510.102273 50.913428 
L 510.863182 46.247669 
L 511.624091 34.335116 
L 512.385 43.964436 
L 514.667727 51.012683 
L 515.428636 49.722184 
L 516.189545 39.000875 
L 516.950455 41.184854 
L 517.711364 48.431648 
L 519.994091 45.751321 
L 520.755 52.601021 
L 522.276818 49.225798 
L 523.037727 55.976243 
L 525.320455 60.244908 
L 526.081364 50.814136 
L 526.842273 45.354227 
L 527.603182 49.523637 
L 528.364091 49.821439 
L 530.646818 48.828742 
L 531.407727 48.233101 
L 532.168636 45.949868 
L 532.929545 52.601021 
L 533.690455 45.15568 
L 535.973182 42.376098 
L 536.734091 31.555535 
L 537.495 25.003636 
L 538.255909 30.761385 
L 539.016818 42.872447 
L 541.299545 47.836007 
L 542.060455 49.920693 
L 542.821364 54.387906 
L 543.582273 64.612866 
L 544.343182 55.976243 
L 546.625909 62.329595 
L 547.386818 57.663874 
L 548.147727 63.719423 
L 549.669545 58.755863 
L 551.952273 65.903364 
L 552.713182 69.774936 
L 553.474091 66.896099 
L 554.235 70.370576 
L 554.995909 68.186598 
L 557.278636 52.303219 
L 558.039545 54.487198 
L 558.800455 61.733992 
L 559.561364 57.663874 
L 560.322273 64.017225 
L 562.605 73.646545 
L 563.365909 72.65381 
L 564.126818 73.050904 
L 564.887727 74.539987 
L 565.648636 77.61737 
L 567.931364 66.697552 
L 568.692273 64.017225 
L 569.453182 74.440695 
L 570.214091 70.072775 
L 570.975 85.062711 
L 573.257727 82.87877 
L 574.018636 97.471612 
L 574.779545 100.549033 
L 575.540455 99.854138 
L 578.584091 96.677462 
L 579.345 93.897843 
L 580.866818 92.706599 
L 581.627727 88.636481 
L 584.671364 61.733992 
L 585.432273 63.520877 
L 586.193182 67.690249 
L 586.954091 63.719423 
L 589.236818 65.506308 
L 589.997727 71.661113 
L 590.758636 65.704817 
L 591.519545 66.697552 
L 592.280455 60.741257 
L 594.563182 61.237643 
L 595.324091 61.733992 
L 596.085 70.866925 
L 596.845909 74.539987 
L 597.606818 90.026271 
L 599.889545 82.183837 
L 600.650455 93.202947 
L 601.411364 86.253955 
L 602.172273 85.856899 
L 602.933182 81.488941 
L 605.215909 84.268561 
L 607.498636 77.815917 
L 608.259545 77.220276 
L 610.542273 77.61737 
L 612.825 70.866925 
L 613.585909 70.271322 
L 615.868636 73.944346 
L 616.629545 78.014464 
L 617.390455 64.612866 
L 618.151364 61.336898 
L 618.912273 66.300458 
L 621.195 62.726689 
L 621.955909 64.215772 
L 622.716818 65.009922 
L 623.477727 70.966217 
L 624.238636 72.157461 
L 626.521364 69.179332 
L 627.282273 75.334137 
L 628.043182 73.646545 
L 628.804091 81.19114 
L 629.565 91.217515 
L 631.847727 111.568125 
L 632.608636 115.737516 
L 633.369545 118.31857 
L 634.130455 123.282131 
L 634.891364 123.778498 
L 637.174091 113.65283 
L 637.935 107.59728 
L 638.695909 108.68927 
L 639.456818 110.873229 
L 640.217727 113.950632 
L 642.500455 120.899624 
L 643.261364 120.304002 
L 644.022273 116.829506 
L 644.783182 116.035337 
L 645.544091 120.304002 
L 647.826818 119.311286 
L 648.587727 120.80035 
L 649.348636 117.722948 
L 650.109545 122.487962 
L 650.870455 125.664637 
L 656.196818 158.622676 
L 658.479545 147.107217 
L 659.240455 167.457827 
L 660.001364 162.394993 
L 660.762273 172.917736 
L 661.523182 197.636265 
L 663.805909 228.509617 
L 664.566818 220.170834 
L 665.327727 243.400299 
L 666.088636 275.663442 
L 666.088636 275.663442 
" style="fill:none;stroke:#2ca02c;stroke-linecap:square;stroke-width:1.5;"/>
   </g>
   <g id="line2d_22">
    <path clip-path="url(#pb19b6613e3)" d="M 57.361364 320.75143 
L 58.122273 321.532695 
L 58.883182 321.922831 
L 59.644091 320.75143 
L 61.926818 324.362917 
L 62.687727 324.558482 
L 64.209545 324.558482 
L 64.970455 326.511148 
L 67.253182 326.511148 
L 68.014091 326.705718 
L 68.775 328.560701 
L 69.535909 329.439157 
L 70.296818 328.560701 
L 72.579545 328.463018 
L 74.101364 331.391425 
L 74.862273 331.391425 
L 75.623182 332.269975 
L 77.905909 332.172387 
L 78.666818 332.269975 
L 79.427727 333.050843 
L 80.188636 331.684275 
L 80.949545 331.586687 
L 83.232273 331.684275 
L 83.993182 334.319822 
L 85.515 337.83392 
L 86.275909 338.126675 
L 90.841364 334.41741 
L 91.602273 335.198372 
L 93.885 334.710261 
L 94.645909 336.56494 
L 95.406818 336.27209 
L 96.167727 337.345808 
L 96.928636 335.68639 
L 99.211364 337.150641 
L 99.972273 337.150641 
L 100.733182 338.419525 
L 101.494091 338.224358 
L 102.255 335.881652 
L 104.537727 336.27209 
L 105.298636 342.128894 
L 106.059545 343.300191 
L 106.820455 342.519323 
L 107.581364 340.957494 
L 109.864091 343.885891 
L 110.625 341.738361 
L 111.385909 343.593041 
L 112.146818 345.057197 
L 112.907727 345.057197 
L 115.190455 345.838159 
L 115.951364 347.009465 
L 116.712273 348.473711 
L 117.473182 346.814298 
L 118.234091 348.473711 
L 120.516818 348.376028 
L 121.277727 348.961728 
L 122.038636 351.89013 
L 122.799545 353.159114 
L 125.843182 354.330416 
L 126.604091 348.376028 
L 127.365 349.254578 
L 128.125909 344.764347 
L 128.886818 348.864145 
L 131.930455 344.373908 
L 132.691364 346.326176 
L 134.213182 346.814298 
L 136.495909 347.790427 
L 137.256818 348.961728 
L 138.017727 349.449845 
L 138.778636 349.254578 
L 139.539545 347.692744 
L 141.822273 348.083277 
L 142.583182 346.033326 
L 143.344091 346.326176 
L 144.105 347.497577 
L 144.865909 347.009465 
L 147.148636 347.009465 
L 148.670455 348.961728 
L 149.431364 351.59728 
L 150.192273 351.499697 
L 152.475 349.449845 
L 153.235909 350.913996 
L 153.996818 350.328296 
L 154.757727 354.330416 
L 155.518636 356.7708 
L 157.801364 357.746934 
L 158.562273 358.332535 
L 159.323182 357.746934 
L 160.084091 358.137368 
L 160.845 359.113502 
L 163.127727 359.211086 
L 163.888636 355.794666 
L 164.649545 357.649251 
L 165.410455 356.282684 
L 166.171364 351.694963 
L 168.454091 353.744815 
L 169.975909 357.942101 
L 171.497727 356.282684 
L 173.780455 352.378247 
L 174.541364 348.961728 
L 175.302273 349.059411 
L 176.063182 352.866264 
L 176.824091 350.913996 
L 179.106818 353.061531 
L 179.867727 354.818532 
L 180.628636 358.820652 
L 181.389545 358.820652 
L 182.150455 361.944221 
L 185.194091 364.482189 
L 185.955 362.529921 
L 186.715909 363.896489 
L 187.476818 359.991953 
L 189.759545 361.651371 
L 191.281364 363.603639 
L 192.042273 365.263057 
L 192.803182 365.848757 
L 195.085909 364.189339 
L 195.846818 359.308669 
L 196.607727 359.211086 
L 197.368636 356.7708 
L 198.129545 357.551668 
L 201.173182 356.965967 
L 201.934091 357.258818 
L 202.695 358.723068 
L 203.455909 360.968087 
L 205.738636 360.675336 
L 206.499545 360.18722 
L 207.260455 361.651371 
L 208.782273 358.527802 
L 211.065 358.430218 
L 211.825909 358.137368 
L 212.586818 356.7708 
L 213.347727 355.989833 
L 214.108636 354.818532 
L 216.391364 356.282684 
L 217.152273 353.451965 
L 217.913182 353.744815 
L 218.674091 354.916116 
L 219.435 355.30655 
L 221.717727 354.330416 
L 222.478636 356.673217 
L 223.239545 361.944221 
L 224.000455 364.091756 
L 224.761364 364.091756 
L 227.044091 362.432338 
L 227.805 363.603639 
L 228.565909 365.946341 
L 229.326818 367.605759 
L 230.087727 367.605759 
L 232.370455 368.289142 
L 233.131364 363.018038 
L 233.892273 364.872623 
L 234.653182 367.605759 
L 235.414091 367.996292 
L 237.696818 368.289142 
L 238.457727 367.313008 
L 239.218636 366.824891 
L 239.979545 368.679576 
L 240.740455 370.241405 
L 243.023182 372.291257 
L 243.784091 371.998407 
L 244.545 372.584107 
L 245.305909 372.09599 
L 248.349545 369.558027 
L 249.110455 370.729423 
L 249.871364 375.121976 
L 250.632273 378.147962 
L 251.393182 379.221779 
L 253.675909 379.319362 
L 254.436818 378.831245 
L 255.197727 379.807379 
L 255.958636 381.076364 
L 256.719545 379.319362 
L 259.002273 379.221779 
L 259.763182 379.319362 
L 260.524091 379.221779 
L 261.285 378.440812 
L 262.045909 378.147962 
L 264.328636 379.709796 
L 265.089545 378.636078 
L 265.850455 377.952794 
L 266.611364 378.147962 
L 267.372273 378.636078 
L 269.655 375.610093 
L 270.415909 373.364974 
L 271.176818 376.09811 
L 271.937727 376.09811 
L 274.981364 377.269511 
L 275.742273 375.610093 
L 276.503182 375.219659 
L 277.264091 376.68381 
L 278.025 376.879077 
L 280.307727 377.171828 
L 281.068636 376.879077 
L 281.829545 377.171828 
L 283.351364 376.879077 
L 285.634091 378.733662 
L 286.395 377.562361 
L 287.155909 373.462558 
L 287.916818 373.072124 
L 290.960455 372.38884 
L 291.721364 373.364974 
L 292.482273 373.560241 
L 293.243182 373.560241 
L 294.004091 373.169708 
L 296.286818 372.876858 
L 297.047727 372.38884 
L 297.808636 370.729423 
L 299.330455 369.460443 
L 301.613182 370.241405 
L 303.135 371.80314 
L 303.895909 371.315123 
L 304.656818 373.364974 
L 306.939545 375.024392 
L 307.700455 374.243525 
L 308.461364 374.048258 
L 309.222273 373.072124 
L 309.983182 373.267391 
L 312.265909 372.779274 
L 313.026818 374.145842 
L 313.787727 374.243525 
L 315.309545 373.560241 
L 317.592273 374.633959 
L 318.353182 375.902943 
L 319.114091 376.000526 
L 319.875 376.879077 
L 320.635909 376.879077 
L 323.679545 378.050378 
L 325.201364 378.928928 
L 325.962273 378.538495 
L 330.527727 379.319362 
L 331.288636 378.343228 
L 335.093182 377.464678 
L 335.854091 376.293377 
L 336.615 374.341108 
L 338.897727 374.633959 
L 339.658636 375.219659 
L 340.419545 374.341108 
L 341.180455 373.950675 
L 341.941364 374.341108 
L 344.985 373.755408 
L 345.745909 374.048258 
L 346.506818 371.900823 
L 347.267727 371.119856 
L 349.550455 371.705557 
L 350.311364 373.462558 
L 351.072273 373.950675 
L 351.833182 372.876858 
L 354.876818 372.974541 
L 355.637727 370.924689 
L 356.398636 367.020158 
L 357.159545 367.508175 
L 357.920455 367.313008 
L 360.203182 366.922475 
L 360.964091 366.922475 
L 361.725 369.460443 
L 362.485909 371.022273 
L 363.246818 369.265177 
L 366.290455 371.315123 
L 367.051364 370.436572 
L 367.812273 368.874743 
L 368.573182 368.972426 
L 370.855909 368.093875 
L 371.616818 364.579773 
L 372.377727 366.532041 
L 373.899545 367.508175 
L 376.182273 365.06789 
L 376.943182 366.044024 
L 378.465 364.77504 
L 379.225909 364.677456 
L 383.791364 364.579773 
L 384.552273 363.896489 
L 386.835 361.163354 
L 387.595909 360.48007 
L 388.356818 360.870504 
L 389.117727 360.284803 
L 389.878636 361.456204 
L 392.161364 357.454084 
L 392.922273 357.551668 
L 393.683182 355.989833 
L 394.444091 357.161234 
L 395.205 359.211086 
L 397.487727 359.796786 
L 398.248636 357.746934 
L 399.009545 360.48007 
L 399.770455 358.820652 
L 400.531364 358.430218 
L 402.814091 357.844518 
L 403.575 356.575534 
L 404.335909 357.746934 
L 405.096818 357.161234 
L 405.857727 354.037665 
L 408.140455 354.135248 
L 408.901364 354.330416 
L 409.662273 353.842398 
L 410.423182 354.037665 
L 411.184091 357.161234 
L 413.466818 357.649251 
L 414.227727 355.697083 
L 414.988636 355.794666 
L 415.749545 356.7708 
L 418.793182 355.404233 
L 419.554091 349.059411 
L 420.315 349.449845 
L 421.075909 347.399894 
L 421.836818 349.645012 
L 426.402273 342.616912 
L 427.163182 341.445511 
L 429.445909 340.469476 
L 430.206818 342.128894 
L 430.967727 342.031211 
L 431.728636 342.616912 
L 434.772273 351.402113 
L 435.533182 347.985594 
L 436.294091 348.473711 
L 437.055 350.133129 
L 437.815909 350.230712 
L 440.098636 349.449845 
L 440.859545 350.523562 
L 441.620455 352.378247 
L 442.381364 349.352162 
L 443.142273 350.133129 
L 445.425 348.864145 
L 446.185909 349.937862 
L 446.946818 348.473711 
L 447.707727 349.059411 
L 448.468636 347.009465 
L 450.751364 350.425979 
L 451.512273 347.790427 
L 452.273182 348.083277 
L 453.034091 348.864145 
L 453.795 348.278444 
L 456.077727 348.376028 
L 456.838636 348.961728 
L 458.360455 348.766561 
L 459.121364 347.302315 
L 461.404091 346.326176 
L 462.165 347.009465 
L 462.925909 348.766561 
L 464.447727 349.449845 
L 467.491364 349.547428 
L 468.252273 349.254578 
L 469.013182 349.840279 
L 469.774091 349.449845 
L 472.056818 347.985594 
L 472.817727 347.009465 
L 473.578636 346.521448 
L 474.339545 345.838159 
L 475.100455 343.885891 
L 477.383182 343.788312 
L 478.905 342.226473 
L 479.665909 343.202612 
L 480.426818 345.252459 
L 482.709545 345.252459 
L 483.470455 346.326176 
L 484.231364 344.959609 
L 484.992273 344.959609 
L 485.753182 344.178741 
L 488.035909 343.495462 
L 488.796818 343.397779 
L 489.557727 343.00734 
L 490.318636 342.812173 
L 491.079545 343.885891 
L 493.362273 342.324061 
L 494.123182 341.347923 
L 494.884091 342.909762 
L 496.405909 344.178741 
L 498.688636 344.081162 
L 499.449545 340.957494 
L 500.210455 340.859905 
L 500.971364 338.419525 
L 501.732273 338.712375 
L 504.775909 342.71449 
L 505.536818 346.131009 
L 506.297727 346.619026 
L 507.058636 346.716615 
L 509.341364 346.716615 
L 510.102273 348.083277 
L 510.863182 347.790427 
L 511.624091 345.057197 
L 512.385 348.961728 
L 515.428636 347.692744 
L 516.189545 346.716615 
L 516.950455 344.178741 
L 517.711364 344.178741 
L 519.994091 347.985594 
L 520.755 350.523562 
L 521.515909 349.742695 
L 522.276818 349.352162 
L 523.037727 350.230712 
L 525.320455 346.033326 
L 526.081364 345.252459 
L 526.842273 341.933623 
L 527.603182 342.031211 
L 528.364091 341.055072 
L 530.646818 340.567055 
L 531.407727 337.638658 
L 532.168636 336.955369 
L 532.929545 337.150641 
L 533.690455 333.831805 
L 535.973182 333.538955 
L 536.734091 330.415286 
L 537.495 329.829586 
L 539.016818 330.024857 
L 541.299545 331.489004 
L 542.060455 329.927269 
L 542.821364 326.218297 
L 543.582273 325.729882 
L 544.343182 322.898666 
L 546.625909 324.070067 
L 547.386818 325.729882 
L 548.147727 326.511148 
L 548.908636 326.315583 
L 549.669545 325.632597 
L 551.952273 322.312966 
L 552.713182 323.582646 
L 553.474091 324.070067 
L 554.235 324.948617 
L 554.995909 326.511148 
L 557.278636 324.558482 
L 558.039545 322.411245 
L 559.561364 322.215681 
L 560.322273 322.508531 
L 562.605 324.851332 
L 563.365909 327.486983 
L 564.887727 326.120018 
L 565.648636 325.729882 
L 567.931364 321.72826 
L 568.692273 317.237228 
L 569.453182 314.797142 
L 570.214091 311.86865 
L 570.975 311.67407 
L 573.257727 310.307114 
L 574.018636 313.13832 
L 574.779545 312.7472 
L 575.540455 310.892814 
L 578.584091 309.038428 
L 579.345 306.597347 
L 580.866818 302.205589 
L 581.627727 303.767125 
L 583.910455 295.567321 
L 584.671364 291.858548 
L 585.432273 290.003168 
L 586.193182 282.291779 
L 586.954091 283.561459 
L 589.997727 274.28754 
L 590.758636 285.415845 
L 591.519545 279.948978 
L 592.280455 279.851693 
L 594.563182 278.192871 
L 595.324091 280.241828 
L 596.085 282.682909 
L 596.845909 287.465796 
L 597.606818 293.029949 
L 599.889545 295.567321 
L 600.650455 303.27871 
L 601.411364 300.838624 
L 602.172273 306.304497 
L 602.933182 309.135713 
L 605.215909 309.232998 
L 607.498636 303.66984 
L 608.259545 302.69301 
L 610.542273 301.717174 
L 612.825 304.352825 
L 613.585909 301.131474 
L 615.868636 301.228759 
L 616.629545 295.470036 
L 617.390455 294.005785 
L 618.151364 296.055736 
L 618.912273 296.641436 
L 621.195 284.92743 
L 621.955909 286.001546 
L 622.716818 284.101499 
L 623.477727 278.244496 
L 624.238636 279.634287 
L 626.521364 279.435749 
L 627.282273 275.961253 
L 628.043182 287.575986 
L 628.804091 285.392016 
L 629.565 297.006749 
L 631.847727 307.628775 
L 632.608636 306.437521 
L 633.369545 308.621481 
L 634.130455 313.684315 
L 634.891364 308.621481 
L 637.174091 304.849174 
L 637.935 307.529501 
L 638.695909 306.93387 
L 639.456818 308.919301 
L 640.217727 316.166095 
L 642.500455 321.030382 
L 643.261364 313.982126 
L 644.022273 311.301808 
L 644.783182 309.514923 
L 645.544091 310.011281 
L 647.826818 305.444805 
L 648.587727 302.963025 
L 649.348636 302.466667 
L 650.109545 303.856467 
L 650.870455 300.381971 
L 655.435909 311.500346 
L 656.196818 311.698893 
L 658.479545 307.132417 
L 659.240455 308.224396 
L 660.001364 305.941163 
L 661.523182 323.809983 
L 663.805909 342.274425 
L 664.566818 339.197013 
L 665.327727 343.564951 
L 666.088636 357.860006 
L 666.088636 357.860006 
" style="fill:none;stroke:#d62728;stroke-linecap:square;stroke-width:1.5;"/>
   </g>
   <g id="patch_3">
    <path d="M 26.925 398.88 
L 26.925 7.2 
" style="fill:none;stroke:#000000;stroke-linecap:square;stroke-linejoin:miter;stroke-width:0.8;"/>
   </g>
   <g id="patch_4">
    <path d="M 696.525 398.88 
L 696.525 7.2 
" style="fill:none;stroke:#000000;stroke-linecap:square;stroke-linejoin:miter;stroke-width:0.8;"/>
   </g>
   <g id="patch_5">
    <path d="M 26.925 398.88 
L 696.525 398.88 
" style="fill:none;stroke:#000000;stroke-linecap:square;stroke-linejoin:miter;stroke-width:0.8;"/>
   </g>
   <g id="patch_6">
    <path d="M 26.925 7.2 
L 696.525 7.2 
" style="fill:none;stroke:#000000;stroke-linecap:square;stroke-linejoin:miter;stroke-width:0.8;"/>
   </g>
   <g id="legend_1">
    <g id="patch_7">
     <path d="M 319.821094 73.9125 
L 403.628906 73.9125 
Q 405.628906 73.9125 405.628906 71.9125 
L 405.628906 14.2 
Q 405.628906 12.2 403.628906 12.2 
L 319.821094 12.2 
Q 317.821094 12.2 317.821094 14.2 
L 317.821094 71.9125 
Q 317.821094 73.9125 319.821094 73.9125 
z
" style="fill:#ffffff;opacity:0.8;stroke:#cccccc;stroke-linejoin:miter;"/>
    </g>
    <g id="line2d_23">
     <path d="M 321.821094 20.298437 
L 341.821094 20.298437 
" style="fill:none;stroke:#1f77b4;stroke-linecap:square;stroke-width:1.5;"/>
    </g>
    <g id="line2d_24"/>
    <g id="text_20">
     <!-- JBSS3.SA -->
     <defs>
      <path d="M 9.8125 72.90625 
L 19.671875 72.90625 
L 19.671875 5.078125 
Q 19.671875 -8.109375 14.671875 -14.0625 
Q 9.671875 -20.015625 -1.421875 -20.015625 
L -5.171875 -20.015625 
L -5.171875 -11.71875 
L -2.09375 -11.71875 
Q 4.4375 -11.71875 7.125 -8.046875 
Q 9.8125 -4.390625 9.8125 5.078125 
z
" id="DejaVuSans-74"/>
      <path d="M 19.671875 34.8125 
L 19.671875 8.109375 
L 35.5 8.109375 
Q 43.453125 8.109375 47.28125 11.40625 
Q 51.125 14.703125 51.125 21.484375 
Q 51.125 28.328125 47.28125 31.5625 
Q 43.453125 34.8125 35.5 34.8125 
z
M 19.671875 64.796875 
L 19.671875 42.828125 
L 34.28125 42.828125 
Q 41.5 42.828125 45.03125 45.53125 
Q 48.578125 48.25 48.578125 53.8125 
Q 48.578125 59.328125 45.03125 62.0625 
Q 41.5 64.796875 34.28125 64.796875 
z
M 9.8125 72.90625 
L 35.015625 72.90625 
Q 46.296875 72.90625 52.390625 68.21875 
Q 58.5 63.53125 58.5 54.890625 
Q 58.5 48.1875 55.375 44.234375 
Q 52.25 40.28125 46.1875 39.3125 
Q 53.46875 37.75 57.5 32.78125 
Q 61.53125 27.828125 61.53125 20.40625 
Q 61.53125 10.640625 54.890625 5.3125 
Q 48.25 0 35.984375 0 
L 9.8125 0 
z
" id="DejaVuSans-66"/>
      <path d="M 53.515625 70.515625 
L 53.515625 60.890625 
Q 47.90625 63.578125 42.921875 64.890625 
Q 37.9375 66.21875 33.296875 66.21875 
Q 25.25 66.21875 20.875 63.09375 
Q 16.5 59.96875 16.5 54.203125 
Q 16.5 49.359375 19.40625 46.890625 
Q 22.3125 44.4375 30.421875 42.921875 
L 36.375 41.703125 
Q 47.40625 39.59375 52.65625 34.296875 
Q 57.90625 29 57.90625 20.125 
Q 57.90625 9.515625 50.796875 4.046875 
Q 43.703125 -1.421875 29.984375 -1.421875 
Q 24.8125 -1.421875 18.96875 -0.25 
Q 13.140625 0.921875 6.890625 3.21875 
L 6.890625 13.375 
Q 12.890625 10.015625 18.65625 8.296875 
Q 24.421875 6.59375 29.984375 6.59375 
Q 38.421875 6.59375 43.015625 9.90625 
Q 47.609375 13.234375 47.609375 19.390625 
Q 47.609375 24.75 44.3125 27.78125 
Q 41.015625 30.8125 33.5 32.328125 
L 27.484375 33.5 
Q 16.453125 35.6875 11.515625 40.375 
Q 6.59375 45.0625 6.59375 53.421875 
Q 6.59375 63.09375 13.40625 68.65625 
Q 20.21875 74.21875 32.171875 74.21875 
Q 37.3125 74.21875 42.625 73.28125 
Q 47.953125 72.359375 53.515625 70.515625 
z
" id="DejaVuSans-83"/>
      <path d="M 10.6875 12.40625 
L 21 12.40625 
L 21 0 
L 10.6875 0 
z
" id="DejaVuSans-46"/>
      <path d="M 34.1875 63.1875 
L 20.796875 26.90625 
L 47.609375 26.90625 
z
M 28.609375 72.90625 
L 39.796875 72.90625 
L 67.578125 0 
L 57.328125 0 
L 50.6875 18.703125 
L 17.828125 18.703125 
L 11.1875 0 
L 0.78125 0 
z
" id="DejaVuSans-65"/>
     </defs>
     <g transform="translate(349.821094 23.798437)scale(0.1 -0.1)">
      <use xlink:href="#DejaVuSans-74"/>
      <use x="29.492188" xlink:href="#DejaVuSans-66"/>
      <use x="98.080078" xlink:href="#DejaVuSans-83"/>
      <use x="161.556641" xlink:href="#DejaVuSans-83"/>
      <use x="225.033203" xlink:href="#DejaVuSans-51"/>
      <use x="288.65625" xlink:href="#DejaVuSans-46"/>
      <use x="320.443359" xlink:href="#DejaVuSans-83"/>
      <use x="383.935547" xlink:href="#DejaVuSans-65"/>
     </g>
    </g>
    <g id="line2d_25">
     <path d="M 321.821094 34.976562 
L 341.821094 34.976562 
" style="fill:none;stroke:#ff7f0e;stroke-linecap:square;stroke-width:1.5;"/>
    </g>
    <g id="line2d_26"/>
    <g id="text_21">
     <!-- MRFG3.SA -->
     <defs>
      <path d="M 9.8125 72.90625 
L 24.515625 72.90625 
L 43.109375 23.296875 
L 61.8125 72.90625 
L 76.515625 72.90625 
L 76.515625 0 
L 66.890625 0 
L 66.890625 64.015625 
L 48.09375 14.015625 
L 38.1875 14.015625 
L 19.390625 64.015625 
L 19.390625 0 
L 9.8125 0 
z
" id="DejaVuSans-77"/>
      <path d="M 44.390625 34.1875 
Q 47.5625 33.109375 50.5625 29.59375 
Q 53.5625 26.078125 56.59375 19.921875 
L 66.609375 0 
L 56 0 
L 46.6875 18.703125 
Q 43.0625 26.03125 39.671875 28.421875 
Q 36.28125 30.8125 30.421875 30.8125 
L 19.671875 30.8125 
L 19.671875 0 
L 9.8125 0 
L 9.8125 72.90625 
L 32.078125 72.90625 
Q 44.578125 72.90625 50.734375 67.671875 
Q 56.890625 62.453125 56.890625 51.90625 
Q 56.890625 45.015625 53.6875 40.46875 
Q 50.484375 35.9375 44.390625 34.1875 
z
M 19.671875 64.796875 
L 19.671875 38.921875 
L 32.078125 38.921875 
Q 39.203125 38.921875 42.84375 42.21875 
Q 46.484375 45.515625 46.484375 51.90625 
Q 46.484375 58.296875 42.84375 61.546875 
Q 39.203125 64.796875 32.078125 64.796875 
z
" id="DejaVuSans-82"/>
      <path d="M 9.8125 72.90625 
L 51.703125 72.90625 
L 51.703125 64.59375 
L 19.671875 64.59375 
L 19.671875 43.109375 
L 48.578125 43.109375 
L 48.578125 34.8125 
L 19.671875 34.8125 
L 19.671875 0 
L 9.8125 0 
z
" id="DejaVuSans-70"/>
      <path d="M 59.515625 10.40625 
L 59.515625 29.984375 
L 43.40625 29.984375 
L 43.40625 38.09375 
L 69.28125 38.09375 
L 69.28125 6.78125 
Q 63.578125 2.734375 56.6875 0.65625 
Q 49.8125 -1.421875 42 -1.421875 
Q 24.90625 -1.421875 15.25 8.5625 
Q 5.609375 18.5625 5.609375 36.375 
Q 5.609375 54.25 15.25 64.234375 
Q 24.90625 74.21875 42 74.21875 
Q 49.125 74.21875 55.546875 72.453125 
Q 61.96875 70.703125 67.390625 67.28125 
L 67.390625 56.78125 
Q 61.921875 61.421875 55.765625 63.765625 
Q 49.609375 66.109375 42.828125 66.109375 
Q 29.4375 66.109375 22.71875 58.640625 
Q 16.015625 51.171875 16.015625 36.375 
Q 16.015625 21.625 22.71875 14.15625 
Q 29.4375 6.6875 42.828125 6.6875 
Q 48.046875 6.6875 52.140625 7.59375 
Q 56.25 8.5 59.515625 10.40625 
z
" id="DejaVuSans-71"/>
     </defs>
     <g transform="translate(349.821094 38.476562)scale(0.1 -0.1)">
      <use xlink:href="#DejaVuSans-77"/>
      <use x="86.279297" xlink:href="#DejaVuSans-82"/>
      <use x="155.761719" xlink:href="#DejaVuSans-70"/>
      <use x="213.28125" xlink:href="#DejaVuSans-71"/>
      <use x="290.771484" xlink:href="#DejaVuSans-51"/>
      <use x="354.394531" xlink:href="#DejaVuSans-46"/>
      <use x="386.181641" xlink:href="#DejaVuSans-83"/>
      <use x="449.673828" xlink:href="#DejaVuSans-65"/>
     </g>
    </g>
    <g id="line2d_27">
     <path d="M 321.821094 49.654687 
L 341.821094 49.654687 
" style="fill:none;stroke:#2ca02c;stroke-linecap:square;stroke-width:1.5;"/>
    </g>
    <g id="line2d_28"/>
    <g id="text_22">
     <!-- BRFS3.SA -->
     <g transform="translate(349.821094 53.154687)scale(0.1 -0.1)">
      <use xlink:href="#DejaVuSans-66"/>
      <use x="68.603516" xlink:href="#DejaVuSans-82"/>
      <use x="138.085938" xlink:href="#DejaVuSans-70"/>
      <use x="195.589844" xlink:href="#DejaVuSans-83"/>
      <use x="259.066406" xlink:href="#DejaVuSans-51"/>
      <use x="322.689453" xlink:href="#DejaVuSans-46"/>
      <use x="354.476562" xlink:href="#DejaVuSans-83"/>
      <use x="417.96875" xlink:href="#DejaVuSans-65"/>
     </g>
    </g>
    <g id="line2d_29">
     <path d="M 321.821094 64.332812 
L 341.821094 64.332812 
" style="fill:none;stroke:#d62728;stroke-linecap:square;stroke-width:1.5;"/>
    </g>
    <g id="line2d_30"/>
    <g id="text_23">
     <!-- BEEF3.SA -->
     <defs>
      <path d="M 9.8125 72.90625 
L 55.90625 72.90625 
L 55.90625 64.59375 
L 19.671875 64.59375 
L 19.671875 43.015625 
L 54.390625 43.015625 
L 54.390625 34.71875 
L 19.671875 34.71875 
L 19.671875 8.296875 
L 56.78125 8.296875 
L 56.78125 0 
L 9.8125 0 
z
" id="DejaVuSans-69"/>
     </defs>
     <g transform="translate(349.821094 67.832812)scale(0.1 -0.1)">
      <use xlink:href="#DejaVuSans-66"/>
      <use x="68.603516" xlink:href="#DejaVuSans-69"/>
      <use x="131.787109" xlink:href="#DejaVuSans-69"/>
      <use x="194.970703" xlink:href="#DejaVuSans-70"/>
      <use x="252.490234" xlink:href="#DejaVuSans-51"/>
      <use x="316.113281" xlink:href="#DejaVuSans-46"/>
      <use x="347.900391" xlink:href="#DejaVuSans-83"/>
      <use x="411.392578" xlink:href="#DejaVuSans-65"/>
     </g>
    </g>
   </g>
  </g>
 </g>
 <defs>
  <clipPath id="pb19b6613e3">
   <rect height="391.68" width="669.6" x="26.925" y="7.2"/>
  </clipPath>
 </defs>
</svg>
