<?xml version="1.0" encoding="utf-8" standalone="no"?>
<!DOCTYPE svg PUBLIC "-//W3C//DTD SVG 1.1//EN"
  "http://www.w3.org/Graphics/SVG/1.1/DTD/svg11.dtd">
<!-- Created with matplotlib (https://matplotlib.org/) -->
<svg height="533.99625pt" version="1.1" viewBox="0 0 896.360938 533.99625" width="896.360938pt" xmlns="http://www.w3.org/2000/svg" xmlns:xlink="http://www.w3.org/1999/xlink">
 <defs>
  <style type="text/css">
*{stroke-linecap:butt;stroke-linejoin:round;}
  </style>
 </defs>
 <g id="figure_1">
  <g id="patch_1">
   <path d="M 0 533.99625 
L 896.360938 533.99625 
L 896.360938 0 
L 0 0 
z
" style="fill:none;"/>
  </g>
  <g id="axes_1">
   <g id="patch_2">
    <path d="M 52.160938 496.44 
L 889.160938 496.44 
L 889.160938 7.2 
L 52.160938 7.2 
z
" style="fill:#ffffff;"/>
   </g>
   <g id="PathCollection_1">
    <defs>
     <path d="M 0 -5 
L -1.12257 -1.545085 
L -4.755283 -1.545085 
L -1.816356 0.59017 
L -2.938926 4.045085 
L -0 1.90983 
L 2.938926 4.045085 
L 1.816356 0.59017 
L 4.755283 -1.545085 
L 1.12257 -1.545085 
z
" id="mefe113e732" style="stroke:#0000ff;"/>
    </defs>
    <g clip-path="url(#p16764f49f5)">
     <use style="fill:#0000ff;stroke:#0000ff;" x="345.455615" xlink:href="#mefe113e732" y="465.793578"/>
     <use style="fill:#0000ff;stroke:#0000ff;" x="328.292153" xlink:href="#mefe113e732" y="459.689879"/>
     <use style="fill:#0000ff;stroke:#0000ff;" x="309.568668" xlink:href="#mefe113e732" y="443.447324"/>
     <use style="fill:#0000ff;stroke:#0000ff;" x="291.52132" xlink:href="#mefe113e732" y="441.657167"/>
     <use style="fill:#0000ff;stroke:#0000ff;" x="497.748825" xlink:href="#mefe113e732" y="440.231352"/>
     <use style="fill:#0000ff;stroke:#0000ff;" x="544.436353" xlink:href="#mefe113e732" y="437.476264"/>
     <use style="fill:#0000ff;stroke:#0000ff;" x="557.428975" xlink:href="#mefe113e732" y="425.324872"/>
     <use style="fill:#0000ff;stroke:#0000ff;" x="560.869848" xlink:href="#mefe113e732" y="412.843093"/>
     <use style="fill:#0000ff;stroke:#0000ff;" x="236.461677" xlink:href="#mefe113e732" y="392.665793"/>
     <use style="fill:#0000ff;stroke:#0000ff;" x="353.508361" xlink:href="#mefe113e732" y="390.606558"/>
     <use style="fill:#0000ff;stroke:#0000ff;" x="443.568321" xlink:href="#mefe113e732" y="383.495892"/>
     <use style="fill:#0000ff;stroke:#0000ff;" x="231.213851" xlink:href="#mefe113e732" y="377.915815"/>
     <use style="fill:#0000ff;stroke:#0000ff;" x="478.726097" xlink:href="#mefe113e732" y="367.199161"/>
     <use style="fill:#0000ff;stroke:#0000ff;" x="193.295215" xlink:href="#mefe113e732" y="364.545875"/>
     <use style="fill:#0000ff;stroke:#0000ff;" x="385.222258" xlink:href="#mefe113e732" y="361.014166"/>
     <use style="fill:#0000ff;stroke:#0000ff;" x="362.046138" xlink:href="#mefe113e732" y="358.244564"/>
     <use style="fill:#0000ff;stroke:#0000ff;" x="419.639951" xlink:href="#mefe113e732" y="357.474355"/>
     <use style="fill:#0000ff;stroke:#0000ff;" x="350.194828" xlink:href="#mefe113e732" y="356.382971"/>
     <use style="fill:#0000ff;stroke:#0000ff;" x="509.608113" xlink:href="#mefe113e732" y="346.561637"/>
     <use style="fill:#0000ff;stroke:#0000ff;" x="514.85641" xlink:href="#mefe113e732" y="343.955576"/>
     <use style="fill:#0000ff;stroke:#0000ff;" x="240.258814" xlink:href="#mefe113e732" y="342.511175"/>
     <use style="fill:#0000ff;stroke:#0000ff;" x="283.722288" xlink:href="#mefe113e732" y="337.639659"/>
     <use style="fill:#0000ff;stroke:#0000ff;" x="323.155689" xlink:href="#mefe113e732" y="334.189371"/>
     <use style="fill:#0000ff;stroke:#0000ff;" x="249.820077" xlink:href="#mefe113e732" y="333.174519"/>
     <use style="fill:#0000ff;stroke:#0000ff;" x="261.283994" xlink:href="#mefe113e732" y="333.009455"/>
     <use style="fill:#0000ff;stroke:#0000ff;" x="383.865686" xlink:href="#mefe113e732" y="326.83325"/>
     <use style="fill:#0000ff;stroke:#0000ff;" x="278.370051" xlink:href="#mefe113e732" y="326.278357"/>
     <use style="fill:#0000ff;stroke:#0000ff;" x="377.694324" xlink:href="#mefe113e732" y="323.380861"/>
     <use style="fill:#0000ff;stroke:#0000ff;" x="224.091419" xlink:href="#mefe113e732" y="323.017909"/>
     <use style="fill:#0000ff;stroke:#0000ff;" x="262.766884" xlink:href="#mefe113e732" y="319.811789"/>
     <use style="fill:#0000ff;stroke:#0000ff;" x="193.514744" xlink:href="#mefe113e732" y="315.368625"/>
     <use style="fill:#0000ff;stroke:#0000ff;" x="241.018857" xlink:href="#mefe113e732" y="312.459882"/>
     <use style="fill:#0000ff;stroke:#0000ff;" x="218.344128" xlink:href="#mefe113e732" y="311.916699"/>
     <use style="fill:#0000ff;stroke:#0000ff;" x="221.478198" xlink:href="#mefe113e732" y="310.704372"/>
     <use style="fill:#0000ff;stroke:#0000ff;" x="280.780045" xlink:href="#mefe113e732" y="310.378228"/>
     <use style="fill:#0000ff;stroke:#0000ff;" x="456.898569" xlink:href="#mefe113e732" y="309.352977"/>
     <use style="fill:#0000ff;stroke:#0000ff;" x="295.606343" xlink:href="#mefe113e732" y="308.274124"/>
     <use style="fill:#0000ff;stroke:#0000ff;" x="293.020779" xlink:href="#mefe113e732" y="307.102165"/>
     <use style="fill:#0000ff;stroke:#0000ff;" x="216.81615" xlink:href="#mefe113e732" y="304.498422"/>
     <use style="fill:#0000ff;stroke:#0000ff;" x="508.157093" xlink:href="#mefe113e732" y="301.715248"/>
     <use style="fill:#0000ff;stroke:#0000ff;" x="291.530244" xlink:href="#mefe113e732" y="291.312522"/>
     <use style="fill:#0000ff;stroke:#0000ff;" x="309.261915" xlink:href="#mefe113e732" y="288.996836"/>
     <use style="fill:#0000ff;stroke:#0000ff;" x="281.027804" xlink:href="#mefe113e732" y="285.938497"/>
     <use style="fill:#0000ff;stroke:#0000ff;" x="332.562958" xlink:href="#mefe113e732" y="282.515744"/>
     <use style="fill:#0000ff;stroke:#0000ff;" x="267.470588" xlink:href="#mefe113e732" y="280.058637"/>
     <use style="fill:#0000ff;stroke:#0000ff;" x="146.819815" xlink:href="#mefe113e732" y="277.567707"/>
     <use style="fill:#0000ff;stroke:#0000ff;" x="278.711212" xlink:href="#mefe113e732" y="275.340279"/>
     <use style="fill:#0000ff;stroke:#0000ff;" x="680.164007" xlink:href="#mefe113e732" y="274.354277"/>
     <use style="fill:#0000ff;stroke:#0000ff;" x="526.000911" xlink:href="#mefe113e732" y="266.127785"/>
     <use style="fill:#0000ff;stroke:#0000ff;" x="423.010346" xlink:href="#mefe113e732" y="264.782651"/>
     <use style="fill:#0000ff;stroke:#0000ff;" x="254.540962" xlink:href="#mefe113e732" y="264.48275"/>
     <use style="fill:#0000ff;stroke:#0000ff;" x="160.832106" xlink:href="#mefe113e732" y="262.774416"/>
     <use style="fill:#0000ff;stroke:#0000ff;" x="191.316257" xlink:href="#mefe113e732" y="257.932056"/>
     <use style="fill:#0000ff;stroke:#0000ff;" x="156.535471" xlink:href="#mefe113e732" y="256.810401"/>
     <use style="fill:#0000ff;stroke:#0000ff;" x="227.93625" xlink:href="#mefe113e732" y="256.346103"/>
     <use style="fill:#0000ff;stroke:#0000ff;" x="307.516394" xlink:href="#mefe113e732" y="256.189116"/>
     <use style="fill:#0000ff;stroke:#0000ff;" x="501.144468" xlink:href="#mefe113e732" y="255.98834"/>
     <use style="fill:#0000ff;stroke:#0000ff;" x="228.480766" xlink:href="#mefe113e732" y="253.810986"/>
     <use style="fill:#0000ff;stroke:#0000ff;" x="350.246074" xlink:href="#mefe113e732" y="252.314267"/>
     <use style="fill:#0000ff;stroke:#0000ff;" x="418.352197" xlink:href="#mefe113e732" y="251.413981"/>
     <use style="fill:#0000ff;stroke:#0000ff;" x="161.590666" xlink:href="#mefe113e732" y="250.028599"/>
     <use style="fill:#0000ff;stroke:#0000ff;" x="376.010134" xlink:href="#mefe113e732" y="248.393011"/>
     <use style="fill:#0000ff;stroke:#0000ff;" x="226.955089" xlink:href="#mefe113e732" y="246.514996"/>
     <use style="fill:#0000ff;stroke:#0000ff;" x="265.784917" xlink:href="#mefe113e732" y="246.371146"/>
     <use style="fill:#0000ff;stroke:#0000ff;" x="517.920364" xlink:href="#mefe113e732" y="236.982335"/>
     <use style="fill:#0000ff;stroke:#0000ff;" x="351.42701" xlink:href="#mefe113e732" y="229.322725"/>
     <use style="fill:#0000ff;stroke:#0000ff;" x="286.928239" xlink:href="#mefe113e732" y="229.098726"/>
     <use style="fill:#0000ff;stroke:#0000ff;" x="329.580831" xlink:href="#mefe113e732" y="225.908016"/>
     <use style="fill:#0000ff;stroke:#0000ff;" x="337.872326" xlink:href="#mefe113e732" y="221.496724"/>
     <use style="fill:#0000ff;stroke:#0000ff;" x="371.146054" xlink:href="#mefe113e732" y="220.785991"/>
     <use style="fill:#0000ff;stroke:#0000ff;" x="387.338034" xlink:href="#mefe113e732" y="216.968568"/>
     <use style="fill:#0000ff;stroke:#0000ff;" x="211.013361" xlink:href="#mefe113e732" y="216.227134"/>
     <use style="fill:#0000ff;stroke:#0000ff;" x="390.485517" xlink:href="#mefe113e732" y="212.104824"/>
     <use style="fill:#0000ff;stroke:#0000ff;" x="324.05969" xlink:href="#mefe113e732" y="210.865456"/>
     <use style="fill:#0000ff;stroke:#0000ff;" x="180.157262" xlink:href="#mefe113e732" y="209.749163"/>
     <use style="fill:#0000ff;stroke:#0000ff;" x="303.521991" xlink:href="#mefe113e732" y="205.931846"/>
     <use style="fill:#0000ff;stroke:#0000ff;" x="335.696542" xlink:href="#mefe113e732" y="205.569441"/>
     <use style="fill:#0000ff;stroke:#0000ff;" x="465.392374" xlink:href="#mefe113e732" y="205.455072"/>
     <use style="fill:#0000ff;stroke:#0000ff;" x="301.133146" xlink:href="#mefe113e732" y="205.009199"/>
     <use style="fill:#0000ff;stroke:#0000ff;" x="365.414949" xlink:href="#mefe113e732" y="199.812291"/>
     <use style="fill:#0000ff;stroke:#0000ff;" x="345.674517" xlink:href="#mefe113e732" y="196.101611"/>
     <use style="fill:#0000ff;stroke:#0000ff;" x="239.806403" xlink:href="#mefe113e732" y="195.061349"/>
     <use style="fill:#0000ff;stroke:#0000ff;" x="356.330072" xlink:href="#mefe113e732" y="194.782548"/>
     <use style="fill:#0000ff;stroke:#0000ff;" x="343.096876" xlink:href="#mefe113e732" y="193.042229"/>
     <use style="fill:#0000ff;stroke:#0000ff;" x="785.740112" xlink:href="#mefe113e732" y="188.953445"/>
     <use style="fill:#0000ff;stroke:#0000ff;" x="233.564082" xlink:href="#mefe113e732" y="181.83655"/>
     <use style="fill:#0000ff;stroke:#0000ff;" x="399.998172" xlink:href="#mefe113e732" y="178.918331"/>
     <use style="fill:#0000ff;stroke:#0000ff;" x="441.534114" xlink:href="#mefe113e732" y="173.453188"/>
     <use style="fill:#0000ff;stroke:#0000ff;" x="551.066201" xlink:href="#mefe113e732" y="170.977639"/>
     <use style="fill:#0000ff;stroke:#0000ff;" x="339.695932" xlink:href="#mefe113e732" y="170.471332"/>
     <use style="fill:#0000ff;stroke:#0000ff;" x="253.334567" xlink:href="#mefe113e732" y="169.181368"/>
     <use style="fill:#0000ff;stroke:#0000ff;" x="290.145414" xlink:href="#mefe113e732" y="167.090031"/>
     <use style="fill:#0000ff;stroke:#0000ff;" x="265.993978" xlink:href="#mefe113e732" y="156.669028"/>
     <use style="fill:#0000ff;stroke:#0000ff;" x="794.50206" xlink:href="#mefe113e732" y="155.020232"/>
     <use style="fill:#0000ff;stroke:#0000ff;" x="404.474198" xlink:href="#mefe113e732" y="154.917529"/>
     <use style="fill:#0000ff;stroke:#0000ff;" x="347.530715" xlink:href="#mefe113e732" y="136.966236"/>
     <use style="fill:#0000ff;stroke:#0000ff;" x="294.853943" xlink:href="#mefe113e732" y="129.071425"/>
     <use style="fill:#0000ff;stroke:#0000ff;" x="541.601266" xlink:href="#mefe113e732" y="112.634515"/>
     <use style="fill:#0000ff;stroke:#0000ff;" x="493.890011" xlink:href="#mefe113e732" y="94.440689"/>
     <use style="fill:#0000ff;stroke:#0000ff;" x="672.844355" xlink:href="#mefe113e732" y="39.831339"/>
    </g>
   </g>
   <g id="matplotlib.axis_1">
    <g id="xtick_1">
     <g id="line2d_1">
      <defs>
       <path d="M 0 0 
L 0 3.5 
" id="m673861e19d" style="stroke:#000000;stroke-width:0.8;"/>
      </defs>
      <g>
       <use style="stroke:#000000;stroke-width:0.8;" x="104.674073" xlink:href="#m673861e19d" y="496.44"/>
      </g>
     </g>
     <g id="text_1">
      <!-- 0.36 -->
      <defs>
       <path d="M 31.78125 66.40625 
Q 24.171875 66.40625 20.328125 58.90625 
Q 16.5 51.421875 16.5 36.375 
Q 16.5 21.390625 20.328125 13.890625 
Q 24.171875 6.390625 31.78125 6.390625 
Q 39.453125 6.390625 43.28125 13.890625 
Q 47.125 21.390625 47.125 36.375 
Q 47.125 51.421875 43.28125 58.90625 
Q 39.453125 66.40625 31.78125 66.40625 
z
M 31.78125 74.21875 
Q 44.046875 74.21875 50.515625 64.515625 
Q 56.984375 54.828125 56.984375 36.375 
Q 56.984375 17.96875 50.515625 8.265625 
Q 44.046875 -1.421875 31.78125 -1.421875 
Q 19.53125 -1.421875 13.0625 8.265625 
Q 6.59375 17.96875 6.59375 36.375 
Q 6.59375 54.828125 13.0625 64.515625 
Q 19.53125 74.21875 31.78125 74.21875 
z
" id="DejaVuSans-48"/>
       <path d="M 10.6875 12.40625 
L 21 12.40625 
L 21 0 
L 10.6875 0 
z
" id="DejaVuSans-46"/>
       <path d="M 40.578125 39.3125 
Q 47.65625 37.796875 51.625 33 
Q 55.609375 28.21875 55.609375 21.1875 
Q 55.609375 10.40625 48.1875 4.484375 
Q 40.765625 -1.421875 27.09375 -1.421875 
Q 22.515625 -1.421875 17.65625 -0.515625 
Q 12.796875 0.390625 7.625 2.203125 
L 7.625 11.71875 
Q 11.71875 9.328125 16.59375 8.109375 
Q 21.484375 6.890625 26.8125 6.890625 
Q 36.078125 6.890625 40.9375 10.546875 
Q 45.796875 14.203125 45.796875 21.1875 
Q 45.796875 27.640625 41.28125 31.265625 
Q 36.765625 34.90625 28.71875 34.90625 
L 20.21875 34.90625 
L 20.21875 43.015625 
L 29.109375 43.015625 
Q 36.375 43.015625 40.234375 45.921875 
Q 44.09375 48.828125 44.09375 54.296875 
Q 44.09375 59.90625 40.109375 62.90625 
Q 36.140625 65.921875 28.71875 65.921875 
Q 24.65625 65.921875 20.015625 65.03125 
Q 15.375 64.15625 9.8125 62.3125 
L 9.8125 71.09375 
Q 15.4375 72.65625 20.34375 73.4375 
Q 25.25 74.21875 29.59375 74.21875 
Q 40.828125 74.21875 47.359375 69.109375 
Q 53.90625 64.015625 53.90625 55.328125 
Q 53.90625 49.265625 50.4375 45.09375 
Q 46.96875 40.921875 40.578125 39.3125 
z
" id="DejaVuSans-51"/>
       <path d="M 33.015625 40.375 
Q 26.375 40.375 22.484375 35.828125 
Q 18.609375 31.296875 18.609375 23.390625 
Q 18.609375 15.53125 22.484375 10.953125 
Q 26.375 6.390625 33.015625 6.390625 
Q 39.65625 6.390625 43.53125 10.953125 
Q 47.40625 15.53125 47.40625 23.390625 
Q 47.40625 31.296875 43.53125 35.828125 
Q 39.65625 40.375 33.015625 40.375 
z
M 52.59375 71.296875 
L 52.59375 62.3125 
Q 48.875 64.0625 45.09375 64.984375 
Q 41.3125 65.921875 37.59375 65.921875 
Q 27.828125 65.921875 22.671875 59.328125 
Q 17.53125 52.734375 16.796875 39.40625 
Q 19.671875 43.65625 24.015625 45.921875 
Q 28.375 48.1875 33.59375 48.1875 
Q 44.578125 48.1875 50.953125 41.515625 
Q 57.328125 34.859375 57.328125 23.390625 
Q 57.328125 12.15625 50.6875 5.359375 
Q 44.046875 -1.421875 33.015625 -1.421875 
Q 20.359375 -1.421875 13.671875 8.265625 
Q 6.984375 17.96875 6.984375 36.375 
Q 6.984375 53.65625 15.1875 63.9375 
Q 23.390625 74.21875 37.203125 74.21875 
Q 40.921875 74.21875 44.703125 73.484375 
Q 48.484375 72.75 52.59375 71.296875 
z
" id="DejaVuSans-54"/>
      </defs>
      <g transform="translate(93.54126 511.038437)scale(0.1 -0.1)">
       <use xlink:href="#DejaVuSans-48"/>
       <use x="63.623047" xlink:href="#DejaVuSans-46"/>
       <use x="95.410156" xlink:href="#DejaVuSans-51"/>
       <use x="159.033203" xlink:href="#DejaVuSans-54"/>
      </g>
     </g>
    </g>
    <g id="xtick_2">
     <g id="line2d_2">
      <g>
       <use style="stroke:#000000;stroke-width:0.8;" x="204.322062" xlink:href="#m673861e19d" y="496.44"/>
      </g>
     </g>
     <g id="text_2">
      <!-- 0.37 -->
      <defs>
       <path d="M 8.203125 72.90625 
L 55.078125 72.90625 
L 55.078125 68.703125 
L 28.609375 0 
L 18.3125 0 
L 43.21875 64.59375 
L 8.203125 64.59375 
z
" id="DejaVuSans-55"/>
      </defs>
      <g transform="translate(193.18925 511.038437)scale(0.1 -0.1)">
       <use xlink:href="#DejaVuSans-48"/>
       <use x="63.623047" xlink:href="#DejaVuSans-46"/>
       <use x="95.410156" xlink:href="#DejaVuSans-51"/>
       <use x="159.033203" xlink:href="#DejaVuSans-55"/>
      </g>
     </g>
    </g>
    <g id="xtick_3">
     <g id="line2d_3">
      <g>
       <use style="stroke:#000000;stroke-width:0.8;" x="303.970052" xlink:href="#m673861e19d" y="496.44"/>
      </g>
     </g>
     <g id="text_3">
      <!-- 0.38 -->
      <defs>
       <path d="M 31.78125 34.625 
Q 24.75 34.625 20.71875 30.859375 
Q 16.703125 27.09375 16.703125 20.515625 
Q 16.703125 13.921875 20.71875 10.15625 
Q 24.75 6.390625 31.78125 6.390625 
Q 38.8125 6.390625 42.859375 10.171875 
Q 46.921875 13.96875 46.921875 20.515625 
Q 46.921875 27.09375 42.890625 30.859375 
Q 38.875 34.625 31.78125 34.625 
z
M 21.921875 38.8125 
Q 15.578125 40.375 12.03125 44.71875 
Q 8.5 49.078125 8.5 55.328125 
Q 8.5 64.0625 14.71875 69.140625 
Q 20.953125 74.21875 31.78125 74.21875 
Q 42.671875 74.21875 48.875 69.140625 
Q 55.078125 64.0625 55.078125 55.328125 
Q 55.078125 49.078125 51.53125 44.71875 
Q 48 40.375 41.703125 38.8125 
Q 48.828125 37.15625 52.796875 32.3125 
Q 56.78125 27.484375 56.78125 20.515625 
Q 56.78125 9.90625 50.3125 4.234375 
Q 43.84375 -1.421875 31.78125 -1.421875 
Q 19.734375 -1.421875 13.25 4.234375 
Q 6.78125 9.90625 6.78125 20.515625 
Q 6.78125 27.484375 10.78125 32.3125 
Q 14.796875 37.15625 21.921875 38.8125 
z
M 18.3125 54.390625 
Q 18.3125 48.734375 21.84375 45.5625 
Q 25.390625 42.390625 31.78125 42.390625 
Q 38.140625 42.390625 41.71875 45.5625 
Q 45.3125 48.734375 45.3125 54.390625 
Q 45.3125 60.0625 41.71875 63.234375 
Q 38.140625 66.40625 31.78125 66.40625 
Q 25.390625 66.40625 21.84375 63.234375 
Q 18.3125 60.0625 18.3125 54.390625 
z
" id="DejaVuSans-56"/>
      </defs>
      <g transform="translate(292.837239 511.038437)scale(0.1 -0.1)">
       <use xlink:href="#DejaVuSans-48"/>
       <use x="63.623047" xlink:href="#DejaVuSans-46"/>
       <use x="95.410156" xlink:href="#DejaVuSans-51"/>
       <use x="159.033203" xlink:href="#DejaVuSans-56"/>
      </g>
     </g>
    </g>
    <g id="xtick_4">
     <g id="line2d_4">
      <g>
       <use style="stroke:#000000;stroke-width:0.8;" x="403.618041" xlink:href="#m673861e19d" y="496.44"/>
      </g>
     </g>
     <g id="text_4">
      <!-- 0.39 -->
      <defs>
       <path d="M 10.984375 1.515625 
L 10.984375 10.5 
Q 14.703125 8.734375 18.5 7.8125 
Q 22.3125 6.890625 25.984375 6.890625 
Q 35.75 6.890625 40.890625 13.453125 
Q 46.046875 20.015625 46.78125 33.40625 
Q 43.953125 29.203125 39.59375 26.953125 
Q 35.25 24.703125 29.984375 24.703125 
Q 19.046875 24.703125 12.671875 31.3125 
Q 6.296875 37.9375 6.296875 49.421875 
Q 6.296875 60.640625 12.9375 67.421875 
Q 19.578125 74.21875 30.609375 74.21875 
Q 43.265625 74.21875 49.921875 64.515625 
Q 56.59375 54.828125 56.59375 36.375 
Q 56.59375 19.140625 48.40625 8.859375 
Q 40.234375 -1.421875 26.421875 -1.421875 
Q 22.703125 -1.421875 18.890625 -0.6875 
Q 15.09375 0.046875 10.984375 1.515625 
z
M 30.609375 32.421875 
Q 37.25 32.421875 41.125 36.953125 
Q 45.015625 41.5 45.015625 49.421875 
Q 45.015625 57.28125 41.125 61.84375 
Q 37.25 66.40625 30.609375 66.40625 
Q 23.96875 66.40625 20.09375 61.84375 
Q 16.21875 57.28125 16.21875 49.421875 
Q 16.21875 41.5 20.09375 36.953125 
Q 23.96875 32.421875 30.609375 32.421875 
z
" id="DejaVuSans-57"/>
      </defs>
      <g transform="translate(392.485229 511.038437)scale(0.1 -0.1)">
       <use xlink:href="#DejaVuSans-48"/>
       <use x="63.623047" xlink:href="#DejaVuSans-46"/>
       <use x="95.410156" xlink:href="#DejaVuSans-51"/>
       <use x="159.033203" xlink:href="#DejaVuSans-57"/>
      </g>
     </g>
    </g>
    <g id="xtick_5">
     <g id="line2d_5">
      <g>
       <use style="stroke:#000000;stroke-width:0.8;" x="503.266031" xlink:href="#m673861e19d" y="496.44"/>
      </g>
     </g>
     <g id="text_5">
      <!-- 0.40 -->
      <defs>
       <path d="M 37.796875 64.3125 
L 12.890625 25.390625 
L 37.796875 25.390625 
z
M 35.203125 72.90625 
L 47.609375 72.90625 
L 47.609375 25.390625 
L 58.015625 25.390625 
L 58.015625 17.1875 
L 47.609375 17.1875 
L 47.609375 0 
L 37.796875 0 
L 37.796875 17.1875 
L 4.890625 17.1875 
L 4.890625 26.703125 
z
" id="DejaVuSans-52"/>
      </defs>
      <g transform="translate(492.133218 511.038437)scale(0.1 -0.1)">
       <use xlink:href="#DejaVuSans-48"/>
       <use x="63.623047" xlink:href="#DejaVuSans-46"/>
       <use x="95.410156" xlink:href="#DejaVuSans-52"/>
       <use x="159.033203" xlink:href="#DejaVuSans-48"/>
      </g>
     </g>
    </g>
    <g id="xtick_6">
     <g id="line2d_6">
      <g>
       <use style="stroke:#000000;stroke-width:0.8;" x="602.91402" xlink:href="#m673861e19d" y="496.44"/>
      </g>
     </g>
     <g id="text_6">
      <!-- 0.41 -->
      <defs>
       <path d="M 12.40625 8.296875 
L 28.515625 8.296875 
L 28.515625 63.921875 
L 10.984375 60.40625 
L 10.984375 69.390625 
L 28.421875 72.90625 
L 38.28125 72.90625 
L 38.28125 8.296875 
L 54.390625 8.296875 
L 54.390625 0 
L 12.40625 0 
z
" id="DejaVuSans-49"/>
      </defs>
      <g transform="translate(591.781208 511.038437)scale(0.1 -0.1)">
       <use xlink:href="#DejaVuSans-48"/>
       <use x="63.623047" xlink:href="#DejaVuSans-46"/>
       <use x="95.410156" xlink:href="#DejaVuSans-52"/>
       <use x="159.033203" xlink:href="#DejaVuSans-49"/>
      </g>
     </g>
    </g>
    <g id="xtick_7">
     <g id="line2d_7">
      <g>
       <use style="stroke:#000000;stroke-width:0.8;" x="702.562009" xlink:href="#m673861e19d" y="496.44"/>
      </g>
     </g>
     <g id="text_7">
      <!-- 0.42 -->
      <defs>
       <path d="M 19.1875 8.296875 
L 53.609375 8.296875 
L 53.609375 0 
L 7.328125 0 
L 7.328125 8.296875 
Q 12.9375 14.109375 22.625 23.890625 
Q 32.328125 33.6875 34.8125 36.53125 
Q 39.546875 41.84375 41.421875 45.53125 
Q 43.3125 49.21875 43.3125 52.78125 
Q 43.3125 58.59375 39.234375 62.25 
Q 35.15625 65.921875 28.609375 65.921875 
Q 23.96875 65.921875 18.8125 64.3125 
Q 13.671875 62.703125 7.8125 59.421875 
L 7.8125 69.390625 
Q 13.765625 71.78125 18.9375 73 
Q 24.125 74.21875 28.421875 74.21875 
Q 39.75 74.21875 46.484375 68.546875 
Q 53.21875 62.890625 53.21875 53.421875 
Q 53.21875 48.921875 51.53125 44.890625 
Q 49.859375 40.875 45.40625 35.40625 
Q 44.1875 33.984375 37.640625 27.21875 
Q 31.109375 20.453125 19.1875 8.296875 
z
" id="DejaVuSans-50"/>
      </defs>
      <g transform="translate(691.429197 511.038437)scale(0.1 -0.1)">
       <use xlink:href="#DejaVuSans-48"/>
       <use x="63.623047" xlink:href="#DejaVuSans-46"/>
       <use x="95.410156" xlink:href="#DejaVuSans-52"/>
       <use x="159.033203" xlink:href="#DejaVuSans-50"/>
      </g>
     </g>
    </g>
    <g id="xtick_8">
     <g id="line2d_8">
      <g>
       <use style="stroke:#000000;stroke-width:0.8;" x="802.209999" xlink:href="#m673861e19d" y="496.44"/>
      </g>
     </g>
     <g id="text_8">
      <!-- 0.43 -->
      <g transform="translate(791.077186 511.038437)scale(0.1 -0.1)">
       <use xlink:href="#DejaVuSans-48"/>
       <use x="63.623047" xlink:href="#DejaVuSans-46"/>
       <use x="95.410156" xlink:href="#DejaVuSans-52"/>
       <use x="159.033203" xlink:href="#DejaVuSans-51"/>
      </g>
     </g>
    </g>
    <g id="text_9">
     <!-- Volatility -->
     <defs>
      <path d="M 28.609375 0 
L 0.78125 72.90625 
L 11.078125 72.90625 
L 34.1875 11.53125 
L 57.328125 72.90625 
L 67.578125 72.90625 
L 39.796875 0 
z
" id="DejaVuSans-86"/>
      <path d="M 30.609375 48.390625 
Q 23.390625 48.390625 19.1875 42.75 
Q 14.984375 37.109375 14.984375 27.296875 
Q 14.984375 17.484375 19.15625 11.84375 
Q 23.34375 6.203125 30.609375 6.203125 
Q 37.796875 6.203125 41.984375 11.859375 
Q 46.1875 17.53125 46.1875 27.296875 
Q 46.1875 37.015625 41.984375 42.703125 
Q 37.796875 48.390625 30.609375 48.390625 
z
M 30.609375 56 
Q 42.328125 56 49.015625 48.375 
Q 55.71875 40.765625 55.71875 27.296875 
Q 55.71875 13.875 49.015625 6.21875 
Q 42.328125 -1.421875 30.609375 -1.421875 
Q 18.84375 -1.421875 12.171875 6.21875 
Q 5.515625 13.875 5.515625 27.296875 
Q 5.515625 40.765625 12.171875 48.375 
Q 18.84375 56 30.609375 56 
z
" id="DejaVuSans-111"/>
      <path d="M 9.421875 75.984375 
L 18.40625 75.984375 
L 18.40625 0 
L 9.421875 0 
z
" id="DejaVuSans-108"/>
      <path d="M 34.28125 27.484375 
Q 23.390625 27.484375 19.1875 25 
Q 14.984375 22.515625 14.984375 16.5 
Q 14.984375 11.71875 18.140625 8.90625 
Q 21.296875 6.109375 26.703125 6.109375 
Q 34.1875 6.109375 38.703125 11.40625 
Q 43.21875 16.703125 43.21875 25.484375 
L 43.21875 27.484375 
z
M 52.203125 31.203125 
L 52.203125 0 
L 43.21875 0 
L 43.21875 8.296875 
Q 40.140625 3.328125 35.546875 0.953125 
Q 30.953125 -1.421875 24.3125 -1.421875 
Q 15.921875 -1.421875 10.953125 3.296875 
Q 6 8.015625 6 15.921875 
Q 6 25.140625 12.171875 29.828125 
Q 18.359375 34.515625 30.609375 34.515625 
L 43.21875 34.515625 
L 43.21875 35.40625 
Q 43.21875 41.609375 39.140625 45 
Q 35.0625 48.390625 27.6875 48.390625 
Q 23 48.390625 18.546875 47.265625 
Q 14.109375 46.140625 10.015625 43.890625 
L 10.015625 52.203125 
Q 14.9375 54.109375 19.578125 55.046875 
Q 24.21875 56 28.609375 56 
Q 40.484375 56 46.34375 49.84375 
Q 52.203125 43.703125 52.203125 31.203125 
z
" id="DejaVuSans-97"/>
      <path d="M 18.3125 70.21875 
L 18.3125 54.6875 
L 36.8125 54.6875 
L 36.8125 47.703125 
L 18.3125 47.703125 
L 18.3125 18.015625 
Q 18.3125 11.328125 20.140625 9.421875 
Q 21.96875 7.515625 27.59375 7.515625 
L 36.8125 7.515625 
L 36.8125 0 
L 27.59375 0 
Q 17.1875 0 13.234375 3.875 
Q 9.28125 7.765625 9.28125 18.015625 
L 9.28125 47.703125 
L 2.6875 47.703125 
L 2.6875 54.6875 
L 9.28125 54.6875 
L 9.28125 70.21875 
z
" id="DejaVuSans-116"/>
      <path d="M 9.421875 54.6875 
L 18.40625 54.6875 
L 18.40625 0 
L 9.421875 0 
z
M 9.421875 75.984375 
L 18.40625 75.984375 
L 18.40625 64.59375 
L 9.421875 64.59375 
z
" id="DejaVuSans-105"/>
      <path d="M 32.171875 -5.078125 
Q 28.375 -14.84375 24.75 -17.8125 
Q 21.140625 -20.796875 15.09375 -20.796875 
L 7.90625 -20.796875 
L 7.90625 -13.28125 
L 13.1875 -13.28125 
Q 16.890625 -13.28125 18.9375 -11.515625 
Q 21 -9.765625 23.484375 -3.21875 
L 25.09375 0.875 
L 2.984375 54.6875 
L 12.5 54.6875 
L 29.59375 11.921875 
L 46.6875 54.6875 
L 56.203125 54.6875 
z
" id="DejaVuSans-121"/>
     </defs>
     <g transform="translate(448.686719 524.716562)scale(0.1 -0.1)">
      <use xlink:href="#DejaVuSans-86"/>
      <use x="68.298828" xlink:href="#DejaVuSans-111"/>
      <use x="129.480469" xlink:href="#DejaVuSans-108"/>
      <use x="157.263672" xlink:href="#DejaVuSans-97"/>
      <use x="218.542969" xlink:href="#DejaVuSans-116"/>
      <use x="257.751953" xlink:href="#DejaVuSans-105"/>
      <use x="285.535156" xlink:href="#DejaVuSans-108"/>
      <use x="313.318359" xlink:href="#DejaVuSans-105"/>
      <use x="341.101562" xlink:href="#DejaVuSans-116"/>
      <use x="380.310547" xlink:href="#DejaVuSans-121"/>
     </g>
    </g>
   </g>
   <g id="matplotlib.axis_2">
    <g id="ytick_1">
     <g id="line2d_9">
      <defs>
       <path d="M 0 0 
L -3.5 0 
" id="ma48d501938" style="stroke:#000000;stroke-width:0.8;"/>
      </defs>
      <g>
       <use style="stroke:#000000;stroke-width:0.8;" x="52.160938" xlink:href="#ma48d501938" y="481.613344"/>
      </g>
     </g>
     <g id="text_10">
      <!-- −0.3 -->
      <defs>
       <path d="M 10.59375 35.5 
L 73.1875 35.5 
L 73.1875 27.203125 
L 10.59375 27.203125 
z
" id="DejaVuSans-8722"/>
      </defs>
      <g transform="translate(20.878125 485.412562)scale(0.1 -0.1)">
       <use xlink:href="#DejaVuSans-8722"/>
       <use x="83.789062" xlink:href="#DejaVuSans-48"/>
       <use x="147.412109" xlink:href="#DejaVuSans-46"/>
       <use x="179.199219" xlink:href="#DejaVuSans-51"/>
      </g>
     </g>
    </g>
    <g id="ytick_2">
     <g id="line2d_10">
      <g>
       <use style="stroke:#000000;stroke-width:0.8;" x="52.160938" xlink:href="#ma48d501938" y="379.918383"/>
      </g>
     </g>
     <g id="text_11">
      <!-- −0.2 -->
      <g transform="translate(20.878125 383.717602)scale(0.1 -0.1)">
       <use xlink:href="#DejaVuSans-8722"/>
       <use x="83.789062" xlink:href="#DejaVuSans-48"/>
       <use x="147.412109" xlink:href="#DejaVuSans-46"/>
       <use x="179.199219" xlink:href="#DejaVuSans-50"/>
      </g>
     </g>
    </g>
    <g id="ytick_3">
     <g id="line2d_11">
      <g>
       <use style="stroke:#000000;stroke-width:0.8;" x="52.160938" xlink:href="#ma48d501938" y="278.223422"/>
      </g>
     </g>
     <g id="text_12">
      <!-- −0.1 -->
      <g transform="translate(20.878125 282.022641)scale(0.1 -0.1)">
       <use xlink:href="#DejaVuSans-8722"/>
       <use x="83.789062" xlink:href="#DejaVuSans-48"/>
       <use x="147.412109" xlink:href="#DejaVuSans-46"/>
       <use x="179.199219" xlink:href="#DejaVuSans-49"/>
      </g>
     </g>
    </g>
    <g id="ytick_4">
     <g id="line2d_12">
      <g>
       <use style="stroke:#000000;stroke-width:0.8;" x="52.160938" xlink:href="#ma48d501938" y="176.528462"/>
      </g>
     </g>
     <g id="text_13">
      <!-- 0.0 -->
      <g transform="translate(29.257813 180.327681)scale(0.1 -0.1)">
       <use xlink:href="#DejaVuSans-48"/>
       <use x="63.623047" xlink:href="#DejaVuSans-46"/>
       <use x="95.410156" xlink:href="#DejaVuSans-48"/>
      </g>
     </g>
    </g>
    <g id="ytick_5">
     <g id="line2d_13">
      <g>
       <use style="stroke:#000000;stroke-width:0.8;" x="52.160938" xlink:href="#ma48d501938" y="74.833501"/>
      </g>
     </g>
     <g id="text_14">
      <!-- 0.1 -->
      <g transform="translate(29.257813 78.63272)scale(0.1 -0.1)">
       <use xlink:href="#DejaVuSans-48"/>
       <use x="63.623047" xlink:href="#DejaVuSans-46"/>
       <use x="95.410156" xlink:href="#DejaVuSans-49"/>
      </g>
     </g>
    </g>
    <g id="text_15">
     <!-- Return -->
     <defs>
      <path d="M 44.390625 34.1875 
Q 47.5625 33.109375 50.5625 29.59375 
Q 53.5625 26.078125 56.59375 19.921875 
L 66.609375 0 
L 56 0 
L 46.6875 18.703125 
Q 43.0625 26.03125 39.671875 28.421875 
Q 36.28125 30.8125 30.421875 30.8125 
L 19.671875 30.8125 
L 19.671875 0 
L 9.8125 0 
L 9.8125 72.90625 
L 32.078125 72.90625 
Q 44.578125 72.90625 50.734375 67.671875 
Q 56.890625 62.453125 56.890625 51.90625 
Q 56.890625 45.015625 53.6875 40.46875 
Q 50.484375 35.9375 44.390625 34.1875 
z
M 19.671875 64.796875 
L 19.671875 38.921875 
L 32.078125 38.921875 
Q 39.203125 38.921875 42.84375 42.21875 
Q 46.484375 45.515625 46.484375 51.90625 
Q 46.484375 58.296875 42.84375 61.546875 
Q 39.203125 64.796875 32.078125 64.796875 
z
" id="DejaVuSans-82"/>
      <path d="M 56.203125 29.59375 
L 56.203125 25.203125 
L 14.890625 25.203125 
Q 15.484375 15.921875 20.484375 11.0625 
Q 25.484375 6.203125 34.421875 6.203125 
Q 39.59375 6.203125 44.453125 7.46875 
Q 49.3125 8.734375 54.109375 11.28125 
L 54.109375 2.78125 
Q 49.265625 0.734375 44.1875 -0.34375 
Q 39.109375 -1.421875 33.890625 -1.421875 
Q 20.796875 -1.421875 13.15625 6.1875 
Q 5.515625 13.8125 5.515625 26.8125 
Q 5.515625 40.234375 12.765625 48.109375 
Q 20.015625 56 32.328125 56 
Q 43.359375 56 49.78125 48.890625 
Q 56.203125 41.796875 56.203125 29.59375 
z
M 47.21875 32.234375 
Q 47.125 39.59375 43.09375 43.984375 
Q 39.0625 48.390625 32.421875 48.390625 
Q 24.90625 48.390625 20.390625 44.140625 
Q 15.875 39.890625 15.1875 32.171875 
z
" id="DejaVuSans-101"/>
      <path d="M 8.5 21.578125 
L 8.5 54.6875 
L 17.484375 54.6875 
L 17.484375 21.921875 
Q 17.484375 14.15625 20.5 10.265625 
Q 23.53125 6.390625 29.59375 6.390625 
Q 36.859375 6.390625 41.078125 11.03125 
Q 45.3125 15.671875 45.3125 23.6875 
L 45.3125 54.6875 
L 54.296875 54.6875 
L 54.296875 0 
L 45.3125 0 
L 45.3125 8.40625 
Q 42.046875 3.421875 37.71875 1 
Q 33.40625 -1.421875 27.6875 -1.421875 
Q 18.265625 -1.421875 13.375 4.4375 
Q 8.5 10.296875 8.5 21.578125 
z
M 31.109375 56 
z
" id="DejaVuSans-117"/>
      <path d="M 41.109375 46.296875 
Q 39.59375 47.171875 37.8125 47.578125 
Q 36.03125 48 33.890625 48 
Q 26.265625 48 22.1875 43.046875 
Q 18.109375 38.09375 18.109375 28.8125 
L 18.109375 0 
L 9.078125 0 
L 9.078125 54.6875 
L 18.109375 54.6875 
L 18.109375 46.1875 
Q 20.953125 51.171875 25.484375 53.578125 
Q 30.03125 56 36.53125 56 
Q 37.453125 56 38.578125 55.875 
Q 39.703125 55.765625 41.0625 55.515625 
z
" id="DejaVuSans-114"/>
      <path d="M 54.890625 33.015625 
L 54.890625 0 
L 45.90625 0 
L 45.90625 32.71875 
Q 45.90625 40.484375 42.875 44.328125 
Q 39.84375 48.1875 33.796875 48.1875 
Q 26.515625 48.1875 22.3125 43.546875 
Q 18.109375 38.921875 18.109375 30.90625 
L 18.109375 0 
L 9.078125 0 
L 9.078125 54.6875 
L 18.109375 54.6875 
L 18.109375 46.1875 
Q 21.34375 51.125 25.703125 53.5625 
Q 30.078125 56 35.796875 56 
Q 45.21875 56 50.046875 50.171875 
Q 54.890625 44.34375 54.890625 33.015625 
z
" id="DejaVuSans-110"/>
     </defs>
     <g transform="translate(14.798438 268.72)rotate(-90)scale(0.1 -0.1)">
      <use xlink:href="#DejaVuSans-82"/>
      <use x="69.419922" xlink:href="#DejaVuSans-101"/>
      <use x="130.943359" xlink:href="#DejaVuSans-116"/>
      <use x="170.152344" xlink:href="#DejaVuSans-117"/>
      <use x="233.53125" xlink:href="#DejaVuSans-114"/>
      <use x="274.628906" xlink:href="#DejaVuSans-110"/>
     </g>
    </g>
   </g>
   <g id="patch_3">
    <path d="M 52.160938 496.44 
L 52.160938 7.2 
" style="fill:none;stroke:#000000;stroke-linecap:square;stroke-linejoin:miter;stroke-width:0.8;"/>
   </g>
   <g id="patch_4">
    <path d="M 889.160938 496.44 
L 889.160938 7.2 
" style="fill:none;stroke:#000000;stroke-linecap:square;stroke-linejoin:miter;stroke-width:0.8;"/>
   </g>
   <g id="patch_5">
    <path d="M 52.160937 496.44 
L 889.160938 496.44 
" style="fill:none;stroke:#000000;stroke-linecap:square;stroke-linejoin:miter;stroke-width:0.8;"/>
   </g>
   <g id="patch_6">
    <path d="M 52.160937 7.2 
L 889.160938 7.2 
" style="fill:none;stroke:#000000;stroke-linecap:square;stroke-linejoin:miter;stroke-width:0.8;"/>
   </g>
  </g>
 </g>
 <defs>
  <clipPath id="p16764f49f5">
   <rect height="489.24" width="837" x="52.160938" y="7.2"/>
  </clipPath>
 </defs>
</svg>
