<?xml version="1.0" encoding="utf-8" standalone="no"?>
<!DOCTYPE svg PUBLIC "-//W3C//DTD SVG 1.1//EN"
  "http://www.w3.org/Graphics/SVG/1.1/DTD/svg11.dtd">
<!-- Created with matplotlib (https://matplotlib.org/) -->
<svg height="456.031033pt" version="1.1" viewBox="0 0 715.282812 456.031033" width="715.282812pt" xmlns="http://www.w3.org/2000/svg" xmlns:xlink="http://www.w3.org/1999/xlink">
 <defs>
  <style type="text/css">
*{stroke-linecap:butt;stroke-linejoin:round;}
  </style>
 </defs>
 <g id="figure_1">
  <g id="patch_1">
   <path d="M 0 456.031033 
L 715.282812 456.031033 
L 715.282812 0 
L 0 0 
z
" style="fill:none;"/>
  </g>
  <g id="axes_1">
   <g id="patch_2">
    <path d="M 38.482813 398.88 
L 708.082813 398.88 
L 708.082813 7.2 
L 38.482813 7.2 
z
" style="fill:#ffffff;"/>
   </g>
   <g id="matplotlib.axis_1">
    <g id="xtick_1">
     <g id="line2d_1">
      <defs>
       <path d="M 0 0 
L 0 3.5 
" id="m8f4a050d90" style="stroke:#000000;stroke-width:0.8;"/>
      </defs>
      <g>
       <use style="stroke:#000000;stroke-width:0.8;" x="67.395453" xlink:href="#m8f4a050d90" y="398.88"/>
      </g>
     </g>
     <g id="text_1">
      <!-- 2018-01 -->
      <defs>
       <path d="M 19.1875 8.296875 
L 53.609375 8.296875 
L 53.609375 0 
L 7.328125 0 
L 7.328125 8.296875 
Q 12.9375 14.109375 22.625 23.890625 
Q 32.328125 33.6875 34.8125 36.53125 
Q 39.546875 41.84375 41.421875 45.53125 
Q 43.3125 49.21875 43.3125 52.78125 
Q 43.3125 58.59375 39.234375 62.25 
Q 35.15625 65.921875 28.609375 65.921875 
Q 23.96875 65.921875 18.8125 64.3125 
Q 13.671875 62.703125 7.8125 59.421875 
L 7.8125 69.390625 
Q 13.765625 71.78125 18.9375 73 
Q 24.125 74.21875 28.421875 74.21875 
Q 39.75 74.21875 46.484375 68.546875 
Q 53.21875 62.890625 53.21875 53.421875 
Q 53.21875 48.921875 51.53125 44.890625 
Q 49.859375 40.875 45.40625 35.40625 
Q 44.1875 33.984375 37.640625 27.21875 
Q 31.109375 20.453125 19.1875 8.296875 
z
" id="DejaVuSans-50"/>
       <path d="M 31.78125 66.40625 
Q 24.171875 66.40625 20.328125 58.90625 
Q 16.5 51.421875 16.5 36.375 
Q 16.5 21.390625 20.328125 13.890625 
Q 24.171875 6.390625 31.78125 6.390625 
Q 39.453125 6.390625 43.28125 13.890625 
Q 47.125 21.390625 47.125 36.375 
Q 47.125 51.421875 43.28125 58.90625 
Q 39.453125 66.40625 31.78125 66.40625 
z
M 31.78125 74.21875 
Q 44.046875 74.21875 50.515625 64.515625 
Q 56.984375 54.828125 56.984375 36.375 
Q 56.984375 17.96875 50.515625 8.265625 
Q 44.046875 -1.421875 31.78125 -1.421875 
Q 19.53125 -1.421875 13.0625 8.265625 
Q 6.59375 17.96875 6.59375 36.375 
Q 6.59375 54.828125 13.0625 64.515625 
Q 19.53125 74.21875 31.78125 74.21875 
z
" id="DejaVuSans-48"/>
       <path d="M 12.40625 8.296875 
L 28.515625 8.296875 
L 28.515625 63.921875 
L 10.984375 60.40625 
L 10.984375 69.390625 
L 28.421875 72.90625 
L 38.28125 72.90625 
L 38.28125 8.296875 
L 54.390625 8.296875 
L 54.390625 0 
L 12.40625 0 
z
" id="DejaVuSans-49"/>
       <path d="M 31.78125 34.625 
Q 24.75 34.625 20.71875 30.859375 
Q 16.703125 27.09375 16.703125 20.515625 
Q 16.703125 13.921875 20.71875 10.15625 
Q 24.75 6.390625 31.78125 6.390625 
Q 38.8125 6.390625 42.859375 10.171875 
Q 46.921875 13.96875 46.921875 20.515625 
Q 46.921875 27.09375 42.890625 30.859375 
Q 38.875 34.625 31.78125 34.625 
z
M 21.921875 38.8125 
Q 15.578125 40.375 12.03125 44.71875 
Q 8.5 49.078125 8.5 55.328125 
Q 8.5 64.0625 14.71875 69.140625 
Q 20.953125 74.21875 31.78125 74.21875 
Q 42.671875 74.21875 48.875 69.140625 
Q 55.078125 64.0625 55.078125 55.328125 
Q 55.078125 49.078125 51.53125 44.71875 
Q 48 40.375 41.703125 38.8125 
Q 48.828125 37.15625 52.796875 32.3125 
Q 56.78125 27.484375 56.78125 20.515625 
Q 56.78125 9.90625 50.3125 4.234375 
Q 43.84375 -1.421875 31.78125 -1.421875 
Q 19.734375 -1.421875 13.25 4.234375 
Q 6.78125 9.90625 6.78125 20.515625 
Q 6.78125 27.484375 10.78125 32.3125 
Q 14.796875 37.15625 21.921875 38.8125 
z
M 18.3125 54.390625 
Q 18.3125 48.734375 21.84375 45.5625 
Q 25.390625 42.390625 31.78125 42.390625 
Q 38.140625 42.390625 41.71875 45.5625 
Q 45.3125 48.734375 45.3125 54.390625 
Q 45.3125 60.0625 41.71875 63.234375 
Q 38.140625 66.40625 31.78125 66.40625 
Q 25.390625 66.40625 21.84375 63.234375 
Q 18.3125 60.0625 18.3125 54.390625 
z
" id="DejaVuSans-56"/>
       <path d="M 4.890625 31.390625 
L 31.203125 31.390625 
L 31.203125 23.390625 
L 4.890625 23.390625 
z
" id="DejaVuSans-45"/>
      </defs>
      <g transform="translate(30.170632 433.351846)rotate(-30)scale(0.1 -0.1)">
       <use xlink:href="#DejaVuSans-50"/>
       <use x="63.623047" xlink:href="#DejaVuSans-48"/>
       <use x="127.246094" xlink:href="#DejaVuSans-49"/>
       <use x="190.869141" xlink:href="#DejaVuSans-56"/>
       <use x="254.492188" xlink:href="#DejaVuSans-45"/>
       <use x="290.576172" xlink:href="#DejaVuSans-48"/>
       <use x="354.199219" xlink:href="#DejaVuSans-49"/>
      </g>
     </g>
    </g>
    <g id="xtick_2">
     <g id="line2d_2">
      <g>
       <use style="stroke:#000000;stroke-width:0.8;" x="135.962981" xlink:href="#m8f4a050d90" y="398.88"/>
      </g>
     </g>
     <g id="text_2">
      <!-- 2018-04 -->
      <defs>
       <path d="M 37.796875 64.3125 
L 12.890625 25.390625 
L 37.796875 25.390625 
z
M 35.203125 72.90625 
L 47.609375 72.90625 
L 47.609375 25.390625 
L 58.015625 25.390625 
L 58.015625 17.1875 
L 47.609375 17.1875 
L 47.609375 0 
L 37.796875 0 
L 37.796875 17.1875 
L 4.890625 17.1875 
L 4.890625 26.703125 
z
" id="DejaVuSans-52"/>
      </defs>
      <g transform="translate(98.73816 433.351846)rotate(-30)scale(0.1 -0.1)">
       <use xlink:href="#DejaVuSans-50"/>
       <use x="63.623047" xlink:href="#DejaVuSans-48"/>
       <use x="127.246094" xlink:href="#DejaVuSans-49"/>
       <use x="190.869141" xlink:href="#DejaVuSans-56"/>
       <use x="254.492188" xlink:href="#DejaVuSans-45"/>
       <use x="290.576172" xlink:href="#DejaVuSans-48"/>
       <use x="354.199219" xlink:href="#DejaVuSans-52"/>
      </g>
     </g>
    </g>
    <g id="xtick_3">
     <g id="line2d_3">
      <g>
       <use style="stroke:#000000;stroke-width:0.8;" x="205.29237" xlink:href="#m8f4a050d90" y="398.88"/>
      </g>
     </g>
     <g id="text_3">
      <!-- 2018-07 -->
      <defs>
       <path d="M 8.203125 72.90625 
L 55.078125 72.90625 
L 55.078125 68.703125 
L 28.609375 0 
L 18.3125 0 
L 43.21875 64.59375 
L 8.203125 64.59375 
z
" id="DejaVuSans-55"/>
      </defs>
      <g transform="translate(168.067549 433.351846)rotate(-30)scale(0.1 -0.1)">
       <use xlink:href="#DejaVuSans-50"/>
       <use x="63.623047" xlink:href="#DejaVuSans-48"/>
       <use x="127.246094" xlink:href="#DejaVuSans-49"/>
       <use x="190.869141" xlink:href="#DejaVuSans-56"/>
       <use x="254.492188" xlink:href="#DejaVuSans-45"/>
       <use x="290.576172" xlink:href="#DejaVuSans-48"/>
       <use x="354.199219" xlink:href="#DejaVuSans-55"/>
      </g>
     </g>
    </g>
    <g id="xtick_4">
     <g id="line2d_4">
      <g>
       <use style="stroke:#000000;stroke-width:0.8;" x="275.38362" xlink:href="#m8f4a050d90" y="398.88"/>
      </g>
     </g>
     <g id="text_4">
      <!-- 2018-10 -->
      <g transform="translate(238.1588 433.351846)rotate(-30)scale(0.1 -0.1)">
       <use xlink:href="#DejaVuSans-50"/>
       <use x="63.623047" xlink:href="#DejaVuSans-48"/>
       <use x="127.246094" xlink:href="#DejaVuSans-49"/>
       <use x="190.869141" xlink:href="#DejaVuSans-56"/>
       <use x="254.492188" xlink:href="#DejaVuSans-45"/>
       <use x="290.576172" xlink:href="#DejaVuSans-49"/>
       <use x="354.199219" xlink:href="#DejaVuSans-48"/>
      </g>
     </g>
    </g>
    <g id="xtick_5">
     <g id="line2d_5">
      <g>
       <use style="stroke:#000000;stroke-width:0.8;" x="345.474871" xlink:href="#m8f4a050d90" y="398.88"/>
      </g>
     </g>
     <g id="text_5">
      <!-- 2019-01 -->
      <defs>
       <path d="M 10.984375 1.515625 
L 10.984375 10.5 
Q 14.703125 8.734375 18.5 7.8125 
Q 22.3125 6.890625 25.984375 6.890625 
Q 35.75 6.890625 40.890625 13.453125 
Q 46.046875 20.015625 46.78125 33.40625 
Q 43.953125 29.203125 39.59375 26.953125 
Q 35.25 24.703125 29.984375 24.703125 
Q 19.046875 24.703125 12.671875 31.3125 
Q 6.296875 37.9375 6.296875 49.421875 
Q 6.296875 60.640625 12.9375 67.421875 
Q 19.578125 74.21875 30.609375 74.21875 
Q 43.265625 74.21875 49.921875 64.515625 
Q 56.59375 54.828125 56.59375 36.375 
Q 56.59375 19.140625 48.40625 8.859375 
Q 40.234375 -1.421875 26.421875 -1.421875 
Q 22.703125 -1.421875 18.890625 -0.6875 
Q 15.09375 0.046875 10.984375 1.515625 
z
M 30.609375 32.421875 
Q 37.25 32.421875 41.125 36.953125 
Q 45.015625 41.5 45.015625 49.421875 
Q 45.015625 57.28125 41.125 61.84375 
Q 37.25 66.40625 30.609375 66.40625 
Q 23.96875 66.40625 20.09375 61.84375 
Q 16.21875 57.28125 16.21875 49.421875 
Q 16.21875 41.5 20.09375 36.953125 
Q 23.96875 32.421875 30.609375 32.421875 
z
" id="DejaVuSans-57"/>
      </defs>
      <g transform="translate(308.25005 433.351846)rotate(-30)scale(0.1 -0.1)">
       <use xlink:href="#DejaVuSans-50"/>
       <use x="63.623047" xlink:href="#DejaVuSans-48"/>
       <use x="127.246094" xlink:href="#DejaVuSans-49"/>
       <use x="190.869141" xlink:href="#DejaVuSans-57"/>
       <use x="254.492188" xlink:href="#DejaVuSans-45"/>
       <use x="290.576172" xlink:href="#DejaVuSans-48"/>
       <use x="354.199219" xlink:href="#DejaVuSans-49"/>
      </g>
     </g>
    </g>
    <g id="xtick_6">
     <g id="line2d_6">
      <g>
       <use style="stroke:#000000;stroke-width:0.8;" x="414.042398" xlink:href="#m8f4a050d90" y="398.88"/>
      </g>
     </g>
     <g id="text_6">
      <!-- 2019-04 -->
      <g transform="translate(376.817578 433.351846)rotate(-30)scale(0.1 -0.1)">
       <use xlink:href="#DejaVuSans-50"/>
       <use x="63.623047" xlink:href="#DejaVuSans-48"/>
       <use x="127.246094" xlink:href="#DejaVuSans-49"/>
       <use x="190.869141" xlink:href="#DejaVuSans-57"/>
       <use x="254.492188" xlink:href="#DejaVuSans-45"/>
       <use x="290.576172" xlink:href="#DejaVuSans-48"/>
       <use x="354.199219" xlink:href="#DejaVuSans-52"/>
      </g>
     </g>
    </g>
    <g id="xtick_7">
     <g id="line2d_7">
      <g>
       <use style="stroke:#000000;stroke-width:0.8;" x="483.371787" xlink:href="#m8f4a050d90" y="398.88"/>
      </g>
     </g>
     <g id="text_7">
      <!-- 2019-07 -->
      <g transform="translate(446.146967 433.351846)rotate(-30)scale(0.1 -0.1)">
       <use xlink:href="#DejaVuSans-50"/>
       <use x="63.623047" xlink:href="#DejaVuSans-48"/>
       <use x="127.246094" xlink:href="#DejaVuSans-49"/>
       <use x="190.869141" xlink:href="#DejaVuSans-57"/>
       <use x="254.492188" xlink:href="#DejaVuSans-45"/>
       <use x="290.576172" xlink:href="#DejaVuSans-48"/>
       <use x="354.199219" xlink:href="#DejaVuSans-55"/>
      </g>
     </g>
    </g>
    <g id="xtick_8">
     <g id="line2d_8">
      <g>
       <use style="stroke:#000000;stroke-width:0.8;" x="553.463038" xlink:href="#m8f4a050d90" y="398.88"/>
      </g>
     </g>
     <g id="text_8">
      <!-- 2019-10 -->
      <g transform="translate(516.238217 433.351846)rotate(-30)scale(0.1 -0.1)">
       <use xlink:href="#DejaVuSans-50"/>
       <use x="63.623047" xlink:href="#DejaVuSans-48"/>
       <use x="127.246094" xlink:href="#DejaVuSans-49"/>
       <use x="190.869141" xlink:href="#DejaVuSans-57"/>
       <use x="254.492188" xlink:href="#DejaVuSans-45"/>
       <use x="290.576172" xlink:href="#DejaVuSans-49"/>
       <use x="354.199219" xlink:href="#DejaVuSans-48"/>
      </g>
     </g>
    </g>
    <g id="xtick_9">
     <g id="line2d_9">
      <g>
       <use style="stroke:#000000;stroke-width:0.8;" x="623.554288" xlink:href="#m8f4a050d90" y="398.88"/>
      </g>
     </g>
     <g id="text_9">
      <!-- 2020-01 -->
      <g transform="translate(586.329467 433.351846)rotate(-30)scale(0.1 -0.1)">
       <use xlink:href="#DejaVuSans-50"/>
       <use x="63.623047" xlink:href="#DejaVuSans-48"/>
       <use x="127.246094" xlink:href="#DejaVuSans-50"/>
       <use x="190.869141" xlink:href="#DejaVuSans-48"/>
       <use x="254.492188" xlink:href="#DejaVuSans-45"/>
       <use x="290.576172" xlink:href="#DejaVuSans-48"/>
       <use x="354.199219" xlink:href="#DejaVuSans-49"/>
      </g>
     </g>
    </g>
    <g id="xtick_10">
     <g id="line2d_10">
      <g>
       <use style="stroke:#000000;stroke-width:0.8;" x="692.883677" xlink:href="#m8f4a050d90" y="398.88"/>
      </g>
     </g>
     <g id="text_10">
      <!-- 2020-04 -->
      <g transform="translate(655.658856 433.351846)rotate(-30)scale(0.1 -0.1)">
       <use xlink:href="#DejaVuSans-50"/>
       <use x="63.623047" xlink:href="#DejaVuSans-48"/>
       <use x="127.246094" xlink:href="#DejaVuSans-50"/>
       <use x="190.869141" xlink:href="#DejaVuSans-48"/>
       <use x="254.492188" xlink:href="#DejaVuSans-45"/>
       <use x="290.576172" xlink:href="#DejaVuSans-48"/>
       <use x="354.199219" xlink:href="#DejaVuSans-52"/>
      </g>
     </g>
    </g>
    <g id="text_11">
     <!-- Date -->
     <defs>
      <path d="M 19.671875 64.796875 
L 19.671875 8.109375 
L 31.59375 8.109375 
Q 46.6875 8.109375 53.6875 14.9375 
Q 60.6875 21.78125 60.6875 36.53125 
Q 60.6875 51.171875 53.6875 57.984375 
Q 46.6875 64.796875 31.59375 64.796875 
z
M 9.8125 72.90625 
L 30.078125 72.90625 
Q 51.265625 72.90625 61.171875 64.09375 
Q 71.09375 55.28125 71.09375 36.53125 
Q 71.09375 17.671875 61.125 8.828125 
Q 51.171875 0 30.078125 0 
L 9.8125 0 
z
" id="DejaVuSans-68"/>
      <path d="M 34.28125 27.484375 
Q 23.390625 27.484375 19.1875 25 
Q 14.984375 22.515625 14.984375 16.5 
Q 14.984375 11.71875 18.140625 8.90625 
Q 21.296875 6.109375 26.703125 6.109375 
Q 34.1875 6.109375 38.703125 11.40625 
Q 43.21875 16.703125 43.21875 25.484375 
L 43.21875 27.484375 
z
M 52.203125 31.203125 
L 52.203125 0 
L 43.21875 0 
L 43.21875 8.296875 
Q 40.140625 3.328125 35.546875 0.953125 
Q 30.953125 -1.421875 24.3125 -1.421875 
Q 15.921875 -1.421875 10.953125 3.296875 
Q 6 8.015625 6 15.921875 
Q 6 25.140625 12.171875 29.828125 
Q 18.359375 34.515625 30.609375 34.515625 
L 43.21875 34.515625 
L 43.21875 35.40625 
Q 43.21875 41.609375 39.140625 45 
Q 35.0625 48.390625 27.6875 48.390625 
Q 23 48.390625 18.546875 47.265625 
Q 14.109375 46.140625 10.015625 43.890625 
L 10.015625 52.203125 
Q 14.9375 54.109375 19.578125 55.046875 
Q 24.21875 56 28.609375 56 
Q 40.484375 56 46.34375 49.84375 
Q 52.203125 43.703125 52.203125 31.203125 
z
" id="DejaVuSans-97"/>
      <path d="M 18.3125 70.21875 
L 18.3125 54.6875 
L 36.8125 54.6875 
L 36.8125 47.703125 
L 18.3125 47.703125 
L 18.3125 18.015625 
Q 18.3125 11.328125 20.140625 9.421875 
Q 21.96875 7.515625 27.59375 7.515625 
L 36.8125 7.515625 
L 36.8125 0 
L 27.59375 0 
Q 17.1875 0 13.234375 3.875 
Q 9.28125 7.765625 9.28125 18.015625 
L 9.28125 47.703125 
L 2.6875 47.703125 
L 2.6875 54.6875 
L 9.28125 54.6875 
L 9.28125 70.21875 
z
" id="DejaVuSans-116"/>
      <path d="M 56.203125 29.59375 
L 56.203125 25.203125 
L 14.890625 25.203125 
Q 15.484375 15.921875 20.484375 11.0625 
Q 25.484375 6.203125 34.421875 6.203125 
Q 39.59375 6.203125 44.453125 7.46875 
Q 49.3125 8.734375 54.109375 11.28125 
L 54.109375 2.78125 
Q 49.265625 0.734375 44.1875 -0.34375 
Q 39.109375 -1.421875 33.890625 -1.421875 
Q 20.796875 -1.421875 13.15625 6.1875 
Q 5.515625 13.8125 5.515625 26.8125 
Q 5.515625 40.234375 12.765625 48.109375 
Q 20.015625 56 32.328125 56 
Q 43.359375 56 49.78125 48.890625 
Q 56.203125 41.796875 56.203125 29.59375 
z
M 47.21875 32.234375 
Q 47.125 39.59375 43.09375 43.984375 
Q 39.0625 48.390625 32.421875 48.390625 
Q 24.90625 48.390625 20.390625 44.140625 
Q 15.875 39.890625 15.1875 32.171875 
z
" id="DejaVuSans-101"/>
     </defs>
     <g transform="translate(361.332031 446.751346)scale(0.1 -0.1)">
      <use xlink:href="#DejaVuSans-68"/>
      <use x="77.001953" xlink:href="#DejaVuSans-97"/>
      <use x="138.28125" xlink:href="#DejaVuSans-116"/>
      <use x="177.490234" xlink:href="#DejaVuSans-101"/>
     </g>
    </g>
   </g>
   <g id="matplotlib.axis_2">
    <g id="ytick_1">
     <g id="line2d_11">
      <defs>
       <path d="M 0 0 
L -3.5 0 
" id="mb548e96a46" style="stroke:#000000;stroke-width:0.8;"/>
      </defs>
      <g>
       <use style="stroke:#000000;stroke-width:0.8;" x="38.482813" xlink:href="#mb548e96a46" y="348.639019"/>
      </g>
     </g>
     <g id="text_12">
      <!-- −0.2 -->
      <defs>
       <path d="M 10.59375 35.5 
L 73.1875 35.5 
L 73.1875 27.203125 
L 10.59375 27.203125 
z
" id="DejaVuSans-8722"/>
       <path d="M 10.6875 12.40625 
L 21 12.40625 
L 21 0 
L 10.6875 0 
z
" id="DejaVuSans-46"/>
      </defs>
      <g transform="translate(7.2 352.438238)scale(0.1 -0.1)">
       <use xlink:href="#DejaVuSans-8722"/>
       <use x="83.789062" xlink:href="#DejaVuSans-48"/>
       <use x="147.412109" xlink:href="#DejaVuSans-46"/>
       <use x="179.199219" xlink:href="#DejaVuSans-50"/>
      </g>
     </g>
    </g>
    <g id="ytick_2">
     <g id="line2d_12">
      <g>
       <use style="stroke:#000000;stroke-width:0.8;" x="38.482813" xlink:href="#mb548e96a46" y="265.249956"/>
      </g>
     </g>
     <g id="text_13">
      <!-- −0.1 -->
      <g transform="translate(7.2 269.049175)scale(0.1 -0.1)">
       <use xlink:href="#DejaVuSans-8722"/>
       <use x="83.789062" xlink:href="#DejaVuSans-48"/>
       <use x="147.412109" xlink:href="#DejaVuSans-46"/>
       <use x="179.199219" xlink:href="#DejaVuSans-49"/>
      </g>
     </g>
    </g>
    <g id="ytick_3">
     <g id="line2d_13">
      <g>
       <use style="stroke:#000000;stroke-width:0.8;" x="38.482813" xlink:href="#mb548e96a46" y="181.860893"/>
      </g>
     </g>
     <g id="text_14">
      <!-- 0.0 -->
      <g transform="translate(15.579688 185.660112)scale(0.1 -0.1)">
       <use xlink:href="#DejaVuSans-48"/>
       <use x="63.623047" xlink:href="#DejaVuSans-46"/>
       <use x="95.410156" xlink:href="#DejaVuSans-48"/>
      </g>
     </g>
    </g>
    <g id="ytick_4">
     <g id="line2d_14">
      <g>
       <use style="stroke:#000000;stroke-width:0.8;" x="38.482813" xlink:href="#mb548e96a46" y="98.47183"/>
      </g>
     </g>
     <g id="text_15">
      <!-- 0.1 -->
      <g transform="translate(15.579688 102.271049)scale(0.1 -0.1)">
       <use xlink:href="#DejaVuSans-48"/>
       <use x="63.623047" xlink:href="#DejaVuSans-46"/>
       <use x="95.410156" xlink:href="#DejaVuSans-49"/>
      </g>
     </g>
    </g>
    <g id="ytick_5">
     <g id="line2d_15">
      <g>
       <use style="stroke:#000000;stroke-width:0.8;" x="38.482813" xlink:href="#mb548e96a46" y="15.082767"/>
      </g>
     </g>
     <g id="text_16">
      <!-- 0.2 -->
      <g transform="translate(15.579688 18.881985)scale(0.1 -0.1)">
       <use xlink:href="#DejaVuSans-48"/>
       <use x="63.623047" xlink:href="#DejaVuSans-46"/>
       <use x="95.410156" xlink:href="#DejaVuSans-50"/>
      </g>
     </g>
    </g>
   </g>
   <g id="line2d_16">
    <path clip-path="url(#p65c996a41e)" d="M 68.919176 200.024894 
L 69.681038 180.172858 
L 70.442899 175.122395 
L 72.728483 180.189772 
L 73.490345 210.213205 
L 74.252206 180.134331 
L 75.014067 173.246336 
L 75.775929 178.450303 
L 78.061513 184.408375 
L 78.823375 189.527003 
L 79.585236 176.702733 
L 80.347097 192.113628 
L 81.108959 176.670795 
L 83.394543 177.562454 
L 84.156404 198.966312 
L 84.918266 152.172609 
L 85.680127 181.860893 
L 86.441989 169.213474 
L 88.727573 170.232956 
L 89.489434 183.499104 
L 90.251296 190.88926 
L 91.013157 170.244606 
L 91.775019 198.22763 
L 94.060603 191.042896 
L 94.822464 176.796789 
L 96.346187 203.025632 
L 97.108049 177.517762 
L 101.679217 180.996801 
L 102.441079 187.040246 
L 104.726663 178.386355 
L 105.488524 168.885398 
L 107.012247 160.992836 
L 107.774108 176.974745 
L 110.059693 211.816173 
L 110.821554 186.059771 
L 111.583416 179.328881 
L 113.107138 177.670535 
L 115.392723 223.555433 
L 116.154584 185.371921 
L 117.678307 187.177933 
L 118.440168 144.402686 
L 120.725753 146.866611 
L 121.487614 163.839711 
L 122.249475 203.509902 
L 123.011337 209.026128 
L 123.773198 197.177225 
L 126.058782 168.858422 
L 126.820644 186.982095 
L 127.582505 188.731164 
L 128.344367 183.592833 
L 129.106228 197.480045 
L 131.391812 183.629481 
L 132.153674 204.901571 
L 132.915535 204.644709 
L 133.677397 139.697821 
L 136.724842 177.401636 
L 137.486704 208.474378 
L 138.248565 181.860893 
L 139.010427 197.439086 
L 139.772288 165.986139 
L 142.057872 191.941003 
L 142.819734 184.643571 
L 143.581595 161.385846 
L 144.343456 168.235297 
L 145.105318 200.630061 
L 147.390902 195.576219 
L 148.152764 177.212637 
L 148.914625 165.220179 
L 149.676486 190.92482 
L 150.438348 175.446405 
L 152.723932 179.132837 
L 153.485793 189.112017 
L 154.247655 195.576219 
L 155.009516 158.61979 
L 155.771378 206.280684 
L 158.056962 200.495288 
L 159.580685 186.00222 
L 160.342546 205.933927 
L 161.104408 197.725627 
L 163.389992 185.904069 
L 164.151853 188.970706 
L 164.913715 149.078975 
L 165.675576 136.519342 
L 166.437438 185.600288 
L 168.723022 167.774952 
L 169.484883 166.161927 
L 170.246745 161.920076 
L 171.008606 193.368904 
L 171.770468 167.498954 
L 174.056052 171.271791 
L 174.817913 185.346389 
L 175.579775 184.485883 
L 176.341636 182.738709 
L 177.103497 171.316424 
L 179.389082 194.876831 
L 180.150943 210.06859 
L 180.912805 201.020308 
L 182.436527 172.522874 
L 184.722112 187.401658 
L 185.483973 215.328119 
L 186.245834 175.0812 
L 187.007696 203.957154 
L 187.769557 147.321037 
L 190.055142 187.546564 
L 190.817003 183.769006 
L 191.578864 174.210571 
L 192.340726 182.808535 
L 193.102587 188.501571 
L 195.388171 161.778662 
L 196.150033 164.118613 
L 196.911894 182.775284 
L 197.673756 162.638381 
L 198.435617 180.966124 
L 200.721201 169.348062 
L 201.483063 194.18874 
L 202.244924 199.736329 
L 203.006786 201.041294 
L 203.768647 146.336372 
L 206.054231 182.757586 
L 206.816093 180.963234 
L 207.577954 151.374601 
L 208.339816 189.646169 
L 209.101677 200.197758 
L 212.149123 137.220108 
L 212.910984 211.521644 
L 213.672845 179.224671 
L 214.434707 192.372216 
L 216.720291 159.68297 
L 217.482153 154.208496 
L 218.244014 194.406927 
L 219.005875 181.011682 
L 219.767737 199.675447 
L 222.053321 196.597032 
L 222.815183 173.919088 
L 223.577044 155.637923 
L 224.338905 201.352232 
L 225.100767 180.12544 
L 227.386351 227.755089 
L 228.148212 189.191838 
L 228.910074 176.313986 
L 229.671935 169.921965 
L 230.433797 170.090398 
L 232.719381 208.645381 
L 233.481242 190.162978 
L 234.243104 183.724235 
L 235.004965 214.54427 
L 235.766827 209.074021 
L 238.052411 142.678198 
L 238.814272 159.790055 
L 239.576134 158.48954 
L 240.337995 208.232526 
L 241.099857 180.921788 
L 243.385441 193.117023 
L 244.909164 136.206534 
L 245.671025 201.294741 
L 246.432886 157.441134 
L 248.718471 172.195081 
L 249.480332 190.547279 
L 250.242194 181.860893 
L 251.004055 202.927632 
L 251.765916 169.253472 
L 254.051501 173.876844 
L 254.813362 198.556212 
L 255.575223 177.377597 
L 256.337085 189.887722 
L 259.384531 167.452425 
L 260.146392 180.975622 
L 260.908253 197.77819 
L 261.670115 195.383397 
L 262.431976 179.111865 
L 264.71756 165.420487 
L 265.479422 140.659013 
L 266.241283 198.931374 
L 267.003145 208.873053 
L 267.765006 178.258711 
L 270.05059 195.31078 
L 270.812452 166.367902 
L 271.574313 164.860875 
L 272.336175 177.476597 
L 273.098036 197.561824 
L 275.38362 189.861965 
L 276.145482 180.065576 
L 276.907343 184.548084 
L 277.669205 221.398808 
L 278.431066 199.783899 
L 280.71665 159.687994 
L 281.478512 179.982863 
L 282.240373 179.986904 
L 283.002235 161.294042 
L 286.04968 174.562118 
L 286.811542 169.198777 
L 287.573403 178.297281 
L 288.335264 167.666934 
L 289.097126 173.138246 
L 291.38271 163.732832 
L 292.144572 154.824943 
L 292.906433 205.592853 
L 293.668294 172.595382 
L 296.71574 203.477137 
L 297.477601 136.624264 
L 298.239463 185.908917 
L 299.001324 187.555757 
L 302.04877 160.56316 
L 302.810631 194.640818 
L 303.572493 159.959047 
L 304.334354 202.411766 
L 305.096216 208.603757 
L 307.3818 181.860893 
L 308.143661 191.070508 
L 308.905523 50.639547 
L 310.429246 195.02757 
L 312.71483 209.359955 
L 314.238553 145.738498 
L 315.000414 194.384009 
L 315.762275 203.549493 
L 318.04786 161.896646 
L 318.809721 157.114123 
L 319.571583 177.49112 
L 320.333444 164.473125 
L 321.095305 180.441446 
L 323.38089 168.399673 
L 324.142751 215.32812 
L 324.904612 136.098591 
L 325.666474 175.66353 
L 326.428335 192.113612 
L 328.71392 202.62165 
L 329.475781 210.248607 
L 330.237642 170.105615 
L 330.999504 146.360835 
L 331.761365 176.301592 
L 334.046949 194.286465 
L 334.808811 180.459338 
L 335.570672 208.444678 
L 336.332534 191.977419 
L 337.094395 155.527469 
L 340.903702 200.297263 
L 341.665564 196.363312 
L 342.427425 160.460197 
L 346.236732 149.483819 
L 346.998594 168.701477 
L 347.760455 160.041953 
L 350.046039 211.096958 
L 350.807901 168.777477 
L 351.569762 188.640576 
L 352.331624 184.594943 
L 353.093485 159.916416 
L 355.379069 167.829076 
L 356.140931 186.460764 
L 356.902792 146.840139 
L 357.664653 166.007412 
L 358.426515 173.770933 
L 360.712099 171.383312 
L 361.473961 187.947646 
L 362.235822 152.42948 
L 362.997683 158.763082 
L 366.045129 162.843334 
L 366.80699 187.495305 
L 367.568852 147.824549 
L 368.330713 193.306453 
L 369.092575 194.018317 
L 371.378159 173.44906 
L 372.14002 184.081731 
L 372.901882 234.744423 
L 373.663743 164.030022 
L 374.425605 186.516274 
L 376.711189 176.009012 
L 377.47305 170.23869 
L 378.234912 191.603962 
L 378.996773 174.90213 
L 379.758635 163.457857 
L 382.044219 171.732626 
L 383.567942 213.434852 
L 384.329803 200.027132 
L 385.091664 164.488201 
L 387.377249 195.944864 
L 388.13911 197.97764 
L 388.900972 178.208783 
L 389.662833 201.859735 
L 390.424694 139.017684 
L 394.995863 243.871186 
L 395.757724 176.756776 
L 398.043309 175.5195 
L 398.80517 153.540055 
L 399.567031 156.296358 
L 400.328893 165.324815 
L 401.090754 155.80179 
L 403.376338 142.552911 
L 404.1382 211.891737 
L 404.900061 182.417214 
L 405.661923 200.230939 
L 406.423784 202.352377 
L 408.709368 173.107698 
L 409.47123 142.591789 
L 410.233091 209.436669 
L 410.994953 133.378845 
L 411.756814 157.604197 
L 414.042398 165.623106 
L 414.80426 200.871335 
L 415.566121 195.531191 
L 416.327983 172.239142 
L 417.089844 138.528106 
L 419.375428 149.208599 
L 420.13729 198.780416 
L 420.899151 171.498936 
L 421.661013 192.583016 
L 422.422874 144.832035 
L 424.708458 168.151739 
L 425.47032 111.168575 
L 426.232181 196.866639 
L 426.994042 219.407843 
L 430.041488 147.572569 
L 430.80335 149.805132 
L 431.565211 211.461399 
L 432.327072 117.412007 
L 433.088934 229.47688 
L 436.136379 163.760938 
L 437.660102 192.312288 
L 438.421964 139.141087 
L 440.707548 190.80129 
L 441.469409 203.632372 
L 442.231271 165.410876 
L 442.993132 155.3882 
L 443.754994 212.730826 
L 446.040578 193.934235 
L 446.802439 112.158804 
L 447.564301 157.690117 
L 448.326162 156.097791 
L 449.088024 149.51964 
L 451.373608 166.293972 
L 452.135469 236.388508 
L 452.897331 174.057138 
L 453.659192 195.85108 
L 454.421053 146.288593 
L 456.706638 207.358809 
L 457.468499 178.526807 
L 458.230361 234.62478 
L 458.992222 138.531653 
L 459.754083 197.213162 
L 462.039668 206.27494 
L 462.801529 136.668832 
L 463.56339 193.044091 
L 464.325252 184.883602 
L 465.087113 194.75416 
L 467.372698 167.609612 
L 468.134559 190.192271 
L 468.89642 169.23778 
L 469.658282 203.716136 
L 470.420143 198.113057 
L 472.705728 191.727086 
L 473.467589 193.442668 
L 474.22945 155.131039 
L 475.753173 149.682537 
L 478.038757 192.440338 
L 478.800619 177.651307 
L 479.56248 206.991838 
L 480.324342 187.749936 
L 481.086203 176.720775 
L 483.371787 135.882941 
L 484.133649 155.417695 
L 484.89551 181.860893 
L 486.419233 153.093748 
L 488.704817 174.308182 
L 490.22854 152.601552 
L 490.990402 213.744019 
L 491.752263 200.657582 
L 494.037847 155.28827 
L 494.799709 207.612907 
L 495.56157 194.447943 
L 496.323431 170.855969 
L 497.085293 178.357137 
L 499.370877 148.714585 
L 500.132739 156.022013 
L 500.8946 171.445407 
L 501.656461 199.541725 
L 502.418323 187.444252 
L 504.703907 187.151233 
L 505.465768 173.874717 
L 506.22763 195.044922 
L 506.989491 141.673366 
L 507.751353 176.748925 
L 510.036937 194.562947 
L 510.798798 150.904426 
L 511.56066 184.34826 
L 512.322521 179.989801 
L 513.084383 162.569367 
L 515.369967 133.810305 
L 516.131828 211.478408 
L 516.89369 200.345388 
L 517.655551 143.139084 
L 518.417413 167.87532 
L 520.702997 187.592122 
L 521.464858 189.36303 
L 522.22672 164.099936 
L 522.988581 187.277634 
L 523.750442 222.321515 
L 526.036027 179.448192 
L 526.797888 178.252253 
L 527.55975 156.70943 
L 528.321611 159.771069 
L 529.083472 176.480992 
L 531.369057 195.365182 
L 532.130918 187.866252 
L 532.89278 154.49664 
L 533.654641 172.37852 
L 534.416502 186.824536 
L 536.702087 211.266204 
L 537.463948 181.860893 
L 538.225809 193.362822 
L 538.987671 167.282386 
L 539.749532 160.942 
L 542.035117 184.376826 
L 542.796978 187.188387 
L 543.558839 184.400666 
L 544.320701 176.765829 
L 545.082562 146.412094 
L 547.368146 187.258213 
L 548.130008 122.646502 
L 548.891869 173.745177 
L 549.653731 191.907806 
L 550.415592 190.759078 
L 552.701176 173.123668 
L 553.463038 177.791897 
L 554.224899 218.557161 
L 554.986761 171.271816 
L 555.748622 191.010173 
L 558.034206 194.283335 
L 558.796068 193.397998 
L 559.557929 214.509109 
L 560.319791 190.355567 
L 561.081652 174.709172 
L 563.367236 193.206333 
L 564.129098 178.985397 
L 564.890959 174.983451 
L 565.65282 187.545241 
L 566.414682 184.722519 
L 568.700266 158.601563 
L 569.462128 170.68649 
L 570.223989 197.573865 
L 570.98585 198.156597 
L 571.747712 203.352919 
L 574.033296 170.3894 
L 574.795157 188.244169 
L 575.557019 169.872989 
L 576.31888 200.308508 
L 577.080742 180.976633 
L 579.366326 155.949005 
L 580.128187 214.131348 
L 580.890049 225.530956 
L 581.65191 164.618818 
L 582.413772 168.346627 
L 584.699356 175.21155 
L 585.461217 190.556595 
L 586.223079 200.041659 
L 586.98494 203.234778 
L 590.032386 165.647228 
L 590.794247 189.345319 
L 592.31797 208.293657 
L 593.079832 190.310299 
L 595.365416 101.754845 
L 596.127277 202.22892 
L 596.889139 168.351603 
L 597.651 150.136816 
L 598.412861 186.808937 
L 600.698446 190.05922 
L 601.460307 187.183608 
L 602.222169 205.371755 
L 602.98403 172.061233 
L 603.745891 184.887673 
L 606.031476 209.809142 
L 606.793337 198.519868 
L 607.555198 199.500863 
L 608.31706 188.414086 
L 609.078921 168.981018 
L 611.364506 186.414098 
L 612.126367 198.538713 
L 612.888228 152.162527 
L 614.411951 189.802708 
L 616.697535 171.597633 
L 618.98312 176.474819 
L 619.744981 184.694048 
L 622.030565 200.812965 
L 624.31615 136.610963 
L 625.078011 173.583347 
L 627.363595 201.59255 
L 628.125457 166.93669 
L 628.887318 161.395442 
L 629.64918 171.724213 
L 630.411041 186.279236 
L 632.696625 164.981724 
L 633.458487 182.73161 
L 634.220348 184.475885 
L 634.982209 176.031562 
L 635.744071 154.65306 
L 638.029655 179.898806 
L 638.791517 174.310562 
L 639.553378 182.969447 
L 640.315239 188.243404 
L 641.077101 196.402258 
L 643.362685 238.781757 
L 644.124546 154.675407 
L 644.886408 205.52579 
L 645.648269 195.256685 
L 646.410131 162.367372 
L 648.695715 165.533783 
L 649.457576 200.83995 
L 650.219438 189.750695 
L 650.981299 195.033988 
L 651.743161 216.723087 
L 654.028745 187.058492 
L 654.790606 167.150982 
L 655.552468 186.679201 
L 656.314329 166.352612 
L 657.076191 198.037553 
L 659.361775 180.89054 
L 660.123636 185.414821 
L 660.885498 146.169127 
L 661.647359 213.287317 
L 662.409221 175.717501 
L 666.980389 290.671085 
L 667.74225 177.800314 
L 670.027835 155.411525 
L 670.789696 208.209265 
L 671.551558 144.357859 
L 672.313419 234.638779 
L 673.07528 226.560454 
L 675.360865 301.328335 
L 676.122726 53.997652 
L 676.884587 266.615697 
L 677.646449 266.814883 
L 677.646449 266.814883 
" style="fill:none;stroke:#1f77b4;stroke-linecap:square;stroke-width:1.5;"/>
   </g>
   <g id="line2d_17">
    <path clip-path="url(#p65c996a41e)" d="M 68.919176 190.999466 
L 69.681038 181.860893 
L 70.442899 174.931005 
L 72.728483 196.75181 
L 73.490345 192.357436 
L 74.252206 183.042012 
L 75.014067 180.678099 
L 75.775929 203.121541 
L 78.061513 186.70909 
L 78.823375 197.709705 
L 79.585236 164.462297 
L 80.347097 201.338612 
L 81.108959 180.614451 
L 83.394543 194.30701 
L 84.156404 207.130282 
L 84.918266 120.622078 
L 85.680127 181.860893 
L 86.441989 195.212812 
L 88.727573 178.160228 
L 89.489434 174.492205 
L 90.251296 186.730323 
L 91.013157 183.085372 
L 91.775019 201.481888 
L 94.060603 194.419475 
L 94.822464 161.459918 
L 95.584326 206.753128 
L 96.346187 192.124152 
L 97.108049 181.860893 
L 101.679217 209.137694 
L 102.441079 197.974706 
L 104.726663 169.537431 
L 105.488524 198.052929 
L 106.250386 162.596111 
L 107.012247 195.310729 
L 107.774108 184.594958 
L 110.059693 176.374776 
L 110.821554 192.761414 
L 111.583416 191.525212 
L 112.345277 163.702454 
L 113.107138 151.786112 
L 115.392723 189.777568 
L 116.154584 217.827481 
L 116.916445 211.09573 
L 117.678307 184.746325 
L 118.440168 148.563244 
L 121.487614 177.739559 
L 122.249475 194.164153 
L 123.011337 231.811097 
L 123.773198 181.860893 
L 126.058782 192.192306 
L 126.820644 189.332989 
L 127.582505 163.765635 
L 128.344367 174.481372 
L 129.106228 181.860893 
L 131.391812 152.60153 
L 132.153674 220.021986 
L 132.915535 152.237809 
L 133.677397 166.127088 
L 136.724842 197.303331 
L 137.486704 164.696779 
L 138.248565 166.444408 
L 139.010427 155.715799 
L 139.772288 185.863596 
L 142.057872 25.003636 
L 142.819734 34.039959 
L 143.581595 229.785643 
L 144.343456 169.657627 
L 145.105318 183.865388 
L 147.390902 191.907806 
L 148.152764 188.979441 
L 148.914625 186.989391 
L 149.676486 193.213378 
L 150.438348 161.981436 
L 152.723932 179.816997 
L 154.247655 203.533797 
L 155.009516 168.086321 
L 155.771378 183.945618 
L 158.056962 188.130741 
L 159.580685 194.495587 
L 160.342546 204.311798 
L 161.104408 141.210111 
L 163.389992 205.955725 
L 164.151853 189.412314 
L 164.913715 126.340733 
L 165.675576 192.067671 
L 166.437438 200.460667 
L 168.723022 185.031552 
L 169.484883 174.434419 
L 170.246745 167.139004 
L 171.008606 206.660592 
L 171.770468 176.5359 
L 174.056052 204.08387 
L 174.817913 156.855044 
L 175.579775 118.527438 
L 176.341636 196.576573 
L 177.103497 191.847645 
L 179.389082 200.054901 
L 180.150943 179.794202 
L 180.912805 200.414733 
L 182.436527 174.481312 
L 184.722112 169.321146 
L 185.483973 192.155878 
L 186.245834 171.43722 
L 187.007696 188.037904 
L 187.769557 150.745551 
L 190.055142 196.858983 
L 190.817003 155.38815 
L 191.578864 176.92661 
L 192.340726 190.690338 
L 193.102587 199.708761 
L 195.388171 184.900565 
L 196.150033 187.962478 
L 196.911894 196.203027 
L 197.673756 202.708139 
L 198.435617 162.617282 
L 200.721201 170.366146 
L 201.483063 196.291668 
L 202.244924 175.567335 
L 203.006786 171.450333 
L 203.768647 178.776147 
L 206.054231 178.787613 
L 206.816093 177.778201 
L 207.577954 138.185713 
L 208.339816 187.65184 
L 209.101677 206.158406 
L 212.149123 180.859801 
L 212.910984 193.859308 
L 213.672845 185.918751 
L 214.434707 195.113445 
L 216.720291 196.363374 
L 217.482153 147.071531 
L 218.244014 201.088912 
L 219.767737 170.409247 
L 222.053321 198.29222 
L 222.815183 177.670492 
L 223.577044 165.183096 
L 224.338905 203.321318 
L 225.100767 187.105458 
L 227.386351 156.527481 
L 228.148212 175.714334 
L 228.910074 188.979441 
L 229.671935 182.886612 
L 230.433797 170.56438 
L 232.719381 195.032836 
L 233.481242 212.745749 
L 234.243104 217.140923 
L 235.004965 215.350446 
L 235.766827 181.860893 
L 238.052411 145.807051 
L 238.814272 217.535378 
L 239.576134 235.434878 
L 240.337995 159.457822 
L 241.099857 259.432155 
L 243.385441 152.460866 
L 244.147302 184.442595 
L 244.909164 179.271173 
L 245.671025 196.060286 
L 246.432886 188.426923 
L 248.718471 196.420905 
L 249.480332 215.539836 
L 250.242194 173.437763 
L 251.004055 208.267438 
L 251.765916 194.778326 
L 254.051501 199.355086 
L 254.813362 162.5027 
L 255.575223 194.958674 
L 256.337085 172.989724 
L 259.384531 186.249752 
L 260.146392 206.862916 
L 260.908253 197.022526 
L 261.670115 225.099698 
L 262.431976 183.489545 
L 264.71756 163.91027 
L 265.479422 178.665913 
L 266.241283 196.183391 
L 267.003145 189.956949 
L 267.765006 155.699565 
L 270.05059 199.299691 
L 270.812452 177.003321 
L 271.574313 175.421589 
L 272.336175 154.703522 
L 273.098036 195.784805 
L 275.38362 197.594738 
L 276.145482 169.031742 
L 276.907343 189.757614 
L 277.669205 189.833109 
L 278.431066 183.470681 
L 280.71665 144.763241 
L 281.478512 118.546999 
L 282.240373 199.084091 
L 283.002235 199.447322 
L 286.04968 172.878238 
L 286.811542 146.313192 
L 287.573403 142.084137 
L 288.335264 198.131914 
L 289.097126 180.478024 
L 291.38271 162.53232 
L 292.144572 172.415506 
L 292.906433 187.197788 
L 293.668294 184.546528 
L 294.430156 164.347827 
L 296.71574 197.694307 
L 297.477601 158.996139 
L 298.239463 176.624536 
L 299.001324 170.15258 
L 302.04877 171.597633 
L 302.810631 171.722415 
L 303.572493 201.894283 
L 304.334354 199.821597 
L 305.096216 189.727778 
L 307.3818 180.53729 
L 308.143661 199.040905 
L 308.905523 171.066138 
L 310.429246 172.536278 
L 312.71483 195.034508 
L 314.238553 183.199432 
L 315.000414 160.410286 
L 315.762275 196.238335 
L 318.04786 207.130314 
L 318.809721 175.003213 
L 319.571583 172.338529 
L 320.333444 181.860893 
L 321.095305 181.860893 
L 323.38089 160.34109 
L 324.142751 196.283547 
L 324.904612 171.187103 
L 325.666474 180.5435 
L 328.71392 227.152096 
L 329.475781 186.08672 
L 330.237642 194.602809 
L 330.999504 180.423186 
L 331.761365 189.037191 
L 334.046949 209.367709 
L 334.808811 199.826274 
L 336.332534 191.19548 
L 337.094395 175.567385 
L 340.903702 147.505882 
L 341.665564 198.358749 
L 342.427425 180.330783 
L 346.236732 152.842712 
L 346.998594 175.957248 
L 347.760455 183.326464 
L 350.046039 196.542052 
L 350.807901 184.849745 
L 351.569762 177.361452 
L 352.331624 193.794915 
L 353.093485 175.807246 
L 355.379069 156.318358 
L 356.140931 181.860893 
L 356.902792 192.065804 
L 357.664653 162.674012 
L 358.426515 145.79296 
L 360.712099 181.860893 
L 361.473961 227.496752 
L 362.235822 178.934964 
L 362.997683 159.993117 
L 366.045129 191.805031 
L 366.80699 166.045776 
L 367.568852 133.887467 
L 368.330713 204.542728 
L 369.092575 137.971888 
L 371.378159 155.801836 
L 372.14002 170.489638 
L 372.901882 235.459223 
L 373.663743 212.499049 
L 374.425605 195.689977 
L 376.711189 212.797785 
L 377.47305 200.84616 
L 378.234912 177.377579 
L 378.996773 186.320232 
L 379.758635 148.983444 
L 382.044219 203.427043 
L 382.80608 177.433195 
L 383.567942 190.669589 
L 384.329803 187.796052 
L 385.091664 196.805155 
L 387.377249 180.339232 
L 388.13911 187.936593 
L 388.900972 192.571369 
L 389.662833 163.26112 
L 390.424694 168.215387 
L 394.995863 171.418659 
L 395.757724 186.280769 
L 398.043309 181.860893 
L 398.80517 128.539341 
L 399.567031 192.997986 
L 401.090754 169.162029 
L 403.376338 148.505299 
L 404.1382 197.897237 
L 404.900061 184.586023 
L 405.661923 203.733414 
L 406.423784 212.745768 
L 408.709368 164.36663 
L 409.47123 163.298311 
L 410.233091 215.384104 
L 410.994953 145.47823 
L 411.756814 181.860893 
L 414.042398 172.099607 
L 414.80426 201.157582 
L 415.566121 183.27184 
L 416.327983 135.219564 
L 417.089844 124.305062 
L 419.375428 164.331617 
L 420.13729 185.539848 
L 420.899151 178.165635 
L 421.661013 191.67142 
L 422.422874 207.919922 
L 424.708458 152.399379 
L 425.47032 119.999568 
L 426.232181 196.834026 
L 426.994042 202.972084 
L 430.041488 169.827793 
L 430.80335 123.737677 
L 431.565211 230.652373 
L 432.327072 138.281876 
L 433.088934 209.843801 
L 435.374518 181.860893 
L 436.136379 167.962673 
L 437.660102 200.088047 
L 438.421964 187.684118 
L 440.707548 194.76217 
L 441.469409 203.303774 
L 442.231271 190.419908 
L 442.993132 212.745731 
L 443.754994 198.53872 
L 446.040578 188.406308 
L 446.802439 159.430344 
L 447.564301 199.849272 
L 448.326162 116.200212 
L 449.088024 194.034467 
L 451.373608 128.738992 
L 452.135469 198.120584 
L 452.897331 206.735476 
L 453.659192 186.744582 
L 454.421053 154.842312 
L 456.706638 173.533919 
L 457.468499 198.35024 
L 458.230361 201.086019 
L 458.992222 181.860893 
L 459.754083 175.711292 
L 462.039668 217.267665 
L 462.801529 152.534461 
L 463.56339 204.032262 
L 464.325252 181.860893 
L 465.087113 185.657083 
L 467.372698 180.589689 
L 468.134559 188.207117 
L 468.89642 183.139835 
L 469.658282 144.713697 
L 470.420143 192.897699 
L 472.705728 180.618166 
L 473.467589 195.510846 
L 474.22945 193.214945 
L 475.753173 178.023946 
L 478.038757 172.949124 
L 478.800619 193.197734 
L 479.56248 188.245991 
L 480.324342 198.590195 
L 481.086203 189.740167 
L 483.371787 156.67182 
L 484.133649 185.721525 
L 484.89551 176.689483 
L 485.657372 161.302684 
L 486.419233 175.591075 
L 488.704817 184.350116 
L 490.22854 156.894071 
L 490.990402 192.769364 
L 491.752263 181.860893 
L 494.037847 199.054498 
L 494.799709 200.670468 
L 495.56157 172.88051 
L 496.323431 185.668639 
L 497.085293 193.336472 
L 499.370877 193.496535 
L 500.132739 173.994008 
L 500.8946 171.469742 
L 501.656461 175.446325 
L 502.418323 176.768436 
L 504.703907 184.391666 
L 505.465768 166.630029 
L 506.22763 189.339726 
L 506.989491 174.314379 
L 507.751353 166.903228 
L 510.036937 173.289309 
L 510.798798 120.046357 
L 511.56066 168.320003 
L 512.322521 162.984585 
L 513.084383 168.831312 
L 515.369967 151.926387 
L 516.131828 200.437647 
L 516.89369 190.305347 
L 517.655551 187.192695 
L 518.417413 185.08057 
L 520.702997 191.557261 
L 521.464858 182.950971 
L 522.22672 157.848306 
L 522.988581 147.911129 
L 523.750442 202.249445 
L 526.036027 200.670438 
L 526.797888 193.620903 
L 527.55975 184.029657 
L 528.321611 125.325989 
L 529.083472 165.569907 
L 531.369057 182.859587 
L 532.130918 165.863007 
L 532.89278 179.898752 
L 533.654641 176.967244 
L 534.416502 181.860893 
L 536.702087 149.750758 
L 537.463948 181.860893 
L 538.225809 175.302142 
L 538.987671 178.142321 
L 539.749532 128.180927 
L 542.035117 160.122347 
L 542.796978 175.081301 
L 543.558839 186.904622 
L 544.320701 125.196917 
L 545.082562 144.640681 
L 547.368146 178.828566 
L 548.130008 159.200807 
L 548.891869 188.479084 
L 549.653731 204.839244 
L 550.415592 178.049678 
L 552.701176 179.584524 
L 553.463038 134.188445 
L 554.224899 181.145091 
L 554.986761 184.721579 
L 555.748622 163.920044 
L 558.034206 183.968433 
L 558.796068 207.919967 
L 559.557929 180.406891 
L 560.319791 184.763904 
L 561.081652 166.566826 
L 563.367236 192.588447 
L 564.129098 187.656826 
L 564.890959 181.860893 
L 565.65282 171.647054 
L 568.700266 189.018712 
L 569.462128 159.479452 
L 570.223989 207.876023 
L 570.98585 199.278958 
L 571.747712 172.224815 
L 574.033296 201.645678 
L 574.795157 182.611415 
L 575.557019 186.368441 
L 576.31888 203.765626 
L 577.080742 174.879471 
L 579.366326 171.860351 
L 580.128187 185.661685 
L 580.890049 183.3882 
L 581.65191 148.199211 
L 582.413772 203.186135 
L 584.699356 167.522534 
L 585.461217 215.246181 
L 586.223079 191.134923 
L 586.98494 199.836081 
L 590.032386 135.533564 
L 592.31797 214.3597 
L 593.079832 194.157959 
L 595.365416 137.397074 
L 596.127277 220.370973 
L 596.889139 179.531536 
L 597.651 180.312388 
L 598.412861 188.816434 
L 600.698446 170.170793 
L 601.460307 149.581251 
L 602.222169 203.31866 
L 602.98403 175.025712 
L 603.745891 179.600975 
L 606.031476 199.139745 
L 606.793337 157.312158 
L 607.555198 188.567729 
L 608.31706 191.627188 
L 609.078921 186.421858 
L 611.364506 184.918234 
L 612.126367 194.902427 
L 612.888228 216.931045 
L 613.65009 224.979119 
L 614.411951 201.592915 
L 616.697535 189.769248 
L 618.98312 156.134482 
L 619.744981 175.836859 
L 622.030565 164.772987 
L 624.31615 173.488465 
L 625.078011 163.624774 
L 627.363595 197.273235 
L 628.125457 156.240908 
L 628.887318 161.013608 
L 629.64918 162.304358 
L 630.411041 194.090258 
L 632.696625 158.589512 
L 633.458487 158.466717 
L 634.220348 141.487652 
L 634.982209 168.557814 
L 635.744071 181.860893 
L 638.029655 170.145069 
L 638.791517 176.423959 
L 639.553378 198.74127 
L 640.315239 179.104232 
L 641.077101 184.608471 
L 643.362685 242.50749 
L 644.124546 155.848305 
L 644.886408 215.735399 
L 645.648269 202.896023 
L 646.410131 170.300442 
L 648.695715 160.576559 
L 649.457576 178.154698 
L 650.219438 157.508341 
L 650.981299 195.484252 
L 651.743161 207.37324 
L 654.028745 239.759555 
L 654.790606 134.186899 
L 655.552468 191.797271 
L 656.314329 141.636077 
L 657.076191 156.032465 
L 659.361775 118.155917 
L 660.123636 120.682309 
L 660.885498 163.894455 
L 661.647359 180.647933 
L 662.409221 168.538064 
L 666.980389 297.496883 
L 667.74225 180.476876 
L 670.027835 124.517962 
L 670.789696 220.646468 
L 671.551558 152.708663 
L 672.313419 240.816217 
L 673.07528 222.039879 
L 675.360865 381.076364 
L 676.122726 50.501183 
L 676.884587 246.588329 
L 677.646449 346.816266 
L 677.646449 346.816266 
" style="fill:none;stroke:#ff7f0e;stroke-linecap:square;stroke-width:1.5;"/>
   </g>
   <g id="line2d_18">
    <path clip-path="url(#p65c996a41e)" d="M 68.919176 187.901968 
L 69.681038 172.845825 
L 70.442899 140.835256 
L 72.728483 172.085437 
L 73.490345 178.710221 
L 74.252206 197.764419 
L 75.014067 176.101086 
L 75.775929 177.623628 
L 78.061513 182.493322 
L 78.823375 178.274678 
L 79.585236 192.993492 
L 80.347097 212.304108 
L 81.108959 187.384811 
L 83.394543 195.874016 
L 84.156404 206.746449 
L 84.918266 166.703449 
L 85.680127 181.860893 
L 86.441989 168.119253 
L 88.727573 179.833055 
L 89.489434 195.346961 
L 90.251296 208.134194 
L 91.013157 161.80972 
L 91.775019 208.121523 
L 94.060603 219.916423 
L 94.822464 188.340575 
L 95.584326 197.684748 
L 96.346187 214.888774 
L 97.108049 206.653685 
L 101.679217 177.739533 
L 102.441079 203.733413 
L 104.726663 177.08778 
L 105.488524 183.815151 
L 106.250386 169.268563 
L 107.012247 161.737264 
L 107.774108 251.306916 
L 110.059693 175.988401 
L 110.821554 180.403064 
L 111.583416 144.896094 
L 112.345277 175.45065 
L 113.107138 162.776814 
L 115.392723 346.529961 
L 116.154584 202.413369 
L 116.916445 146.626061 
L 117.678307 186.169521 
L 118.440168 130.887996 
L 120.725753 170.558139 
L 121.487614 180.312086 
L 123.011337 217.856153 
L 123.773198 190.770701 
L 126.058782 181.860893 
L 126.820644 198.538706 
L 127.582505 189.348867 
L 128.344367 173.61816 
L 129.106228 203.966463 
L 131.391812 204.219128 
L 132.153674 182.578852 
L 132.915535 219.585346 
L 133.677397 156.648493 
L 136.724842 178.573539 
L 137.486704 173.492897 
L 138.248565 185.102806 
L 139.010427 218.384299 
L 139.772288 170.137208 
L 142.057872 219.154748 
L 143.581595 137.848875 
L 144.343456 175.571635 
L 145.105318 220.048716 
L 147.390902 206.873749 
L 148.152764 181.067449 
L 148.914625 102.593726 
L 149.676486 140.962643 
L 150.438348 140.459594 
L 152.723932 183.175689 
L 153.485793 164.741923 
L 154.247655 182.82868 
L 155.009516 177.016459 
L 155.771378 189.888335 
L 158.056962 211.689021 
L 159.580685 188.585779 
L 160.342546 192.03033 
L 161.104408 178.429231 
L 163.389992 192.113621 
L 164.151853 189.473215 
L 164.913715 165.099221 
L 165.675576 194.18442 
L 166.437438 185.335451 
L 168.723022 154.994944 
L 169.484883 206.198172 
L 170.246745 202.403506 
L 171.008606 230.409341 
L 171.770468 195.127349 
L 174.056052 182.631248 
L 174.817913 162.584641 
L 175.579775 208.614694 
L 176.341636 128.526119 
L 177.103497 200.155992 
L 179.389082 192.710109 
L 180.150943 212.18416 
L 180.912805 173.207338 
L 182.436527 105.167897 
L 184.722112 146.209305 
L 186.245834 206.636627 
L 187.007696 202.848086 
L 187.769557 244.295038 
L 190.055142 181.473028 
L 190.817003 205.896824 
L 191.578864 209.404378 
L 192.340726 154.202142 
L 193.102587 205.035617 
L 195.388171 193.779525 
L 196.150033 178.525334 
L 196.911894 201.794515 
L 197.673756 202.708149 
L 198.435617 167.024528 
L 200.721201 211.014922 
L 201.483063 193.856143 
L 202.244924 196.735695 
L 203.006786 193.793296 
L 203.768647 177.670481 
L 206.054231 79.477697 
L 206.816093 173.195981 
L 207.577954 170.426517 
L 208.339816 151.647465 
L 209.101677 129.378327 
L 212.149123 171.985855 
L 212.910984 190.897419 
L 213.672845 169.802004 
L 214.434707 195.188696 
L 216.720291 188.450031 
L 217.482153 156.032465 
L 218.244014 185.439768 
L 219.005875 175.39111 
L 219.767737 172.944184 
L 222.053321 182.919535 
L 222.815183 179.740851 
L 223.577044 184.68047 
L 224.338905 203.079498 
L 225.100767 185.126789 
L 227.386351 182.225205 
L 228.148212 190.243518 
L 228.910074 180.756377 
L 229.671935 187.008343 
L 230.433797 154.113868 
L 232.719381 179.712632 
L 233.481242 200.074358 
L 234.243104 193.179004 
L 235.004965 207.399507 
L 235.766827 235.315406 
L 238.052411 191.652163 
L 238.814272 181.860893 
L 239.576134 193.832627 
L 240.337995 166.364146 
L 241.099857 188.028786 
L 243.385441 183.517863 
L 244.147302 201.369505 
L 244.909164 172.935497 
L 245.671025 199.943254 
L 246.432886 181.860893 
L 248.718471 158.649464 
L 249.480332 186.461117 
L 250.242194 165.04012 
L 251.004055 202.058927 
L 251.765916 165.385876 
L 254.051501 170.676051 
L 254.813362 156.108344 
L 255.575223 173.137386 
L 256.337085 171.265559 
L 259.384531 176.823482 
L 260.146392 182.631248 
L 260.908253 211.931799 
L 261.670115 191.459625 
L 262.431976 186.716185 
L 264.71756 126.512343 
L 265.479422 174.60965 
L 266.241283 192.45481 
L 267.003145 187.992436 
L 267.765006 169.1209 
L 270.05059 206.577199 
L 270.812452 188.522616 
L 271.574313 138.408577 
L 272.336175 184.489083 
L 273.098036 188.26385 
L 275.38362 185.656423 
L 276.145482 169.278184 
L 276.907343 174.348408 
L 277.669205 203.08042 
L 278.431066 156.649363 
L 280.71665 182.602476 
L 281.478512 212.292138 
L 282.240373 224.61459 
L 283.002235 185.920746 
L 286.04968 193.692059 
L 286.811542 172.342557 
L 287.573403 177.359986 
L 288.335264 193.256205 
L 289.097126 175.259014 
L 291.38271 171.626595 
L 292.906433 198.506297 
L 293.668294 181.032369 
L 294.430156 168.204126 
L 296.71574 192.854587 
L 297.477601 142.250014 
L 298.239463 153.106062 
L 299.001324 170.056982 
L 302.04877 188.99453 
L 302.810631 182.618304 
L 303.572493 172.763913 
L 304.334354 228.354787 
L 305.096216 198.935808 
L 307.3818 206.589809 
L 308.143661 189.798673 
L 308.905523 168.363435 
L 310.429246 173.144304 
L 312.71483 187.611838 
L 314.238553 140.910916 
L 315.000414 128.633815 
L 315.762275 213.734069 
L 318.04786 175.695349 
L 318.809721 171.915399 
L 319.571583 181.104855 
L 320.333444 165.99884 
L 321.095305 194.091286 
L 323.38089 167.567806 
L 324.142751 187.407823 
L 324.904612 146.494967 
L 325.666474 191.503328 
L 326.428335 191.977442 
L 328.71392 220.629474 
L 329.475781 191.066669 
L 330.237642 155.098801 
L 330.999504 163.446913 
L 331.761365 170.095252 
L 334.046949 181.860893 
L 334.808811 170.984086 
L 335.570672 201.54498 
L 336.332534 191.024526 
L 337.094395 197.797481 
L 340.903702 188.284159 
L 341.665564 192.141754 
L 342.427425 170.295098 
L 346.236732 164.749638 
L 346.998594 215.022742 
L 347.760455 183.413001 
L 350.046039 176.418274 
L 350.807901 130.104822 
L 352.331624 185.401776 
L 353.093485 199.641076 
L 355.379069 192.034747 
L 356.140931 190.689016 
L 356.902792 189.668198 
L 357.664653 127.819354 
L 358.426515 168.115464 
L 360.712099 166.604663 
L 361.473961 223.742686 
L 362.235822 164.293988 
L 362.997683 166.411953 
L 366.045129 172.898026 
L 366.80699 202.324479 
L 367.568852 187.80477 
L 368.330713 186.790968 
L 369.092575 169.462404 
L 371.378159 188.492876 
L 372.14002 124.860813 
L 372.901882 219.405712 
L 373.663743 215.313123 
L 374.425605 171.441718 
L 376.711189 195.345052 
L 377.47305 175.368723 
L 378.234912 208.702867 
L 378.996773 171.876376 
L 379.758635 187.707623 
L 382.044219 196.580925 
L 382.80608 185.607047 
L 383.567942 163.045671 
L 384.329803 203.572967 
L 385.091664 173.548389 
L 387.377249 183.731484 
L 388.13911 195.359146 
L 388.900972 192.532208 
L 389.662833 221.625148 
L 390.424694 183.88782 
L 394.995863 223.718003 
L 395.757724 166.030198 
L 398.043309 162.126351 
L 398.80517 193.345888 
L 399.567031 171.463254 
L 400.328893 163.375601 
L 401.090754 122.785295 
L 403.376338 141.704982 
L 404.1382 190.096017 
L 404.900061 185.838642 
L 405.661923 190.944669 
L 406.423784 200.228527 
L 408.709368 195.007831 
L 409.47123 163.16038 
L 410.233091 196.791776 
L 410.994953 156.775766 
L 411.756814 180.01603 
L 414.042398 168.975151 
L 414.80426 183.673671 
L 415.566121 180.044166 
L 416.327983 161.557488 
L 417.089844 172.658356 
L 419.375428 172.758804 
L 420.899151 164.481064 
L 421.661013 174.516739 
L 422.422874 167.63186 
L 424.708458 168.195886 
L 425.47032 129.682672 
L 426.994042 200.175144 
L 430.041488 170.081942 
L 430.80335 124.679819 
L 431.565211 184.647971 
L 432.327072 156.693178 
L 433.088934 187.832747 
L 435.374518 182.407719 
L 436.136379 166.26649 
L 437.660102 189.649217 
L 438.421964 182.945301 
L 440.707548 172.903085 
L 441.469409 181.860893 
L 442.231271 199.586101 
L 442.993132 172.531411 
L 443.754994 204.926541 
L 446.040578 179.070084 
L 446.802439 146.257804 
L 447.564301 174.658371 
L 448.326162 167.579253 
L 449.088024 192.78182 
L 451.373608 177.381857 
L 452.135469 228.50842 
L 452.897331 166.593277 
L 453.659192 173.410234 
L 454.421053 156.223458 
L 456.706638 191.024536 
L 457.468499 210.980893 
L 458.230361 227.670019 
L 458.992222 173.73385 
L 459.754083 219.516745 
L 462.039668 184.87134 
L 462.801529 167.962744 
L 463.56339 210.390268 
L 464.325252 172.321939 
L 465.087113 219.88947 
L 467.372698 148.709248 
L 468.134559 187.992465 
L 468.89642 181.860893 
L 469.658282 133.371706 
L 470.420143 166.391428 
L 472.705728 193.323296 
L 473.467589 196.388604 
L 474.22945 170.032669 
L 475.753173 180.111488 
L 478.038757 175.168832 
L 478.800619 185.901882 
L 479.56248 188.532005 
L 480.324342 164.90239 
L 481.086203 169.825356 
L 483.371787 109.545137 
L 484.133649 152.747534 
L 484.89551 161.767162 
L 485.657372 176.219879 
L 486.419233 182.591705 
L 488.704817 177.715867 
L 490.22854 167.060957 
L 490.990402 206.891897 
L 491.752263 191.200101 
L 494.037847 184.346371 
L 494.799709 200.059391 
L 495.56157 176.508929 
L 496.323431 181.10123 
L 497.085293 169.463811 
L 499.370877 154.438519 
L 500.132739 201.169486 
L 500.8946 174.201419 
L 501.656461 199.243886 
L 502.418323 165.608113 
L 504.703907 189.218733 
L 505.465768 183.098101 
L 506.22763 187.808445 
L 506.989491 163.39096 
L 507.751353 183.081891 
L 510.036937 192.620739 
L 510.798798 159.564314 
L 511.56066 180.654472 
L 512.322521 140.66031 
L 513.084383 139.615328 
L 515.369967 171.590201 
L 516.131828 173.873872 
L 516.89369 203.242704 
L 517.655551 178.349778 
L 518.417413 172.90138 
L 520.702997 188.563181 
L 521.464858 189.925155 
L 522.988581 155.774621 
L 523.750442 202.30768 
L 526.036027 197.203251 
L 527.55975 158.167037 
L 528.321611 186.554087 
L 529.083472 197.521809 
L 531.369057 175.957619 
L 532.130918 196.840934 
L 532.89278 178.102678 
L 533.654641 178.119456 
L 534.416502 196.759628 
L 536.702087 191.453542 
L 537.463948 160.421198 
L 538.225809 169.759595 
L 538.987671 190.969754 
L 539.749532 182.518682 
L 542.035117 179.666477 
L 542.796978 180.547649 
L 543.558839 176.834833 
L 544.320701 196.414298 
L 545.082562 165.280353 
L 547.368146 175.791531 
L 548.130008 158.404353 
L 548.891869 168.046443 
L 549.653731 193.803068 
L 550.415592 207.345473 
L 552.701176 192.634674 
L 553.463038 186.445088 
L 554.224899 191.738529 
L 554.986761 204.740741 
L 555.748622 161.989976 
L 558.034206 196.1383 
L 558.796068 171.193326 
L 559.557929 195.531245 
L 560.319791 175.937031 
L 561.081652 176.431377 
L 563.367236 198.044158 
L 564.129098 190.800333 
L 564.890959 175.141642 
L 565.65282 189.905558 
L 566.414682 176.754938 
L 568.700266 144.952907 
L 569.462128 186.72068 
L 570.223989 198.080978 
L 570.98585 172.570267 
L 571.747712 196.20353 
L 574.033296 203.979431 
L 574.795157 179.51845 
L 575.557019 182.795246 
L 576.31888 185.368601 
L 577.080742 189.140647 
L 579.366326 155.801847 
L 580.128187 175.65839 
L 580.890049 205.803593 
L 581.65191 171.531199 
L 582.413772 216.876841 
L 584.699356 176.535675 
L 585.461217 217.217603 
L 586.223079 189.647255 
L 586.98494 180.086126 
L 590.032386 173.764875 
L 590.794247 174.844921 
L 592.31797 178.879189 
L 593.079832 171.709615 
L 595.365416 132.448765 
L 596.127277 165.926709 
L 596.889139 185.939713 
L 597.651 191.424862 
L 598.412861 172.646685 
L 600.698446 185.962002 
L 601.460307 196.056701 
L 602.222169 167.885019 
L 602.98403 184.151854 
L 603.745891 168.077524 
L 606.031476 182.990895 
L 606.793337 182.992342 
L 607.555198 202.708118 
L 608.31706 190.460163 
L 609.078921 218.494726 
L 611.364506 162.456641 
L 612.126367 208.50508 
L 612.888228 164.503651 
L 613.65009 180.889346 
L 614.411951 171.185481 
L 616.697535 188.568492 
L 618.98312 166.163522 
L 619.744981 180.438648 
L 622.030565 182.807442 
L 624.31615 165.751635 
L 625.078011 180.466484 
L 627.363595 190.445719 
L 628.125457 191.472786 
L 628.887318 149.842944 
L 629.64918 174.323631 
L 630.411041 193.178627 
L 632.696625 173.599992 
L 633.458487 185.2692 
L 634.220348 183.686053 
L 634.982209 195.580012 
L 635.744071 184.650578 
L 638.029655 174.863227 
L 638.791517 196.2024 
L 639.553378 177.859767 
L 640.315239 199.663014 
L 641.077101 206.035064 
L 643.362685 232.392275 
L 644.124546 192.881476 
L 644.886408 188.774533 
L 645.648269 195.267495 
L 646.410131 183.223491 
L 648.695715 154.019032 
L 649.457576 165.748324 
L 650.219438 184.711374 
L 650.981299 187.58136 
L 651.743161 189.97724 
L 654.028745 200.368314 
L 654.790606 180.238552 
L 655.552468 172.415519 
L 656.314329 179.726135 
L 657.076191 193.305937 
L 659.361775 179.162207 
L 660.123636 185.895837 
L 660.885498 173.481455 
L 661.647359 194.706436 
L 662.409221 190.55857 
L 666.980389 259.591801 
L 667.74225 196.703109 
L 670.027835 146.087484 
L 670.789696 242.480634 
L 671.551558 165.597626 
L 673.07528 262.969778 
L 675.360865 294.080724 
L 676.122726 146.83748 
L 676.884587 275.493532 
L 677.646449 328.355193 
L 677.646449 328.355193 
" style="fill:none;stroke:#2ca02c;stroke-linecap:square;stroke-width:1.5;"/>
   </g>
   <g id="line2d_19">
    <path clip-path="url(#p65c996a41e)" d="M 68.919176 187.989641 
L 69.681038 184.944028 
L 70.442899 172.569279 
L 72.728483 210.191731 
L 73.490345 183.448984 
L 74.252206 181.860893 
L 75.014067 181.860893 
L 75.775929 197.747839 
L 78.061513 181.860893 
L 78.823375 183.474671 
L 79.585236 197.276034 
L 80.347097 189.298461 
L 81.108959 174.356391 
L 83.394543 181.033846 
L 84.156404 193.419665 
L 84.918266 195.257006 
L 85.680127 181.860893 
L 86.441989 189.519374 
L 88.727573 181.002313 
L 89.489434 182.71859 
L 90.251296 188.730949 
L 91.013157 169.737983 
L 91.775019 181.007586 
L 94.060603 182.713328 
L 94.822464 204.905977 
L 95.584326 197.660614 
L 96.346187 197.966707 
L 97.108049 184.597176 
L 101.679217 147.077553 
L 102.441079 188.891061 
L 104.726663 177.429584 
L 105.488524 198.609542 
L 106.250386 179.16211 
L 107.012247 191.723898 
L 107.774108 166.435286 
L 110.059693 195.225051 
L 110.821554 181.860893 
L 111.583416 193.630578 
L 112.345277 180.024681 
L 113.107138 159.868187 
L 115.392723 185.432041 
L 116.154584 235.660594 
L 116.916445 193.36227 
L 117.678307 174.086043 
L 118.440168 166.453899 
L 120.725753 210.224631 
L 121.487614 160.328032 
L 122.249475 199.989288 
L 123.011337 196.490185 
L 123.773198 181.860893 
L 126.058782 189.803307 
L 126.820644 193.887668 
L 127.582505 197.115538 
L 128.344367 164.250833 
L 129.106228 199.106756 
L 131.391812 180.824259 
L 132.153674 188.068757 
L 132.915535 213.131957 
L 133.677397 195.939753 
L 136.724842 195.079169 
L 137.486704 113.582602 
L 138.248565 191.172689 
L 139.010427 133.731274 
L 139.772288 223.407606 
L 142.057872 145.424099 
L 142.819734 170.887822 
L 143.581595 201.551445 
L 144.343456 183.878027 
L 145.105318 184.893343 
L 148.152764 194.183846 
L 149.676486 179.762615 
L 150.438348 165.119999 
L 152.723932 185.964532 
L 153.485793 160.213916 
L 154.247655 184.875073 
L 155.009516 193.961352 
L 155.771378 176.744498 
L 158.056962 181.860893 
L 159.580685 202.199745 
L 160.342546 210.004744 
L 161.104408 180.782445 
L 163.389992 159.236153 
L 164.151853 197.594238 
L 164.913715 175.446097 
L 165.675576 225.358903 
L 166.437438 209.844509 
L 168.723022 193.442775 
L 169.484883 188.906941 
L 170.246745 174.754801 
L 171.008606 186.558657 
L 171.770468 193.672442 
L 174.056052 183.058653 
L 174.817913 139.866787 
L 175.579775 203.564207 
L 177.103497 127.802788 
L 179.389082 204.544258 
L 180.150943 206.288583 
L 180.912805 205.882213 
L 182.436527 161.838113 
L 184.722112 135.85407 
L 185.483973 143.708243 
L 187.007696 222.563447 
L 187.769557 159.916281 
L 190.055142 205.381448 
L 190.817003 201.662718 
L 191.578864 228.062861 
L 192.340726 181.860893 
L 193.102587 220.035628 
L 195.388171 205.615399 
L 196.150033 190.86889 
L 196.911894 155.842322 
L 197.673756 199.522559 
L 198.435617 130.30634 
L 200.721201 202.495717 
L 201.483063 194.307081 
L 202.244924 194.495661 
L 203.006786 203.670317 
L 203.768647 189.765377 
L 206.054231 159.251434 
L 206.816093 117.117489 
L 207.577954 180.659683 
L 208.339816 151.865278 
L 209.101677 191.125927 
L 212.149123 174.833449 
L 212.910984 185.345251 
L 213.672845 199.355787 
L 214.434707 209.25923 
L 216.720291 178.166772 
L 217.482153 175.728682 
L 218.244014 200.120751 
L 219.005875 163.192244 
L 219.767737 161.165809 
L 222.053321 180.673371 
L 222.815183 178.302185 
L 223.577044 165.324965 
L 224.338905 172.59468 
L 225.100767 168.116075 
L 227.386351 198.763604 
L 228.148212 148.505917 
L 228.910074 185.178892 
L 229.671935 195.184779 
L 230.433797 186.374303 
L 232.719381 170.515385 
L 234.243104 244.314926 
L 235.004965 209.366177 
L 235.766827 181.860893 
L 238.052411 159.882385 
L 238.814272 196.976053 
L 239.576134 212.650591 
L 240.337995 204.506458 
L 241.099857 181.860893 
L 243.385441 191.447143 
L 244.147302 107.059881 
L 244.909164 206.012455 
L 245.671025 218.515083 
L 246.432886 187.339149 
L 248.718471 185.996054 
L 249.480332 168.008801 
L 250.242194 175.047325 
L 251.004055 207.540409 
L 251.765916 204.172699 
L 254.051501 211.949487 
L 254.813362 177.401406 
L 255.575223 190.732424 
L 256.337085 174.387946 
L 259.384531 143.350408 
L 260.908253 246.895322 
L 261.670115 230.452036 
L 262.431976 200.171145 
L 264.71756 183.562202 
L 265.479422 173.333486 
L 266.241283 198.74135 
L 267.003145 204.259065 
L 267.765006 149.993017 
L 270.05059 180.156106 
L 270.812452 183.562202 
L 271.574313 180.156106 
L 272.336175 168.245225 
L 273.098036 176.837259 
L 275.38362 208.492599 
L 276.145482 162.948332 
L 276.907343 170.092376 
L 277.669205 185.175569 
L 278.431066 190.184043 
L 280.71665 129.742932 
L 281.478512 145.466798 
L 282.240373 224.313133 
L 283.002235 181.860893 
L 286.04968 201.031544 
L 286.811542 154.064533 
L 287.573403 175.531835 
L 288.335264 205.416479 
L 289.097126 185.093704 
L 291.38271 186.726504 
L 292.144572 176.966726 
L 292.906433 186.726504 
L 293.668294 178.598115 
L 294.430156 180.235862 
L 296.71574 212.684689 
L 298.239463 112.780082 
L 299.001324 175.785465 
L 302.04877 171.305411 
L 302.810631 196.751881 
L 303.572493 184.893858 
L 304.334354 181.860893 
L 305.096216 175.772821 
L 307.3818 177.328702 
L 308.143661 174.349094 
L 308.905523 156.546365 
L 310.429246 163.072879 
L 312.71483 193.168741 
L 314.238553 204.784702 
L 315.000414 174.49508 
L 315.762275 212.529115 
L 318.04786 207.635688 
L 318.809721 169.345277 
L 319.571583 178.77747 
L 320.333444 166.503705 
L 321.095305 184.877403 
L 323.38089 174.293009 
L 324.142751 202.857945 
L 324.904612 183.400541 
L 325.666474 175.694048 
L 326.428335 177.272049 
L 328.71392 198.599217 
L 329.475781 202.04847 
L 330.237642 183.451811 
L 330.999504 196.211398 
L 331.761365 181.860893 
L 334.046949 196.46103 
L 334.808811 186.814893 
L 335.570672 190.167468 
L 336.332534 188.571989 
L 337.094395 175.095349 
L 340.903702 191.926682 
L 341.665564 185.258305 
L 342.427425 164.807816 
L 346.236732 166.820185 
L 346.998594 162.163594 
L 347.760455 149.787982 
L 350.046039 186.493803 
L 350.807901 191.178479 
L 351.569762 167.726582 
L 352.331624 175.684204 
L 353.093485 187.992167 
L 355.379069 175.684204 
L 356.140931 178.794475 
L 356.902792 186.44289 
L 357.664653 148.076017 
L 358.426515 170.052614 
L 360.712099 190.593075 
L 361.473961 208.333164 
L 362.235822 189.456338 
L 362.997683 164.997937 
L 366.045129 183.364477 
L 366.80699 150.251589 
L 367.568852 123.850811 
L 368.330713 188.639842 
L 369.092575 179.127646 
L 371.378159 176.409483 
L 372.14002 181.860893 
L 372.901882 217.058022 
L 373.663743 204.475218 
L 374.425605 155.710042 
L 376.711189 204.398803 
L 377.47305 189.100301 
L 378.234912 168.716732 
L 378.996773 158.856665 
L 379.758635 183.261043 
L 382.044219 169.246914 
L 382.80608 132.158241 
L 383.567942 207.920106 
L 384.329803 188.586537 
L 385.091664 188.639842 
L 387.377249 147.685564 
L 388.13911 194.993106 
L 388.900972 173.855224 
L 389.662833 172.610208 
L 390.424694 180.554246 
L 394.995863 180.554962 
L 395.757724 172.740301 
L 398.043309 145.773231 
L 398.80517 173.213217 
L 399.567031 186.751525 
L 400.328893 174.48104 
L 401.090754 196.491123 
L 403.376338 130.983728 
L 404.1382 183.030094 
L 404.900061 163.121439 
L 405.661923 195.606878 
L 406.423784 206.31836 
L 408.709368 189.060232 
L 409.47123 156.445003 
L 410.233091 214.746438 
L 410.994953 161.074771 
L 411.756814 177.089203 
L 414.042398 174.743478 
L 414.80426 166.570734 
L 415.566121 195.721115 
L 416.327983 174.813649 
L 417.089844 144.592541 
L 419.375428 182.975386 
L 420.13729 184.092863 
L 420.899151 176.264854 
L 421.661013 184.085067 
L 422.422874 217.534898 
L 424.708458 187.683591 
L 425.47032 158.405133 
L 426.232181 183.001305 
L 426.994042 193.284118 
L 430.041488 165.646494 
L 430.80335 108.015126 
L 431.565211 186.035378 
L 432.327072 159.832715 
L 433.088934 205.365383 
L 435.374518 145.056532 
L 436.136379 169.775043 
L 437.660102 157.043099 
L 438.421964 170.292011 
L 440.707548 172.353369 
L 441.469409 197.843015 
L 442.231271 180.901709 
L 442.993132 187.605485 
L 443.754994 204.033928 
L 446.040578 248.215846 
L 446.802439 144.200538 
L 447.564301 187.008917 
L 448.326162 199.471004 
L 449.088024 182.918813 
L 451.373608 173.384626 
L 452.135469 193.39875 
L 452.897331 202.070416 
L 453.659192 148.068261 
L 454.421053 190.242386 
L 456.706638 168.103625 
L 457.468499 193.312321 
L 458.230361 166.027979 
L 458.992222 188.076474 
L 459.754083 159.943039 
L 462.039668 217.45444 
L 462.801529 153.17924 
L 463.56339 184.941893 
L 464.325252 190.106661 
L 465.087113 175.614274 
L 467.372698 182.893905 
L 468.134559 188.068757 
L 468.89642 180.818843 
L 469.658282 180.820143 
L 470.420143 166.263862 
L 472.705728 171.654049 
L 473.467589 188.919201 
L 474.22945 200.166477 
L 475.753173 189.139178 
L 478.038757 181.860893 
L 478.800619 182.909498 
L 479.56248 178.710048 
L 480.324342 188.138861 
L 481.086203 177.64419 
L 483.371787 166.12648 
L 484.89551 176.776685 
L 485.657372 174.78547 
L 486.419233 161.815329 
L 488.704817 180.882489 
L 490.22854 166.218992 
L 490.990402 191.456974 
L 491.752263 202.246818 
L 494.037847 181.860893 
L 494.799709 192.806708 
L 495.56157 167.744375 
L 496.323431 181.860893 
L 497.085293 173.928882 
L 499.370877 174.985577 
L 500.132739 180.886021 
L 500.8946 177.968886 
L 501.656461 179.924446 
L 502.418323 192.489626 
L 504.703907 166.200734 
L 505.465768 172.25376 
L 506.22763 197.057397 
L 506.989491 188.63252 
L 507.751353 187.712988 
L 510.036937 180.879032 
L 510.798798 150.466768 
L 511.56066 180.915676 
L 512.322521 158.250733 
L 513.084383 184.616146 
L 515.369967 210.424972 
L 516.131828 191.401978 
L 516.89369 215.641849 
L 517.655551 186.889908 
L 518.417413 182.872641 
L 520.702997 181.860893 
L 521.464858 196.047001 
L 522.22672 178.768468 
L 522.988581 153.105295 
L 523.750442 221.570124 
L 526.036027 172.480317 
L 526.797888 177.736959 
L 527.55975 171.603933 
L 528.321611 155.517482 
L 529.083472 181.860893 
L 531.369057 220.166345 
L 532.130918 208.628102 
L 532.89278 173.35219 
L 533.654641 177.648441 
L 534.416502 191.289672 
L 536.702087 136.298531 
L 537.463948 173.823761 
L 538.225809 148.027637 
L 538.987671 182.816949 
L 539.749532 172.286851 
L 542.035117 177.128714 
L 542.796978 153.625204 
L 543.558839 175.488379 
L 544.320701 183.668228 
L 545.082562 151.076654 
L 547.368146 179.241236 
L 548.130008 154.005988 
L 548.891869 176.806812 
L 549.653731 182.698734 
L 550.415592 182.698763 
L 552.701176 194.444358 
L 553.463038 168.23307 
L 554.224899 150.01653 
L 554.986761 177.821723 
L 555.748622 158.559725 
L 558.034206 191.239562 
L 558.796068 195.301154 
L 559.557929 188.290776 
L 560.319791 180.23887 
L 561.081652 176.207177 
L 563.367236 154.566232 
L 564.129098 191.969578 
L 564.890959 185.789163 
L 565.65282 188.974905 
L 566.414682 194.62226 
L 568.700266 165.665397 
L 569.462128 164.390914 
L 570.223989 181.077697 
L 570.98585 181.086346 
L 571.747712 184.190285 
L 574.033296 200.548232 
L 574.795157 203.366077 
L 575.557019 176.14066 
L 576.31888 176.171363 
L 577.080742 178.637631 
L 579.366326 148.927172 
L 580.128187 146.303593 
L 580.890049 163.331832 
L 581.65191 160.106456 
L 582.413772 180.452195 
L 584.699356 171.981262 
L 585.461217 202.083757 
L 586.223079 178.997749 
L 586.98494 168.332548 
L 590.032386 168.548517 
L 590.794247 164.612084 
L 592.31797 151.457378 
L 593.079832 192.290908 
L 595.365416 126.397985 
L 596.127277 158.339447 
L 596.889139 170.416671 
L 597.651 134.940001 
L 598.412861 189.174877 
L 600.698446 142.152082 
L 601.460307 168.319462 
L 602.222169 242.606615 
L 602.98403 149.67442 
L 603.745891 181.309406 
L 606.031476 172.463662 
L 606.793337 193.338896 
L 607.555198 195.726374 
L 608.31706 209.487334 
L 609.078921 215.101238 
L 611.364506 197.648519 
L 612.126367 230.767377 
L 612.888228 165.421444 
L 613.65009 217.973858 
L 614.411951 201.413462 
L 616.697535 182.548884 
L 618.98312 142.486392 
L 619.744981 175.258893 
L 622.030565 175.317417 
L 624.31615 199.396676 
L 625.078011 159.967884 
L 627.363595 182.505151 
L 628.125457 143.695097 
L 628.887318 172.581319 
L 629.64918 194.709319 
L 630.411041 185.589319 
L 632.696625 106.957476 
L 633.458487 188.163071 
L 634.220348 170.627815 
L 634.982209 147.694531 
L 635.744071 189.64903 
L 638.029655 180.737836 
L 638.791517 162.233318 
L 639.553378 245.964184 
L 640.315239 168.803515 
L 641.077101 250.231746 
L 643.362685 249.97261 
L 644.124546 173.54279 
L 645.648269 217.509208 
L 646.410131 144.620577 
L 648.695715 155.299407 
L 649.457576 200.15097 
L 650.219438 177.705263 
L 650.981299 195.644261 
L 651.743161 233.015498 
L 654.028745 218.441575 
L 654.790606 126.424342 
L 655.552468 162.093549 
L 656.314329 168.987774 
L 657.076191 185.382404 
L 659.361775 149.325717 
L 660.885498 178.525318 
L 661.647359 191.163281 
L 662.409221 158.342598 
L 666.980389 255.055046 
L 667.74225 183.293727 
L 670.027835 148.849729 
L 670.789696 189.454244 
L 671.551558 165.837964 
L 672.313419 243.37739 
L 673.07528 248.277002 
L 675.360865 330.999003 
L 676.122726 151.590817 
L 676.884587 223.319911 
L 677.646449 324.643602 
L 677.646449 324.643602 
" style="fill:none;stroke:#d62728;stroke-linecap:square;stroke-width:1.5;"/>
   </g>
   <g id="patch_3">
    <path d="M 38.482813 398.88 
L 38.482813 7.2 
" style="fill:none;stroke:#000000;stroke-linecap:square;stroke-linejoin:miter;stroke-width:0.8;"/>
   </g>
   <g id="patch_4">
    <path d="M 708.082813 398.88 
L 708.082813 7.2 
" style="fill:none;stroke:#000000;stroke-linecap:square;stroke-linejoin:miter;stroke-width:0.8;"/>
   </g>
   <g id="patch_5">
    <path d="M 38.482812 398.88 
L 708.082812 398.88 
" style="fill:none;stroke:#000000;stroke-linecap:square;stroke-linejoin:miter;stroke-width:0.8;"/>
   </g>
   <g id="patch_6">
    <path d="M 38.482812 7.2 
L 708.082812 7.2 
" style="fill:none;stroke:#000000;stroke-linecap:square;stroke-linejoin:miter;stroke-width:0.8;"/>
   </g>
   <g id="legend_1">
    <g id="patch_7">
     <path d="M 45.482813 73.9125 
L 129.290625 73.9125 
Q 131.290625 73.9125 131.290625 71.9125 
L 131.290625 14.2 
Q 131.290625 12.2 129.290625 12.2 
L 45.482813 12.2 
Q 43.482813 12.2 43.482813 14.2 
L 43.482813 71.9125 
Q 43.482813 73.9125 45.482813 73.9125 
z
" style="fill:#ffffff;opacity:0.8;stroke:#cccccc;stroke-linejoin:miter;"/>
    </g>
    <g id="line2d_20">
     <path d="M 47.482813 20.298437 
L 67.482813 20.298437 
" style="fill:none;stroke:#1f77b4;stroke-linecap:square;stroke-width:1.5;"/>
    </g>
    <g id="line2d_21"/>
    <g id="text_17">
     <!-- JBSS3.SA -->
     <defs>
      <path d="M 9.8125 72.90625 
L 19.671875 72.90625 
L 19.671875 5.078125 
Q 19.671875 -8.109375 14.671875 -14.0625 
Q 9.671875 -20.015625 -1.421875 -20.015625 
L -5.171875 -20.015625 
L -5.171875 -11.71875 
L -2.09375 -11.71875 
Q 4.4375 -11.71875 7.125 -8.046875 
Q 9.8125 -4.390625 9.8125 5.078125 
z
" id="DejaVuSans-74"/>
      <path d="M 19.671875 34.8125 
L 19.671875 8.109375 
L 35.5 8.109375 
Q 43.453125 8.109375 47.28125 11.40625 
Q 51.125 14.703125 51.125 21.484375 
Q 51.125 28.328125 47.28125 31.5625 
Q 43.453125 34.8125 35.5 34.8125 
z
M 19.671875 64.796875 
L 19.671875 42.828125 
L 34.28125 42.828125 
Q 41.5 42.828125 45.03125 45.53125 
Q 48.578125 48.25 48.578125 53.8125 
Q 48.578125 59.328125 45.03125 62.0625 
Q 41.5 64.796875 34.28125 64.796875 
z
M 9.8125 72.90625 
L 35.015625 72.90625 
Q 46.296875 72.90625 52.390625 68.21875 
Q 58.5 63.53125 58.5 54.890625 
Q 58.5 48.1875 55.375 44.234375 
Q 52.25 40.28125 46.1875 39.3125 
Q 53.46875 37.75 57.5 32.78125 
Q 61.53125 27.828125 61.53125 20.40625 
Q 61.53125 10.640625 54.890625 5.3125 
Q 48.25 0 35.984375 0 
L 9.8125 0 
z
" id="DejaVuSans-66"/>
      <path d="M 53.515625 70.515625 
L 53.515625 60.890625 
Q 47.90625 63.578125 42.921875 64.890625 
Q 37.9375 66.21875 33.296875 66.21875 
Q 25.25 66.21875 20.875 63.09375 
Q 16.5 59.96875 16.5 54.203125 
Q 16.5 49.359375 19.40625 46.890625 
Q 22.3125 44.4375 30.421875 42.921875 
L 36.375 41.703125 
Q 47.40625 39.59375 52.65625 34.296875 
Q 57.90625 29 57.90625 20.125 
Q 57.90625 9.515625 50.796875 4.046875 
Q 43.703125 -1.421875 29.984375 -1.421875 
Q 24.8125 -1.421875 18.96875 -0.25 
Q 13.140625 0.921875 6.890625 3.21875 
L 6.890625 13.375 
Q 12.890625 10.015625 18.65625 8.296875 
Q 24.421875 6.59375 29.984375 6.59375 
Q 38.421875 6.59375 43.015625 9.90625 
Q 47.609375 13.234375 47.609375 19.390625 
Q 47.609375 24.75 44.3125 27.78125 
Q 41.015625 30.8125 33.5 32.328125 
L 27.484375 33.5 
Q 16.453125 35.6875 11.515625 40.375 
Q 6.59375 45.0625 6.59375 53.421875 
Q 6.59375 63.09375 13.40625 68.65625 
Q 20.21875 74.21875 32.171875 74.21875 
Q 37.3125 74.21875 42.625 73.28125 
Q 47.953125 72.359375 53.515625 70.515625 
z
" id="DejaVuSans-83"/>
      <path d="M 40.578125 39.3125 
Q 47.65625 37.796875 51.625 33 
Q 55.609375 28.21875 55.609375 21.1875 
Q 55.609375 10.40625 48.1875 4.484375 
Q 40.765625 -1.421875 27.09375 -1.421875 
Q 22.515625 -1.421875 17.65625 -0.515625 
Q 12.796875 0.390625 7.625 2.203125 
L 7.625 11.71875 
Q 11.71875 9.328125 16.59375 8.109375 
Q 21.484375 6.890625 26.8125 6.890625 
Q 36.078125 6.890625 40.9375 10.546875 
Q 45.796875 14.203125 45.796875 21.1875 
Q 45.796875 27.640625 41.28125 31.265625 
Q 36.765625 34.90625 28.71875 34.90625 
L 20.21875 34.90625 
L 20.21875 43.015625 
L 29.109375 43.015625 
Q 36.375 43.015625 40.234375 45.921875 
Q 44.09375 48.828125 44.09375 54.296875 
Q 44.09375 59.90625 40.109375 62.90625 
Q 36.140625 65.921875 28.71875 65.921875 
Q 24.65625 65.921875 20.015625 65.03125 
Q 15.375 64.15625 9.8125 62.3125 
L 9.8125 71.09375 
Q 15.4375 72.65625 20.34375 73.4375 
Q 25.25 74.21875 29.59375 74.21875 
Q 40.828125 74.21875 47.359375 69.109375 
Q 53.90625 64.015625 53.90625 55.328125 
Q 53.90625 49.265625 50.4375 45.09375 
Q 46.96875 40.921875 40.578125 39.3125 
z
" id="DejaVuSans-51"/>
      <path d="M 34.1875 63.1875 
L 20.796875 26.90625 
L 47.609375 26.90625 
z
M 28.609375 72.90625 
L 39.796875 72.90625 
L 67.578125 0 
L 57.328125 0 
L 50.6875 18.703125 
L 17.828125 18.703125 
L 11.1875 0 
L 0.78125 0 
z
" id="DejaVuSans-65"/>
     </defs>
     <g transform="translate(75.482813 23.798437)scale(0.1 -0.1)">
      <use xlink:href="#DejaVuSans-74"/>
      <use x="29.492188" xlink:href="#DejaVuSans-66"/>
      <use x="98.080078" xlink:href="#DejaVuSans-83"/>
      <use x="161.556641" xlink:href="#DejaVuSans-83"/>
      <use x="225.033203" xlink:href="#DejaVuSans-51"/>
      <use x="288.65625" xlink:href="#DejaVuSans-46"/>
      <use x="320.443359" xlink:href="#DejaVuSans-83"/>
      <use x="383.935547" xlink:href="#DejaVuSans-65"/>
     </g>
    </g>
    <g id="line2d_22">
     <path d="M 47.482813 34.976562 
L 67.482813 34.976562 
" style="fill:none;stroke:#ff7f0e;stroke-linecap:square;stroke-width:1.5;"/>
    </g>
    <g id="line2d_23"/>
    <g id="text_18">
     <!-- MRFG3.SA -->
     <defs>
      <path d="M 9.8125 72.90625 
L 24.515625 72.90625 
L 43.109375 23.296875 
L 61.8125 72.90625 
L 76.515625 72.90625 
L 76.515625 0 
L 66.890625 0 
L 66.890625 64.015625 
L 48.09375 14.015625 
L 38.1875 14.015625 
L 19.390625 64.015625 
L 19.390625 0 
L 9.8125 0 
z
" id="DejaVuSans-77"/>
      <path d="M 44.390625 34.1875 
Q 47.5625 33.109375 50.5625 29.59375 
Q 53.5625 26.078125 56.59375 19.921875 
L 66.609375 0 
L 56 0 
L 46.6875 18.703125 
Q 43.0625 26.03125 39.671875 28.421875 
Q 36.28125 30.8125 30.421875 30.8125 
L 19.671875 30.8125 
L 19.671875 0 
L 9.8125 0 
L 9.8125 72.90625 
L 32.078125 72.90625 
Q 44.578125 72.90625 50.734375 67.671875 
Q 56.890625 62.453125 56.890625 51.90625 
Q 56.890625 45.015625 53.6875 40.46875 
Q 50.484375 35.9375 44.390625 34.1875 
z
M 19.671875 64.796875 
L 19.671875 38.921875 
L 32.078125 38.921875 
Q 39.203125 38.921875 42.84375 42.21875 
Q 46.484375 45.515625 46.484375 51.90625 
Q 46.484375 58.296875 42.84375 61.546875 
Q 39.203125 64.796875 32.078125 64.796875 
z
" id="DejaVuSans-82"/>
      <path d="M 9.8125 72.90625 
L 51.703125 72.90625 
L 51.703125 64.59375 
L 19.671875 64.59375 
L 19.671875 43.109375 
L 48.578125 43.109375 
L 48.578125 34.8125 
L 19.671875 34.8125 
L 19.671875 0 
L 9.8125 0 
z
" id="DejaVuSans-70"/>
      <path d="M 59.515625 10.40625 
L 59.515625 29.984375 
L 43.40625 29.984375 
L 43.40625 38.09375 
L 69.28125 38.09375 
L 69.28125 6.78125 
Q 63.578125 2.734375 56.6875 0.65625 
Q 49.8125 -1.421875 42 -1.421875 
Q 24.90625 -1.421875 15.25 8.5625 
Q 5.609375 18.5625 5.609375 36.375 
Q 5.609375 54.25 15.25 64.234375 
Q 24.90625 74.21875 42 74.21875 
Q 49.125 74.21875 55.546875 72.453125 
Q 61.96875 70.703125 67.390625 67.28125 
L 67.390625 56.78125 
Q 61.921875 61.421875 55.765625 63.765625 
Q 49.609375 66.109375 42.828125 66.109375 
Q 29.4375 66.109375 22.71875 58.640625 
Q 16.015625 51.171875 16.015625 36.375 
Q 16.015625 21.625 22.71875 14.15625 
Q 29.4375 6.6875 42.828125 6.6875 
Q 48.046875 6.6875 52.140625 7.59375 
Q 56.25 8.5 59.515625 10.40625 
z
" id="DejaVuSans-71"/>
     </defs>
     <g transform="translate(75.482813 38.476562)scale(0.1 -0.1)">
      <use xlink:href="#DejaVuSans-77"/>
      <use x="86.279297" xlink:href="#DejaVuSans-82"/>
      <use x="155.761719" xlink:href="#DejaVuSans-70"/>
      <use x="213.28125" xlink:href="#DejaVuSans-71"/>
      <use x="290.771484" xlink:href="#DejaVuSans-51"/>
      <use x="354.394531" xlink:href="#DejaVuSans-46"/>
      <use x="386.181641" xlink:href="#DejaVuSans-83"/>
      <use x="449.673828" xlink:href="#DejaVuSans-65"/>
     </g>
    </g>
    <g id="line2d_24">
     <path d="M 47.482813 49.654687 
L 67.482813 49.654687 
" style="fill:none;stroke:#2ca02c;stroke-linecap:square;stroke-width:1.5;"/>
    </g>
    <g id="line2d_25"/>
    <g id="text_19">
     <!-- BRFS3.SA -->
     <g transform="translate(75.482813 53.154687)scale(0.1 -0.1)">
      <use xlink:href="#DejaVuSans-66"/>
      <use x="68.603516" xlink:href="#DejaVuSans-82"/>
      <use x="138.085938" xlink:href="#DejaVuSans-70"/>
      <use x="195.589844" xlink:href="#DejaVuSans-83"/>
      <use x="259.066406" xlink:href="#DejaVuSans-51"/>
      <use x="322.689453" xlink:href="#DejaVuSans-46"/>
      <use x="354.476562" xlink:href="#DejaVuSans-83"/>
      <use x="417.96875" xlink:href="#DejaVuSans-65"/>
     </g>
    </g>
    <g id="line2d_26">
     <path d="M 47.482813 64.332812 
L 67.482813 64.332812 
" style="fill:none;stroke:#d62728;stroke-linecap:square;stroke-width:1.5;"/>
    </g>
    <g id="line2d_27"/>
    <g id="text_20">
     <!-- BEEF3.SA -->
     <defs>
      <path d="M 9.8125 72.90625 
L 55.90625 72.90625 
L 55.90625 64.59375 
L 19.671875 64.59375 
L 19.671875 43.015625 
L 54.390625 43.015625 
L 54.390625 34.71875 
L 19.671875 34.71875 
L 19.671875 8.296875 
L 56.78125 8.296875 
L 56.78125 0 
L 9.8125 0 
z
" id="DejaVuSans-69"/>
     </defs>
     <g transform="translate(75.482813 67.832812)scale(0.1 -0.1)">
      <use xlink:href="#DejaVuSans-66"/>
      <use x="68.603516" xlink:href="#DejaVuSans-69"/>
      <use x="131.787109" xlink:href="#DejaVuSans-69"/>
      <use x="194.970703" xlink:href="#DejaVuSans-70"/>
      <use x="252.490234" xlink:href="#DejaVuSans-51"/>
      <use x="316.113281" xlink:href="#DejaVuSans-46"/>
      <use x="347.900391" xlink:href="#DejaVuSans-83"/>
      <use x="411.392578" xlink:href="#DejaVuSans-65"/>
     </g>
    </g>
   </g>
  </g>
 </g>
 <defs>
  <clipPath id="p65c996a41e">
   <rect height="391.68" width="669.6" x="38.482813" y="7.2"/>
  </clipPath>
 </defs>
</svg>
